<?xml version="1.0" standalone="no"?>
<!DOCTYPE svg PUBLIC "-//W3C//DTD SVG 20010904//EN"
 "http://www.w3.org/TR/2001/REC-SVG-20010904/DTD/svg10.dtd">
<svg version="1.0" xmlns="http://www.w3.org/2000/svg"
 width="961.000000pt" height="947.000000pt" viewBox="0 0 961.000000 947.000000"
 preserveAspectRatio="xMidYMid meet">
<metadata>
Created by potrace 1.15, written by Peter Selinger 2001-2017
</metadata>
<g transform="translate(0.000000,947.000000) scale(0.100000,-0.100000)"
fill="#FF0062" stroke="none">
<path d="M2635 9000 c-249 -27 -530 -119 -733 -241 -387 -232 -680 -618 -792
-1044 -64 -241 -60 -47 -60 -3121 0 -2357 3 -2816 15 -2905 68 -513 324 -922
760 -1214 281 -188 563 -280 895 -292 258 -9 486 28 705 114 137 54 196 88
980 565 975 594 1081 660 1220 758 334 239 527 464 512 597 -3 25 -10 49 -17
53 -6 4 -123 10 -258 13 -408 9 -718 68 -1167 219 -671 226 -1151 545 -1569
1041 -325 387 -443 749 -392 1197 20 170 52 274 128 424 91 177 180 300 312
432 283 281 595 414 976 414 396 0 707 -123 996 -393 237 -222 372 -504 404
-845 27 -289 -50 -574 -223 -832 -70 -103 -242 -273 -359 -354 -54 -37 -98
-74 -98 -81 0 -20 170 -176 297 -271 352 -266 718 -422 1146 -491 159 -25 565
-25 727 0 455 71 878 256 1201 525 269 225 497 545 593 833 73 217 96 505 61
745 -31 207 -117 463 -211 626 -109 190 -272 376 -436 498 -80 59 -669 425
-1308 812 -168 102 -570 347 -895 545 -324 198 -786 479 -1025 625 -239 146
-633 386 -875 533 -492 301 -648 384 -815 439 -207 67 -491 98 -695 76z"/>
</g>
</svg>
