<svg xmlns="http://www.w3.org/2000/svg" xmlns:xlink="http://www.w3.org/1999/xlink" viewBox="0 0 895.66 574.98"><defs><style>.cls-1{fill:#e8e8eb;}.cls-2{fill:url(#New_Gradient_Swatch_1);}.cls-3{fill:#fff;}.cls-4{fill:#f1f1f1;}.cls-5{fill:#2a2a4b;}.cls-6{fill:#83cdfe;}.cls-7{fill:#434343;}.cls-8{fill:#030202;}.cls-9{fill:#f4b78a;}.cls-10{fill:#4cca8c;}.cls-11{fill:#ff413e;}.cls-12{fill:#f5ad3c;}.cls-13{fill:#97bdd3;}.cls-14{fill:#dfedef;}.cls-15{fill:#dbdbdb;}.cls-16{fill:#f3f8f7;}.cls-17{fill:#63564e;}</style><linearGradient id="New_Gradient_Swatch_1" x1="65.6" y1="-403.45" x2="836.99" y2="-403.45" gradientTransform="matrix(0.76, 0.38, -0.5, 1, -77.61, 463.74)" gradientUnits="userSpaceOnUse"><stop offset="0" stop-color="#6d70da"/><stop offset="1" stop-color="#9233c3"/></linearGradient></defs><title>protoype</title><g id="Layer_10" data-name="Layer 10"><path class="cls-1" d="M562.89,21.48C514.81,21-27.54,195.28,110.58,381S711.33,576.24,752.72,498.36,739.71,23.38,562.89,21.48Z"/><path class="cls-2" d="M662.6,6.64C618.41-6.27,58,35.43,121.65,264.12S609,621.71,673.91,551.38,825.11,54.13,662.6,6.64Z"/><rect class="cls-3" x="154.19" y="359.26" width="418.49" height="90.78"/><rect class="cls-4" x="179.22" y="439.58" width="390.98" height="10.47"/><path class="cls-4" d="M154,244.75l.18-133.61c3.25.12,6.49.34,9.74.34l550.64,0c3.25,0,6.5.11,9.76.17l0,6.62a83.07,83.07,0,0,0-26,.41c-12.8,2-21.28,8.6-25.06,20.34-2.85,8.86-1.65,10.62,7.81,11.94-.41,9-7.42,18.16,3.22,26.65,6.53,5.21,12.93,5.69,20.11,4.11,6.93-1.53,8,1.36,6.91,6.68-1.35,6.46-2.76,12.91-4.14,19.36a212.71,212.71,0,0,0-14.32,30.27c-1.88,4.72-2.51,9.68,2.3,13.61-3.89.24-7.22-1.47-10.69-2.71-16.26-5.81-32.55-11.53-48.77-17.43-4.72-1.72-8.14-1.42-10.08,3.58-5.63,14.52-11.38,29-17,43.48-1.89,4.82,0,7.22,5.39,7.25,1.25,4.53,5.29,4,8.84,4.31-.22,4,2.74,6.9,4,10.37,2.18,5.78,5.2,7.5,11.65,4.3,7-3.45,14.67-7.62,22.11-.28,3.06,4.58,4.46,10.61,11.48,11.76,3.4.63,6.78,1.6,10.21,1.82,9,.58,9.14.48,6.32,8.65-2.69,7.81-5.57,15.56-8.59,24l10.57-2.66a36.41,36.41,0,0,1-1.09,4.78c-12.63,35.1-31.08,67.52-51.38,99.1-2.17-2.91-5.44-1.88-8.29-1.89-22.53-.07-45.06-.2-67.58.07-5.66.07-7.27-1.61-7.21-6.86.27-23.11-.08-46.23.25-69.34.08-5.84-1.67-7.64-8-7.59-34.54.27-69.08.12-103.62.13-9.11,0-10.17.88-10.21,9.78-.1,21,0,42,0,63,0,1.89-.12,3.79,0,5.66.24,3.47-1,5.15-5.06,5.21-4.35.06-5.58-1.62-5.56-5.48.12-23.58-.14-47.17.19-70.76.09-5.93-1.83-7.56-8-7.52q-52.17.39-104.37,0c-6.15,0-8.17,1.51-8.08,7.49.34,22.87.11,45.75.16,68.64,0,4.17.5,7.82-6.25,7.73-6.39-.09-5.81-3.56-5.81-7.43,0-22.88-.24-45.77.18-68.64.12-6.44-2.09-7.87-8.53-7.8-28.28.31-56.57.12-84.85.12q2.35-12.75,4.7-25.5c21.65,0,43.3-.15,64.95.13,5.64.07,7.32-1.63,7.15-6.84-.35-11-.08-22-.07-33.07l13.47-1.28a51.86,51.86,0,0,1,0,6.36c-.59,4.91,1.45,6.5,6.75,6.49q127.21-.21,254.42,0c4.9,0,6.27-1.5,6.55-6.07.4-6.47-1.76-8.35-8.76-8.32q-116.7.35-233.4.09c-3.07,0-6.59,1.25-9.13-1.69l39.32-12.19c2.11,1.9,4.77,1.28,7.16,1.14,14.15-.83,28.28-2.07,42.45-2.71,22.87-1,45.71-2.55,68.55-4.15,28.56-2,57.2-3,85.81-4.4,3.8-.18,8,.38,7.65-5.15-.52-9.06-2.32-11.63-8.73-10.24-10.59,2.31-21.35,1.42-32,2.3-23.29,1.93-46.68,2.92-70,4.4-24.09,1.53-48.23,2.37-72.28,4.42-4-2.37-8,1.92-12,.07-17,.94-34.13,1.46-51.1,3.09-5,.48-10.41-.16-15.14,2.34a55.31,55.31,0,0,1-21.53-6.59c3.57-3.32,1.77-7.53,1.83-11.29.22-15.22.09-15.22-15.63-16.24q6.33-6.92,12.67-13.81c1.53,1.67,3.62,1.36,5.59,1.36q135.93,0,271.87.1c5.46,0,6.72-1.85,6.69-6.6-.18-30-.25-59.93.05-89.89,0-5.76-2-7.1-7.73-7.09q-184.75.2-369.51,0c-6.65,0-7.77,2.3-7.71,7.83.25,27.13.11,54.26.11,81.39,0,12,0,12,10.55,15.78ZM384.3,341c29.76,0,59.52-.14,89.27.12,6.06.05,8.23-1.36,8.23-7.41s-2.32-7-7.92-7q-89.26.23-178.55,0c-5.71,0-7.81,1.25-7.85,7-.05,6.15,2.33,7.39,8.3,7.34C325.28,340.84,354.79,341,384.3,341ZM339.58,257.4c15,0,30-.32,44.94.15,6.85.22,7.1-3,7-7.77-.13-4.36.64-8.17-6.6-8.09q-45.33.52-90.65,0c-7.28-.08-6.42,3.78-6.58,8.11-.18,4.79.2,7.95,7,7.74C309.6,257.08,324.59,257.4,339.58,257.4Z"/><path class="cls-5" d="M724.33,111.67c-3.26-.06-6.51-.17-9.76-.17l-550.64,0c-3.25,0-6.49-.22-9.74-.34,0-9,0-17.93.05-26.9.06-8.48,2.52-10.79,11.7-10.8q87.89,0,175.78,0,67.61,0,135.21-.22c32.72,0,65.44.16,98.16.14,24,0,47.94-.21,71.91-.33q31.9.19,63.8.36c11.6.06,13.81,2.16,13.9,13.34q.1,12.39.23,24.76ZM225.88,97.28c3.18-.18,5.35-1.7,5.57-4.68s-1.42-5-4.77-5.23c-3.68-.29-5.92,1.55-6,4.83C220.59,95.13,222.72,96.85,225.88,97.28Zm-45-5.88c-.56-2.43-2.31-4.08-5.62-3.84-3,.2-4.57,1.88-4.55,4.61,0,3.08,1.92,4.92,5.17,4.83S180.78,95.05,180.85,91.4Zm25.46.83c-.41-2.91-1.95-4.82-5.26-4.94s-5.33,1.5-5.49,4.54c-.18,3.32,1.74,5.45,5.39,5.38C204.17,97.16,205.78,95.13,206.31,92.23Z"/><path class="cls-6" d="M287.7,299.89l-13.47,1.28-4.49-.25c-16.86-1-34.06-.34-49.35-9-2.29-1.3-3.07-.11-3.71,1.68-5.58,15.57-11.83,31-14.48,47.33q-2.35,12.75-4.7,25.5l-1.7,1.41L182.19,363c-1.94-22.66.76-44.39,16.07-64.23-11.9,1.82-14.92,3.53-18.25,11.11-6.82,15.52-11.39,31.79-17.3,47.61-1.22,3.26,1.23,2.79,2.18,3.95-.15,2.11-.71,4.27-.38,6.3,1.24,7.7-2.81,11.87-10,14.16l-14.08,4.46c-20.61,4.49-40.09,3.07-57.17-10-4.62-3.55-8.89-7.5-13.31-11.27,15.71-46.88,39-89.06,82.6-118.71a9.89,9.89,0,0,0,1.48-1.55l27-14.19c10.91-5.23,25.07-4.87,32.15-16.73a3.49,3.49,0,0,1,4.55-1.42c2.6,1.37,0,2.71-.39,4a5.78,5.78,0,0,0,.38,4.76c2.52,6.64,7.09,11.93,12.42,16.71a34.44,34.44,0,0,0,9.32,9.4,11.69,11.69,0,0,0,7.06,4.84c6.72,8.15,16.13,12.66,25.73,16.9a55.31,55.31,0,0,0,21.53,6.59c21.09,4.06,42.14,3,63.18-.36-.37,1.46-.75,2.92-1.12,4.39l-12.45,4.86-39.32,12.19Z"/><path class="cls-7" d="M216.16,396.14c-13.33-9.79-27.41-18.69-39.75-29.65-4.88.4-7.49-3.77-11.52-5.08-.15,2.1-.71,4.26-.38,6.29,1.24,7.7-2.81,11.87-10,14.16l-14.08,4.46c-20.61,4.49-40.09,3.07-57.17-10-4.62-3.55-8.89-7.5-13.31-11.27-.91,3.89-2.22,7.74-2.65,11.67C65.15,396,68.9,413.32,87.64,424.85a84.93,84.93,0,0,0,37.73,12.22c9.39,2.49,19,1.17,28.57,1.89l16.57-1.66c4.64-.66,6.67,1.57,7.73,5.58,2.22,8.32,4.77,16.55,7.18,24.81,1.7,8.55,3.25,17.14,7.67,24.95l10.07-1.24a586.27,586.27,0,0,0,15.67-66C220.54,415.44,222.52,405.46,216.16,396.14Z"/><path class="cls-7" d="M170.51,437.3c4.64-.66,6.67,1.57,7.73,5.58,2.22,8.32,4.77,16.55,7.18,24.81-4.87,2-5.12,7.05-7.74,10.53s-3.75,8.15-7.53,11.07c-1.26,1.35-2.83.38-4.26.49-2.87-2.36-1-5.18-.7-7.75,1.2-10.68,2.6-21.35,3.93-32A25.64,25.64,0,0,0,170.51,437.3Z"/><path class="cls-7" d="M216.16,396.14c-13.33-9.79-27.41-18.69-39.75-29.65l5.78-3.53,13.61,4.9c11,5,21,10.71,20.83,24.17A41,41,0,0,1,216.16,396.14Z"/><path class="cls-8" d="M201.77,499.47c6.45,6.87,16.17,8,24.24,12.39-11.86-.19-23.6-.08-36.31.69,2.35-5,2.6-9.72,3.39-14.36C195.74,500.09,198.56,500.94,201.77,499.47Z"/><path class="cls-5" d="M165.89,489.78c1.43-.11,3,.86,4.26-.49-1.73,2-.35,2.71,1.23,4.08,3.19,2.75,7.38,3.58,12,6.23h-20C164.33,496,165.11,492.89,165.89,489.78Z"/><path class="cls-9" d="M201.77,499.47c-3.21,1.47-6,.62-8.68-1.28v-5.55l10.07-1.24Q202.46,495.43,201.77,499.47Z"/><path class="cls-5" d="M755.63,487c4.38,6.22,3.28,11.45-3.31,15.55a17.43,17.43,0,0,0-6,6.09c-3.73,6.42-9,6-16.16,2.77,11.78-4.88,13.49-15.13,17.42-24.08Z"/><path class="cls-9" d="M755.63,487l-8.06.33-8-14.64a17.88,17.88,0,0,1,9.46-2.87Q752.34,478.44,755.63,487Z"/><path class="cls-5" d="M616.85,505.85c-7.23,9-7.88,9.25-18.43,5.25a24.07,24.07,0,0,0-7.2-1.49c-7.88-.52-9.74-2.58-10-11.45,9.56,7.26,19.65,3.26,29.58,2.24Q613.84,503.13,616.85,505.85Z"/><path class="cls-9" d="M616.85,505.85q-3-2.72-6-5.45l9.68-15,16,.11C630.93,493.14,623.74,499.37,616.85,505.85Z"/><path class="cls-3" d="M217.74,221.21a5.78,5.78,0,0,1-.38-4.76c.37-1.33,3-2.67.39-4a3.49,3.49,0,0,0-4.55,1.42c-7.08,11.86-21.24,11.5-32.15,16.73-10.55-3.77-10.55-3.77-10.55-15.78,0-27.13.14-54.26-.11-81.39-.06-5.53,1.06-7.83,7.71-7.83q184.76.28,369.51,0c5.78,0,7.78,1.33,7.73,7.09-.3,30-.23,59.92-.05,89.89,0,4.75-1.23,6.61-6.69,6.6q-135.93-.19-271.87-.1c-2,0-4.06.31-5.59-1.36,1-1.88,2.05-3.77,3.07-5.65,5.69-2.88,8.67-7.25,9.27-13.42.41-4.19,1.77-8.29,2.7-12.43,8.43-2.13,16.34-5.12,22.26-11.46-.44-.59-.53-.86-.68-.89a6.52,6.52,0,0,0-1.46-.22c-9.13-.05-16.85-1.83-18.56-12.16-.48-2.86-3.1-4.69-5.65-6.3-7.21-4.55-13.93-2.29-20.23,1.57-16,9.78-27.59,23.61-38.71,37.84-3.4,4.35-1,6.84,3.32,8.59C224.71,217,221.05,218.93,217.74,221.21Z"/><path class="cls-10" d="M770.2,298.51c1.77,12.84,3.7,25.67,5.22,38.54.43,3.66,3,7.72-.9,11.15-2.18-.38-4.38-.7-6.55-1.15-14.17-2.94-28.32-6-43-5.89a115.26,115.26,0,0,0-34.38,6.91l-10.57,2.66c3-8.41,5.9-16.16,8.59-24,2.82-8.17,2.73-8.07-6.32-8.65-3.43-.22-6.81-1.19-10.21-1.82l-2.31-9.92c3.59-.77,7.21-1.47,10.79-2.31,10.12-2.39,21.42-1.72,29.27-10a21.36,21.36,0,0,0,7.28-6.95l2-2.58a21.13,21.13,0,0,0,5.62-7.31c.68-1,1.44-1.91,2-2.93,4.78-8.27,4.69-8.1-4.45-11.67s-19-5.44-27.17-11c-4.81-3.93-4.18-8.89-2.3-13.61a212.08,212.08,0,0,1,14.32-30.26c3.1,2.67,5.8-.2,8.68-.55-1.16,12.42-2.28,24.85-3.5,37.27-.26,2.55-1.58,5.43,1.64,6.92,2.77,1.29,4.63-1.08,6.5-2.51q18-13.83,36-27.75c4,15.76,12,30.45,14.22,46.7.39,2.88,1,5.8-.52,8.27C765.46,283.69,768.09,291.06,770.2,298.51ZM704,318.66q10.31,3.78,20.61,7.55c2.56.93,5.18,1.71,7.73,2.64a4.17,4.17,0,0,0,5.21-1.51c1.51-1.9,8.74-22.31,8.86-25.5C733.67,310.26,720.35,317,704,318.66Z"/><path class="cls-8" d="M756.49,221.17q-18,13.89-36,27.75c-1.87,1.43-3.73,3.8-6.5,2.51-3.22-1.49-1.9-4.37-1.64-6.92,1.22-12.42,2.34-24.85,3.5-37.27,4.06-14.61.39-31.21,13.14-43.68,2.09-2.05-.31-5.43-2.87-7.21s-4.58.17-6.67,1.4c-2.93,1.72-2.62,5.61-5.44,8.06-1.94-4.07-.9-7.59-1-11-.12-3.94-1.19-7.36-4.22-10.19-2.82-2.64-5.49-3.52-7.66.46s-5.76,5.36-10.41,5.23a95,95,0,0,0-9.65.66c-9.46-1.32-10.66-3.08-7.81-11.94,3.78-11.74,12.26-18.32,25.06-20.34a83.07,83.07,0,0,1,26-.41c15.57,4.48,22.27,15.33,24.79,29.69,3.49,19.86,7.42,39.64,11.4,59.42C761.64,212.81,759.58,217,756.49,221.17Z"/><path class="cls-3" d="M709.87,294.05c-7.85,8.29-19.15,7.62-29.27,10-3.58.84-7.2,1.54-10.79,2.31-3.07-.53-5.77-2.77-9.17-1.84-7.44-7.34-15.13-3.17-22.11.28-6.45,3.2-9.47,1.48-11.65-4.3-1.31-3.47-4.27-6.36-4-10.37,1.58-1.84,1.91-3.84-.14-5.39-3.14-2.39-5.75.89-8.7,1.08-5.39,0-7.28-2.43-5.39-7.25,5.67-14.49,11.42-29,17-43.48,1.94-5,5.36-5.3,10.08-3.58,16.22,5.9,32.51,11.62,48.77,17.43,3.47,1.24,6.8,3,10.69,2.71,8.2,5.51,18.07,7.39,27.17,11s9.23,3.4,4.45,11.67c-.59,1-1.35,2-2,2.93-3.64.44-6.9-.92-10.14-2.08q-35-12.47-69.91-25.07c-2.78-1-6.27-2.71-7.82.67-1.72,3.77,2.34,4.38,5.08,5.36,10.49,3.76,21.09,7.25,31.42,11.37,15.12,6,31.26,9.57,45.75,17.06l-2,2.58c-3.12.48-5.95-.62-8.73-1.6q-34.63-12.25-69.23-24.65c-2.37-.85-5.14-3.4-6.87.49-1.83,4.1,2.06,4.62,4.68,5.58,13,4.76,26.14,9.24,39.08,14.18C687.35,285.4,699.4,287.89,709.87,294.05Zm-78.71-24.29c-2.14-.56-2.63,1-3.21,2.26-1.08,2.36.28,3.26,2.52,4.06,13.08,4.64,26.08,9.44,39.14,14.12,6.06,2.18,12.17,4.25,18.28,6.29,1.89.63,4.08,1.24,5.15-1.14,1-2.16-.34-3.57-2.35-4.51-1.12-.52-2.2-1.15-3.36-1.56q-26-9.12-51.91-18.19C634,270.6,632.58,270.2,631.16,269.76Z"/><path class="cls-3" d="M287.7,299.89l16.39-3.16c2.54,2.94,6.06,1.68,9.13,1.69q116.7.1,233.4-.09c7,0,9.16,1.85,8.76,8.32-.28,4.57-1.65,6.08-6.55,6.07q-127.22-.17-254.42,0c-5.3,0-7.34-1.58-6.75-6.49A51.86,51.86,0,0,0,287.7,299.89Z"/><path class="cls-3" d="M202.2,341c2.65-16.37,8.9-31.76,14.48-47.33.64-1.79,1.42-3,3.71-1.68,15.29,8.64,32.49,8,49.35,9l4.49.25c0,11-.28,22.06.07,33.07.17,5.21-1.51,6.91-7.15,6.84C245.5,340.8,223.85,341,202.2,341Z"/><path class="cls-3" d="M343.41,284.54l12.45-4.86c14.1.58,15.57-.29,16.14-9.53,24.05-2,48.19-2.89,72.28-4.42,23.35-1.48,46.74-2.47,70-4.4,10.64-.88,21.4,0,32-2.3,6.41-1.39,8.21,1.18,8.73,10.24.32,5.53-3.85,5-7.65,5.15-28.61,1.39-57.25,2.4-85.81,4.4-22.84,1.6-45.68,3.12-68.55,4.15-14.17.64-28.3,1.88-42.45,2.71C348.18,285.82,345.52,286.44,343.41,284.54Z"/><path class="cls-3" d="M384.3,341c-29.51,0-59-.13-88.52.11-6,.05-8.35-1.19-8.3-7.34,0-5.79,2.14-7.05,7.85-7q89.28.26,178.55,0c5.6,0,7.93,1.06,7.92,7s-2.17,7.46-8.23,7.41C443.82,340.83,414.06,341,384.3,341Z"/><path class="cls-3" d="M339.58,257.4c-15,0-30-.32-44.95.15-6.79.21-7.17-3-7-7.74.16-4.33-.7-8.19,6.58-8.11q45.31.5,90.65,0c7.24-.08,6.47,3.73,6.6,8.09.15,4.74-.1,8-7,7.77C369.56,257.08,354.56,257.4,339.58,257.4Z"/><path class="cls-9" d="M681.11,151a95,95,0,0,1,9.65-.66c4.65.13,8.17-1.15,10.41-5.23s4.84-3.1,7.66-.46c3,2.83,4.1,6.25,4.22,10.19.1,3.4-.94,6.92,1,11,2.82-2.45,2.51-6.34,5.44-8.06,2.09-1.23,4-3.23,6.67-1.4s5,5.16,2.87,7.21C716.28,176,720,192.63,715.89,207.24c-2.88.35-5.58,3.22-8.68.55,1.38-6.46,2.79-12.91,4.14-19.37,1.12-5.32,0-8.21-6.91-6.68-7.18,1.58-13.58,1.1-20.11-4.11C673.69,169.14,680.7,160,681.11,151Z"/><path class="cls-3" d="M246.54,252.16l11.93-10.63c15.72,1,15.85,1,15.63,16.24-.06,3.76,1.74,8-1.83,11.29C262.67,264.82,253.26,260.31,246.54,252.16Z"/><path class="cls-3" d="M357,275.29c-21,3.31-42.09,4.42-63.18.36,4.73-2.5,10.18-1.86,15.14-2.34,17-1.63,34.06-2.15,51.1-3.09Z"/><path class="cls-9" d="M357,275.29l3.06-5.07c4,1.85,8-2.44,12-.07-.57,9.24-2,10.11-16.14,9.53C356.23,278.21,356.61,276.75,357,275.29Z"/><path class="cls-9" d="M660.64,304.53c3.4-.93,6.1,1.31,9.17,1.84l2.31,9.92C665.1,315.14,663.7,309.11,660.64,304.53Z"/><path class="cls-9" d="M614,285.83c3-.19,5.56-3.47,8.7-1.08,2,1.55,1.72,3.55.14,5.39C619.28,289.8,615.24,290.36,614,285.83Z"/><path class="cls-10" d="M225.88,97.28c-3.16-.43-5.29-2.15-5.21-5.08.09-3.28,2.33-5.12,6-4.83,3.35.26,5,2.3,4.77,5.23S229.06,97.1,225.88,97.28Z"/><path class="cls-11" d="M180.85,91.4c-.07,3.65-1.81,5.5-5,5.6s-5.14-1.75-5.17-4.83c0-2.73,1.59-4.41,4.55-4.61C178.54,87.32,180.29,89,180.85,91.4Z"/><path class="cls-12" d="M206.31,92.23c-.53,2.9-2.14,4.93-5.36,5-3.65.07-5.57-2.06-5.39-5.38.16-3,2.22-4.66,5.49-4.54S205.9,89.32,206.31,92.23Z"/><path class="cls-13" d="M182.19,363l-5.78,3.53c-4.88.4-7.49-3.77-11.52-5.08-.95-1.17-3.4-.7-2.18-4,5.91-15.82,10.48-32.09,17.3-47.61,3.33-7.58,6.35-9.29,18.25-11.11C183,318.57,180.25,340.3,182.19,363Z"/><path class="cls-9" d="M226.47,213.19c5.1-1,1.89-5,3-7.51,1.29-2.9,1.09-7.12,6.06-6.46,4.62.62,5.9,4.2,5.12,7.9-1.61,7.65-.94,15.33-1.19,23-5.56,0-6.94,4.42-9.3,7.8-5.33-4.78-9.9-10.07-12.42-16.71C221.05,218.93,224.71,217,226.47,213.19Z"/><path class="cls-3" d="M230.16,237.92c2.36-3.38,3.74-7.81,9.3-7.8,2.17,5.73,1.07,11.47,0,17.2A34.44,34.44,0,0,1,230.16,237.92Z"/><path class="cls-7" d="M764.35,377.19c5.74-9.29,9.24-18.55,10.17-29-2.18-.38-4.38-.7-6.55-1.15-14.17-2.94-28.32-6-43-5.89a115.26,115.26,0,0,0-34.38,6.91,36.41,36.41,0,0,1-1.09,4.78c-12.63,35.1-31.08,67.52-51.38,99.1A132.19,132.19,0,0,1,624.57,473c-1.41,2.42-3,4.78-4.19,7.27-.81,1.62-3.37,3.5.15,5.09l16,.11,2.89.13c8.15-4.21,14.32-10.88,22-15.74,2.79-6.33,10.38-7.54,14.77-12.27,2.74-3,6.44-5.13,9.7-7.66a7.36,7.36,0,0,0,.24-1.31c7.08-5.83,14.33-11.48,21.17-17.55,3.4-3,5-2.58,6.85,1.21,2.44,5.07,5.25,10,7.91,15l4.3,5.67q3.13,6.3,6.25,12.59c3,1.87,2.4,6.83,7.09,7.16a17.87,17.87,0,0,1,9.45-2.87c.54-1.45,1.07-2.9,1.6-4.35q-1.93-11.36-3.86-22.69c-4.72,1.07-8.53,3.79-12.48,6.25,3.95-2.46,7.76-5.18,12.48-6.25.82-4.06-2.25-7.39-2.13-11.53.2-7.48,2.35-14.16,5.48-20.94C755.2,399.4,758.05,387.37,764.35,377.19Z"/><path class="cls-14" d="M686,448.66c7.08-5.83,14.34-11.48,21.17-17.55,3.4-3,5-2.58,6.85,1.21,2.44,5.07,5.25,10,7.91,15-2.38,2.5-5.5,2.76-8.79,2.73-9.13-.06-18.25,0-27.38-.06A7.36,7.36,0,0,0,686,448.66Z"/><path class="cls-9" d="M274.21,222.07A94.16,94.16,0,0,1,254,217c-6.44-2.25-7.61-8.77-2.28-12.95,3.48-2.73,3.67-6.39,4.61-10,.71-2.74.36-7.08,4.6-7.12,3.59,0,7.78-.14,10,4.34,3.07,6.13,9.64,4.59,15.21,5-.93,4.14-2.29,8.24-2.7,12.43C282.88,214.82,279.9,219.19,274.21,222.07Z"/><path class="cls-15" d="M719.16,284.52c-14.49-7.49-30.63-11-45.75-17.06-10.33-4.12-20.93-7.61-31.42-11.37-2.74-1-6.8-1.59-5.08-5.36,1.55-3.38,5-1.67,7.82-.67q34.95,12.56,69.91,25.07c3.24,1.16,6.5,2.52,10.14,2.08A21.13,21.13,0,0,1,719.16,284.52Z"/><path class="cls-15" d="M709.87,294.05c-10.47-6.16-22.52-8.65-33.79-12.95-12.94-4.94-26.07-9.42-39.08-14.18-2.62-1-6.51-1.48-4.68-5.58,1.73-3.89,4.5-1.34,6.87-.49q34.62,12.33,69.23,24.65c2.78,1,5.61,2.08,8.73,1.6A21.36,21.36,0,0,1,709.87,294.05Z"/><path class="cls-16" d="M704,318.66c16.32-1.67,29.64-8.4,42.41-16.82-.12,3.19-7.35,23.6-8.86,25.5a4.17,4.17,0,0,1-5.21,1.51c-2.55-.93-5.17-1.71-7.73-2.64Q714.32,322.46,704,318.66Z"/><path class="cls-15" d="M631.16,269.76c1.42.44,2.86.84,4.26,1.33q26,9.07,51.91,18.19c1.16.41,2.24,1,3.36,1.56,2,.94,3.32,2.35,2.35,4.51-1.07,2.38-3.26,1.77-5.15,1.14-6.11-2-12.22-4.11-18.28-6.29-13.06-4.68-26.06-9.48-39.14-14.12-2.24-.8-3.6-1.7-2.52-4.06C628.53,270.78,629,269.2,631.16,269.76Z"/><path class="cls-17" d="M274.21,222.07c-1,1.88-2,3.77-3.07,5.65q-6.33,6.9-12.67,13.81l-11.93,10.63a11.69,11.69,0,0,1-7.06-4.84c1.05-5.73,2.15-11.47,0-17.2.25-7.67-.42-15.35,1.19-23,.78-3.7-.5-7.28-5.12-7.9-5-.66-4.77,3.56-6.06,6.46-1.11,2.47,2.1,6.5-3,7.51-4.34-1.75-6.72-4.24-3.32-8.59,11.12-14.23,22.73-28.06,38.71-37.84,6.3-3.86,13-6.12,20.23-1.57,2.55,1.61,5.17,3.44,5.65,6.3,1.71,10.33,9.43,12.11,18.56,12.16a6.52,6.52,0,0,1,1.46.22c.15,0,.24.3.68.89-5.92,6.34-13.83,9.33-22.26,11.46-5.57-.39-12.14,1.15-15.21-5-2.25-4.48-6.44-4.37-10-4.34-4.24,0-3.89,4.38-4.6,7.12-.94,3.64-1.13,7.3-4.61,10-5.33,4.18-4.16,10.7,2.28,12.95A94.16,94.16,0,0,0,274.21,222.07Z"/><path class="cls-15" d="M828.42,174.37c-3-.77-5-2.14-6.23-4.14s-1.39-4.47-.63-7.45l.67-2.61c.76-3,2.13-5,4.13-6.23s4.47-1.39,7.45-.63l2,.51Q840.25,155,842,158t.63,7.45L842,168c-.76,3-2.14,5-4.13,6.23s-4.48,1.39-7.45.63Zm4-50.74a9.51,9.51,0,0,1,4.32-6,9.11,9.11,0,0,1,7.3-1,32.7,32.7,0,0,0,11.86,1,17.33,17.33,0,0,0,9.66-4.16q4.1-3.54,5.91-10.61a17.47,17.47,0,0,0-.17-9.87A18.51,18.51,0,0,0,866,84.9a21.57,21.57,0,0,0-9.32-4.84,21.94,21.94,0,0,0-8.46-.53,25.75,25.75,0,0,0-7.9,2.4,15.79,15.79,0,0,1-6.73,1.64c-2.47.07-4.67-1.06-6.58-3.41a9.35,9.35,0,0,1-2.3-7.63,9,9,0,0,1,4.73-6.32,40.45,40.45,0,0,1,15.25-5.51,41.57,41.57,0,0,1,16.71.92,39.31,39.31,0,0,1,17.9,9.74,38.78,38.78,0,0,1,10.27,16.46,35.29,35.29,0,0,1,.35,19.75,38.59,38.59,0,0,1-5.78,13,30.09,30.09,0,0,1-9.13,8.47,33.88,33.88,0,0,1-11.57,4.24,49.67,49.67,0,0,1-13.14.49,6,6,0,0,0-.62.17.55.55,0,0,0-.35.4L847.85,140a9.5,9.5,0,0,1-4.33,6,9.76,9.76,0,0,1-13.21-3.38,9.44,9.44,0,0,1-.9-7.35Z"/><path class="cls-15" d="M29.65,223.17a6.16,6.16,0,0,1,.09-4.81,5.91,5.91,0,0,1,3.52-3.22,21.31,21.31,0,0,0,6.7-3.86,11.27,11.27,0,0,0,3.61-5.78,13,13,0,0,0-.76-7.84,11.27,11.27,0,0,0-3.74-5.2,12,12,0,0,0-5.8-2.35,14.91,14.91,0,0,0-11.47,3.7,16.86,16.86,0,0,0-3.33,4.2,10.27,10.27,0,0,1-3,3.35,5.19,5.19,0,0,1-4.77.62,6.1,6.1,0,0,1-4.05-3.22,5.89,5.89,0,0,1,.19-5.12,26.42,26.42,0,0,1,6.1-8.57,27.13,27.13,0,0,1,9.26-5.68A25.37,25.37,0,0,1,46.92,183a23,23,0,0,1,7.47,10.4,25.18,25.18,0,0,1,1.72,9.08,19.37,19.37,0,0,1-1.75,7.88,21.86,21.86,0,0,1-4.6,6.54A32.48,32.48,0,0,1,42.93,222a3.33,3.33,0,0,0-.26.32.32.32,0,0,0,0,.34L44,226.21a6.14,6.14,0,0,1-.09,4.8,6.33,6.33,0,0,1-8.29,3.08,6.19,6.19,0,0,1-3.2-3.59Zm16.61,28.52a6.2,6.2,0,0,1-4.85.1,6.24,6.24,0,0,1-3.09-3.74l-.6-1.64a5.57,5.57,0,0,1,3.64-7.94l1.25-.46a6.24,6.24,0,0,1,4.85-.1,6.21,6.21,0,0,1,3.09,3.74l.61,1.64a5.58,5.58,0,0,1-3.65,7.94Z"/></g></svg>