<svg id="Layer_1" data-name="Layer 1" xmlns="http://www.w3.org/2000/svg" viewBox="0 0 1200 700"><defs><style>.cls-1{fill:#b461e0;}.cls-2{fill:none;}.cls-3{fill:#6ecbfb;}.cls-4{fill:#1142bf;}.cls-5{fill:#ef9017;}.cls-6{fill:#033398;}.cls-7{fill:#fba703;}.cls-8{fill:#020445;}.cls-9{fill:#020447;}.cls-10{fill:#3e85c6;}.cls-11{fill:#dfab63;}.cls-12{fill:#e4a75d;}.cls-13{fill:#98c8de;}.cls-14{fill:#e4bd86;}.cls-15{fill:#6eb8e9;}.cls-16{fill:#489ad5;}.cls-17{fill:#f0c361;}.cls-18{fill:#eec464;}.cls-19{fill:#f5b638;}.cls-20{fill:#efbf4c;}.cls-21{fill:#f1ba42;}.cls-22{fill:#f3b638;}.cls-23{fill:#faa604;}.cls-24{fill:#1e386e;}.cls-25{fill:#073698;}.cls-26{fill:#54afea;}.cls-27{fill:#e3b56f;}.cls-28{fill:#013399;}.cls-29{fill:#e5f3fc;}.cls-30{fill:#082878;}.cls-31{fill:#a3c3e4;}.cls-32{fill:#ef9b1a;}.cls-33{fill:#e5f3f9;}.cls-34{fill:#e3f0f9;}.cls-35{fill:#8ebfd8;}.cls-36{fill:#91bdd8;}.cls-37{fill:#e6c3c5;}.cls-38{fill:#74c0f9;}.cls-39{fill:#75c1f9;}.cls-40{fill:#7cc1fe;}.cls-41{fill:#343659;}.cls-42{fill:#103370;}.cls-43{fill:#67b2f0;}.cls-44{fill:#4281dc;}.cls-45{fill:#74b5fe;}.cls-46{fill:#69a9fb;}.cls-47{fill:#77b7fe;}.cls-48{fill:#aa9396;}.cls-49{fill:#70bbf6;}.cls-50{fill:#7ac0fd;}.cls-51{fill:#75b5fe;}.cls-52{fill:#7abffe;}.cls-53{fill:#5897ea;}.cls-54{fill:#e28b25;}.cls-55{fill:#5797e9;}.cls-56{fill:#cb8134;}.cls-57{fill:#513a82;}.cls-58{fill:#6dbbf5;}.cls-59{fill:#6eaef7;}.cls-60{fill:#6baaf9;}.cls-61{fill:#6daef8;}.cls-62{fill:#cb9463;}.cls-63{fill:#935c2b;}.cls-64{fill:#6faff8;}.cls-65{fill:#6daef6;}.cls-66{fill:#b097dd;}.cls-67{fill:#71b9f4;}.cls-68{fill:#7dc2fe;}.cls-69{fill:#373e78;}.cls-70{fill:#6972ad;}.cls-71{fill:#78befd;}.cls-72{fill:#6db7f1;}.cls-73{fill:#77b5fe;}.cls-74{fill:#465697;}.cls-75{fill:#b77d42;}.cls-76{fill:#493a4a;}.cls-77{fill:#5f4236;}.cls-78{fill:#d989a1;}.cls-79{fill:#e98d9c;}.cls-80{fill:#74b2fc;}.cls-81{fill:#cd945c;}.cls-82{fill:#323e7d;}.cls-83{fill:#9b622a;}.cls-84{fill:#626ead;}.cls-85{fill:#6eacf5;}.cls-86{fill:#cea560;}.cls-87{fill:#8f6520;}.cls-88{fill:#ccf2fb;}.cls-89{fill:#1947b6;}.cls-90{fill:#304b83;}.cls-91{fill:#1989ea;}.cls-92{fill:#e6c4cc;}.cls-93{fill:#100d47;}.cls-94{fill:#0e88f1;}.cls-95{fill:#100f45;}.cls-96{fill:#1585ea;}.cls-97{fill:#1188eb;}.cls-98{fill:#7fc4de;}.cls-99{fill:#a9e1f5;}.cls-100{fill:#2785de;}.cls-101{fill:#957258;}.cls-102{fill:#ecc3c2;}.cls-103{fill:#886c64;}.cls-104{fill:#080b49;}.cls-105{fill:#bceef9;}.cls-106{fill:#a9e7f8;}.cls-107{fill:#abe5f9;}.cls-108{fill:#613a19;}.cls-109{fill:#70cbf9;}.cls-110{fill:#9cdff4;}.cls-111{fill:#9bdef6;}.cls-112{fill:#b6e5f8;}.cls-113{fill:#b6eefd;}.cls-114{fill:#b9effb;}.cls-115{fill:#f6e49d;}.cls-116{fill:#facc66;}.cls-117{fill:#fcfcfc;}.cls-118{fill:#5a361f;}.cls-119{fill:#f8aa0c;}.cls-120{fill:#063699;}.cls-121{fill:#f0f4f7;}.cls-122{fill:#9ac2e6;}.cls-123{fill:#5d99d0;}.cls-124{fill:#52403a;}.cls-125{fill:#f4e7b6;}.cls-126{fill:#f7f1cf;}.cls-127{fill:#f8e9ba;}.cls-128{fill:#cdfbfe;}.cls-129{fill:#36a7ed;}.cls-130{fill:#2797e0;}.cls-131{fill:#013298;}.cls-132{fill:#683b15;}.cls-133{fill:#eaae4f;}.cls-134{fill:#f6c8be;}.cls-135{fill:#098bf5;}.cls-136{fill:#178af5;}.cls-137{fill:#1384ef;}.cls-138{fill:#0f86f1;}.cls-139{fill:#0b88f0;}.cls-140{fill:#0e85ef;}.cls-141{fill:#62b2e9;}.cls-142{fill:#c74a50;}.cls-143{fill:#4da8e2;}</style></defs><title>subject</title><rect class="cls-1" y="-0.12" width="1200" height="699.42"/><path class="cls-2" d="M320.16,531.61c-2.36-.27-4.63-.83-6.69-.89C315.36,531.78,317.7,531.7,320.16,531.61Z"/><path class="cls-3" d="M404.24,411.89c-21.11,6.46-36.36-5.3-35.18-27.34.47-8.76-4.66-11.59-12-13.57-7.83-2.12-14.27-4.28-19.1,5.71-7,14.54-30.2,15.83-38.2,1.86-7.51-13.14-14.93-4.42-22.8-2.1-8.43,2.48-8.13,7.88-6.1,14.9,4.35,15-11.23,31.92-27,29.08-8.44-1.52-13.31,1.78-15.26,9.37-1.81,7.05-5.88,14.36,3.43,20.39,16.09,10.44,17.1,30.21,1.89,40.82-9.92,6.91-3.56,13.13-1.12,19.83s5.92,10.49,14.26,8.39c18.13-4.57,33,9.24,29.92,27.64-1.67,9.81,5.5,11.32,11.46,13.94,6.16,2.7,14.33,6.72,17.48-2.27,4.87-13.85,15.53-13,26.33-13.5q-1.11-5.41-2.21-10.83a9.38,9.38,0,0,0-5.92-2.55,17.08,17.08,0,0,1-4,0c-2.46.09-4.8.17-6.69-.89,2.06.06,4.33.62,6.69.89a29.4,29.4,0,0,1,4,0A10.64,10.64,0,0,0,330,529c.12-1.72.25-3.43.37-5.14-2-3.88-5.63-4.28-9.28-4.29-9.45,0-17.45-4-25.25-8.71a19.55,19.55,0,0,0-3.38-2.08c-18.35-13.54-26.8-34.71-21.65-54.15,5.32-20.1,24.27-39.34,40.63-41.25,28.63-3.34,47.81,5.69,60.31,28.37,3.09,4.52,3.38,10.05,5.28,15,2.51,6.49-.87,14.66,5.81,19.83A12.33,12.33,0,0,0,396.3,476c2.92-3,3.44-6.56,2.8-10.47-7.2-10.09-6.82-18.65,4.68-25.36,2.26-1.33,3.49-4,4.12-6.65C409.45,425.87,411.13,418.16,404.24,411.89Z"/><path class="cls-3" d="M320.16,531.61a17.08,17.08,0,0,0,4,0A29.4,29.4,0,0,0,320.16,531.61Z"/><path class="cls-4" d="M882.72,153.32c19.91,7.87,24.56,14.53,24.66,35.13q.14,27.06.33,54.11c5.55,6.73,5.26,14.51,4.08,22.44.9,21.57,2.48,43.15-.84,64.65-5.09,9.43-16.82,11.9-22.18,21.07a22.17,22.17,0,0,1-2.59,2.88,61.72,61.72,0,0,0-.07,35.24,24.45,24.45,0,0,1,2.66,2.82c5,9.13,16.34,11.52,21.61,20.37,1.63,15,5.11,29.92-.74,44.73-7.5,7.78-14.23-.5-21.34-1-3.61-2-5.18-4.84-3.84-8.93,6.35-11.42,5.26-16.44-4.5-21.37-8.43-4.26-10.3-.41-9.2,7.27-2.53,6.91.3,14.08-1,21.07-7.21,7.34-17.07,12.19-21.07,22.54-18,4.2-22.19,15.15-15.63,31.57.64,1.58,0,3.54-.42,5.31-5,7.63.25,19.65-10.56,24.84-5.65,2.33-11.59,1.82-17.44,1.82q-177,.1-354.07,0c-7.15,0-14.6,1.06-20.91-3.8a4.29,4.29,0,0,1-1.34-4.77c5.64-6,13.13-5.13,20.26-5.16,42.85-.13,85.7,0,128.55-.14,6.09,0,12.86,1.65,17.49-4.45,4.24-6.46,4-13.72,4-21q-.06-105.82,0-211.65c0-7.48,0-15,0-22.47,0-1.65-.13-3.3-.28-5-1.62-6.92-.54-13.29,3.88-19,.49-31.71.49-31.69-31.52-32.32a60.4,60.4,0,0,1-7.85-1.15c4.73-7.79,12.65-5.4,19.48-5.81,14.74-.88,16-2.2,15.2-16.94a31.94,31.94,0,0,0-9.85-21.59c-3-3-8-5-6.2-10.8q99.74-.28,199.47-.56C814.86,153.25,848.79,153.32,882.72,153.32Z"/><path class="cls-5" d="M346.52,551.45c-5.81.28-8.17-7-14.1-6.43-4.33-1.28-5.35-4.69-5.58-8.61,0-2.17,0-4.34.07-6.51a27.26,27.26,0,0,1,.8-6.3,59.2,59.2,0,0,1,3.45-7.45c10.12-10.44,24.55-14.25,35.7-23.13,10-3.93,18.8-10.12,28-15.53,7-2.54,12.36-7.93,19-11,4.7-1.16,8.14-4.71,12.42-6.68,4.81-2.12,9.17-5.11,13.86-7.47,1.55-.87,3-1.86,4.6-2.67,7.51-3.61,14.71-7.76,21.93-11.9a57.54,57.54,0,0,1,8.88-5.41c4-3.07,2.91-8.35,5.17-12.17,1.57-3.14,4-5.83,4.77-9.4,1.86-3.95,4.58-7.46,5.88-11.71,1.78-3.09,4.45-5.37,6.92-7.86,11.77-7.46,23.95-14,38.41-13.67,9.37.23,18.14,1.91,18.6,14.15-4.85,7.24-13.79,8.27-20.12,13.27-6.35,5.34-17.08,6.66-15.07,19.28,1.56,9.83,7.4,14.72,15.66,18.18,6,2.52,11.26.36,16.64-2.22,6.33-3,12.19-7.82,20-6.35,6,2.13,6.92,7,6.77,12.45-5.19,17.32-18.51,25.89-34.26,31.87-8.7.81-17.41.42-26.1.29-6.29-.74-12.08-7.61-18.95-1.56-5.33,1.11-9.77,5-15.45,5.07-6.55-1.58-8.28,3.57-10.7,7.72-10.67,10-24.93,14.3-36.5,22.89-2.83,2.46-5.41,5.25-8.74,7.1-20.71,7.11-38.41,20-57.67,30C363,553.86,355.11,557.24,346.52,551.45Z"/><path class="cls-6" d="M404.69,436.33q-.29-12.29-.55-24.59.41-64.42.78-128.83c.14-29.4,10.69-40,39.9-40.07q78.69-.14,157.38-.35l.24,20.15c-5.14,5.09-11.73,3.8-17.89,3.81-43.61.12-87.22,0-130.82.12-5.69,0-11.82-1.42-16.63,3.21-.59,1.51-1.28,2.93-1.92,4.4-2.13,26.65-.58,53.3-.85,79.92-.3,29.36-.08,58.72-.06,88.08,0,7.83-.64,15.35-6.41,21.39-4.16,1.81-6.82,7.1-12.5,5.36-3-6-6.38-11.69-11.73-16,0-7.59,8.26-5.73,11.7-10.32C413.84,437.4,407.38,439.71,404.69,436.33Z"/><path class="cls-7" d="M281.37,235c4.55-26.53,35-39.61,51.78-37.11,26.65,4,45.27,27.46,42.82,52.51-.94,9.63-3.61,18.64-8.88,26.21-8.91,12.77-14.69,27.1-22.25,40.51a3.53,3.53,0,0,1-3.66.28c-5-14.36-6.81-28.83-2.64-43.51-6.09,5.72-13.53,6-21.76-2.76,9.77,16.36,9.34,31.15,3.84,46.28a4.92,4.92,0,0,1-5.68-.27c-8.45-20.64-25-36.52-33.43-57.19C278.39,251.62,277.87,243.31,281.37,235Z"/><path class="cls-8" d="M373.59,623.21q.17-11.84.32-23.67c.53-14.65,4.07-29.23,1.08-44-4-2.41-5.51-5.58-3-10,17.46-11.86,34.82-23.9,55.62-29.45,6.31,4.94,4.86,10.6,1.55,16.44a1.72,1.72,0,0,0-.19,1.86c9.08,10.54,3.16,22.24,2.65,33.53-.74,12.22.92,24.54-1.42,36.7-2.65,15.23.13,30.88-3.47,46.06-4.7,9.7-11,15.13-22,8.3-6.92-6.84-5.56-15.74-5.83-24.17-.43-14,1.77-27.75,2.35-41.69a229.7,229.7,0,0,1-5.72,45.57c-1.43,6.1-2.32,12.49-7.62,16.89-13.11,2.19-14.8,1.09-14.89-10.88C373,637.6,372.3,630.37,373.59,623.21Z"/><path class="cls-9" d="M581.46,153.88c7.06,5.38,15.28,9.28,18.74,18.66a48.57,48.57,0,0,1,1.6,29.31c-3.52,12.72-16,4.08-24.22,6.18-4.71,1.19-9.84.71-14.76,1-16.66-4.7-25.71-15.46-24.46-29.11,1.32-14.4,14.76-26.06,31-26.63C573.36,153.14,577.42,153.66,581.46,153.88Z"/><path class="cls-10" d="M340.83,316.09l4,1c4.8,10.84-3.51,19-7.23,27.34-1.41,3.18-12.78,6.63-17.12-2.94-3.5-7.73-12-14.37-5.55-24.38l4.82-.62a18,18,0,0,1,5.34-3.15,21.37,21.37,0,0,1,10.36-.25A10.06,10.06,0,0,1,340.83,316.09Z"/><path class="cls-11" d="M315,120.21c-.75,7.18-4.68,12.1-12.14,11.28-7.1-.78-10.79-5.81-10.4-13.37s5.54-10.49,11.73-10.4C311.48,107.82,316,112,315,120.21Z"/><path class="cls-12" d="M527,70.43c.55,5.69-4.31,8.53-10.75,8.56-7,0-12.12-3-11.74-11.24.35-7.36,4-11.94,11.57-11.74S526.92,61.11,527,70.43Z"/><path class="cls-13" d="M372,545.63q1.5,5,3,10c-3,.81-6.36.95-8.82,2.54-9.61,6.21-15.77,3.41-19.65-6.67C355.9,553.41,362.93,545.05,372,545.63Z"/><path class="cls-14" d="M597.54,119.55c.15,5.74-3.25,7.65-8.62,7.2s-8.2-3.56-7.83-8.91c.39-5.5,4-7.77,9.19-7.64C596.21,110.35,597.75,114.19,597.54,119.55Z"/><path class="cls-15" d="M420.51,111.07c7.13,10.19,7.13,10.19.4,19.41C412.72,121.34,412.72,121.34,420.51,111.07Z"/><path class="cls-16" d="M663.36,86.83c-1.12-5.62-4.1-9.12-9.89-10.46,6.2.34,6.32-10.54,12.23-7.23C676.78,75.35,667,80.75,663.36,86.83Z"/><path class="cls-17" d="M290,176c2.78,5.43,8,8.61,7.11,14.79-.22,1.61-3.06,1.76-4.52.54C288.05,187.56,284.36,183.41,290,176Z"/><path class="cls-18" d="M365.31,174.84c6.51,8.37,2.76,12.54-1.52,16.42-1.38,1.24-4.06,1.36-4.54-.41C357.46,184.25,364.55,182.09,365.31,174.84Z"/><path class="cls-19" d="M265.8,248.74c-7.22,3.63-12.31,4-19.32,0C253.53,244.53,258.61,245,265.8,248.74Z"/><path class="cls-20" d="M399.64,207.09c-5,6.83-8.37,10-13.27,10.54-1.73.17-2.32-2.36-1.71-4.3C386.66,207,391.66,208,399.64,207.09Z"/><path class="cls-21" d="M327.62,168.28c4.43,5.24,4.28,10.55.73,17.87C323.66,179.27,325.12,173.77,327.62,168.28Z"/><path class="cls-22" d="M389.61,248.59c7.81-3.66,12.91-3.38,20.67-.86C402.16,253.12,397.1,252,389.61,248.59Z"/><path class="cls-23" d="M1009.56,350c-.25,14.56,4.59,29.48-3.23,43.51-5.88,10.55-14.2,16.36-26.81,15.94-10.76-.36-21.57.31-32.35.52-6,5.94-15.28,2.45-21.61,7.47-13,6.44-13,6.44-18-7.12-9.73-2.63-18.21-6.91-22.21-17a79.63,79.63,0,0,1,0-44.53c4.14-9.95,11.8-15.13,22.31-16.45,5.33-5.51,12.3-3.2,18.64-3.95,7.45-.91,14.84-1.44,21.12,3.93,7.1.14,14.3,1.09,21.3.27C985.84,330.6,999.69,335.39,1009.56,350Z"/><path class="cls-24" d="M1048.55,672.38c1,1.09,1.89,2.19,2.84,3.29-3.76,5-9.19,2.91-13.86,2.91q-374.91.17-749.81,0c-4.72,0-10.12,1.93-13.9-3,3.55-5.13,8.94-3.39,13.67-3.42,23.92-.15,47.83,0,71.75-.2,4.23,0,9.08,2,12.66-2.26,5.12-5,11.32-4.12,17.53-3.26a47.73,47.73,0,0,0,19.91-.31c10.74-2.71,21.32.61,32,.71,9.38,1.71,18.83,2,28.35,2.11,85,1,170.16-5.42,255-.89,106.23,5.68,212.37,1.56,318.53,3.52A17.88,17.88,0,0,1,1048.55,672.38Z"/><path class="cls-25" d="M947.38,332.34l-22.58.2c-5.66-3.74-6.16-9.66-6.43-15.58a240.62,240.62,0,0,1-.06-28.42c.72-10-2.11-17.58-10.77-22.79q.09-11.6.17-23.19c29.72,1.16,39.31,11.15,39.38,40.89C947.12,299.75,947.28,316,947.38,332.34Z"/><path class="cls-26" d="M797.81,84.87c8.24-1.34,11.88-5.51,12.6-16.1,4.15,8.57,5.67,15,16.71,14.51-8,4.56-13.73,6.49-15,13.65C809.27,90.49,804.9,86.61,797.81,84.87Z"/><path class="cls-27" d="M923.51,117.52c3-3.14,7.84.09,9.74-4.06-.58-6.08-7.39-1.38-9.08-5.4.4-.82.57-2,1.18-2.28,5.55-2.91,9.5-.45,12.28,4.29,2.33,4-.11,7-3.1,9.18C930.4,122.31,926.56,122.24,923.51,117.52Z"/><path class="cls-28" d="M426.24,567c3.09-10.64,2.2-21.62,2.73-32.47l396.47-.19c9.48.92,15.08,7.39,15,17.47,0,10.68-6.5,13.74-16,13.76q-67,.12-133.95,0c-10.43,0-20.71.47-30.79,3.27-71.7,2.23-143.43.5-215.14,1C438.42,569.79,431.94,570.74,426.24,567Z"/><path class="cls-29" d="M429.17,532.62c-2.17-5.32-1.46-10.91-1.55-16.43.16-4.29,4.35-4.68,6.65-6.9a11,11,0,0,1,7.43-.14c3.49,1.88,6.46,4.14,11.11,4,36.65-1.37,73.33-.29,110-.65,16.78-.17,17.78-1.18,18-17.65.86-57.88-.3-115.77,0-173.65,0-4.93.52-10-2.83-14.31-5.26-4.29-11.41-5.05-17.92-5-30.8.08-61.61-.07-92.41.08-18.7.09-21.26,2.74-21.29,21.24q-.09,56.4,0,112.8c0,6.36.28,12.74-3.71,18.28-3.66,5.11-9.58,6.67-14.78,9.35q.21-98,.44-196c3.14-2.18,6.74-2.35,10.39-2.36q75.21-.06,150.44.06c5.2,0,11.49-1.05,12.09,7.14s-4.63,10-11.13,10.22c-12.64.46-25.29.15-37.94.2-19.88.09-39.76-.13-59.52.13-1,.25-2.73,0-2.69,1.33s1.82,1,3,1.23c29.55.2,59,0,88.4.1,19.71.09,19.94.36,20,19.38q0,104.6,0,209.18c0,5-.77,10,.81,14.84-3.25,5.93-8.87,3.09-13.31,3.12C535.63,532.47,482.4,532.5,429.17,532.62Z"/><path class="cls-30" d="M660.23,564.49c4.35-4.89,10.15-2.87,15.31-2.89,47.41-.16,94.81.06,142.22-.29,6.12,0,15.42,4.08,17.8-4.47,2.46-8.82-2.2-17-10.11-22.55,1.77-7.47-7.08-17.75,5.89-22.25,3.23-3.83,7.76-4.77,12.28-4.67,18.56.39,37-2.43,55.6-1.19a17.8,17.8,0,0,1,8.83,3.52c7.14,5.21,10.87,12.37,12,21,.86,2.52,2.28,5,2.16,7.67-.53,12,3.62,19.49,17,19.46,2.84,0,6.19,1.6,5.95,5.81-7.67,4.13-16.71-1.6-24.28,3.35,4.19,6.31,6.18,12.65.36,19.14q-.15,6.9-.29,13.8c-8.49,4.82-16.45,5.4-23.31-2.83-3.36-5.06-3-11.14-4.48-16.74-1.21-4.67-1.55-10-8.14-10.84-5.15-.64-8.62,1.17-10.84,5.88-1.86,4-5.37,5.87-9.55,6.78-4.69.78-9.25-.54-13.89-.68-15.44-15-34.94-11.69-53.62-11.74-38.88-.1-77.75,0-116.63-.13C673.42,569.6,665.81,570.81,660.23,564.49Z"/><path class="cls-31" d="M900.43,509.51c-22.95,3.08-46,2.37-69.08,2.53a52.78,52.78,0,0,1-7.28-28c.62-15.27,17-1.5,22.85-9.59,14.85-8.24,26.42-4.31,32.2,11.15a86.23,86.23,0,0,1,3.66,11.6c2.5,7.47,9.86,4.24,14.69,6.59C899.14,505.35,903.38,505.58,900.43,509.51Z"/><path class="cls-32" d="M880.57,502.94c-3.44-1.66-3.5-5.05-3.72-8.05-1.13-15.62-9.5-21.73-24.7-19.47-1.66.25-3.48-.6-5.23-.94,2.59-13.27,11.32-19.56,24.12-21.23,5.39,6,10.73,13.06,16.87.69,7.31-3.08,13,1.83,19.22,4,10.24,6.78,11.5,16.08,7.58,26.84C902.17,488.6,894.7,502,880.57,502.94Z"/><path class="cls-33" d="M912.15,484.83c1.92-9.65-2.08-18.19-5-26.93q.23-23.77.43-47.55c6.06,9.5,6.06,9.5,16.26,2.63,3.76,3.19,5,7.5,5,12.15.38,31.23.64,62.47-.19,93.69-.19,7.18-.7,16.81-13.09,12.9.07-7.42-3.44-13.28-8.09-18.65-1.92-8.5,1.23-16.5,2.42-24.69C910.63,487.18,911.38,486,912.15,484.83Z"/><path class="cls-34" d="M907.54,265.75c12.81-2.46,18.49,1.15,17.25,15.77-1.42,16.89-.11,34,0,51l-17.18-.18Q907.59,299.06,907.54,265.75Z"/><path class="cls-35" d="M602.17,529c-3.06-5-1.75-10.6-1.76-15.92-.08-69.67-.27-139.33.17-209,.07-11-2.73-14.94-14.31-14.71-34.36.7-68.75.22-103.13.2.48-6.37,5.53-6.49,9.82-6.47,35,.12,70-1.43,104.94.75a12.75,12.75,0,0,1,4.28,3.05c.25,50.5.65,101,.7,151.5C602.92,468.61,602.43,498.81,602.17,529Z"/><path class="cls-36" d="M602.18,286.92c-.8,0-1.61-.05-2.41-.09-4.73-3.8-10.35-2.55-15.64-2.57-29.31-.12-58.63.12-87.94-.24-4.52,0-11.37,3.2-12.93-5.2,33.94,0,67.89.15,101.82-.22,5-.06,14.15,3.75,14.24-5,.1-9.9-9.56-5.83-14.89-5.87-52-.3-104.09-.15-156.13-.13.16-.91.31-1.82.47-2.72,18.94-2.27,37.94-.78,56.9-.93,34.41-.29,68.82-.13,103.23,0,4.45,0,9.07-1.07,13.34,1.19Z"/><path class="cls-37" d="M887.91,453.94c4.5,4,3.21,10-.15,11.48-4.68,2.06-11.17.18-16.25-.7s-1.56-7.39-.47-11.47c-4.73-6.14-11.61-12.05-2.16-19.74,12.81-4.63,17.44-1.35,18.6,13.2C885.21,449.26,886.17,451.62,887.91,453.94Z"/><path class="cls-38" d="M699,399.67h94.87c0,.85,0,1.69.07,2.54H699Z"/><path class="cls-39" d="M793.69,288.4H700.2l-.06-2.62h93.51C793.66,286.65,793.68,287.53,793.69,288.4Z"/><path class="cls-40" d="M699.37,435.36H793c0,.9,0,1.8,0,2.7H699.28Z"/><path class="cls-41" d="M887.48,446.71c-4.23-7.18-8-15-18.6-13.2-4.54-3.16-7.32-7.27-3.69-12.38s8.17-4.32,13.83-1.69C896.37,427.51,899.39,436.2,887.48,446.71Z"/><path class="cls-42" d="M602.24,265.07l-173.47-.23c3.39-3.11,7.59-2.35,11.57-2.35q81.06,0,162.1.15A6.44,6.44,0,0,1,602.24,265.07Z"/><path class="cls-43" d="M739.64,365h-77.9l0-2.93h77.86C739.63,363,739.63,364,739.64,365Z"/><path class="cls-44" d="M733.14,325c-9.66,5.85-20.24,2-30.36,2.6-12.17.68-24.41.14-36.62,0-2.27,0-4.74-.55-5.27-3.25s1.54-4.39,3.86-4.31c22.78.75,45.75-3.62,68.35,2.33-22.77,3.15-45.73-.1-64,1.41C687.43,324.44,710.31,322,733.14,325Z"/><path class="cls-45" d="M661.87,266.4H732l.09,2.55H661.93Z"/><path class="cls-46" d="M733.39,384.25H662l0-2.92h71.25Z"/><path class="cls-47" d="M775.51,418.68h70.68l0,2.73H775.55Z"/><path class="cls-48" d="M722.24,417.15c2.08,2,2,4,0,5.93a314,314,0,0,1-59.76-.09c0-1.93,0-3.86,0-5.79A331.1,331.1,0,0,1,722.24,417.15Z"/><ellipse class="cls-49" cx="675.69" cy="341.44" rx="40.04" ry="1.99"/><path class="cls-50" d="M647.61,455.53h55.73l.12,2.51H647.88Z"/><path class="cls-51" d="M846.23,269.76h-54.9c0-.93,0-1.85-.07-2.78H846.1Z"/><path class="cls-52" d="M791.53,303.66H845.9c.05.81.09,1.63.13,2.44H791.79C791.7,305.29,791.61,304.47,791.53,303.66Z"/><path class="cls-53" d="M780.51,304.93c-10.86,5.23-22.25,3.37-33.45,3-1.24,0-2.67-2-3.48-3.42-.22-.37,1.47-2.7,2.38-2.76C757.56,301,769.31,299.1,780.51,304.93Z"/><ellipse class="cls-54" cx="689.42" cy="248.92" rx="37.93" ry="1.93"/><path class="cls-55" d="M702.65,231.87c10.3-7.11,19.61-4.11,28.52-3.75.92,0,2.38,1.7,2.53,2.75a3.18,3.18,0,0,1-3.17,3.52C721.84,234.88,713,236.34,702.65,231.87Z"/><path class="cls-56" d="M791.86,363a81.11,81.11,0,0,1-40.85.33C764.53,359.2,778.18,360.3,791.86,363Z"/><path class="cls-57" d="M744.45,265.29c10.6-5.66,21.87-2,32.85-2.28,2.49-.07,4,1.86,4.15,4.42.22,3.21-1.38,5.6-4.49,5.5-11-.36-22.27,3.46-32.85-2.32,4.41-4.46,10.07-2,14.6-2.72C754.29,267.22,748.79,269.55,744.45,265.29Z"/><path class="cls-58" d="M770.6,250.34c12.45-4.82,24.95-4.49,37.45-3.34l0,3.34Z"/><path class="cls-59" d="M650.73,505.31c-6.87-2.28-17.26-2.39-17.1-10.41.14-6.81,10.8-6.26,17.21-9.88.7,8.17-6.39,6.79-8.26,10C643.61,500.2,652.22,497.42,650.73,505.31Z"/><path class="cls-60" d="M745.58,383.7c11.44-5.3,23.09-4.18,34.74-3.45l.18,3.45Z"/><path class="cls-61" d="M676.91,181.63c7.57,3,18.51,3.67,18.23,10.23-.33,7.49-11.19,7.33-18.31,11,0-8.11,7.32-6.44,8.89-10.77C684.45,187.43,676.46,189.79,676.91,181.63Z"/><path class="cls-62" d="M661.92,306.52l-2.1-2.86c24.3-3.24,48.63-2.19,73-.58a3.06,3.06,0,0,1,.23,2.59c-4,3.87-9.17,3.15-14,2.92C700,307.66,680.82,311.14,661.92,306.52Z"/><path class="cls-63" d="M732.79,303.08l-73,.58c.69-2.8,3-3.16,5.21-3C687.6,301.92,710.38,297.43,732.79,303.08Z"/><path class="cls-64" d="M651.2,201.59c-7.31-2-17.49-2.1-17.47-10,0-6.71,10.2-7.32,16.91-9.37,1,7.59-6.7,5.54-8.35,9.36C644,196,651.22,194.5,651.2,201.59Z"/><path class="cls-65" d="M677,505.43c-.68-7.53,7.42-5.32,8.57-10-1.57-4.12-8.94-2.29-8.69-9.4,7.18,1.34,17.43,2.77,17.55,8.94C694.63,503.52,684,502.89,677,505.43Z"/><path class="cls-66" d="M744.45,265.29c11.28.79,22.76-1.4,38,2.35-15.19,5-26.93,2.3-38.36,3C744.22,268.84,744.33,267.07,744.45,265.29Z"/><path class="cls-67" d="M748.47,341.22c-10.7,3.41-21.41,3.84-32.09.37C727,336.83,737.73,339,748.47,341.22Z"/><path class="cls-68" d="M733.14,325H665.55v-2.62H733.1C733.11,323.2,733.13,324.08,733.14,325Z"/><path class="cls-69" d="M732.88,308.62c-8.56,5.61-18.16,2.76-27.13,2.52-14.42-.38-29.14,3.22-43.29-2.34A362.56,362.56,0,0,1,732.88,308.62Z"/><path class="cls-70" d="M732.88,308.62l-70.42.18a16.05,16.05,0,0,1-.53-2.28l71.09-.85C733,306.65,732.93,307.64,732.88,308.62Z"/><path class="cls-71" d="M745.94,323.72a61.16,61.16,0,0,1,33.35.26A48.48,48.48,0,0,1,745.94,323.72Z"/><path class="cls-72" d="M758.52,248.62c-10.3,3.89-20.66,4.08-34.79,1C737.7,244,748.13,247,758.52,248.62Z"/><path class="cls-73" d="M763.94,419.32c-9.72,4.82-19.64,3.91-33.29,1.74C743.86,415,754,418.45,763.94,419.32Z"/><path class="cls-74" d="M749.32,458.36c-7.89,7.46-24.27,7.52-32.3.12C727.77,453.82,738.54,454,749.32,458.36Z"/><path class="cls-75" d="M749.32,458.36l-32.3.12C722,450.27,744,450.19,749.32,458.36Z"/><path class="cls-76" d="M662.43,423l59.76.09A143.29,143.29,0,0,1,662.43,423Z"/><path class="cls-77" d="M722.24,417.15l-59.82.05A146.13,146.13,0,0,1,722.24,417.15Z"/><path class="cls-78" d="M688.53,401.29c-9,2.78-17.94,4-30.42-.18C670.9,397.15,679.78,397.58,688.53,401.29Z"/><path class="cls-40" d="M687.27,439H662.15C670.33,432.76,678.78,433.85,687.27,439Z"/><path class="cls-79" d="M662.78,287.29c8.81-3.73,17.65-3.89,29.76-1.11C680.64,291.58,671.67,289,662.78,287.29Z"/><path class="cls-80" d="M667.26,178c1.45,9.78-2,18.47-6.42,27A51,51,0,0,1,667.26,178Z"/><path class="cls-81" d="M646.66,232.7a3.33,3.33,0,0,1-.27-2.51c16.19-5,32.39-4.81,48.61-.13a2.79,2.79,0,0,1-.18,2.57A191.66,191.66,0,0,1,646.66,232.7Z"/><path class="cls-82" d="M646.46,227.18a87.55,87.55,0,0,1,48.41,0A186.78,186.78,0,0,1,646.46,227.18Z"/><path class="cls-83" d="M646.66,232.7l48.16-.07A91.51,91.51,0,0,1,646.66,232.7Z"/><path class="cls-84" d="M646.46,227.18l48.41,0c0,.95.08,1.89.13,2.84l-48.61.13C646.41,229.18,646.44,228.18,646.46,227.18Z"/><path class="cls-85" d="M669.35,482q-3.2,13.32-6.38,26.65c-4.26-10.3,1.27-18.52,2.63-27.6Z"/><path class="cls-86" d="M885.31,348.81q0,22.26,0,44.52L883,391.45a103.83,103.83,0,0,1,0-40.85Z"/><path class="cls-87" d="M883,350.6l0,40.85A57.5,57.5,0,0,1,883,350.6Z"/><path class="cls-88" d="M288.71,510.54c13.24,3.65,26.48,7.32,40.46,5.78-.89,1.83-1.77,3.67-2.66,5.5C312.86,521.57,299,522,288.71,510.54Z"/><path class="cls-89" d="M584.49,300.26c.37,4.47,1.07,8.95,1.07,13.43.06,63.84-.17,127.69.24,191.53.06,9.79-2,13.22-12.58,13-39.83-.68-79.69-.44-119.53-.1-6.62.05-11.3-1.08-13.48-7.73,7.32-5.84,16.37-8.46,24.31-13.14,5.67-3.33,12.32-5.53,15-12.47a6.87,6.87,0,0,1,4.89-3.44c15-5,30.41-1.9,45.61-2.85,5.09-.32,11.12,2.18,14.62-4.07,11.68-7.46,24.81-13.25,30.93-27.06,3-3.44,3.65-7.38,1.24-11.18-1.89-3-4.66-1.81-7.08-.19-5.7.05-10.86,4.14-13.84,6.91-13.13,12.2-23.79,3.75-34.45-2.52-8-4.71-7.38-26.22.39-31.78,3.94-2.82,8.34-5,12.53-7.49,5.82-2.76,13.81-1,17.44-8.34,2.25-9.44-4.39-9.81-10.72-10.52-16-1.79-29,5.83-41.87,13.72-10.13,1.23-20.31,1.11-29.42,1,7.23,1.74,16.67-3.54,24,4.11,1.08,5.13-3.69,7.23-5.58,10.82-6,6.93-14.13,3-20.47,4.15,5,.79,11.73-2.17,16.38,3.86-2.3,5,2.6,12.72-5.73,15.52-4.55-2.84-9.26.28-14-.45,1.49,2.22,5.87,2.13,4.7,6.19-8.47,2.9-14.55,10.82-24.11,11.44-2.89-10.18-1.2-20.59-1.27-30.87-.24-37-.15-74.06,0-111.08,0-4.91-2.32-11.66,6.83-11.53C495.2,299.84,539.86,297.81,584.49,300.26Z"/><path class="cls-90" d="M584.49,300.26c-41.57.09-83.14.66-124.69,0-12.3-.2-15.22,3.85-15.06,15.49.61,45.63.27,91.26.28,136.9-.79.53-1.58,1.07-2.38,1.59,0-48,.26-96-.33-144-.13-10.36,2.9-12.82,12.94-12.67,39.39.59,78.8.17,118.2.37C577.11,297.92,581.67,295.58,584.49,300.26Z"/><path class="cls-91" d="M544.67,474.46c5.54,9.9-2.94,8.16-7.44,8.25-17.83.36-35.67.19-53.5.21q-1.25-1-.78-2t.9-.93c5.68.16,8.28-7.34,14.51-5.84,5.95-3.68,11.9-1.74,17.85,0Z"/><path class="cls-92" d="M405.16,452c12.93.45,14.73,3.43,10.2,16.89-6.47,3.25-9.76,11.87-18.63,11.07q-3-2.25-.78-5.28.17-5.16.31-10.33C396.2,458.1,397,452.39,405.16,452Z"/><path class="cls-93" d="M482.37,487.94c-10.6,14-25.68,19.57-42.17,22.49l-5.93-1.14,37.48-21.68C475.36,485.33,478.93,484.5,482.37,487.94Z"/><path class="cls-94" d="M493.82,401.11c-11.63,0-23.27.05-34.9-.06-3,0-7.08.44-7.43-3.78-.38-4.58,3.86-4.45,6.76-4.22,13.65,1.07,27.71-3.23,41,2.95C499.29,399.67,494.3,398,493.82,401.11Z"/><path class="cls-95" d="M396,474.72l.78,5.28a68.69,68.69,0,0,1-29.22,16.44c1.54-7,5.33-12.89,9.6-18.5,1.19-2.2,2.81-3.65,5.52-3.26C387.07,474.67,391.52,472.84,396,474.72Z"/><path class="cls-96" d="M484.15,419.94c-9,0-17.95.05-26.93-.05-2.75,0-5.88-.57-5.85-4s3.15-4,5.9-4c10.32-.05,20.64,0,31,.06C487.66,415,490,419.58,484.15,419.94Z"/><path class="cls-97" d="M469.13,441.2c-4.86-5.28-14.05,2.53-17.73-5.88-.3-.68,1.11-3,1.82-3.09,8.58-.53,17.75-5.05,25.19,3.23Z"/><path class="cls-98" d="M358.47,533.85c.21,3.33-2.14,6-8,6-4.78.05-6.69-1.88-6.14-6.39s1.29-9.21,7.06-9.71C356.85,523.34,358.14,527.15,358.47,533.85Z"/><path class="cls-99" d="M328.18,533.19c-9.39.91-18.14-1.36-30.49-5.23h30.47C328.16,529.71,328.17,531.45,328.18,533.19Z"/><path class="cls-100" d="M551.83,392.81c2.72,4.84,1.19,7.71-4.19,8.16-4.41.36-8.86.14-13.27.18C540.19,398.36,544.09,391.56,551.83,392.81Z"/><path class="cls-101" d="M569.76,436c1.4-6,7.16-7,9.59-3.82,3.73,5,3.38,11.57-3.75,15.19C574.72,443.06,577.32,436.94,569.76,436Z"/><path class="cls-102" d="M482.37,487.94l-10.62-.33c1-7.42,2.69-13.63,12.1-7.6l-.12,2.91Q483,485.42,482.37,487.94Z"/><path class="cls-103" d="M516.21,474.19l-17.85,0C504.32,464.09,510.26,470.18,516.21,474.19Z"/><path class="cls-88" d="M371.81,441.76c-11.33-20.46-28.58-31.28-52.05-29.21-22.56,2-39.16,14-46.29,35.79-6.79,20.79-2.38,40,13.07,56.13,2.36,2.47,6.63,3.56,6.27,8.15-22.07-7.28-35.65-45.47-21.87-70.45,11.05-20,25.9-33.85,51.09-33.55,23.73.27,41.84,8.34,52.46,30.34C375.67,441.88,374.25,442.3,371.81,441.76Z"/><path class="cls-104" d="M405.16,452c-6.07,1.89-4.54,9.24-8.9,12.35-14.29-11.59-12-19.18,8.42-28.05,3-.8,6-2.42,8.92-2.21,4.58.34,9,2.31,9.12,7.93s-3.47,7.75-8.7,7.93C411,450.09,407.68,449.51,405.16,452Z"/><path class="cls-105" d="M371.81,441.76l2.68-2.79c8.32,10.62,7.83,23.26,8.14,35.71l-5.52,3.26C377,465.63,377.6,453.23,371.81,441.76Z"/><path class="cls-106" d="M300.53,405.48c-7.59,4.65-14.62,9.11-22,12.93C284,410.68,291.18,405.67,300.53,405.48Z"/><path class="cls-107" d="M373.36,425.3l-17.22-15.5c11.56,1.87,14.33,8.79,19.39,12.9Z"/><path class="cls-108" d="M390.79,669.84l-18.89-.11c3.39-15.42-2.34-31.18,1.7-46.55.12,5.9,1,11.85.23,17.6-1.29,10.12,3.12,14.1,12.66,13.87C393,658.27,393.47,663.61,390.79,669.84Z"/><path class="cls-109" d="M276.56,356.3c-.07-6.09-2.7-9.44-8.86-9.49-4.89-.05-6.49-3.18-8.72-7-4.62-7.85-6.07-14.95.61-21.11.59-8.33-10.3-14.65-17.89-11.46-13.46,5.65-19.48,3.41-25.69-9.81-2.13-4.53-5.35-7.32-10.47-7.08-4.66.23-8.66,1.4-10.74,6.57-6.1,15.16-11.75,18.14-27,13.12-6.55-2.16-8.86,1.79-12.38,5.26-3.89,3.82-4.21,6.81-.93,11.65,6.09,9,2.3,21.85-7.59,25-6.43,2-8.79,5-8.78,11.42,0,7.48,3.64,9.8,10.66,11,8.22,1.42,14.48,15.68,10.32,23.19-3.3,5.95-2.55,10.09,2.12,14.32s8.48,4.77,14.11.33c6.54-5.14,22.35.62,24.4,8.71,1.49,5.88,2.23,10.4,9.8,9.67,6.51-.62,10.64-2.8,12.57-9.86,3-11.11,12.85-15.61,23.75-10.66,6,2.73,9.28.61,13-3.11,4-4,4.5-7.75,1.58-13.21-5.48-10.23-1.85-20.89,8.75-24.95C275.88,366.25,276.63,362.11,276.56,356.3ZM207.42,390c-16.27.15-28.76-12.55-28.84-29.32-.07-16.22,12.86-29.68,28.61-29.78,14.66-.1,30.17,14.52,30.74,29C238.54,375.33,223.87,389.83,207.42,390Z"/><path class="cls-110" d="M200.37,319.63a53.58,53.58,0,0,1,28.54,4.93C240.75,330,241,329.39,244,343.41q1.86,2-.35,3.56c-9.66-14.41-22.9-22.93-40.35-24.53C200.32,323.53,199.84,322.1,200.37,319.63Z"/><path class="cls-111" d="M200.37,319.63c1,.93,1.93,1.87,2.89,2.81-12.31,5.27-24.1,11.19-29.92,24.42-1.7-.12-1.83-1.86-2.81-2.73,6.29-6.93,2.05-18.45,13.21-24.52C191,315.69,195.22,325.69,200.37,319.63Z"/><path class="cls-112" d="M243.61,347c.11-1.18.23-2.36.34-3.55,7.74,11.09,8.14,22.19,0,33.29l-.22-.2Z"/><path class="cls-113" d="M244,376.71c-3.41,14.22-13.15,20.19-26.94,20.91,11.19-4.13,19.26-12.23,26.72-21.11Z"/><path class="cls-114" d="M170.53,344.13l2.81,2.73c-2.92,8.89-2,18-1.28,27.13C164.75,364.3,167.85,354.2,170.53,344.13Z"/><path class="cls-115" d="M325,316.3l-5.19.19c-.05-9.06,0-18.12-.17-27.18-.07-4.43.58-9.16-5.69-10.63-5.22-1.23-5-5.71-4.68-9.89.31-3.63,2.34-5.8,6-6.27,4.86-.62,6,3.51,7.53,6.52,4.68,9.22,9.28,7.62,12.57-.43,1.81-4.44,3.37-7.62,8.43-5.94,5.33,1.77,5.08,8.28,3.24,10.17-12.86,13.16-3.18,29.05-6.13,43.25l-4.77.34c-6.46-5.93-3.39-14.3-5.37-21.49C329,302.22,332.42,310.71,325,316.3Z"/><path class="cls-116" d="M369,243c-.42,4.71.47,9.13-4.75,9.4-3.7.19-5.76-2.6-5.92-6.09-.55-12.15-9.27-18.93-17.23-26-3.32-2.94-6.93-5.53-3.68-9.7,3.08-3.94,6.63.08,9.37,1.7C359,219.5,365.68,230.73,369,243Z"/><path class="cls-117" d="M660.23,564.49q81.32.36,162.64.69c10.19,0,21.17-2.25,25.13,11.51.26.9,3.22,1,4.92,1.49,5.67,1.88,6.72,7.3,8.84,11.87,5.17-2.67.77-9.65,5.89-12.13,1.23-.39,3.55-.87,3.52-1.16-.47-5.77-5-13.46,7.35-11.67,8.35,1.21,19.67-3.69,18.88,12.09-.29,5.68,1.31,11.45,2.05,17.17-.75,4.52,6,5.87,4.54,10.67l-187.33.14c-3.64,3.79-8.2,5.2-13.33,5.16-23.66-.17-47.33.84-71-.57-64.32,1.75-128.65.55-193,.67A18.33,18.33,0,0,1,425.89,605q.17-19,.35-38c5.12-2.64,10.64-1.56,16-1.56q101.59-.12,203.2-.11C650.36,565.28,655.29,564.76,660.23,564.49Z"/><path class="cls-118" d="M407.62,670.22q0-6.65-.05-13.3c6.24,3.35,11,1.35,14.65-4.17-.07,12,11.11,10.64,17.57,14.89.75.58,1,1.1.67,1.59s-.59.68-.87.68Z"/><path class="cls-119" d="M325,316.3c-.05-8.46-.21-16.91-.12-25.37,0-3.8-.93-8.9,5.2-8.69,5.37.19,5.77,4.66,5.82,8.82.11,8.46.15,16.91.22,25.37Z"/><path class="cls-120" d="M915.57,531.72c6.53,1.75,8.95-.76,8.88-7.46-.35-37.09-.44-74.18-.63-111.27,7-7.09,15.47-2.73,23.35-3,0,46.49.08,93-.1,139.47,0,4.7,1.94,9.9-1.9,14.18-22.33,1.77-30.5-9.93-29.18-30.67A4,4,0,0,0,915.57,531.72Z"/><path class="cls-121" d="M921.25,586.14c.29-6.38-3.19-12.7-.35-19.14,4.41,0,8.82,0,13.24.06,14.91.15,15.76,1.4,11.16,16.37-.61,1.18-1.18,2.37-1.82,3.53-3.72,6.79-8.71,14.2-16.44,13.65C920.39,600.13,926.18,590,921.25,586.14Z"/><path class="cls-122" d="M439.59,669.91c.1-.75.17-1.51.2-2.27,5.42,3,11.37,2.38,17.2,2.38q56.19,0,112.36,0c31.7,0,53.27-16.74,61.55-47.75.58-2.17,1.18-4.34,1.77-6.51,12.34-7.56,71.38-7.69,83.94-.18C723.14,651,745.9,670,781.52,670q125.67,0,251.34.09c5.25,0,10.93-1.72,15.69,2.26q-222-.06-444-.11c-50.24,0-100.49.18-150.73.14C449,672.4,443.72,674.06,439.59,669.91Z"/><path class="cls-123" d="M716.61,615.6l-83.94.18q0-5.35-.07-10.73l84.06.11Q716.65,610.38,716.61,615.6Z"/><path class="cls-124" d="M904,605c-.85-3.84-6.93-5.46-4.54-10.67,5.41,8.63,14.23,4.14,21.51,5.59-7,5.07,1.61,8.51,1.89,13.32C915.34,612.24,905.65,618.07,904,605Z"/><path class="cls-125" d="M973.7,370.5c-2.3-4.7-5.44-4.15-7.92-4.9-4-1.19-5.1-4.15-3.62-7.33,1.92-4.13,4.27-.65,6.39.42.8.4,1.72.57,2.56.89,6.42,2.5,16.79,3.39,16.65,10.6-.18,9.52-12.53,7.55-18.85,11.87-1.67,1.13-5.37,2.82-7-.73-1.55-3.38,1.12-4.47,3.8-5.7S970.89,372.35,973.7,370.5Z"/><path class="cls-126" d="M918,369.33c.67,7.18,14.27,4.5,9.73,11.73-3.45,5.48-10-2.6-15.42-3.88-3.7-.87-7.05-2.11-7.88-6.31-1.06-5.44,4.26-4.78,6.77-6.82.7-.56,1.31-1.51,2.09-1.67,5.15-1.05,12-8.19,15-2C932,368.17,919.32,363.32,918,369.33Z"/><path class="cls-127" d="M950.18,350.57c2,13.84-1.9,26.24-9,37.84C939.64,374.67,944.21,362.45,950.18,350.57Z"/><path class="cls-128" d="M483.26,278.82c4,4.5,9.31,2.54,14,2.57,30.26.18,60.52,0,90.79.22,4.28,0,10.62-2.74,11.69,5.22-34.22,0-68.43,0-102.64.2-4.71,0-10-1.89-14,2.56C479.33,286,479.3,282.37,483.26,278.82Z"/><path class="cls-129" d="M465.65,278.72c3.58.06,5.79,1.44,5.88,5.44.11,5-3,5.74-6.9,5.66s-5.38-2.23-5.11-6C459.79,280,462,278.46,465.65,278.72Z"/><path class="cls-130" d="M453.46,283.33c.39,4.46-1.3,6.41-5.26,6.35-3-.05-5.26-.95-5.48-4.33s.38-6.3,4.66-6.51C451,278.66,453.53,279.75,453.46,283.33Z"/><path class="cls-131" d="M873.35,534.29c20.79,0,22.18,1.55,23.12,15,1,14-8,12.23-16.54,12.21-12.14,0-23.51-9.86-22.5-21.27C858.52,527.81,869.12,537.62,873.35,534.29Z"/><path class="cls-132" d="M867.65,577.92c6.69,12.25-3,17.2-12.85,26.14,5.62-11.46.92-18.49-1.88-25.88Z"/><path class="cls-133" d="M912.23,488.56c.38,8.55,1.83,17.31-4.75,24.51-2.67-.55-5.84-.11-7.05-3.56l-4.16-2.74C897.18,496.84,901.33,489.74,912.23,488.56Z"/><path class="cls-134" d="M912.23,488.56l-16,18.22c-5.3-1-12,3.8-15.7-3.84,4.68-1.19,7.88-4.61,10.21-8.31,5.12-8.11,12-11.39,21.37-9.8C912.18,486.07,912.2,487.32,912.23,488.56Z"/><path class="cls-135" d="M510.77,349.42c16.7,0,33.4-.08,50.1.05,2.9,0,7.4-.91,7.39,3.55,0,3.79-4.06,4.36-7.27,4.36q-51.45.11-102.91,0c-3,0-7.17,0-6.52-4.59.61-4.3,4.84-3.29,7.76-3.31C476.47,349.36,493.62,349.43,510.77,349.42Z"/><path class="cls-136" d="M510.2,330.15c16.69,0,33.38-.07,50.07.07,2.87,0,7.19-1.18,7.8,3.13s-3.51,4.78-6.54,4.79q-52.11.18-104.21.07c-2.74,0-6.06-.55-5.86-4,.26-4.34,4.27-4,7.31-4,17.14-.09,34.28-.05,51.43-.05Z"/><path class="cls-137" d="M548.47,411.8c5.84,0,11.69-.07,17.53,0,2.27,0,4.79.48,5,3.35a4.1,4.1,0,0,1-4.22,4.32c-13.47.23-27,.25-40.43.19-2.4,0-4.45-1.33-4.23-4.1s2.5-3.65,4.82-3.69c7.19-.13,14.38-.05,21.58-.05Z"/><path class="cls-138" d="M469.37,317.31c-5.86-2.46-17.09,3.53-17.14-4.53,0-7.71,11.19-3.94,17.23-3.85,6.57.11,18.63-3.88,18.58,3.88S475.89,314.94,469.37,317.31Z"/><path class="cls-139" d="M468.8,377.2c-5.63-2.46-16.29,3.62-16.48-4.87-.16-6.65,10.52-3.34,16.23-3.38,6.19,0,17.42-3.22,17.37,4C485.87,380.5,474.76,374.87,468.8,377.2Z"/><path class="cls-140" d="M512.9,377.18c-5.88-2.34-17,3.45-17.16-4.23s11-3.92,17-4,16.49-4,16.57,4.63C529.34,379.93,518.59,375.07,512.9,377.18Z"/><path class="cls-141" d="M678.67,579.28c.31,3.3-1.68,4.91-4.5,5.28s-5.39-.93-5.88-3.88c-.61-3.61,1.35-5.84,5.11-5.95C676.43,574.64,678.33,576.12,678.67,579.28Z"/><path class="cls-142" d="M652.24,574c3.32-.23,5.23,1.35,5.8,4.31.71,3.68-1.09,6.12-4.67,6.55a5.11,5.11,0,0,1-5.8-4.27C646.82,576.94,649.07,574.93,652.24,574Z"/><path class="cls-143" d="M694.72,574.92c2.75.83,4.95,2.33,4.27,5.66-.54,2.61-2.8,3.32-5.2,3.22-3.48-.15-4.7-2.2-4-5.43C690.33,575.84,691.94,574.57,694.72,574.92Z"/></svg>