<svg id="Layer_1" data-name="Layer 1" xmlns="http://www.w3.org/2000/svg" viewBox="0 0 1200 700"><defs><style>.cls-1{fill:#6494f4;}.cls-2{fill:#e2e2e2;}.cls-3{fill:#fdd57d;}.cls-4{fill:#fed57e;}.cls-5{fill:#164059;}.cls-6{fill:#fcbf03;}.cls-7{fill:#fc5858;}.cls-8{fill:#92caf8;}.cls-9{fill:#81bfdb;}.cls-10{fill:#153f58;}.cls-11{fill:#fdde64;}.cls-12{fill:#5aa5c7;}.cls-13{fill:#153e56;}.cls-14{fill:#93caf8;}.cls-15{fill:#cbcbcb;}.cls-16{fill:#fbd47d;}.cls-17{fill:#fcbf05;}.cls-18{fill:#fdd57e;}.cls-19{fill:#fb5857;}.cls-20{fill:#fcd12e;}.cls-21{fill:#e3e3e3;}.cls-22{fill:#5da36e;}.cls-23{fill:#fcd12f;}.cls-24{fill:#7f7f80;}.cls-25{fill:#174059;}.cls-26{fill:#7f807f;}.cls-27{fill:#c94043;}.cls-28{fill:#fadc63;}.cls-29{fill:#e5e5e5;}.cls-30{fill:#164058;}.cls-31{fill:#194159;}.cls-32{fill:#cbcbc9;}.cls-33{fill:#878787;}.cls-34{fill:#cccacb;}.cls-35{fill:#163548;}.cls-36{fill:#af7b6b;}.cls-37{fill:#7f8081;}.cls-38{fill:#e4e4e4;}.cls-39{fill:#fad57e;}.cls-40{fill:#f04a45;}.cls-41{fill:#f04943;}.cls-42{fill:#f7dd65;}.cls-43{fill:#c9a524;}.cls-44{fill:#ecd367;}.cls-45{fill:#1c4258;}.cls-46{fill:#eed46a;}.cls-47{fill:#87c0d9;}.cls-48{fill:#bae9f5;}.cls-49{fill:#9ce0e6;}.cls-50{fill:#3d5665;}.cls-51{fill:#e5d164;}.cls-52{fill:#24404f;}.cls-53{fill:#b7eaf7;}.cls-54{fill:#95ddf3;}.cls-55{fill:#f9dd6a;}.cls-56{fill:#a1dff6;}.cls-57{fill:#a1e0f3;}.cls-58{fill:#b6e9f6;}.cls-59{fill:#5ba5c7;}.cls-60{fill:#828483;}.cls-61{fill:#f14843;}.cls-62{fill:#f04a44;}.cls-63{fill:#fcfcfc;}.cls-64{fill:#f04944;}.cls-65{fill:#fcf9f0;}.cls-66{fill:#fcfaf1;}.cls-67{fill:#fcf6e7;}.cls-68{fill:#fcf9ef;}.cls-69{fill:#fcf7e8;}.cls-70{fill:#848583;}.cls-71{fill:#fefefe;}.cls-72{fill:#febf00;}.cls-73{fill:#fedf64;}.cls-74{fill:#f3f6ef;}.cls-75{fill:#dc9c35;}.cls-76{fill:#f9eab1;}.cls-77{fill:#fbefbf;}.cls-78{fill:#faf2cc;}.cls-79{fill:#faefc5;}.cls-80{fill:#faf0c8;}.cls-81{fill:#fbf7e6;}.cls-82{fill:#faecb5;}.cls-83{fill:#f9f6dc;}.cls-84{fill:#f9e6e5;}.cls-85{fill:#faf3f2;}.cls-86{fill:#f9dddc;}.cls-87{fill:#f9e8e8;}.cls-88{fill:#f8c9c9;}.cls-89{fill:#d49f06;}.cls-90{fill:#5ba6c8;}.cls-91{fill:#f1f6f3;}.cls-92{fill:#fdfdfd;}.cls-93{fill:#f2f5e9;}.cls-94{fill:#eaeeef;}.cls-95{fill:#faeece;}.cls-96{fill:#f9f9eb;}.cls-97{fill:#7dbf8c;}.cls-98{fill:#fdbf01;}.cls-99{fill:#f7c5c3;}.cls-100{fill:#f7c8c6;}.cls-101{fill:#f4f5ea;}.cls-102{fill:#c7cbf3;}.cls-103{fill:#f3d47e;}.cls-104{fill:#f9f6f5;}.cls-105{fill:#f8eeed;}.cls-106{fill:#f8eeec;}.cls-107{fill:#f8efed;}.cls-108{fill:#faeeed;}.cls-109{fill:#f9eeeb;}.cls-110{fill:#fcd57e;}.cls-111{fill:#fddf64;}.cls-112{fill:#bccad3;}.cls-113{fill:#fdbf04;}.cls-114{fill:#fcfcfb;}.cls-115{fill:#fbfbf4;}.cls-116{fill:#ceccc9;}.cls-117{fill:#fbe9a8;}.cls-118{fill:#fbbf08;}.cls-119{fill:#fbbb08;}.cls-120{fill:#fcbf07;}.cls-121{fill:#fbbf07;}.cls-122{fill:#fac523;}.cls-123{fill:#fb5657;}.cls-124{fill:#fb5d5d;}.cls-125{fill:#faf7e3;}.cls-126{fill:#faf6e8;}.cls-127{fill:#fbf8ea;}.cls-128{fill:#d8ebdc;}.cls-129{fill:#d9ecdd;}.cls-130{fill:#dbedde;}.cls-131{fill:#d9ecdb;}.cls-132{fill:#fa605c;}.cls-133{fill:#e8edef;}.cls-134{fill:#fac00b;}.cls-135{fill:#fbc00c;}.cls-136{fill:#fbc113;}.cls-137{fill:#fbc00b;}.cls-138{fill:#fbc215;}.cls-139{fill:#fbc214;}.cls-140{fill:#fbc213;}.cls-141{fill:#fbc00f;}.cls-142{fill:#fac214;}.cls-143{fill:#fac316;}.cls-144{fill:#fac41a;}.cls-145{fill:#f8c316;}.cls-146{fill:#f8c628;}.cls-147{fill:#f9c523;}.cls-148{fill:#facc42;}.cls-149{fill:#f9ca34;}.cls-150{fill:#facc38;}.cls-151{fill:#fae083;}.cls-152{fill:#fbcf45;}.cls-153{fill:#fac720;}.cls-154{fill:#facb3f;}.cls-155{fill:#f8f3cb;}.cls-156{fill:#fae287;}.cls-157{fill:#fbe188;}.cls-158{fill:#fbe289;}.cls-159{fill:#f7f1bb;}.cls-160{fill:#fcebbd;}.cls-161{fill:#faeab7;}.cls-162{fill:#f8efb8;}</style></defs><title>subject</title><rect class="cls-1" x="-0.5" width="1200" height="700"/><path class="cls-2" d="M316.45,445.43l10.95,3.33c5.67,10.4,11.42,20.76,21,28.21-.58,1.35-4.05,2-.44,4.28,3.36,2.14,7.34,3.79,9.32,7.7-3.23,2.68-6.21.56-8.78-.93-5.74-3.32-9.24-1.06-12,4a52.37,52.37,0,0,0-6.81,25.76c0,3.4,1,7.09-2.77,9.39-11,.92-20.54,6.26-30.69,9.77-10.09.47-20.18,1.33-30.2-.52-4.43-2.1-2.24-5.65-1.32-8.32,3.52-10.19,6.39-20.57,9.66-30.82-3.06,9.18-5.55,18.54-8.7,27.69-2.87,8.32-4.29,9-13.71,7.28-1.51-1.19-2.76-2.48-1.63-4.61,4.27-14-.08-25.83-12-32A23,23,0,0,1,228,485.34c-3.17-6.24-6.6-12.35-10-18.45-6-10.65-5-18.28,3-27.74,3.47-4.09,4.74-9.34,4.53-14.74-.2-5.12,1.1-12.45-7.74-5-3.58,3-14-3.33-17.8-9.43-6.62-10.55-16-17.22-28.82-17.89-10-.52-22.91-13.81-23.1-24.2,0-1.92-1-3.23-1.8-4.76-2.81-5.12-5.36-10.38-8.17-15.5-2.59-4.71-4.73-9.54-4.83-15.18-3.27,10,5,18.67,1.94,30.06-4.89-5.82-8.37-11.62-9-17.87-1-9.24-4.31-17.28-7.54-25.8-3.82-10-6.36-21.28-1.55-32.17,2.72-6.14,5.9-12.08,9-18.07,2.53-5,3.17-9.89,0-14.85-.62-1-1.88-2.58-1.61-2.92,7-8.86.79-17.82-1.22-25.74-2.65-10.47-2.18-23.52-17.08-28.48-4.45-1.48-7.79-3.62-12.75-2.53-3.73.82-8.17.8-5.29-7.21-13.14,19.26-32.39,20.77-51,23.92,8.86-5.73,19.61-7.61,28.13-14.28-6.69-5-9.87-15.05-7.3-21.26,3.23-7.82,9.39-12.13,17.79-14.55-1.29-1.14-1.78-1.85-2.46-2.13-5.3-2.14-7.74-6.25-4.63-11,2.77-4.22,7.63-3.07,11.78-.88,1.83,1,3.23,4.65,5.56,2.2,2.14-2.26-.89-3.81-2.31-5.59-4.62-5.76-2.48-12,4.65-13.54s14.32-2.41,21.41-3.93,11.87,3,16.15,6.94c7.65,7.08,17.69,11.46,23.37,20.76,1.46,2.39,3.81,2,6.26,1.22,5.41-1.81,12.71-2.75,16.14-.26,5,3.63,11.51,1.65,15.32,5.82,4.4,4.84,10.43,8.12,12.61,15.25,1.61,5.25,9.89,1.75,12.23,8.78,2-5.66,1.23-8.7-3.38-9.16-3.27-.32-5.63-1-6.31-4.56-.46-2.42-5-3.25-3-6.44s4.81,1.25,7.3-.44c.7-2-1.07-2.36-2.27-2.64-2.89-.69-4.76-2.07-4.81-5.28-.06-3.42,2.72-4.23,5-5.36,5.52-2.72,10.37.27,15.56,1,10.62,1.41,11.71,6,11.18,14.25-.21,3.19,5.77,5.34.89,9.8-4.52,4.12-8.21,1.77-13.48-.69,2.36,6.61,6.26,9.24,11.12,10.42,2.83.68,5.47.69,6.63-3.5,1.62-5.83,7.37-8.67,11.61-12.24,4-3.4,9.08-1.53,7.23,4.26-2.59,8.13,7.56,9.51,7.16,16.15,0,.47,4-1.7,4.88-3.6,2.83-5.82,5.16-2.53,7.58.14,3.64,4,.23,7.89-.75,11.47-.75,2.78-4.54,4.15-7.43,3.1-7-2.54-11.92-1.21-14.87,5.93a4.76,4.76,0,0,1-4.93,3c-4.4-.35-6.89,2.55-9.62,5.2-13,12.63-12.28,19.23,3.35,29.47a17.3,17.3,0,0,0,4.69,2.34c6,1.64,8.12,4.73,5.35,10.85-.86,1.9-.13,4.52-.13,6.69,2.18.57,3.59-.66,3.77-1.83,1-6.5,1.82-12.62,9.7-14.92,2.56-.75,2.08-4.51,2.09-7.15,0-7.21,5.21-12.14,8.2-18,1.75-3.43,5.11-1.17,7.85-.43,5.88,1.57,9.71,6.72,9.28,11.3-.91,9.85,3,7.35,7.58,4,3.64-2.69,5.28-3.26,5.83,2.19.84,8.46,3.17,16.24,10.13,22.23,3.6,3.1,2.86,7-1.94,8.87-7.89,3.12-15.35,8.85-24.65,4.37-.86-.42-2.22.19-4.5.47,3,3.31,5.73,5.76,5.19,10.2-.76,6.33,2.76,7.37,8.08,4.34-2.44,7.59-11.72,11.45-17.37,7.58-2.91-2-10.72,1.89-11.27,6-.26,1.86,1.38,4.26-2,4.52-11.66.91-17.28,7.86-20.24,18.59-1.15,4.19-7.07,4-10.49,6.72-6.65,5.37-12.28,10.08-7.23,19.45,1.35,2.5-.15,4.47-1.95,6.16-1.34,1.27-3,2.31-4.7,1.28a6,6,0,0,1-2.92-6c.53-3.59,3.51-7.91-1.24-10.07a14,14,0,0,0-13.45.6c-2.29,1.49-4.27,1.71-6.48.48-8.39-4.66-14.17.4-18.77,6-5.08,6.19-7.82,13.81-4.87,22s9.75,9.19,15.3,2.43c2.49-3,6-3.76,9.32-4,4.33-.37,7.13,1.35,3.77,6.29a67.51,67.51,0,0,0-3.39,6.12c-2.21,4.1-1.84,6.59,3.66,6.67,8.06.11,9.75,4.76,8.15,11.82-2.11,9.3-.22,9.08,8.73,10.12,10.71,1.24,17.12-4.75,24.74-9.75,2.53,3-3.7,5.25.53,8.09,3.75-5.66,7.83-6,14.38-2.24,8.45,4.8,14.72.24,15.53-9.33.15-1.85-.91-4,1.45-5.79,5,5.15,0,11.05,1.28,16.5,1.23,5.18,9.51,14.86,14.66,14.75,10.19-.22,16.25,4.84,15.48,14.45-.34,4.17,2.65,3.7,4,5.45-2.86,3.39-6.87,2.72-10.56,2.8-9.32.2-18.65.07-28,.08-5.41,0-8.14,2.3-8,7.86.06,2.61,0,5.24,0,7.86,0,12.92,4.38,17.6,17.1,15.69a130.1,130.1,0,0,1,22.58-1.44c7.36.17,9.47-3.34,9.65-10.13C314.54,460.26,312.37,452.51,316.45,445.43Z"/><path class="cls-2" d="M529.19,331c2.19-4.28-3-7.17-2.1-11.38.39-1.77-1.53-2.19-3.09-1.48-1.21.55-3.11,1-2,2.94s2.42,3.42,1.44,5.59c-.68,1.51-1,3.68-3.12,3.76s-2.1-2.14-3.08-3.34c-4.93-6.05-6.2-14.9-14.12-18.64-2-3.46.72-6.08,1.76-8.92,1.49-4.07-.23-6.72-3.22-9-2.71-2.08-5.51-1.73-8.05.18-3.12,2.35-4.26,5.47-2.5,9.21,2.21,4.75,4.26,9.67,9.81,11.61,3.94,3.95,10.6,7.39,1.77,13.72-3.63-8.37-12.77-11-19.14-16.88l0,0c-10.77-2.67-20.81,2.91-24.59,13.68-3.05,8.7-19.12,13.64-26.09,8a5.29,5.29,0,0,1-1.73-5.55c.39-2,1.64-4.05,1.34-5.9-1.79-11,2.57-14.68,13.29-12.1a7.5,7.5,0,0,0,9.24-4.86c1.62-4.06-1.72-5.73-4.21-7.62-4.7-3.59-4.22-5.74,1.24-8.2,2-.92,4.7.28,6.35-2.27-3.74-2.91-7.12-1.07-10.49.45-1.58.71-3.29,2-4.9.89-2.38-1.7-.2-3.77.29-5.5a62.94,62.94,0,0,1,3.54-8.86c.61-1.34,1.78-2.79,0-3.67-2-1-3.33.34-3.53,2.41-.24,2.51-1,4.59-3.46,5.65-2.92,1.27-5.92,6.06-9,2-2.42-3.25-1-8.21,2.54-10.37,4.87-2.94,9.1-5.62,9.66-12a6,6,0,0,1,4.5-5c3.39-.79,3.49,3,4.16,4.55,3,6.73,4.06,14.34,10.25,19.51,1.53,1.28-1.66,3.73.43,6.32,5.92-3.14,9.14-10.06,16.13-12.07,2.57-.74-.14-4.14-.26-6.33-.17-3.09.2-5.9,3-7.69a2.59,2.59,0,0,1,2.32-.11c2.38,2.1,1.78,4.7.81,7.24-1.59,4.13.51,5.51,4.15,5.18,3.05-.27,5.94.42,9.24-.26,6.89-1.4,12.91-1.74,12.46-11.2-.08-1.67.75-6.22,5.05-5.94,3,3.94,3.47,9.06,6.4,13.08,2.44,3.36,4.13,4.23,7,.35,6.89-9.15,5.44-14-5.59-17a4.88,4.88,0,0,1-2.82-1.83c-4.28-1.23-9.81.43-11.76-5.94-1.82-5.92,1.41-9.33,5.14-12.83,1.16-1.09,3.2-2.36,1.46-4.26-2-2.2-4.19-.58-5,1.14a47.27,47.27,0,0,1-9.67,13.23c-.51.5-.83,2.16-.57,2.35,9.73,7-1.47,13.17-.88,19.82.26,3-2.91,4.21-5.36,5.05-3.42,1.16-3.68-2.18-4.62-4-2.53-4.9-4.16-10.52-11.79-6-2.38,1.42-4.93-.78-6.14-3.51-2.39-5.38-3.29-11.22.72-15.67a34.26,34.26,0,0,1,10-7.86c4.5-2.27,5.4-8.37,7.65-12.87,6.18-12.34,16.55-17.24,29.65-17.7,2.88-.1,6.09-.52,6.57,3.78.18,1.58.95,2.83,2.84,2.41,6.29-1.41,10.85,3.7,16.59,4.34,3.51.4,5.28,2.42,5,5.91-.34,3.73-3,4.79-6.25,4.53s-6.19-.89-9.54-1.4c.78,1.8,1.5,3.24,2,4.76,1.65,4.75,3,6.25,8.57,2.84,4-2.45,5.41-7.57,10.6-8.47,2.26-.39.67-2.83.14-4.41-.77-2.27-3.61-5.08,0-6.74s6.11.41,7.11,4.2c.13.51.64.91,1.1,1.53,7.32-5.49,7.81-12.3,6.83-21.09-.77-7-.69-14.93,2.2-22.05,2.83,2.36,2.74,5.71,2.74,8.88,0,14.31.54,28.63-.34,42.94-.53,8.72.58,10.23,9,11.63a69.55,69.55,0,0,0,11.36.59c18.41,0,36.82,0,55.23,0a51.24,51.24,0,0,1,11.27,1.21c3.27.74,5,6.82,9.63,2.67s9.94-7.14,9.47-15.22c-.81-14-.46-28-.12-42.07.17-7.11-2.39-10.14-9.64-9.83a128.39,128.39,0,0,1-28.83-1.56c-2.84-.52-5.89-.34-8.11-2.69,5-10.46,15.21-14.76,24.06-20.69.7-.46,2.14-.27,2.43-.81,4.46-8.38,11.64-8.8,20.21-8.95,5.31-.1,10.86-1.58,14.65,2.16s-1.37,7.75-2.31,12.35c7.62-.85,14.74-3.29,21.9-.38a2.25,2.25,0,0,0,3-2.23c-.23-6.9,4.49-6.16,8.93-6.08s6.28.87,6.55,6.51c.2,4.29,7.06,3.12,9.46,1.37,3.88-2.85,8.22-2.85,12.27-3.91s7.59-.71,5.52-6.62c-.71-2,1.35-3.79,3.6-4.17a126.67,126.67,0,0,1,13.79-1.93c9.62-.5,19.38,5,29-1.53,2.14-1.45,6.77-1.25,9.75,1.76,2.36,2.38,5.4,1.62,8.24.66,5.46-1.85,10.79-4.57,17.33-1.1-4.77-8.14-.91-9.18,5.4-10.66,9.87-2.32,19-1.34,28.21,2.16,4.82,1.82,9.27,3.57,15.23,2.74s12.12,2.92,6.7,11.41c3.8.58,2.32-3.49,4.65-3.57,3.84,8.23,4.45,16.38-.49,24.43-.44-1.64-1.45-3.36-1.24-4.92,1-7.32-2-10.22-9.27-9.19-4.72.67-7.93-3.12-12.67-5,.14,7.62-2,15.18,8.54,17.55,4,.91,3.62,3.83-.18,5-4.7,1.44-8.48,4.85-8.82,8.85-.77,9.32-7.75,12.22-14.11,15.59-7.05,3.75-5.34,9.41-1.51,12.34,6.69,5.11,5.29,12,5.5,18,.14,4.07-.84,8.58-1,12.92-.07,2.14-.33,4.32-2.46,5.22-2.38,1-3.74-1-5-2.53-11.47-13.43-16.7-27.71-6.47-44.41,2.7-4.41,2.39-9.33.36-14.29-3.9,1.61-.57,4.18-1.5,6.08-1.49,3.06-2.78,6.11-7,4.32-2.15-.9-4.36-4.3-6.22,0-1.42,3.31-3.68,6.92-.82,10.47,1.31,1.63,3.72,2.88.5,4.45-2.58,1.27-3.77,6.23-7.8,3.68-8.19-5.19-13.53,4-20.94,4.14-3.71.1-3.14,7.45-3.65,11.43-.63,4.91-1.58,9.08-5.58,12.18-3.56,3-7.24.74-10.85.19-8.33-1.27-16.44-5-25-3.48-16.61,2.95-24.3,14.64-28.51,29.78-1.41,5-.34,11.59-7.05,14.1-10.77,1.46-21.58.61-32.36.67-27.15.15-54.3-.07-81.45.1-16.26.1-22,5-25,20.86-4.07,21.52-5.43,43.43-8.94,65-2.65,5.92-6.66,3-10,1.12-4.59-2.61-7.61-7-10.82-11.12a23.92,23.92,0,0,0-7.32-6.62c1.08,6.63-2.11,7.15-6.88,5C540.67,338.65,534.93,334.8,529.19,331Z"/><path class="cls-2" d="M495.55,477.09c4-10.3-2.15-17.64-7.8-24.75-3-3.76-5.72-6.08-3.28-11.91,1.73-4.17-.76-8.3-6.45-11.35-14.7-7.88-27.91-1-41.67,1.69a8.63,8.63,0,0,1-4.26-.16c-13.29-4.7-23.79-23.09-24.4-37.55-.51-12.13.94-22.66,9-32,1.93-2.23,3.41-4.64,6.51-5.44s4.82-2.89,5.81-5.93c3.06-9.47,8.74-15.84,19.59-15,3.95.31,6.38-2.54,9.66-3.59,8.61-2.74,17.56-2.23,26.34-3.28,4.47-.54,4.31,3,4.14,5.95-.28,4.88,1.33,7.71,6.68,8.16,2.88.25,5.13,2.5,7.59,4.07,3.81,2.42,8.33,8.47,11.15-1.56,1.14-4.05,5.67-3.19,9.13-2,1.58.55,3.4,3.52,4.15-.68,2.57-.77,3.84,1.14,4.9,2.75,5.55,8.43,14.28,11.37,23.23,14.49S574,365,578.34,375c-2.9,31.32-8.83,62.23-12.32,93.45-1.94,17.35-5,34.54-6.62,51.95-.46,5,.66,11.3-5.48,14.44-.46-2.15.52-6.61-3.91-2.46s-8.34,9.13-13.4,12.26c-6.84,4.23-15.82,1.36-23.16,5.57-2.31,1.33-5-1.25-5.21-4.32-1-12.52-7.91-22.85-12.48-34.05C494.4,500.26,494.71,488.68,495.55,477.09Z"/><path class="cls-3" d="M902.61,153.93q.24-12.21.49-24.43c2.94-2.75,6.39-3.55,10.41-3.53q21.91.15,43.82-.2c32.4-.48,64.79-1.13,97.19-1.63,10.36-.15,11.71,1.32,11.89,11.44.49,26.26,1.07,52.52,1.48,78.77.18,11.47-1.38,12.9-13.21,13-33.31.2-66.61.7-99.91.37-12.1-.12-22.48,2-30.14,12.06-1,1.32-2.61,2.17-3.89,3.2-3.11-1.68-2-4.35-1.82-6.38.31-4.88-.67-7.58-6.53-7.5-7.08.1-9.19-4.79-9.22-11.18C903.05,196.58,902.81,175.25,902.61,153.93Z"/><path class="cls-4" d="M297.23,535c9.48-5,18.93-10.18,30.22-9.37,14.26,12.7,26.7,26.58,29.93,46.41.94,13.06,8.51,18.83,21.41,15.4,15.29-4.06,30.53-4.07,46-1.41,3.19.55,5.59,1.57,6.86,4.56,6,14.27,12.47,28.35,18.85,42.46.95,2.1,1.52,4.47.22,6.76-9.76,14-24.67,17-40,17.48-27.69.89-55.41.05-83.06-1.52-15.39-.87-27.44-8.7-36.9-20.67-8.56-6.41-10.67-16.16-13.33-25.64-3.43-15.83-1.4-31.4,2.09-46.91,2.94-6.9,4.38-14.48,9.07-20.62A25.61,25.61,0,0,1,297.23,535Z"/><path class="cls-5" d="M731.41,264.59c2.67-9.76,4.1-19.9,9.93-28.64,8.95-13.4,20.27-18.36,36-15.18,8,1.61,15.93,3.36,23.89,5,15.49,6.82,25.12,18.06,26.69,35.38,2.43,5.48,4.77,11,3.81,17.21,0,1.53,0,3,0,4.57-.22,13.92,2.39,27.68,2,41.64-.25,10-1.36,19.62-4.94,28.94-3.79,9.56-8.37,18.64-15.78,26-13.56,13.52-29.69,9.82-36.1-8.33-.88-2.48-1.4-5.07-2.14-7.6-2.26-13,1.19-25.18,4.85-37.37,5.2-13.9,10.4-27.81,12.95-42.53,2-11.41,1.35-12.57-9.38-16.38a32,32,0,0,1-11.1-6.79c-2.13-2-4.11-4.13-6.42-5.91-4.13-3.2-9-5.08-13.87-3.31s-5.84,7.17-6,11.79c-.23,10.48-1.29,20.89-1.88,31.34-.73,13,4.33,24.43,12.32,34.58.83,3.48-1.25,5.26-3.88,6.75-9,3-17.43,7.38-26,11.34-3.68,1.69-7.63,4.67-12,1.09-1.31-3.54-.17-6.94,1-10.16a253.11,253.11,0,0,0,13-57.37C729.05,275.28,726.68,269.29,731.41,264.59Z"/><path class="cls-2" d="M324.2,150c-.33-2.42-2.74-1-4.08-1.69-2-1-3.54-2.35-2.84-4.74s2.64-2,4.3-1.29c2.19,1,5.09.62,5.54-.93,2.2-7.61,10.56-5.86,14.76-10.31,1.63-1.73,4.83-2.75,6.51-1.58,7.69,5.34,17.7.08,25.19,6,1.78,1.4,3.73,1.36,3.38-2.12-.6-6.06.15-6.83,5-4.38,2.91,1.49,4.47,1.36,7.66,0,9.21-3.85,18.14.46,26.94,3.16,1.35.41,2,2.12,1.69,3.7s-1.75,2.19-3.31,2.21a56.12,56.12,0,0,0-10.32.68,118.09,118.09,0,0,0,25.67,2.9c3.08,0,7.21-1.22,8.53,2.55s-2.94,5.22-5,7.5c-1.13,1.26-2.91,1.92-4.27,3-3.09,2.48-9.52,4-2.69,9.51.78.64.52,3.6-.24,4.93-5.28,9.38-6.34,20.37-10.71,29.7C413.1,204.8,405,210,396.53,210c-4.77,0-8.37.78-10.86,5.39-1.88,3.49-5.89,4.85-9.43,6-8.41,2.81-13.43,8.36-15.93,16.78-1.57,5.3-3.93,6.91-9.24,2.36-15.11-13-17-24.64-5.63-40.89.87-1.24,1.43-2.54.35-4.25-3.13-2.35-3.65,7.55-6.51,2.19-3-5.59,4-5.54,7.05-8.7-4-1.62-6.38-3.13-5.34-8.83,2.08-11.36-5.51-18.63-16.7-17.78-5.86.45-7-4.35-7.7-7.85C315.05,146.72,323.07,154.55,324.2,150Z"/><path class="cls-6" d="M1008.54,422.4c10.67,14,23.91,11.88,36.63,12,25.39.17,50.78.56,76.17.5,7.39,0,10.5,2.28,10.13,10.18-.73,15.45-.76,30.93-.74,46.4,0,6.34-2.39,8.79-8.84,8.7-36.77-.51-73.55-.63-110.32-1.14-12.43-.18-12.45-.52-12.31-12.93.16-14.59.37-29.18.53-43.77,0-3.27-.15-7.51,3.61-8C1009.8,433.54,1008.28,429.2,1008.54,422.4Z"/><path class="cls-7" d="M634.48,161c13.72.46,27.44,1.21,41.16,1.26,6.56,0,8.62,2.41,8.43,8.84-.49,17.24-.52,34.5-.52,51.76,0,5-.67,8.5-6.88,8.73-6.61.24-2.21,6-4.72,10-9.14-14.73-23.75-10-36.88-10.47-18.11-.68-36.25-1-54.37-1-7.79,0-9-3.89-8.75-10.52.58-18.4.64-36.81.91-55.22,2.07-4.53,6.24-3.7,9.91-3.69C600,160.76,617.24,160.91,634.48,161Z"/><path class="cls-8" d="M829.62,278.64q-.86-8.72-1.72-17.44c2.46,4,6.44,3.15,10.14,3.16l133.52.23c14.3,3.47,21.25,13.62,18.89,28.51-6.44,40.63-10.31,81.62-17.16,122.18a1.75,1.75,0,0,0,.53,1.6c0,1.17,1.33-.09.2.23-.37.11-.61-.16-.45-.74,3.79-13,10-24.31,22.66-30.83a14.81,14.81,0,0,1-1.54,9c-20.51,24.51-26.82,53.87-29.83,84.66-1.23,12.62-1.33,25.6-6.34,37.68a5.88,5.88,0,0,1-2.39,1.82c-4.67,1-9.31,1.87-13.45-1.58-2.1-9.72,1-19.09,2.39-28.46,6.37-44.1,12.4-88.24,18.93-132.32,2.22-15,3.88-30,6.32-45,3-18.21-7.08-30.25-25.56-30.34-34.48-.18-69,0-103.43-.1C837.33,280.9,833.05,281.78,829.62,278.64Z"/><path class="cls-9" d="M461.19,605l83.72-.14c3.15-2.61,6.93-2.46,10.68-2.42,1.09,0,2.18-.05,3.27-.11,17.08-.36,34.17-.14,51.25-.13,3.46,0,7-.1,10,2.19,1.39,3.82-2.21,4.88-4,6.85-3.52,4-5.73,8.22-3.4,13.5,2.26,5.12,6.62,7.07,12,7.2,3.21.08,6.42.09,9.63.09q108.06,0,216.11,0c4.66,0,9.34-.36,14,.67,1.63.54,3.1,1.25,3.52,3.14-3.78.17-7.57.49-11.35.49q-184,0-368.07-.1c-4,0-8.25-1-11.81,1.91-6.71-8.65-10.51-18.91-15.72-28.38C460.21,608.36,459.73,606.54,461.19,605Z"/><path class="cls-10" d="M461.19,605c4.74,11.25,12.18,21.25,15.53,33.16-.17.65-.33,1.3-.49,2l-.86.87a30.11,30.11,0,0,1-8.08,2.52l-1.22-.12c-5.95,2.32-12.19,5.89-15.37-3.6Q440,615.46,429.39,591.12c-.57-1.3-.68-2.89-2.6-3-16.1-1-32.34-3.92-48.06,2.09-8.44,3.22-15.05-2.68-22.2-4.54-2.84-.74-.51-9.6-1.26-14.71,7.8-4.27,16.26-7,24.45-10.31,8.49-.31,17-1.5,25.37.86.59,5.4,4.21,6.11,8.76,6,6.36-.16,12.73-.22,19.08.15,3.78.22,7.52.82,10.19,4Z"/><path class="cls-11" d="M576.62,373.12c-7.87-5.19-15.21-10.79-25-12.94-10.32-2.26-18.76-8.76-24.14-18.39.27-3.65-1.27-7.6,1.73-10.82,5.8-1.29,8.78,3.7,13.07,5.81,3.27,1.61,6.18,4.19,10.77,4.23l-3.16-9.51c7,3.44,11.55,7.39,15,12.85s8.26,9.75,15.15,10.73c3.59-2,6.88-.12,10.25.77a38.79,38.79,0,0,0,3.83,1.07c15,3.24,29.26,9.1,44,13.42,4.65,1.36,9.3,3.33,12.5,7.41,1.54,5.76-1.91,10.5-3.3,15.65-1.19,4.39-3.29,8.61-1.7,13.34-2.2,5-5.61,2.55-8.68,1.3-14.39-5.88-27.61-14-41.3-21.28-2.07-1.09-4-2.5-6.43-2.46-1.75-.92-2.38-2.92-3.91-4.06C582.27,378,578.28,377,576.62,373.12Z"/><path class="cls-12" d="M996.23,385.54c-10,9.78-17.54,21.29-25.26,33.29,2.16-16.25,4.25-32.5,6.48-48.74,3.75-27.24,8.16-54.4,11.12-81.72,1.27-11.7-7-18.94-17-23.78l2.61-.25c28.46-3,38.37,10.6,33.48,38.35C1002.81,330.13,1000,357.91,996.23,385.54Z"/><path class="cls-13" d="M193.93,629.63c-6.73,3.34-10.31,1.67-11.86-6.12-2.59-13-6.54-25.84-8.86-38.93-1.11-6.31-3.37-8.41-9.49-7.66-3.71.45-7.52-.06-11.29-.14a14,14,0,0,1-4.86-2.34c-4.75-1.55-7.21-4.72-6.31-9.76,1.27-7,1.4-14.29,4.45-20.94a5.31,5.31,0,0,1,2.89-1.81c12.5-2.67,38.68,9.31,44.32,20.78a378.44,378.44,0,0,1,17.09,41c.05,7.16,2,14.88-5.91,19.66-8.42-3.92-8.77-12.49-11.67-18.95,1.7,6.63,4.22,13.92,3.5,21.68A5.49,5.49,0,0,1,193.93,629.63Z"/><path class="cls-14" d="M576.62,373.12l10.38,6c2.65,8.18-.3,16.16-1.34,24.08-4.57,34.6-10,69.09-14.83,103.67-4.19,30.26-8.59,60.49-12.88,90.74-.37,2.63-.56,5.22-2.47,7.29l-10.57-.07c2.65-19.29,5.33-38.58,7.91-57.87.54-4,.74-8.11,1.1-12.17,4.32-14.52,4.26-29.7,6.6-44.53,4.45-28.34,7.76-56.86,11.6-85.3C573.55,394.37,575.12,383.75,576.62,373.12Z"/><path class="cls-12" d="M957.23,516.75c3.54-24.68,6.15-49.55,10.92-74a98.57,98.57,0,0,1,25.07-48.87c.12-.13,1,.41,1.47.64q-7.71,57.71-15.4,115.41c-.31,2.31-.56,4.63-.83,6.94C971.36,521.34,964.28,521.57,957.23,516.75Z"/><path class="cls-15" d="M109.75,541.79C116.46,521.31,123,500.8,139,485c6.57-6.49,14.81-8.82,23.34-10.94,3.4-.84,5,1.12,6.29,3.37,2.2,3.77,4.08,7.72,6.09,11.6,2.07,3.72.32,6-2.86,7.84-3.87.39-5.41-2.85-7.67-5-2.45-2.29-5.16-4.27-8.54-2.33-3.79,2.18-3.3,5.81-2.21,9.29a30,30,0,0,0,5.19,10c4,4.86,3.61,9.68.26,14.41-5.3,7.48-8.87,16.55-18.25,20.43C130.26,543.89,119.74,546.87,109.75,541.79Z"/><path class="cls-16" d="M957.23,516.75l21.23.13c11.39.09,22.79.55,34.15.13,8.61-.32,11.94,3.78,11.29,11.57-.79,9.38,2.78,19.3-3.24,28.07-.78,2.34-2.79,3-4.84,3.05-18.9.07-37.82,1.52-56.69-.79-1.32-.79-2.24-1.92-2-3.52,2.31-12.63,1-25.29.36-37.95Z"/><path class="cls-15" d="M378.34,562.54c-6.94,4.87-14.43,8.21-23.07,8.41-4.44-14.59-9.94-28.5-23.91-36.92-3.22-1.94-1.32-6.21-3.92-8.42-.3-10.12.29-20.09,4.38-29.59,5.54-12.91,8.29-14.07,20.57-8.5a35,35,0,0,0,4.93,1.44l1.6.2c7.76,4.11,8.72,11,7.77,18.76-2.74,2.2-4.22-.22-5.77-1.74-1.87-1.82-3.37-4-5.33-5.78-3.21-2.88-6.81-5.29-10.85-2-3.62,2.94-2.53,7-.55,10.37,7.65,13.17,16.28,25.56,28.69,34.85C379.68,548.69,381.18,554.2,378.34,562.54Z"/><path class="cls-17" d="M495.55,477.09c3.2,11.56,2.87,23.15.21,34.74-6.7,0-13.41.22-20.09-.13-5.1-.27-9.14.94-12.55,7.87-.42-8.12-4.6-8-9.32-7.86-11.68.24-11.69,0-11.69-11.8,0-5,.23-9.91,0-14.85-.3-5.88,1.83-8.24,8.06-8.08C465.27,477.35,480.41,477.09,495.55,477.09Z"/><path class="cls-18" d="M96,575.07c-2.68-1.39-4.91-3.14-5.4-6.4C85,531.3,75.62,494.35,78.37,456.06c.32-4.5,1.12-8.27,6.4-8.77,5-.47,8.68,1.17,9,6.95a37.65,37.65,0,0,1,0,4.38c-2.3,33.8,4.18,66.71,10,99.69.9,5.12,2.21,10.39-1.2,15.23C100.62,575.2,98.52,576.1,96,575.07Z"/><path class="cls-2" d="M281.68,561.52c-2.62,16.21-5.27,32.42-1.92,48.86-4.09,6.65-.6,13.72-1.17,20.57-7.88-4.34-17.52-9.44-18.25-18-.62-7.22-7.95-14.48-1.67-22.46,1.27-1.62.19-5.09.19-7.7-2.94-.52-.92,4.45-3.84,3.35-2.06-.77-1.22-3-1.34-4.63-.71-10.13.6-20.26-1.07-30.47-1.06-6.5-3.57-8.32-9.55-7.65a93.87,93.87,0,0,1-10.48.07,2,2,0,0,1,.85-2.78c13.95-2.93,27.93-2.22,41.93-.39C281.61,546.15,281.62,553.85,281.68,561.52Z"/><path class="cls-19" d="M868,635.87l-1.46-1.31c-5.17-5.91-2.42-13.07-3-19.69a40.39,40.39,0,0,1,.23-9.38c.46-7.78,5.38-10.94,12.41-11.64a90.26,90.26,0,0,1,17.16.06,17.16,17.16,0,0,1,3.11.46c7.86,2.16,15.89.7,23.82,1.12,3.12.16,6.29-.24,9.3.9,1.38.69,2.51,1.8,2.21,3.35-2.39,12.24.61,24.55-.63,36.8C910,637.17,889,637.94,868,635.87Z"/><path class="cls-2" d="M277.55,160.13c-1.67,5.17-6,7.06-3.8,12.12,2.81-7.45,9.41-6.28,14.85-7.12,3-.46,4.49,3,6.26,5.16-3,2.4-6,.09-8.87,1.64,8.78-.82,12.06,8.71,20.24,9.95,3.32.5,6.63,5.27,3.08,10.63-2.83,4.28.09,7.81,3.76,10.1,2,1.22,6.34.21,4.94,4.15-1,2.77-3.68,5.34-6.25,7s-3.8-1.54-5.23-3.14c-.79-.89-1.4-1.82-2.79-1.29a2.75,2.75,0,0,0,.09,3.95c6,5.08,4.39,9.73-1.15,13.35-5.86,3.82-10.08-.84-12.89-4.75-3.1-4.31-4.81-9.27-11.52-8.67a2.93,2.93,0,0,1-2.87-3.65,3.4,3.4,0,0,1,4.73-2.62c3.93,1.68,6.84.12,9.48-2.34,4.74-4.4,3.88-9.12-.94-13.46-6.61-5.94-13.22-10.67-22.69-11.29-6-.39-3.52-6.5-3.34-10,.22-4.07-.14-6-4.75-5.56-2.35.22-6.25.86-5.5-3.28.66-3.66,3.33-5.89,7.79-4.8C265.74,157.64,270,163,277.55,160.13Z"/><path class="cls-17" d="M316.45,445.43c.16,9.63.25,19.26.53,28.89.12,4.24-1.93,5.63-5.87,5.57-7-.11-14.53-1.62-20.91.41-7.92,2.52-14.89-1-22.27-.4-3.95.32-6.2-1.12-5.82-5.42,0-.29,0-.59,0-.88.44-9-3.58-20.35,1.58-26.36,5-5.8,16.5-1.44,25.13-1.91,7.57-.4,15.17-.26,22.76-.36Z"/><path class="cls-20" d="M1031.76,318.59c-3.21-5.49-9.66-7.39-14.68-13.5l81.34-7.24c-13.09,14.29-24.87,27.1-36.56,40-2.36,2.6-3.79,1.22-5.67-.6-3.52-3.41-6-8-10.94-9.84-5.91-5.19-5.89-7.2.83-10.15,8.42-3.71,17.36-6.06,26-9.36-8.35,2.93-16.69,5.91-25.12,8.63C1042,318.08,1037.15,320.4,1031.76,318.59Z"/><path class="cls-21" d="M286,141c-.91-3.88-2.87-4.41-5.46-4.74-6.62-.85-6.56-1-6.83-8.34a2.4,2.4,0,0,0-1.34-1.79c-2.21-.61-5.15-.5-4.27-4,.73-2.93,3.62-3.71,6-4.59,2.63-1,4.17.76,5.75,2.78,3.85,4.89,5.56,11.35,11.4,16.21.37-3.52-2.11-6,1.16-8.8,1.79-1.52-1.28-5.49-5.33-5.75-1.78-.12-3.47-1.58-2.65-3.64.57-1.44,2.43-1.17,3.92-1.11,17.2.74,34.48,1,50,10.23,0,.08,0,.91-.25,1.06-4.23,2.11-10.91-1.49-13.06,6.11-.42,1.49-4.57,2.11-7.09,2.8a52.19,52.19,0,0,0-20.91,12c-2.49,2.49-19.41-1-21.22-4.3-.9-1.65-.36-2.55,1.27-3.36A12.56,12.56,0,0,1,286,141Z"/><path class="cls-22" d="M957.18,557.29c21.16,0,42.34,1.13,63.48-.64,10.62-.1,21.24-.24,31.85-.26,1.85,0,4.79-.67,4.92,2,.16,3.54-3.37,2-5.27,2.71-3.84,2.6-8.19,2.61-12.59,2.61-23,0-46,.11-69-.11-6.14-.05-10.24,1.48-11.14,8.06-.73,24.86-.51,21.11,20.91,21.22,23.65.12,47.3,0,70.94.1,2.12,0,5.82-1.17,5.93,1.74.15,3.75-3.79,2.39-6.07,2.5-6.12.28-12.25.26-18.37.36-8.87,2.19-17.9,1-26.84,1-15.91-.12-31.86,1.12-47.74-.76a8.83,8.83,0,0,1-4.12-3.15c-4.64-6.55-3.62-29.89,1.57-36.74Z"/><path class="cls-23" d="M344.82,369.81c-2.91-4.67-6.21-9.15-8.62-14.06-3.54-7.19-3-14.41,3.34-19.79,6.13-5.18,13.2-5.91,20.07-1s8,12.06,5.47,19.44c-1.86,5.41-5.14,10.34-7.79,15.49C353.13,372.2,349,374.45,344.82,369.81Z"/><path class="cls-24" d="M232.39,542a3.06,3.06,0,0,0,.19,1.47c-6.38,22.41-12.6,44.86-19.28,67.17-1.25,4.16,3.43,7.77.1,11.61-.77,3.62-3.12,6.31-5.35,9.08a10.89,10.89,0,0,0,.1,1.72c.59,2.71,6.66,1.86,4.46,5.77-1.46,2.59-5.24,1.38-8.06,1.35a10.65,10.65,0,0,1-3.05-6.83c-.12-3.72-2.05-7.67,1.35-11,7.49-4.89,4.35-12.64,5.19-19.31.07-20.4,3.34-40.37,8-60.17C221.26,538.49,226.68,537.7,232.39,542Z"/><path class="cls-25" d="M348.44,477c-9.42-2.82-20.46-17.61-21-28.21,1.32-1.53,3.55-2.92,3.81-4.61,1.9-12.38,14.15-11.87,21.49-17.31,3.42-2.53,6.23,1.4,8.2,4.28s1.79,6,1.2,9.23c-1.7,1.7-3.92,2.36-6.13,3a10.4,10.4,0,0,0-4.57,2.34c-4,4,3.35,8.34.48,10.89-3.6,3.19-4.56,4.75-1.15,8.6,3.2,3.61,5,8-.58,11.59l-.87-.09Z"/><path class="cls-26" d="M109.75,541.79l33.35-.07c2-1.16,3.48-1.12,3.55,1.74-.79,6-.9,12.27-2.56,18.07-1.84,6.41-1,10.38,6,11.65-8.08,10.63-19.24,12.51-31.59,11.33-8.38-.79-10.39-3.49-9-12.68-5.19-7.94-2.43-17.35-4.71-25.85C103.82,542,107.25,542.2,109.75,541.79Z"/><path class="cls-2" d="M365.94,508.67c-.63-7.12-2.35-13.85-7-19.51,4.69-2.47,6.3,1.71,8.13,4.23,6,8.2,12.51,16.11,16.45,25.58s12.39,14,19.91,19.56c6.5,4.84,13.34,9.25,18.84,15.31-.72,3-2.66,4.44-5.73,4.42C405,552.73,393.26,547,383.61,539,374.63,531.45,367.66,521.19,365.94,508.67Z"/><path class="cls-27" d="M931.07,636.54c-2.94-12.83-4.44-25.65.09-38.46,5.67-4.58,12.51-3.13,18.54-2.38,21.28,2.62,42.58.68,63.85,1.37,5.7.18,11.45-.43,19.12.73-6.38,3.81-11.52,4.35-16.82,4.35-21.92,0-43.83,0-65.75,0-3.49,0-7-.38-10.3,1.33-3.87,1.35-6.38,3.79-6.1,8.19.37,5.92-1,11.92.79,17.78,2,4.61,6.12,3.71,9.79,3.71,26.55.05,53.09,0,79.63.11,2.68,0,5.78-1.33,9.72,3.25Z"/><path class="cls-28" d="M350.15,476.81c4.39-4.93,1.5-8.23-2.36-11.58-2.07-1.8-4.83-3.59-3.19-7.22,1.72-3.8,4.71-1.31,7.51-1.16-1.77-3.75-7.32-5.42-4.54-10.54,3.23-5.94,9.25-5.06,14.54-6,2.82,6.62,5.71,13.21,8.44,19.87,2.24,5.45,1.36,9.74-5.12,11.12-3.25.69-5.71,1.74-7.44,5C356,480,352.94,479.3,350.15,476.81Z"/><path class="cls-29" d="M171.08,496.23a9.86,9.86,0,0,0,3.61-7.16c4.09-2.91,5.59.56,7.3,3.08,4.85,7.14,9.91,14.17,14.25,21.61,2.65,4.56,6.16,5.15,10.8,5.27,10.35.28,20.85-1.63,31,1.79,0,3.73-3.1,4.42-5.66,5.09-3.35.87-4.7,3.77-7,5.75a2.8,2.8,0,0,1-2.52-.69c-2.49-4.15-6.72-5.06-10.71-4.21-20.56,4.38-32.09-6.13-39.86-23.35C171.29,501.08,169.18,499,171.08,496.23Z"/><path class="cls-30" d="M175.68,475c-11.05-3.61-13.77-14.23-16.11-23-1.54-5.78,5.26-12.57,10.62-16.42,3.27-2.36,8.5-2.52,12.78-4.49,4.58-2.13,7.83,3.68,7.2,12.46-4,3.3-12.55,2.05-11.16,10.91a5,5,0,0,1-.83,2.26c-3.67,3.38-1,6,.92,8.88C182.18,470.18,181.45,473.53,175.68,475Z"/><path class="cls-31" d="M134.18,619c3.11-1.25,6.13-5.86,9-3.71,5,3.73,9,8.91,13,13.82,1.09,1.34-.38,3.31-2.17,4.08-2.27,1-3.88,0-5.2-1.9-5.32-7.66-13.2-3.54-19.45-2.92-3.94.38-11.5,1.64-10.85,9.71.23,2.82-1.72,4.35-4.56,3.74-3-.64-3.15-2.84-2.54-5.45.72-3.09,1.5-6,5.3-7.61-4.31-1.56-7.49-2.56-9,2.88-.6,2.26-3.19,2.53-5.15,1.31-2.52-1.55-2.5-3.94-.62-5.9,2.29-2.39,4.26-5.18,8.59-4.59s8.74,0,13.12,0C126.42,618.79,130.88,620.64,134.18,619Z"/><path class="cls-32" d="M934.49,629.47c-2-9.5-3.46-19,1.93-27.94,3.57-1.92,7.42-.88,11.12-.89q34.92-.18,69.84,0c2.82,0,5.83-.88,8.48,1-1.64,4.69-5.19,5.28-9.67,5.24-23.25-.19-46.5-.11-69.75-.1-11.76,0-11.75,0-11.8,11.43C934.62,621.92,934.54,625.7,934.49,629.47Z"/><path class="cls-33" d="M134.18,619a14.52,14.52,0,0,1-10.43,3.43c.13-7.85.09-15.7.45-23.53.21-4.69-1.14-7.3-6.28-6.68a6.32,6.32,0,0,1-.87,0c-17-.61-17-.61-21.09-17.11l6.6-1.53a10.57,10.57,0,0,0,.53,1.62c2.57,7.41,8,9.2,15.39,9,4.33-.14,9.87-2.79,13.08,3-.11,8.93-.24,17.86-.34,26.78C131.2,616.12,130.75,618.68,134.18,619Z"/><path class="cls-34" d="M959.45,571.64c-1-7.34,1.78-10.88,9.57-10.81,27.71.23,55.43.19,83.14.25-2.21,4.64-6.08,5.46-10.87,5.42-23.65-.18-47.3,0-70.95-.17C965.56,566.29,961.74,567.12,959.45,571.64Z"/><path class="cls-35" d="M476.23,640.12c5.71,2.49,12,1.85,17.89,3.06,1.65.34,3.94.11,3.91,2.45s-2.37,2.15-4,2.54c-2,.47-4,.73-6,1.12a5.2,5.2,0,0,0-2.47.7c-8.32,7.74-8.3,7.76-21,8-1.75,0-3.49,0-5.23,0-2.66-.14-5.42-.16-5.3-4.06.13-4.09,2.56-3.27,5.36-3.09,4.95.33,6.19-3.33,6.65-7.39l-.11.2c3.72-.48,7.39-1.15,10.51-3.48Z"/><path class="cls-36" d="M1025.86,601.57l-89.45,0c2.54-3,6-1.72,9-1.73,25.09-.1,50.19-.06,75.29-.06h8.55v-1.67H931.16c-11.74-1.12-23.66,1.54-35.31-1.58,2.24-2.9,5.54-3,8.71-3,14.54-.24,29.08-.18,43.62-.05a17.57,17.57,0,0,1,9.08,2.72c22.08.06,44.16.09,66.24.23,3.11,0,6.43-1,9.29,1.21C1032.6,602.56,1028.55,600.89,1025.86,601.57Z"/><path class="cls-37" d="M443.12,571.65C429,568,414,572,399.89,567.75c.06-4.94,5.36-1.69,6.33-4.73,1.43-1.84,3.45-2,5.55-2,8.74,1.7,17.92,1.13,26.25,5,4.65,1.72,6-1.15,7.38-4.84,3.76-10.39,7.82-20.67,11.71-31,.79-2.1,1.26-4.37,5-4.6C456.17,541.13,454,558.06,443.12,571.65Z"/><path class="cls-38" d="M228.62,137.43c3.23-.93,2-6.75,5.86-5.36,1.88.69,3.11,3.93,4.06,6.25,1.51,3.69-1.4,6.35-4,6-7.72-1-15.48-2.64-21.05-9-3.09-3.52,2.78-3.61,2.26-6.69-2.85.17-5.81.51-8.75.46a3.36,3.36,0,0,1-3.57-3.13,3.06,3.06,0,0,1,3.24-3.36c4.88.29,13.21-4.91,13.85.91C221.28,130.62,227,132.3,228.62,137.43Z"/><path class="cls-39" d="M131.56,587.08c-5.88-2.65-12.19-1.49-18-.85-9.38,1-11.21-3.4-10.43-11.08,2-1.35,3.68-3.48,6.5-3.32.51,8.92,5.66,11.29,13.78,10.21,4-.53,8.06-.09,12.1-.1,2.42,0,5.22-.32,5.36-3.14.36-6.85,5.14-5.55,9.31-5.62.76,1.2,1.52,2.4,2.29,3.6.5,7.18-3,9.72-9.91,9.14C138.89,585.62,135,585,131.56,587.08Z"/><path class="cls-21" d="M255.89,151.22c1.76-4,5.36-1.45,7.17-3.59,0-.44.21-1.13,0-1.49-1.5-2.14-6.23-4.2-3-6.71,4-3.16,9.09,1.82,9.64,4.21,2,8.43,7.16,9.23,14.08,8.57,3.77-.36,8,1.13,7.42,5.15-.57,3.86-5.07,4.14-8.64,3C273.66,157.4,264.86,154.3,255.89,151.22Z"/><path class="cls-21" d="M505.55,147.06c2.88-.35,5.68.63,6.29,3.36.56,2.54-2.7,4.05-4.39,4.44-6.48,1.49-11.55,4.16-14.23,10.7-.81,2-3,3.14-4.26-.19-.4-1.06-.4-2.87-1.09-3.16-17.87-7.56-1-6.87,2.15-9.94C494.49,147.93,500.08,147.9,505.55,147.06Z"/><path class="cls-21" d="M414.53,232.92c-4.76-.25-8.79-2-11-6.11-1.17-2.14-5.09-4.05-2-7.43,2.39-2.63,4.69-2.81,7.34,0,1.61,1.7,3.18-1.16,4.54-1,3.46.47,7.28-2.53,10.44,1.25,2,2.44,1.75,4.57.47,7.17C422.21,231,418.66,232.42,414.53,232.92Z"/><path class="cls-40" d="M500.89,311.48c-.93.66-2,2-2.78,1.85-6.38-1.4-12.38-17.52-8.41-22.61,3.2-4.13,7.57-5.57,12.32-3.14s7.33,6.6,5.11,12.23c-1.16,2.95-2.68,5.75-4,8.61Z"/><path class="cls-41" d="M520.37,243.3c6.38-1,12.43-1,14.71,6.77,1.1,3.75-5.46,17.78-8.68,19.13-1.87.78-2.63-.51-3.43-1.65-4-5.68-8.43-11.19-7.63-18.81Z"/><path class="cls-2" d="M212.53,144.53c-7.37,1.5-14.3,2.92-19.35,8.68-1.44,1.64-4.44,3.51-6.8.55a5.33,5.33,0,0,1,.22-7.18c2.61-3.07,5.59-5.72,6.21-10.13.28-2,3.35-2.48,4.28-1.66C201.55,138.74,209.11,137.64,212.53,144.53Z"/><path class="cls-42" d="M178.61,455.31c-4.24-8.8-1.62-11.48,11.56-11.79,2.66,5,5.36,9.91,6.7,15.44C190.18,466.74,186,465.91,178.61,455.31Z"/><path class="cls-43" d="M1031.76,318.59l41.47-11.83.45,1.32c-8.52,3.42-17,7-25.59,10.2-5.2,1.94-6.85,4.51-2.84,9.1-1.68.37-3.36.77-5,1.09-3.56.68-8.2,3.08-10.48.5C1027.29,326.22,1030.73,322.09,1031.76,318.59Z"/><path class="cls-44" d="M438,566c-9,1.22-17.6-1.21-26.23-3.21-1-4.2,1.52-5.28,4.95-5.52,2.53,0,3.6-2.42,5.51-3.45C430.85,553.57,436.75,556.79,438,566Z"/><path class="cls-45" d="M178.61,455.31c.76.37,1.82.52,2.23,1.12,4.48,6.56,9.65,8.29,16,2.53,4.33,12.62,4.19,12.86-8.74,14.7-7.16-3.58-10.59-9.64-10.06-17.79Z"/><path class="cls-46" d="M225.08,531.18c0-4.1.91-7.32,6.13-7.2,2.63.06,4.88-1.41,6.85-3.16,4.82.94,9.46,2.21,12.27,6.78.45,1.13.9,2.26,1.34,3.39C242.84,535.28,234,535,225.08,531.18Z"/><path class="cls-38" d="M758.56,108.13c3.43.36,6.19-.6,7.22,2.38,1.25,3.64-1.71,3-3.72,3.91s-2.94,3.51-4.63,5.08-2.06,5.86-5.72,3.14c-2.43-1.82-6.1-2.55-6.52-6.5-.48-4.52,3.33-3.71,5.7-4.94C753.74,109.72,756.31,107.71,758.56,108.13Z"/><path class="cls-47" d="M278.59,631c-3.33-7.07-6.44-14.13,1.17-20.57,2.3,8.84,6.45,16.85,11,24.7C285.8,636.3,282.32,633.25,278.59,631Z"/><path class="cls-48" d="M315.4,334.2c-10,28.52-1.59,43.86,19.51,57-6.79.08-16.06-6.91-20.71-16.23C307.32,361.23,306.41,347.47,315.4,334.2Z"/><path class="cls-49" d="M322.05,334.61c16-20.73,46.23-19.86,58.37,1.69a1.26,1.26,0,0,1-2.05.11c-17.14-19.09-37.56-19.11-54.7-.06C322.15,336.69,321.23,336.46,322.05,334.61Z"/><path class="cls-50" d="M202.64,633.39c2,1.89,2,4.33,1.91,6.82-5.51,0-11,0-16.54-.13-2.56-.07-4.66-1.15-4.11-4.27.39-2.21,1.39-3.56,4.21-2.74s5.18-.1,5.82-3.44c.07-1.29.15-2.59.22-3.88C198.23,626.91,200.1,630.52,202.64,633.39Z"/><path class="cls-51" d="M178.07,455.87c2.58,6.37,4.47,13.13,10.07,17.79-4.16.38-7,13-12.45,1.34,5.95-3.61,3.68-7,0-10.75S170.84,456.81,178.07,455.87Z"/><path class="cls-52" d="M208.05,631.37c-.61-4.45,2.53-6.67,5.35-9.08,4.73,1.32,9.47,2.57,14.16,4,1.56.47,3.67.92,3.19,3.22-.37,1.79-2.22,1.54-3.59,1.57C220.79,631.21,214.42,631.27,208.05,631.37Z"/><path class="cls-53" d="M385.2,333c-5.45-3.39-8.83-9.18-14.87-12.07-8.92-4.28-17.71-7.58-27.71-4-1.5.54-3.34.08-6,.08,16.21-9.17,44.12,1.39,48.71,15.91Z"/><path class="cls-54" d="M323.67,373.3c12.85,16.17,28.83,17.34,48.05,8.17-11.59,12.69-42.85,9.6-50-8.1A1.2,1.2,0,0,1,323.67,373.3Z"/><path class="cls-55" d="M344.82,369.81c4.15,1.78,8.32-.89,12.47,0-.08,1.74-.13,3.48-.25,5.22-.24,3.61-1.82,6.25-5.7,6.46s-4.58-2.87-5.24-5.78C345.65,373.77,345.24,371.79,344.82,369.81Z"/><path class="cls-56" d="M323.67,373.3l-2,.07c-9-8.43-8.34-29.17.36-38.75l1.62,1.74C316.24,348.67,316.28,361,323.67,373.3Z"/><path class="cls-57" d="M378.37,336.41l2.05-.1c8.6,10.17,7.41,21.05,2.32,32.23C384,357.44,385.45,346.34,378.37,336.41Z"/><path class="cls-58" d="M385.32,332.87c7.88,8.51,9.9,24.84,3.9,35.52,3.53-12.43.52-24-4-35.42Z"/><path class="cls-38" d="M768.56,110.26c1.71-3.15,5.4-2.1,8-3.29,1.75-.78,3.47.42,3.16,2.64-.45,3.2-2.92,3.89-5.68,3.9C771.74,113.51,769.48,113.31,768.56,110.26Z"/><path class="cls-2" d="M483.52,308.32c.55,3.39,1.21,6.77,1.6,10.18.22,1.83-.33,3.57-2.69,3.49a2.26,2.26,0,0,1-2.19-3c1.41-3.46-1.89-8.41,3.32-10.61Z"/><path class="cls-2" d="M765.25,122.49c1.49.12,3.4.82,3,2.16-.4,1.19-2.41,2.07-3.89,2.59s-3-.13-2.78-2S763.37,122.58,765.25,122.49Z"/><path class="cls-59" d="M232.39,542c-5.07.06-10.27-1.39-15.12,1.28-7.4,2-14.9,1.43-22.37.66-3.05-.32-5.65-1.79-5.82-5.36-.18-4,2.49-5.69,5.94-6.12,7.77-1,15.57-.69,23.37-.3,11.76,1.51,23.58.44,35.37.83,3.36.11,7-.94,10,1.63l33.51.32-6.78,6.95c-4.79,2.75-9.62,3.26-14.49.21Z"/><path class="cls-60" d="M263.72,534.66l-45.91-.22c-.06-4.64,2.35-5.05,5.93-3.46a2.08,2.08,0,0,0,1.34.2l26.6-.19c7.13,1.76,10.77-.52,12.84-8.14,3.05-11.29,5.79-22.83,12.4-33C274.17,505.25,270.37,520.35,263.72,534.66Z"/><path class="cls-61" d="M264.7,422.1c0,5.91-7,17.95-9.73,18s-10.12-12-10-16.56c.18-6.21,3.57-9.9,9.8-9.9S264.42,417,264.7,422.1Z"/><path class="cls-62" d="M244.75,286.9c-.4,5.12-8,17.34-10.28,17.08-2.68-.3-10.3-13.79-9.7-17.85.88-5.95,4.41-9.72,10.66-9.12C241.43,277.59,244.61,281.47,244.75,286.9Z"/><path class="cls-8" d="M590.32,357.31,580,355.08c1.4-24.68,5.12-49.08,9.3-73.4,1.89-11,10.39-17.16,22.06-17.18,40-.07,80,.05,120,.1q-.49,8.72-1,17.44a3.7,3.7,0,0,1-3-.13c-3.09-1.18-6.33-1-9.53-1q-45.09,0-90.19,0c-17.76,0-24.94,6.62-28,24.41-2.54,14.92-3.64,30-6.66,44.89C592.58,352.81,592.78,355.56,590.32,357.31Z"/><path class="cls-63" d="M543.19,294.7c2,3.84.78,10.51,9.36,6.5,2.69-1.25,10.8,3,13.67,7.85,2.49,4.22-2.36,5.19-4.73,4.34-7.21-2.59-13.75-4.51-21.35-.21-3.24,1.84-6.33-3.22-5.16-5.91C536.9,302.84,537.3,296.83,543.19,294.7Z"/><path class="cls-64" d="M535.57,502c-2.13,6.13-4.5,12.5-10.28,16.33-1.85,1.22-10.43-13-10-17.24.64-6,4.25-9.85,10.32-9.54C531.52,491.89,535,495.68,535.57,502Z"/><path class="cls-62" d="M464.78,346.25c-.11,4.79-7.46,17.48-9.8,17.56-2.49.09-10.36-13.23-10-17.47.47-6.22,4.31-9.66,10.28-9.57C461.38,336.85,464.5,340.81,464.78,346.25Z"/><path class="cls-65" d="M1041.76,173.61c-.76,6.49,1,14.64-1.88,22.67-2.83,7.83-8.66,7.36-14.94,6.88-7-.54-6.17-5.81-6.19-10.36,0-9.91.09-19.82.24-29.73.07-4.41.52-9.07,3.81-12.17a14.17,14.17,0,0,1,14.6-3.28c4.82,1.64,4.32,6.36,4.35,10.44C1041.79,162.72,1041.76,167.38,1041.76,173.61Z"/><path class="cls-66" d="M920,147.7c1.61,6.17.35,11.92.54,17.59.16,4.66-.93,9.68,6.59,9.49,7.14-.19,7.83-4.45,7.48-10-.28-4.63.38-9.32-1.16-13.88-.55-1.64-.58-3.51,2.91-4.93,4.77,19.63-1.34,38.57-1.37,57.61-3.15-6-2.1-12.26-1.93-18.39.12-4.63-.87-7-6.2-6.87-5,.13-6.65,2.08-6.45,6.87.23,5.24,0,10.5-.31,15.74a3.38,3.38,0,0,1-2,2.48c-1.21.29-2.27-1-2.13-2.18,2.13-17.14-.06-34.41,1.68-51.55C917.73,149.12,918.84,148.65,920,147.7Z"/><path class="cls-65" d="M964.35,146.55c-4.42,4.38-11.27-.39-13.21,4.32-1.78,4.29-.42,9.78-1,14.67-.83,6.5,2.39,8.74,10,7.51-4.11,5.13-11.59,2.46-11.31,9.33.28,6.69-3.24,15.71,9.51,14,1.56-.21,4.24,1.15,2.53,3-3.09,3.41-7.69,1.24-11.62,1.68-2.86.32-4.32-1.41-4.22-4.25q.91-24,1.89-48c.09-2.44,1.41-3.86,3.85-3.76C955,145.23,959.4,144.13,964.35,146.55Z"/><path class="cls-67" d="M978.57,155.16c-2.22,12.2-1.57,24.44-1.91,36.64-.15,5.27.81,8.54,7,7.75,1.53-.19,4-.52,4.16,1.88.16,2.66-2.27,2.87-4.3,3.21-10.58,1.8-13.62-.88-11.72-11.23,2.34-12.73,1-25.55,1.61-38.3.17-3.2-1.8-9,1.94-9C980.89,146.06,977,152.11,978.57,155.16Z"/><path class="cls-68" d="M1000.82,146c0,10.17.44,20.38-.19,30.51-.31,4.93-.57,9.88-1,14.81-.44,5.56.62,9.22,7.39,8.24,1.63-.24,4-.13,3.8,2.32-.15,2-2.17,2.36-4,2.7-9.83,1.87-12.16-.69-11.19-10.53,1.29-13.05,2.55-26.13,2-39.29C997.55,151.8,996.77,148.54,1000.82,146Z"/><path class="cls-69" d="M1053.68,166.73c0,4.63.06,9.27,0,13.9,0,1.73-.4,3.78-2.6,3.72-1.56,0-2.22-1.76-2.23-3.28,0-9.26,0-18.53.12-27.79,0-1.8,1-3.68,3-3.6,2.41.1,2,2.37,2.06,4,0,4.34,0,8.69,0,13Z"/><path class="cls-70" d="M276,542.14l14.49-.21q-4.4,9.8-8.77,19.59Q278.81,551.83,276,542.14Z"/><path class="cls-71" d="M645.06,406.81c-3.74-.41-3.83-2.5-2.76-5.48,2.74-7.57,5.31-15.2,8-22.8.82-2.87,3.27-3.92,5.66-5q26.65-11.82,53.38-23.47a11.86,11.86,0,0,1,6.74-1.25c13.08-3.55,23.92-12.63,37.44-15.12,2.86,8.33,1.68,17.08,2.56,25.61.61,6-.31,12.18.6,19.12,4.82-1.74,7-5.7,10.22-8.27,3-2.41,5-6.76,10-5.84,3.12,9.47,5.95,19.64,17.82,21.28,12.33,1.7,17.94-7.84,23.6-16.29,3.21-4.8,5.51-10.22,8.22-15.36C837.45,357.2,844,366.18,851,374c13.05,14.5,24.37,30.44,35.49,46.46,2.11,3,6.07,6.44,1.14,10.51a95.55,95.55,0,0,1-32.76,4c-7-1.61-10-8.37-16.43-13.12-6.75,25-11.53,49.54-17.93,73.63-1.36,3.15-1.69,6.7-3.89,9.56-1.8,2.33-8,4-1.06,8.05,1.74,1-.6,4.16-2,6a40.1,40.1,0,0,1-3,3.16c-8.28,8.61-8.27,8.6,2.53,13.72.48.22.68.86.83,1.45-2.84,6.8-9.08,9.74-15.09,12.39-25.9,11.42-50.43,8.45-73.34-8a24.51,24.51,0,0,1-8.11-9c-1.84-7.61.21-15.16,1.11-22.56,1.81-14.89,1-29.75,1.11-44.62.08-7.19-2.33-13.82-5.95-19.92-8.55-14.42-15.23-28.94-8.64-46.35,2.15-5.67-2.68-4.44-5.67-3.62-11.55,3.17-22.91,7.11-34.7,9.23C658.25,406.1,651.91,409.52,645.06,406.81Z"/><path class="cls-72" d="M888.92,429.43C871.75,401.26,852.32,375,826.47,354c6.37-16.89,5.31-34.29,3.81-51.77-.56-6.66-.4-13.38-.57-20.07,2.65-2.6,6-1.81,9.15-1.81,35.62-.06,71.24.17,106.85-.13,17.08-.14,28.48,13,25.94,30.23Q956.4,413.63,942.12,517c-2.92,3.34-6.92,2.57-10.61,2.59-19.52.1-39,0-58.55.15-2.5,0-5.83-2-7.52,1.77,1.32,2.25,2.72,4.43,2.94,7.1.17,8.24,1.51,16.59-2.36,24.38.53.72-4.29,2.54.49,2.4,6.29-.17,12.58-.22,18.86,0,3.35.12,7.13-.06,8.15,4.52-.15,3.13-.84,6-3.76,7.75-17.79,2-35.59,1.59-53.39.27a6.32,6.32,0,0,1-3.81-4.46c-2.35-10.2-7.46-19.42-10.3-29.44a9.26,9.26,0,0,1,1.56-5.8c11.63-17.77,22.62-36,36.27-52.34C871.84,461.76,883.16,447.3,888.92,429.43Z"/><path class="cls-72" d="M716,348.83l-65.78,29.7c-18.5-9-38.08-14.71-58-19.32-1.38-2.85-.54-5.7-.06-8.57C595,334,596.9,317.2,599.5,300.52c1.73-11,11.07-20,22.15-20.12,34.17-.3,68.34-.17,102.51-.08a8.72,8.72,0,0,1,5,1.32,2,2,0,0,0,1.27.4,183.45,183.45,0,0,1-11.57,52.4C717.13,339,715.82,343.81,716,348.83Z"/><path class="cls-73" d="M755.34,329.61c-12.47-11.2-15.32-25.75-13.28-41.36.9-7,2.11-13.72,1.31-20.77-.83-7.27.45-15.94,6.44-18.77,7.05-3.32,15.35,0,21,6.64,5.25,6.16,11.17,11.23,19.94,10.87,3.86-.16,4.09,2.54,4.45,5.12.95,6.74,0,13.44-1.49,20a175.17,175.17,0,0,1-11.9,34.58C773.62,331.46,765,334,755.34,329.61Z"/><path class="cls-74" d="M941.46,517.13c.84-21.06,5.2-41.66,8-62.46,6.78-49.46,14.06-98.84,21-148.29,1.92-13.78-8.16-24.22-23.21-24.26-39.18-.1-78.36,0-117.54,0l-.09-3.48c38.58,0,77.17-.1,115.76,0,19.56,0,30.43,13.18,27.63,32.7-7.66,53.54-15.14,107.1-22.77,160.63-2.13,15-4.52,29.9-6.79,44.84A1.35,1.35,0,0,1,941.46,517.13Z"/><path class="cls-75" d="M755.34,329.61c9.15.95,17.68-2.4,26.5-3.74-3.15,12.62-6.55,25.22-5,38.46l-22.37,20c.16-18.08-2.8-34.26-1-50.63C754.93,332.73,756,331.57,755.34,329.61Z"/><path class="cls-76" d="M1006.78,468.48c0-4.35.06-8.7,0-13,0-2.27.5-4,2.93-4.61s3.84.76,5.18,2.41c2.27,2.79,3.84,25.14,1.86,28.38-1.82,3-4.6,4.61-8.08,3.8-3.67-.85-2.34-4.1-2.43-6.5-.14-3.48,0-7,0-10.44Z"/><path class="cls-77" d="M1102.55,452.66c-.64,9.14-1.17,18.29-2,27.41-.26,2.92-2.39,4.65-5.36,4.86-3.21.23-6.32-.94-6.84-4.16a92.22,92.22,0,0,1-.14-27.85h2.61c0,7.33,0,14.66,0,22,0,2.87-.52,6.4,3.71,6.6,3.82.18,3.68-3.43,3.9-5.76.74-7.66,1-15.36,1.52-23Z"/><path class="cls-78" d="M1051.34,475.14c1.65-8.64-.72-15.62,2.08-24.56v33.66l-1.68.39-8.53-22.54-1.17.24L1041,483.67l-1.33-.25V452.88l2.19-.45C1044.73,459.4,1047.65,466.36,1051.34,475.14Z"/><path class="cls-79" d="M1035.06,469.86a63,63,0,0,1-.91,9.78c-.78,3.64-3.09,6.19-7.52,5.72-4.09-.44-5.62-3.2-5.61-6.59,0-6.69.52-13.38.91-20.07.3-5.23,3.58-6.88,8.33-6.76,5.48.14,4.55,4.29,4.76,7.62C1035.2,462.17,1035.06,464.81,1035.06,469.86Z"/><path class="cls-80" d="M1084.48,467.36c-.3,4.08-.29,8.2-1,12.21s-3.3,6.11-7.48,5.82c-4-.27-5.75-3.13-5.72-6.53a217.52,217.52,0,0,1,1.21-21.81c.47-4.32,4.15-5.12,8-5.12,4.75,0,4.76,3.31,4.77,6.65,0,2.92,0,5.84,0,8.77Z"/><path class="cls-81" d="M1118.6,483.11c-5-1.89-3.58-7.75-8.36-9.34-3.57,2.43.12,7.18-4,11.19V454.88c0-2.8,1.24-4.23,4.17-4.44s5.34.72,6.32,3.5c.66,1.86.53,4,.62,6C1117.7,467.67,1112.82,475.39,1118.6,483.11Z"/><path class="cls-82" d="M1124,454.31c2,6.45,2.26,12.87-.36,19.21A27,27,0,0,1,1124,454.31Z"/><path class="cls-83" d="M1066.25,449.94c0,10.9.14,20.06,0,29.22-.11,5-3.44,5.14-7.08,4.41C1070,474.53,1061,461.73,1066.25,449.94Z"/><path class="cls-84" d="M634.57,222.79c-2.78-4.43-1.79-7.94-2.21-11.18-.34-2.58,1.21-6.72-3.62-6.31-3.5.29-7.73-.26-9.36,4.68-.92,2.8.73,6.65-4.09,8.94a378,378,0,0,1,8.18-41.37c.72-2.72,2.43-3.85,5.18-3.4,3.87.62,5.47,3.45,5.64,6.82.39,7.88.63,15.79.46,23.68C634.63,210.15,637.17,215.74,634.57,222.79Z"/><path class="cls-85" d="M659.29,197.75c-.23,3.56.56,9.42-1.14,15.09-1.61,5.37-4.7,8.33-10.9,7.37-6-.94-6.21-5.09-6.14-9.64.13-8.13.11-16.26.47-24.38.21-4.81,1.49-9.06,7.2-10.53,7.42-1.92,10.19-.13,10.48,7.69C659.42,187.41,659.29,191.48,659.29,197.75Z"/><path class="cls-86" d="M602.93,176.28c-18.92,5.15-10.21,19-12.23,28.73-1,4.89-2.45,11.7,7.19,11.79-7.41,3.72-10.54,2.46-10.79-4.22-.37-10.22-.28-20.48,1.71-30.56C590.14,175.29,594.43,173.33,602.93,176.28Z"/><path class="cls-87" d="M609.38,174.73v43.41l-1.72,0V174.75Z"/><path class="cls-88" d="M666.18,205.2c-2.33-9.36-2.93-18.67.61-29.92C670.06,183.32,669.74,196,666.18,205.2Z"/><path class="cls-89" d="M941.46,517.13l2-.36,14.09.67c5.19,13.33,5.78,26.62-.36,39.85l.23.29c-1.51.9-3.11,2-4.79,2-20,.75-40.08,1.85-60.08-.48-9.31-3.39-19-.68-28.39-1.63-2.1-.22-5.85,1.18-5.82-1.84,0-4.49,4-1.09,6.1-1.85,3.46-2.87,7.65-2.45,11.68-2.47,18.92-.08,37.84,0,56.77,0,20.08,0,20.08,0,20-19.71.93-7.41-4.26-8-9.4-8.07-17.14-.39-34.29-.08-51.43-.17-9.84,0-19.7.43-29.49-1-1.6-1-4-1.23-4.53-5.24Z"/><path class="cls-72" d="M645.06,406.81c21.58-4.65,43-9.82,63.93-16.57.55,1.25,1.08,1.88.93,2.19-9.22,18.92-5.15,36.13,6.32,52.63,5.18,7.45,6.11,16.22,6.4,25.08.66,21.07-1.63,41.94-3.91,62.82-.09,12.15.13,24.38-8.17,34.6-26.27,1.17-52.56.25-78.84.5-12.7.12-25.4,0-38.11,0q53.91,0,107.8,0c3.44,0,7.05-.78,10.25,1.34,2.37,12.2,2.39,24.3-1.72,36.2-3.36,2.23-7.19,2.08-11,2.09q-34,.11-67.94,0c-3.74,0-7.62.31-10.8-2.39l-62.51-.67c-3.09-3.48-.74-7.38-.22-10.72,9.24-58.86,16.24-118,25.62-176.89,1.77-11.08,1.15-22.6,5.88-33.16,1.34-1.22,1.78-2.37,4.56-.85,14.94,8.18,29.55,17,45.33,23.65C641.18,407.67,643,409,645.06,406.81Z"/><path class="cls-90" d="M620.25,605.36l89.15-.69c3-2.11,6.45-2.55,10-2.55,38.14.08,76.29-.39,114.43.22,7.55-.29,15.11-.22,22.67-.06,3.17.07,6.47,0,8.86,2.75q.57,14.78,1.13,29.53-121.79.08-243.58.27c-8.43,0-12.19-5-14.41-11.45S611.92,609.34,620.25,605.36Z"/><path class="cls-91" d="M589,383.92Q574.5,486.08,560,588.24c-.77,5.48-1.5,11-2.25,16.45l-2.26.25c.47-20.41,5.17-40.28,7.71-60.43,3.89-30.79,8.84-61.44,13.29-92.16q5.31-36.59,10.52-73.2C589.52,380,588.45,382.29,589,383.92Z"/><path class="cls-92" d="M416.74,557.29l-4.95,5.52-5.57.21-27.88-.48c-.08-8.07-2-14.17-9.65-19.61-12.18-8.65-20.2-21.59-27.37-34.74-2.62-4.79-2.09-9.55,2.19-12.51s8.94-2.08,12.6,2c3.31,3.64,6.55,7.34,9.83,11,8.24,19.6,21.79,34,41.47,42.48C410.77,552.6,413.64,555.21,416.74,557.29Z"/><path class="cls-90" d="M476.47,640.11c-2,5.82-5.66,6.4-10.51,3.48C468.7,640.12,472.36,639.44,476.47,640.11Z"/><path class="cls-93" d="M729.16,281.64q-50.8.24-101.62.48c-17.81.07-24.16,5.25-27,22.74-2.91,18.09-5.57,36.23-8.33,54.35l-1.91-1.9c2.54-19.27,4.69-38.6,7.75-57.78,2-12.58,12.5-20.85,25.4-20.91q49.41-.21,98.83,0C724.77,278.67,728.53,276.91,729.16,281.64Z"/><path class="cls-92" d="M218.74,532.31a9.35,9.35,0,0,1-.93,2.13c-7.26.12-14.51.21-21.77.38-1.66,0-3.57-.26-4.69.77s-.47,2.47-.94,2.69c-1.78.86-10.12-19.09-15.91-18.28-5.19.72-3.23,17.41-13,23-5,2.84-10.95,1.67-14.85.46l-3.55-1.73,15.08-21.36c2.3-3.24,2.34-5.9-.57-9.25a41,41,0,0,1-6.4-11.35c-1.79-4.39-2.8-9.1,2.42-12.35s8.87-.56,12.32,2.95c1.82,1.85,3.43,3.9,5.13,5.86,4.1,9.18,12,16.1,15.29,25.83,1,2.8,4.44,2.13,7,2.14,13.17.06,20.93-3.86,24.29-.05C219.22,525.91,219.54,529.58,218.74,532.31Z"/><path class="cls-94" d="M202.64,633.39c-4.33-.88-8.15-2.33-8.49-7.64-1.12-8-2.24-16-3.73-26.64l12.43,23.32C200.94,626.05,204.25,629.77,202.64,633.39Z"/><path class="cls-95" d="M990.29,539c.23-3.11.42-5.6.61-8.13,6.68,1.44,8.37,5.39,6.45,11.73-2.65-2.55-5.16-2.86-7.11.63-7.65-5-14.91-2.39-22.36.75-1.65.7-2.47-1.57-.26-3.25,1.35-1,1.51-1.23.47-2.22-.62-.6-1.45-1-2.06-1.59a3.14,3.14,0,0,1-.07-4.69c1.34-1.51,3-3.46,4.64-.35.23.44-1.7,1.86-1.51,2.51a4,4,0,0,0,2.44,2.22c1.65.51,1.49-1,1.73-2.09,1.31-6,5-2.45,8.15-3.07C989,530,987.42,536,990.29,539Z"/><path class="cls-95" d="M1018.92,529.42c2.67,12.39,2.68,12.55-9.9,13.81-3.79.38-9.14,2.76-9.63-4.63-.28-4.19.29-7.07,5.24-8.22,6.07-1.4,4.65,3.41,6.71,8.24C1010.37,530.53,1017.59,535.07,1018.92,529.42Z"/><path class="cls-96" d="M465.76,487.15l11.13,6.25c-3.25,3.2-7,7-10.24,5.46C463.63,497.43,465.47,492.18,465.76,487.15Z"/><path class="cls-97" d="M892.54,559.15c4.88-2.69,10.21-1.57,15.34-1.61,16.51-.12,33,0,49.53,0-5.81,12.83-5.54,25.67-.15,38.54l-61.41.38a5.33,5.33,0,0,0-1.47-.29c-6-3.07-6.1-8.73-6.17-14.34a66.36,66.36,0,0,1,.34-11.36,8.32,8.32,0,0,1,2.11-4.11C891.28,564,891.91,561.57,892.54,559.15Z"/><path class="cls-98" d="M890.64,569.93c1.59,8.71-2.45,18.22,3.74,26.28-6,.06-12.1.14-18.15.17s-10,2.27-10.86,8.65L835,604.68c-1.2-.95-2.27-2.23-2-3.68,1.71-10.5-2-21.61,3.51-31.68C854.55,567.72,872.62,566.49,890.64,569.93Z"/><path class="cls-99" d="M885.48,610c7.09,1.27,1.42,7.55,4.29,10.68,1.7-.54,1.16-2.07,1.24-3.21.5-8,8.14-12.09,15.43-8.19,1,.55,2,1.45,1.32,2.76-.57,1-6.55-.3-1.52,3.12,3.79,2.57,3-1.44,3.77-3.22,1-2.31,2.11-3.81,5.29-2.68,2.77,1,6.55.07,5.44,5,3.2-.17.83-4.81,4.66-4.29V622.7c-2.6,5.94-.76-9.53-5.64-.28-2.5,4.76-11.32.07-17.14,1.65a3.56,3.56,0,0,1-.92-2.12c.89-4.58.88-5-1.62-8.85-2.07,3.38.57,7.48-2.42,11-3.16-3.37-.16-8-2.52-11.26-2.92,3.39,1.18,9.67-4.1,11.43-5.51,1.84-3.5-5.94-7.3-6.88C881.62,614.33,882.94,612,885.48,610Z"/><path class="cls-100" d="M885.48,610l-1.74,7.4c-.52,1.25-2.18,2.09-1.32,3.82.61,1.24,4.12,1.1,2,3.49-1.28,1.45-3.16.64-4.74-.35-1-.61-.82-3.08-3-1.7-9,5.66-6.87-2-7.07-6.2-.25-5-1-11.07,7.27-5.26C879.15,612.82,881.8,605.54,885.48,610Z"/><path class="cls-101" d="M290.73,467.09c-5.46.23-10.47,7-16.35,1.11-1.75-1.76-4.7-2.92-3.61-6.21,1-3.12,3.79-4.17,6.71-4.74,2.54-.5,5.12-.81,7.69-1.2,4.63-.63,8.12,1.07,9.54,5.55C295.68,464.67,293.74,466.47,290.73,467.09Z"/><path class="cls-102" d="M290.73,467.09c7.49-8.39-2.34-8-5.56-11,2.13-3.39,5.66-2.22,8.63-2.41,4.78-.3,9.47.54,12,5.19,1.55,2.81-.9,4.62-2.59,6.67C299.44,470.1,295.37,470.28,290.73,467.09Z"/><path class="cls-10" d="M126.08,548c4,3.39,13.14-4.68,13.24,5.83.16,15.35-2.24,17.67-14,17.67-10,0-13.47-4-12.39-19C113.51,543.65,121.94,551.26,126.08,548Z"/><path class="cls-103" d="M137.5,573.93c-8.59,3.55-12.77,3.65-21.11,1.05C123.18,572,129.09,573.19,137.5,573.93Z"/><path class="cls-104" d="M497.78,301.77c-3.16-.21-5.09-1.84-5.17-4.89a4.72,4.72,0,0,1,4.76-5.2c3.29-.1,5.61,1.73,5.49,5.34C502.76,300.2,500.67,301.55,497.78,301.77Z"/><path class="cls-105" d="M525.2,247.36c3.13.41,5.41,2,5.39,5.42a4.66,4.66,0,0,1-4.87,4.92c-2.94.12-5.1-1.28-5.46-4.31C519.86,250,521.93,248.15,525.2,247.36Z"/><path class="cls-106" d="M260.29,423.74c-.61,3.27-2.49,5.44-5.8,5.14a4.84,4.84,0,0,1-4.65-5.24c0-3.06,1.75-4.85,4.74-5C258.06,418.41,259.69,420.58,260.29,423.74Z"/><path class="cls-107" d="M239.84,286.79c0,3.13-1.55,5.16-4.45,5.51-3.35.41-5.68-1.51-5.92-4.81s1.91-5.4,5.28-5.44C237.79,282,239.36,284,239.84,286.79Z"/><path class="cls-108" d="M525.26,507c-3.06-.21-4.89-1.92-5-4.89-.12-3.4,1.89-5.63,5.24-5.49a5,5,0,0,1,5.08,5.76A4.94,4.94,0,0,1,525.26,507Z"/><path class="cls-109" d="M460.33,347c-.52,2.8-1.93,4.9-4.92,5.1-3.5.24-5.39-1.85-5.51-5.19a4.63,4.63,0,0,1,4.66-5.13C458.08,341.52,459.61,343.86,460.33,347Z"/><path class="cls-110" d="M1038.1,172.51c-.46,6.93.92,13.92-1.12,20.86-1.42,4.84-4,6.48-8.88,6.22-5.48-.31-5.79-3.88-5.7-7.91.22-10.47-.79-21,1.38-31.39.78-3.72,2.09-6.36,5.65-8.12,5.32-2.63,8.48-1.88,8.65,4.58C1038.21,162,1038.1,167.25,1038.1,172.51Z"/><path class="cls-111" d="M888.92,429.43c1.24,12-6.66,20.21-12.67,28.78-10.64,15.2-22.67,29.42-33.58,44.44-7,9.71-11.38,21.21-19.23,30.48-3,1.9-6,3.88-9.81,3.17-2.63,0-5.26.2-7.88,0a5.9,5.9,0,0,1-5.42-3.85c-1-2.75,1-4.27,2.71-5.9L816,513.92c-3.21-2.53-6.28-1-10-1.72,4.92-5.59,12.19-8.47,12.65-16.2,2,1.63,1.69,3.46.47,5.58,8.21-9.63,11.24-21.73,16.5-32.65,5.82-12.1,11.4-24.3,18.22-35.89C865.68,433.54,877.19,430.41,888.92,429.43Z"/><path class="cls-112" d="M813.63,536.3c3.23-1.17,5.59-5,9.81-3.17,4.77,10.68,10.09,21.17,11.57,33l-1.2,1.24c-2.67,1.55-5.64,1.4-8.55,1.41q-51.76.08-103.54,0c-2.91,0-5.87.15-8.58-1.3l-1.25-1.18c2.73-11,2.88-22.57,6.84-33.34q28.1,27.46,66.53,19.26C796.29,549.86,806,544.87,813.63,536.3Z"/><path class="cls-113" d="M853.81,433c1.1,2.07.2,3.65-.83,5.58a526.73,526.73,0,0,0-25.48,54.73,15.77,15.77,0,0,1-8.37,9c-.19-2.37-.35-4.35-.51-6.32,6-26,12-52,18.42-79.85Z"/><path class="cls-114" d="M955.21,531.13c1.27,26.27.54,22.22-21.14,22.39-23.21.18-46.42.22-69.64.31,2.17-8.59,1.16-17.39,1.74-26.09,3.08-2.82,6.94-2.78,10.73-2.79,22.16-.08,44.32-.15,66.49,0C948.17,525,953.77,524.29,955.21,531.13Z"/><path class="cls-115" d="M917.78,306.58c17.7.09,31,13.13,30.72,30.05-.39,21-21.24,40-43.41,39.49-16.88-.36-30.33-13.92-29.94-30.18C875.65,325.1,895.84,306.46,917.78,306.58Z"/><path class="cls-116" d="M955.21,531.13c-2.17-3.53-5.58-3.53-9.19-3.52-26.62.11-53.23.1-79.85.13-.45-2.3-1.13-4.46-3.65-5.37,1.8-2.16,4.29-1.47,6.54-1.48,25.44,0,50.87.07,76.31-.1C952.7,520.75,956.67,523.16,955.21,531.13Z"/><path class="cls-117" d="M890.64,569.93H836.33l-1.07-.43a2.89,2.89,0,0,1-1-3l.8-.33,55.65.27C890.65,567.58,890.64,568.75,890.64,569.93Z"/><path class="cls-118" d="M1008.4,477.4c.36-2.39-.7-5.62,3.15-6,3.26-.35,3.61,1.95,3.64,4.49,0,3.18-.57,6-4.38,6.1C1007.72,482,1008.69,479.22,1008.4,477.4Z"/><path class="cls-119" d="M1011.55,454.78c2.42,4.44,5.7,9.06-1.81,13.19A23.43,23.43,0,0,1,1011.55,454.78Z"/><path class="cls-120" d="M1023.87,470c1.31-5.54-2.33-14.72,5.39-14.64,6.93.08,3,8.86,3.28,13.63.28,4.58,2.2,12.63-4.83,12.55C1020.42,481.44,1026.07,473.56,1023.87,470Z"/><path class="cls-121" d="M1082.31,467.22c-.38,3.73-.54,7.5-1.21,11.18a4.12,4.12,0,0,1-5,3.63c-2.9-.37-2.77-2.53-2.77-4.53,0-5.23.07-10.45.12-15.67,0-4,2.1-7.38,6-7s2.1,4.59,2.46,7.18a37.85,37.85,0,0,1,0,5.22Z"/><path class="cls-122" d="M1108.22,461.89c1-3.33-1.55-8.17,3-8.38,5.09-.24,3.88,4.76,3.75,7.93s1.37,8.3-3.62,8.15C1105.76,469.43,1110.32,463.86,1108.22,461.89Z"/><path class="cls-123" d="M631.42,190.48c0,2.6.16,5.22,0,7.81-.36,4.91-4.66,3.7-7.34,4-4.41.48-2.27-2.81-1.92-4.72q1.43-7.65,3.15-15.23c.42-1.86.66-4.44,3.54-3.88,2.07.39,2.17,2.49,2.24,4.21.11,2.6,0,5.2,0,7.81Z"/><path class="cls-124" d="M657,192.05c.18,8.37.11,14.18-1.57,19.86-1.06,3.55-3.22,5.33-7.06,5-4.22-.32-4.32-3.62-4.3-6.37.08-8.15.56-16.29.89-24.42.2-5.08,3.68-7.73,7.92-7.62,4.9.12,3.68,5,4,8.18A30,30,0,0,1,657,192.05Z"/><path class="cls-112" d="M836.33,569.94c-.1,11.59.3,23.21-1.33,34.74H709.4l2-34.69,1.29-1.13c4.57-1.38,9.26-.72,13.89-.73q48.93-.09,97.85,0c3.73,0,7.61-.69,11,1.57Z"/><path class="cls-125" d="M629,538.44q-12.26,0-24.5,0c-6.32,0-9.06-3.19-8.25-9.43,2.69-20.78,5.49-41.56,8-62.36.78-6.43,4.09-9.24,10.37-9.22,15.46.05,30.92.1,46.38,0,6.8,0,9.61,3.23,8.89,9.81-2.28,20.77-4.62,41.54-6.85,62.31-.69,6.36-4.1,9.25-10.43,9.17-7.88-.11-15.75,0-23.63,0Z"/><path class="cls-117" d="M711.44,570q-64.71-.21-129.43-.45c-.35,0-.7-.7-3.1-3.23h133l.79.25a3.21,3.21,0,0,1-.39,3.15A1.72,1.72,0,0,1,711.44,570Z"/><path class="cls-126" d="M601,589.82l1.84-11.12c2.68-1.89,5.28,5.42,8.45.11.59-1,5.73,2.24,5.42,5-.35,3.08-4.47,6.07-6.84,4.83C606.62,586.88,604.62,588.78,601,589.82Z"/><path class="cls-127" d="M580.42,590.56c.71-4.76-2.95-10.82,2.79-13.28,2.12-.92,6.76,3.2,6.8,5.65C590.09,588,584.21,588.23,580.42,590.56Z"/><path class="cls-128" d="M916.12,581.18c3.32-.36.4-3.71,2.8-3.86,1.36-.08,1.74,1.16,1.8,2.43.12,2.34-1.17,5-3.08,4-3.42-1.9-7.66.8-10.86-3.57-3.84-5.24.64,5.09-3.86,1,.48.81,0,.4,0,0,.09-3.45.26-6.9.41-10.35,5.09,1.66,9.93-.41,14.89-.83,1.25-.1,2.52,1.23,1,2.95C915.59,576.91,915.62,576.94,916.12,581.18Z"/><path class="cls-129" d="M931.22,570.06c3.27,9.51,3.27,9.51,7.64,10.79,0-3.31-4.86-3.19-4.51-6.69.18-1.81.22-3.63,2.26-4.2,1-.29,2.83-.4,3.28.18,2.59,3.3-1.32,1.51-2,2.36-1.48,1.92.41,2.35,1.44,3.06,2.19,1.52,3.15,3.59,2.2,6-1.31,3.34-4,2.54-6.66,1.85a8.33,8.33,0,0,0-2.49,0c-11.33.68-12.1-.45-8.46-13.48,3.36,3.38.12,8.3,3.28,11.44C932.38,579,928.6,573.48,931.22,570.06Z"/><path class="cls-130" d="M943.31,582.77V570.58c2.82,2.94,5.79,9.25,6.82-4.37,2.36,8.31,1.69,12.46,1.36,16.88C947.07,579.08,947.07,579.08,943.31,582.77Z"/><path class="cls-131" d="M894.22,576.88c.63-2.75-1.54-6.89,3.66-7.24,1.19-.08,2.52-.48,1.71,2.15-1.2,3.9-.47,11.4-1.81,11.7C892.87,584.57,894.87,579.57,894.22,576.88Z"/><path class="cls-132" d="M912.53,611.8c2.91,2.49,5.56,3.67,3.83,6.82-.67,1.22-2.27,2.56-3.39,1.44C911,618.05,912,615.39,912.53,611.8Z"/><path class="cls-133" d="M712.29,569.7c.12-1.05.25-2.1.38-3.15l121.54-.09,1.32,3.23Z"/><path class="cls-134" d="M902,342.86c2.75,1.33,7.85-2.67,8,4.5.25,9.12-6.56,9.39-12.18,9.92-6.37.6-4.57-5.44-5-8.89C892,340.56,898.31,343.9,902,342.86Z"/><path class="cls-135" d="M921.56,357c-2.21-3.64-9.51,2.5-9.25-6,.3-9.86,7.11-8.61,13.29-8.57,1.94,0,5.77-.85,4.45,3.08C928.56,349.94,928.74,356.15,921.56,357Z"/><path class="cls-136" d="M901.56,339.78c-1.88-1.66-7.61,3-7-3.48.29-3.21.91-9.09,5.59-7.86,3.83,1,10.78-2.06,11.56,5.4C912.22,339,910.55,339.8,901.56,339.78Z"/><path class="cls-137" d="M878.92,349.05c-.77-5.91,2.33-6.14,5.32-5.8,9.91,1.15,3.34,9.82,6.21,14.43,1.66,2.65-2.63,5.3-4.53,4.55C879.54,359.71,880.23,353,878.92,349.05Z"/><path class="cls-138" d="M922.37,339.65c-2.64-.83-7.86,2.36-7.37-4.63.62-9,8.42-5,12.71-6.78,4.66-2,3.42,3.29,3.69,5.57C932.26,341,926.78,339.39,922.37,339.65Z"/><path class="cls-139" d="M932.79,360.94c-.8-.53-2.32-1-3.06-2.09-1.88-2.69,5.11-16.34,8.41-16.72,4.58-.52,6.57.95,4.83,5.84C941.34,352.57,935.53,360.64,932.79,360.94Z"/><path class="cls-140" d="M934.67,331.13c-1.13-4,.34-8.43,4.71-8,5.65.61,4.77,6.83,5.62,11.09.73,3.69-.94,5-4.76,5.28C933.37,340,934.7,335.41,934.67,331.13Z"/><path class="cls-141" d="M884.77,339.83c-1.77-.41-5.54.89-4.32-3,1.7-5.43,3.4-11.43,9.39-13.76,1.27-.49,4.33,1.38,4.36,4.41C894.26,332.67,889,339.85,884.77,339.83Z"/><path class="cls-142" d="M914.91,310.84c-.57,4.78-1,9.18-1.67,13.54a2.82,2.82,0,0,1-3.87,2.4c-2.66-.88-6.17.17-7.91-2.74-1.09-1.83.75-3.25,1.9-4.39C906.62,316.44,909.3,312.45,914.91,310.84Z"/><path class="cls-143" d="M919,310c5,4.49,10.56,7.92,9.2,13.79-.77,3.3-8.64,4-9.93,2.39C914.86,321.93,917.51,316.44,919,310Z"/><path class="cls-144" d="M906.08,371.35c-4.76-2.41-9.67-4.71-8.47-9.79.56-2.37,6-3.71,8.47-2.06C911,362.84,904.18,367.11,906.08,371.35Z"/><path class="cls-145" d="M910.78,371.06c-1.15-11.26.66-13.7,8.23-11.85,3.71.91,3.55,2.42,1.29,4.58C917.42,366.53,915,369.94,910.78,371.06Z"/><path class="cls-146" d="M927.32,312.46c4.2-.3,6.18,2.09,8.43,3.7,1.57,1.13,3.6,2.62.8,4.74-2,1.54-3.68,1.57-5-.83S929,315.5,927.32,312.46Z"/><path class="cls-147" d="M906.25,312.15c-3,3.42-5.55,6.11-7.92,8.91-1.54,1.82-2.93,1.25-4.39,0-2.13-1.8-.64-3,.83-3.95C898.08,315.06,901.26,312.59,906.25,312.15Z"/><path class="cls-148" d="M896.77,370.65c-3.4-1-7.25-1.16-8.21-5.25-.09-.36,1.16-1.44,1.87-1.53C895.27,363.28,895,368,896.77,370.65Z"/><path class="cls-149" d="M920.1,369.94c-.2-.74-.38-1.1-.3-1.16,2.58-2.33,3.44-7,8.26-6.19.51.08,1.34,1.64,1.16,1.87A14.21,14.21,0,0,1,920.1,369.94Z"/><path class="cls-6" d="M609.87,467.06c3.36-3.28,7-4.16,10.54-.54,2.18,2.2,4.67,1.78,7.24,1.56l-.16-.11c9.47,2.58,18.85,3.79,27.66-2.14,2.63-1.78,5.23-2,7.81.09,2.3,2.69,2,5.79,1.64,9-1.83,14.91-3.13,29.88-5.26,44.75-.93,13.13-1.74,13.92-15.13,14-11,.05-22,.14-33-.06-4.33-.08-9.07.13-9.91-5.93a181.2,181.2,0,0,1,3-24.23c.53-2.38.32-4.8.41-7.21,1.9-7.1,1.06-14.62,3.31-21.67.24-1.78.12-3.58.44-5.35A4.2,4.2,0,0,1,609.87,467.06Z"/><path class="cls-150" d="M610,468.14l-.29,5.45c-3.71,7-2.25,14.86-3.51,22.27v7.55c-4.35,7.32-2,15.84-4.25,23.55-.33,3.58,1,5.26,4.88,5.23,15.06-.14,30.11.13,45.16-.13,9.29-.16,5-7.87,6.36-12.44,1.83-1.68,2.58-1,2.66,1.21-.68,15.68-.68,15.67-16.71,15.61-12.28-.05-24.56-.25-36.83,0-6.41.11-9.08-2.18-8.25-8.85,2.67-21.3,4.25-42.74,8.56-63.82C609.57,464.69,608.47,467.09,610,468.14Z"/><path class="cls-151" d="M661,520.83l-2-1.88c-.45.81-1,.85-1.52.12q2.7-26.58,5.42-53.15c.39-6.17-6.28-.1-6.94-4.24,6.74-4.15,12.57-2,11.71,5.29C665.61,484.93,665.07,503.1,661,520.83Z"/><path class="cls-152" d="M652.32,462.51H623.19l0-1.8h29.11Z"/><path class="cls-153" d="M627.65,468.08l-4.84-3.18h28c-7.3,4.61-15.47,2.74-23.35,3.07Z"/><path class="cls-154" d="M610,468.14c-1.76-.95-1.93-2.71-2.22-4.41,3-5.5,7.38-4.51,12.69-3-2.76,4.46-10.32-.69-10.63,6.31A1.36,1.36,0,0,1,610,468.14Z"/><path class="cls-155" d="M657.54,519.07c.5-.06,1-.1,1.52-.12-.13,13.94-.13,14-13.64,14-12.49,0-25-.17-37.47.05-5.2.1-7.88-1.33-6.5-7,.39-.86.8-.82,1.22,0,.16,3.28,1.13,5.3,5.16,5.26,14.3-.18,28.6,0,42.9,0C660.43,531.32,655.93,523.51,657.54,519.07Z"/><path class="cls-156" d="M653,514.61H625.16c0-.56,0-1.13-.08-1.69H653Z"/><path class="cls-157" d="M657.46,483.51h-28.4l-.08-2.83c9.44-.37,18.88-.73,28.37.31C657.39,481.83,657.43,482.67,657.46,483.51Z"/><path class="cls-158" d="M654.66,497.12a44.91,44.91,0,0,1-27.38,0Z"/><path class="cls-159" d="M606.23,495.86c-.11-7.63-1.62-15.48,3.51-22.27C608.37,481,608.76,488.65,606.23,495.86Z"/><path class="cls-160" d="M602.67,526c-.41,0-.82,0-1.23,0,2-7.44-1.25-16,4.79-22.6Q604.44,514.7,602.67,526Z"/><path class="cls-161" d="M613.55,479c4.43,5.24,8.35,3.79,12.51-.27-1.1,3.67-3.45,6.53-6.52,6.83C616.13,485.87,614.74,482.37,613.55,479Z"/><path class="cls-162" d="M610.18,510.36l8.05,4.68c-.58.61-1.1,1.68-1.75,1.75C612.16,517.32,611.27,513.55,610.18,510.36Z"/><path class="cls-114" d="M1051,569.65c1.27,26.27.54,22.22-21.14,22.38-23.21.18-46.42.22-69.64.32,2.17-8.59,1.17-17.39,1.74-26.09,3.08-2.83,6.94-2.78,10.73-2.79,22.16-.08,44.33-.15,66.49,0C1044,563.56,1049.58,562.81,1051,569.65Z"/><path class="cls-114" d="M1021,607.65c1.27,26.27.54,22.22-21.14,22.38-23.21.18-46.42.22-69.64.32,2.17-8.59,1.17-17.39,1.74-26.09,3.08-2.83,6.94-2.78,10.73-2.79,22.16-.08,44.33-.15,66.49,0C1014,601.56,1019.58,600.81,1021,607.65Z"/></svg>