<svg id="Layer_1" data-name="Layer 1" xmlns="http://www.w3.org/2000/svg" viewBox="0 0 1200 700"><defs><style>.cls-1{fill:#fc4ca0;}.cls-2{fill:#a3602b;}.cls-3{fill:#b3d5c5;}.cls-4{fill:#139d80;}.cls-5{fill:#b3d5c4;}.cls-6{fill:#fc90ac;}.cls-7{fill:#f7d2da;}.cls-8{fill:#f6e8e5;}.cls-9{fill:#fd8505;}.cls-10{fill:#012178;}.cls-11{fill:#b3d6c4;}.cls-12{fill:#f82b52;}.cls-13{fill:#6b8af2;}.cls-14{fill:#faede9;}.cls-15{fill:#248e6e;}.cls-16{fill:#2a3e9b;}.cls-17{fill:#f4e8e6;}.cls-18{fill:#fb8609;}.cls-19{fill:#022077;}.cls-20{fill:#131d5b;}.cls-21{fill:#6b8bf3;}.cls-22{fill:#f7ebe7;}.cls-23{fill:#f1aa2f;}.cls-24{fill:#f0ab2f;}.cls-25{fill:#fd5e71;}.cls-26{fill:#5264c8;}.cls-27{fill:#f95e68;}.cls-28{fill:#f58a9d;}.cls-29{fill:#a06331;}.cls-30{fill:#f48c1d;}.cls-31{fill:#9f6332;}.cls-32{fill:#1c3692;}.cls-33{fill:#99622f;}.cls-34{fill:#f4b59c;}.cls-35{fill:#85a3f1;}.cls-36{fill:#dbb7b3;}.cls-37{fill:#e2c4a5;}.cls-38{fill:#e3a997;}.cls-39{fill:#fc536f;}.cls-40{fill:#9c6132;}.cls-41{fill:#6a8af2;}.cls-42{fill:#eee3e5;}.cls-43{fill:#072377;}.cls-44{fill:#f4e9e7;}.cls-45{fill:#112a97;}.cls-46{fill:#0b2177;}.cls-47{fill:#218f70;}.cls-48{fill:#12267d;}.cls-49{fill:#d0f3f0;}.cls-50{fill:#dbedf0;}.cls-51{fill:#afe3d7;}.cls-52{fill:#dceeef;}.cls-53{fill:#12165d;}.cls-54{fill:#eeb131;}.cls-55{fill:#deebf2;}.cls-56{fill:#daecef;}.cls-57{fill:#dcefee;}.cls-58{fill:#fac163;}.cls-59{fill:#b790d5;}.cls-60{fill:#efdcd7;}.cls-61{fill:#f1a82d;}.cls-62{fill:#eeaa30;}.cls-63{fill:#fb8703;}.cls-64{fill:#ddefef;}.cls-65{fill:#d7eceb;}.cls-66{fill:#663109;}.cls-67{fill:#02217c;}.cls-68{fill:#0e1e58;}.cls-69{fill:#462311;}.cls-70{fill:#a57d6a;}.cls-71{fill:#f9ece5;}.cls-72{fill:#6f8cf8;}.cls-73{fill:#248e6f;}.cls-74{fill:#e7e7dd;}.cls-75{fill:#e89e31;}.cls-76{fill:#d2ddf4;}.cls-77{fill:#976431;}.cls-78{fill:#6bb9a4;}.cls-79{fill:#fb8704;}.cls-80{fill:#f9ebe6;}.cls-81{fill:#f9eae2;}.cls-82{fill:#edda30;}.cls-83{fill:#f7e7dd;}.cls-84{fill:#0a257b;}.cls-85{fill:#7284ce;}.cls-86{fill:#082376;}.cls-87{fill:#0a2478;}.cls-88{fill:#e5e2ec;}.cls-89{fill:#e4c8ce;}.cls-90{fill:#608bf1;}.cls-91{fill:#f9efe8;}.cls-92{fill:#2e1d2e;}.cls-93{fill:#fbe2d1;}.cls-94{fill:#6a596b;}.cls-95{fill:#6875ba;}.cls-96{fill:#7c85c8;}.cls-97{fill:#4e6dd8;}.cls-98{fill:#718dfc;}.cls-99{fill:#1e3185;}.cls-100{fill:#121858;}.cls-101{fill:#f8bca6;}.cls-102{fill:#66320b;}.cls-103{fill:#6ec0ac;}.cls-104{fill:#c8dce5;}.cls-105{fill:#69bda8;}.cls-106{fill:#1e414b;}.cls-107{fill:#2a4a9e;}.cls-108{fill:#2b459b;}.cls-109{fill:#f1b3a7;}.cls-110{fill:#74c5af;}.cls-111{fill:#5ab097;}.cls-112{fill:#70b9a5;}.cls-113{fill:#7ac6b1;}.cls-114{fill:#86bcb7;}.cls-115{fill:#83c5b4;}.cls-116{fill:#62bca4;}.cls-117{fill:#81cab7;}.cls-118{fill:#7bc3b2;}.cls-119{fill:#89c5b5;}.cls-120{fill:#76c6b3;}.cls-121{fill:#77c4b1;}.cls-122{fill:#a79172;}.cls-123{fill:#d6ce53;}.cls-124{fill:#f9bba5;}.cls-125{fill:none;}.cls-126{fill:#d2e0fb;}</style></defs><title>subject</title><rect class="cls-1" x="1.02" y="-0.09" width="1200" height="700"/><path class="cls-2" d="M246.17,164.92l27-.59c5.27-4.64,11.14-6.06,18.53-5.36,21.86,2.05,43.93-.93,65.81,1.87a55.14,55.14,0,0,0,7-.2c14.72-1.71,29.47-1.26,44.22-.42a33.71,33.71,0,0,0,6.8.66c9.77-1.65,19.55-1.25,29.35-.22,3.08-.49,6.11.5,9.19.19,1.58-.12,3.14-.28,4.71-.51,26.41,1.32,53.2-4.34,79.21,4,72.43.07,144.85.32,217.27,0,10.32-.05,13.89,2.16,13.73,12.6-.55,37.2,0,74.43.14,111.65a2.75,2.75,0,0,1-.58,3.92c-6.51,3.49-12.35,1.58-18-2-6.77-4.6-7.33-11.42-7.37-18.48-.16-23.53.08-47-.12-70.58-.13-15.33-1.64-16.9-17.57-16.91q-217.8-.15-435.59,0c-16.36,0-17.94,1.66-18,17.88-.12,48.27.44,96.55-.34,144.8-.24,15,.47,27.43,19.6,30.15,3.33,3.95,0,6.47-2.88,7.34-17.84,5.36-35.66,4.62-53.27-1.29,6.76-14.91,5.12-30.69,6.25-46.35,1.87-25.84-.18-51.66,2.68-77.58,2.92-26.52.55-53.52.76-80.31C244.82,174.43,243.28,169.45,246.17,164.92Z"/><path class="cls-3" d="M768.89,290.51a4.23,4.23,0,0,1,.32-1.95c6.11,1.27,8.37-2.3,9.87-7,18.22-57.12,67.37-74,121.61-84.25,9.17-1.72,7.18,5.22,6.77,9.36-3,31.12-8.64,61.78-22.8,90.3-11.45,23.07-26.82,43.22-51.24,55.69-6,8.43-14.21,6.58-22.52,4.51a11.28,11.28,0,0,1-5.36-6.58,18,18,0,0,1,4.76-16.53c10.47-6.63,23.08-7.28,32.44-10.69-9.22,1.06-19.48,7.38-31.36,6.65-3-12.63,2.54-19.18,17.84-20.3,6.54-.47,13.26.38,18.69-4-7.74-3-15.71-3.29-23.83-3.67-7.25-.34-15.83.85-19.8-7.7,6.73-9.55,1.47-20.27,3.37-28.83-3,9.56,6.75,23.79-9.28,31.59C787.53,298.93,777,299.35,768.89,290.51Z"/><path class="cls-4" d="M445.83,164.18l-29.46.13c-3.42-3.19-.58-6.54-.43-9.5-.75,3.18-1.71,6.65-4.87,9.05-15.33,1.62-30.68.83-46,.51-3.36-1-5.12-3.58-4.68-6.45,2.33-15.16-.78-30.65,2.13-43.17-2.79,7.21-.43,17.35-1.14,27.28-.22,3.1.74,7-3.61,8.13-3.88,1-6.41-1.67-8.23-4.49-9.74-15.11-20.12-29.87-28.84-45.56C318,95.28,319.18,89.82,319,84.6s1.52-10.75-4.25-14.37c-4.48-3.82-7.16-7.9-2-13,27.89,11.1,51.77,28.43,76.55,44.37,20.93,9.2,35,25.57,49,42.09C442.07,150.09,449,155.46,445.83,164.18Z"/><path class="cls-4" d="M312.78,57.21c.91,3.14-3.07,9.34,5.38,7.77,3.15,7.32,5.37,18.81-.82,20.75-8.64,2.7-9.85-10.29-15.3-15.09,9.78,14.11,20.22,28.32,28.86,43.6,1.14,2,3.9,4.11,1.93,6.49-2.43,2.92-5.59.87-8.15-.31-8.82-4.08-17.7-8.07-23.8-11.83,9,4.63,19.94,11.13,32.23,15,3.46,1.08,5.43,3.74,7.51,6.33,6.44,8,10.48,17.58,18.09,24.92a6.59,6.59,0,0,1,.69,9c-24.2,1-48.45,2.67-72.52-1.11-5-.79-9,2.38-13.68,1.62-1.77-29.33,2.43-58.27,6.28-87.23,2.17-7.71,5.06-15.31,6.29-23.16,1.36-8.57,5.54-8.56,11.68-4.85C302.41,52.08,308.73,52.71,312.78,57.21Z"/><path class="cls-5" d="M445.83,164.18l-10.22-17.91c-3.58-11.34,4.78-15.8,13-20.33,22.41-23.7,53.16-31,83.84-38.42,10.48-2.55,11.89,2.77,10.44,10.57-3.32,17.91-4.56,36.21-11.37,53.46-2.46,6.24-2.73,11.81,6.55,12.77l-81.94-.16c-4.22-5.43-1.65-11.7-2.43-16.77-.34,5.11.47,11-.09,16.9Z"/><path class="cls-6" d="M922.54,396.19c-30.84-17.91-30.87-17.93-55.43,8.48-1.46,1.56-2.57,3.13-4.91,3.3-7.18-4-14.31,2.54-21.48.13a25.61,25.61,0,0,0-21.51,3.44c-5.55,1.45-10.79,1.2-15.43-2.45-6.64-14.7-11.48-29.59-4.95-45.59,11.09-5.13,23.09-4.76,35-5.27,28.93-1.25,57.93-.91,86.81-3.26,12.36-2.16,17.28,2.75,15.33,14.4a18,18,0,0,0,.06,6C937.9,386.12,935.3,394.09,922.54,396.19Z"/><path class="cls-7" d="M920.61,355c-10,4.41-21,2.53-31.37,3.55-29.51,2.9-59.24,3.93-88.88,5.7-2-2.19-.89-4.24.31-6.29,2.52-2.59,5.07-5.13,9.32-3.21,7.87,0,15.86,1.11,23.43-2.05,9.73,4.23,20,1.68,30,1.94C882.47,355.11,901.55,354.89,920.61,355Z"/><path class="cls-8" d="M761.54,510.51c25.27-18.47,55.23-20.32,85.2-20.78,26.93-.41,53.7,2.82,80.25,7.17,3.71.6,7.2,2.42,10.79,3.67,4.66.47,7.64,3.35,10.29,6.6,27.41,33.58,56.75,65.66,84.66,98.85,3.48,4.14,7.23,8.17,5.43,14.15-2.82,5.48-7.2,3.81-12,3-22.18-3.9-44.31-8-67.09-7.84-28.1.21-55.52,4.17-80.65,16-16.94,8-33.73,7.32-51,4.63-42.77-6.67-84.94-5.93-126,8.36-16.47,5.73-32.49,12.68-49,.55-6.38-2.11-10.5-6.79-14-11.89-18.41-27.16-38.16-53.47-56.56-80.63-.92-1.36-2.17-2.61-2.7-4.1-3.31-9.29-8.1-16.49-20.32-15.07-2.08.24-3.67-1.81-5-3.45,2.31-6.76,8.43-4.43,13-4.4,8.24.05,16-.72,23.09-5.12,12.25-7.64,26.22-10.8,40.26-13.72,2-4.8,6.69-6.68,11.23-7,12.72-.91,25.21-4.67,38.13-3a53.49,53.49,0,0,1,6.16,1.37c19.33,4.66,21.69,8.15,16.85,27.38a23.26,23.26,0,0,0-.33,11.88,180.4,180.4,0,0,1,44.1-.45c12.77,1.52,12.06-4.34,10.94-11.95C756.56,519.25,753.35,513.46,761.54,510.51Z"/><path class="cls-9" d="M236.25,383.26c18.35-4.82,37.71,4,55.85-3.73a10.47,10.47,0,0,1,9.5-5.2c33.16-.09,66.35-2.09,99.47,1.05,7.9,2.88,7.26,10,6.64,15.45-1.51,13.27-2.7,26.34.6,39.52.81,3.25-.55,6.36-3.19,8.79-9.28,5.62-19.26,3.16-29.11,2.29-56.72-.68-113.45-.1-170.18-.26-6.4,0-12.84.42-18.56-3.12-28.53-.14-28.53-.14-28.45-27,0-4.05.59-8.19-.1-12.13-2.1-12.06,2.76-17.31,15.63-15.54C195,382.83,215.61,381.54,236.25,383.26Z"/><path class="cls-10" d="M172.4,601.61c-5.1-3.22-2.61-8.15-2.69-12.24-.31-15.4.22-30.81-.27-46.2-.23-7.1,2-10.32,9.77-10.69,7.19-.35,14.32-2,21.48-3.09,34-4,68.21-1.31,102.32-1.84,4.37-.06,8.49.83,11.87,3.72,4.56,5.88,1.89,11.66-.65,17.22A118,118,0,0,0,305.87,574c-2.42,4.77-.36,9.45.3,14.18.79,8.42-1,14-12.12,13.89C253.5,601.5,213,602.29,172.4,601.61Z"/><path class="cls-11" d="M236.25,383.26l-61.9.13c9.41-3.84,19.33-1.71,29-1.92a153.87,153.87,0,0,0,29.73-3.72c-14.91-7.95-28.51-13.52-39.49-23-26.86-23.12-37.22-53.16-39.77-86.28-.84-10.88-.21-21.85-.29-32.78,0-6.79,3.5-8.63,9.87-6.48,23.52,7.92,47.81,14.13,68.94,27.46,8.68,5.49,11.28,3.14,11.09-6.41-.48-24.28-.22-48.58-.08-72.87,0-4.27-1.51-9,2.83-12.5-.26,68-.62,135.91-.65,203.86C245.51,375.92,244.91,381.63,236.25,383.26Z"/><path class="cls-12" d="M376.73,437.92l28.14-.83c12.6-8.52,27.34-3,40.9-5.57,20.48-3.87,41.57-1.49,62.15-4.7,1.23-.18,2.89-.69,3.65.11,10.7,11.21,20.52,22.86,19.18,39.37-11.45,2.12-23.34,1.58-34.53,5.25-2.75,4-7.18,3.8-11.27,3.57A48.77,48.77,0,0,0,460.79,480c-20.29-.12-39.81,6.35-60.09,6.39-5.05,0-10.15.26-15-1.42C378,483.23,373,479,371.92,471.32c1.37-7.07.91-14.22,1-21.35C373,445.63,372.61,441.13,376.73,437.92Z"/><path class="cls-13" d="M316.32,534.24c-3.77-3.94-8.77-2.19-13.16-2.23q-37.47-.33-74.93-.07c-9.31.06-18.54-.12-27.55-2.55,5.53-2,6.72-6.06,6.58-11.33-.27-10.72,0-21.46.09-32.19,3.21-4,7.76-4.5,12.56-4.5q50.9-.06,101.79,0c3.41,0,6.79.21,9.84,1.9,10.23,11.43,10.62,27.88,1,41.72C327.43,528.49,324.2,535.06,316.32,534.24Z"/><path class="cls-14" d="M197.3,476.13c-.5-10.8,2.21-22.25-7.17-31.2,3.31-4.24,8.17-3.8,12.86-3.76,51.66.43,103.3-2.12,155-1.26,16.16.27,16.24.15,16.2,15.86,0,4.84.71,9.75-1.08,14.48-9,10-22.57,6-33.57,10-42,2.38-84,.76-126,.86C208,481.09,201.38,481.66,197.3,476.13Z"/><path class="cls-15" d="M172.4,601.61l117.15-.88c14.61-.11,14.61-.12,10.42-13.55.5-8.94,5.85-10.79,14.71-12.55,20.29-4,40.56-2.85,60.88-3.4,8.89-.24,17.1,6.26,26.2,1.93A14.11,14.11,0,0,1,406,571.9c2.21-.23,4.22.56,6.28,1.1,11.66,7,5.43,17.1,4.89,26.21a7.4,7.4,0,0,1-1.93,3.26c-2.93,1.3-2.32,2.75-.2,4.27,1.24,17.8-1.8,21.36-19.29,20.8-9.34-.29-18.44,1.46-27.69,1.71-10.85-.37-21.66.13-32.48.8a76.64,76.64,0,0,1-25.32-2.62c-12.16-3.56-14.53-9.61-8.14-21-.14-7.17-6-3.71-8.95-3.73-36.06-.31-72.12-.21-108.18-.3C180.76,602.4,176.58,601.89,172.4,601.61Z"/><path class="cls-16" d="M368.64,625.42c9.43-3.39,19.34-3,29-2.2,8.34.66,14.57.88,12.86-9.73-.52-3.24,1.94-5.12,4.49-6.75,3.26,0,6.53.21,9.79.08,7.55-.31,15.16.45,18.66,7.58,3.79,7.72-1.12,14.06-6.57,19.4-7.05,6.91-16.44,9.86-25.87,12.44-6.11,1.68-12.33,3-18.5,4.45-.76,3.27-3.45,4.13-6.4,4.64-8.42,2.86-17.91-.75-26,3.89a198.92,198.92,0,0,1-86.26-27c-6.37-3.73-11.22-9.34-8.39-17.31,2.78-7.82,9.94-9.42,17.55-9.39,6.37,0,12.74.58,19.11.9-1.72,12.6,4.46,18.09,17.45,18,5.46-.06,10.94.62,16.41,1C346.82,633.65,357.73,627.69,368.64,625.42Z"/><path class="cls-16" d="M530.75,466.3q-10.08-18.71-20.17-37.41c-3.09.43-4.95-1.25-6.49-3.44-.82-1.42,0,.42-.48-1.11-5.51-17.47-18.42-26.78-36.54-31.12a43.1,43.1,0,0,1-18.84-9.79,13.58,13.58,0,0,1-6.13-10.31c-1.7-7.79-2.83-15.53,2.17-22.74,2.34-2.34,5.35-2.42,8.28-1.76,15,3.35,30.21,3.78,45.5,3,20.25,8.06,31.12,24.62,41.62,41.53-3.3,9.74,2.67,18.65,2.85,28.08.18,2.3,1.36,4.28,2.36,6.31,3.7,6.28,3.35,13.8,6.94,20.12,2.06,5.17,1.13,10.15-1,15.05l1.74,12.4c-3,5.12-7.8,5-12.9,3.73C533.23,476.86,535.74,469.18,530.75,466.3Z"/><path class="cls-17" d="M519.67,525c3.82.54,8.26.9,8,5.81-.56,12.7,3,25.65-2.37,38.08-7.27,8.91-19,8.07-28.67,11q-24.27,7.3-48.78,14.07c-14.6,4-18.19,1.93-18.47-11.91-.23-11.34-.05-22.69,0-34,0-8,3.36-13,12-14.65,22.53-4.22,45.36-6.8,67.8-11.47C512.89,521.09,517,521.56,519.67,525Z"/><path class="cls-18" d="M1058.54,627.52c-.88,3.77-3.63,4.87-7.39,5.25-28.36,2.9-56.63,7.05-85.07,8.57-21.32,1.13-42.2,5.37-63.5,6-10.37,1.71-20.89,2.41-31.25,4.16-49.73,3-99.23,8.19-148.73,13.58-23.26,2.53-46.63,4.22-70,6.27-5.62.5-10.28.18-14-5.42C614,628.57,588.92,591.44,564,554.24c-1.84-6.37,1.72-6.9,6.56-5.1,4.59,1.7,6.93,5.77,9.53,9.48,20.24,28.94,41,57.56,60.75,86.79,6.1,9,13.71,12.19,24.19,12.62,13.79.56,27.14-.74,40-5.76,28.92-4.68,58.25-5.92,87.33-9.33,26.38-3.08,53.24-4.09,79.73-6.6,37.63-3.57,75.37-5.87,112.9-9.79,18.58-1.94,36.87-3.84,55.49-2.68C1047.08,622.48,1052.89,624.62,1058.54,627.52Z"/><path class="cls-19" d="M684.19,501.58c-18.13,0-36.17.95-53.91,4.89-8-.5-3.18-6.86-5.14-10.12-1.33-1.82-2.94-3.5-3.25-5.84-1.17-9.58-3.15-19.16,0-28.75,3.25-11.73,14.82-10.15,23.49-12.94,3.47-1.12,7.55-.34,11.34-.15,11.76,1.22,23.57.63,35.36.85,5.49.1,11,0,15.49,3.85,4.32,14.73-2.9,29-2.15,43.6.18,3.49-3.45,5.18-7.34,5C693.43,501.87,688.79,502.43,684.19,501.58Z"/><path class="cls-20" d="M538,393.25c-4.16-2.55-8-5-10.47-9.67-6.21-12-17.1-20.3-27.58-28.8,1.26-4.64,5-6,9.42-6.43,26,2,47.59,12.59,66,29.75a45.64,45.64,0,0,1,6.17,6.87c1.52,2.65,2.15,5.64,3.68,8.3.37,1.19.7,2.38,1,3.58,6.1,16.35,7.66,33.48,9.71,50.52,1.65,5.05,1,10.21.76,15.34,1.25,5.14,1.88,10.18-2.76,14.3-4.88,2.43-9.78,2.71-14.66-.05q-2.9-6.93-5.81-13.84c-5.42-4.27-9.61-9.26-10.53-16.16-4.42-12.08-7.45-24.52-10.18-37-.79-3.6-.51-7.33-5.47-8.22C543,400.09,538.81,398.29,538,393.25Z"/><path class="cls-21" d="M384.69,482.26c25.52.78,50.2-7.92,75.82-6,19.17-2.66,38.33-5.86,57.68-1.33,0,2.62-2,3.68-4.11,4.59-10.55.58-21.14,1-30.9,5.55-7,1.52-14.15,2.8-21.3,3.93-15.61,2.45-15.83,3-15.9,17.84,0,6.64.61,12.95,5.21,18.33l7.74.41c-2.42,8.79-11,5.76-16.9,8-14,.61-27.93.15-41.9-.13-6.7-.79-8.84-5.33-9.86-10.79-2.56-6.78-9.37-11.57-10.12-19.18S377.23,488.17,384.69,482.26Z"/><path class="cls-22" d="M451.19,525.15c-6.95,1.34-9.74-.9-10.14-8.07-1.65-29.47-1.89-29.46,28.32-34.08l12.55-1.92c10.22-2.17,20.63-3.15,31-4.41l4.7-.46a3.61,3.61,0,0,1,5.17.66c0,.8.07,1.61.08,2.41.62,31.55.55,31.16-32.77,36.26C476.92,517.56,463.5,519.55,451.19,525.15Z"/><path class="cls-23" d="M702.52,657c-16.62,7.47-34.29,4.22-51.6,4.41-4.78,0-7.42-3.4-9.84-6.89-22.36-32.28-44.67-64.6-67.31-96.71-1.83-2.59-3.15-11.08-9.79-3.53-6.72-6.93-13.5-13.84-10.08-24.52,12.24-.41,27.35-5.79,27.75,14.39L651.59,642c.32.28.64.54.93.83,9.73,9.86,21.26,12.67,35.17,9.44C692.75,651.11,698.91,651.62,702.52,657Z"/><path class="cls-24" d="M1058.54,627.52l-18.42-.64c-3-2.44-1.73-6.61-4.16-9.28-25.23-29.44-50.59-58.79-75.62-88.38-7.85-9.28-16.79-17.86-22.56-28.64,3.5-6.17,7.73-4.76,12-1,4.84,4.27,9.58,8.64,14.36,13,2,2,2.42,4.85,4.25,6.94Q1013.49,573.53,1058.54,627.52Z"/><path class="cls-25" d="M197.3,476.13q63.66.18,127.33.39c5.08,0,10.16.36,15.24.54,1.83,5.57.5,9-6.45,8.79l-126.07,0c-3.34-2.43-7.28-1.41-11-1.7-2.93-.23-6.52,0-6.59-3.88C189.67,475.23,194.51,477.1,197.3,476.13Z"/><path class="cls-26" d="M399.87,530.08l44.09.32c17.05-.46,32.81-7.5,49.68-8.88,12.18-1,24.33-3.18,36.63-1.35-1.78,5.09-7.77,1.77-10.59,4.78-26.09,4.12-52.15,8.32-78.25,12.3-4.85.74-7.9,2.18-7.78,7.51q.45,21.29.4,42.59c0,7.19,4.13,6.67,9.27,5.18q41-11.87,82-23.69c1.55.36,4.21.38,4.45,1.12,1.14,3.51-2.26,3.5-4.44,4.14-19.88,5.84-39.63,12.2-59.74,17.21-16.67,4.16-32.25,13.09-50.42,11.16a3.44,3.44,0,0,1,.42-1.53c6.31-6.28,8-13.88,7.28-22.28-.31-3.63,0-7.3-.07-10.95-.19-8.51,2-17.49-.79-25.41-3.29-9.38-15.95-2.57-22-8.72A2.55,2.55,0,0,1,399.87,530.08Z"/><path class="cls-27" d="M371.25,471.31c-2-9.33,4.95-22-3.16-27.4-6.6-4.42-18.88-1.43-28.64-1.3q-74.67,1-149.33,2.31l-2.86-6.87,189.47-.13c-1.25,11.42,2.46,23.16-2.47,34.34A2.79,2.79,0,0,1,371.25,471.31Z"/><path class="cls-28" d="M968.43,519.53c-4.64-.53-4.4-3.76-4.25-6.94,10.31,1.7,19.25-4.27,29.59-4.63,9.36-.32,18.48,2.35,28.13.27,9.85-2.12,20.21,1.34,30.76.48,12.44-1,25.23,1.14,38-.08,2.38-.23,1.37,4.13,1.84,6.39-33.67.09-67.34.89-101-1.12C983.8,513.44,974.3,511.22,968.43,519.53Z"/><path class="cls-29" d="M625.19,490.33l-.05,6a160.35,160.35,0,0,1-32.93-.6c-14.39-1.72-15.51-3.37-12.51-17,5.59-1.44,11.49,2.25,17-1C608.57,477.08,619.26,478.84,625.19,490.33Z"/><path class="cls-30" d="M385.22,651.39l7.28-.7c2.52.17,5,.56,7.55.48,7.46-.24,12.81,2.77,11.32,10.09-1.53,7.52-7.65,11.57-16,8.86-5.16-1.69-10.12-3.75-15.62-4.16C374.4,658.68,381.29,655.54,385.22,651.39Z"/><path class="cls-31" d="M553.57,488.73c2.91,6.25,6.19,12.38,8.58,18.8,1.63,4.39.66,8.6-5.85,7.41-11.41-2.1-19.26-17.26-14.88-28.2C546.43,482.13,550,485.47,553.57,488.73Z"/><path class="cls-32" d="M530.27,520.17c-25.41,2.25-50.46,6.71-75.54,11-3.73.63-7.4,2.39-10.78-.75,5.09-1.36,10.59-1.56,15-4.84,20.55-4.33,40.81-10.85,62.36-7.75C524.34,518.25,528.22,516.23,530.27,520.17Z"/><path class="cls-33" d="M566.94,447.06q3.25,8,6.49,16.07-11.31-.24-22.62-.44c-3.6-4.65-2.48-10-2.69-15.23C554.25,441.08,560.55,442.36,566.94,447.06Z"/><path class="cls-34" d="M385.22,651.39c.73,5.71-3.62,9.72-5.43,14.57l-19.73-6.74c.8-6.43,4.66-8.48,11.22-7.8C375.87,651.91,380.57,651.44,385.22,651.39Z"/><path class="cls-35" d="M522.78,476.87l-5.17-.66c-8.8-4.1-18.26-2.74-27.08-1.37-10.07,1.56-20,1.58-30,1.4,11.12-7,23.73-3.74,35.72-4.69,8.75.17,17.55-.08,26.26.67C528.43,472.74,527.88,475,522.78,476.87Z"/><path class="cls-36" d="M553.57,488.73l-12.15-2-1.77-7.92c3.54-3.58,8.7-2.19,12.9-3.75Z"/><path class="cls-37" d="M871.33,651.5c10-4.44,20.5-5,31.25-4.16C892.62,651.84,882.14,652.75,871.33,651.5Z"/><path class="cls-38" d="M594.78,481.23c-6.2,5.72-10.22-.69-15.08-2.45a1.89,1.89,0,0,1-.47-1.82c4-1.54,8.16-2.51,12.5-1.15C594.31,476.82,595.85,478.36,594.78,481.23Z"/><path class="cls-39" d="M922.54,396.19c-9.61-16.78-30.19-23.35-43.68-9.34-5.94,6.18-12.1,12.4-19.16,17.61-4.14,1.33-7.41,3.93-10.4,6.8-14.93,14.3-29.6,28.86-47.4,40.06-13.65,14.65-30.8,25.78-44.69,40.16-2.58,7.5-4.89,14.94,4.24,20.23,5.51.93,9.89-1.69,14.43-4,24.25-12.2,50.92-13.07,77.22-12.93,27.65.15,55.18,3.87,82.5,8.36,6.11-2.13,11.1-.76,15.62,3.7,3.72,3.68,7.55,7.48,13.21,8.57,11.61-.62,22.54-6.05,34.49-4.29,17.91,2.63,36,.52,53.88,1.3,13.2.58,26.78-2.6,39.66,2.57l7.58.9h28.7l.78-2.85Zm80.55,87.21c-23.29-1.87-46.61-.36-69.91-.83-12.57-.25-14.74-2-15.42-13.82a111.33,111.33,0,0,1,.21-18.08c.27-2.17-.05-4.69,3.55-5.52-13.87.82-27.38.71-40.43,4.58a10.38,10.38,0,0,1-9.67-1.75,5.27,5.27,0,0,1-1.1-3.57c1.1-4.16,4.65-5.63,8.42-6.46,14.8-3.22,29-9,44.34-9.93l87.28,49C1012.13,483.39,1007.33,483.75,1003.09,483.4Z"/><path class="cls-40" d="M684.19,501.58c17.75-.69,17.48-.7,18.54-18,.59-9.63,2.29-19.2,3.5-28.8-7.14-13.77-3.86-28.13-2.71-42.36,2-11.75,4-23.51,5.08-35.4,2.91-4.69,2.55-12.87,12.18-10.58,8.72,9,9.12,9,17.3-.15,4.63-2.36,8.18-1.19,10.84,3,3.34,12.67,5.85,25.43,4.65,38.59-1.07,9,3.13,17.15,4.51,25.76a63.21,63.21,0,0,1,.1,20.22c-.57,12.95,7.17,25.29,3.19,38.49-3.68,6.11-3.73,12.19.17,18.23-3.76,10.84,1.23,21.47.85,32.22-.09,2.58,2.17,6.33-1.87,7.35-4.67,1.18-4.21-3-4.35-5.53-.33-5.65-4.56-4.8-8.27-4.82-11.51,0-23,.1-34.53-.07-5.5-.08-10.42-.11-10.38,7.08,0,2-1,4.26-3.83,3.52-2.66-.7-2.12-3.15-2-5.07.7-8.07,1.37-16.13,2.29-24.18C701.47,503.61,701.53,503.61,684.19,501.58Z"/><path class="cls-41" d="M754.23,454.56l-4.9-45.46c8.33-5.81,17.95-3.41,26.91-3,7.58.33,15,.58,22.51-.51a9.6,9.6,0,0,1,6,2.53l15.42-.14c6.44-3.89,14.4-.93,21-4.21,6.9,1.93,15.88-5.48,21,4.23-10.53,5.19-17.08,14.73-26.15,21.58-10.72,8.1-20.71,17.07-31,25.66-12,4.84-24.54,4.82-37.21,4.39C762.6,459.42,757.72,458.78,754.23,454.56Z"/><path class="cls-42" d="M920,447.11c6,7.62,2.38,16.36,2.88,24.56.38,6.31,2,9.75,9.42,9.69,23.32-.2,46.65-.06,70,0,3.59,0,6.81-.52,8.1-4.35l9.61,5.35-.49,3.23-173.24-4.31c-8.09-14.27-4.7-23.13,11.11-26.37,17.6-3.62,34.92-8.82,53.09-9.69C913.86,445,917.2,444.66,920,447.11Z"/><path class="cls-43" d="M754.23,454.56l50.79.65-43.65,37.07C755.52,480.3,753.46,467.67,754.23,454.56Z"/><path class="cls-44" d="M923.07,428c-12.14,9.76-28,9.58-42.11,14.14-3.09,1-6.83.11-9.56,2.58-4.15,2.66-8.27,8.71-12.51.09,10.62-9.15,21.37-18.17,31.79-27.52,3.94-3.54,7.11-4.73,12-1.37C909.19,420.37,916.26,424,923.07,428Z"/><path class="cls-45" d="M920,447.11c-22.2,3.95-44.37,8.08-66.62,11.75-6,1-7.93,3.66-7.51,9,.35,4.44.28,8.92.39,13.38l-5.08.06c-7.49-6.76-5-13.67-.33-20.61,1.75-4.44,5.8-6.57,9.77-8.79,6.55-3.29,13.63-4.54,20.94-4.92,18.06-3.09,35.87-9,54.77-4C926.18,446.92,921.5,445,920,447.11Z"/><path class="cls-46" d="M840.83,460.7l.33,20.61c-7.84.78-15.67,1.18-25.43-.7C824.92,473,831.32,465.18,840.83,460.7Z"/><path class="cls-42" d="M871.54,447c-6.67,2.81-13.47,5.17-20.94,4.92l8.29-7.08c4.2,3.58,8.33-1,12.51-.09A18.88,18.88,0,0,1,871.54,447Z"/><path class="cls-47" d="M592,447.34q-5.07-26.83-10.15-53.67c1.62-1.23,3.57-2,5.08-3.37-1.67,1.16-3.43,2.19-5,3.45-2.59-1.84-2.74-4.49-2.71-7.21-2.77-10.67,5.32-16,10.78-22.91-5.08,6-10.88,11.67-16.59,17.42-17.65-15.89-39.45-24-62.38-29.89-4-5.53-3.32-11,.18-16.48a9.32,9.32,0,0,1,3.14-2.25c10.35,0,17.8-8.24,27.92-8.93,7.53,3.72,14.25,3.33,19.63-3.6,5.59-9.83,4.93-19.75.59-29.72-5.8-1.52-10.79-.86-14,4.65-.57,4-.58,8.1-3,11.64a10.2,10.2,0,0,1-6.72,3.86c-3.49-.1-6.91-.49-10-2.28-4-2.92-5.1-6.95-4.52-11.49.62-5-1.28-9.21-3.88-13.29-2.29-9.16-5.15-18.11-11.25-25.78-.19-1.64-.24-3.63,1.08-4.52,12.08-8.15,14.48-21,18.31-33.23-.77-12.38-5.39-18.51-15.26-20.17-7.65-1.29-21.85,6.49-25,13.73-3.73,8.66,2.54,14.32,7,20.54,2.12,5.9,1.61,11.42-2.56,16.42-8.82,7.11-22.62,7.21-28.63,18.32a15.3,15.3,0,0,0-4.5,7.86c-7.16,19.17-12,38.67-9.12,59.18.76,5.44,1,10.47-3.75,14.5q-.58,12.31-1.16,24.64c-14,8.34-29.1,5.39-44.06,4l-109.31.81c-26.24-1.87-26.24-1.87-26.24-27.58,0-53.57.2-107.13-.17-160.7-.06-9.28,2.4-12.54,12.85-12.52q228.79.47,457.59,0c10,0,13.29,2.6,13.07,12.34-.64,28-.25,56-.18,84,0,4.7-1.54,9.93,3.94,13.19-6.2,8-15.93,6.55-24.35,7.53-24.82,2.87-49.49,6.73-75.15,9.64,12,3.58,24.18,3.16,34.53,9.13,2,1.9,2.66,4.35,3.14,6.87-.21,9.34,4.31,17.7,6.22,26.6.19,3.15.4,6,3.45,8.42s4.71,5.69,1.61,9.38c-12.65,6.56-26.8,2.28-40.13,4.81-8.39,1.6-12.47,3.16-9.42,11.88a18.08,18.08,0,0,1,.35,10.84c-2.39,7.95.2,14.08,6.36,19.36,2.31,12.07,5.26,24.16-2.75,35.48-16.52,2.58-33.06,4.91-49.91,4.15C601.29,452.11,596,451.49,592,447.34Z"/><path class="cls-48" d="M686.35,315.86q-20.22-2.72-40.43-5.44c-3.06-.42-6.29-1.11-6-4.88s3.6-3.93,6.63-4.29q53.22-6.47,106.43-13l15.92,2.22c10.39.91,20.55,4.05,31.15,3,1.64-1.07,3.16-1.34,4.34.6,15.52,4.68,31.89,4.27,47.72,7.11,2.85.52,6.1-.37,8.31,2.25-3.79,4.14-9.33,4.06-14.17,4.39-16,1.08-31.4,6.14-47.48,6.62-13.94,0-25.59-7.63-38.64-10.56-1.91-.36-3.83-.74-7.23-1.31,3.61.82,5.87.91,8,1.59,5,2.59,12.4,1.38,14.84,8.2,0,2.16-.83,4.57-2.79,5.08-9.82,2.59-18.21,10.77-27.46,11.17C725,329.57,704.32,327.31,686.35,315.86Z"/><path class="cls-49" d="M359.4,163.82c-10-21.17-23.71-38.69-47.69-47.59-9.41-3.49-19-7.81-26.42-14.78l1.52-2.69,42.76,21.64,1.79-1.2L291.13,58.39c12.17,6.36,16.36,18.43,27,30.12V65c4.18-.67,5.07,1.63,5.09,4.93,0,9.32.12,18.64.35,28,0,1.08,1.08,2.17,1.75,3.2,10.27,15.82,20.57,31.62,32.71,50.28,1.36-21.65,2.54-40.33,3.71-59l4.3.31c.68,23.9-4.84,47.84-1,71.72Z"/><path class="cls-50" d="M453.61,164.29c-4.73-11.2-1.83-22.58-2.18-33.89l4.7-.3v34.06Z"/><path class="cls-51" d="M411.07,163.86c2-7.39,2.35-15.26,7.49-24,3.76,10-.66,17.08-2.2,24.41Z"/><path class="cls-52" d="M846.56,220.42c3.89,17.28-2.33,34.23-1,53,21.84-21.32,37.85-46,57.37-68-16.49,29.64-39,55.31-61.37,81.05L843.6,289,887.17,275l1,3a301.62,301.62,0,0,1-62,19.9C846.7,273,838.8,245.22,846.56,220.42Z"/><path class="cls-53" d="M796.36,311c21.24-3.39,42.54-6.22,64-7.54,2.67,5.83-2.21,5.94-5.8,6.56-8.82,1.54-17.64,3.39-26.54,4-11,.79-16.49,5.25-15,16.08a3.54,3.54,0,0,1-.39,4.94c-2.94,4.26-1.15,10-5,14-2.39,3-5.32,2.87-8.5,1.3C793.67,337.61,795.88,324.27,796.36,311Z"/><path class="cls-54" d="M799.38,349.81l8.32-.68,2.29,5.59q-3.51,2.67-7,5.36a79.8,79.8,0,0,1-23.61,12.21,12.24,12.24,0,0,1-9.71-1.59c-4.21-7.24,3.12-9.66,6.36-13.79,4.64-4.1,10.4-6,16.39-7.33A13,13,0,0,1,799.38,349.81Z"/><path class="cls-55" d="M804.38,294.14l-4.34-.6c5.52-3.45,4.86-8.78,5-14.05.32-10.59-1.39-21.28,1.13-32.88C812.86,259.66,811.38,288.33,804.38,294.14Z"/><path class="cls-56" d="M812.69,335.11l.39-4.94c14.76-7.1,31.22-8.2,47-11.91C846,328.13,827.5,327,812.69,335.11Z"/><path class="cls-57" d="M537.42,94.71c-5.19,16.43-18,28.16-27.59,41.76-5.42,7.69-12.54,14.28-18.86,21.4-1.64,1.85-3.06,4.36-6.05,3.61s-3.28-3.73-2.91-6c2.7-16.48,2.13-33.4,6.46-49.65l3.4.22c-1.44,14.71-2.87,29.41-4.67,47.9C508,134.26,521.23,113.38,537.42,94.71Z"/><path class="cls-58" d="M779.24,368.9A67.47,67.47,0,0,1,803,360.08q-1.32,2.07-2.63,4.14c-4.67,15.17,6.91,28.88,4.39,43.87l-4.91.79c-3.31,1.05-6.73.39-10.1.6-5.81.37-7.68-2.64-6.78-7.5.74-4,.92-8.11,2.25-11.86C788.22,381.6,786.8,374.56,779.24,368.9Z"/><path class="cls-59" d="M841.15,403.74c-6.12,5.31-13.53,4.85-21,4.21C825.75,400.17,834,404.42,841.15,403.74Z"/><path class="cls-60" d="M1036,617.6c4.8,1.71,4.81,5.36,4.16,9.28Q959.51,633.95,878.9,641c-22.43,2-44.88,3.74-67.3,5.78-36.37,3.31-72.72,6.77-109.08,10.17-6.74.15-13.53-.09-20.22.55-20.58,2-20.56,2.1-30.71-15.49,4.13-1.27,8.09-6.3,11.52,1.88,3.26,7.79,10.62,4.86,16.56,2.56,21.75-8.46,43.91-16,67.41-17.8,25.42-1.9,51-3.41,76.39,1.36,17.89,3.37,34.69,4.87,52.74-3.12,50.11-22.17,102.18-20.76,154.4-6.67C1034.25,621.21,1035.11,620.21,1036,617.6Z"/><path class="cls-61" d="M401.41,378.72c14.43-3.93,29.37-2.7,44.06-4L452,381.9c-3.93,9.15-12.64,6.16-19.83,7.06-5.6.7-13.39-2.06-15.5,5.11-2.37,8.11-2.95,17,.77,25,2,4.29,7.31,3.36,11.49,3.59,20.53,1.1,40.83-1.52,61.16-3.49,6.27-.6,11.86-.22,16.8,3.74,1.23,2,2.45,4,3.68,6a6.63,6.63,0,0,1-6.27,3.47c-33.31-1.56-66.14,6.18-99.44,4.73-3.78-17.3-2.17-34.74-1.3-52.14C403.7,382.39,403.91,380.26,401.41,378.72Z"/><path class="cls-62" d="M405.16,574.27c-2.54,6-8.07,3.62-12.21,3.39-26-1.42-51.9-.81-77.87,0-8,.25-13,2.12-15.11,9.52.67-4.74-1.77-9.9,2.14-14.2,21.24-8,25.25-27.2,32-44.62,3.51-5.62,8.69-7.22,15.15-5.7,6.49,4.25,13.28,1.86,20,.71a19.61,19.61,0,0,1,10.41,3.7c11.6,7.45,12.77,19.55,14.4,31,.89,6.25,2.8,10.75,9,13.26A6.46,6.46,0,0,1,405.16,574.27Z"/><path class="cls-63" d="M335.87,529.92c4.06,4.14,2.22,8.31-.21,12.23-5.34,8.61-11.5,16.5-14.63,26.56-2.64,8.52-12,4.79-18.92,4.28-.35-14.61,7.37-26.53,14.21-38.75,2.49-4.35,4.61-9.09,11-9.36C331.47,524.53,334,526.79,335.87,529.92Z"/><path class="cls-64" d="M163.61,290.61c20.44,1.57,39.11,11,61,14.3-20.44-25.39-41.92-48-63.74-70.49,31,21.78,53.41,51.39,80.2,82.23l-7.23-52.44c9.85,18.73,10.1,38.38,9.07,59C220.33,302,188.75,304.31,163.61,290.61Z"/><path class="cls-65" d="M184.74,337.16c19.72-1,38.81,2.94,57.67,8.38C222.57,347.22,203.91,341,184.74,337.16Z"/><path class="cls-66" d="M335.87,529.92c-3.78-.27-7-1.35-8.58-5,12.72-11.49,4.08-26,6.13-39l6.46-8.79c9.52-6.48,20.35-6.6,31.37-5.75l3,.95,10.43,10c1.57,12.24-3.42,26,9.27,35.73.27.21-.85,2-1.31,3.13-1.87,7.88-6.55,11.65-15.31,9.47l-7.48-5.5c-6.21-3.82-2.72-9.14-2.38-14,.2-3,2.35-6.92-1.82-8.45s-8,1.64-11.9,2.81-3.23,3.95-2.6,6.86c.95,4.4,4.71,9-.48,13.19C345.14,525.16,339.84,525.51,335.87,529.92Z"/><path class="cls-67" d="M400.41,533.13c28-2.6,28-2.6,28,23.12,0,10.87-.71,21.78.11,32.59.73,9.66-3.13,13.31-12.88,12.1-4.58-4.05-2-8.83-1.46-13.38s2.43-9.76-4.77-11.49c-5.65-8.32-1.07-18.24-4.7-26.86-.69-1-1.35-2-2-3C400.84,542.06,397.71,538,400.41,533.13Z"/><path class="cls-68" d="M368.64,625.42c-2.51,1.31-5.69,2.08-7.42,4-11,12.38-18.18,4.6-25.29-4.07Z"/><path class="cls-69" d="M407,545.85c6.49,9.67,2,20.11,2.35,30.22L407,574C402.12,564.58,401.91,555.21,407,545.85Z"/><path class="cls-70" d="M407,545.85q0,14.05,0,28.1a6.7,6.7,0,0,1-1.83.32l-1.23-.28c-5.76-10-7.3-19.82,1.29-29.25A12.36,12.36,0,0,1,407,545.85Z"/><path class="cls-71" d="M506.9,422.9c-28.31,2.6-56.63,5-85.12,5.31-8.12.1-11.72-1.78-11.09-10.08.8-10.42-3.31-23.34,1.81-30.75,5.81-8.41,20.44-2.1,31.11-3.45,2.9-.37,6,.19,8.4-2,13,5.58,25.66,12.08,39.6,15.28,6.82,1.57,7.67,6.25,9.26,11.28S504.86,418.1,506.9,422.9Z"/><path class="cls-72" d="M446.63,350.12c-1.31-26.58-2-53.08,10.39-78,6.55,2.44,7.27,3.16,5.08,10.72a169.72,169.72,0,0,0-5.68,33.49c-.8,9.61,3,14.18,13.8,14.06,10.33-.11,20.33-1.83,30.47-3,5.53-.63,14.14-2.8,12.21,8q-1,7.91-1.93,15.78l-11,3.61C481.81,356.88,463.64,359.44,446.63,350.12Z"/><path class="cls-73" d="M566.94,447.06l-18.82.4c-8.57-4.16-2.1-13.32-6.9-18.73.11-3.56,5.06-5.88,2.78-10.06-.37-7.23-2.62-14.84,4.76-20.39,4.39-.19,6.69,1.4,7.7,5.88C559.67,418.52,563.41,432.77,566.94,447.06Z"/><path class="cls-74" d="M548.76,398.28A77.63,77.63,0,0,0,549,422c-3.18,4-6.39,3.89-9.64.09-2-7.25-4.16-14.45-5.82-21.76-.72-3.2-1.94-7.55,4.49-7C541.29,395.48,546.12,394.76,548.76,398.28Z"/><path class="cls-75" d="M539.32,422,549,422c2,.3,4.3.56,4.6,2.92s-1.62,3.29-3.81,3.46c-2.84.22-5.69.27-8.54.4A6.3,6.3,0,0,1,539.32,422Z"/><path class="cls-41" d="M655.93,447.38q.23-18.4.43-36.82c11.3-7.3,41.14-7.18,52,.22l-2.1,44c-12.74-.1-25.47-.11-38.2-.35-4.08-.08-8.61,1.22-11.93-2.46A3.22,3.22,0,0,1,655.93,447.38Z"/><path class="cls-76" d="M594.78,481.23l-3-5.42c4.27-4,.32-9,1.74-13.29,10.71-7.8,21.09-7.8,31.55,0q.09,13.91.17,27.81C615.86,484.86,605.92,481.23,594.78,481.23Z"/><path class="cls-77" d="M625,462.52l-31.56,0c-2.18-4.93-1.57-10.09-1.48-15.2l63.95,0c.06,1.52.11,3.05.17,4.57C645,453.41,632.72,452,625,462.52Z"/><path class="cls-78" d="M573.37,381.05c2.57-5.68-9.49-11.19-.12-16.95,5.34,1.41,1.38,7.5,5.2,9.75,9.36-13.23,9.36-13.23,25.47-6.66-18-3.8-21.43,7.69-24.74,19.35A9.17,9.17,0,0,1,573.37,381.05Z"/><path class="cls-79" d="M405.22,544.74c-1,9.73,1.3,19.59-1.29,29.25-10.74,1.29-14.91-2.26-14.82-13.4.08-10.77-.91-22.51-11.78-30,8.35,1.56,8.47-8.89,15.33-9.48,2.26,3.09,1.47,8.41,7.21,9l.54,3C402.41,536.85,405.44,540.19,405.22,544.74Z"/><path class="cls-35" d="M512.91,476.67c-10.1,2.89-20.31,5.13-31,4.41C491.7,476.1,502.24,476,512.91,476.67Z"/><path class="cls-80" d="M708.33,410.78c-17.31-1.36-34.64-.9-52-.22-3.79-.35-7.67-.37-11.35-1.17-2.68-.58-4.81-2.88-2-5.19,11-9.1,7.25-21,2.31-29.28-5.31-8.93-1.12-7.62,4.73-8l52.17-3.22c11.72-2.22,11.72-2.22,11.69,11.4C711.27,386.89,713.49,399.36,708.33,410.78Z"/><path class="cls-81" d="M779.24,368.9c16,.12,16,.1,12.26,15.2-1,4.29-.74,9-2.55,13-5.55,12,1.92,12.36,10.9,11.82-16.83,2.47-33.68,1.34-50.52.21q-1.49-19.57-3-39.17c7.37-6.07,14.91-6.35,22.64-.62Z"/><path class="cls-82" d="M769,369.3l-22.64.62c-2.58-3.35-5.24-4.52-8.08-.26-6,4.42-11.78,4.87-17.29-.74-9.3-5.07-4.54,4.36-7.11,6.21.27-7.68-2.83-12.22-11.69-11.42-1.76-5.51-15.93-4.7-8.43-14.93,4.18-3.09,8.82-2.5,13.29-1.07,20.14,6.4,40.37,11.67,62,8a10.33,10.33,0,0,1,10.19,3.62Z"/><path class="cls-83" d="M730,533.52c-5.12,0-10.24.06-15.35,0-4.62-.08-9.75.77-9.25-6.47.38-5.52,1.42-9.31,8.66-9,10.64.39,21.33.47,32,0,7.57-.33,7.88,3.82,8.32,9.11.6,7.07-4.15,6.72-9,6.7-5.12,0-10.24,0-15.35,0Z"/><path class="cls-84" d="M712.51,473.66c10.2-3.48,20.73-1,31.09-1.42,6.66-.25,4.66,5.26,5.34,8.83.76,1.54,1.19,3.42,0,4.57-3.64,3.49-31.85,4.64-35.68,1.38C708.48,483,710.65,478.23,712.51,473.66Z"/><path class="cls-85" d="M729.54,447.27a9.63,9.63,0,0,1-2.52,0c-4.86-1.39-13.77,3.74-13.69-5.41.07-8.38,8.15-8.68,15.13-8.58,2.53,0,5.07.18,7.59.09,7.38-.27,9.82,4.76,9.7,10-.14,6.35-6.26,3.23-9.89,3.81a40.34,40.34,0,0,1-6.32.06Z"/><path class="cls-86" d="M747.5,454.81c2.53,8.6.15,13.2-10.28,12a53,53,0,0,0-12.77,0c-10.61,1.35-14.09-2.77-11.34-12.3C724.59,452.75,736.06,452.23,747.5,454.81Z"/><path class="cls-87" d="M708.31,503.26c-.58-3.75-1-7.06,4.78-7.6,5-.47,32.57.45,38.62,2-1.25,4.41-5.19,6.77-8.13,9.83C731.22,510.61,719,512.51,708.31,503.26Z"/><path class="cls-88" d="M708.31,503.26l35.26,4.27c2.24.63,5.26-.35,6.83,4.68-13.13,0-25.79.29-38.43-.11C705,511.87,707.41,507,708.31,503.26Z"/><path class="cls-89" d="M717.63,410.56c-1.66-7.55.83-11.36,9.69-11,7.91.33,17.29-2.32,15.9,10.43C734.77,413.55,726.21,412.4,717.63,410.56Z"/><path class="cls-90" d="M728.12,427.94c-3.69-1.06-12,2.55-12.32-2.86-.39-6.83,7.67-6.74,13.7-6.41,1.69.09,3.39.16,5.08.1,4.5-.17,9.33,0,8.73,5.76-.57,5.56-5.91,2.74-9.21,3.36C732.47,428.19,730.72,427.94,728.12,427.94Z"/><path class="cls-91" d="M728.91,394.32c-4.15-1.11-10.63,2.06-10-5.69s7-5.33,11.5-5.33c4.07,0,10.17-2,10.24,5.17C740.73,397.85,732.76,392.49,728.91,394.32Z"/><path class="cls-92" d="M712.51,473.66c-1.32,9.57,2.56,14.78,13.12,12.53,7.77-1.65,17.71,5.23,23.31-5.12,2.17,2.75,2.24,5.38-.51,7.84-10.88,2-21.89,1-32.8.78s-6-7.92-5.74-13.21Z"/><path class="cls-93" d="M721,368.92l17.29.74c3,6.76-1.07,7.71-6.68,7.18C726.37,376.34,718.27,379.13,721,368.92Z"/><path class="cls-94" d="M709.89,476.48c-1.24,9.84,3.31,13.27,13.58,12.33,8.24-.75,16.63,0,25,.1C737,493.4,725,491.7,713.52,490.47,704.37,489.5,706.82,482.24,709.89,476.48Z"/><path class="cls-95" d="M747.5,454.81l-34.39-.32C724.61,450.85,736.08,450.45,747.5,454.81Z"/><path class="cls-96" d="M717.63,410.56l25.59-.57C734.82,415.51,726.26,414.43,717.63,410.56Z"/><path class="cls-97" d="M512.9,335.39c-1.85-6.52-6.58-4.94-11.2-3.54-12.81,3.88-26,3.42-39.23,3.44-8.13,0-11.45-3.51-11.41-11.11.08-15,1.29-29.73,6.76-44,.89-2.33,4.62-5.92-.8-8.09-.1-2.86,1.38-4.48,4.32-4.93,5.58-3.79,9.91-11,18.57-6.74,8.45,4.18,9.1,11.88,9.34,19.74.3,10.06-4.08,19.44-5.7,30.17,12.21-.95,22.67-4.48,33.54-5.47,4.65-1.28,8.76,1.25,13.17,1.66,2.87-.1,5.75-.22,8,2a12.66,12.66,0,0,1,2.94,11.62c-5.9,9.45-18.36,8.43-26.21,14.78C514.29,335.08,513.6,335.24,512.9,335.39Z"/><path class="cls-98" d="M517.84,308.4c-11.89,2.78-23.82,5.42-35.66,8.38-6.58,1.64-7.95-.34-5.39-5.92,3.91-8.54,6.83-17.42,7.55-26.71,1.66-21.34-3.36-24.94-23-17,5.72-10.4,14.82-16,27.06-17.1,8.46-.05,13.25,9.05,22.12,8,13,3.33,11.83,13.4,12,22.82C523.81,290.48,527.35,300.45,517.84,308.4Z"/><path class="cls-99" d="M779.24,359.31c-29.82,6.26-57.92-.05-85.46-10.53a42.37,42.37,0,0,1-6.34-25.65c5.95-2.74,11.38-1.06,17,1.24,5,2.05,10.75,2.69,15.6,5.23,18.1,9.46,36,12.87,55.37,2.2,5.74-3.16,13.93-7.57,21.08-.46.64,6.85,2.49,13.77-1.54,20.3Z"/><path class="cls-47" d="M631.93,276.83l5.61,4.67a47.15,47.15,0,0,1,12.22,9.27c-7.27,3.6-13.27.11-19.21-.68-19.79-2.63-39.63-5.2-59.13-9.36-11.69-2.5-14.58-7.24-12.78-18.29,1.24-7.59,2.83-15.14,3.91-22.74.9-6.24,3.74-6.8,8.39-3.52,7.85,5.55,16,10.66,23.85,16.24l-.12-.08c5.81,4.38,12.26,7.92,18.09,12.27l-.14-.09C619,268.76,625,273.5,631.93,276.83Z"/><path class="cls-100" d="M794.29,330.41c-8.37,2.8-17.45,4.45-25,8.64-13.61,7.6-26.44,6.76-39.6.09-13.48-6.84-28.11-10.88-42.29-16-.36-2.42-.72-4.85-1.09-7.27,16.53,3,33,6.29,49.62,9,5.86.94,12.77,3.13,15.78-5.34,1.77-5,7-3.35,11-3.74,4.33-.42,9.8,1.52,11.28-4.86,8.26-4.69,15.08.05,20.44,4.47C799.05,319.14,798.91,325.4,794.29,330.41Z"/><path class="cls-101" d="M510.53,258c-4.07,7.22-9.2,5.4-14,1.13-3.05-2.67-5.4-6.06-8.06-9.12,4-5.18,5.32-10.78,2.89-17-.72-1.48-2-3.9-.94-4.51,9.55-5.45,16.19-15.9,29.07-15.67,6.17.11,10.47,3,12.9,8.4C530.07,236.24,525.87,250.13,510.53,258Z"/><path class="cls-102" d="M532.34,221.32c-16.12-7.67-25.5-4.74-33.8,10.53-2.17-1.56-.43-6.58-4.66-5.8-3.76.68-2.52,4.38-2.58,7-11.6-8.74-13.32-20.65-2.76-29,7.56-6,16.37-12.06,27.41-9.24C529.48,198.34,534.66,207.2,532.34,221.32Z"/><path class="cls-103" d="M594.79,252.42c-8.82-1.53-14.67-7.89-21.61-12.36-5.53-3.56-8.72-5.45-9.22,3.22-.3,5.22-1.78,10.37-2.55,15.58-1.8,12.15,4.12,19.89,17.42,22,22.21,3.44,44.49,6.53,67.54,9.88-3.25-3.39-6-6.29-8.82-9.2,9.23,1.56,14.84,8.05,20.78,15-13.67-1.95-27.37-3.78-41-5.87-17.6-2.7-35.12-5.86-52.75-8.33-7.63-1.08-11.63-3-9.47-11.6,2.76-11,4.21-22.23,6-33.4.82-5.13,2.7-8,8.09-4.16C577.88,239.32,588.33,243.51,594.79,252.42Z"/><path class="cls-104" d="M538.19,318.21a13.7,13.7,0,0,0-.46-1.89,5,5,0,0,1,4.18-3.69c7.81-.82,2.47-4.24,1.63-6.79q.11-7.14.22-14.28c5.15-2.11,10.56-2.23,16-2,10.88,10.07,7.21,21.84,4.34,33.51-8.55,11.77-14,12.38-21.27,2.37C540.69,323.4,541,319.9,538.19,318.21Z"/><path class="cls-105" d="M415.91,267c-19,8.08-39.31,12-59.7,15.69C375.18,274.41,395.49,270.64,415.91,267Z"/><path class="cls-106" d="M564.15,323.07c-.51-8.45-1-16.91-1.52-25.36-.23-3.8-.44-7.69-6.4-5.91-1.59.53-3.29,1.12-4.54-.41-1.48-1.82-.26-3.09,1.54-3.37,3.59-.57,6.65-4.07,10.74-1.78,4.26.64,5.62,3.59,4.91,6.94C566.79,303.08,574.34,314.37,564.15,323.07Z"/><path class="cls-107" d="M517.84,308.4q2.37-13.75,4.72-27.53c8.66,6.89,2.86,17.72,7.71,25.65C526.49,309.37,522.07,308.27,517.84,308.4Z"/><path class="cls-108" d="M538.19,318.21c6.94-.73,5.16,3.63,4.69,7.23-9.21,3.39-16.58,11.67-27.89,9.47-.3-5.25,3.47-6.16,7.76-7.81C528.26,325,535.89,325.53,538.19,318.21Z"/><path class="cls-109" d="M543.54,305.84c.42.08,1,0,1.23.25,3.76,4,13.45-3.12,13.33,4.35-.15,9.27-10,3.81-15.29,5.57-1.54.51-3.37.23-5.07.31-4.69-2.9-.53-5.26.52-7.81Z"/><path class="cls-110" d="M335.68,288.83c.12,1.59.23,3.19.35,4.78.33,4.3-.39,8.39-5.55,9.35-4.86.9-3.93-4.31-6-6.45s-3.79-5.17-2.19-9.25c3.09,1.28,8,11.5,9.08-.91.11-1.28,2.71,1.88,4.38,2.62Z"/><path class="cls-111" d="M547.77,258.8c-3.35-1.09-6.25-2.85-5.56-6.76.57-3.26,3.3-4.51,6.61-4.21,3.59.34,5.1,2.48,4.74,5.81S551.5,258.79,547.77,258.8Z"/><path class="cls-103" d="M599.16,303.37c-3.18-.32-6.22-1.15-5.29-5,.57-2.35-.23-6.56,4.2-6.07a6.93,6.93,0,0,1,6.14,5.42C604.81,301.16,602.56,302.86,599.16,303.37Z"/><path class="cls-112" d="M335.77,289c.54-2.46,1.67-4.5,4.28-5.48,2.27-.85,4.88-2.55,6.81-.21a6.46,6.46,0,0,1,.89,5.46c-.92,2.66-3.9,2.82-6.37,2.38-2-.36-3.81-1.5-5.7-2.29Z"/><path class="cls-113" d="M405.3,290.75c1.67,5.29-3.86,3.51-5.38,3.9-6.57,1.7-3.4-4.74-4.54-6.85-3.39-6.29,4.34-2.61,5.71-3.08C407.47,282.51,401.36,289.93,405.3,290.75Z"/><path class="cls-114" d="M564,286.24c-3.14,1-6.69,1.39-9.3,3.1-2.83,1.85.92,1.63,1.56,2.46-4.25,3.94-8.29-1.16-12.47-.24C549.42,286.1,555.65,282.62,564,286.24Z"/><path class="cls-115" d="M378.92,301.59c-2.9-2.19-4.13-2.75-4.07-3.12.73-4.58-6.39-6.69-4-11.58.28-.57,2.7-1,3.18-.55C378,290,377.45,294.92,378.92,301.59Z"/><path class="cls-116" d="M613,246.21c-6.94-1.88-2.2,6.24-5.84,6.29-2.51,0-4.26-2.75-3.72-5.41.64-3.2,3.08-4.72,6.55-4.23C611.71,243.11,613.12,244,613,246.21Z"/><path class="cls-117" d="M384.29,269.2c-2.6-1.95-3.55-2.31-3.82-2.93-1.68-3.86-3.22-7.78-4.8-11.67,1.09-.39,2.78-1.4,3.16-1.06C383.15,257.32,383.47,262.38,384.29,269.2Z"/><path class="cls-118" d="M581.89,393.75c1.73-3.42,4.61-6.45,3.49-11,5.72,1.21,8.11,5.13,6.7,8.88-1.52,4-7,.14-10.25,2Z"/><path class="cls-119" d="M388.09,297.74c-3-1.67-6.19-2.34-4.89-5.59.62-1.57.63-4.68,3.54-4,2.23.53,5.22,1.66,4.1,5A25.54,25.54,0,0,1,388.09,297.74Z"/><path class="cls-120" d="M612.76,264.61c-7.53-2.09-13.81-5.85-18.09-12.27C602.16,254.49,608.57,258.08,612.76,264.61Z"/><path class="cls-121" d="M631.93,276.83c-8.34-1.41-14.59-5.77-19.31-12.31C620.69,266.32,626.54,271.25,631.93,276.83Z"/><path class="cls-122" d="M794.29,330.41c.53-16-.65-17.15-20.28-19.53L758.9,306c-1.54-1.52-1.53-3,.09-4.49L796.36,311c6.25,12.56,2.08,25.85,3,38.77-.92,1.78-2.45,2.23-4.38,1.83Q794.66,341,794.29,330.41Z"/><path class="cls-123" d="M759,301.52,758.9,306c-.41.11-.83.18-1.23.32-5.42,2-10.78,2.59-15.61-1.26-1.65-1.31-1-3,.48-4.05C748.11,297.25,753.63,297.63,759,301.52Z"/><path class="cls-124" d="M350.68,525.52c.08-.8.47-1.7.21-2.38-8.72-22.05-8.8-22.47,14.6-26.21,6.72-1.07,7.81,5.21,8,10.51.17,6.14-5.11,11.26-3.6,17.64C363.6,530.67,357.28,533.47,350.68,525.52Z"/><path class="cls-125" d="M121.25,82.69h-2.73A15.5,15.5,0,0,0,121.25,82.69Z"/><path class="cls-126" d="M124.46,82.69v-.48q-1.77.35-3.21.48Z"/></svg>