<svg id="Layer_1" data-name="Layer 1" xmlns="http://www.w3.org/2000/svg" viewBox="0 0 1200 700"><defs><style>.cls-1{fill:#f9ac5f;}.cls-2{fill:#d24a44;}.cls-3{fill:#39b54a;}.cls-4{fill:#3eb4ef;}.cls-5{fill:#006837;}.cls-6{fill:#9cd3ee;}.cls-7{fill:#9dd3ee;}.cls-8{fill:#009245;}.cls-9{fill:#473521;}.cls-10{fill:#402c20;}.cls-11{fill:#ea524f;}.cls-12{fill:#473421;}.cls-13{fill:#fed12d;}.cls-14{fill:#22b573;}.cls-15{fill:#03658d;}.cls-16{fill:#143a50;}.cls-17{fill:#e5e5e5;}.cls-18{fill:#c7cae7;}.cls-19{fill:#a2191d;}.cls-20{fill:#113245;}.cls-21{fill:#62d8ee;}.cls-22{fill:#1d2225;}.cls-23{fill:#3fb4ef;}.cls-24{fill:#1a1a1a;}.cls-25{fill:#529489;}.cls-26{fill:#68d8ee;}.cls-27{fill:#ececec;}.cls-28{fill:#174059;}.cls-29{fill:#483623;}.cls-30{fill:#725745;}.cls-31{fill:#163f58;}.cls-32{fill:#174058;}.cls-33{fill:#c8e6f0;}.cls-34{fill:#153d54;}.cls-35{fill:#ec2128;}.cls-36{fill:#463421;}.cls-37{fill:#493723;}.cls-38{fill:#b0936f;}.cls-39{fill:#112e40;}.cls-40{fill:#fcd12e;}.cls-41{fill:#725845;}.cls-42{fill:#6a635d;}.cls-43{fill:#c6cae8;}.cls-44{fill:#c39a6c;}.cls-45{fill:#e6e6e6;}.cls-46{fill:#8cc63f;}.cls-47{fill:#7d7f7f;}.cls-48{fill:#402b1f;}.cls-49{fill:#3f2a1d;}.cls-50{fill:#e4e4e4;}.cls-51{fill:#3e4c69;}.cls-52{fill:#2a4d61;}.cls-53{fill:#885f40;}.cls-54{fill:#483522;}.cls-55{fill:#1b4156;}.cls-56{fill:#c9e0e6;}.cls-57{fill:#ae916e;}.cls-58{fill:#f5db6c;}.cls-59{fill:#b1b5df;}.cls-60{fill:#715845;}.cls-61{fill:#1c4258;}.cls-62{fill:#153446;}.cls-63{fill:#f9db5d;}.cls-64{fill:#827f7e;}.cls-65{fill:#f5de67;}.cls-66{fill:#c53f42;}.cls-67{fill:#483723;}.cls-68{fill:#efd360;}.cls-69{fill:#1b4359;}.cls-70{fill:#483826;}.cls-71{fill:#adb2dc;}.cls-72{fill:#f7d866;}.cls-73{fill:#cbcbcb;}.cls-74{fill:#41b3ed;}.cls-75{fill:#5a4635;}.cls-76{fill:#3da5d9;}.cls-77{fill:#fcde68;}.cls-78{fill:#4d3c2b;}.cls-79{fill:#402b1e;}.cls-80{fill:#145e7f;}.cls-81{fill:#cacce9;}.cls-82{fill:#223b49;}.cls-83{fill:#173b4e;}.cls-84{fill:#e9d56b;}.cls-85{fill:#ee5853;}.cls-86{fill:#415866;}.cls-87{fill:#caa755;}.cls-88{fill:#745a47;}.cls-89{fill:#fbdf73;}.cls-90{fill:#cfc592;}.cls-91{fill:#fbdf65;}.cls-92{fill:#404040;}.cls-93{fill:#adadd2;}.cls-94{fill:#f2e39c;}.cls-95{fill:#f9d74c;}.cls-96{fill:#fbd74d;}.cls-97{fill:#4bb4e5;}.cls-98{fill:#f6d841;}.cls-99{fill:#fad43e;}.cls-100{fill:#f7d53c;}.cls-101{fill:#f8d53e;}.cls-102{fill:#c79c26;}.cls-103{fill:#41b2e5;}.cls-104{fill:#213c4b;}.cls-105{fill:#3eb3ee;}.cls-106{fill:#c6c9e7;}.cls-107{fill:#8a6151;}.cls-108{fill:#d4d1e6;}.cls-109{fill:#865d4e;}.cls-110{fill:#f2f2f1;}.cls-111{fill:#efefed;}.cls-112{fill:#dccb63;}.cls-113{fill:#1f455b;}.cls-114{fill:#e86b5e;}.cls-115{fill:#645e58;}.cls-116{fill:#6b594b;}.cls-117{fill:#fcfcfa;}.cls-118{fill:none;}.cls-119{fill:#fcd12d;}.cls-120{fill:#f8fbfb;}.cls-121{fill:#f7fbfb;}.cls-122{fill:#f2f5f6;}.cls-123{fill:#f3fafa;}.cls-124{fill:#f2f9fb;}.cls-125{fill:#f3f9fa;}.cls-126{fill:#153f58;}.cls-127{fill:#908477;}.cls-128{fill:#9cd4ef;}.cls-129{fill:#a0d5ea;}.cls-130{fill:#53a761;}.cls-131{fill:#5a7d5a;}.cls-132{fill:#fcfcfc;}.cls-133{fill:#e8e3e6;}.cls-134{fill:#fbf9ee;}.cls-135{fill:#341e12;}.cls-136{fill:#eceeee;}.cls-137{fill:#f86061;}.cls-138{fill:#fae06f;}.cls-139{fill:#fdd22d;}.cls-140{fill:#c7e9f4;}.cls-141{fill:#cfa23c;}.cls-142{fill:#535658;}.cls-143{fill:#505d60;}.cls-144{fill:#3eb2ec;}.cls-145{fill:#3fb1ed;}.cls-146{fill:#888;}.cls-147{fill:#7f7e7e;}.cls-148{fill:#3aa2d7;}.cls-149{fill:#3ba8de;}.cls-150{fill:#3dace4;}.cls-151{fill:#4d4d4d;}.cls-152{fill:#595959;}.cls-153{fill:#4b5054;}.cls-154{fill:#e84f4d;}.cls-155{fill:#e6504e;}.cls-156{fill:#e74e4b;}.cls-157{fill:#67545b;}.cls-158{fill:#e4dfe1;}.cls-159{fill:#5c484d;}.cls-160{fill:#e85051;}.cls-161{fill:#e35250;}.cls-162{fill:#e4dedf;}.cls-163{fill:#dad0d1;}.cls-164{fill:#735845;}.cls-165{fill:#ebd261;}.cls-166{fill:#dacf68;}.cls-167{fill:#ae865a;}.cls-168{fill:#f6e072;}.cls-169{fill:#8f8377;}.cls-170{fill:#8f8276;}.cls-171{fill:#fcd57f;}.cls-172{fill:#84837f;}.cls-173{fill:#52a961;}.cls-174{fill:#dfe5e8;}.cls-175{fill:#e6e9e3;}.cls-176{fill:#a57a50;}.cls-177{fill:#f0da65;}.cls-178{fill:#745845;}.cls-179{fill:#fcd02a;}.cls-180{fill:#735945;}.cls-181{fill:#59abc7;}.cls-182{fill:#de8f4b;}.cls-183{fill:#db8e48;}.cls-184{fill:#3cb1ec;}.cls-185{fill:#c6e7f2;}.cls-186{fill:#157091;}.cls-187{fill:#bedfe3;}.cls-188{fill:#a57b53;}.cls-189{fill:#13364a;}.cls-190{fill:#fbd12e;}.cls-191{fill:#f6f7f5;}.cls-192{fill:#ad5248;}.cls-193{fill:#f8f9f8;}.cls-194{fill:#fbd339;}.cls-195{fill:#c6e8f1;}.cls-196{fill:#ad8547;}.cls-197{fill:#e5e5e4;}.cls-198{fill:#52aa61;}.cls-199{fill:#1c4459;}.cls-200{fill:#efda66;}.cls-201{fill:#73b8a3;}.cls-202{fill:#f5f8f7;}.cls-203{fill:#f4f9fa;}.cls-204{fill:#f4fafb;}.cls-205{fill:#f5fafa;}.cls-206{fill:#f0f7fb;}.cls-207{fill:#fdd12d;}.cls-208{fill:#52ab62;}.cls-209{fill:#262020;}.cls-210{fill:#7b7a7a;}.cls-211{fill:#757575;}.cls-212{fill:#787878;}.cls-213{fill:#6f706f;}.cls-214{fill:#6e6d6c;}.cls-215{fill:#646363;}.cls-216{fill:#8f9090;}.cls-217{fill:#898989;}.cls-218{fill:#727072;}.cls-219{fill:#c6ccfb;}.cls-220{fill:#fbfcfb;}.cls-221{fill:#ebd36b;}.cls-222{fill:#fbfaf2;}.cls-223{fill:#fbf9ef;}.cls-224{fill:#fbf9ed;}.cls-225{fill:#fbf6df;}.cls-226{fill:#fbfaf0;}.cls-227{fill:#efefef;}</style></defs><title>subject</title><rect class="cls-1" x="-1" width="1200" height="700"/><path class="cls-2" d="M880.17,408.49l-4.58-.76c-3.13-16.85-4.26-33.67.6-50.43a119.76,119.76,0,0,1,33.41,2.35c5.84-1.08,11.11-.36,15,4.77,31.4,12,44.74,36.53,47.72,68.33,4.4,7.71,4.27,16.29,4.44,24.71.36,17.9-.05,35.81-.15,53.71.14,5.57.69,11.19-1.36,16.59-5,4.29-6.72,9.73-6.18,16.22.28,3.29.21,6.7-1.43,9.79-4.45,4.12-10.25,3.26-15.56,4-2.68.35-5.46.06-8.19.52-5.23.88-10.6,1.57-11.47,8.31-.92,7.19,3.64,10.49,9.46,12.73,2.84,1.1,5.91,1.64,8.66,2.93,3.75,1.75,5.73,4.53,3.82,8.85-5.63,3.62-10.9,2.95-15.79-1.45-1.6-1.44-3.32-3.49-5.35-1.29s-.39,4.68,1.34,6.39c4.75,4.72,10.74,5.56,17,4.43,6-1.08,9.43-4.61,10.79-10.83,2.05-9.34,4.87-10.32,13-5.44a49.86,49.86,0,0,1,.18,23.36c-1.89,3.34-4.76,4.08-8.27,3.13-2-3.57-5.4-2.13-8.19-2.14-14.59-.05-29.19.28-43.79.15-3,0-6.64,2-9.1-1.61,6.64-3.22,8.18-8.61,8.13-15.74-.27-43.16-.15-86.31-.12-129.47,0-8.92-1.59-17.67-2.5-26.48C910.27,421.16,899.17,411.07,880.17,408.49Z"/><path class="cls-3" d="M974.11,511.93c-.82-26.39.51-52.83-1.82-79.18,4.72-3.72,9.38-7.49,12.57-12.72,5.1-6.79,12-10.7,20.17-12.58a331.72,331.72,0,0,1,73.64-29.51c8.81-2.32,17.86-3.71,26.69-6,5.59-1.43,7.16-.43,5.71,5.57-6.65,27.43-16.27,53.63-30.76,77.94-.63,1.05-1.23,2.11-1.84,3.17-2.19,6.16-4.56,12.19-10.81,15.53-5.42-2-5.45-7.74-8-11.7-7.15-11.14-11.5-12.32-21.83-5.06a21.8,21.8,0,0,1-6.3.12c-10-6.17-14.36-5.24-21.55,4.5-3.24,4.38-4.54,9.9-8.3,14A68.53,68.53,0,0,0,979,505.19C977.91,507.71,978.4,511.63,974.11,511.93Z"/><path class="cls-4" d="M833.58,540.59c-2.4,18.52-1,37.12-.83,55.67.08,8.54-1.62,11.8-10.87,11.26-15.51-.9-31.1-.4-46.65-.5-3.23-3.16-2.79-7.32-2.8-11.23-.08-46.86-.69-93.74.27-140.59.4-19.43,1-39.38,11.27-57.11,2-3.39,3.3-7.4,7.82-8.41,4.62.75,5.17,4.66,6.11,8.12Q816.2,465.35,834.18,533C834.85,535.49,836.31,538.26,833.58,540.59Z"/><path class="cls-5" d="M173.21,510.43c3.39-.95,6.49,1.11,12.41,1.71-13-10.19-25.55-15.49-38.35-20.4a27.46,27.46,0,0,1-2.6-.9c-13.29-6.66-23.68-7.1-34.12,7.23-12.2,16.75-32,17.26-51.14,15.49-5.76-.53-5.88-4.3-3.5-8.67a47.59,47.59,0,0,1,20.89-20c4.28-2.16,8.57-4.3,13.9-7-13.43-3.17-25.79-4-38-5.54-4.41-.56-4.78,1.83-5.91,5-4.8,13.45-13.43,22.64-28.09,26-7.43,1.7-7.27-1.74-6.33-6.57,2.15-11,10.62-17.42,18.64-24.61C21.14,467.57,10.85,471,0,469c20.43-4.46,40.09-2.48,60.85-3.22-10.31-7.56-19.47-14.62-24.14-25.66-1-2.35-3.57-4.75-1-7.5,1.91-2,4.57-1.71,6.95-1.27,19.67,3.69,34.52,13.46,41.05,33.3.86,2.6,1.88,4.52,4.73,4.81,17.89,1.76,35.11,6.76,54.11,11.76-5.71-8-11.13-14.1-14.71-21.4-4.55-9.29-5.83-19-5.92-29.33-.07-8.56,3.75-8.31,9.35-5.89,16,6.89,28.74,17.2,35.09,34.07-.26.9-.71,2.1-1.48,2.19-11,1.31-7.13,6.34-3.65,12.33,6.36,11,15.87,19.37,23,29.64,1.38,2,3.45,3.49,4.08,6,.73,4,.05,7.63-2.82,10.68C177.86,521.36,175.08,516.51,173.21,510.43Z"/><path class="cls-6" d="M468.12,442.28q-.08-47.67-.2-95.34c0-4.48.62-8.92-2.18-13.26-2.66-4.12-.55-7.22,4.35-7.29,14.37-.18,28.73-.07,43.09-.15,3.73,0,5,2.07,4.46,5.25-4,22.75-.91,45.66-1.65,68.48-.45,14-.09,28.11-.09,42.17-3.74,3.64-8.58,2.87-12.95,2.65C491.33,444.2,479.39,447.67,468.12,442.28Z"/><path class="cls-7" d="M646.51,441.7c0-38,.13-76-.21-114-.06-6.76,1.58-9.4,8.63-9a266.16,266.16,0,0,0,26.65,0c5.53-.21,7.68,1.55,7.42,7.3-.41,8.87,1.06,17.85-.11,26.65-.16,1.21-.07,10.88.12,30.2.13,13.46.48,33.22,1.45,58.69-.84,1.36-2.07,1.47-3.45,1.09-7.27-8.14-7.27-8.14-18.9,1.26C660.76,444.51,653.24,446.89,646.51,441.7Z"/><path class="cls-8" d="M1067.64,473.32c4.39-4.31,5.61-11,10.84-14.66,6.69,1.2,10.22-5.36,16.25-6.49,8.69-1.64,10.94-.51,9.54,8.34-2.26,14.37-9.11,26.36-21.15,36.29,14.87-1.09,28.23-5.6,42.21-5.36,4,.07,6.51-2.64,8.28-6.25,6.07-12.38,16.54-19.23,29.55-22.37,3.35-.82,7.89-2.14,10.27,1.19,2.25,3.14-1.15,6.32-2.69,9.11-3.8,6.9-10.62,10.76-17.56,16,16.19,2.25,31.87,2.09,46.82,7.06-7.89-.52-15.73-1.38-24.28-.4,2.59,6.44,9.52,9.44,11.55,15.92,1.09,3.5,3.6,7.37.56,10.23-2.75,2.58-6.55-.22-9.33-1.57-7.7-3.73-13.56-9.54-15.53-18.19-1.27-5.56-4.35-6.9-9.78-6.9-8.31,0-16.41,1.34-25.46,2.43,5.94,5.21,13.26,7.83,17.81,13.81,2.59,3.39,5.55,6.57,7.62,10.26s1,6.11-3.85,6.82c-18.51,2.67-37.82-6.53-46-23.2-2.61-5.28-5.13-5.12-9.16-2.69-9.6.47-19.19,1.37-28.81.45-3.14-.69-6-1.82-7.49-5C1057.23,488.34,1061.05,480.28,1067.64,473.32Z"/><path class="cls-9" d="M249.69,338.78c-5.55-6.19-10.41-13-16.92-18.33-7.49-5.38-14-11.66-17.71-20.33,7.66-8.47,13.75-19,26.55-20.93,5.74,3.16,9.76,8.2,13.86,13.09,17,20.31,35.07,39.75,52.8,59.46,7.13,7.93,14.05,16.05,21.42,23.78,3.07,3.21,6.39,6.65,7.06,11.51-6.36,9.31-13.28,17.94-25.26,20.24l-33.11-36.74c-1.35-3.25.7-5.84,1.76-8.58,2.94-7.54,1.79-14.52-3.79-20.14-5.32-5.35-11.93-6.69-19.22-3.64C254.83,339.14,252.38,341.37,249.69,338.78Z"/><path class="cls-10" d="M646.51,441.7l23.87,0c5.47-3.21,11-3.15,16.45-.09l3.63,0,14.65.19c12.67.21,18.46,5.89,18.75,18.43.09,3.66.07,7.33.1,11-.47,4.17-3.1,3.54-5.85,2.65-3.17-3.59-2.4-8.07-2.56-12.26-.27-7.51-4-11.16-11.47-11.33-4.89-.1-9.78,0-14.69-.05-14.31.41-28.61.19-42.92.05-13.47.36-27,.27-40.42.1-15.31-.46-30.62-.08-45.93-.19-30.56-1.89-61,3.2-91.53,1.93-2.13,0-4.28.13-6.41.24-9.59.49-12.28,2.94-13,12.79a160,160,0,0,0-.06,28.45c2.9,27.51,1,55.06,1.61,82.58.06,2.75.16,5.52,0,8.26-.38,6.63,2.61,9.34,9.24,9.28,16.22-.14,32.44,0,48.67,0a244.19,244.19,0,0,0,26.37.06c9.06-.57,16.89,4.22,25.7,4.71,3.9.21,5.43,3.53,3.09,7.43l-133.16,1.41c-5.83-2.74-6.29-8.38-5.1-13.09,1.34-5.31,6.93-3.27,10.94-3.54,2.36-.06,3.18-1.51,3.13-3.61-.58-24.16,3.41-48.22,1.64-72.4a6.33,6.33,0,0,0-.52-1.76c.07-15.3.18-30.61.22-45.91.05-19.19,3.71-23.1,22.68-24.07a41.49,41.49,0,0,0,4.51-.73,464.13,464.13,0,0,0,47.77-.14l42.67-.2a7.88,7.88,0,0,1,4.46-2.2,347.7,347.7,0,0,1,38.2-.05,8,8,0,0,1,4.5,2.12Z"/><path class="cls-11" d="M173.21,510.43l11.29,9.65c1.12,7.26,1.35,14.32-4.72,19.88-4.08-3.27-6.48-8-10.29-11.59a44.26,44.26,0,0,0-60.75-.24c-16.66,13.9-20.59,38.67-8.06,58,12,18.51,33.44,25.19,55.53,17.39,2.91-1,5.87-3.88,9.2-.73.86,6.62-1.39,12.61-3.83,18.53-.46,1.12.29-.08-.7.48-1.52.86-.81-.54-.81-1.14-9.3.27-18.39,2.87-27.86,1.89-10.2-1.05-19.17-5.14-28.07-9.67-4.16-2.49-10.07-2.91-10.92-9.29-14.66-18.78-20.33-39.5-12.07-62.49,12.64-35.21,52.09-50.66,85.53-33.94C168.85,508.28,171,509.35,173.21,510.43Z"/><path class="cls-3" d="M286.43,537.55a7.46,7.46,0,0,1,1.4.18c4.65,2.61,4.67,7.15,4.88,11.63-.88,4.77.43,9.94-2.55,14.34-10.39,2.45-19.36-3.91-29.23-4.74-2.31-.2-4.68-1.88-6.57.94-2.48,3.7-.55,8.31,4,8.29,8.81,0,17.66.88,26.44-.74,2-.36,4.07-1.74,5.91.41,2.32,5.79,2.51,11.54-.26,17.23a2.34,2.34,0,0,1-2.91.5c-2.64-7-7.82-8.7-15-8.57-13.38.24-26.72.25-39.93,2.67-3.28.61-6.61,1.2-9.86-.2-2.05-1.2-2.38-2.83-1.16-4.81,3.48-2.08,7.49-2.33,11.33-3.11,12.37-2.51,12.38-2.47,7.77-14.52-.82-7.72-9.38-7.17-12.88-12q7.74-38.53,18.28-76.37c2.74-3.32,5.84-1.95,7.88.3,11.6,12.79,24.48,24.52,33.56,39.47-.4,6.62-2.89,11.73-9.85,13.61-4.75.34-9.19-1.91-13.94-1.64-4.45-.34-8.36-2.76-12.69-4.07-1.65,4.87,1,8.1,2.36,11.62,5.42,7,20,12.73,26.79,10.49A12,12,0,0,1,286.43,537.55Z"/><path class="cls-12" d="M286,508.12q-16.63-18.93-33.3-37.85c-1.32-1.49-2.4-3.86-5.15-2.28-2.59-3.42.89-6.45.63-10.54,0,2.5-.84,3.54-2.48,3.95-5-.31-7.3-4.51-10.63-7.25-5.16-6.31-11.17-11.95-15.22-19.16-.84-8.42-1.62-16.84-3.29-25.16.35-10.36,2.83-20.55,2.55-31a8.62,8.62,0,0,1,2.67-6.61c8.68-.13,17.08-2,25.45-4.06,5.79-.72,9.25,1.44,9.44,7.64l-13,11.57c-13,11.57-13.95,22.84-2.55,36.53,8,9.64,16.62,18.78,25,28.12q12.86,14.35,25.75,28.66c1.58,5.65,7,10.25,4.64,17C292.48,500.63,292.17,507.31,286,508.12Z"/><path class="cls-13" d="M365.13,288.05c.05-8.65,6.6-19.25,17.13-23.37,11.67-4.57,22.81-3.87,32.47,4.94,8.79,8,12.06,21.82,7.6,32.83-2.86,7.05-6.8,13.68-9.51,20.78-3,8-8.67,11.19-16.77,11.56-7.51.34-12.94-2.39-16.13-9.4C374.82,314.19,364.6,305.23,365.13,288.05Z"/><path class="cls-14" d="M1005,407.45,984.86,420c-10.39-7.72-14.59-18.34-14.69-31,0-5.24,1.79-6.49,6.71-4.41,9.91,4.19,15.42,12.58,21.26,22.28,2.37-11,4.46-20.81,6.64-30.64.72-3.25-2.12-4-3.68-5.69-7.26-7.93-10-17.28-8.73-27.91.36-3,1.63-5.65,4.36-6.51,3.24-1,4.68,2.1,6.35,4.21,4,5.11,5.6,11.18,6.62,19.37,4.77-8.29,8.59-15.08,12.59-21.76,1.58-2.66.09-4.65-.85-6.86a19.18,19.18,0,0,1,1-17.63c1.12-2,1.7-5.41,4.72-4.77s3.45,3.94,3.65,6.69c.17,2.42,0,4.86,2,8.79l12.25-18,3.57,3.22c-.26,3.56-4.68,4.89-5.79,9.14,5.32-2.05,10-1.91,14,1.56,1.09.94.9,2.2-.12,3.16-4.17,3.91-9,4.49-14.37,3-11.89-3.24-10.09,9.23-15.7,13.55,5.44-1.92,10.61-3.25,16.18-2.73,5.28.49,5.75,3,2.75,6.52-5,5.95-10.62,11.29-19.39,10.16-6.94-.89-10.83,2-12.73,8.74-1.78,6.35-4.42,12.45-5.84,19.29,5.52-7.69,13.08-11.91,21.42-14.8,2.52-.87,5.71-1.39,7.92.54,2.58,2.26.71,5.07-.13,7.63-3.91,11.86-13,18.93-24.15,21.81C1005.73,398.83,1004.48,401.69,1005,407.45Z"/><path class="cls-15" d="M793.36,390.56c-7.86,5.37-10.11,14.1-12.6,22.36-4.36,14.44-5.08,29.53-5.22,44.43-.45,49.89-.26,99.78-.31,149.67-9,2.36-11.15-1.36-11.06-10.21.46-43.43.19-86.86.25-130.29A278.22,278.22,0,0,1,768,420.86c2.66-15.86,9.47-29.51,21.74-40.19C795,382.47,795.78,385.92,793.36,390.56Z"/><path class="cls-16" d="M727.54,605.59c-1,2.52-2.18,5-3.12,7.56-4.85,13.13-4.83,13.14,4,22.49-10.48,3.5-18.56-2.77-16.86-13,.94-5.66,3.54-11,3-16.95-2.1-4.7,1.7-9,.82-13.68-.12-20.2-.09-40.39,0-60.58,0-4.26-.4-8.6,1.47-12.65,5.15-3.84,4.81,1.31,6.15,3.74-1.15,18.24.89,36.63-2.23,54.83.49-4.28,1.36-8.51,1.34-12.84.36-2.78,2.16-5.08,2.68-7.78,1.38-7.11,5-10.07,12.36-7.5a12.15,12.15,0,0,0,9.86-.63c7.31-4.09,9.56-.86,9.64,6.11.15,22.27.52,44.54.29,66.8,0,5.4,1.4,7.88,6.74,8.15,2.1.1,4.39.33,5.15,3.38-5.26,4.43-11.41,2-17.27,1.77-1.27,0-2.77-1.86-2.27-2.22,7.45-5.28-2.79-7.67-2-12.54.86-5.63-.52-12-3-17.72-2.21-1.58-2.4-4-2.64-6.38.4-6.45-1.86-12.65-1.77-19.85-1.66,7.11-4.46,13-6.61,19.12C731.6,598.83,731.88,603.48,727.54,605.59Z"/><path class="cls-17" d="M721.24,522.94l-2.69-5c-16.43-10.05-22.82-25.39-23.15-43.93a15.6,15.6,0,0,1,6.62-6.69c5.27,1.42,5.05,6.32,6.3,10.18,2.33,7.19,3.52,14.92,10.37,19.69,3.6,6,7.72-1,11.5.43,3,.8,6.21,1.18,7.26,4.83,3.08,9.07,5.11,18.47,8.42,27.49-2.52-9.44-6-18.59-8.4-28.08-1.23-4-1.87-7.81,2.83-10.13,6.61-4.8,7.44-11.15,5.25-18.54-1.29-4.34-2.06-8.84-3.06-13.26,2.08-1.56,4.26-2.64,6.92-1.43,6.55,14,9.86,28.1,1,42.53-1.35,2.2-.9,4.61-.12,7.08,4.79,15.15,4.69,31,6.31,46.58-.4-5.48-2-8.18-7.78-4.14-3.59,2.49-8.51,3.21-12.19,1.38-7.49-3.72-9.17-.51-9.72,6.15-.16,1.87-1.91,3.61-2.94,5.41-3.52-3.59-1.9-8.11-2-12.22C721.71,541.84,722.2,532.37,721.24,522.94Z"/><path class="cls-8" d="M105.77,315.19c8-13.31,20-15,31.8-4.15,16.13,14.8,27.89,33,39.74,51.17,3.22,4.93,5,11.12,11.17,13.72,3.71,1.47,4.32,4.91,4.88,8.17,1.43,8.37,2.85,16.75,2.76,25.29-1.18,5.33-1.09,10.76-1.26,16.17-.11,3.27.06,6.7-2.77,9.19-9.1-13.79-14.45-29.43-21.51-44.21-10-20.9-20-41.71-33-60.89-5.07-7.46-10.89-14.62-20.73-16.32-3.75,1-6.8,4.28-11.12,3.33-.11,0-.22-.44-.2-.65A3.18,3.18,0,0,1,105.77,315.19Z"/><path class="cls-18" d="M1069.8,557.67c-5.33,6.37-1.45,8.89,4.39,10.88,14.15,4.83,28.25,9.8,42.37,14.72l44.65,15.56c-29.64,5.74-56.27,13.81-84.29,14.36-19.51,5.37-39.39,2.25-59.12,2.49a8.36,8.36,0,0,1-5.08-1.88c-2.15-8,4.26-6.64,8.12-6.77,13.73-.46,27.48-.14,41.22-.19a117.18,117.18,0,0,0,11.86-.3c3.49-1.12,7.13-1.19,10.75-1.26,2.66,0,3-1.29,2-3.47-3.21-11.62-3.21-11.64-15.25-11.68-10.6,0-21.2,0-31.81,0-3.6,0-7.32.23-10.5-2.05-2-8.08,4.5-6.5,8.38-6.75,14.26-.89,28.53.61,42.5.63-4.73-.85-10.13,1.5-14.88-1.85-3.1-7.68-2.83-15.41-.39-23.17C1066.77,554.79,1068.55,554.5,1069.8,557.67Z"/><path class="cls-19" d="M880.17,408.49c17-3.5,33.63,10.14,34.89,28.32,3.74,53.81.67,107.69,1.94,161.52.23,9.51-5.8,7.15-10.89,7.44-.17-44-.27-87.95-.57-131.92-.08-11.29-.91-22.57-1.21-33.86C903.89,423.6,896,413,880.17,408.49Z"/><path class="cls-20" d="M192.09,434.75c1.59-8.52-2.47-17.46,1.95-25.76,7.93.25,15.9-.31,23.73,1.42,5.48,8.24,3,17.73,4.2,26.65,1.89,3.65,3.65,7.34,3.89,11.55.18,11.43.37,22.86,2,34.19,0,1,0,2,0,3,.14,3.91-.49,8,3.42,10.82,7.05,5.15,1.42,5.65-2.56,6.7a22.88,22.88,0,0,1-8.56-.67c-3.81-1.36-4.21-4.91-5.09-8.11-1.14-4.22-3.74-6.19-8.12-5.47-2.46.41-3.82,1.49-2.86,4.41,3,9.26,2,10.41-8.11,9.56a8.18,8.18,0,0,1-2.63-.76c1.14-4.4-4.39-5.74-4.45-9.63,1.86-10.71-1.8-21.9,2.9-32.33A112.44,112.44,0,0,0,192.09,434.75Z"/><path class="cls-21" d="M561.81,441.93h-3.24c-.08-27.74-.47-55.48-.13-83.22.16-13.06-3-26.42,2.52-39.16,4.12,1.86,3.16,5.72,3.56,9.05a84.77,84.77,0,0,1,.25,10.08c.07,11.78.05,11.86,11.92,14.46,3.95.86,7.44,2.54,7.53,6.79.48,21.64,2.25,43.32-.91,64.92-2,2.75-5.09,3.33-8,3.12-7.46-.56-11.29,2.43-11.33,10.08C563.94,439.55,562.84,440.81,561.81,441.93Z"/><path class="cls-22" d="M793.36,390.56c-.55-3.54-1.3-7-3.65-9.88,1.44-4.56-2.91-8.57-1.25-13.4,4.58,1.42,1.69,7.29,5.49,8.94,2.41,2.42,2.46,5.85,3.79,8.73,1.42,4.1,4.79,4.75,8.53,5.06,2.83.23,6.13-.35,7.73,3.09v.3a3.88,3.88,0,0,1-4.09,2.79c-8.53-.55-9.38,3.53-6.37,10.13a6.54,6.54,0,0,1,.51,1.71c.11,9.87,6,13.91,15,14.81a2.73,2.73,0,0,1,.9,2.29,5.22,5.22,0,0,1-3.68,2.27c-2.74.67-6.58.18-5.83,4.89.64,4,3.28,5.44,7.11,5.23,1.49-.09,3-.09,4.25,1a3.87,3.87,0,0,1,0,3.69c-1.46,3.12-7.56-.36-7.28,4.84.27,5,5.27,5.29,8.49,7.27a2.84,2.84,0,0,1,.59,2.33c-5.45,2.71-5.35,7.08-3.52,11.95.36,1.62.93,3.17,1.31,4.78,1,6.59,3.51,11.57,11.54,10.42,4.27,0,8.54.08,12.81,0,8.9-.2,9-.36,7.21-9.67a37.4,37.4,0,0,1-.85-3.74c-.86-5-2.1-9.9-5.63-13.85a39,39,0,0,0-.83-11.48c-.65-3.15-2.07-7.22,3.1-8.53q20,74.81,40,149.61c1.68,6.3,3.08,12.66,4.61,19,.31,1.9,1.6,4.27-2,4.28l-3.94-10.72c-.51-.72-1-1.43-1.58-2.13-2.07-4-2.6-8.37-3.77-12.59a44.26,44.26,0,0,0-1.55-7.54,80.19,80.19,0,0,1-2.33-8.63,22.78,22.78,0,0,0-1.46-6.08,46,46,0,0,1-2.76-8.56c-.45-1.65-1-3.28-1.46-4.94-.86-7.35-4.64-10.88-12.34-10-3.62.41-7.33,0-11,.08-9.13.12-9.13.13-7.4,9.3a37.81,37.81,0,0,0,1.18,6.14c.9,3.56,2.16,7,3.17,10.53a14.68,14.68,0,0,1,.38,2.36c.36,3.92,2.67,7.37,2.87,11.33a32.29,32.29,0,0,0,1.61,5.79c1.14,4,3,7.89,3.38,12.15-.09,2.07-1.45,4.06-.39,6.2q2.21,7.74,4.4,15.46l-3.32,1q-10.68-38.94-21.35-77.91Q813.48,465.57,793.36,390.56Z"/><path class="cls-23" d="M876.19,357.3l-.6,50.42A34,34,0,0,0,854.38,411c-7.28,3.77-7.55,0-7-5.44.59-5.72,1.4-11.42,1.86-17.15.43-5.23-.33-10.27-3.48-14.71-5.43-4.86-6.61-10.29-2.19-16.46Z"/><path class="cls-24" d="M225.42,486.46l0-2.24c12.3-1.3,16.67-9.47,17.81-20.5a6,6,0,0,1,1.64-3.16c1.83-.56,2.47-2.22,3.25-5.09,2.18,5.26.65,8.88-.49,12.53q-9.14,39.48-18.25,79a5.48,5.48,0,0,1,.95,4.15c-2,7.78-1.52,16.33-7.06,23l-1,4c2,3.35.4,6.46-.6,9.62-1.93,6.67-2.26,13.71-4.63,20.27-.15,3.51-2.85,5.78-4.19,8.71-.31,1.14-.59,2.28-.93,3.41-.65,2.22-1.11,5.43-4.16,4.35-2.25-.8,0-3.75-.52-5.68-.11-4.54-.76-9.14,1.62-13.37,1.17-2.45,1.22-5.12,1.51-7.74a19.86,19.86,0,0,1,.91-4.41c2.38-6.68.23-9.7-7-9.12-3,.25-6,.14-9,.14-4.1.09-8.2,0-12.29,0-7.88-.92-9.21,4-9.13,10.2,2,2.54,6.1,1.13,7.81,4.17-1.36,5.41-7.48,2.26-10,5.6-2,3.26-2.14,7.09-3.35,10.58-.65,2.13-2.68,3.42-3.37,5.53s-1.13,4.85-4.34,3.85c-2-.62-.71-2.32-.49-3.6l4.17-18.25c-2.58-6.71.25-13.58,2-19.3,3.08-10.25,1.17-21.78,7.86-31,2.31-4.31.72-10.36,6-13.35q2.23-9.36,4.48-18.72c.82-3.79,1.63-7.6,2.45-11.4.35-4.7-1.33-10,3.93-13.26,1.52,2.11,4.24.93,6.2,2-1,2.3-4.41,1.08-4.65,3.86a6.43,6.43,0,0,1,1.36,2.5,11.68,11.68,0,0,1,0,4.21c-2.76,12.53-2.76,12.53,10.23,12.57h11.82c13.64,0,13.64,0,16.51-13.47a13.26,13.26,0,0,1,2-4.87C236.09,490.54,236.09,490.54,225.42,486.46Z"/><path class="cls-25" d="M581.67,425.19c.1-21.1.08-42.21.41-63.31.09-5.72-2.8-6.33-7.41-6.43-13-.27-13-.42-13-13.42,0-4.58.16-9.16.24-13.75,2.81-2.94,6.52-3.14,10.14-3,9.93.44,20-1.49,29.79,1.17l.75,1.8c3.34,8,1.15,16.21,1.21,24.33,0,3.26-2.79,4.81-5.59,5.21-6.88,1-7.76,5.6-7.73,11.31.07,14.7.09,29.41,0,44.12,0,4.24.4,8.64-2.35,12.41C585.86,427.13,583.69,427.22,581.67,425.19Z"/><path class="cls-9" d="M420.14,607.42l-89.85.16c-7.55-5.11-10.52-12.4-7.42-18.21,15.26-2.2,30.57-1,45.86-.74,4,.77,8,2.13,12.14.85,7.86.82,15.71.93,23.46-.8C414.59,586.39,423.57,596.8,420.14,607.42Z"/><path class="cls-26" d="M588,425.28c-.18-21.28-.3-42.56-.59-63.84-.06-4.22,1.47-6.55,5.79-5.89,8.23,1.25,9.69-2.94,9.12-10-.46-5.72.15-11.53.28-17.29,2.57-.16,5.2-.36,4.78,3.51-4,36.62-.42,73.36-1.67,110-1.09,0-2.17,0-3.26.06-.21-.23-.57-.43-.6-.68C600.9,432.71,596.32,427.38,588,425.28Z"/><path class="cls-17" d="M217.77,410.41c-8,1.81-16.07,3.26-23.73-1.42-2.08-11-1.26-22.45-5.56-33.06,3-2.65,1.69-6.22,1.83-9.41.31-6.75,3.38-8.65,9.47-5.87,1.63.74,3.26,2.13,4.87,2.11,5.37-.08,12.17-3.39,10.91,7.2-.27,2.26,3.87,2.1,6.25,2.29A223,223,0,0,1,220,403.87C219.68,406.27,219.92,408.7,217.77,410.41Z"/><path class="cls-27" d="M377.8,528.13l.15,3.8c2.05,5,4.57,9.82,6.46,14.9a26.46,26.46,0,0,0,11.94,14.25c4.66,2.69,9.41,5.67,10.24,11.85-.75,3.25-2.76,4.77-6.1,4.5-6.28-3.67-12-7.06-19.36-.72-3.73,3.23-9.77,2.69-14.81.36-7.78-8.51-10.74-19.07-12.78-30,.14-11.15,3.33-21,12.11-28.5,2.41-.76,4.64-.07,6.84.84C376.17,521.14,377.26,524.47,377.8,528.13Z"/><path class="cls-28" d="M821.09,305.21l2.35-1.61c13.88-3.14,20.45,1.52,21.23,15.52.23,4.13,1.7,7.7,3.15,11.38,3.72,9.43,2.73,17.91-5.06,25-7,4.77-13.56,2.26-19.46-1.82-6.13-4.24-6.55-10.56-4.22-17.24.51-1.44.81-2.94,1.22-4.4.16-1.45.22-2.9.27-4.35,0-6.1.87-12.31-2.21-18.05C818.18,307.5,818.58,305.7,821.09,305.21Z"/><path class="cls-29" d="M214.47,607.86l4.93-20.47c19.66,2.08,39.41.31,59.1,1.2,3.58.16,6.23-2.17,9.4-3.08.42-.17.84-.32,1.26-.47,5.15,5.84,3.15,12.52,2.27,19.08a4.91,4.91,0,0,1-3.54,3.32l-46,.29C232.72,609.14,223.62,612.9,214.47,607.86Z"/><path class="cls-9" d="M207.05,278.36l-30-34.28C178.82,235,186,232,193.44,229.15c5.44,1.52,8.14,6.38,11.37,10.18,8.46,9.94,18.76,18.37,25.19,30-1.4,9.62-8.33,13.39-16.66,15.65C209.72,284.23,208.62,281.07,207.05,278.36Z"/><path class="cls-3" d="M190.72,495.41q-2.29,6.63-4.61,13.26c-14.09-13.34-27.72-26.95-38.41-42.58-3.54-5.17-1.23-5.76,3.92-5.62,3.65.1,7.17-.2,10.38-1.84,9.94.38,20-.51,29.8,1.66Z"/><path class="cls-30" d="M311.49,407.27c9.41-5.34,17-12.81,24.35-20.61,1.54-4.42,5.16-7,8.5-9.92a19,19,0,0,1,6.29-3.16c3.59-1.37,7.18-2.27,9.71,1.75s.33,7-2.74,9.36c-3.8,2.86-4.2,5.43-.37,8.54,4.49,3.66,7.16,8.63,13.61,11,7.65,2.87-.61,6.76-2,10.19-3.36,7.85-11.13,11.32-16.78,16.89-.89,0-1.95-.3-2.65.06-9.25,4.86-9.41,4.8-10.3-5.8,7.49-3.69,11.65-11.2,18.2-16,4.91-3,2.65-5.9-.32-8.56-2.75-2.46-4.61-8.36-9.76-2.9-8.31,2.56-11.24,12-19.26,15a5,5,0,0,0-4,1.48c-3.05,2.69-5.78,6.7-10.75,3.83C308,415.51,311.07,411.16,311.49,407.27Z"/><path class="cls-31" d="M367,576.3c7.6-.06,15.84,2,20.25-7.39,1-2.25,3.08.18,4.35,1,3.31,2,7.12,3.45,9.39,6.91,5.84-.77,11.67-.25,17.5.26,2.3-.07,4,1.57,6.11,2.11,2.92,1.63,5.75,3.39,9.06,4.26,2.37.62,5.25,1.73,4.92,4.58-.43,3.71-3.88,1.58-6,2.07-1.09.26-2.26-.13-5.36.23.75,0,2.33,1.8,1.85.68-.18-.41,0-.65.65-.64,2.33,0,4.8-1,6.86.92a.73.73,0,0,1,0,.66,3.33,3.33,0,0,1-.68.61c-10.67.63-10.67.63-5.28,14.87-.34,4.44,3.16,9.1-.76,13.34a3.22,3.22,0,0,1-4.17-.22l-5.55-13.09c-.41-1.44-.75-2.89-1.22-4.31-4.36-13.05-5.55-13.79-18.75-11.15-6.61,1.32-13.11,1.43-19.53-.88-6.26.22-9.78-3.71-12.81-8.42C366.87,580.64,365.72,578.63,367,576.3Z"/><path class="cls-32" d="M321.11,591.12q4.59,8.24,9.18,16.46c1.67,3.56,3.42,7.1,5,10.7C340,629,334.79,636,321.35,636.15c2.65-3.56,8.12-5.53,7.56-9.47s-4-7.4-6.21-11c-1.77-2.84-3.7-5.58-5.56-8.36-7.72-4.5-9.65-12.61-12.38-20.15-1.11-3.09-1-6.53-2.23-9.64-1.63-8.38-5-16.83-.72-24.5,3-.63,1.13-1.61,1.9-.65.36.45.18.69-.53.74-2.62.18-6.14,2.1-5.91-3.12,6.47-3.22,13.43-2.08,20.24-2.29a5.42,5.42,0,0,1,3.39,3.47c1.88,10.7.52,21.65,2.46,32.37A9.31,9.31,0,0,1,321.11,591.12Z"/><path class="cls-33" d="M1012,612.84l65,.35c-7.79,5.1-7.86,12.86-.18,18.37-20.27,1.85-40.58.38-60.87.79-3.39.07-6.34-1.45-6.85-4.78C1008.22,622.45,1005.88,616.7,1012,612.84Z"/><path class="cls-34" d="M600.94,624c-2.17-5.91-2.18-12.5-5.68-18-3-2.47-2.6-6.43-4.1-9.54-2.26-5-7.67-2.08-11-4.37a13.66,13.66,0,0,1-2.35-1.48c-5.86-6.14-5.87-13.13-.07-22.09,9.79-1.88,17.54,3,25.37,7.64,5.6,4.3,5.63,12,10.41,16.86,5.45,2.12,7.38,6,5.42,11.5s.66,12.25-5.07,16.5c-4.6-2-5.87-5.79-6.11-10.33-.65,4.75,4.8,9.7-.14,14.37C605.15,626.14,602.88,626.07,600.94,624Z"/><path class="cls-35" d="M967.19,609.37l7.14-2.12c3.28-2.84,7.3-2.06,11.11-2.27,7.6.18,15.31-1.35,22.74,1.46,2.32,1.68,2.57,4,1.77,6.48-2.24,6.89-1,13.64.64,20.39-12.48.13-25,.22-37.45.42-4.39.08-7.18-1.5-6.94-6.25C966.51,621.44,965.08,615.3,967.19,609.37Z"/><path class="cls-36" d="M350.63,373.58c-1.06,2.55-2.83,4.12-5.74,4.08-7.12-2.86-11.46-9-16.19-14.4-23.83-27.35-47.68-54.68-72.44-81.2-3.12-3.35-6.28-6.67-7.75-11.18.62-3.52,2-6.18,6.28-5.4Q302.72,319.52,350.63,373.58Z"/><path class="cls-37" d="M379.69,495.23c3.53-5,10.43-7.94,9.13-17-4.26,6.92-11.46,2.26-16.46,5.82-1.29.92-2.08-.85-2.75-1.72-1.37-1.76.3-2.71,1.32-3.63,5.41-4.91,10.88-9.75,16.34-14.61,3.69-.26,3.21,2.87,3.91,4.94,3.47,10.18,9.3,11.62,17.41,4.31,1.7-1.54,2.83-4.12,5.84-3.57,4.36,14.5.33,26.13-11.57,35.44-6.67,5.22-12.89,11-19.32,16.57a4.31,4.31,0,0,1-1.26-2.35c.19-4.14,2.2-7.66,3.89-11.28,2.55-2.76,3.73-5.34-.34-7.95C383.62,498.83,381.11,497.67,379.69,495.23Z"/><path class="cls-38" d="M256.7,375.83c-1.81-4.2-5.53-6-9.44-7.64,8.91-2.45,16.68-7.06,24-12.57,1.26-1.89,2.93-3.52,3.74-5.77-1.79-1.34-3.88,0-5.7-.69-6.71-2.6-11-.61-12.61,6.59-5.59,2.75-10.92,6.38-18.13,5.2.9-4.33,5.34-6.67,5.32-11a5.32,5.32,0,0,1,1-2l4.8-9.11c5.38-1.79,10.07-5.68,16.3-4.8,14.66,2.06,22.54,16.93,15.87,30.18-1.08,2.16-2.32,4.25-3.48,6.37C271.7,374.53,263.82,373.65,256.7,375.83Z"/><path class="cls-39" d="M297,550.93c3.78,1.46,7.83,1.94,5.69,8.35-2.06,6.15,1.81,12.54,1.67,19,.63,10,2.29,20.09-3.71,29.23-1,5.87-2.08,11.73-2.87,17.63-.47,3.52-1.73,5.64-5.67,4.89-2.46.54-3.36-.93-3.28-3,.3-7.12-1.06-14.31.75-21.37q-.23-10.33-.44-20.64.13-8.94.28-17.88a2.67,2.67,0,0,1,.11-3.64c.94-4.94-.49-10.2,2-14.94C294.06,547.73,295.84,548.64,297,550.93Z"/><path class="cls-40" d="M823,331.3c-4.4,20.8-1.74,24.06,19.76,24.2l.81,1.71c-2,5.85.85,11.06,2.19,16.47-9,7.95-18.48,7.41-28.17,1.29-2.07-1.74-2.16-4.12-2.15-6.54a10,10,0,0,1,2.1-5.2c.56-11.32-3.59-20.55-12.26-27.8-1.8-1.5-4.24-2.49-4.61-5.27-.74-3.46,1.39-5.26,3.94-6.82C812.41,322.11,817.19,327.89,823,331.3Z"/><path class="cls-3" d="M105.77,315.19c3.85.36,6.79-4.64,11-1.86-7.06,15.53-4,31.77-2.55,47.66s6.89,31.13,10.87,46.59c-16.2-27.64-32.68-55.21-21.27-89.4A14.53,14.53,0,0,1,105.77,315.19Z"/><path class="cls-38" d="M319,550.58l-1.59-1.87c-3.63-10.91,1.79-20.88,3.28-31.26,9-6,17.19-4.83,28.1,3.94C357,529,356.71,539.05,348,550,336.4,558.62,327.37,558.78,319,550.58Z"/><path class="cls-41" d="M254.79,265.48a12.49,12.49,0,0,0-5.46,5.35c-1.26,4.19-4.19,7-7.62,9.49-11.44,3.1-16.86,13.81-25.66,20.25-1.85,3.18-4.15,4.07-7.14,1.39-2.45-2.37-4.2-5-3.48-8.67,1.58-3.8,3.41-7.41,7.26-9.47,7-3.06,13.67-6.51,16.21-14.55,1.1-2.38,3.1-4,4.91-5.76,1.82-1.39,4.14-.64,6.1-1.42,1.81-1.55,3.62-3.08,5.42-4.63,2.65-2.3,5.51-3.91,8.76-1.31C257.55,258.9,257.48,262.15,254.79,265.48Z"/><path class="cls-42" d="M581.45,316.66c-.19-19.59-.13-39.18-.69-58.77-.23-8,1.87-11.62,10.76-11.34,17.44.56,34.91,0,52.36,0,2.39,0,6.47-1.5,6.39,2.78-.07,4.08-4.06,2.77-6.54,2.79-15.92.18-31.85.44-47.76.14-6.51-.12-9.42,1.51-9.19,8.67.61,18.65.58,37.33.81,56C585.46,318.64,583.41,318.69,581.45,316.66Z"/><path class="cls-43" d="M1091.78,528.86c2.47,2.14,5,4.22,7.41,6.44,6.59,6.13,6.35,8.69-1.67,12.15-6.6,2.85-13.37,5.52-20.83,5.13-7.18.53-18-6.62-18-12,1.82-1.57,4.82-2.14,5.51-4.55,2.08-7.26,8.13-8.22,14.08-9.57C1083,526.08,1087.8,525.05,1091.78,528.86Z"/><path class="cls-44" d="M924.24,322.51c5.31,3,8.44,8.39,13.7,11.59,8.77,5.31,18.3,2,27.35,3.46-11.64-1.57-19.91,7.54-30.48,10-5.38,1.26-9.66,9.39-10.23,16.83l-15-4.77c5.25-4.71,7.84-11.32,12-16.76,1.84-2.38.94-4,0-6.42C919.58,331.55,919.58,326.44,924.24,322.51Z"/><path class="cls-45" d="M286,508.12c4.41-3,4.22-9.89,10.05-11.62,2.89-.62,5.15.17,6.58,2.87.51,1.11-1.33,4.19,2,2.9,2.16-.85,3.81-2.91,5.84-4.19,2.48-1.55,4.87-.37,6.66,1.23,2.85,2.56-.57,3.32-1.72,4.7a33.07,33.07,0,0,0-7.06,13.48c-1.07,4.44-3.16,7.8-7.81,9.06-4.4-7.34-1.2-14.55-1-20.82-3,6.27,1.63,16.23-5.83,22.51l-2.67,1.85c-4.2-3.86-11.66-2.61-14.23-9C282.43,518.53,285,513.9,286,508.12Z"/><path class="cls-46" d="M164.9,620.45l1.63-4.75A56.36,56.36,0,0,1,187.1,600a79.26,79.26,0,0,1,17.21-.29c3.45.26,7.82.28,6.56,6q-1.86,6.54-3.7,13.1c-10-3.4-20,.9-30.08.18C173.31,618.77,168.61,617.33,164.9,620.45Z"/><path class="cls-47" d="M613.46,620.44c4.25-6.5,2-14.26,4.08-21.27,1.42-4.81-5.06-1.44-6.09-4.42,4.28-3.37,5.89-8,6.59-13.21.63-4.69.83-9.6,4.43-13.35a8.74,8.74,0,0,1,8.6-.35c3.39,2.82,1.57,6.16.78,9.29-1.48,5.93-3.21,11.8-4.27,17.83-.89,4-2.09,7.9-5,11-3.6,4.4-3.11,9.29-1.71,14.29,2.18,3.61,5.43,3.28,8.83,2.4-.72,3.21-.86,2.74-3.63,3.57s-7.11-3-8.25,4.23c-.49,3.16-9.36,1.4-14.32.84-4.62-.53-2.43-4.62-2.58-7.36l6.7.17C610.26,624,611.1,621,613.46,620.44Z"/><path class="cls-9" d="M327.93,413.17c3.54-6,9.4-9.83,13.89-14.93,1.59-1.81,3.15-1,4.78-.24,5.51,2.67,10.58,5.74,11.2,12.73-5.93,5.35-8.73,14.65-18.73,14.89Z"/><path class="cls-48" d="M718,594.65l-3.36,11-40.47.3c-5.15-3.48-5-7.62-1.54-12.2C687.76,591.12,702.93,589.62,718,594.65Z"/><path class="cls-49" d="M622.6,606c-.44-4.24,1.09-7.8,3.8-11,3.24-3.58,7.64-3.28,11.78-3.12,9.25.34,18.63-1.51,27.75,1.5,3.88,3.47,5.58,7.41,2.63,12.35Z"/><path class="cls-50" d="M320.69,517.45a142.17,142.17,0,0,1-3.28,31.26c-6.58,2.72-13.44,2.88-20.38,2.22l-5.49-2.35q-1.86-5.43-3.71-10.85C303.65,538.86,316,534.34,320.69,517.45Z"/><path class="cls-51" d="M276.84,521.05c4.31,3.69,11.91,2.21,14.23,9l-3.76.94c-3.31,1.17-7.23.57-10.11,3.83-.14,2.65,3.56,2.35,4.35,4.52-1.32,2.13-3.24,4.77-5.6,3.74-8.24-3.58-16.62-7-24-12.26-.21-.16.49-1.6.76-2.45,2.22-4.93,5.55-8.46,11.27-9C268.9,515,272.56,520.44,276.84,521.05Z"/><path class="cls-52" d="M563.79,606c-.2-2.82-.56-4.81-4.3-5.72-14.11-3.46-28.37-4.22-42.79-3.71-2.72.09-5.46-.26-8.19-.41,1.88-4.95,6.34-3.77,10-4,8.46-.62,17,.85,25.41-1.18,1.3-.68,3.43-2.37,3.88-1.71,4.74,7,13.7,3.28,19.28,7.86,2.19,2.13,2.59,4.78,2.26,7.66,0,.45-.11.91-.16,1.36-3.55,3.3-1.7,7.3-1.65,12.11,6.75-5.65,10.24-.47,14.14,3.31,1.27,1.23,3,2.58,1.25,4.55s-2.82.19-4.36-.84c-5.63-3.79-15.23-2.33-18.42,2.81-1,1.58-.2,5-3.4,3.91-3.78-1.29-1-3.93-.49-6,.2-.78.36-1.57.52-2.3a2.46,2.46,0,0,0-3.29,1.12c-1.09,1.58-2.24,3.41-4.13,1.35-1.63-1.77-.17-3.42,1.3-4.56.89-.69,2.19-1.51,3.16-1.35C567.05,622.3,564,613.13,563.79,606Z"/><path class="cls-53" d="M581.45,316.66l6.14.29a31,31,0,0,0,5.45,0c7.89-1.34,10.48,2.07,8.83,9.51-13.18,3.39-26.66.2-39.93,1.81q-.48-4.38-1-8.74C567.18,314.28,574.75,318.58,581.45,316.66Z"/><path class="cls-28" d="M217.69,330.11c1.34,2.41,2.5,5-.28,7-3.7,2.76-3.23,6.6-3.22,10.39-3.61,10.44-6.92,11.94-14.17,6.41l-2.58-3.87c-.7-1.39-.37-3-.81-4.41-3.82-12-.52-16.47,12.17-16.33l3.54.38C214.22,328.5,216,328.19,217.69,330.11Z"/><path class="cls-54" d="M352,431.36c2.62-8.58,11.43-11,16.78-16.89,1.91,3.12,3.49,6.53,5.81,9.31,4.65,5.56,4.09,9.46-1.8,14.08-4.24,3.33-7.12,4.82-11.44.75C358.52,435.91,355.16,433.76,352,431.36Z"/><path class="cls-55" d="M383.24,519.18l.3,2.65-5.74,6.3c-3.73-.91-2.19-5.4-4.79-7.09-2.19-1.76-.1-3.78-.72-5.9-1,3.06-3.28,3.79-6.19,3.05-3.64-1.85-3.06-5.16-2.91-8.33,1-1.15,2.65-2.24,2.75-3.47.72-8.64,7.25-9.83,13.75-11.16,4.39-.64,7.29,2.81,10.14,4.8,5.21,3.63,2.84,6.87-2.44,8.46C379,509.92,378.72,510.64,383.24,519.18Z"/><path class="cls-56" d="M1088.06,505.15c1.7,6.61-4.34,14.64,3.7,20.07-6.94,4.47-14.58,2.11-22,2.28-5-8-2.34-15.89.38-23.78C1076.23,503,1082.41,500.75,1088.06,505.15Z"/><path class="cls-57" d="M414.43,469.82c-2.06,2.57-4,5.27-6.2,7.66a9.54,9.54,0,0,1-11.67,2.24c-4.17-1.92-8.22-4.2-7.72-10,.17-2,1-4.33-1.57-5.61,1.51-2.81,4-4.38,6.87-5.56,5.5-4.65,11-4.36,16.58-.09C410,462.92,414.25,465.7,414.43,469.82Z"/><path class="cls-58" d="M848.68,436.51c-2.8,4.4-.75,8.77.5,12.91,1,3.24.74,5.47-2.12,7.28,1.7,2.67,1.55,4.94-1.41,6.62a5.15,5.15,0,0,1-4.51-.61c-1.79-2.06-2-4.62-2.19-7.16-.31-4.28-1.65-8.44-1.7-12.77-.07-1.37-.06-2.74,0-4.12a29.76,29.76,0,0,0-1.15-10.4c-.33-1.27-.58-2.56-.8-3.86-.33-2.14-1.21-4.35.76-6.2,8.15-2.82,12.44-1.15,11.07,8.66C846.66,429.94,848.1,433.29,848.68,436.51Z"/><path class="cls-59" d="M217.69,330.11l-5.35-.4c.09-2.7-.53-5.68.41-8,3-7.56,1.24-13.88-3.84-19.71l7.14-1.39c5.44,6.74,12.17,12.39,16.72,19.88C229.59,326.56,222.63,326.76,217.69,330.11Z"/><path class="cls-60" d="M194.08,230.5c-6.9,3-12.36,7.76-17,13.58-2.84,1.07-5.53,1.29-6.88-2.11-.94-2.37.48-4.06,2.16-5.57,7.78-6.93,15.52-13.9,23.31-20.82,1.85-1.65,3.85-3.3,6.53-1.75,3.31,1.92,1.57,4.81,1.23,7.4a6.33,6.33,0,0,1-1.67,4.36C199.26,227.31,196.42,228.52,194.08,230.5Z"/><path class="cls-61" d="M728.41,498.72c-3.42,1.11-6.69,7.75-10.34.27-5.51-7.45-10.46-15-2.49-23.84a4.87,4.87,0,0,1,3-1.7c2-.12,4.17,0,5.36-2.22,7.14-2.89,9,.74,8.77,7.06-5.18,4.31-6.42,9.43-3.48,15.62C730,495.46,731.9,497.7,728.41,498.72Z"/><path class="cls-62" d="M424.11,578.15l-.63,1.94-4.68-1.89c-3.4-1.6-5.41-5.05-8.86-6.59a63.86,63.86,0,0,1-11.22-9.46c-2.22-2.23-4.41-4.43-2.68-8,1.6-1.39,3.31-2.65,4.76-4.17,4.14-4.33,7.08-3.27,9.61,1.72C414.89,560.59,419.53,569.35,424.11,578.15Z"/><path class="cls-59" d="M244.89,347.89c-.35.68-.69,1.37-1,2.05-5.88.94-10.65,4.42-15.86,6.91-2.28,1.08-5,4-7.37,1.24-2.17-2.51.63-5.1,1.69-7.5,2.29-5.2,6.26-9.09,10.71-12.38,7.61-5.62,9.56-4.69,10.63,4.48A43.11,43.11,0,0,0,244.89,347.89Z"/><path class="cls-63" d="M394,336.59c4.06,3.79,11.55-4.94,12.93,2.89,1.79,10.06-3,15.66-10,15.62-6,0-11.38-6.88-11.13-14.77C386.05,333.3,391.64,339.23,394,336.59Z"/><path class="cls-64" d="M668.56,605.76q-1-5.68-1.93-11.35c-4.89-2.64-5.15-7.8-6.69-12.27.25-4.78-4.31-9.65.25-14.36a8.61,8.61,0,0,1,8.57.54c3.17,4.21,3.59,9.21,4,14.18a42.09,42.09,0,0,0,.74,8.45,5,5,0,0,1-1.3,3.87c.3,3.78.15,7.63,1.88,11.17q1.44,11.7,2.87,23.39l-.73.26Z"/><path class="cls-65" d="M822.76,456.64a1.65,1.65,0,0,0-.11-1.45c-2.45-4.46-4.21-9-1.46-14,0-.71-.07-1.42-.11-2.13-3-4.25-4.63-8.71-2.05-13.79a1.74,1.74,0,0,0-.24-1.5c-.86-1.6-2.16-3.15-.55-5l10.43-.17a8.17,8.17,0,0,1,2.3,5.61,222.46,222.46,0,0,1,0,30.33c-.2,3.25-.85,6.31-3.77,8.33a4.42,4.42,0,0,1-4.53-.32A4.94,4.94,0,0,1,822.76,456.64Z"/><path class="cls-66" d="M1010.59,633.31c-7.15-8.13-1.72-17.11-1.74-25.72,5.76-4.63,12.49-2.23,18.84-2.63,12.74.09,25.49-.06,38.23.09,3.85,0,8-.73,11.09,2.69-2.6,3.17-6.2,1.7-9.31,1.74-15.44.18-30.88,0-46.31.15-3.34,0-7.56-1.53-9.42,3.21-2.48,2.92-.86,6.42-1.35,9.62-1.07,6.87,2.06,9.07,8.7,9,19.14-.21,38.28,0,57.42.1-.53,2.55-2.63,2.1-4.31,2.09Q1041.5,633.53,1010.59,633.31Z"/><path class="cls-67" d="M363.19,509.86c2.85,1.82.72,6.26,4.11,7.79.59.71.4,1.18-.46,1.43-7,7.93-11.24,17-11.19,27.8-2.44,3.47-4.72,7.68-9,1.81,7.63-8.55,7.42-17.73,2.17-27.3Z"/><path class="cls-68" d="M302.66,499.37c-2.84.53-4.37-2-6.59-2.86-1.63-5.21-5.63-9.78-4.22-15.8,1.77-1.46,1.11-3.57,1.46-5.41,6.77-4.4,14.74,0,15.77,9,.31,2.66-.13,5.4.44,8.07C309.1,496.51,305.18,497.26,302.66,499.37Z"/><path class="cls-69" d="M309.52,492.35c-3.13-.31-3.88-1.89-3.41-5,1.41-9.27-3.65-13.9-12.8-12.05-2.6-5.26-3.14-8.55,4.79-9.31,7.44-.72,13.72,2.23,16,7.47C316.75,479.45,315,487,309.52,492.35Z"/><path class="cls-70" d="M201.13,225.24c.16-1.68.49-3.27,2.3-4l36.48,40.86c-1.13,2.66-2.92,2.93-5.19,1.41a5.71,5.71,0,0,1-4.07-1.81,367.87,367.87,0,0,1-27.91-31.41C201.62,228.84,200.62,227.25,201.13,225.24Z"/><path class="cls-71" d="M208.8,329.33c-12.27,4-12.27,4-11.36,20.74-3.66-7.54-10.37-13.68-10.68-22.74-.08-2.62-1.32-6,1.31-7.69s5.3.61,7.51,2.05C199.86,324.48,203.92,327.6,208.8,329.33Z"/><path class="cls-72" d="M728.41,498.72c.9-4.69-4.88-6.55-3.75-13,1.2-6.9,4-6.5,8.07-7.38,3.94,3.68,5.61,8.65,7.57,13.45-2.35,3.24-1.68,7.13-2.33,10.73l-.89,0Z"/><path class="cls-73" d="M396,554.19c1.57,8.3,11.07,9.76,14.34,16.6-.69,2.52-2,3.51-4.48,1.9-2.3-3.66-5.27-7-9-8.78-13.54-6.53-16.69-18.92-18.92-32,5.59,4.95,8.34,11.74,11.79,18.09C391.06,552.47,391.64,556.31,396,554.19Z"/><path class="cls-74" d="M814,393.1c-3.3-.21-6.62-.84-9.87-.56-5.66.48-8.7-1.48-8.6-7.41,4.1-8.74,9.17-10.21,19.94-5.81A36.7,36.7,0,0,1,814,393.1Z"/><path class="cls-75" d="M410.72,458.49c-5.53,0-11.07-2.85-16.58.09q9.63-8.88,19.27-17.75c1.26-1.16,2.44-3.09,4.49-1.41s.44,3.22.11,5.18C417.07,450.24,416.33,455.48,410.72,458.49Z"/><path class="cls-76" d="M818.24,418.77c.18,1.67.37,3.34.55,5-13.7.29-13.7.29-17.17-16.74,4.61-3.47,9.26-3.19,13.92-.12Z"/><path class="cls-77" d="M804.7,323.87q-2,3.15-4,6.29c-5.55-3.32-3.7-10.09-6.8-14.55-.4-4.64.48-9.64-3.66-13.24-4.18-4.76-1.87-9.72-.45-14.65,6.5.88,2.69,9,7.64,10.92C800.44,306.87,804.88,314.71,804.7,323.87Z"/><path class="cls-78" d="M300.68,607.48q1.85-14.61,3.71-29.23c3,10.22,6.45,20.27,12.76,29Z"/><path class="cls-79" d="M593.26,595.31c2.37,3.23,1.64,7,2,10.64l-26,.14.07-.76c-3.57-10.63,6.15-8.11,10.64-10.8a11.53,11.53,0,0,1,3.89-1.46C587.1,593.24,590.79,591.7,593.26,595.31Z"/><path class="cls-80" d="M815.47,379.32c-7.24-.1-15-1.81-19.94,5.81a12,12,0,0,1-1.58-8.91,87.36,87.36,0,0,1,23.59-13c0,1.69,0,3.38,0,5.08-2.46,2.67-6.16,5.17-1.23,8.86Z"/><path class="cls-74" d="M815.54,406.93l-13.92.12c-4.83-12.71-4.83-12.69,8-13.06a44,44,0,0,0,4.39-.59Q814.77,400.17,815.54,406.93Z"/><path class="cls-10" d="M727.54,605.59q1.88-5.58,3.76-11.14c4.17-2.84,8.35-2.94,12.53,0l.39,7.91C739.82,609.36,733,603.88,727.54,605.59Z"/><path class="cls-81" d="M214.47,607.86l27.37-.13c-8.81,5.83-19.72,4.91-29.06,9C213.34,613.8,213.91,610.83,214.47,607.86Z"/><path class="cls-82" d="M289.61,605.68c1.49,8-2.53,16.65,2.53,24.32-.07,1.12-.52,2.66,1.29,2.56s3.78-1.06,3.66,2c-.1,2.57-2.17,2.59-3.94,2.62-5.32.08-10.64,0-16.15,0a12.54,12.54,0,0,1,.53-2.68c11.26-.93,11.46-8.62,10.63-17.1-.32-3.3-.19-6.64-.27-10Z"/><path class="cls-83" d="M1058.16,541.3c.52,1,1.18,2.93,1.54,2.88,5.74-.86,9.12,1.87,11.4,6.8,1.14,2.47,3.63,1.38,5.59,1.6-.89,3.6-5.19,2.58-6.89,5.09l-3.47-1.28c-1.87,1-3.23,0-4.57-1.14-1.14-1.25-2-2.7-3.08-4-1.68-3.3-7.6-5.44-2.92-10.5A3.2,3.2,0,0,1,1058.16,541.3Z"/><path class="cls-84" d="M281.55,539.38a61.86,61.86,0,0,1-6.95-1.89c-1.67-.65-3.38-1.91-3-4,.37-1.94,2.3-1.38,3.7-1.54,4-.47,7.7-4.72,12-.89a7.61,7.61,0,0,0-.9,6.52C285.2,539.24,283.41,539.4,281.55,539.38Z"/><path class="cls-85" d="M293.74,528.24q2.4-13.12,4.79-26.24l2,.19v24.36Z"/><path class="cls-86" d="M425.7,620.51l4.17.22,13.95,6.82c-6.12,2.51-11.69,1.52-17.08.2C421.51,626.46,425.13,623.08,425.7,620.51Z"/><path class="cls-46" d="M93.22,603.62l10.92,9.29L80.27,609.1C84.34,604.53,89.38,605.5,93.22,603.62Z"/><path class="cls-87" d="M1088.06,505.15l-18.3-.17c-2.9.51-5.26.23-5.22-3.56,9.87.12,19.85-2.1,29.58,1.27C1092.88,505.42,1090.09,504.35,1088.06,505.15Z"/><path class="cls-88" d="M256.67,355.75c-4-4-.64-6.45,2.12-8.54,3.76-2.84,7.65-3.2,10.82,1.18.63,1.88-.59,2.74-2,3.5Z"/><path class="cls-89" d="M443.44,296.68c-2.26-.43-6.44.77-5.86-2.22.89-4.55,5.87-2.66,9.17-3.08,2.2-.27,6.09-.51,5.27,2.66C451,298,446.34,295.86,443.44,296.68Z"/><path class="cls-90" d="M200,353.94c8,5.05,10.94-.95,14.17-6.4.06,1.49.56,3.15.08,4.45-.8,2.21,3.92,6.65-.83,6.17C209.12,357.73,201.31,364.56,200,353.94Z"/><path class="cls-91" d="M749.41,458.52a10.16,10.16,0,0,1-6.93,1.43c-.17-.9-.78-2.3-.44-2.6,3.1-2.71-1.88-9.58,3.05-9.4C749.84,448.13,749.43,454.27,749.41,458.52Z"/><path class="cls-92" d="M853.85,602.08c-2-1.55-1.31-3.69-1.28-5.69a48.9,48.9,0,0,1,34.75-.08c0,.79,0,1.58,0,2.36-9.29-.06-18.57-.14-27.85-.19C856.85,598.47,853.77,597.85,853.85,602.08Z"/><path class="cls-93" d="M212.69,283.82c-.27,4.81-4.61,6.49-7.26,9.47-1.13-5.16-.06-10.08,1.62-14.93Z"/><path class="cls-94" d="M267.64,351.89c.66-1.17,1.31-2.34,2-3.5,2.57-1.52,5.9-.27,9.06-4.52-.62,7.05-1.86,10.92-7.43,11.75Z"/><path class="cls-95" d="M358.67,269.07c-1.8.55-2.1.76-2.3.68-4.51-1.68-8.5-4.05-10.78-8.51-.09-.19.77-1.23,1-1.17C351.69,261.24,355.15,264.5,358.67,269.07Z"/><path class="cls-96" d="M429.24,323.82c1.77-1.43,2.9-.68,3.67.09,2.66,2.69,6.95,3.52,8.41,7.44.11.29-1.42,1.69-1.73,1.55C435.2,330.93,430.78,328.88,429.24,323.82Z"/><path class="cls-97" d="M816.27,377.17c-2.48-2.36-5.86-.58-9.16-2.16,3.25-2.9,6.35-5.46,10.39-6.7q0,3.33.1,6.66C817.15,375.7,816.71,376.44,816.27,377.17Z"/><path class="cls-98" d="M349,336.42c1.2-5.42,5-8.08,11-10.86C357.79,332.13,353.68,334.58,349,336.42Z"/><path class="cls-99" d="M347.78,298.07c-4.13,3.46-8.72,2.33-14.65,2C338.27,294.9,343.16,297.13,347.78,298.07Z"/><path class="cls-100" d="M392.76,250.14c-2.55-4.45-2.88-9-.72-15.13C395.33,240.85,394.73,245.46,392.76,250.14Z"/><path class="cls-101" d="M437.53,254.63c-2.18,7.35-6.73,9.54-12.55,13.18C427.12,260.45,431.68,258.27,437.53,254.63Z"/><path class="cls-102" d="M1069.31,526.1c7.49-.2,15,1.23,22.45-.88,1.85,1.21,2.29,2.42,0,3.64l-15-.17c-2.21,1.16-4.63.9-6.89.55S1066.86,527.62,1069.31,526.1Z"/><path class="cls-103" d="M828.87,423.65c-.07-1.68-.13-3.37-.2-5l7.36-.4q.48,2.69.94,5.36C834.31,426.92,831.62,428.43,828.87,423.65Z"/><path class="cls-92" d="M891.25,609.39c1.8-.89,1.57-2.75,2-4.27a35.76,35.76,0,0,1,3.5,14.13C891.53,616.83,891.9,612.82,891.25,609.39Z"/><path class="cls-104" d="M629.72,622.67c-2.83,3.12-6.94,2.52-9.78,1.54-4.73-1.64-.51-2.82.95-3.94Z"/><path class="cls-105" d="M966.46,554c-.09-5.75,0-11.51-.34-17.25s1.75-8.71,7.63-8.67c3.37-2.48,7.31-2,11.14-2.2,5.41,0,10.86-.52,16.2.92,6.27,3.63,4.94,10,5.75,15.7-1.67,5.54-3.74,10.88-8.11,15-9.72,2.24-19.46,2-29.23.24A4.75,4.75,0,0,1,966.46,554Z"/><path class="cls-106" d="M984.83,528H973.75l.36-16.1c4.3-13,10.81-24.53,21.09-33.88,1.95-1.77,3.54-3.05,6.1-3,4.91,4.39,11.05,7.47,14.39,13.54a9.91,9.91,0,0,1-.3,7.07,14.45,14.45,0,0,1-10.62,7.48c-18.84.82-18.84.82-19.1,19.51C985.64,524.49,985.78,526.34,984.83,528Z"/><path class="cls-107" d="M973.71,582c-5.53-.87-9-.34-9.21,7.06-.28,9.5-7.77,12.3-16,12.89-9.53.69-16.89-3.64-19-10.9-.54-1.86-2.45-4.35.76-5.36,2.66-.84,6.5-4,8.2-.28,3.4,7.32,9.21,5.62,14.86,5.43a1.83,1.83,0,0,1,2.33,0c-4.41,7.31-8.69,7.69-20.6,1,6.5,6,12.78,5.75,18.94,3.56s7.56-7.55,3.53-13c-2.26-3-3.25-5.12.64-7.25a11.38,11.38,0,0,1,4.46-.33c15.16,1.2,30.34.27,45.49.58,3.93.08,7.91-.29,11.71,1.13a4.62,4.62,0,0,1,2.3,2.23c-1.32,5.5-5.91,5.35-10.07,5.63-10.25.68-20.47-.42-30.7-.67A9.8,9.8,0,0,1,973.71,582Z"/><path class="cls-108" d="M973.71,582l8.07-1c6.59,8,4.27,17,3.09,25.93l-10.54.3Q974,594.65,973.71,582Z"/><path class="cls-109" d="M955,591a13.12,13.12,0,0,1-1.65-.14c.89-4.62-1.14-6.51-5.7-7.39-5.65-1.09-11.39-2.57-15.4-7.38-6.48-7.79-2.4-18.25,8.24-19.88,8.58-1.31,17.33-1.55,26-2.27.93.74,1.85,1.49,2.77,2.24-4.91,1.52-3.82,8-8.21,9.93-5-1.17-8.21-6.37-14.1-5.86-5.07.43-10.39.51-11.79,6.47-1.45,6.19,3.47,8.49,8.14,10.33,3.69,1.45,7.94,1.73,11.06,4.31C957.68,584.14,961.23,587.39,955,591Z"/><path class="cls-110" d="M1067.64,473.32q-4.62,12-9.26,24c-2.41.47-3.89-.76-5-2.72a5.68,5.68,0,0,1-.73-2.57c1.42-11.65-2-19.6-15.28-20-4.17-4.88-4.84-9.94-.83-15.25,9.79-10.32,16-9.64,23.85,2.9C1063.13,464,1065.25,468.77,1067.64,473.32Z"/><path class="cls-111" d="M1014.08,487.94c-4-4.57-11.47-5.66-12.77-12.88,2.69-7.1,5.57-14.06,11.21-19.51,7.92-7.67,11-7.51,19.7,1.39,4.49,5,1.93,9.75-.36,14.54C1023.28,475.2,1018,480.11,1014.08,487.94Z"/><path class="cls-112" d="M1042,442c-5.52,12.11-7.18,12.28-15,1.52-4-11.54-2.07-14.86,8.17-14.22C1042.68,429.75,1043.86,431.94,1042,442Z"/><path class="cls-113" d="M1042,442c-.27-10.86-1.47-11.81-12.31-10.73-3,.3-3.4,2-3.34,4.25.08,2.67.42,5.33.65,8-5.16-4.75-6-10.37-2.27-16.09,3.1-4.84,8-5.44,13.43-4C1046.71,425.67,1047.87,431.14,1042,442Z"/><path class="cls-114" d="M1030.75,471.09c.42-4.73,2.52-9.27,1.47-14.15,1.34-2.94,2.81-2.59,4.35-.16-.44,4.88-.32,9.7,1.37,14.37C1035.52,473.6,1033.13,473.64,1030.75,471.09Z"/><path class="cls-115" d="M807.33,579.77c5.18-4.71,1.78-10.45,1.6-15.67-.16-4.62.82-6.75,5.87-6.71,4.43.05,4.83,2.45,4.93,5.83.33,10.66.87,21.32,1.16,32,.06,2.54,1.14,6.24-2.54,6.9s-7.84,1.73-10.6-2.78c-4-6.49-8.33-12.76-12.51-19.12a3.65,3.65,0,0,1,2.36-1.12c4.95.95,6.12,5.55,8.61,8.89,2,2.64,3.1,6,8.17,8,1.45-9.86.36-19.32.54-28.68-.72,4.15-.16,8.36-.53,12.52-.29,3.44.82,8.95-3.72,8.95-4.19,0-7.29-4.08-5.78-9.36A2,2,0,0,1,807.33,579.77Z"/><path class="cls-116" d="M797.7,579.88l-2.46.32c-2.56,5.61-.87,11.31-.33,17,.4,4.18-1,6.19-5.51,6.26-4.09.06-5.19-1.75-5.26-5.49-.21-10.94-.78-21.88-1-32.83-.06-2.72-1.51-6.68,3.25-7.1,3.47-.31,7.16-1.27,9.55,3.09,3.5,6.38,7.56,12.46,11.38,18.67l-2.16.25c-7.48-2.43-8.12-11.74-15.59-15.92-1.6,10.15-.58,19.36-.57,28.54.51-4.57,0-9.18.5-13.72.33-3-.81-8.09,3.92-7.59C796.9,571.69,799.33,575.47,797.7,579.88Z"/><path class="cls-117" d="M804.7,323.87c-3.4-8.13-8-15.9-7.3-25.23,1.8-1.93.94-7.19,5.51-5.48,5.69,2.11,13,1.18,16.47,7.9.68,1.33,1.15,2.76,1.72,4.15-1.66,1.34-1.66,3-1,4.81,2.76,6-2,13.06,2.9,18.67,0,.87,0,1.74,0,2.61C815.59,332.05,811.46,324.72,804.7,323.87Z"/><path class="cls-118" d="M801.54,231.15c.89,5.78,13.85,15,17.29,12.06,9.06-7.67,17.76-15.83,22.87-26.9,3.06-6.64.58-9.69-6.51-9.89-9.69-.27-18.49,3.13-27.48,6-5.41,1.72-8.67,4.34-6.75,9.76C801.17,225.68,801.12,228.45,801.54,231.15Z"/><path class="cls-118" d="M775.54,228.65c-8.29-.37-20.19,12.19-20.23,22,.79,3.72-2,9.12,2.33,12.27,5.63,4.06,11.43,8.94,18.4,9.58,7.89.73,19.2-12.15,19.25-20.31C795.36,240.92,785.43,229.1,775.54,228.65Z"/><path class="cls-118" d="M771.86,218.43c5.78,1.83,20-6.36,19.84-11.6-2.35-10.56-4.4-21.4-10.65-30.81-3.84-5.79-7.67-5.28-11.4,0-4.86,6.88-6.95,14.92-8.93,22.9C757.43,212.2,758.78,214.3,771.86,218.43Z"/><path class="cls-118" d="M735.52,245.49c6.25-5.56,16.83-8.08,13.94-20.27-1.08-3.07,2.66-7.77-3.2-9.83-10.09-3.55-20.25-6.79-31-6.67-8.37.09-10.68,3.71-7,10.95,5.36,10.58,14.37,18,23.29,25.36C732.67,246,734,246.83,735.52,245.49Z"/><path class="cls-118" d="M749.18,270.43C748.37,264.55,735.38,255,732,258c-8.86,7.94-18,15.81-23.09,27-3,6.64-.35,9.81,6.72,9.92,9.06.14,17.35-3,25.87-5.48,6.74-2,10.07-5.37,7.71-12.91A41.54,41.54,0,0,0,749.18,270.43Z"/><path class="cls-118" d="M819.58,256.5c-1.45-1.26-3.05-2-4.85-.43-6.11,5.39-16.12,8.05-13.43,19.62.23,3.24-2.65,8,2.05,9.63,10.9,3.78,21.88,7.87,33.7,7.21,6.85-.37,9.28-4,5.9-10.5C837.42,271.46,828.37,264.09,819.58,256.5Z"/><path class="cls-119" d="M846.42,273.89c-5-7.85-11.71-14.16-19-19.82-4.23-3.31-4-5.48-.06-8.95,8.3-7.29,16-15.29,20.69-25.51,5.46-11.82.31-19.87-12.81-20.31-9-.31-17.75,1.83-25.93,5.19-7.85,3.22-11.48,2.3-12.58-6.93a59.51,59.51,0,0,0-8.21-23.23c-7.64-12.92-18.41-13.16-26.17-.39-5.48,9-7.91,19.2-9.91,29.41-.94,4.8-2.67,6-7.43,4.15a89.65,89.65,0,0,0-28.61-6.05c-6.29-.21-12.89.71-16,6.92-2.89,5.86-.91,11.89,2.6,17.36,5.53,8.64,12.9,15.56,20.67,22,3.51,2.93,3.57,4.56.18,7.63-7,6.37-14,12.95-18.68,21.35-3.25,5.81-7.38,11.86-3.21,18.83,4.35,7.25,11.71,6.9,18.84,6.32a73.8,73.8,0,0,0,23-5.93c6.29-2.7,8.25-1.19,9.45,5.31,2,10.81,4.6,21.66,12.21,30.24,6.39,7.22,13,7.1,19.57.1,4.31-4.58,6.22-10.45,8.73-16,3.34-5.2,2.3-9.67-2.25-13.56a5.83,5.83,0,0,0-1.46.18l.05.14c-2.78,7.74-4.3,16-9.22,22.86-3.86,5.41-7.7,5.54-11.41,0-6.44-9.65-8.67-20.82-10.58-31.94-.79-4.63,15.22-12.08,20.69-9.92,3.4,1.35,6.72,2.9,10.07,4.37a6.69,6.69,0,0,1,1.1,3.94c1.94,2.73,2,7.22,6.56,7.47,6.17-4.8,12-2.61,17.74.91,2.28,1.4,3.05,4.73,6.27,4.95a2.56,2.56,0,0,0,2-1.39c-.2-2-3.15-5.09,2-4.77,1.83.12,3.64.6,5.46.7,7.13.38,14.72.74,19.07-6.08C854.46,286.38,850.2,279.88,846.42,273.89ZM708.19,219.67c-3.66-7.24-1.35-10.86,7-10.95,10.8-.12,21,3.12,31,6.67,5.86,2.06,2.12,6.76,3.2,9.83,2.89,12.19-7.69,14.71-13.94,20.27-1.51,1.34-2.85.52-4-.46C722.56,237.64,713.55,230.25,708.19,219.67Zm40.28,37c-3.76-1.56-7.61-2.55-7.27-5.78.28-2.72,3.77-4.27,6.85-5.07C750.05,249.17,748.35,252.4,748.47,256.69Zm-7,32.74c-8.52,2.48-16.81,5.62-25.87,5.48-7.07-.11-9.71-3.28-6.72-9.92,5.06-11.2,14.23-19.07,23.09-27,3.36-3,16.35,6.57,17.16,12.45a41.54,41.54,0,0,1,.05,6.09C751.59,284.06,748.26,287.47,741.52,289.43ZM793.68,229c-4.22-.21-6.73-3-10-4.88,2.25-3,5.58-5.37,8.34-4.12C795.37,221.52,793.84,225.69,793.68,229Zm-33-30.1c2-8,4.07-16,8.93-22.9,3.73-5.28,7.56-5.79,11.4,0,6.25,9.41,8.3,20.25,10.65,30.81.16,5.24-14.06,13.43-19.84,11.6C758.78,214.3,757.43,212.2,760.72,198.92ZM758,221c2-1.24,5.12.63,7.79,3.14-2.57,2.76-5.14,4.59-8.64,5.2C756.45,226.27,755.4,222.63,758,221Zm0,60.22c-2.61-1.39-.8-5.53-1.68-9.15,4.77.68,7.75,2.78,10.71,5.47C764.07,279.72,761,282.78,758,281.2Zm27.25-3.76c1.83-3.39,4.91-4.84,8.41-5.9C793.72,281.94,793.72,281.94,785.24,277.44Zm-9.2-5c-7-.64-12.77-5.52-18.4-9.58-4.38-3.15-1.54-8.55-2.33-12.27,0-9.77,11.94-22.33,20.23-22,9.89.45,19.82,12.27,19.75,23.5C795.24,260.31,783.93,273.19,776,272.46Zm31.67-60c9-2.86,17.79-6.26,27.48-6,7.09.2,9.57,3.25,6.51,9.89-5.11,11.07-13.81,19.23-22.87,26.9-3.44,2.91-16.4-6.28-17.29-12.06-.42-2.7-.37-5.47-.58-9C799,216.75,802.3,214.13,807.71,212.41Zm-4.45,43.46c-.78-4.22-2.26-7.71.6-9.93,1.64-1.28,4.38,1.29,4.89,2.81C810.25,253.21,805.63,253,803.26,255.87Zm33.79,36.66c-11.82.66-22.8-3.43-33.7-7.21-4.7-1.63-1.82-6.39-2.05-9.63-2.69-11.57,7.32-14.23,13.43-19.62,1.8-1.6,3.4-.83,4.85.43,8.79,7.59,17.84,15,23.37,25.53C846.33,288.49,843.9,292.16,837.05,292.53Z"/><path class="cls-120" d="M670.43,353.76c-.86,5.07-3.65,7.69-8.68,7.5s-7.71-3-7.93-8c-.23-5.43,3.48-8,7.87-8.07C666.76,345.11,669.55,348.88,670.43,353.76Z"/><path class="cls-121" d="M683.29,371.22c-.12,5.08-3,7.15-6.42,7.17s-6.47-2.2-6.34-6.28,2.5-7.07,6.78-6.84C681.1,365.47,682.78,368.52,683.29,371.22Z"/><path class="cls-122" d="M686.83,441.57l-16.45.09c-.17-5.5,2.5-8.53,8-8.76C684.29,432.64,685.84,436.89,686.83,441.57Z"/><path class="cls-123" d="M684.64,403.27c-1.2,3-2.72,5.43-5.84,5-2.75-.39-5.06-2-4.72-5.45.32-3.14,2.06-5.07,5.3-4.65C682.35,398.53,683.76,400.84,684.64,403.27Z"/><path class="cls-124" d="M668.6,390.64c-.25,2.9-1.45,5-4.4,5.08-3.43.09-4.86-2.11-4.87-5.33,0-2.87,1.49-4.81,4.33-4.91C667.06,385.35,668.45,387.62,668.6,390.64Z"/><path class="cls-125" d="M668.48,424.81c.12,3-1.41,4.44-4.36,4.48s-4.69-1.05-4.65-4.18c0-2.83,1.42-4.67,4.31-4.77S668.08,422.09,668.48,424.81Z"/><path class="cls-126" d="M1054,494.79l4.43,2.54,6.16,4.08,5.22,3.56c3,7.11-1.58,14.07-.45,21.13,1.12,4.8,5.13,1.27,7.45,2.59-4.89,2.12-10,3.31-10.59,10.59-.25,3.48-5.1,1.89-8,2a7.07,7.07,0,0,1-1.21.11c-3-7.86-9.21-9.26-16.71-8.53a47,47,0,0,1-10.87,0c-7.75-1-12.84,1.76-15.13,9.35-2.51,2.67-5.24,3.5-8.38,1.06-3.43-4.37-1.4-10.29-4.19-14.84-4-5.45-3.71-11.95-3.92-18.16-.16-4.74,2.93-7.69,7.67-8.65l9.41-6.69C1027.86,491.05,1040.9,491.29,1054,494.79Z"/><path class="cls-127" d="M241.71,280.32c.48-4.82,4.25-7,7.62-9.49l95.56,106.83a24.13,24.13,0,0,1-9.05,9Q288.77,333.48,241.71,280.32Z"/><path class="cls-128" d="M690.46,447.79c0,37.61-.05,75.23.17,112.84.06,11.49-3.51,20.43-14.85,24.69-2.9,1.1-3.56,2.94-3.78,5.48-2-2-1.23-4.58-1.27-7,1.59-2.35,3.93-3.78,6.24-5.3a19.19,19.19,0,0,0,8.91-15.31c.63-8.86.2-17.74.23-26.62,0-4.91-2.21-7.31-7.22-7.28-6.12,0-12.25.09-18.37,0-5.46-.09-7.61,2.51-7.71,7.81-.14,7.32.64,14.7-.92,22-4.25,3.27-4.25,3.27-6.84-4.58a6.32,6.32,0,0,1,1.54-5.78L646.53,448Z"/><path class="cls-129" d="M558.33,550.49c-.05-31-.27-61.92,0-92.88,0-6.45-1.88-8.69-8.32-8.3a170.08,170.08,0,0,1-23.89,0c-7.87-.62-10.48,1.57-10.34,10,.58,35.24.35,70.49.36,105.74,0,16.25-9.19,26.1-24.12,26-13.79-.07-23.71-10.69-23.77-26-.16-38.62-.13-77.24-.18-115.86l91.73-1.36c1.87,1.36,3.53,2.88,4.09,5.26,1.88,28.1.47,56.25.78,84.37,0,1.83-.1,3.67.1,5.5C564.21,552.05,563.62,552.73,558.33,550.49Z"/><path class="cls-130" d="M588,425.28c14.14.18,14.14.18,14.45,16.6l-40.66.05c.05-16.15.05-16.15,19.86-16.74Z"/><path class="cls-131" d="M562.22,450.47l-2.43-2.55,46.46-.11-3.59,1.76c-11.82,2.13-12.43,10.36-12.39,20.33.09,18.31,1.71,36.7-1,55-1.71,3.07-4.16,3.74-7.28,2.28-3.07-3.61-2.56-8-2.59-12.26-.11-16.53-.05-33.06-.05-49.58,0-11-.41-13.7-11.86-13.3A9.52,9.52,0,0,1,562.22,450.47Z"/><path class="cls-132" d="M175.6,554.16c-2,2.08-.86,5.15-1.51,6.92-5,13.44-5.36,27.89-9.85,41.37-34.17,18.9-66-3.14-71.79-28.83-4.18-18.45-.09-34.5,14.61-47.19,2.62-.56,4.4-3.23,7.35-2.95a5,5,0,0,1,3.84,3.38c1.16,2.85,1.21-.51,1.93-.42a2.93,2.93,0,0,1,2.19-.19,2.78,2.78,0,0,1,1.16,2.12c1.06-.57.36-1.36.11-1.92-.68-1.49-2.19-2.64-1.79-4.57,9.41-5.65,13.5-3.86,15.77,6.83.34.81.61,1.65.88,2.49a14.08,14.08,0,0,1,.55,3.87c-2.05,8.93,2.36,18.23-2.39,27.51,5.64.75,10.1-1.82,13.16-1.24-2.16.1-6.21,1.38-8.6-3.16.07-10.95,5.05-20.42,9.6-29.87,2.23-4.66,6.46-5.29,10.22-.84,2.35,2.79,5.25,5.06,7.38,8,3,3.53,5.77,7.13,2.88,12C172.87,549.65,178.26,549.34,175.6,554.16Z"/><path class="cls-133" d="M121.76,526.76h-.49l-.49,0c-2.14.18-3.08-2.79-5.42-2.07l-8.3,1.77c22.38-21,60.34-14.6,73,12.36-1.44,5.13-1.61,10.63-4.42,15.37-.58-6-7.36-1.5-9.15-5.43,8.1-4.75,8.53-7.52,1.76-11.48a70.47,70.47,0,0,1-6.36-5.12c-7.3-7.4-8.37-7.2-11.92,3.15-2.55,7.44-4.89,15-7.32,22.44-5,.06-3.29-3.88-3.69-6.42-.85-5.51.54-11.24-1.57-16.65l-.24-4.42c3.65-1.7,6.9-3.69,6.31-8.5.45,4.69-3.18,6.42-6.27,8.53-1.18-.08-2.5-.13-2.69-1.62-1.05-8.68-3-9.53-12.09-5.33C123.28,524.65,123.42,525.86,121.76,526.76Z"/><path class="cls-46" d="M287.9,585.51c-.38,4.83-2.8,6.62-7.78,6.53-17.92-.35-35.84-.25-53.75-.43-3,0-7.23,1.43-7-4.22q1.4-4.6,2.8-9.21a377.13,377.13,0,0,1,54.69-4C285.88,574.22,289.14,576.93,287.9,585.51Z"/><path class="cls-46" d="M289.56,563.52c0,1.21-.07,2.42-.11,3.64-2.15,3-5.06,3.78-8.71,3.66-7.93-.24-15.89-.37-23.8.07-5.2.29-6.55-1-6.11-6.46.91-11.12.39-10.83,11.36-7.55C271.17,559.56,280.42,561.34,289.56,563.52Z"/><path class="cls-46" d="M223.22,574.15c1.29-8,2.8-16,5.57-23.76,3.78,3.27,9.29,2.57,13.12,5.71,4.47,3.42,3,8.88,4.56,13.31.61,1.8-.5,3.16-2.22,3C237.1,571.64,230.45,576.38,223.22,574.15Z"/><path class="cls-3" d="M244.82,460.56c1.42,7.46-2.6,13.95-3.74,21-.52,3.25-3.43,2.7-5.81,2.69-3.3,0-6.6,0-9.91,0-1.11-12.19-2.8-24.35-1.86-36.65,5.42-.7,6.75,8.58,13.18,5.4Z"/><path class="cls-134" d="M380.46,270.12c2.39.54,3.3,2.19,2.6,4.07-1.56,4.19-3,8.86-8.27,9.75-2.39.41-2.77-1.88-2.4-3.78A13.77,13.77,0,0,1,380.46,270.12Z"/><path class="cls-135" d="M721.24,522.94c5.33,9.76,1.73,20.36,2.83,30.52.36,3.3,0,6.69-.06,10l-2.64,19.8C720.91,563.15,718.37,543,721.24,522.94Z"/><path class="cls-136" d="M743.83,594.42l-12.53,0,8.49-24.32,1.67.28Z"/><path class="cls-137" d="M737.08,502.53l.9,0c3.58,8.42,7.31,16.79,10.66,25.32,1,2.66,2.33,6.83-1.62,7.77s-4.37-3.1-4.93-6.17C740.48,520.44,738.76,511.49,737.08,502.53Z"/><path class="cls-138" d="M696.19,473.29c-3.67-4.08.19-7.91.73-11.73.37-2.64,3.19-2.56,4.35.09.8,1.85.72,4.07,1,6.13A6.28,6.28,0,0,1,696.19,473.29Z"/><path class="cls-139" d="M1062.46,554.5l3.87,1.89-.54,23.55c-3.67,2.62-7.77,2.73-12,2.18-9.87-1.25-19.88,1.11-29.71-1.22a3.07,3.07,0,0,1-1.17-2.93c-.35-5.16.33-10.36-.65-15.49-1.13-6,1.89-8.73,7.45-8.75C1040.61,553.71,1051.58,552.57,1062.46,554.5Z"/><path class="cls-140" d="M1029.24,587.35c16.09,0,32.19.34,48.27-.13,7.4-.21,11.77,1,10.55,9.74-.31,2.18,1.08,4.6,1.7,6.92-2.81,2.64-6.34,1.8-9.6,1.82-13.44.11-26.87.08-40.31,0C1026.23,605.7,1023,600,1029.24,587.35Z"/><path class="cls-141" d="M1029.24,587.35c-1.35,16.9-1.35,16.95,15.65,16.89,15,0,29.91-.24,44.87-.36,1,.55,2.54.88,2.88,1.7.63,1.54-.84,1.88-2.07,1.91-4.52.11-9,.17-13.56.25l-49.77-.38c-7.94-8.32-4.36-18.08-3.43-27.51l42,.09h29.27c-4.69,4.53-8.13,3.58-11.14,3.6-15.6.1-31.2,0-46.8.06C1034.09,583.62,1029.94,582.11,1029.24,587.35Z"/><path class="cls-8" d="M207.73,433.94c3.36,16.11,6.18,30.38,7.76,44.89.56,5.16-2.05,5.82-5.85,5.2-3.23-.53-8.88,2.65-8.23-4.73A381,381,0,0,1,207.73,433.94Z"/><path class="cls-3" d="M192.68,502.26c-.07-.34-.15-.69-.25-1l14.18-1.1c-.65-4.68-7.83-2.08-6.87-7.29.5-2.76,0-7,4.53-6.35,4.2.62,9.85-3.54,12.43,3.4,1.36,3.65.08,7.91,2.73,11.22.2,1.34-.26,2.67-1.52,2.89C209.38,505.43,200.76,507.61,192.68,502.26Z"/><path class="cls-8" d="M225.42,486.46c14.79-.49,14.79-.49,10.65,16-2.57,2.15-5,3.19-6.44-1.09,1.29-.18,3.32-1.62,2.93-1.64C222.37,499.32,225.81,491.87,225.42,486.46Z"/><path class="cls-142" d="M229.63,501.34c2,1.45,4.21,1.24,6.44,1.09-.53,1.35-1.06,2.69-1.6,4-14.13,4.47-28.26,4.91-42.36-.17l.57-4c8.94.06,18,2.26,26.75-1.15Z"/><path class="cls-143" d="M854.42,473.06l-22,.52c-4.3,2.79-8.57,3.13-12.79-.17-.57-1.3-1.13-2.61-1.7-3.92,2.1-2.15,2-6.08,5.7-6.94l3.57,0c3.68-.46,1.73,5.34,5.43,4.84,4,.5,6-3.21,9.19-4.34l3.62-.24c2.71,2.5,5.39,5,8.76,6.68Z"/><path class="cls-144" d="M819,425.29c1.25,4.51,2.59,9,2.05,13.79-9.13,3-15.82-2.31-14.3-11.22.34-2,1.51-2.39,3.1-2.43C812.93,425.34,816,425.33,819,425.29Z"/><path class="cls-145" d="M819.62,473.41l12.79.17q0,6.24,0,12.46C821,489.09,820.55,481,819.62,473.41Z"/><path class="cls-146" d="M847.33,577.92c11,4.33,22.43,1.6,33.68,1.39.4,0,.76-2,1.14-3.13,2.48,2.07,1.17,5,1.63,7.48l-34.57.33C848.58,582,848,579.94,847.33,577.92Z"/><path class="cls-147" d="M876.15,552.67c-11.69.31-23.55-2.67-35,1.74-1.9-1.64-.93-3.9-1.3-5.87l34.63.07Z"/><path class="cls-148" d="M821.19,441.21c1,4.6,1.92,9.22,1.46,14-3.21-.76-7.19,1.93-9.47-3C809.19,443.49,810.36,441.65,821.19,441.21Z"/><path class="cls-149" d="M832.93,488.39c-.5,4.6-1.4,9.23.57,13.73-.41,2.19-1.7,1.39-2.91.85-6.77-1.62-6.43-8.18-6.36-12.31C824.31,485.91,829.77,488.71,832.93,488.39Z"/><path class="cls-150" d="M823.62,462.55c-1.29,2.81-1.5,6.52-5.7,6.94a41,41,0,0,0-1.4-5.31c-2.68-6.52.38-8.15,6.24-7.54C823.05,458.61,823.33,460.58,823.62,462.55Z"/><path class="cls-151" d="M845.08,565.48c9-.11,18-.14,26.95-.36,2.66-.07,6.41,1.37,6.56-3.55,2.1,1.58,1.31,3.81,1.33,5.85l-34.87-.64A3.17,3.17,0,0,1,845.08,565.48Z"/><path class="cls-152" d="M832.36,517.59l34.47-.65,0,2.88c-11.49,1.11-23.11-1.24-34.55,1.32C832.33,520,832.34,518.78,832.36,517.59Z"/><path class="cls-153" d="M830.59,503l2.91-.85c7.49.06,15,.15,22.48.16,2.57,0,5.65.74,6.17-3.25,2,1.58,1.16,3.78,1.25,5.77l-32.73-.18A2.52,2.52,0,0,1,830.59,503Z"/><path class="cls-8" d="M192.11,506.3l42.36.17c-.15,1.51-.34,3-.44,4.54-.61,9.31-4.95,13.18-14.74,11.9-7.51-1-15.29-.59-22.88,0s-9.32-2-6.51-8.72A65.23,65.23,0,0,0,192.11,506.3Z"/><path class="cls-5" d="M188,525.38c13.9-1.68,27.79-.14,42.89-.75-3.55,5.92.29,13.54-7.45,16.63-1.69-1.35-4.15-1.2-5.71-2.41-6.34-4.92-12.46-6.34-18.85-.15-.8.78-2.29.41-3.48.16A15.54,15.54,0,0,1,188,525.38Z"/><path class="cls-46" d="M196.1,582.35c1.2-.1,2.39-.26,3.59-.3,17.73-.6,17.73-.6,12.65,16.28-7.1,3.72-14.63,1.39-22,1.55C185.15,591.71,191.86,587.43,196.1,582.35Z"/><path class="cls-46" d="M221.09,563.94c-4.44,16.66-4.44,16.66-23.49,15.57-3.33-6.21-1.37-11.7,2.3-17C207,561.8,214.29,559.57,221.09,563.94Z"/><path class="cls-154" d="M196.1,582.35c-1.39,5.81-4.95,10.55-7.71,15.68-2.24,2.56-4.72,2.63-7.4.74-3.4-1.12-7.59,1.72-10.46-2.07,3.14-5.26,6.14-10.62,10.93-14.66Z"/><path class="cls-155" d="M197.61,543.76q1,7.93,2.11,15.88c-3.77,3.56-8,2.85-12.32,1.35-5.07-4.37-3.82-10.42-4.22-16C187.76,541.85,192.76,543.62,197.61,543.76Z"/><path class="cls-156" d="M199.83,563.71q-1.12,7.9-2.23,15.8H183.14c-1.22-6.43-.32-12.32,4.38-17.26C191.74,561.75,196.07,560.35,199.83,563.71Z"/><path class="cls-157" d="M199.83,563.71l-13.33-.1c-2.25,1.73-4.53,2-6.87.16-.1-1.31-.21-2.63-.32-3.94,2.39-2,4.8-2.06,7.25-.12l13.16-.07,21.86.14c-.17,1.39-.33,2.78-.49,4.16C214,562.87,206.92,563.22,199.83,563.71Z"/><path class="cls-158" d="M179.63,563.77l6.87-.16c.07,5.55-1.43,10.77-3.37,15.9-9,2.44-9.28-2.12-6.83-8.65C177.22,568.42,178.51,566.13,179.63,563.77Z"/><path class="cls-159" d="M181,598.77l7.4-.73,24,.29c-.16,2.54,1,5.35-1.47,7.43.2-3.85-2.16-4.38-5.27-4.27-7,.25-14,.35-21,.51-5.19,2.75-10.41,4.08-15.72.3C171.86,597.49,177.56,602,181,598.77Z"/><path class="cls-160" d="M168.88,602.3l15.72-.3c-5.09,5.8-10.67,10.94-18.07,13.7Q167.7,609,168.88,602.3Z"/><path class="cls-161" d="M195.73,537.85c.13,1.11.26,2.21.4,3.32-1.19.13-2.38.22-3.56.4-7.3,1.14-9.87-1.56-7.17-8.69.94-2.47,1.72-5,2.58-7.51Q191.85,531.61,195.73,537.85Z"/><path class="cls-162" d="M181.46,582c-1.84,6.23-5.75,10.92-10.93,14.66C173.21,591.09,168.57,580,181.46,582Z"/><path class="cls-163" d="M186.56,559.71l-7.25.12c.85-5.07,1.49-10.19,3.87-14.87C185.86,549.52,186.53,554.54,186.56,559.71Z"/><path class="cls-164" d="M346.62,548.69c3.88,3.71,6-1.22,9-1.81,2.19,10.41,5.47,20.41,11.33,29.42q.87,2.26,1.75,4.53c.65,3.4,4.16,6.25,1.94,10.19l-49.57.1c-.89-13.5-2.85-27-2.1-40.54C328.59,555.52,337.86,555.87,346.62,548.69Z"/><path class="cls-165" d="M405.9,572.69l4.48-1.9c5,0,7.46,2.83,8.42,7.41-6.2,2.65-12,.09-17.84-1.42A8,8,0,0,0,405.9,572.69Z"/><path class="cls-166" d="M366.84,519.08c.16-.48.31-1,.46-1.43,3.38-.17,3.29-2.74,3.65-5.12.3-2,.53-4.81,3.45-4,3.86,1.08,1.46,3.59.71,5.68s-1.41,4.54-2.1,6.82Z"/><path class="cls-167" d="M996.06,292.53c-2.9-19.68-21.71-34.06-42.48-32.49-20.41,1.54-35.45,18.65-35.62,39.74-.07,8.36,3.46,15.37,6.28,22.73,4.15,9.27,11.4,15.55,21.25,16,6.41.32,13.26.44,19.8-1C986.74,332.82,999.3,314.44,996.06,292.53ZM957.68,333.1a33.74,33.74,0,1,1,.05-67.47c18.09.3,33,15.57,32.95,33.78S975.6,333.11,957.68,333.1Z"/><path class="cls-168" d="M823,328.69c-9.75-4.86-2.58-12.35-2.9-18.67C825.49,315.56,823.35,322.27,823,328.69Z"/><path class="cls-169" d="M201.13,225.24l33.59,38.26c-.25,3.62-2.1,5.64-5.82,5.77L194.08,230.5C194.49,226.14,197,224.62,201.13,225.24Z"/><path class="cls-170" d="M357.8,410.73,346.6,398c1.64-5.92,3.68-9.73,8.65-2a28.17,28.17,0,0,0,4.95,5.3C365.5,406,365,409.2,357.8,410.73Z"/><path class="cls-171" d="M546,592.2c-7.88-12.38-6.19-27.06-9.69-40.5-2.81-10.77-1.91-21.87-1.82-32.86,0-3.79-1-8.87,5.15-8.76s4.16,5.3,3.92,8.4c-1.51,19.78,3.91,38.8,6.11,58.16.09.8,1,1.51,1.47,2.26a7,7,0,0,1,3,3.31c6,11.74,7.55,12.36,19.27,7.25,2.33-1,4.47-1.85,6.79-.2a2.2,2.2,0,0,1,.72,1.56,6.6,6.6,0,0,1,1.24,4.2l-1.86,1.56c-4.08,2-8.72-.15-12.83,1.69-3.26-.35-7-1.89-9.68-.81C551.46,600,550.77,591.8,546,592.2Z"/><path class="cls-172" d="M580.18,589.26c-5.4-2-6,4.84-10.54,5.45-12.26,1.68-14.68,0-18.52-15.82,3.32-2.64-3.93-8.79,3.36-10.11,6.91-4.08,14.22-2.67,21.52-1.59a5.4,5.4,0,0,1,2.58,2.16c-2.94,4.16-1.34,9.36-3.19,13.82S579.07,586.82,580.18,589.26Z"/><path class="cls-173" d="M578.58,569.35l-2.46-.6c0-7.6,4.44-12,10.7-15.18,4.93,1.07,7.08,5.89,11.07,8.22,2.07,1.44,4.85,1.43,6.73,3.25a3.07,3.07,0,0,1-.21,3.6l-2.31,9.14A62.93,62.93,0,0,0,578.58,569.35Z"/><path class="cls-174" d="M613.46,620.44c-1.3,2.23.13,8.8-5.82,3.68.76-5.11-2.61-9.9-1.12-16Z"/><path class="cls-175" d="M582.14,595a3.89,3.89,0,0,1-1.24-4.2c3.62,2.88,11-4.57,12.36,4.49Z"/><path class="cls-176" d="M1023.81,579.85c2.56,5.8,1.27,11.93,1.48,17.91.12,3.34-.09,6.68,2,9.6l-18.39.23-24-.64c-4-8.29.38-17.58-3.09-25.93l31.14.8c3.36.09,6.73.24,8.77-3.24.5-.73,1-.72,1.59-.08A3.93,3.93,0,0,1,1023.81,579.85Z"/><path class="cls-177" d="M383.24,519.18c-3.12-.08-6.11-.21-5.66-4.7.32-3.11-1.56-6.92,2.07-9,3.37-1.9,5.28,1.61,7.74,3C388.12,512.87,385.13,515.81,383.24,519.18Z"/><path class="cls-178" d="M341.29,533.49c-.1,6-2.62,9.4-8.71,9.76-6.26.36-9.37-3.29-9.48-8.67C323,528.59,327,525,333,525,338.51,524.88,341.06,528.42,341.29,533.49Z"/><path class="cls-179" d="M649.61,569.12l-18,.41-9.33,0-17.93-.91c-.09-.9-.19-1.8-.29-2.7,2.1-3.47,5.65-3.15,8.9-3.16,12.39,0,24.79-.47,37.17.33a107.56,107.56,0,0,1,24.52-.42c3.09.26,7.73.44,6.94,5.07-.68,4-5,3.64-8.3,3.55a9.59,9.59,0,0,1-5-2h-8.69C656.24,571.68,652.9,571.35,649.61,569.12Z"/><path class="cls-10" d="M567.45,598.27c3.94-3.1,8.62-.63,12.83-1.69-2.63,3.45-7.09.57-10.31,2.8,7.33,3.25.3,4.11-.69,6C566.38,603.57,568,600.63,567.45,598.27Z"/><path class="cls-180" d="M405.5,469.33c0,3.16-1.85,4.17-4.63,4.09s-5.79-.83-5.55-4.32c.19-2.7,1.65-5.21,5.21-5C403.78,464.37,405.35,466.16,405.5,469.33Z"/><path class="cls-181" d="M828.87,423.65c2.73,2.59,5.41.87,8.1-.09.24,1.18.47,2.35.71,3.53-.22,3.9-1.73,8,1.25,11.5l0,3.53c-4.12,2.67-4.54,7-5.14,11.32a5.34,5.34,0,0,1-1.44,2.07,3.1,3.1,0,0,1-3.58-.47Q828.8,439.35,828.87,423.65Z"/><path class="cls-182" d="M668.33,569.33l12-1-.07-3.43h-30c-1.1-3,3-3.91,2.7-6.61,1.72-5.45,3.4-10.91,5.06-16-2.31,5.75-3.49,12.25-6.18,18.2a2.76,2.76,0,0,1-2.46.29c.07-9.16.34-18.33.16-27.49-.1-5,1.37-7.23,6.75-7,8.24.32,16.51.24,24.75-.11,5.44-.24,7.72,1.47,7.49,7.24-.37,8.84,0,17.72,0,26.58-.08,14.1-4.21,19.58-17.81,23.88Q669.53,576.58,668.33,569.33Z"/><path class="cls-183" d="M649.61,569.12l10,.2c-.42,4.17,4,7.91,1.07,12.28C654.52,579.64,651.74,574.67,649.61,569.12Z"/><path class="cls-184" d="M832.4,455l-.09,14.73c-7.89,2-2.21-5.66-5.12-7.22.52-2.5,1-5,1.55-7.49Z"/><path class="cls-185" d="M1012.4,541.59c.57-11,7.59-11.93,16.39-11a73.09,73.09,0,0,0,16.33,0c8.55-1,13.38,1.18,11.83,10.81-4.84,5.62,3.34,6,3.81,9.53-.73,3.21-3.37,3.16-5.79,3.23-11.91.36-23.84-.37-35.75.64a7.82,7.82,0,0,1-7.35-2.94C1009.49,548.33,1013.19,545.07,1012.4,541.59Z"/><path class="cls-186" d="M1011.75,549.05c.56,1.46,1.36,3.1,3,3.07,15.34-.31,30.75,2,46-1.19.57,1.2,1.14,2.38,1.71,3.57-10.47,2.07-21,.72-31.57.78-5.58,0-7.24,1.44-6.55,7.29.61,5.19,1.79,10.8-1,15.93l-.81-.21-.79.29-.42-.77c-1.52-1.67-1.73-3.76-1.94-5.88-1.21-12-1.22-12-13-14.53C1002.71,551.1,1007.19,550.05,1011.75,549.05Z"/><path class="cls-187" d="M1005.61,555.72c18.08,1.38,18.08,1.38,15.66,22.09-19.32,1.66-38.68.4-58,.54-.91,0-1.83-1.27-2.75-1.94-1.36-3.28-4.59-5.47-5.36-9.1,1.41-2.25,3.8-1.23,5.74-1.72,1.37-4.39-.49-11.64,8.35-9.39l29.5-.32C1001,554.79,1003.27,554,1005.61,555.72Z"/><path class="cls-188" d="M1005.42,501.62c-5.34,3.86-6.64,8.72-4.74,15.11,1.09,3.67.7,7.78,1,11.7l-16.84-.4c-3.26-6.67-1.53-13.75-1.53-20.64,0-4.54,3.49-6.06,7.55-6.07C995.71,501.32,1000.57,501.51,1005.42,501.62Z"/><path class="cls-189" d="M1005.61,555.72c-2.27.91-4.55,1.68-6.89.17a26.46,26.46,0,0,1,7.14-12.62c2.27-.21,4.82.69,6.54-1.68,4.55,2.89.68,5.06-.65,7.45Z"/><path class="cls-190" d="M1054,494.79l-39.12.14q-.37-3.49-.74-7c.49-16.41.49-16.41,16.66-16.85l7.2.06c17,.29,17,.29,16.42,17.28C1054.29,490.55,1054.09,492.67,1054,494.79Z"/><path class="cls-191" d="M960.87,565.59c-1.61,1.87-4,1.39-6,1.85-4.52.42-9.24-4.1-14,.61,3.74,5.69,12.05,2.87,15.47,8.58,0,.6-.13,1.59.16,1.76,4.91,2.76,7.69,6.51,5.64,12.33-2,5.59-6.48,7.82-12,8.18-6.46.43-13,.59-17.07-5.85-1-1.64-3-3.77-.39-5.44,2.06-1.29,3.8-.11,5.32,1.87,5,6.54,10.71,7.25,16.91,1.54,3.5-5.18.89-7.77-4-9.31-4-1.27-8.21-2.17-12.15-3.68-4.28-1.65-7.14-4.9-6.87-9.7.28-5.12,3.47-8.46,8.33-9.59C948.42,556.84,956.05,557.19,960.87,565.59Z"/><path class="cls-192" d="M956.4,576.63c-4.14-1.08-8.28-2.13-12.41-3.24-3.07-.82-6.4-2.11-6-5.75.39-4.19,4.2-4.62,7.7-4.89,4.08-.33,7.05,1.37,9.24,4.69,4.34,1.44,9.25,2.53,5.62,9Z"/><path class="cls-193" d="M797.7,579.88q-2.16-3.82-4.34-7.63l-1.47.28c0,7.45.09,14.9,0,22.35,0,2.09,1.33,5.49-2.87,5.25-3.24-.17-2.44-3-2.48-4.91-.19-9.78-.33-19.57-.32-29.36,0-1.9-1.07-4.56,1.85-5.44,2.69-.8,4.62.36,6.12,2.74,3.59,5.67,7.34,11.25,11,16.86l5.18,8.53,1.64-.16c0-7.6-.11-15.2.07-22.79.05-2.05-1.42-5.56,2.53-5.54,3.68,0,2.77,3.34,2.81,5.57q.27,14.6.27,29.19c0,1.88,1,4.53-2.2,5.11-2.61.48-4.48-.36-6-2.81C805.72,591.25,801.64,585.61,797.7,579.88Z"/><path class="cls-194" d="M781.25,251.18c-.18,4.08-2.64,6.29-6.4,6.07s-6.44-2.58-6.25-6.5c.2-4.11,2.85-6.89,7.12-6.57C779.59,244.47,781.36,247.3,781.25,251.18Z"/><path class="cls-195" d="M1043.73,504.42c.29.09.59.15.87.25,14.74,5.66,14.74,5.66,12.15,21.31-8.1,3.42-16.78,2.36-24.7.92-7.67-1.4-5.66-9.5-5.67-15.36,0-5.44,2.94-8.43,8.43-8.46A27.71,27.71,0,0,1,1043.73,504.42Z"/><path class="cls-196" d="M1043.73,504.42c-1.21.09-2.42.24-3.64.27-10.23.24-15.11,8.24-11.08,18,1.32,3.22,4,3.36,6.77,3.36,7,0,14-.06,21-.1-1,4.11-4.37,2.54-6.75,2.57-9.16.12-18.32.08-27.47-.24-3-.1-7.19,1.94-8.49-2.86-1.35-5-2.89-10.52,0-15.1C1017.87,504.07,1036.81,500.79,1043.73,504.42Z"/><path class="cls-197" d="M587.68,554c-5.8,3.4-8.21,9.45-11.56,14.76l-21.64,0c1.49-6,4.53-11.78,3.85-18.29,5.84,2.28,2.94-4.15,5.31-5.33,1.5-10,8.75-17.14,18.58-18.36l5.76-1.43c.88-2.31,3.09-2.93,5-4,4.22-.84,5.84-9.33,10.51-5.57,3.83,3.08-1.74,7.9-2.41,12.11-.1.58-.36,1.13-.51,1.7-1.3,5.35.54,6.75,5.44,4.35,3,2.65,1.89,6.24,1.76,9.38-.33,8,2.68,12.11,11.16,10.82,5-3,9.75-2.12,14.32,1,1.32,5.57-3.33,4.6-6.15,5.64-1.82,0-3.66-.66-5.44-.43-13.35,1.73-23.17-2.8-28.48-15.65a7,7,0,0,0-1.64-2.19c-2.06-2-3.88-5.87-7.24-3.51-2.68,1.88-.57,5,.62,7.44S588.48,550.87,587.68,554Z"/><path class="cls-198" d="M593.43,523.06a6.92,6.92,0,0,1-5.45,2.31c-.11-23.07-.12-46.15-.41-69.22-.07-5.16,1.81-7.26,6.9-6.8,2.71.25,5.46.16,8.19.22q.63,27.36,1.25,54.71C598.77,509.62,596.72,516.68,593.43,523.06Z"/><path class="cls-199" d="M593.43,523.06c.22-8.09,1.28-15.71,10.49-18.78,4.29.43,8.05.84,12.13,3.86,6.07,4.5,4.77,7,.05,10.56-9.65-1.22-10.18-.56-6.6,8.26l-3.56,5.22c-3.14,2-5.65,1.75-7.23-2-2.06-5.56,4.23-8.81,4.07-14.35C597.85,516.32,600.06,525.64,593.43,523.06Z"/><path class="cls-200" d="M609.5,527c-2.38-.79-6.08-.32-5.12-4.59.64-2.88,0-6.81,2.84-8.27,4.39-2.26,5.93,3,8.89,4.59Z"/><path class="cls-201" d="M598.71,530.21c2.18,1.51,4.49,2.54,7.23,2,0,.61.06,1.22.06,1.83-2.61,1.37-.81,4.56-3,6.67C600.08,537.75,595.55,535.77,598.71,530.21Z"/><path class="cls-202" d="M643.4,559.74c.59.65,1.1,1.75,1.79,1.87,1.93.34,1.2-1.33,1.27-2.24.13-1.75.09-3.52.12-5.29,2.76,1.45.14,5.19,2.83,6.67l2.33-1.07c.6-.79,1.16-.81,1.67.08.15,2.45-2.08,3.45-3.14,5.16-15.37.69-30.82-1.38-46.16,1-2.25-1.1-5.32,0-7-2.55,9.23-5.13,19.27-1.59,28.88-2.69C631.75,559.78,637.5,558.35,643.4,559.74Z"/><path class="cls-203" d="M670.21,459.1c-1,4.6-3.45,7-7.67,6.74-3.81-.2-6.39-2.67-6.38-6.36s2.65-6.08,6.46-6.29C667,452.94,669,455.77,670.21,459.1Z"/><path class="cls-204" d="M681.32,478.12c-.75,3.1-2.33,5.48-5.37,5.41s-5.24-2.24-4.78-5.31a5.39,5.39,0,0,1,5.76-4.68C679.72,473.66,681.05,475.6,681.32,478.12Z"/><path class="cls-205" d="M660.25,486.13c3.73,0,6,1.35,6.11,4.58.11,2.72-1.66,4.45-4.45,4.65-3,.21-5.51-.7-5.89-4.07S657.83,486.54,660.25,486.13Z"/><path class="cls-206" d="M675.69,517.36c-3.09-.08-4.4-2.39-4.57-4.78-.26-3.62,2.48-4.56,5.53-4.27,2.72.26,4.76,1.64,4,4.76C680.12,515.54,678.8,517.62,675.69,517.36Z"/><path class="cls-207" d="M512.8,517.88c0,15.9.11,31.8,0,47.71-.12,13.56-8.13,22-20.33,22-11.61-.07-20.05-8.64-20.18-21.55-.34-33-.21-66.05-.55-99.08-.05-5.43,2-6.79,6.95-6.64,8.86.26,17.75.35,26.6-.07,5.59-.26,7.44,1.48,7.33,7.2-.35,16.81-.13,33.64-.13,50.46Z"/><path class="cls-208" d="M582.22,526.8a37.52,37.52,0,0,0-18.58,18.36c-1.43-1-1.59-2.49-1.59-4q.08-45.33.17-90.66a5.16,5.16,0,0,1,1.61-.8c18.29-2,18.27-2,18.29,16Q582.15,496.23,582.22,526.8Z"/><path class="cls-209" d="M137.35,534.65c4.59,1.75,3.51,5.75,3.73,9.28.29,4.62-1.7,9.5,1.53,13.79,3.71,4.1,8,.26,11.91.85,1.74.26,4.1.55,4.33,2.58.26,2.4-2.16,2.65-3.89,2.7-5.28.16-10.48-1.52-15.5,2.79-2.16,1.85-7.21-2.41-5.67-4.68C139.77,553.19,133.32,543.29,137.35,534.65Z"/><path class="cls-210" d="M100.35,541.62c.33-1.31-1.9-5.14,2.34-3.39s11.9-6.08,12.36,4.7c.17,3.81-2.06,7.76-5.43,6.28S98.16,550.46,100.35,541.62Z"/><path class="cls-211" d="M111.31,580.4c1,4.12-1,6-4.68,5.91s-5.11-2.12-4.56-6c.44-3.14.28-6.3,4.43-6.5C111.38,573.52,111.55,577,111.31,580.4Z"/><path class="cls-212" d="M143,598.89c.36,3.29-.47,5.81-4.09,5.81-3.82,0-5.29-2.73-5.21-6.1.07-3.18,1-6.07,5.09-6.15C143.84,592.36,141.89,596.67,143,598.89Z"/><path class="cls-213" d="M106.37,561.66c-.07,3.18-.51,6.22-4.84,5.85-5-.41-3.41-5-4.26-7.66s1.69-4.43,4.41-4.43C105.7,555.42,106.57,558.22,106.37,561.66Z"/><path class="cls-214" d="M153.36,597.83c1.17-2.75,4.84.51,5.13-2.55.31-3.32-2.24-1.46-3.74-1.68-2.3-.35-1.3-2.22-1.22-3.54.11-1.74,1.1-2.56,2.93-2.74,5.45-.52.86,3.19,1.2,3.26,4.36.95,4.58,4,3.05,6.93S156.44,600.6,153.36,597.83Z"/><path class="cls-215" d="M168.21,537.25c2.83.28,7.34-.39,6.29,3.91-.82,3.36-.8,10.05-8.05,7.57a30,30,0,0,1,2-2.83c2.86-3.25,2.73-2.94-1.22-5C165.43,539.88,167.23,538.31,168.21,537.25Z"/><path class="cls-216" d="M115.36,524.66c3.11-2.75,4,.46,5.42,2.07-.87,2.73.5,5.91-2.13,9.22C115,532.61,118,527.65,115.36,524.66Z"/><path class="cls-217" d="M121.76,526.76c.2-1.15.41-2.3.61-3.45,6,2.9,2.39,7.63,3.89,13.46C120.73,533.26,122.92,529.44,121.76,526.76Z"/><path class="cls-218" d="M137.15,530.26c1-1.11,1.93-2.24,2.93-3.33,1.21-1.3,3.1-2.51,2.35-4.5-.92-2.46-3.77,1.9-5-.93,1.81-3.16,4.41-3.32,7-1.7,2.2,1.4,1.73,3.37.41,5.48-1.84,2.94-2.43,7.46-7.7,5Z"/><path class="cls-219" d="M973.06,322.25c2.59-11,4.8-20.58,7.15-30.1a2.61,2.61,0,0,1,2-1.47c1.76.14,2.12,1.76,2.74,3.19C989.11,303.34,985.18,313.93,973.06,322.25Z"/><path class="cls-32" d="M565.21,572.71c3.45.5,8.45-1.34,7.56,4.93-.7,4.89-.59,10.17-8.52,10-7.4-.16-7.44-4.78-7.82-9.6C555.85,570.43,561.87,573.63,565.21,572.71Z"/><path class="cls-220" d="M626.42,561.32c-9.51,4.5-19.58,1-29.33,2.07-4.25-2-6.64-5.9-9.41-9.4-3-4.16-7.41-7.46-7.41-13.3,0-2.59.4-5,3.05-6.13,2.3-1,4,.33,5.75,1.79a33.14,33.14,0,0,1,9.35,12.34c3.27,8,8.79,10,16.72,9.38,3.73-.3,8-1.56,11.34,1.79.51.35.67.68.48,1S626.6,561.32,626.42,561.32Z"/><path class="cls-220" d="M653.41,559.76c-.56,0-1.11,0-1.67-.08l6.41-23.24C659.27,545,655.8,552.22,653.41,559.76Z"/><path class="cls-221" d="M626.42,561.32c0-.48.06-1,.06-1.46l7.18-3.77a9.66,9.66,0,0,1,9.74,3.65C638.09,564,632.1,561,626.42,561.32Z"/><path class="cls-222" d="M493.87,475.91c-.89,4.94-3.68,8.49-9,8-4.48-.45-7.94-3.14-7.65-8.43.3-5.51,3.53-8.23,8.89-8C491.14,467.66,493.5,470.86,493.87,475.91Z"/><path class="cls-223" d="M507.12,493.67c-.63,3.93-2.51,6.86-6.39,6.58s-7.11-2.31-6.79-6.91c.29-4.36,3.26-6.49,7.35-6.25C505.19,487.32,506.88,490.15,507.12,493.67Z"/><path class="cls-224" d="M507.94,524.66c-.74,3.52-2.53,5.5-5.74,5.33s-5-2.2-4.78-5.48,2.11-5.13,5.38-4.92S507.39,522.14,507.94,524.66Z"/><path class="cls-225" d="M492.29,547.29c-.38,2.78-2,4.57-4.76,4.36-3-.23-5-2.12-4.78-5.41a4.37,4.37,0,0,1,4.77-4.4C490.67,542,492.3,544.06,492.29,547.29Z"/><path class="cls-226" d="M487.31,517.52c-3.15-.51-5-2.2-4.76-5.58a4.4,4.4,0,0,1,4.91-4.39c3.13.14,5.11,2.15,4.78,5.51C492,515.87,490.18,517.38,487.31,517.52Z"/><path class="cls-227" d="M112.35,542.76c-.46,2.19-1,3.87-2.68,3.8-2.52-.11-2.08-2.4-2-4,0-1.39.32-3.37,2.42-2.5C111.16,540.49,111.8,542.06,112.35,542.76Z"/></svg>