<svg xmlns="http://www.w3.org/2000/svg" viewBox="0 0 1920 922.49"><defs><style>.cls-1{fill:#c9b0ea;opacity:0.4;}.cls-2{fill:#ba5ae2;}.cls-3{fill:#de9cda;}.cls-4{fill:#62659f;}.cls-5{fill:#bc8af1;opacity:0.5;}.cls-6{fill:#feb764;}.cls-7{fill:#83cdfe;}.cls-8{fill:#9396c1;}.cls-9{fill:#3f3c67;}.cls-10{fill:#63659f;}.cls-11{fill:#484e7f;}.cls-12{fill:#6a81f7;}.cls-13{fill:#c25a7e;}.cls-14{fill:#fbfcf8;}.cls-15{fill:#fbb965;}.cls-16{fill:#83296f;}.cls-17{fill:#943573;}.cls-18{fill:#fbfbf6;}.cls-19{fill:#903271;}.cls-20{fill:#fbb865;}.cls-21{fill:#a54378;}.cls-22{fill:#b2badb;}.cls-23{fill:#f19382;}.cls-24{fill:#fb9c82;}.cls-25{fill:#a44577;}.cls-26{fill:#fab867;}.cls-27{fill:#fb9d81;}.cls-28{fill:#dbeef9;}.cls-29{fill:#f8b967;}.cls-30{fill:#fcb864;}.cls-31{fill:#fab866;}.cls-32{fill:#960543;}.cls-33{fill:#f1f6f4;}.cls-34{fill:#f9b968;}.cls-35{fill:#3a2d4f;}.cls-36{fill:#6b80f1;}.cls-37{fill:#494e80;}.cls-38{fill:#f0ada1;}.cls-39{fill:#9498c0;}.cls-40{fill:#f9b965;}.cls-41{fill:#ee9281;}.cls-42{fill:#6a7ee9;}.cls-43{fill:#4e4e74;}.cls-44{fill:#faeedf;}.cls-45{fill:#534f76;}.cls-46{fill:#7e88dd;}.cls-47{fill:#aa6394;}.cls-48{fill:#873670;}.cls-49{fill:#f0a28c;}.cls-50{fill:#efc28a;}.cls-51{fill:#8b9ff5;}.cls-52{fill:#e4958b;}.cls-53{fill:#e9aaa2;}.cls-54{fill:#596fc3;}.cls-55{fill:#f1cfa3;}.cls-56{fill:#eccf9c;}.cls-57{fill:#db9690;}.cls-58{fill:#eed2aa;}.cls-59{fill:#daecf6;}.cls-60{fill:#e3cda0;}.cls-61{fill:#e9d0ac;}.cls-62{fill:#f3dfba;}.cls-63{fill:#f4d8b2;}.cls-64{fill:#d7eefd;}.cls-65{fill:#d9edfd;}.cls-66{fill:#b8517c;}.cls-67{fill:#d06682;}.cls-68{fill:#a14076;}.cls-69{fill:#8a587c;}.cls-70{fill:#b684a8;}.cls-71{fill:#f1effa;}.cls-72{fill:#afd5fe;}.cls-73{fill:#a7d1fc;}.cls-74{fill:#412768;}.cls-75{fill:#5b5a8e;}.cls-76{fill:#e8d6be;}.cls-77{fill:#8f99bc;}.cls-78{fill:#f09d8d;}.cls-79{fill:#eff6fc;}.cls-80{fill:#b24c7a;}.cls-81{fill:#63649f;}.cls-82{fill:#e7cbbd;}.cls-83{fill:#62659e;}.cls-84{fill:#494e81;}.cls-85{fill:#8a9df5;}.cls-86{fill:#bbb7c8;}.cls-87{fill:#c1b5bc;}.cls-88{fill:#f2f8fd;}.cls-89{fill:#eff8fb;}.cls-90{fill:#fefefe;}.cls-91{fill:#f0f7fd;}.cls-92{fill:#f0f7fc;}.cls-93{fill:#f1f7fa;}.cls-94{fill:#2e2e52;}.cls-95{fill:#8f98bb;}.cls-96{fill:#f58e7b;}.cls-97{fill:#dee9fd;}.cls-98{fill:#dee6fc;}.cls-99{fill:#963481;}.cls-100{fill:#7f286d;}.cls-101{fill:#ab4f7d;}.cls-102{fill:#108ff6;}.cls-103{fill:#5a5a8e;}.cls-104{fill:#fab966;}.cls-105{fill:#e99f96;}.cls-106{fill:#e6d1af;}.cls-107{fill:#e8d2af;}.cls-108{fill:#7494bc;}.cls-109{fill:#e8487a;}.cls-110{fill:#cfe1fc;}.cls-111{fill:#fdfdfc;}.cls-112{fill:#4e68dc;}.cls-113{fill:#5f65ad;}.cls-114{fill:#bfd3fc;}.cls-115{fill:#ec9c88;}.cls-116{fill:#5791bf;}.cls-117{fill:#e47588;}.cls-118{fill:#f1f5fc;}.cls-119{fill:#fcd9b1;}.cls-120{fill:#da7cb1;}.cls-121{fill:#fbd9b1;}.cls-122{fill:#f1f7fc;}.cls-123{fill:#fcf4e9;}.cls-124{fill:#df9bd9;}.cls-125{fill:#fdfefd;}.cls-126{fill:#c7ddfd;}.cls-127{fill:#c1dcfc;}.cls-128{fill:#6a81f6;}.cls-129{fill:#fcebca;}.cls-130{fill:#fdfefe;}.cls-131{fill:#fbfbfa;}.cls-132{fill:#b1b4c4;}.cls-133{fill:#b0acc0;}.cls-134{fill:#e44a7a;}.cls-135{fill:#f9f5f7;}.cls-136{fill:#422768;}.cls-137{fill:#f8b968;}.cls-138{fill:#f6dfe3;}.cls-139{fill:#f8d2d3;}.cls-140{fill:#b6b9c2;}.cls-141{fill:#8d2d76;}.cls-142{fill:#fa8009;}.cls-143{fill:#f4bbc1;}.cls-144{fill:#f2bdc2;}.cls-145{fill:#8e2f78;}.cls-146{fill:#f7d0d3;}.cls-147{fill:#baa9c0;}.cls-148{fill:#f18d83;}.cls-149{fill:#dce5ec;}.cls-150{fill:#9fdcfd;}.cls-151{fill:#9fdbfb;}.cls-152{fill:#fdd9b0;}.cls-153{fill:#ed5b63;}.cls-154{fill:#6b81f6;}.cls-155{fill:#e1e5ec;}.cls-156{fill:#fed9af;}.cls-157{fill:#dde6eb;}.cls-158{fill:#f9dbb5;}.cls-159{fill:#fbdab7;}.cls-160{fill:#f69e84;}.cls-161{fill:#f7dbb7;}.cls-162{fill:#7688b3;}.cls-163{fill:#eb5c67;}.cls-164{fill:#6b9a3e;}.cls-165{fill:#fbd116;}.cls-166{fill:#474963;}.cls-167{fill:#be7c86;}.cls-168{fill:#fad5b6;}.cls-169{fill:#fcc9a8;}.cls-170{fill:#f6dfe2;}.cls-171{fill:#593a62;}.cls-172{fill:#fcebe0;}.cls-173{fill:#f6b797;}.cls-174{fill:#f99e81;}.cls-175{fill:#fbfbfb;}.cls-176{fill:#ef858d;}.cls-177{fill:#ec5b64;}</style></defs><title>teach</title><g id="nav"><path class="cls-1" d="M1006.46,833.5S858.1,847.53,883,875.59s209-22.45,241.58-9.35,24,7.48,17.26,17.77,159.14-15,168.72-14,121.75,4.68,161.06,16.83,105.45-25.25,121.75-20.57,117.92,34.6,141.88,23.38,1-23.38,1-23.38,5.75-30.87,76.7,19.64c40.26,13.09,70.94-11.22,70.94-11.22s29.51-8.95-38-31.6C1786.68,821.14,1006.46,833.5,1006.46,833.5Z"/><rect class="cls-2" x="613.96" y="830.34" width="1245.85" height="16.84" rx="8.42"/><path class="cls-3" d="M919,353.5c-.78-3.75-1.74-7.48-2.3-11.27-.71-4.83,2.34-7.07,6.85-5.16,13.45,5.7,27.38,8.84,42.06,8.05a67.92,67.92,0,0,0,13.85-2.51c1-.26,2-.56,2-1.81s-1.07-1.69-2-1.91c-3.74-.87-7.5-1.63-11.26-2.43a226.64,226.64,0,0,0-31.29-4c-16.22-1.13-22-9.63-24.6-25.46a43.61,43.61,0,0,1,0-10.71c.44-5,3.71-6.8,7.59-3.83,5,3.85,10.18,7.27,16.36,9a39.8,39.8,0,0,0,12.21,1.73c1.32-.06,2.68-.13,3.08-1.71s-.83-2.27-1.82-3.09a37.57,37.57,0,0,0-10-5.61,47,47,0,0,1-14.88-9.81c-4.34-4.16-5.73-13.88-3.56-19.92,4-11,11.24-14.08,22.23-14.23,16.34-.21,18.62,5.68,21,19.6,1.18,7,1.73,14.05,3.41,20.93.34,1.37.51,3.15,2.22,3.3s2.6-1.53,3.22-3c2.84-6.5,1.35-12.94-.86-19.14-2-5.48-4.64-10.7-7-16.05-2.56-5.89-1.08-8.34,5.19-7.84a53.35,53.35,0,0,1,20.45,5.74c6.41,3.32,7.29,10,7.58,16.26.44,9.36-2.14,18.36-5.12,27.13-.7,2.06-.43,4.15-1.26,6.11-.58,1.37.15,2.54,1.35,3.27,1.53.94,2.48-.29,3.21-1.25a27.54,27.54,0,0,0,4.84-10.87c1.21-5.42,3.63-10.49,4.09-16.11.54-6.49-1.6-12.38-3.54-18.35-1.47-4.49-.64-5.3,4-4.62,7.46,1.07,14.54,3.16,20.41,8.06,8.76,7.32,9.12,17.14,7.78,27.41-1.23,9.5-6,17.43-11,25.3a6.59,6.59,0,0,0-.94,1.42c-.53,1.79-2.71,4-.62,5.35a5.86,5.86,0,0,0,7.14-.61,18.65,18.65,0,0,0,5.41-8.11,132.52,132.52,0,0,0,5.58-26.69,49.58,49.58,0,0,1,1.82-10.48c.82-2.63,2.31-3.1,4.37-1.09q5,4.9,10.1,9.78a53.2,53.2,0,0,1,15.27,22.33c1.39,3.76-.36,7-3.09,9.65a67.93,67.93,0,0,0-11.33,14.48,18.67,18.67,0,0,0-1.37,2.67c-.8,2.09-1.46,4.41,1,5.67a4.66,4.66,0,0,0,6.4-1.76c2.22-3.38,3.18-7.32,4.54-11.07.89-2.46.74-6,4.11-6.38,3.71-.42,4.73,3.09,6.17,5.65,4.63,8.28,5.64,17.3,5.15,26.57-.11,2.25-.31,4.63-2.68,6-2.06.76-4.22.58-6.34.59-15,.07-29.9,0-44.85,0-6.68,0-6.71.08-6.78,6.57,0,3.13.25,6.27-.3,9.38a4.46,4.46,0,0,1-.65,1.42,2.77,2.77,0,0,1-2.06.85c-4-.77-6.88-3.88-10.52-5.5-4.65-2.08-5.5-1.74-5.45,3.43.1,9.29,2.2,18.38,2.89,27.6.49,6.5,2.07,13,.62,19.54-.51,2.27-.88,4.78-3.64,5.19-2.54.38-3.62-1.88-4.82-3.61s-2.07-3.74-3.18-5.57a61.65,61.65,0,0,1-4.32-29.72c.49-4.39,1.42-8.73,2-13.11,1.12-9-2.43-14.55-11.13-17.08-6.58-1.92-13.3-3.31-20.22-2.92-5.81.33-6.77,2.34-3.85,7.21,2.09,3.49,5.18,6.51,5.29,11-1.79,2.3-4.73,2-7,3.09-2.77-.25-3.33-3.08-5.17-4.42a113.86,113.86,0,0,0-11.2-11.74,20.84,20.84,0,0,0-14.06-5.29C923.51,354.85,920.91,355.72,919,353.5Z"/><path class="cls-4" d="M1021.43,375.22c0-4.71.09-9.43-.21-14.13-.21-3.32,1.08-4,4.17-4,16.82.14,33.63.07,50.45.05,1.85,0,3.71-.11,5.56-.17a6,6,0,0,1,4-1.2c14.16,0,28.32-.28,42.47.14a33.37,33.37,0,0,1,4,0,22,22,0,0,1,5.43.31c8.82,1.17,17.66.5,26.49.38a3.55,3.55,0,0,1,1.45.13c1.83,1,1.69,2.63.75,4-2.65,3.82-3.31,7.7-1.22,12,.68,1.4.51,2.8-1.29,3.45a21.52,21.52,0,0,1-5.13.3c-35.05.13-70.1.32-105.16.25-1.14,0-2.29.09-3.43,0-3.58-.27-4.74,1.51-4.72,4.88,0,9.59,0,19.17,0,28.76,0,44.64.07,89.29,0,133.93,0,18.88-.29,37.77-.09,56.65.19,35.44.09,70.88.11,106.32,0,8.18,0,8.18,8.23,8.18q46.32,0,92.62,0c2.54,0,5.18-.38,7.53,1.07,2,6.17,3.58,12.38.93,18.79-1.91,1.29-4.09,1.12-6.21,1.12-37,0-73.89.11-110.83-.1-5.32,0-10.69-.87-16-1.42q0-73.86-.08-147.72c0-1.71-.13-3.42-.2-5.12a6.85,6.85,0,0,1-1.18-4.47c0-22.08-.33-44.15.15-66.22a12.51,12.51,0,0,1,.24-2.12c.81-2.21.64-4.51.64-6.79V384.14A45.9,45.9,0,0,1,1021.43,375.22Z"/><path class="cls-5" d="M1670.26,649.07c-4.76,1.3-5.72,6.13-8.28,9.33-7.08,8.86-13.86,18-20.13,27.46-5.19,7.84-10.51,15.73-16.88,22.41-7.56,7.92-5.62,17-6.3,25.94-1.82-.44-1.83-2-2-3.39a35.28,35.28,0,0,1-.15-5.14q0-80.7,0-161.38c0-3-.31-6,1.08-8.86a15.07,15.07,0,0,0,.87-6.28c0-16.09.08-32.17-.06-48.25,0-4.68.21-8.86,5.32-10.91a3.6,3.6,0,0,0,1.58-2,4.41,4.41,0,0,1,.73-1.26c10.56-4.66,21-9.7,31.51-14.37,6.08-2.69,10.38-5.91,11.08-13.1.4-4.06,2-8,3-12,.3-1.2.51-2.76,2.16-2.78s2,1.47,2.39,2.65c2.69,7.54,4.07,15.44,6.38,23.09a58.36,58.36,0,0,1,1.83,7.05c.7,19.5,1.79,39,3.63,58.39.89,9.35,2.4,18.65,2.62,28.07,0,1.55.29,3.13-.34,4.64-1.35,1.34-3.12,1.19-4.8,1.36-6.66.63-10,3.94-10.26,10.77-.32,8.83,0,17.67-.14,26.5,0,3.38.65,6.85-.83,10.12a4.43,4.43,0,0,1-3.4,1.37c-2.13.18-4.3.09-4.38,3.23-.07,2.82,1.45,3.65,3.87,3.86a3.73,3.73,0,0,1,3.73,3.82c-.37,5.23-1,10.44-1.78,15.62C1672.07,646.59,1671.72,648.13,1670.26,649.07Z"/><path class="cls-6" d="M1688.45,330.54c-1,5.32-3.87,9.87-5.94,14.75-.59,1.4-1.59,2.63-1.2,4.28-1.44,3.67-4.88,2.69-7.6,3.08-2.08.3-4.25-.33-6.4-.25-4.59.17-5.62,1.51-4.44,5.88a20.94,20.94,0,0,1,.87,3.31c0,1.63.23,3.27-.55,4.8a4,4,0,0,1-3.62,1.94c-4.78-.49-9.73.16-14.28-2.05a51,51,0,0,1-17.51-13.45c-.87-1.06-1.47-2.48-3.39-2.78-.9,1.83-.3,3.59.6,5.13,6.38,10.9,15.52,17.19,28.55,17.11,5.4,0,10.84.07,16,2.25,1.66,1.46,1.27,3,.11,4.5s-2.23,2.57-3.18,4c-2.52,2.43-5.74,3.74-8.86,5-10.66,4.43-21.4,8.61-33.36,7.3-2.63-.29-5.19-.36-6.24-3.4-1.2-6.11.11-12.38-1.2-18.49a64.83,64.83,0,0,1-.16-10.24c.15-3.53-1.3-4.82-4.76-4.72-10.54.3-21.08,0-31.61,0a24,24,0,0,1-6.38-.44c-5.47-2.44-7.95-7.26-9.16-12.63-1.47-6.55-4.19-13.06-2-20,2-17.19,8.54-32.25,21.24-44.33,1.38-1.31,2.7-2.85,4.77-1.84,1.84.91,1.58,2.87,1.59,4.57,0,5.14-.2,10.3.05,15.43.58,11.72,4.44,22.06,13.49,30,.63.56,1.3,1.08,1.93,1.64,1.37,1.22,3,2.22,4.56.85,1.35-1.22.38-2.95-.36-4.34-5.69-10.74-10.25-21.86-12.1-34-1.15-7.5-.49-14.64,3-21.48,3.1-6,9-7.93,14.64-10.06a40.92,40.92,0,0,1,7-1.78c2.84-.52,4,.63,4.1,3.72.11,5.2-2.64,9.55-3.88,14.32a66,66,0,0,0-1.38,28.27c.39.46.3,1.08.52,1.59.68,1.51-.36,4.5,2.22,4.27,2.21-.19,1.36-3.06,1.88-4.71.45-1.46-.26-3.11.41-4.6.15-12.54,1.11-25.08,7.13-36.29,4-7.42,10.44-12.64,19.44-13.44a27.32,27.32,0,0,0,8.72-1.73c4.29-2.19,8.92-1.36,13.4-1.24,2.14,0,3.48,1.83,3.7,4.1a15.13,15.13,0,0,1,0,3.86c-1.19,7.26,1.68,13.79,3.84,20.35,4,12-.72,17.43-8.43,21.73-7.48,4.17-15.32,7.71-22.48,12.45-.8.54-1.75,1-2.06,2a2.33,2.33,0,0,0,2.47.57c12-2,22.51-6.52,29-17.62a5.3,5.3,0,0,1,2-2.15c4.49-.48,4.23-.27,4.43,4,.22,4.53-2,8.51-2,12.9-3.54,6.93-10.24,9.53-16.89,12.07-7,2.69-14.4,3.22-21.88,3-1.66-.05-4.61-.51-4.33,1.88.25,2.18,3,1.37,4.77,1,11.54-2.56,23.21-4.75,33.44-11.27,1.7-1.07,3.14-2.46,4.83-3.52,2.95-1.83,4.91-.85,5.27,2.6A19.93,19.93,0,0,1,1688.45,330.54Z"/><path class="cls-5" d="M1429.07,820.77v.69c-1.47,1.81-3.58,1.62-5.54,1.63q-33.67.09-67.35,0c-1.86,0-3.74,0-5.36-1.17a6.31,6.31,0,0,1-1.3-4.4c0-19.76-.27-39.51.12-59.27.08-7.59-1-15.21.66-22.76,2.11-2.71,5.16-2,7.93-2q45.43-.09,90.88,0c11.86,0,23.72,0,35.58,0,2.27,0,4.59-.23,6.72.88,2.92,4.13,2,9,2.48,13.6.56,5.52,1.06,11.06,1.3,16.61.85,2.9-.15,6,.89,8.85a8.81,8.81,0,0,1,.3,2.23c-.31,2.88,1,5.59.95,8.44,0,1.69.16,3.44-1.08,4.87-2.13.55-4.47.57-6.17,2.3a2.18,2.18,0,0,1-3.36.2c-1-.79-2.41-1.48-3.55-.79-1.51.92.13,2.32,0,3.52-.07.54-.07,1.1-.12,2-2.87-7.13-7.48-6.3-13.61-4.5a7.33,7.33,0,0,0-1.77,1.19c-5.63,3.75-5.63,3.75-1.5,8.21-4.44.18-5.43-1.91-3.37-7.57-6.71.53-13.4.55-19.87,1.74-5.94,1.09-11.92.8-17.84,1.25-7.91.6-15.94.83-23.85,1.4-7.31.53-14.75-.49-22,1.44a4.07,4.07,0,0,1-3.49,1.33c-6.29-.31-12.52,1.44-18.8.57-2.7-.37-3.65.84-3.69,3.32-.06,3.57,0,7.14,0,10.71,0,2.9,1.32,4.1,4.17,4.1h18c15.72,0,31.43,0,47.15,0C1424.81,819.36,1427.21,818.94,1429.07,820.77Z"/><path class="cls-7" d="M1683.32,476.57c-1.75-6.11-3.7-12.18-5.19-18.36a120.6,120.6,0,0,0-4.41-14.17c-1.61,6.33-3.49,11.42-4.1,16.67-.76,6.53-4.44,9.86-10,12.26-9.39,4-18.67,8.34-28,12.61a9.33,9.33,0,0,1-4.88,1.23c-1.93-1.8-1.94-4.44-2.9-6.66-.31-3,1.67-4.66,3.84-6.17,7.74-5.38,15.72-10.4,23.25-16.08a9,9,0,0,0,3.56-5.61c3.11-14.52,7.33-28.78,9.94-43.41,1.07-6.06,4.65-10.3,9.19-14a4.59,4.59,0,0,1,4.34-1.26,5.36,5.36,0,0,1,1,.69c2,1.62,1.9,5.13,5.36,5.43a15,15,0,0,0,10.34-2.59c2.61-1,5.07-2.22,6.06-5.15.43-1.61-1.68-3.06-.33-4.73,5.31.29,10.53-.69,16,1.08,7.49,2.44,12,8,16.49,13.54,9.46,11.87,15.79,25.58,21.41,39.57,3.85,9.61,7.27,19.39,10.86,29.09.9,2.42,1.69,4.86,1.26,7.5-2,1.69-4.39,1.82-6.81,1.92-3-1.12-3.5-4.28-4.88-6.57-5.71-9.47-11.09-19.13-16.58-28.72-4.09-4.65-5.87-10.68-9.24-15.6,1.31,11.78,2.51,23.7,7.08,34.95,1.28,3.17-.6,4.8-3.37,5.78a127.92,127.92,0,0,1-43.62,8C1687.06,477.83,1685,478.08,1683.32,476.57Z"/><path class="cls-8" d="M1670.26,649.07l2.7-19.73c.37-2.09,1.06-3.79,3.66-3.75s4.07,1.07,4.35,3.68c.13,3.3-.72,6.51-.94,9.79-.15,2.18.68,3.21,2.82,3.34,1.15.07,2.29.11,3.43.11q33.43,0,66.88,0c6.07,0,6.36-.38,5.8-6.35-.22-2.27-.85-4.5-.58-6.82.29-2.59,1.81-3.7,4.33-3.74s3.39,1.57,3.67,3.74q2.37,19.11,4.73,38.21,2.84,22.71,5.67,45.41c1.85,14.71,3.75,29.41,5.58,44.13,1.3,10.46,2.44,20.94,3.77,31.4,1.85,14.56,3.83,29.09,5.71,43.64.26,2,.14,4,.49,6,.38,2.15.12,3.68-2.35,4.09s-3.92-.82-4.27-3.11c-.5-3.23-.68-6.51-1.09-9.76-1-8.06-3-9.46-11.25-8.09a20.32,20.32,0,0,1-3.4.24c-36.48,0-73,.1-109.45-.11-4.33,0-5.32,1.8-5.65,5.33-.4,4.11-1,8.2-1.53,12.3-.29,2.55-1.85,3.58-4.14,3.14s-2.72-2.2-2.45-4.29c2.38-18.37,4.8-36.74,7.1-55.12,2.15-17.25,4.1-34.52,6.26-51.77,2.12-16.82,4.46-33.61,6.58-50.43C1668,670,1669.08,659.55,1670.26,649.07Z"/><path class="cls-9" d="M1683.32,476.57c16.23.15,32.11-1.92,47.46-7.43a8.56,8.56,0,0,1,2.1-.24,4,4,0,0,1,1.94,3.16c1.7,10.59,5.14,21,4.26,31.89q1.28,14.66,2.55,29.29c.91,10.62,1.79,21.24,2.72,31.85.1,1.12.42,2.21.63,3.31,1.37,1.44,1.36,3.24,1.29,5,1,9.47,1.36,19,2.24,28.47.33,3.46,1.09,6.68,3.36,9.48a7.08,7.08,0,0,1,1.71,5.15c-.17.88-.53,1.78-1.41,2-5.92,1.16-11.86,2.25-17.7-.44a3.73,3.73,0,0,1,.23-4c2.07-3.2,1.6-6.39.67-9.8-2.72-10-5.29-20-7.93-30.05-.48-2-1-3.9-1.54-5.86-5.63-22.19-11.77-44.24-17.37-66.43a27,27,0,0,0-1.42-4,32,32,0,0,0-5.16-11,39.74,39.74,0,0,0-.18,8.85c1.22,15.66,1,31.36,1.55,47,.31,9,.46,18,1.35,26.9a3.41,3.41,0,0,0,.92,2.29,5.32,5.32,0,0,1,1,2,106.28,106.28,0,0,1-.07,19.54c-.58,5.94-1,11.89.45,17.78a7.15,7.15,0,0,1-.68,5.75,3.14,3.14,0,0,1-1.24,1c-7.75,1-15.52.36-23.28.37-2.89,0-4.1-1.6-3.2-4.5,2.27-4.37,6.38-5.46,10.76-5.55,3.38-.07,4.37-1.21,3.93-4.62-1.24-9.71-2.59-19.41-3.62-29.15.16-2.12-1.25-4.32.3-6.37-.71-6.92-1.46-13.83-2.13-20.75C1685.5,523.89,1683.3,500.3,1683.32,476.57Z"/><path class="cls-5" d="M1021.32,734.88l109.83.15c7.72,0,15.44,0,23.16-.07,2,.72,1.93,2.57,2.27,4.17.73,3.55.87,7.26,2.76,10.51a50.18,50.18,0,0,1,1.38,10,23.77,23.77,0,0,1,0,3.58,36.88,36.88,0,0,0,.54,8.51,7,7,0,0,1-1,6.13c-1.46,2.44-.87,4.91-.19,7.41.2.71.19,1.48-.7,1.73a1.49,1.49,0,0,1-1.14-.27c-2.74-2.11-2.94-2-3.81,1.66-.16.69-.15,1.41-.3,2.84-1.34-3.13-3.72-3.73-6.15-3.87-3.69-.2-7.37-.08-11.06-.59-1.17-.17-2.14.29-2.51-1.27-.16-.7-.73-1.46-1.49-1.29-9,2-17.4-2.32-26.15-2.74-12.39-.59-24-4.5-35.54-8.32a63.35,63.35,0,0,1-23.23-14c-6.72-6.31-12.54-13.2-16.29-21.66-.79-1.79-2-1.58-3.42-1.76C1026,735.45,1023.45,736.71,1021.32,734.88Z"/><path class="cls-10" d="M1618.8,555.55a9.19,9.19,0,0,0-.69,4.6q0,47.51.05,95,0,37.22,0,74.44c0,1.54-.43,3.15.5,4.6-1,1.11-2.37.82-3.63.82q-37.55,0-75.09,0a1.32,1.32,0,0,1-1.62-1c-.7-5.8-2.59-11.55-1-17.48,2-1.4,4.38-1.07,6.64-1.08,14.68,0,29.37,0,44.06,0,5.84,0,6.12-.28,6.13-5.94,0-5.27.1-10.55.1-15.81-.67-2.41,1.77-3.83,1.89-6,.09-2,1.11-3.56,2-5.23,1.4-2.66,1.12-5-1.5-6.71a4.77,4.77,0,0,1-2.23-3.49,68.2,68.2,0,0,1-.23-8.57q0-50.36,0-100.71c0-2.54-.39-5.17,1.07-7.52a3.08,3.08,0,0,1,2.26-1.06c6.9,0,13.84-.9,20.71.52C1618.41,555.14,1618.61,555.34,1618.8,555.55Z"/><path class="cls-5" d="M1137.22,357.29l-5.15-.33c-1.66-2.68-1.78-6-3.64-8.62a3.29,3.29,0,0,1-.36-1.15c.35-2.72,3.27-1.92,4.56-3.34a5.15,5.15,0,0,1,1.09-.43c1.55-.45,3.48.19,4.57-1.6,5.07-3.09,10.6-5.5,14.37-10.42,3-3.85,2.63-7.46-1.1-9.35-2.22-1.12-4.47-.69-6.57.35a28.86,28.86,0,0,0-7.43,5,25.82,25.82,0,0,1-4.63,3.76,10.65,10.65,0,0,0-4,3.28,5.86,5.86,0,0,1-1,.81c-1.75,1.19-2.56.23-3.14-1.34-1-2.75-.93-5.6-.91-8.44,0-.57,0-1.14,0-1.72.1-5.77-.72-8.07,7.18-7.46a26.64,26.64,0,0,0,17.12-4.48c3.7-2.51,5-5.68,3.52-8.54-1.32-2.45-4-2.9-8.46-1.45-5.32,1.74-10,4.89-15,7.14-2,.14-2.92-.78-2.83-2.74a32.69,32.69,0,0,1,.63-6.31,49.17,49.17,0,0,0,1.63-5.6c.79-3,1.78-6.08,5.8-6.14a10.44,10.44,0,0,1,2.09-.05c5.51.4,10.89,0,15.83-2.82a9.88,9.88,0,0,1,2.79-2.6,5,5,0,0,0,1.77-6.75c-1.27-2.58-3.93-3-6.29-2.2a68.88,68.88,0,0,0-10.58,4.41c-2,1.05-3.8,3.34-6,1.22-1.93-1.89.08-3.95.84-5.84a9.73,9.73,0,0,1,1.06-1.85c1.78-3.84,4.36-6.46,9-5.89,6.7.36,13.15-.4,19-4.1,2.85-1,3.07-2.54.87-5.88-2.9-2.53-6.34-1-9.55-1.28-2.59-.62-6.26,1.56-7.41-2.83,1.58-4.32,5.35-2.75,8.38-3.14,1.93,0,4,.63,5.59-1.05,1.61-1.14,3.13-2.78,5.33-1.14,1.13,0,2.56.45,3.25-.53,2.53-3.57,6.2-2.82,9.68-2.82,9.82,0,19.65.05,29.47,0a56.73,56.73,0,0,1,12.58,1.72,1.91,1.91,0,0,1,.54,2.47c-1.82,1.9-4.55,1.52-6.66,2.7-7.37,2.28-11.7,7.64-15.1,14.28q-9.18,17.92-18.66,35.72a37.13,37.13,0,0,0-1.68,3.48c-1.5,3.83-.77,5.31,3,7,1.66.73,4.21.41,4.46,3.18-1,1-2.28,1.11-3.48,1.53-6.22,2.18-9.87,6.15-9.83,11.63,0,5.94,3.17,10.31,8.39,13a91.28,91.28,0,0,0,11.61,4.42c1.54.54,3.75.71,3.78,2.88,0,1.8-1.87,2.36-3.23,3.07-2.28,1.18-4.79,2.05-5.55,4.93a6,6,0,0,1-2.36,1.53c-6.87,2.34-13.81,3.09-20.86.82h-1A268.68,268.68,0,0,1,1137.22,357.29Z"/><path class="cls-11" d="M1351.08,821.54l78-.08a79,79,0,0,0,8.14,0c3.47-.33,5,1,4.44,4.4-.73,4.56,0,9.12-.14,13.69-.09,2.29-.86,2.81-3.06,2.81q-102.79-.09-205.6,0c-1,0-2-.09-3-.14-1.65-1.77-1.41-4-1-6,.75-4,.69-7.81-1.91-11.24a3,3,0,0,1-.4-2,2.52,2.52,0,0,1,1.24-2,7.78,7.78,0,0,1,3.73-.78c18.94,0,37.87-.25,56.81.12,19.45-.38,38.9-.14,58.36-.13A6.76,6.76,0,0,1,1351.08,821.54Z"/><path class="cls-5" d="M1128.53,356.91l-47.13,0c1.83-10.66,1-20.95-4.2-30.65-.53-1-1-2-1.61-3-.78-1.37-1.56-3-3.38-2.87-2.31.15-2.24,2.43-2.63,3.93a70.76,70.76,0,0,1-4.59,12.8,6.8,6.8,0,0,1-9,3.35c-2.52-1.24-2.81-4.69-.93-8.29a68.15,68.15,0,0,1,12.22-16.39c4.54-4.58,4.84-8,1.49-13.71a100.57,100.57,0,0,0-10.54-15,20.64,20.64,0,0,1-1.78-2.9,208.26,208.26,0,0,1,19.43-15.73c4.14-3,9.16-4.34,13.2-7.46,3.12.53,6-.07,8.18-2.4,2.49-2.63,6.55-1.88,9-4.47.62-1,1.63-.84,2.57-.87,2,.84,3.28-.09,4.3-1.71h1.71c.37.43.9.88.85,1.42-.46,4.55,2,8,4.34,11.42a4.26,4.26,0,0,1,.56,1.08c1,1.79-2,3.51-.45,4.92,1.43,1.26,3.33-1.15,5.16-.36a9.36,9.36,0,0,1,4,4.14c.73,2.13.24,4.4.82,6.55a3,3,0,0,1-.45,1.82c-5,1.7-3-3.23-4.75-5.05-1.5.69-2.57,3.1-4.83,1.81-1.33-2.15-2.41-4.56-5.34-5-.38-.2-.71-.48-1.08-.69-4.45-2.56-7.14-2.63-9.3-.25a9.47,9.47,0,0,0-.48,11.47c3,3.91,5.38,8.23,9.63,11.21,2.25,1.58,4.25,2.65,6.94,2.42,4.42,1.06,4.5,1.21,4.19,7.65-.12,2.86,0,5.72-.09,8.57-.07,1.53.14,3.43-1.69,4s-3-.79-4-2a39.22,39.22,0,0,0-9.56-7.85,22.93,22.93,0,0,0-7.93-3.11c-2.8-.52-5.22.1-6.74,2.56-1.6,2.62.12,4.62,1.76,6.47,3.79,4.3,8.91,6.6,13.88,9.12a20.42,20.42,0,0,1,1.88,1c2.18,1.5,4.67.76,7,.88,3.18.17,4.93,1.47,5.15,4.86.17,2.64.18,5.37,1.43,7.84.37,1.57.66,3.24-1,4.22s-3-.09-4.34-.92q-4.54-2.82-9.28-5.29c-3.62-1.89-7.47-2.89-11.55-1.57s-4.91,4.45-2.48,8c1.84,2.65,4.58,3.72,7.3,5,2.47,1.11,5.14,1.71,7.62,2.81,3.77,1.72,7.75.52,11.62.89C1127.75,352.06,1129,353.36,1128.53,356.91Z"/><path class="cls-12" d="M1537.4,716.62q.76,7.07,1.55,14.11c.17,1.48-.46,3.14,1,4.32-1,5.77,0,11.55.11,17.31.29,12.24,1,24.46,1.48,36.7.33,9,.48,17.94.72,26.91,0,1.42.3,2.85-.52,4.16-2,1.1-4,2.72-6.55,1.45-1.68-2.31-1.48-5.11-2-7.72.12-7.42-2-14.53-3-21.8-.85-6.29-1.79-12.58-2.78-18.86-.44-2.71-1-5.29-2.83-7.4-2.63-4.34-3.21-9.16-3.31-14.1,2.41-2.3,3.19-4.94,2.85-8.39-1.19-12.43-3.53-24.71-4.57-37.15-.08-1-.06-2.34-1.21-2.47-1.38-.15-1.69,1.28-2.06,2.34a22.67,22.67,0,0,0-.56,2.5c-.77,2.89-.44,5.93-1.26,8.81,0,6,.46,12-1,17.88.33,6.55-.43,13-1,19.56-.59,2.5-1.67,4.13-4.7,3.11-2.12-.71-3.65.71-5.39,1.7-2.86,1.61-4.23,5.42-8.12,5.44-1.47-9.92-1.91-19.94-2.65-29.92-1.76-2.4-2-5.17-2-8,0-3.51.26-7-.56-10.5-.22-4.6-1.2-9.14-1.13-13.76-.31-5.69-.13-11.39-.09-17.08,0-1.86.18-3.73,1.74-5.09a3.34,3.34,0,0,1,3.66-.08c4.69,2.87,9.87,2.3,15,2.32,2.57,0,5.14-.06,7.7,0,4.17.13,8.25,0,12-2.29a5.07,5.07,0,0,1,4.12-.58c1.86.71,2.31,2.4,2.67,4.05a154.82,154.82,0,0,1,3,17.09c.26,3.93,1.09,7.8,1,11.76C1538.7,714.35,1539,715.82,1537.4,716.62Z"/><path class="cls-5" d="M1240.34,244.7c.3.3.59.87.89.88,16.75.55,33.31,2.78,49.93,4.78,14.91,1.8,29.67,5,44.74,5.54a64.56,64.56,0,0,1,6.75.87c1.39.2,2.74,1,2.65,2.33-.1,1.56-1.78,1-2.82,1-11.42,0-22.85,0-34.28.05-1.5,0-3.18-.57-4.44.85,1.88,2.18,1.43,4.85,1.43,7.38q0,38.57,0,77.13c0,1.29,0,2.57,0,3.86.11,5,.39,5.38,5.37,5.41,13.14.06,26.28-.05,39.42.08,2.22,0,5-.78,6.2,2.31-1.61,1.58-3.68,1.42-5.66,1.42q-37.1.06-74.2,0a14.05,14.05,0,0,1-6.28-1.06,3.63,3.63,0,0,1-2.19-1.91c-.65-3.38-3.75-3.95-6.14-5.37-1.41-.83-3.68-1.2-3.49-3.26s2.33-2.32,3.93-2.8c3.69-1.12,7.35-2.29,10.91-3.74,5.19-2.12,8.86-5.57,9.83-11.41a11.57,11.57,0,0,0-5.69-12.33c-1.63-1-4-1-4.79-3.24,1.1-3,4.13-2.7,6.37-3.58,4.88-1.89,5.8-3.28,3.37-8-5.37-10.42-10.76-20.83-16.28-31.17a67.33,67.33,0,0,1-3.55-6.85,23.64,23.64,0,0,0-9.81-11.57c-3.46-2.33-7.43-3.28-11.38-4.28C1239.7,247.23,1239,246.2,1240.34,244.7Z"/><path class="cls-13" d="M978.67,504.85c-8,9.06-18,13.7-30.13,13.53-1,0-2,.14-2.84-.62-.86-1.5-2.59-.8-3.82-1.5-2.12-1.18-5.22-1.4-3.52-5.23.46-1-.7-2.08-1.2-3.09-1.84-3.69-1.62-4,2.32-5.16,2.94-.84,5.37-2.44,6.6-5.42a3.52,3.52,0,0,1,1.33-3,16.34,16.34,0,0,0,4.76-8.23c1.16-3.09-1.21-4.65-3-6.25-3-2.73-3.14-2.76,0-5.64.42-.38,1.25-.86,1-1.21-2.3-3.83.92-6.24,2.21-9.15a2.31,2.31,0,0,0-.05-1.27c2.55-3.92,5.14-7.82,6.49-12.36.61-2.06,1.28-4.33-2-4.84-.41-.5-.49-1.29,0-1.45,4.55-1.42,4.83-4.9,4.42-8.78a2,2,0,0,1,.81-1.85c3.1.21,5.68,1.81,8.3,3.2,8.2,4.34,16.55,8.37,24.92,12.35,5.13,2.44,5.79,3.35,3.79,8.5-1.82,4.65-2.08,9.81-4.8,14.13-.94,1.48.56,2,1.17,2.8,2.94,3.83,2.2,8.09,1.55,12.34a1.36,1.36,0,0,1-1.56,1.15c-1.83-2.26-1.5-5.13-2.2-7.71-.37-1.34-.51-3.25-2.27-3.17s-1.86,2-2,3.36a47.32,47.32,0,0,1-6.2,19.86A11.58,11.58,0,0,1,978.67,504.85Z"/><path class="cls-14" d="M1356.09,357c-1.38-1.13-3-.66-4.54-.67-14.43,0-28.86-.12-43.28.05-3.51.05-4.63-.91-4.61-4.53.14-30.27.09-60.55.1-90.83,4.67.28,9.36.92,14,.78,36.51-1.1,73-.76,109.54-.8,5.76,0,6,.26,6,6.05,0,4.28,0,8.56,0,12.84,1.51,1.62,1.47,3.66,1.47,5.66q.06,32.54,0,65.07c0,6-.95,6.89-7,6.9q-27.39.06-54.79,0a20,20,0,0,0-6.36.65C1363.08,358.35,1359.35,359.68,1356.09,357Z"/><path class="cls-15" d="M988,576c-3.68-4.41-7.62-8.65-10.08-13.92-1.32-2.81-2.82-5.75-1.71-8.93,1.51-4.35,2.1-6.78,11.61-6.35,2.55-.06,4.13,1.6,5.76,3.19,7.87,7.65,11.46,17.5,14.05,27.76.69,2.76,1.65,3.6,4.3,2.89a41.52,41.52,0,0,1,6.23-1.39c2.23-.25,3.38.43,2.32,2.87-4.2.51-5.48,2.55-5.09,7,1,11.35-1.44,22.07-8,31.55-4.1,5.88-9.15,6.59-14.18,2.53-1.54-1.25-1.84-2.64-2.06-4.39-1.2-9.69,3.57-17.31,8.52-24.85,1.52-2.31,3.42-4.38,5.1-6.5-.59-1.28-1.59-1-2.31-.82a55.83,55.83,0,0,1-15.71,1.46c-3.09-.11-4.07.77-4.13,4.08-.24,12.06-5.3,22.21-13.48,30.86-3.1,3.29-9.07,4.17-12,2.13-3.64-2.53-4.68-7.31-2.83-12.23,3.39-9,9.52-15.9,16.79-21.92.65-.54,1.37-1,2-1.58.19-.16.24-.48.37-.75-.8-.85-1.86-.37-2.78-.57a7,7,0,0,0-4.54-.7c-1.63.31-3.26.42-4.19-1.13s1-2.42,1.46-3.65c2.57-.77,5-2.81,7.87-.78-.54,3.42,1.56,4.09,4.28,4.16a108.67,108.67,0,0,0,19.16-1.22l1.63-.15c.78-.91,1.84-.24,2.76-.46-2.11,0-2.72-2.33-4.49-2.82-.65-.13-1.37-.14-1.73-.86C992.07,578,989.81,577.23,988,576Z"/><path class="cls-5" d="M1020.45,582.1c.2-2.32-1.17-2.08-2.69-1.69-3.44.89-7.6,3.14-10.2,1.63-2.22-1.29-1.44-6.18-2.55-9.41-2.78-8.1-6-15.88-12.25-22a60.93,60.93,0,0,0-5-3.9c-.16-1-.69-1.63-1.71-1.55-3.8.3-5.06-1.87-5.16-5.21-2.13-4.32-1.38-8.89-1-13.39.17-2,1.61-3.43,3.54-2.26,2.52,1.52,5.08,1.21,7.44.58,6.06-1.63,12.62-1.8,18-5.7,4.16-4,8.81-7.5,11.42-12.85a1.18,1.18,0,0,1,1.21.17,3.43,3.43,0,0,1-.08,2.54q-.07,29.17-.16,58.35c0,4.86-.14,9.72-.21,14.58A3,3,0,0,1,1020.45,582.1Z"/><path class="cls-16" d="M877.74,415.6c-4.1-.21-6.47-2.91-8-6.18-4.24-9.07-4.12-18.8-3.79-28.51a2.51,2.51,0,0,1,.61-1.54c5.58-5.75,11.33-11.28,19.6-13,7.58-1.54,11.59,3.6,15.3,8.68A89.91,89.91,0,0,1,914,399.22c-2.4,1.28-5.5.93-7.47,3.35-.55.68-1.63.26-2.31-.31-2.2-1.84-5.17-2.24-6.73-3.55,1.12.64,3,1.62,4.79,2.64,1.11.62,2.27,1.38,1.49,3-.8.92-2.08.93-3,1.59-2.46,1.79-2.34,4.11.3,5.62a10.07,10.07,0,0,1,2.57,1.52c.59.62,1.21,1.36.79,2.26-.34.73-1.21.61-1.9.6C894.25,415.75,886,416.4,877.74,415.6Z"/><path class="cls-17" d="M903.65,403.52c-2.54-3.4-7.93-2.83-9.57-7.67,3.18,1.67,6.34,3.39,9.56,5,.89.44,2.16,2.27,2.78.85,1.73-3.95,4.81-2.44,7.56-2.46,1.27.51,2.56,2.12,3.84,1s.45-2.94-.12-4.36c-3.55-8.85-8.51-17-12.64-25.57a37.12,37.12,0,0,1-1.77-3.85c-2.71-7.83-.46-11.27,7.68-12,2.69-.24,5.36-.65,8-1,5.36.24,11-.82,15.92,1.86,7.11,3.86,12.49,9.67,17,16.31-.9,1.85-2.19,3.11-3.65.76-1.65-2.68-2.45-.78-3.28.39s-.73,2.72-.74,4.15a15.58,15.58,0,0,1-5.09,11.33c-5.68,5.56-11.15,11.33-16.58,17.14-1.75,1.86-3.67,3.13-6.3,3.08-1.92.09-3.52-1.17-5.39-1.26C908.31,406.33,905.36,406.11,903.65,403.52Z"/><path class="cls-18" d="M1442.81,287.62c.47-5.13,4.73-4.71,8-5.05,5-.52,9.89,1.53,14.86.69,9.79-1.64,19.7-1.25,29.43-.57,12.26.87,24.49.22,36.72.62a13.68,13.68,0,0,0,2.56-.1c7.27-1.08,10,1.76,7.71,8.81-1.84,5.53-1.65,10.84-.7,16.35a12.94,12.94,0,0,1-.39,5.48,6.54,6.54,0,0,0,2.26,7.25c1.3,1.18,1.41,2.78,1.43,4.35q.16,13.73,0,27.45a6.79,6.79,0,0,1-1.2,4.47c-1.84,1.41-4,1.27-6.15,1.27q-44.25,0-88.49,0c-2.12,0-4.3.15-6.18-1.19-1.49-1.81-1.33-4-1.33-6.12q-.06-28.84,0-57.68C1441.35,291.56,1441.06,289.32,1442.81,287.62Z"/><path class="cls-19" d="M903.65,403.52l7.68,2.56c6,3.36,12.47,6,18.35,9.66a3.19,3.19,0,0,1,1.85,2.33c-2.07,2-2.45,4-.41,6.48,1.09,1.3,1.59,3.17-.81,4.11-3-2.85-5.57-2.48-8.36.53-3.85,4.15-9.17,5-14.49,5.47a18.82,18.82,0,0,0-8.17,2.33c-4,2.46-4.69,5.92-1.93,9.73,4.63,6.42,8.57,7,15.26,2.7,3.91-2.55,7-6.29,11.69-7.72,2.43,2.8,2.49,5-.92,6.72-3.67,1.88-3.37,5.71-5.36,8.33-.47.61.13,1.31.44,1.95,2.11,4.43,2,4.68-2.57,7.16,2.4,1.29,5.52-2.84,7.44,1-5.7,2.65-11.42,5.25-17.92,5.08-2.26-10-10.42-15.34-17-22-3.85-3.91-8.26-7.39-11.3-12.08-2.18-5.34-1-7.85,4.62-8.7,8-1.24,16.11-2.38,23.58-5.86,2.53-1.18,6.78-2.34,6.36-4.82-.49-3-4.76-2-7.45-2.11-7.29-.2-14.58-.11-21.87-.19-1.54,0-3.16.32-4.6-.57h26c-.14-2.23-1.58-2.33-3-2.7-1.85-.51-4.65-1-3.62-3.56.84-2,.43-6.38,5.06-5.1C902.61,404.34,903.17,403.77,903.65,403.52Z"/><path class="cls-20" d="M922.53,569.23c-5-6.3-7.77-13.41-7.53-21.51.11-3.58,3-5,5.85-5.83,3.43-1,6.31.73,8.11,3.41a38.79,38.79,0,0,1,6.16,29.2c-.47,2.74.41,3.76,2.29,4.56a71.45,71.45,0,0,0,14.3,3.93c.51.46,1.52.3,1.68,1a1.11,1.11,0,0,1-1.24,1.32c-4.46-.8-4.7,2.55-5.48,5.41-2.38,5.65-6.75,9.71-11,13.86a34.09,34.09,0,0,1-10.29,6.56c-3.84,1.7-7.39,1.06-10.07-2.18-2.47-3-2-6.4-.17-9.53,3.76-6.51,10.25-9.62,16.53-13,2.07-1.11,5.72-1.35,5.83-3.6.13-2.76-3.78-1.21-5.59-2.7-1.57-1.3-3.89-1.68-5.88-2.47C924,575.22,926,571.12,922.53,569.23Z"/><path class="cls-21" d="M923.34,466.89a3.58,3.58,0,0,0-4.69.22c-1.4,1.11-2.65.47-4,0-.7-.25-1.39-.54-1.35-1.39s.75-1,1.47-1.23c5.08-1.67,5.08-1.69,1.77-5.75a8.31,8.31,0,0,1-.68-1.06c3.31-2,1.08-7,5-8.87,2.56-1.26,6.38-2.56,3.18-6.8,0-.14-.06-.32,0-.41a35.6,35.6,0,0,0,6.37-13.19c1.9-2.09-.21-3.24-1.1-4.67-2.38-3.79-2-4.79,1.88-5.67,1.07-.9,2.19-.5,3.19,0q13.14,7,26.26,14a2.8,2.8,0,0,1,1.35,1.59,44.74,44.74,0,0,1,.77,5c.2,4-2.86,5.38-5.84,6.73-3.1.46-5.4,2.39-7.76,4.22C940.91,456,932.75,462.37,923.34,466.89Z"/><path class="cls-5" d="M1207.57,793.35c-1.57,1.78-3.62.4-5.19.34-4.37-.14-7.74,1.06-10.4,4.45a22.6,22.6,0,0,1-5.08,5.11c1.15-3.83,3.94-6.37,6.45-9.26-1-1.1-2.25-.63-3.28-.67-2.1-.09-4.35,1-5.6-2.15-.47-1.18-3-1.43-4.74-1.31-3.75.26-4.73-1.58-4.92-5.18-.18-3.4,2-7-.59-10.25-.29-.31-.74-.59-.78-1a94.77,94.77,0,0,1,0-22.83c2-2.05,4.79-1.57,7.25-2s4.27-1.25,4.37-4.18c0-1,.12-2.52,1.65-2.56,1.13,0,1.57,1.11,2,2a15.2,15.2,0,0,0,2.26,4.1c3.48,7.32,6.44,14.87,9.41,22.4,2.4,6.08,4.48,12.29,7.27,18.22C1208.31,790.19,1209,791.77,1207.57,793.35Z"/><path class="cls-22" d="M1734.63,617.26c5.88,1.23,11.79.61,17.69.2.22,0,.4-.68.6-1.05,2.67-.75,5.44-.24,8.13-.76,2.88-.56,2.27-2.94,2.3-4.77.11-8.08,0-16.17.1-24.26,0-1.94-.66-4.39,2.06-5.4,0,10.57.19,21.15.08,31.72,0,3.19.62,5,4.23,4.39,3.09-.48,4.75.39,4.54,4.08-.18,3.28,0,6.14-4.65,5.31-1.94-.35-3.42.21-3.33,2.61a4,4,0,0,0-4.48-2.68c-1.91.19-2.31,1.17-2.35,2.72-4-1.46-8.12-1.19-12.24-1.19h-55.66c-4,0-8-.18-11.8,1.21-.06-1.55-.48-2.52-2.38-2.72a4,4,0,0,0-4.51,2.68c.12-2.83-1.85-2.86-3.73-2.6-4.6.64-3.92-2.44-4.18-5.3-.34-3.61,1.29-4.49,4.44-4.17a40.15,40.15,0,0,0,4.25,0,5.19,5.19,0,0,1,4-.56c9.17,1.9,18.39,1.19,27.61.4l.18.18a5.42,5.42,0,0,1,3.9-1.4q10.62-.21,21.25,0A5.29,5.29,0,0,1,1734.63,617.26Z"/><path class="cls-23" d="M1207.57,793.35c-.2-4.69-3.17-8.39-4.67-12.61-3.84-10.74-8.2-21.28-12.35-31.91,5.38-2.44,11.14-2.87,16.93-3.16,3.43,3.85,3.49,8.92,4.71,13.52,3.21,12.13,5.42,24.5,9.11,36.51,1.8,8.7,5,17.07,6.25,25.88l-.41,2c-1.81,4-4.75,7.14-7.48,10.43-.81,1-2.17,2.41-3.89.94.51-4.67,2.63-8.93,3.54-13.49q-5.2-13.28-10.45-26.52A7.29,7.29,0,0,0,1207.57,793.35Z"/><path class="cls-24" d="M1240.34,244.7c-.32,1.38,0,2.39,1.57,2.62,4.19,3.23,3.85,7-.57,9.77s-9.52,2.66-14.52,2.49c-2.15-.28-4.28-.61-6-2.12-.48-.51-.84-1.11-1.29-1.65-3.73-4.43-3.46-5.91,1.54-8.59,0-.85,0-1.7.07-2.55,1.29-6.35-1.58-11.49-5.16-16.19-1.7-2.23-1.43-4.43-1.47-6.78,2-.78,3.9-1.46,4.61-3.89.57-2,2.19-2.78,4.25-2.95a109.89,109.89,0,0,1,13.58-.07c2.69.12,5,1.45,5.79,4.26.6,2.18,2.18,2.78,4,3.27a6.74,6.74,0,0,1-1.5,6C1241.5,233.19,1239.17,238.4,1240.34,244.7Z"/><path class="cls-25" d="M946.35,497.73a3.22,3.22,0,0,1,1.27,0c.51.21.32.73,0,.93-3.39,2-5.31,6.72-10.27,5.34-1.57,3.7,6.07,5.72.59,10,3.42,0,5.35,2.1,8,2.37.49.06.21,1-.24,1.38-15.19-2-27.15-9.62-36.21-21.76-2.81-3.77-1.94-5.09,2.5-6.55a87.48,87.48,0,0,0,38.9-25.38c.46-.52,1-1,1.53-1.44,2.67,1.91,1.55,3.81-.55,4.73-2.48,1.09-1.92,2.94-.86,3.76,3.17,2.43.55,3-1,4.05-.84.59-2.51.24-2.4,1.91.08,1.2,1.26,1.48,2.12,1.84,3,1.27,2.56,5.1,5.1,6.72a1.68,1.68,0,0,1-.21,1.46c-1.06.56-1.24-.85-2-1.1-6.06-.87-11.58,1.22-17,3.41-2.65,1.07-5.34,2.74-4.12,6.44,1.06,3.22,5,4.87,8.5,4C942.21,499.25,943.77,496.94,946.35,497.73Z"/><path class="cls-26" d="M887.34,560.61c-8.33,7.62-18.44,8.11-28.78,6.72-3-.41-4.95-3.16-4.83-6.65.12-3.3,3.25-6.53,7-6.88,5.76-.55,11.51-1.54,18-.2-5-6.24-10.2-11.58-12.54-18.79a19.7,19.7,0,0,1-1.19-4.94,7,7,0,0,1,4.27-7.23c3.13-1.49,5.94-.2,8.06,2.18,4.29,4.8,6.29,10.73,7.37,16.91.53,3,1.44,6.13.42,9.32-.85,2.64,1.7,3.22,3.08,4.47C891.84,558.61,891.84,558.61,887.34,560.61Z"/><path class="cls-5" d="M1442.81,287.62V357c-1.48,1.77-3.58,1.6-5.53,1.6q-32.68.09-65.36,0c-2,0-4,.17-5.51-1.62,1.37-1.13,3-.66,4.54-.67,19.13,0,38.27-.11,57.41.06,3.82,0,5.14-.87,5.1-4.94-.19-23.85-.1-47.7-.1-71.56,6-1.58,7.8-.34,8.63,5.88A7,7,0,0,0,1442.81,287.62Z"/><path class="cls-5" d="M1543.24,357q0-17.94,0-35.9a7.11,7.11,0,0,1,7.51.16c1.27.77,2.4,1.91,4.18.72,1.62-1.08,2.24.57,2.74,1.61,1.12,2.32,2.87,2.6,5,1.89.66,8.8,1.57,17.56,5.56,25.63a14.81,14.81,0,0,0,4.79,5.75c-1,1.58-2.61,1.66-4.16,1.69-7.14.16-14.29.15-21.43,0C1545.94,358.54,1544.33,358.44,1543.24,357Z"/><path class="cls-27" d="M1700.47,387.29c.47,1.67,2.3,2.92,1.5,5a54.18,54.18,0,0,1-9,6,9.91,9.91,0,0,0-2,.74c-7.21,3.12-11.42-.22-10.74-6.07-.14-2.28.36-4.65-1-6.75a15.89,15.89,0,0,0-1.33-1.64c-3-3.19-2.92-3.32,1-5.72a3,3,0,0,0,.95-.82c.16-.25.18-.52-.19-1.39-4.15,2-7,.07-9-3.73-.91-2.45-2.43-4.79-1.56-7.61,3.88-4.46,9-6.87,14.57-8.24,3.85-.95,9.18,4.79,9.21,9.46.79-1.57,1.36-3.51,3.87-2.47,3.39,2.06,2.26,5,.43,6.81-4.13,4.1-2.2,8-.21,11.83C1697.83,384.33,1698.48,386.38,1700.47,387.29Z"/><path class="cls-28" d="M1522.05,751.27c1,4.56,1.14,9.32,3.09,13.67,2.24,5.47,2.45,11.35,3.4,17.08a2,2,0,0,1-.89,1.85c-2.83-1.63-5.4.19-8.06.65-3.24.54-6.45,1.27-9.67,1.92a3.42,3.42,0,0,1-1.34-2.82c1.29-9.33-.95-19,2.84-28.1l1.11-20.5c2.09-1.91,4.36-1.6,6.69-.54A22.44,22.44,0,0,1,1522.05,751.27Z"/><path class="cls-29" d="M1128.59,273.91l-3.55-3.45a15.79,15.79,0,0,1-5-5.26l0,0c-1-2.13-2.63-3.94-3.44-6.05-.94-2.45-1.08-5.23.77-7.6,5.59-2.88,10.1-1.27,12.75,4.68.79,1.78,1.26,3.7,1.88,5.56,1.55,1.36,0,3.8,1.78,5.08l0,0c3.36.89,3.6,2.78,1.69,5.34l-1.81,4.29c-.38.89-1.15,1.87,0,2.65a2.18,2.18,0,0,0,2.73-.5c3-3.69,7.76-3.59,11.43-5.85,3-1.88,8.18-.3,9.52,2.27,1.62,3.08.11,7-3.63,9.12a2.72,2.72,0,0,0-1.29,1.55c-4.12,1.1-8.06,2.94-12.49,2.75a9.67,9.67,0,0,0-4.54.79h-1.7c-1.8-1.44-5.35.37-6-3.22a4.32,4.32,0,0,1,1.55-3.63c.07-.57.13-1.13.19-1.69C1128.68,278.55,1131.53,275.85,1128.59,273.91Z"/><path class="cls-30" d="M970.58,581.23c-2,1.73-4.45,1.49-6.81,1.72-.82-1.14-2.41-.85-3.33-1.8-3.4-5.53-7.22-10.8-9.27-17.12a26.54,26.54,0,0,1-1.2-8.39c0-3.24,1-5.89,4.24-7.21,3.59-1.45,6.74-.85,9.36,2,4.42,4.77,6.45,10.6,7.19,17C971.8,572,972.11,576.63,970.58,581.23Z"/><path class="cls-31" d="M1166.17,246.33c-2.1-.57-3.32,1.25-5,1.85-1.51,1.27-3.62.62-5.22,1.61-2.87.41-6.2-1.62-8.53,1.62-.66.71-.81,1.83-1.83,2.26-1.87.5-2.31-1.2-3.25-2.13a21.6,21.6,0,0,1-5.18-8.56c-1.19-5.17-2.16-10.33-.05-15.51,1.24-2.13,3.11-3.06,5.41-2.22a7.47,7.47,0,0,1,4.85,6.42,70.16,70.16,0,0,1,.25,7.26c0,1.26-.1,3,1.2,3.3,1,.2,2.51-.73,3.28-1.61,3.56-4.12,8.17-6.09,13.34-7.29,2.49-.57,4.37.06,5.48,2.07a5.54,5.54,0,0,1-.74,6.73C1168.89,243.58,1166.71,244.17,1166.17,246.33Z"/><path class="cls-5" d="M1010,519.19c-.21,2.65-2.76,3-4.32,3.39-6.09,1.4-12,3.65-18.25,4.31-1.33.14-2.54.36-3.52-.78-.63-.74-1.17-1.85-2.38-1.07-.82.52-.63,1.52-.63,2.36,0,4.21-1.63,8.41,0,12.62-3.2-4.87-2.72-10.58-2.89-15.91-.07-2.52-.64-5-.55-7.5.13-3.63-.73-7.41,1.91-10.62.46-.56-.06-1-.72-1.14,5.14-7.79,8.77-16.13,9.31-25.62.1-1.83.39-3.94,2.66-4.29,2.78-.44,3.21,2.1,3.66,3.86a85,85,0,0,1,1.33,8.77c2,3.8.42,7.62-.4,11.2-1.69,7.36-4.91,14-11.4,18.57-1.23.86-2.94,1.93-2.24,3.73s2.66,1.33,4.18,1.39a48.44,48.44,0,0,0,18.13-2.63C1005.84,519.15,1007.84,517.9,1010,519.19Z"/><path class="cls-32" d="M1246.75,222.32c-1.7,1.28-4.22,1.79-4.46-.51-.66-6.19-4.86-6.34-9.13-5.91-3.33.33-6.56-.56-9.94,0-2.35.41-3.34,1.44-3.62,3.29-.52,3.53-2.32,3.85-5.08,2.47-1.6-5,.53-9.77,1-14.65a1.46,1.46,0,0,1,.64-1.07c3.93-1.41,6.67-5.82,11.47-4.82a3.82,3.82,0,0,0,3.11-.49c.9-.55,2-1,2.84-.56,2.46,1.36,5.32,1.37,7.7,2.29,2.93,1.14,5.22,4.28,6.11,7.49A19.72,19.72,0,0,1,1246.75,222.32Z"/><path class="cls-5" d="M1739.08,504l-6.2-35.05c2.81-1.3,2.77-3,1.62-5.77a62.69,62.69,0,0,1-4.9-18.76c-.52-6.15-2.35-12.2-1.54-19.42,3.73,7.06,8,12.86,10.11,19.75-1.51,3.6,1.1,6.69,1.24,10.12.4,9.94,4,19.56,3,29.66A101.08,101.08,0,0,1,1739.08,504Z"/><path class="cls-33" d="M1683.31,296.29c-6.51,13.54-18.46,18.51-32.31,20.38-1.23.17-3.09.89-3.73-1s1.26-2.18,2.38-2.94c7.77-5.26,16.34-9.06,24.53-13.55,7.48-4.09,11.67-10.51,7.67-20.16a47.2,47.2,0,0,1-3.92-21.24c.39-6.3-.58-6.87-6.77-6.42-3.13.23-6.28.14-9.42.2,2.94-4.35,10.32-7.38,14.88-5.72,3,1.09,4.49,2.46,3.66,6.87-1.11,5.83-1.7,12.17,1.41,18.22,3.46,6.75,3.62,14.31,3.23,21.79C1685.72,294.53,1684,295.17,1683.31,296.29Z"/><path class="cls-34" d="M913.93,579.41c-5.13,6.65-12,10.62-19.86,13.18-3.84,1.24-7.25.14-8.79-3.14-1.37-2.93-1.22-6.2,2.09-9.08,5.3-4.59,11.49-6.34,18-7.72,1.56-.82,3.6-.1,5-1.85.81-1,2.33-.86,3.51-.13s2.13,2,1.66,3.55C915,576,915,577.86,913.93,579.41Z"/><path class="cls-35" d="M1696.75,364c-1.89.12-2.56,1.81-3.66,3.15a24.61,24.61,0,0,0-1.85-4c-4.09-5.74-7-6.41-13.21-3-3,1.64-5.82,3.55-8.73,5.34-.5.93-1.34.91-2.22.81-2.59-.57-3.71-2.53-4.47-4.81-3.2-9.32-1.34-11.72,8.47-10.24,3.74.56,6.94-.48,10.23-1.75.57-.05,1.13-.1,1.7-.13C1694.52,348.76,1697.9,352.34,1696.75,364Z"/><path class="cls-15" d="M891.74,546.85c-.29-2-.69-3.93-.84-5.92-.34-4.63,1.69-8.38,5.06-9.21,4.32-1.06,7.22,1.88,8.56,4.9,3.38,7.6,4.67,15.71,2.64,24-3.15,5.16-3.71,5.34-10.39,3.41l0,0C896.78,557.86,894.68,552.24,891.74,546.85Z"/><path class="cls-36" d="M1509.59,783.87l.33,2.57q-1.29,17.61-2.56,35.22a5.11,5.11,0,0,1-6.93-.13l-2.61-23.09c.59-2.59,2.33-4.39,4.1-6.25,3.25-3.39,2.91-8.06-1.4-9.72-3.79-1.46-4.55-4-5.17-7.17l-.28-1.67c-.38-1.23-.87-2.82.3-3.5s2.41.56,3.24,1.49C1502.28,775.69,1507.14,778.71,1509.59,783.87Z"/><path class="cls-37" d="M1219.31,821.5c1.5,5.24-1.69,9.3-3.46,13.71-.16,2.34-1.58,3.52-3.72,4a17.48,17.48,0,0,0-6,3c-8,.46-8,.46-8-7.44,0-3.28.15-6.57-.06-9.83-.17-2.57.54-3.5,3.27-3.42C1207.33,821.7,1213.32,821.52,1219.31,821.5Z"/><path class="cls-38" d="M1160.29,777.84q-.36-7.3-.73-14.61c2.37-.78,2.44,1.09,2.73,2.5.54,2.61-1,6,.73,7.71,1.46,1.48,4.68-.83,7.17,0,.27.09.54.15.81.25,1.17.42,1.41,1.65,2.14,2.44l.95,4.34c-1,4.76-.08,9.6-.52,14.38l-.24,12.29c-2.94-.12-6-1.53-8.71.8-1.74-3.57-1-7.51-1.4-11.24A173.56,173.56,0,0,0,1160.29,777.84Z"/><path class="cls-39" d="M1765.51,581.22c-1.17,1.36-.69,3-.7,4.51,0,9.4-.06,18.79,0,28.18,0,3.65-1.42,4.36-4.4,2.46-1.67-1.76-1.28-4-1.3-6.07-.06-8.95,0-17.9,0-26.85-.06-6.68-1.69-8.29-8.26-8.55-2-.08-4,.2-5.66-1.31l-.15-5.19c2.56,0,5.12,0,7.68,0C1761.16,568.39,1765.39,572.63,1765.51,581.22Z"/><path class="cls-40" d="M1163.85,262.42c-5.92,4.5-12.77,4.93-19.8,4.58-1.53-.86-3.22-.75-4.89-.89-1.46-.12-3-.39-2-2.53l3.25-5.33c3.7-.44,7.57-.42,10.25-3.69,1.42-.89,3.17-.57,4.65-1.23,3,.57,6.58-1.55,9.1,1.73C1166,257.65,1166.43,260.16,1163.85,262.42Z"/><path class="cls-41" d="M1164.62,807.92c1.23-3.38,4.49-3.68,8.71-.8q.09,9.4.19,18.81c0,5.85-3.14,10.36-6.66,14.46-1.37,1.6-4.21,2.47-5.75-.75,5.11-8,6.26-16.57,3.81-25.74C1164.42,812,1164.7,809.92,1164.62,807.92Z"/><path class="cls-42" d="M1206.1,842.2c.83-2,2.09-3.6,4.48-3.69s3.81-1.72,5.27-3.3c5.36-2.31,6.73-8.51,11.29-11.6,3.47,3.16,4.15,7,3.14,11.46-.52,2.29-.31,4.75-.42,7.14C1221.94,843.07,1214,842.42,1206.1,842.2Z"/><path class="cls-43" d="M1542.22,820.9c3.07.93,4.18,3.78,4.25,6.22.11,3.77-.88,7.57-.79,11.42,0,1.08-.79,1.38-1.73,1.41s-1.54-.52-1.54-1.55v-3.85a5.68,5.68,0,0,0-.76-.09c-1.41,5.52-5.36,6-10.15,5.44a96.43,96.43,0,0,0-10.37-.07c.61-2.81,2.5-3.31,4.46-3.68,2.29-.44,4.45-1.09,5.7-3.31C1534.53,828.49,1537.64,824,1542.22,820.9Z"/><path class="cls-44" d="M1688.45,330.54c-.17-3.87,2.42-7.31,1.7-11.29-.22-1.23.21-2.71-1.07-3.51-1.49-.93-2.45.54-3.3,1.25-11.78,9.72-26.29,12.09-40.53,15.1-2,.42-4.7.38-5-2.6-.29-3.48,2.63-3.31,4.8-3.21,9.32.47,18.42-.48,27-4.36,4.9-2.21,9.62-4.81,12.86-9.38.42-.52.68-1.32,1.62-1,.23.5.31,1.21.69,1.48,2,1.41,4.7,2.15,4.56,5.47C1691.64,322.83,1692.77,327.44,1688.45,330.54Z"/><path class="cls-45" d="M1508.88,823.35a9,9,0,0,1,2.81,9.28c-.51,2.18-.23,4.53-.36,6.81-.06,1.18.44,2.71-1.64,2.77s-1.58-1.52-1.65-2.67,0-2.27,0-3.44c-.37,0-.82,0-.84.12-1.35,5.95-5.64,6.39-10.63,5.89-2.54-.26-5.13,0-7.69-.06-.65,0-1.52.34-1.88-.52s.42-1.51,1-2.09c1.59-1.47,3.66-1.44,5.6-1.84a10.28,10.28,0,0,0,9.69-7.58,26.51,26.51,0,0,1,2.39-5C1506.36,823.89,1507,822.27,1508.88,823.35Z"/><path class="cls-46" d="M1161.11,839.64c3.35,1.79,5.49.52,7-2.65,1.76-3.71,3.61-7.37,5.41-11.06,3.67,2.61,4.86,6.06,3.79,10.45a39.86,39.86,0,0,0-.48,5.49c-.09,1.06.36,2.58-1.29,2.69-2,.13-1.47-1.63-1.62-2.78-.11-.8-.13-1.61-.21-2.61-1.65.4-1.67,1.75-2,2.66a4,4,0,0,1-4.52,2.93c-3.83-.18-7.68,0-11.52-.06-.88,0-2.26.58-2.56-.71s.92-2,2-2.43C1157,840.81,1159.09,840.27,1161.11,839.64Z"/><path class="cls-47" d="M877.1,437.85A283,283,0,0,1,904,464.27c2.12,2.4,1,5.12,1.43,7.7a12.19,12.19,0,0,1-6.18-1.41,5,5,0,0,0-1-5.13c-5.86-6.11-11.89-12-17.8-18.08C878.65,444.41,877.91,441.12,877.1,437.85Z"/><path class="cls-48" d="M880.4,447.35c1.1-1,2.07-.08,2.55.55,4.84,6.21,11.06,11.09,16.2,17,1.33,1.53,3.9,3.74.09,5.67-5.67-1.66-9.13-6-12.24-10.53A59,59,0,0,1,880.4,447.35Z"/><path class="cls-49" d="M1759.64,480c1.75-2.51,4.46-1.58,6.81-1.92,5.39,7,3.74,13.94,0,21.89-1.38-4.3-.36-7.92-1-11.53-1.45,1.39-1,3.32-2,5C1760.42,489.26,1760.76,484.41,1759.64,480Z"/><path class="cls-50" d="M896.77,564.08a10.79,10.79,0,0,0,10.39-3.41c-1.56,4.54.38,6.86,4.69,8.33,4,1.37,7.75,3.74,12,4.59.55-1.86-1.72-2.69-1.37-4.36,4.66,1.38,3.17,5.29,3.48,8.47a5.82,5.82,0,0,1-1.65-.28c-4-2.11-7.66-2.34-10.43,2a44,44,0,0,1,.49-5c.25-1.2.42-2.25-.72-3a2.12,2.12,0,0,0-2.75.07c-1.64,1.68-3.66,1.1-5.58,1.17l2.82-1.48C904.94,567.78,900.2,567,896.77,564.08Z"/><path class="cls-51" d="M1495.35,775.3a16.52,16.52,0,0,0,6.38,6.56c4,2.4,6.19,7,.69,11.59a48.57,48.57,0,0,0-4.6,5c-.26-1.71.1-3.55-1-5.09a1.63,1.63,0,0,1-.12-1.75,2.91,2.91,0,0,0-.43-2.69Z"/><path class="cls-52" d="M1508.88,823.35c-3.35,2-3.68,5.82-5.27,8.85-2.89,5.54-3.68,6.06-10,5.4,4.48-4.43,6-10.09,6.83-16.07l6.93.13Z"/><path class="cls-53" d="M1173.14,776.11a1.55,1.55,0,0,1-1.63-1.7,106,106,0,0,0,.49-14c0-1.9-.13-3.84-2.2-4.71s-3.78.29-5.45,1.52c-1.46,1.07-2.12,3.7-4.77,2.66-.15-3.41-1.46-6.69-1.09-10.15a20.79,20.79,0,0,1,15.68.84q0,11.94,0,23.89C1173.35,774.66,1173.31,775.43,1173.14,776.11Z"/><path class="cls-54" d="M1527.65,783.87c-.41-6.37-2.9-12.46-2.51-18.93,2.34,1.38,3.18,3.66,3.5,6.15,1.52,12,2.54,24.17,5,36.1.44,2.14.81,4.51-.4,6.67Q1530.44,798.86,1527.65,783.87Z"/><path class="cls-55" d="M960.44,581.15c1.5-.12,2.77.18,3.33,1.8-1.61,3-1.62,4.82,2.67,3.62a4.11,4.11,0,0,1,4.19,1.5c-4.4.17-8.8.25-13.07-1-4.54-1.36-8.7-1.76-10.89,3.71-.61-4-.07-7.1,5.22-6.14.44.09.84-.12.6-.64a4.53,4.53,0,0,0-.78-1,25.26,25.26,0,0,1,7.59.56C962.84,584.48,960.74,582.29,960.44,581.15Z"/><path class="cls-56" d="M891.74,546.85c4,3.81,4.61,9.24,6.52,14,.3.76-1,2.15-1.53,3.25-3.3-.73-5.54-4.27-9.39-3.51,1.45-1.51,3.32-2.94.83-5.09,1.62-.08,2.4,1.28,3.55,2,.89.56,1.89,1.71,2.93.68.82-.82.58-2.21,0-3.17A23.43,23.43,0,0,1,891.74,546.85Z"/><path class="cls-55" d="M970.58,581.23l.18-13.87c1.71.43,1.52,1.83,1.53,3.09,0,3.55.47,7.16,0,10.64-.56,3.78,1.36,4.23,4.18,4.41,6.12.4,12.14-1.37,18.25-.75-7.18,2.89-14.7,1.5-22.07,1.52C969.24,586.27,971.05,583,970.58,581.23Z"/><path class="cls-57" d="M1542.22,820.9c-3.28,4.31-6.5,8.68-10.93,11.94,1.12-3.81,3.29-7.27,3.9-11.26,2.13-.73,4.09-2.22,6.55-1.45Z"/><path class="cls-58" d="M1686.58,311.59l-1.62,1c-.32-4.33,1.54-8.34,2-12.58.45-3.91-.87-4-3.69-3.67-.33-1.58,1.15-2.33,1.61-3.55,2.55-.28,3.39.84,3.49,3.4A50,50,0,0,1,1686.58,311.59Z"/><path class="cls-59" d="M1106.27,254.14l.28.32c-5,2.43-9.18,6.27-14.54,7.93-1.13.35-2.16-.45-2.91-1.38A85.52,85.52,0,0,1,1106.27,254.14Z"/><path class="cls-60" d="M1151,255.06c-2.41,3.68-7.73,5.29-10.51,3.19-.4-2.52,2.49-4.12,1.89-6.71l3.32,1.68c1-.1-.55,3.17,1.91,1.42A2.38,2.38,0,0,1,1151,255.06Z"/><path class="cls-59" d="M1117.43,251.57c-1.16,4.95,1.56,9.15,2.67,13.65-5-3.31-5.88-8.19-5.25-13.66Z"/><path class="cls-61" d="M1137.19,263.58c.17,1.79,1.51,1.68,2.78,1.71a5.15,5.15,0,0,1,4.08,1.71c-4.68-1.23-6.28,2.5-8.5,5.25,1.1-2.31-.25-3.84-1.69-5.34C1136,266.83,1135.71,264.32,1137.19,263.58Z"/><path class="cls-62" d="M1626.45,303c.08,3.36.71,6.77-1,9.94-.37.69-.62,1.82-1.66,1.57-.53-.12-.94-.94-1.3-1.51-1.27-2-1.25-4.28-1.09-6.55,1.63,1.13,1.37,3.26,2.36,5C1626.05,308.86,1625,305.55,1626.45,303Z"/><path class="cls-63" d="M1137.11,227.47c-1.62,5.18.44,10.34.05,15.51C1134.65,239.81,1134.62,230.06,1137.11,227.47Z"/><path class="cls-64" d="M1454.32,805.36c1.14-4.21,1.91-4.87,6.49-5.54A32.49,32.49,0,0,0,1454.32,805.36Z"/><path class="cls-65" d="M1173.57,794.83c-.07-4.8-1-9.63.52-14.38C1173.79,785.24,1174.72,790.07,1173.57,794.83Z"/><path class="cls-64" d="M1496.68,791.6l.12,1.75c-1.41,1.34-2.11,3.54-4.89,4C1492.79,794.48,1495,793.24,1496.68,791.6Z"/><path class="cls-59" d="M1113.14,251.56c-.17,1.18.5,2.74-1.19,3.26a2.47,2.47,0,0,1-3.11-1.55C1110,252.12,1111.62,251.91,1113.14,251.56Z"/><path class="cls-64" d="M1474.43,793.49c-2.5,1.1-3.72,4-7.2,5.78C1469.55,796,1471.15,793.73,1474.43,793.49Z"/><path class="cls-55" d="M988,576c2.91.09,4.9,1.19,4.87,4.48C991.45,578.71,988.75,578.39,988,576Z"/><path class="cls-61" d="M1133.84,266.89c-3.27-.75-1.19-3.38-1.78-5.08C1134.83,262.74,1133.4,265.14,1133.84,266.89Z"/><path class="cls-55" d="M994.57,581.32c2.42-.24,3.08,2.6,5.87,2.63a6.23,6.23,0,0,1-4.14.65C996.54,583.08,995.05,582.47,994.57,581.32Z"/><path class="cls-66" d="M962.92,373.41C961,369,958.21,365,955.68,361c-2.21-3.55-1.55-5.38,2.47-6.6a16.48,16.48,0,0,1,4.19-.64A63.65,63.65,0,0,1,983.16,357c9.38,2.87,13.37,10,11.12,19.55-3.24,13.77-2.81,27.35,2.1,40.7.27,2.48-2.42,2.77-3.31,4.51a67.17,67.17,0,0,0-6.72,18.58,5.59,5.59,0,0,1-.9,2.78c-3.63.36-6.2-2.09-9.21-3.42-5.81-2.58-11.28-5.84-17.12-8.37-1.23-.53-2.68-1-3.34-2.47,0-4.51,1.93-8.51,3.35-12.63.76-2.21,1.91-4.22,4.85-3.8,1.83.92,2.39,4.2,5.49,2.86,2.92-1.26,4.23-3.58,4.8-6.55.93-4.72-.82-9.05-2.28-13.27a80,80,0,0,0-5.45-12.93C965.5,379.43,963,376.9,962.92,373.41Z"/><path class="cls-67" d="M985.21,443c-.19-8.88,4.32-16.23,7.83-23.89.65-1.41,3,.11,3.34-1.88,1.49,2.4,2.93,4.84,4.51,7.19.67,1,1.39,2.43,3,1.77,1.26-.51,1.72-1.7,2-3.06,1.4-6.83,0-13.58-.48-20.34-.78-10.17-3.3-20.17-3.07-30.44.09-4.32,1.79-5.29,5.59-3.16,4,2.23,7.83,4.62,11.75,6.94,1.7.9,1.61,2.52,1.6,4.08-.06,11.79.16,23.57-.11,35.35-2.54,2.8-3.16,6.17-3,9.83a7.91,7.91,0,0,1-1.85,5.57c-3.62,4.26-4.3,9.52-4.88,14.72-.71,6.43-3.65,8.93-9.66,6.58a133.32,133.32,0,0,1-15.66-7.55C985.5,444.39,985,443.88,985.21,443Z"/><path class="cls-68" d="M963.85,413c-2.43.18-3.47,1.84-3.77,3.92-.52,3.68-3.61,6.66-2.84,10.69.14.7-.63.78-1.19.83-1.72.85-3-.27-4.38-1-7.2-3.78-14.36-7.62-21.64-11.24-3.61-1.7-7.06-3.72-10.62-5.54-1.13-.58-2.84-.86-2.9-2.72,5.91-1.71,8.49-7.37,12.7-11.07,3.29-2.89,6.06-6.57,9.3-9.65,3.08-2.93,4.78-6.31,4.63-10.57-.06-1.88-.25-4,1.21-5.24,1.12-.94,3-4.17,4.37.19.83,2.74,2.12.21,3.2.07,1.92.95,2.47,3.15,4,4.42,3.47,2,3.91,5.92,5.8,8.93a57.18,57.18,0,0,1,3.3,24C965,410.4,965,411.87,963.85,413Z"/><path class="cls-69" d="M1021.41,509.11l-.27-2.39c-1.26-1.6-1.1-3.5-1.1-5.34,0-26.71-.55-53.43.21-80.12.42-14.4.24-28.78.6-43.17a3.59,3.59,0,0,1,.39-2.06,3.19,3.19,0,0,1,.19-.81c1.11,1.22.69,2.72.69,4.11q0,62.4,0,124.81C1022.13,505.8,1022.61,507.6,1021.41,509.11Z"/><path class="cls-70" d="M1021.24,376l.06,127.27c0,1.14-.11,2.28-.16,3.42l-.66-.15c-1.7-1.54-1.53-3.63-1.53-5.59q-.09-39.44,0-78.87c0-2,0-4,1.41-5.69q0-18.07.08-36.15a8.81,8.81,0,0,0-.77-4.12Z"/><path class="cls-71" d="M960.39,384.63q-2.22-4.28-4.43-8.54c1.49-3.06,4.62-1.84,7-2.68q2.25,4.24,4.49,8.49C966.62,385.81,964.89,386.48,960.39,384.63Z"/><path class="cls-72" d="M1043.75,600.93c0-1.42-.13-2.85-.13-4.28q0-108.1-.13-216.21c0-4.49,1.26-5.33,5.46-5.31,37.14.17,74.28.1,111.43.09,1.42,0,2.85-.09,4.28-.14,3.61-2.23,7.57-1.1,11.41-1.22,29.65-.36,59.31-.08,89-.14,2.53,0,5.17-.43,7.49,1.09.94,2.45-1.25,2.1-2.34,2.39a23.88,23.88,0,0,1-6,.28H1133.85c-5.84,0-5.91,0-6.5,5.74-.36,3.43-2.11,5.27-5.53,5.24-2.66,0-4.7,1-7,2.31-4.09,2.36-9.15,1.77-13.38.67a16.33,16.33,0,0,0-11.4,1.07c-4,1.53-8.15,0-12.22.3-3.11.26-6.25-.08-9.36.16-1.6.13-3.34.39-3.27,2.53.24,7.21-1.39,14.44.19,21.64a44.2,44.2,0,0,1,.34,7.71q0,134.32,0,268.66c0,2.69.34,5.45-.74,8-.81,1.25-1.59,1-2.2-.15a8.21,8.21,0,0,1-.72-4.18c.08-6.07-.66-12.06-.41-18.24,1-22.68.52-45.43.28-68.15-.05-5.17-.8-10.37-.91-15.72-2.32.6-2.73,2.09-3.44,3.28a5.48,5.48,0,0,1-3.62,2.79c-1.22.27-2.61.83-3.53-.5-.77-1.14-.09-2.29.63-3.14,2.56-3,3.36-6.51,3.32-10.36,0-1.66-.14-4,1.86-4.34,2.36-.39,2,2.28,2.71,3.67.15.29.28.5,1.24.52.23-18.36.18-36.73.19-55.09-.06,10.29.27,20.59-.85,30.85a13.64,13.64,0,0,1-.26,2.12c-.35,1.27-.78,2.6-2.37,2.61-1.34,0-1.91-1.15-2.3-2.24a105.72,105.72,0,0,1-3.67-13.65,27,27,0,0,0-2.4-7.36c0,6.25-1.23,11.41-1,16.69.58,12-.71,23.95-1,35.93C1046.45,598.71,1046.35,600.74,1043.75,600.93Z"/><path class="cls-73" d="M1043.75,600.93a2.94,2.94,0,0,0,1.54-3.26c-1.19-8.54,1.63-16.9,1-25.46-.72-9.26.38-18.53.79-27.79,0-1.14-.13-2.63,1.16-3,1.92-.49,1.19,1.44,1.61,2.3,3.17,6.46,3.12,13.83,5.76,20.46.39,1-.09,2.72,1.46,2.58,1.38-.13,1.07-1.76,1.17-2.87,1-10.82.91-21.67.87-32.52a18.33,18.33,0,0,1,.21-3.4c.08-.43.72-.75,1.11-1.12.36.4.95.75,1,1.21a14.74,14.74,0,0,1,.19,3v54.08c0,.58,0,1.15,0,1.72,0,1.59-.68,3.16-2.17,3.3-1.87.17-1.81-1.77-2.09-3.12-.24-1.17.49-2.56-1.41-4-.46,6.41.52,13-5.39,17.31,3-.5,6.24,0,6.42-4.27,0-.77,1.19-1.56,2-2.2s1.32-2.23,2.7-1.53c1.2.6.78,2,.86,3.12,1.1,14.83.84,29.69.85,44.54,0,13.45.06,26.9-.06,40.35,0,1.62,1.46,4.24-2,4.65-.6.08-.53,1.12-.2,1.49,3.6,4,1.84,8.95,2.24,13.5a3,3,0,0,0,.84,2.33c1.11-.85,2.39-.77,3.68-.76,26.07.28,52.13,0,78.2.14,2.53,0,5.16-.38,7.48,1.12,2,4.68,2.38,9.33-.21,13.93q-32.79.07-65.57.15c-13,0-26-.17-39,.1-4,.08-5.28-.87-5.26-5.11.19-32.57.1-65.15.11-97.72C1043.61,609.75,1043.7,605.34,1043.75,600.93Z"/><path class="cls-74" d="M1153.32,716.73l0-13.54c-2.52-5.67-.4-11.21.42-16.79,1.39-1.8,3-1,4.62-.39,9.38,3.64,19,4.26,28.93,2.84,4.41-.63,7.33-3.4,10.65-5.7,2.21.71,2.7,2.72,3.36,4.54a120.21,120.21,0,0,1,4,15.53,122.37,122.37,0,0,1,2.07,13.45c1.24,6.08,1.28,12.29,2.25,18.4-.19,3.76,1.81,7.92-2,11a71.64,71.64,0,0,1-17,2.73c-3.56-.57-1.78-4.68-4-6.2-.89,7-.89,7-8.16,7.49-1.4.1-2.79.28-4.18.42l-15.68-.84c-3.07-3-2-7.21-3.26-10.73-.46-1.26,0-2.8-.92-4C1154.74,728.84,1153.22,722.83,1153.32,716.73Z"/><path class="cls-75" d="M1175.82,375.08a59.44,59.44,0,0,1-11.16,0c-3.09-5.32-3.81-10.5.83-15.41a1.92,1.92,0,0,0,0-2.37c7.19-.27,14.45.31,21.45-1.93.92,1.23,0,2-.63,2.95-3.21,4.63-3,5.08,2.49,6.26,1.85,1.78.77,3.45-.85,4C1183.51,370,1180.23,373.59,1175.82,375.08Z"/><path class="cls-76" d="M1128.53,356.91c-.29-2.94-2.06-4.08-4.86-4.05-3,0-6,0-8.93,0-1.35,0-3,.42-3.37-1.64,2.82-2.36,6.18-1.19,9.31-1.36,2.82-.16,5.65.06,7.89-2.12,3.31,2.27,3.53,5.7,3.5,9.23Z"/><path class="cls-75" d="M1137.22,357.29h27.37c-6.57,1.57-13.25.43-19.88.65C1142.24,358,1139.6,358.77,1137.22,357.29Z"/><path class="cls-77" d="M1705.39,617.12c-.28.3-.55.84-.84.85-8.65.32-17.31.62-25.93-.18-1.59-.14-3.3.07-4.88-.51,0-11.54.37-23.09-.1-34.61-.4-10,6-15.45,14.12-14.34a10.94,10.94,0,0,0,2.13-.1q.45,3.1.89,6.21a3.82,3.82,0,0,1-1.21.39c-8.91.84-9.2,1.28-9.35,10.43-.15,9.5.66,19-.54,28.51-1,2.12-1.31,3.76,2,3.67C1689.6,617.25,1697.5,617.22,1705.39,617.12Z"/><path class="cls-78" d="M1624.68,479.73a13.28,13.28,0,0,1,2.1,7.07l-.27.84c-2,2.55-4.38,4.53-7.92,4.35a3.44,3.44,0,0,1-.79-1.68c-.26-1.85.25-4.08-2.93-4-1.95.05-2-1.64-1.75-3.12a5.23,5.23,0,0,1,2.75-4,7.31,7.31,0,0,1,3.12-.68C1620.91,478.8,1623,478.41,1624.68,479.73Z"/><path class="cls-79" d="M1618.88,491.94l7.63-4.3a3.83,3.83,0,0,1-3,4.14c-3.22,1-3.9,3.15-3.89,6.19q.12,26.34,0,52.69c0,1.65.59,3.46-.85,4.89l-.26,0-.25,0c-.89-1.57-.76-3.3-.76-5q0-26.5,0-53C1617.55,495.6,1617.09,493.49,1618.88,491.94Z"/><path class="cls-80" d="M1616.23,479.91c-1.74.9-1.87,2.73-2.36,4.29-.28.89.11,2,1.26,1.29,4.61-2.77,3.27,1.14,3.59,3.13a6.44,6.44,0,0,1-.14,1.68c-1.07,2-1.07,4.09-1.07,6.25q0,25.47,0,50.94c0,6.85-.14,7-6.83,7.09-13.1.27-26.22.06-39.31.92-2.21.15-4.51-1.13-6.61.52-2.23,1-4.58.81-6.93.73-1.07.08-2.14,0-3.21,0-23.69.35-47.37.2-71.06.07-1.56,0-3.13-.12-4.7-.08a28.41,28.41,0,0,1-4.7.21h-99.28a32.16,32.16,0,0,1-5.55-.18c-6.25.06-12.51.32-18.76,0-.82,0-1.63,0-2.45,0-2.75,0-5.62.72-8-1.44-1.14-2.15-.73-4.48-.73-6.74q0-55.74,0-111.47c0-18.58-.58-37.15,0-55.72.06-2.11-.36-4.31.84-6.28a13.15,13.15,0,0,1,7.86-3,46.22,46.22,0,0,1,4.71-.11q126.89,0,253.78,0c3.84,0,7.71-.12,11.37,1.42,1.68,6.3.19,12.77,1,19.12l-.46.63c-1.3,1.37-1.28,3.08-1.24,4.79.54,24.09.12,48.18.21,72.28C1617.5,473.5,1616.16,476.62,1616.23,479.91Z"/><path class="cls-81" d="M1618,373.42c-2.45,2.32-5,0-7.46,0-9.44.22-18.88.08-28.32.08q-106.2,0-212.4.06c-9.75,0-19.64-1.47-29.23,1.72a5.33,5.33,0,0,1-1.38.86c-4.38.91-8.81.39-13.21.44-8.69.09-17.38,0-26.07,0-3.14,0-6.27,0-9.27,1.14a4.76,4.76,0,0,1-2.09.38c-5.33-.54-10.66-1.12-15.79-2.76q-46.11-.08-92.23-.15c-1.57,0-3.14-.09-4.71-.14,3.24-2.75,6.18-5.94,10.65-6.85,1.45-.29,3.18-.79,2.23-3,1-1.59,2.41-1.36,3.88-1,2.31,2.23,4.77,2.32,7.78,1.19,7.88-2.94,16.05-5,24-7.86,3.39-1.22,6.67-.51,10,.72,6.94,2.55,14.08,4.55,20.89,7.49,3.29,1.42,6.31,1.51,8.56-1.87,1.18.12,1.83,1.34,3,1.45,1.94.18,4.24.82,5.49-1s-.88-3-1.72-4.34c-.65-1.09-2.4-1.86-1.09-3.56,7,1.57,14.18.71,21.27.74,21.79.1,43.57,0,65.36-.07h10.33l76.4,0q43.14.09,86.27.16c4.72,0,9.43-.12,14.15-.18l29.85-.14c13.27.08,26.55.33,39.81.14,4.18-.07,5.61,1.15,5.24,5.27C1617.81,366,1618,369.7,1618,373.42Z"/><path class="cls-5" d="M1624.68,479.73c-2,.07-4.14,1-5.94-.74-1.34-1.36-1.31-3.07-1.3-4.8.11-25.51.2-51,0-76.54,0-1.86,0-3.74,1.38-5.22l.19.11a3.14,3.14,0,0,0,2.76,1.66c6.94-.06,13.86.52,20.66-1.92,8.11-2.92,16.47-5.19,23.67-10.21a15.57,15.57,0,0,1,2.29-1.91c4.89-3.78,5.12-3.74,7.69,2,.78,1.73,2.42,2.32,3.71,3.38,3.09,1.67,1.17,4.48,1.55,6.77a3.22,3.22,0,0,1-3.25,1.75c-7.81,3.27-11.3,9.42-13,17.54-3,14.73-6.62,29.36-10.31,43.95-.8,3.17-4.4,4.54-7,6.35-6.7,4.78-13.62,9.25-20.48,13.8C1625.84,476.66,1624.65,477.77,1624.68,479.73Z"/><path class="cls-5" d="M1666.7,365.53l2.6,0,2,7c.32.87,1.36,1.68.53,2.67-.66.8-1.53.46-2.28-.06-5.86-1.48-11.85-1.45-17.84-1.68-12.91-.48-21.69-7.53-28.17-18.07a9.91,9.91,0,0,1-.65-2.91c-.37-1.65-1.23-3.59.91-4.49,1.87-.79,2.69,1,3.64,2.24,5,6.68,11.24,12,19.1,15.06a26.92,26.92,0,0,0,16.19,1.14A3.29,3.29,0,0,1,1666.7,365.53Z"/><path class="cls-82" d="M1669.5,375.19c2.31.28,1.86-1.28,1.75-2.61,2.23,1.92,3.73,5.66,7.81,2.84a2,2,0,0,1,2.88,1,2.13,2.13,0,0,1-1.2,2.83c-6.19,1.26-2.57,3.88-1,6.24-2.89.22-4-1.65-4.6-4-.76-2.93-1.68-4.38-4.68-1.61-1,1-2.58,2.22-4.41,2.18C1666.07,379.21,1671,378.82,1669.5,375.19Z"/><path class="cls-27" d="M1666.7,365.53l-4,1c0-1.64,0-3.28-.07-4.92Z"/><path class="cls-83" d="M1208.48,735c-1.54-4.3-.7-8.91-1.74-13.28-.38-1.63-.5-3.32-.74-5,1.38-1.28,3.13-1.29,4.84-1.29,42.12,0,84.23-.15,126.35,0,7.71.1,15.41,0,23.12,0q61.32-.16,122.64,0c2.38,0,4.91-.43,6.94,1.41,1.51,1.36.87,3.16.92,4.77.12,4.51-.09,9,.79,13.52L1354.17,735c-1.12,0-2.31-.19-3.22.74-3.79,1-7.66.47-11.48.52-17.12.22-34.24-.25-51.36.3-24.09-.48-48.17-.06-72.26-.22C1213.34,736.36,1210.67,736.85,1208.48,735Z"/><path class="cls-10" d="M1351.08,821.54l-62.91,0a6,6,0,0,1-1.3-4.39c0-6-.22-11.95.11-17.93-.37-13.75-.14-27.5-.12-41.25a6,6,0,0,1,1.14-4c6.22,4.15,13.24,2.51,20,2.61,12.14.19,24.28,0,36.41.07,2.26,0,4.62-.31,6.52,1.43q0,28.51.08,57C1351,817.26,1351,819.4,1351.08,821.54Z"/><path class="cls-84" d="M1350.89,758.09c-18.83,0-37.66-.11-56.49.12-3.59,0-5.48-.91-6-4.43a22.23,22.23,0,0,1,0-18,7.34,7.34,0,0,1,4.11-.88c18.13-.21,36.26.45,54.39-.29,1.34-.06,2.71.75,4.07,1.16Z"/><path class="cls-85" d="M1509.59,783.87l-12.78-14.26-1.38,1.17-.36,2.85c-1.49-2.75-.41-5.75-.82-8.6,2.69-2.27,5.52-4.41,8-6.86,1.89-1.83,4.12-2.58,6.14-1.37s2.17-.5,3-1.28C1510.1,764.92,1511.15,774.48,1509.59,783.87Z"/><path class="cls-86" d="M1678.06,394a5.45,5.45,0,0,1,3.26-1.75c.52,7.15,2.82,8.46,9.55,5.55a10.29,10.29,0,0,1,2.52-.38,1.39,1.39,0,0,1,1.93.14C1689.05,403.57,1682.15,402.15,1678.06,394Z"/><path class="cls-87" d="M1695.32,397.58l-1.93-.14c2.76-1.89,4.9-4.81,8.58-5.18C1700.86,395.41,1698.81,397.39,1695.32,397.58Z"/><path class="cls-88" d="M1719.33,747.7c-16.87,0-33.75,0-50.62,0-2.48,0-3.84-.46-3.45-3.28,1-7.62,2.24-15.22,2.91-22.87.34-3.81,2.17-4.09,5.28-4.08,30,.08,60,0,90,0,7.65,0,7.53,0,8.16,7.73a158.86,158.86,0,0,0,2.13,17.83c.81,4.15-.52,4.75-4.23,4.71-16.73-.17-33.46-.08-50.2-.08Z"/><path class="cls-89" d="M1719.41,712.71c-15.7,0-31.41,0-47.12,0-2,0-2.92-.52-2.61-2.72,1.09-7.89,2.33-15.78,3-23.71.29-3.39,1.66-3.82,4.54-3.81,26.59.09,53.19,0,79.78.06,9.41,0,9.36,0,10.33,9.29.59,5.67,1.1,11.36,2.14,17,.59,3.2-.21,4-3.31,4-15.59-.1-31.17,0-46.76,0Z"/><path class="cls-90" d="M1656.69,814.78a35.42,35.42,0,0,1,1.5-10.38c1-1,1.94-2.17,3.34-2.63,7.43-2.43,12.82-7.88,18.63-12.68a9.1,9.1,0,0,1,6.22-2.26q35.37.09,70.75,0c3,0,4.62.84,4.6,4,0,.56-.24,0,0,.41,3.11,4.87,4.13,9.72,1.07,15.16-.78,1.38.44,3.6,1.06,5.34,1.84,5.18,1.86,5.17-3.82,5.17h-79.74c-6.72,0-13.44,0-20.15,0C1658.49,816.94,1657.07,816.8,1656.69,814.78Z"/><path class="cls-91" d="M1719.26,678.24c-13.88,0-27.76-.09-41.63.06-3.33,0-4.16-.84-3.59-4.17,1.27-7.58,2.27-15.22,3.08-22.86.28-2.66,1-3.78,3.84-3.77,24.6.08,49.21,0,73.82.08,6.6,0,6.66.25,7.6,6.58,1,7.05,1.89,14.12,3,21.16.55,3.45-1.67,2.91-3.63,2.91Z"/><path class="cls-90" d="M1718.41,752.21c17.86,0,35.71-.05,53.57-.14,2.1,0,2.91.61,3.16,2.87.9,8,2,16.07,3.22,24.08.37,2.54-.59,3.18-3,3.17q-40.92-.16-81.84-.16c-1.65-3.65.75-6,3-8q10.17-9.32,19.37-19.55A24.48,24.48,0,0,1,1718.41,752.21Z"/><path class="cls-92" d="M1679.85,629.38c.86-1.7,1.87-2.73,4.15-2.72q35.7.15,71.42,0a4,4,0,0,1,4.13,2.74c.35,3.54.37,7.16,1.14,10.61s-.81,3.87-3.55,3.81c-4.29-.09-8.58,0-12.87,0-20.44,0-40.89-.08-61.33.06-4,0-5.53-.85-4.28-5.15C1679.52,635.72,1679.48,632.5,1679.85,629.38Z"/><path class="cls-93" d="M1718.41,752.21c-3.27,6.27-9.23,10.17-13.58,15.43-3.87,4.69-10.78,7.09-11.31,14.39-9.86,0-19.71,0-29.57.15-2.48,0-3.36-.84-3-3.25,1.12-8,2.29-16,3.24-24.11.26-2.25,1.15-2.8,3.25-2.78C1684.42,752.14,1701.41,752.16,1718.41,752.21Z"/><path class="cls-79" d="M1656.69,814.78c1.12,1.62,2.75,1.7,4.54,1.7q49.79,0,99.57,0c2.58,0,4.75.4,2.4-3.52-1.75-2.9-2.92-6.37-.46-10a6,6,0,0,0-.86-8.21,3.69,3.69,0,0,1-1.39-3.4c.62-3.83-1.62-4.06-4.58-4-22.89.07-45.78,0-68.67,0a6.88,6.88,0,0,0-5.23,2c-7,6.37-14.16,12.81-23.82,15.13.12-4.85,1.09-9.61,1.52-14.42.29-3.21,1.79-3.51,4.43-3.51q47.16.09,94.31,0c5.57,0,11.14,0,16.7,0,1.34,0,2.89-.64,4,.79-2.39,1.94-5.22,1-7.86,1.13-2,.08-2.78.79-1.71,2.58,2.61,4.38,2.62,8.94,1.32,13.67-.73,2.64.29,4.65,2.12,6.57,1.48,1.56,3.84,2.6,3.73,5.31-3.47,1.33-7.06.6-10.6.6q-52.68.06-105.35,0C1659.22,817.15,1656.27,818.59,1656.69,814.78Z"/><path class="cls-90" d="M1776.73,816.57c-1.83-1.75-3.67-3.49-5.48-5.27-1.26-1.23-2.61-2.84-2-4.47,2.37-6.75,1.49-13-2.93-19.52h12.85c1,8,2.69,15.83,2.87,23.89-.09,4.64-.66,5.22-5.28,5.34Z"/><path class="cls-79" d="M1776.72,816.54a5.78,5.78,0,0,0,5.28-5.34c1,1.81,1.58,4.12.19,5.45S1778.54,817.63,1776.72,816.54Z"/><path class="cls-91" d="M1734.63,617.26l-29.06,0c1.76-3.9-1.14-7.38-1-11.19.51-10.81.77-21.63,1.13-32.45a3.35,3.35,0,0,1,2.52-1.35,136.32,136.32,0,0,1,17.27-.07,4.64,4.64,0,0,1,3,1.43c2.79,10.44,5.07,21.05,8.57,31.25C1738.86,610.1,1735.68,613.22,1734.63,617.26Z"/><path class="cls-5" d="M1708.14,498.05c3.18,6.73,4.16,14.1,6.13,21.18,4.36,15.61,8.38,31.31,12.52,47a10.59,10.59,0,0,1,.15,2.12c-1.67,1.76-3.9,1.43-6,1.48-3.25.08-6.51.11-9.76,0-5-.19-5.86-1-6-6,0-1,0-2-.13-3-.46-15.8.67-31.56,1.42-47.32.16-3.28.1-6.55.22-9.82C1706.73,501.68,1706.47,499.6,1708.14,498.05Z"/><path class="cls-92" d="M1745.13,573.59c2.72,0,5.43-.12,8.15-.05,4.69.12,7.06,2.48,7.09,7.23.06,11.86,0,23.73,0,35.6a7.37,7.37,0,0,1-7.48,0,15.33,15.33,0,0,0-3.86-6.57,4.11,4.11,0,0,1-1.41-3C1746.85,595.79,1746,584.69,1745.13,573.59Z"/><path class="cls-65" d="M1679.68,613.77c-1.73-5-.51-10.07-.78-15.11-.29-5.52,0-11.08,0-16.63,0-7.42,4.64-10.38,11.87-7.59,1.34,10.55,2.55,21.12,4.1,31.64.47,3.19-.29,4.08-3.41,3.75C1687,609.35,1682.62,609.49,1679.68,613.77Z"/><path class="cls-94" d="M1708.14,498.05q-1,31.23-1.91,62.47a22.29,22.29,0,0,0,0,8c.34,1.91.15,3.38-1.86,4.14-2.25-3.51-1.59-7.62-1.8-11.35-.61-10.88.09-21.84-.68-32.71-.94-13.34-.34-26.72-1.46-40.05-.12-1.47-.54-3.15,1.15-4.89C1704.75,488.15,1707.6,492.53,1708.14,498.05Z"/><path class="cls-95" d="M1704.36,572.68c2.18-2.11.88-4.8,1.21-7.22.22-1.65-.28-3.39.66-4.94.71,7.85.71,7.85,8.79,7.84l11.92,0c.53,1.78,1,3.56,1.58,5.34h-22.78A1.21,1.21,0,0,0,1704.36,572.68Z"/><path class="cls-96" d="M1159.58,759.85c2.2-.67,2.82-3,4.53-4.24,1.93-1.39,3.88-2.41,6.27-1.4s3,3,2.85,5.51c-.19,3.53-.13,7.08,0,10.62a4.65,4.65,0,0,1-1.71,4.07c-3.36,0-6.85-.59-10.31,2.86,0-4.27,0-7.47,0-10.66,0-1.35.42-3-1.62-3.38C1159.57,762.1,1159.58,761,1159.58,759.85Z"/><path class="cls-97" d="M1595.85,555.54q0,57.94,0,115.89c0,.85-.09,1.7-.14,2.56-1.15.94-2.44.64-3.68.3-5.38-1.45-10.61-3.37-15.9-5.11-1.24-.41-2.44-1-2.17-2.71a36.61,36.61,0,0,0,.49-8.55q0-47.64,0-95.28c0-2.53-.47-5.19,1.31-7.44C1582.47,554.49,1589.18,553.8,1595.85,555.54Z"/><path class="cls-98" d="M1537.4,716.62c.42-5.1-.62-10.12-1-15.17,10.5.57,21,.32,31.5.33,6.14,0,6.73-.7,6.57-7,0-2.23-.86-4.55.56-6.66,1-1.23,2.29-.92,3.52-.61a131.43,131.43,0,0,1,16.2,5c.25.12.73.25.73.38.11,7.52.21,15,.22,22.55,0,1.4-1.25,1.32-2.24,1.32Z"/><path class="cls-99" d="M1599,682.54c.06,1.93-2.06,3.15-1.69,5.18-2.61,1.55-5.12,0-7.37-.69-18-5.67-35.94-11.25-53.86-17-2.41-.78-4.76-2.13-7.43-1-2.55-.69-2.4-3.18-3.25-5s-1.77-3.79-2.59-5.72a4.76,4.76,0,0,1,.28-3.92c1.52-1.33,2.29-.29,2.88,1a4.45,4.45,0,0,0,3,2.84c3.8.82,7.22,2.78,10.9,3.75,15.48,4.08,30.47,9.69,45.69,14.53a74.67,74.67,0,0,0,7.92,1.88C1595.94,678.93,1598.15,679.82,1599,682.54Z"/><path class="cls-100" d="M1599,682.54c-2.79,2-1.51-2.06-3.68-2.42-6.19-1-12.18-3.36-18.21-5.28-9.3-3-18.55-6.06-27.85-9-6.31-2-12.58-4.23-19-5.63-3.73-.82-4.79-3.58-6.59-6a2,2,0,0,1-.37-2.6c1.56-1.3,3.13-.57,4.7-.05a114.07,114.07,0,0,0,15.84,4.87c8.39,3.12,17.09,5.27,25.53,8.21,1.71.6,3.64.82,4.8,2.5a183.32,183.32,0,0,0,21.58,6.85C1600.39,676.05,1601.26,678.31,1599,682.54Z"/><path class="cls-100" d="M1528.67,668.78c-.21-3.1,1.78-1.79,3-1.4,7.59,2.4,15.14,4.91,22.8,7.13,9.27,2.68,18.35,6,27.56,8.94,5,1.58,10.14,2.85,15.21,4.27,1,2.56-1.71,3.22-2.49,4.87-4.43,1-8-2.1-12.09-2.69a48.55,48.55,0,0,1-6.83-2,3.76,3.76,0,0,1-3.29,0c-13.49-4.38-27.16-8.2-40.51-13.05C1530.07,673.35,1528.32,671.64,1528.67,668.78Z"/><path class="cls-101" d="M1595.85,555.54l-20,.06c-3.77,1.83-7.5,2.19-11.14-.34-.38-2.91,1.91-1.4,2.77-1.41,15.46-.12,30.92-.11,46.38-.12,3.09,0,2.33-2.31,2.33-4q.06-26.75,0-53.49c0-2.34-.11-4.63,2.37-5.94.09.55.19,1.1.29,1.64q-.08,29.28-.17,58.56c0,1.69.34,3.43-.42,5.06Z"/><path class="cls-102" d="M1221.13,256.84l5.3,1.62c6.31,2.37,11.91.3,17.26-2.91,1.21-.72,1.14-2.29,1.13-3.51,0-3.25,1.92-3.27,3.93-2.24,1.41.74,2.9,1.07,4.32,1.68a19.85,19.85,0,0,1,8.85,9c6.95,13.07,13.76,26.22,20.6,39.35.66,1.26,1.21,2.58,1.76,3.89,1.37,3.29.35,5.49-3,6.67-2.93,1-6.08,1.46-8.73,3.25-3.69,2.92-4.56,2.8-7.4-1-.51-1.72-.07-3.37.31-5.05,1.27-5.58.56-6.46-5.3-6.56-3.27-.06-6.55,0-9.83,0-16.1,0-32.19,0-48.29,0-6,0-6.38.52-5.37,6.41a44.42,44.42,0,0,1,.79,5.5c-1.14,4.73-2.09,5.13-7.31,3.21-1.51-.55-2.88-1.24-3.5-2.86-1.41-1.37-3.36-1.41-5.07-2-4.32-1.58-5.4-3.71-3.29-7.89,5.39-10.68,11-21.25,16.51-31.86a80.35,80.35,0,0,0,4-7.55,24.79,24.79,0,0,1,15.76-15.14c1.42-.5,2.44.24,2.33,1.49C1216.54,253.72,1218.92,255.18,1221.13,256.84Z"/><path class="cls-103" d="M1266,313.45c2.16,1.77,4.38.79,6.59.16,7.9,2.52,11.75,6.79,11.91,13.23S1280.33,339,1273,341.7c-4.55,1.66-9.14,3.2-13.7,4.83-.23.08-.35.43-.69.85,2.83,1.43,5.57,2.94,8.41,4.2,1.66.73,2.22,1.61,1.37,3.24-.64,3.47-1,7.08-4.38,9.21-1.5,4.78-2,5.12-7,3.42-8-2.77-16-5.69-24-8.55a13.93,13.93,0,0,0-9.94.28c-8.81,3.18-17.81,5.86-26.74,8.75-3.09,1-2.32-2.1-3.41-3.22-2.74-2.81-3.84-6.32-4.4-10.08-.78-1.75-1-3.06,1.42-3.89s4.79-2.32,8-3.93c-5.63-2.09-10.52-3.76-15.29-5.71-9-3.68-12.66-13.11-8.16-20.92,2.66-4.61,7.17-6.23,12.15-6.9a34.41,34.41,0,0,1,6,2.15c3,1.55,3.16-.24,4-1.91,2.13.47,1.79,2.35,2,3.77.82,4.93,1.26,9.92,2.26,14.84.56,2.73,1.91,3.88,4.65,3.88q25.76,0,51.5,0c2.56,0,4-1,4.32-3.64.46-3.25,1.17-6.46,1.61-9.73S1263.55,316.06,1266,313.45Z"/><path class="cls-40" d="M1128.57,347.73c.21,2.42-.65,3.54-3.32,3.45-4.62-.16-9.25,0-13.88,0-5.93-1.28-11.77-2.67-15.72-8a5.92,5.92,0,0,1,3.07-9.42,15.84,15.84,0,0,1,12.38,1.4,99.89,99.89,0,0,1,10.56,6.15c3.39,2.32,3.5.45,3.38-2.19-.67-3,3.42-2.68,3.63-5.09l0,0a9.35,9.35,0,0,0,3.36-3.48c3.83-3.33,7.44-6.93,12.15-9.14s7.67-1.79,10.49,1.84.63,6.62-1.65,9.46c-3.76,4.68-9.08,7.1-14.25,9.72-1.35,1.58-3.57.68-5.09,1.78l-.81.08c-.84.9-2,.72-3,.86-1.61.21-2.08,1.08-1.29,2.54Z"/><path class="cls-104" d="M1111.43,325.39c-5.75-2.12-11.24-4.7-15.62-9.12-2.28-2.29-4.38-5-2.53-8.31,1.71-3,4.53-4.26,8.34-3.43,7.1,1.53,12.39,5.74,17.31,10.66,1.09,1.09,1.82,2.59,3.78,3.14,1.26-3.87.5-7.85.85-11.73,1.59-1,1.73.14,2.13,1.3.67,2,1.77,1.32,2.81.24a48.54,48.54,0,0,1,16.36-8.24c4.47-1.36,7.13.07,8.57,3.8,1.15,2.94-.63,6.29-3.73,8.55-6.22,4.53-13.34,5.8-20.58,5.22-4-.32-4.26,1.12-4.09,4,.08,1.27.06,2.55.08,3.84A22.42,22.42,0,0,1,1111.43,325.39Z"/><path class="cls-105" d="M1188.49,354.63c2.33,3,3.13,6.63,4.4,10.08l-4.19.48c-2.16.57-4.28.58-5.58-1.53s.68-3.67,1.66-5.31c.63-1.06,2.23-1.42,2.21-3A1.41,1.41,0,0,1,1188.49,354.63Z"/><path class="cls-106" d="M1111.43,325.39l13.68,0c.37,2.38.17,4.79.49,7.2.36,2.7,1.54,2.07,3.07,1.53,1.06,3.32-2.73,3.17-3.63,5.09-1.62-1.53-1.67-3.53-1.72-5.55-.18-6.47-.2-6.37-6.8-6.61C1114.78,327,1112.35,328.27,1111.43,325.39Z"/><path class="cls-107" d="M1128.5,308.14c.17,2.14-1.85,2-2.64,3-1.64-1.35.49-4.08-2.3-4.53a11.16,11.16,0,0,1,0-2.94c.78-3.07-.47-4.26-3.44-4.07-1.31-1-4.26-.1-3.73-3.22,4.23-2.24,6.78,1.26,9.88,2.88a1.07,1.07,0,0,1,.81.52,37.42,37.42,0,0,1-.49,6.29C1126,308.17,1127.11,308.15,1128.5,308.14Z"/><path class="cls-107" d="M1128.54,285.86c.64,2.81,4.15,1.27,5.21,3.45-4.22-.33-4.21,3.28-5,5.79-.51,1.57-.5,3.32-1.66,4.67l-.27-.2c-1.47-2.64-1.7-5.57-2.09-8.47a22.58,22.58,0,0,0,1.23-3.58C1126.25,286.3,1126.76,285,1128.54,285.86Z"/><path class="cls-108" d="M1221.13,256.84c-3.38,0-4.91-1.8-4.89-5,0-1.4-.16-2.56-1.7-3a16.67,16.67,0,0,1,6.54-1.58C1216.33,250.45,1219.09,253.64,1221.13,256.84Z"/><path class="cls-107" d="M1135.45,289.32a65.71,65.71,0,0,1,17-3.54c-2.67,2.89-6.54,2.6-9.9,3.48C1140.35,289.84,1137.84,289.34,1135.45,289.32Z"/><path class="cls-79" d="M1151,255.06c-2.6-1-4,2.35-6.51,1.82-1-1.74,1.74-2.15,1.21-3.66a2.16,2.16,0,0,1,1.76-1.81c1.9,3.7,5.35,1,7.92,1.92Z"/><path class="cls-79" d="M1163.85,262.42c1.61-2.34.76-4.88.59-7.36,1.87,1.39,2.81,6.58,1.35,8C1165,263.85,1164.24,263.4,1163.85,262.42Z"/><path class="cls-76" d="M1128.57,347.72c-1.13-3.59-1.09-3.63,4.33-3.4C1132.75,347.1,1128.66,344.87,1128.57,347.72Z"/><path class="cls-106" d="M1132.06,330.58c.3,2.53-.74,3.77-3.36,3.48A4,4,0,0,1,1132.06,330.58Z"/><path class="cls-76" d="M1133.71,344.24c1.35-1.58,3.16-1.85,5.09-1.78C1138,345.67,1135.47,343.81,1133.71,344.24Z"/><path class="cls-79" d="M1156,249.79a6.14,6.14,0,0,1,5.22-1.61C1160.2,251.22,1157.7,249.29,1156,249.79Z"/><path class="cls-59" d="M1116.51,296.28c.19,2.19,2.7,1.86,3.58,3.31-3.13.6-5.5-.53-7.46-3-.67-.84-1.41-2-2.66-2-2.09,0-1.94-1.12-2.55-2.72-1-2.54-3.34-4.51-5-6.84-2.26-3.24-1.75-6.64-.35-10.07,1.28-3.1,3.39-4.9,6.88-4.5,2.4.28,4.62,1,5.91,3.36l-.39.45c-1.4.8-2.77.32-4.14-.09a4.42,4.42,0,0,0-5,1.6c-1.47,1.72-1.43,3.57-.57,5.59,1.7,4,4.73,7.07,7.46,10.33,1,1.69,2.85,2.51,4,4Z"/><path class="cls-59" d="M1128.54,285.86c-1.53.2-1.59,1.35-1.66,2.52s0,2.37-1.56,2.56c-2.42-3.59-6.34-6.42-5.75-11.51l.47-.44c1.35.07,2.57-.08,3.22-1.53.39-.88-.24-2.68,1.71-2.26,1.75.38,1.91,1.82,1.92,3.36,0,1.73-.66,4,2.41,3.9C1129.05,283.59,1128.8,284.73,1128.54,285.86Z"/><path class="cls-59" d="M1103.42,266.73c2.93-2.93,6.56-2.54,9.94-3a2.59,2.59,0,0,1,2.68,2.7c-.21,1.65-1.76,1.14-3.09,1C1109.79,267.05,1106.6,267,1103.42,266.73Z"/><path class="cls-59" d="M1120.08,265.2a9.71,9.71,0,0,1,5,5.26,10.25,10.25,0,0,0-1.93.78c-1.54,1-3.14,1.56-4.62.13-1.78-1.73.16-2.56,1-3.74A6.34,6.34,0,0,0,1120.08,265.2Z"/><path class="cls-59" d="M1128.59,273.91c2.78-.21,4.55.27,2.29,3.42-.74,1,0,2.67-1.39,3.44C1127.7,278.68,1129,276.19,1128.59,273.91Z"/><path class="cls-59" d="M1114.9,273.83c3.65-.21,5.37,1.5,5.14,5.16l-.23.23c-3.27-.18-5.06-1.82-5.1-5.19Z"/><path class="cls-90" d="M1340.74,555.25l7.53.35c1.45,1.31,1.27,3,1,4.67-1.3,5.79-.53,11.67-.54,17.5,0,3.67-1.18,6.19-4.31,8.17a101.2,101.2,0,0,0-12.32,8.53c-4.2,3.62-4.52,5.35-1.45,9.79A11.47,11.47,0,0,1,1332,615.6c-2,5.38-1.53,7.48,3.64,10.24,7.32,3.91,10.8,10.2,13.06,17.7,3.11,10.25,8,13,18.42,10.64,2.23-.5,4.42-1.41,6.57.21a13.75,13.75,0,0,0,7.81,4.06c3.48.5,5.4,2.7,5.83,6.37.67,5.74,2.55,8,8,6.86,9.63-2.07,16.85,2.23,24.33,6.82,8.19,5,14.76,3.55,19.69-4.49,3.84-6.25,9-10.71,16-12.79A36.63,36.63,0,0,0,1468,655a5.24,5.24,0,0,1,3.2-1.06c6.41.56,12.14,3.45,18.17,5.32,3,1.08,3.67,3.21,2.8,6.1a24,24,0,0,1-1,3.7,15.65,15.65,0,0,0-1.21,11.71c-1.66,7.38-.26,14.88-.87,22.29-1.58,1.6-3.64,1.52-5.62,1.52-52.54-.09-105.07.33-157.61-.25-2,0-4,0-5.42-1.89-1-1.86-.75-3.9-.75-5.88q0-137.25,0-274.49c0-2-.33-4,.91-5.83,5.78-2.5,11.74-1.39,17.65-.83a2.23,2.23,0,0,1,2,2.45c0,1.14,0,2.28,0,3.43q0,64.68,0,129.36C1340.24,552.21,1339.72,553.83,1340.74,555.25Z"/><path class="cls-109" d="M1489.94,680.81c-2.8-2.79-2.89-5.68-1-9.19,1.23-2.3,1.31-5.18,2.24-7.68.77-2.07-.39-2.77-1.77-3.56,2.26-4.88.9-9.77-.08-14.62-.49-2.46-2.09-2.84-4.11-1.42a45.3,45.3,0,0,0-4.34,3.45c-4.11,3.75-8.68,6.36-14.45,6.3-7.25-1.72-14.42-3.77-21.78-5-2.13-.84-4.58-.84-6.42-2.45-1.41-2.75-.85-5.45.25-8.14,4.22-1.65,8.41,0,12.58.33a40,40,0,0,1,9.61,1.9c5.57,1.87,9.73.53,12.75-4.46,4.41-4.51,8.94-8.89,13.33-13.41.91-.85,1.5-2,2.46-2.8.81-.47,1.61-.78,2.28.23.89,4.92,3.14,9.41,4.52,14.18.64,2.22,2.08,3.37,4.44,4,6.31,1.76,12.54,2.41,18.87.27a4.85,4.85,0,0,1,4.13.39c1.88,3,1.64,5.6-.79,8.4-3.25,3.74-.58,7.34.94,10.88,3.06,2.76,2.82,7.15,5.08,10.31l3.43,5.25a5.09,5.09,0,0,1,.13,6.52c-10.06,5.44-20.93,3.53-31.61,3.61C1496.56,684.19,1493.71,681.22,1489.94,680.81Z"/><path class="cls-110" d="M1321,702.22c1.37,1,3,.9,4.54.9l163.53,0c.35,4.57,1.28,9.11.82,13.72l-152.62-.09c1.76-4,5.24-4.23,8.89-4,3.34.21,6.72,1.07,10.2-.77-1.33-2-3.17-1.62-4.71-1.53a23.32,23.32,0,0,1-12.77-2.53c-3.49-1.81-7.77-1.57-11.76-1.8a41.74,41.74,0,0,1-5.12-.42c-1.36-.26-2.6-.67-1.92-2.51A2.06,2.06,0,0,1,1321,702.22Z"/><path class="cls-111" d="M1532.23,680.55q-.06-3.27-.13-6.52l43.77,13.9c-1,3.51.3,7,.09,10.53-.2,3.37-1.31,4.82-4.9,4.75-9.69-.19-19.39-.12-29.09,0a8,8,0,0,1-5.53-1.72C1535.19,694.45,1534.64,687.31,1532.23,680.55Z"/><path class="cls-112" d="M1522.05,751.27c-1-5.43-1.27-11-3.09-16.24-2.45-7-4-14.18-3.37-21.67.11-1.31.17-1.3-.13-1.44-1.6-.94-1-2.25-.6-3.51,0-.86,0-1.72.08-2.57.23-2.41,2-4.46,3.81-4.62,2.33-.22,1.81,2.8,2,4.29,1.1,8.13,1.33,16.41,2.94,24.42,1.08,5.37.83,10.8,2,16.09C1526.34,749.12,1524.6,750.45,1522.05,751.27Z"/><path class="cls-113" d="M1515.68,712c.19-.38.33-1.43.8-.7s.17,1.92.16,2.91a53.83,53.83,0,0,0,3.26,19.62c.1.26-.6.82-.93,1.25h-6.44c.88-6.09.62-12.24.7-18.37C1515.56,715.87,1514.37,713.26,1515.68,712Z"/><path class="cls-114" d="M1515.68,712c-.87,1.54,2.49,5.28-2.45,4.71,1.38-2.59-.09-5.74,1.63-8.25C1515.07,709.6,1514.7,710.93,1515.68,712Z"/><path class="cls-115" d="M1264,364l4.38-9.21,1.11,1.51c1.32,1.78,2.61,3.57,4,5.32.73,1,1.35,1.94.63,3.09-1.49,2.39-4,1.75-6.16,1.83C1266,366.64,1264,366.8,1264,364Z"/><path class="cls-116" d="M1253.07,251.48c-3.56-.27-7-2.39-8.42,4.14-1,4.66-14.86,6.07-18.22,2.84,4.42-.62,9,.58,13.29-1.83,4.78-2.7,5.36-4.48,2.19-9.31C1245.93,247.91,1249.82,248.85,1253.07,251.48Z"/><path class="cls-117" d="M1020.34,416.42q.07,45.07.14,90.15c-1,6.25-6.19,9.06-10.45,12.62-8.15,2.63-16.28,5.4-25.07,4.57a11.25,11.25,0,0,1-3.37-.44c-2.38-1-3.5-2.67-1.09-4.84,1.8-1.61,3.89-2.91,5.61-4.61,6.71-6.64,8.45-15.24,9.29-24.17.07-.71.15-1.42.23-2.13,2.3-7.57.84-12.47-5.08-15.46,3.49-.51,4.45-2.83,4.63-5.45.27-3.79,1.84-7.26,3.23-10.55,1.64-3.88-.23-4.54-2.85-5.82-11.24-5.46-22.41-11.06-33.6-16.6-8.84-4-17.22-8.82-25.74-13.4-1.62-.87-3.38-1.48-5.07-2.22l-1.87-1.57c.07-.57.59-.66,1-.9l25.8,12.8q12.45,6.39,24.91,12.77c1.38.7,2.83,1.23,4.25,1.85,6.53,3.58,12.77,7.85,20.5,8.59,3.2.3,4.27-1.33,4.42-4.26.33-6.36.93-12.59,5.65-17.65,2.11-2.26,1.13-5.46,1.17-8.26C1017,418.93,1017.4,416.87,1020.34,416.42Z"/><path class="cls-118" d="M946.35,497.73c-1.56.89-3.1,1.85-4.7,2.67A8.08,8.08,0,0,1,930,495.57a3.87,3.87,0,0,1,.84-4.32c5.51-4.75,12.4-5.81,19.28-6.67.77-.1,1.67.92,2.51,1.42C953.56,491.52,948.66,493.93,946.35,497.73Z"/><path class="cls-119" d="M1368.51,351.15c-18.16,0-36.32-.08-54.48.06-3.35,0-4.4-.92-4.38-4.36q.21-37.74,0-75.5c0-3.78.89-5.3,5-5.29q53.83.24,107.67.05c3.81,0,5.16.85,5.13,4.93q-.27,37.54,0,75.08c0,4.27-1.38,5.16-5.37,5.12C1404.26,351,1386.39,351.15,1368.51,351.15Z"/><path class="cls-120" d="M930.25,415.6l-1,.9c-6.09-3.29-12.64-5.79-17.95-10.42l5.18,1.86C920.66,411.27,925.7,413,930.25,415.6Z"/><path class="cls-121" d="M1492,352.84c-13.59,0-27.18-.08-40.76.06-3.11,0-4.27-.76-4.24-4.06q.2-28.75,0-57.5c0-3.67,1.4-4.61,4.83-4.6,27.18.1,54.35,0,81.53.05,4.39,0,6,2,5.47,6.45-1.14,8.81-.65,17.59-.14,26.44.56,9.84.26,19.73.15,29.6,0,3.3-2.57,3.59-5.22,3.58C1519.77,352.82,1505.9,352.84,1492,352.84Z"/><path class="cls-122" d="M930.37,428.41c1.11,6-2.15,10-6.37,13.6-3.88,3-7.67,6.19-11.68,9a11.6,11.6,0,0,1-17.87-6.88c-.77-3.1,1.39-7.09,4.88-8.66a22.76,22.76,0,0,1,8.28-2c6-.33,11.4-2.09,15.51-7C925.51,423.67,927.72,424.4,930.37,428.41Z"/><path class="cls-5" d="M1288.16,799.31c-5.32-.52-10.71-.59-16-.68-13.92-.23-27.74-1.83-41.65-2-3.34,0-6.62-1.41-10-.85-4-9.3-5.17-19.36-7.71-29-1.81-6.87-3.46-13.77-5.19-20.66,2.44-3.53,0-7.46.92-11.12q37.5,0,75,.08c1.64,0,3.45-.63,4.91.73q0,9,0,18-.06,20.43-.12,40.86C1288.31,796.19,1288.21,797.75,1288.16,799.31Z"/><path class="cls-123" d="M1230.41,237.92c-1.46,0-2.9-.06-3.91-1.29-.6-.73-1.73-1.36-1.15-2.51.46-.89,1.51-.6,2.33-.63,1.42-.06,2.86-.1,4.28,0s3.16-.44,3.08,1.86c-.07,1.76-1.33,2.38-2.91,2.5C1231.56,237.87,1231,237.89,1230.41,237.92Z"/><path class="cls-124" d="M960.39,384.63c2.63-.18,5.68.74,7-2.73a76.23,76.23,0,0,1,8.05,21.78c.74,3.76.52,7.72-2.41,10.81-3.8,4-7.18,3.4-9.2-1.53C963.91,403.37,963.91,393.78,960.39,384.63Z"/><path class="cls-125" d="M1154.47,685.9q-.59,8.64-1.18,17.28-41.18,0-82.35-.08a24.1,24.1,0,0,1-6.77-.8q0-139.71,0-279.41c0-2.14.07-4.29.11-6.43,2-2,4.51-1.53,6.88-1.54q30.9-.07,61.78,0,88.61,0,177.2,0c2.82,0,5.76-.52,8.35,1.2,1.3,1.59,1.06,3.51,1.06,5.35q0,138.16,0,276.33c0,5.81-.91,6.8-6.71,6.81q-51.49.12-103,0c-2,0-4,.06-5.64-1.51-2-6.67-2.71-13.74-6.32-19.9a46.19,46.19,0,0,1-10-22.88,4.68,4.68,0,0,1,.81-3.21,3.32,3.32,0,0,1,.93-.86c2.31-.95,4.14-.19,5.7,1.61a20,20,0,0,1,3.17,4c3.79,7.8,10.88,11.66,18,15.79,8.22,4.8,17.06,8.67,24.16,15.27.61.57,1.39,1.56,2.15,1,2.31-1.79,4.57-.31,7.38.22-1.42-2.68-3-4.43-5.32-4.81-9-1.47-14.89-8.14-21.91-12.88-3.29-2.23-6.33-4.87-9.55-7.23-4.91-3.6-7.36-9-10.44-14-1.27-2-.3-4.15.7-6.11,1.22-2.17,2.13-4.51,1.66-7a31.8,31.8,0,0,1,.69-14,11.83,11.83,0,0,0-1.84-9.81c-3.06-4.54-3.94-9.12-.23-13.84,1.7-2.17,1-4.3-.61-6.25a28.93,28.93,0,0,1-4.21-6.44c-.95-2.13-1.64-4.28-.88-6.63,1-2.34,3.16-2.7,5.36-2.81,2.85-.14,5.71-.06,8.57-.06q43.72,0,87.45,0c2.11,0,4.27.26,6.58-.81-1.16-2-3-1.53-4.5-1.54-22,0-44,.21-66,.06-14.81-.09-29.64.24-44.42-1.05-4.35-.53-8.77,0-13.09-1.4-3.36-1.08-6.3,1-9.3,2.36-2,.91-4.07,3.07-6.61.91-2.21-4.71-1.51-9.75-1.63-14.69-.07-2.84,0-5.69,0-8.53,0-3.52-1.69-5.1-5.26-5.11-7,0-13.93.23-20.89-.28-1.54-.12-3.15.13-4.48-1-1.73-3.53-1.36-7.13-.42-10.76,1.32-2,3.46-1.74,5.41-1.76,6.57-.09,13.15,0,19.72,0,5.58,0,6-.48,6.06-6.2,0-8,0-16,0-24,0-2.66-.61-5.46,1.15-7.89a1,1,0,0,0,.16-1.17c-3.05-5.33-1.46-11.19-1.72-16.81-.14-2.92-1.07-6.46,2.58-8.41.1-.05-.68-.76-.93-1.26s-.49-1.38,0-1.55c5-1.65,7.72-6.49,12.32-8.85,3.25-1.66,5.8-2,8.51.42,1.85,1.66,3.26,1.9,5.42,0,3.49-3,6-2.59,8.67.75,2.37,3,2.08,3.88-1.84,5.81-4-.23-8,.44-12,.6-3.6.15-7.54-.32-8.22,4.36,2-2.22,5.22-2.28,8.25-1.91a55.13,55.13,0,0,0,14.06.06c4.77-.62,9.69-.14,14.55-.14H1286c4.86,0,9.71,0,14.57,0,1.9,0,3.93.38,6-1.08-2.09-1.8-4.28-1.28-6.27-1.29q-46.72,0-93.45,0c-2.27,0-4.58.22-6.81-.49-2.54-1.6-1.28-4.82-2.95-7-.68-.89,1.62-1.41,2.87-1.55a85.35,85.35,0,0,1,13.28-.11c24.31,1,48.62.19,72.94.46,5.86.06,11.73.22,17.59-.23,1.17-.09,3,.2,2.9-1.66-.06-1.42-1.67-1.28-2.76-1.42a28.06,28.06,0,0,0-3.43-.08q-39.71,0-79.4,0c-2.72,0-5.44.56-8.14.18-3.06-.44-3.49-1.88-1.61-4.26a11.37,11.37,0,0,1,10-4.61c4,.12,8.15.83,12.4-.73-1.4-2-3.21-1.65-4.81-1.7-4.87-.12-9.75.28-14.59-.19-4.52-.44-5.71-3.06-3.43-7.07-.84,1-1.81,2-1.5,3.29.87,3.66-1.59,3.73-4,3.78-3.71.09-7.42.2-9.67-3.77a4.56,4.56,0,0,0-2.94-2.38c1.8,1,4.56,2.57,4.12,4.56-.55,2.54-3.86,1.44-6,1.81-3.93.68-7.8-2-11.76-.16-1,.49-3-.09-2.84,1.71.13,1.32,1.78,1.09,2.89,1.11,2,0,4.1-.29,5.64,1.37.91,1,1,0,1.44-.38,2.1-1.6,3.75,0,5.72.47,1,.27,2.68-3,5-2.28,3.94,1.32,7.33,3.76,10.73,6.09,1.17.8.89,2-.44,2.71a7.38,7.38,0,0,1-5.38,1c-3.72-1-7.38-.62-11,0-4.6.76-9.13,0-13.6-.76a9.94,9.94,0,0,0-9.34,3,22.43,22.43,0,0,1-2.19,2.06c-2.8,2.12-4.52,1.46-4.79-2.07-.32-4.13-.06-8.29-.12-12.44-.06-4.58-.26-4.88-4.9-4.89q-31.54,0-63.09,0c-5,0-5.84.82-5.87,6.14-.09,17.16,0,34.33,0,51.51,0,3.13.77,6.34-1.13,9.24-3.22,1.72-6.71.74-10.08.92-2.27.12-3.42.95-3.42,3.32,0,16.83-.06,33.65,0,50.48a3.55,3.55,0,0,0,.51,1.6c1.71,1.86,4,1.08,6,1.26,2.48.23,5.16-.52,7.27,1.53,1.26,2.25.93,4.73.93,7.14q0,31.74,0,63.47c0,7.43.17,7.6,7.75,7.61,14.44,0,28.88,0,43.32,0,2.7,0,5.46-.18,7.88,1.42,3.76,3.2,8.47,5,12.33,8.05a35.72,35.72,0,0,1-.86,18.19C1156.46,678.81,1155.24,682.28,1154.47,685.9Z"/><path class="cls-3" d="M1318.3,416.56q-48.91-.06-97.83-.11-78.1,0-156.2,0c-1.75-5-.82-10.1-.53-15.15a16.6,16.6,0,0,0,.09-4.62c-.89-4.1-.06-5.25,4.23-5.14,6.55.16,13.13-.76,19.65.6.4.08.94-.48,1.42-.75,4.91-1,9.87-.29,14.79-.44,76.06-2.19,152.13-.32,228.19-.95,6-.05,6.06-.26,6.22-6.4.08-2.8-.68-5.77,1.35-8.27l.89,0q.06,87.84.11,175.68c0,1.43,0,2.86.06,4.29-1.77-1.31-.86-3.18-.86-4.75q-.09-64.45,0-128.91c0-4.09-1-5.57-5.18-5.23-4.54.36-9.13.09-13.7.1a2.43,2.43,0,0,1-1.65.59A3.32,3.32,0,0,1,1318.3,416.56Z"/><path class="cls-126" d="M1339.68,375.34c0,4.29,0,8.57.13,12.86.07,2.32-.68,3.54-3.16,3.32-.85-.08-1.71,0-2.57,0q-118.3,0-236.61-.09c-2.78,0-5.58,1.34-8.34,0,4-1.56,7.74-3,12.45-1.1,3.21,1.29,7.33.3,11.05.31.71,0,1.68,0,1.85-.75.86-3.8,3.39-3.07,6.19-2.73,4.69.56,5.32-.22,5.34-5.15,0-5.92,0-5.92,5.87-5.92q67.95,0,135.91-.05c1.66,0,3.44.55,5-.64,4-.2,7.92-.56,11.75,1.15a6.31,6.31,0,0,0,4.18.34c9.31-3.22,18.89-1.14,28.33-1.55C1324.56,375,1332.12,375.31,1339.68,375.34Z"/><path class="cls-127" d="M1318.3,416.56a3.3,3.3,0,0,1,.77-.07c1.6,1.86.94,4.11.94,6.19q.06,137.07.06,274.16c0,2.09-.57,4.31.8,6.25-.19.77-.71,1.34.86,1.55,3.79.5,7.61.26,11.43.77a27.93,27.93,0,0,1,10.33,3.33c3.07,1.72,6.67,0,10,.38,2,.22,4.51-.16,4.45,2.59,0,2.6-2.45,2.71-4.55,2.6-2.82-.15-5.62.08-8.48-.59s-5.29,1.52-7.68,3c-17.16,0-34.32.15-51.48.14q-39.9,0-79.79-.15-.88-6.79-1.78-13.6,54.69,0,109.39.06c3.27,0,4.82-.45,4.81-4.33Q1318.24,557.7,1318.3,416.56Z"/><path class="cls-128" d="M1154.47,685.9a8.44,8.44,0,0,1,.58-7.65c3.47-6.67,2.68-14,2.78-21.17,1.1-1.71,2.91-1.68,4.59-1.71q11.14-.18,22.27,0c1.69,0,3.48,0,4.65,1.64-1.09,7.24,2.27,13.26,5.47,19.27a35.71,35.71,0,0,1,3.1,7c-1.43,3.82-4.26,5.7-8.23,6.4-11.53,2-22.79,1.92-33.55-3.45A5.55,5.55,0,0,0,1154.47,685.9Z"/><path class="cls-101" d="M1618.79,392.43q0,43.27,0,86.56a3.47,3.47,0,0,1-2.51.92c-1.49-1.92-2.43-3.78-.58-6.14.6-.77.56-2.17.56-3.28q0-34.5,0-69c0-2.36-1.17-4.61-.16-7.12C1616.7,392.88,1617.29,392.26,1618.79,392.43Z"/><path class="cls-90" d="M1592.2,538.38c-6.5,0-13-.12-19.48-.12l-201.66,0c-7.3,0-8-.72-8-8.14q0-65.64,0-131.3c0-6.64.83-7.54,7.31-7.54q95.22-.06,190.45-.09c3.28,0,6.56-.33,9.84-.5,6.82.89,13.68.26,20.52.37,3.8.06,4.84,1.16,5.36,5,.61,4.43,0,8.81,0,13.21V526.38c0,2.15.13,4.28.33,6.42C1597.17,536.41,1595.87,537.82,1592.2,538.38Z"/><path class="cls-90" d="M1564.73,555.26l11.14.34c0,34.9.05,69.79-.1,104.69,0,2.22,1.78,5.3-1.66,6.85l-30.56-9.55c-.68-1.56.78-1.52,1.5-1.94,3.91-2.25,4.4-3.47,2.44-7.52-2.43-5-5.41-9.69-8.2-14.49-1.44-2.46-2.9-4.91-4.17-7.46-.8-1.61-1.78-3.38,0-5.1,5.2-1.48,10.51-.5,15.77-.7,5.5-.21,5.7-.29,5.71-5.93q0-26.61,0-53.22c0-2-.32-4.06,1.37-5.64Z"/><path class="cls-129" d="M1369,555.61q33.15-.08,66.3-.15c14.55,0,29.09.09,43.63.13,4.16,1.87,8.89,1.81,13,4.18a31.45,31.45,0,0,1,9,7.17,7.1,7.1,0,0,0,6.33,2.78,65.16,65.16,0,0,1,8.15.07c2.87.25,5.33,1.18,5.8,4.55-1.24,1.22-2.63.72-4,.31-4-1.22-8.18-1-12.24-.55a13.34,13.34,0,0,0-10.59,7,16.81,16.81,0,0,1-2.58,3.88,16.86,16.86,0,0,0-1.57,2c-2,2.9-3.45,3.13-5.61.41-4.49-5.64-10.17-9.87-15.8-14.21a34,34,0,0,0-12.66-5.92c-4.58-1.15-8.69.44-12.36,3.21a45.4,45.4,0,0,1-3.57,3c-6.78,2.45-13.91,3.16-21,3.63-4.69.32-8.61-2.51-11.45-5.92-7-8.34-12.16-6.58-19.34-3-6.65,3.33-13,6.4-20.66,5.73-2.5-.22-4.48,1.87-7,1.64a1.87,1.87,0,0,1-1-.94C1360.77,567.33,1362.35,560.26,1369,555.61Z"/><path class="cls-130" d="M1520.87,574.52a6.28,6.28,0,0,0-6.59-3.6c-1,.1-2,0-3,0-5,.11-9.57.57-13.17-4.86-3.87-5.81-11.16-7-17.56-8.87-.94-.28-1.54-.64-1.68-1.62l76.39-.05c1.38,1.34,1.3,3.08,1.3,4.8,0,18.13,0,36.26,0,54.39,0,5-1.07,6-6.08,6-5.57,0-11.13,0-16.7,0a3.35,3.35,0,0,1-2-1.26c-1.18-1.94-.92-4.11-1-6.23-.15-5.68.48-11.41-.34-17.05-1-7.23-2.79-14.26-8.69-19.38A2.47,2.47,0,0,1,1520.87,574.52Z"/><path class="cls-101" d="M1592.2,538.38c2.76-1.09,3.6-3.1,3.6-6.06q-.12-67.4-.07-134.77c0-5.16-1.19-6.19-6.32-6.37-6.25-.22-12.54.65-18.76-.51,5.72,0,11.44,0,17.17,0a12.82,12.82,0,0,0,3.4-.23c3.86-1.14,6,.37,6.12,4.54.05,1.85-.22,3.67,1.72,4.95a1.81,1.81,0,0,1,.09,3c-2,1.77-1.8,4-1.8,6.33,0,39.19.05,78.39-.08,117.59,0,3.55,2.75,7.25-.18,10.62C1595.88,538.82,1594.58,542,1592.2,538.38Z"/><path class="cls-131" d="M1369,555.61c-4.5,5.49-6.81,12-8.57,18.74-1.8,3-5.09,4-8,5.42a2.14,2.14,0,0,1-3.18-1.18c-.35-7.69-1.28-15.41,1-23Z"/><path class="cls-132" d="M1533.16,619.77c6,0,12-.13,18,0,3.15.08,4.23-1,4.21-4.23-.13-20-.09-40-.11-60l2.68.05-.06,59.66c0,5.85-.58,6.28-6.32,6.51s-11.35-1-16.93.72C1532.86,622.28,1532.33,621.39,1533.16,619.77Z"/><path class="cls-133" d="M1350.18,555.59q0,11.94,0,23.88c1.48,1.83,1.29,4,1.3,6.16,0,8.57,0,17.15,0,25.72,0,7,.1,7,7.27,7.08,7.86,0,15.72-.07,23.58,0,3.71.35,7.5-.53,11.16.64,1.39.9,3,1.69,1.71,3.8-4.52,1.71-9.16.85-13.78.64-8.55-.95-17.13-.3-25.69-.46-7.77-.15-8.85-1.18-8.89-9,0-8.28-.65-16.63.17-24.83,1-9.53.48-19.05,1.16-28.55,0-1.69,0-3.37,0-5.06Z"/><path class="cls-101" d="M1612.48,496.6a1.64,1.64,0,0,1-1.64,2c-1.38.13-2.1-.75-2.25-2s.09-2.49,1.52-2.59C1611.76,493.92,1611.9,495.56,1612.48,496.6Z"/><path class="cls-90" d="M1764.73,799.89a10.43,10.43,0,0,0-1.59-6.81,6.29,6.29,0,0,1-.91-4.07c.06-.77.34-1.42,1.19-1.5.63-.07,1,.35,1.26.93,2.08,5.07,6.45,9.54,3,15.89a5.91,5.91,0,0,0,2.06,8.18c1,.69,2.79,2,1.3,3.42s-2.77,0-4-1.13c-3.11-2.79-4.48-5.95-3.16-10.19C1764.35,803,1765.2,801.4,1764.73,799.89Z"/><path class="cls-134" d="M1533.16,619.77c.25,1,.4,2.13,1.48,2.71,4.37,7.83,8.79,15.63,13.1,23.48,3.85,7,3.06,9.07-4.19,11.62a87.15,87.15,0,0,1-15.53-4.79c1.12-2.23,3.53-2.09,5.4-2.89s2.33-2,.83-3.49c-1.89-1.9-3.3-4.22-5.41-6.28-3.44,3.16-2,8.37-5.2,11.36l0,2.72c0,1.42,0,2.84,0,4.26-3.31-1-2.8-4.13-3.49-6.54s-1-4.57,2.45-5.94c2.12-.84.63-4.1,1-6.24,3.89-3.27,3-8.78,5.87-12.63.56-.76-.26-2.73-.13-4.15.1-1.13.59-3.16,1.16-2.88,1.84.87,1-1.12,1.71-1.23Z"/><path class="cls-135" d="M1523.64,651.49a62.2,62.2,0,0,1,3.23-11.4c.89-2.33,1.87-2.08,3.2-.51,2.11,2.48,4.19,5,6.31,7.46,1.23,1.43,1.21,2.52-.77,3.13-2.56.8-4.86,2.34-7.6,2.62Z"/><path class="cls-136" d="M1266,313.45c-1.15,7.26-2.37,14.52-3.42,21.8-.28,2-1.43,2.16-3,2.16q-28,0-56,0c-2.46,0-3.47-.91-3.79-3.44-.87-6.85-2.06-13.66-3.12-20.48-.54-2.49-1.05-5-1.64-7.47-1.36-5.73-.92-6.38,5.19-6.39q31.08-.07,62.17,0c5.18,0,6.1,1.21,5,6.24C1266.73,308.4,1265.76,310.81,1266,313.45Z"/><path class="cls-137" d="M1114.71,274a12.27,12.27,0,0,0,5.1,5.19c.12,3.1,2.36,5.2,3.81,7.63.78,1.33,1.68,2.49,1.7,4.09,1.94,2.63,1.59,5.65,1.46,8.63-.58.05-.46,1.71-1.75.41a12,12,0,0,0-8.52-3.7h0a12.33,12.33,0,0,0-5-3.56c-2.08-3.3-5.27-5.75-7-9.38-1.29-2.78-2.55-5.34-.12-8.22,2.28-2.71,4.75-3.14,7.81-1.47A7.41,7.41,0,0,0,1114.71,274Z"/><path class="cls-107" d="M1111.47,292.71c2.6-.12,4.36,1,5,3.56C1114.22,295.92,1113.05,294,1111.47,292.71Z"/><path class="cls-138" d="M1348.23,560.66q.06,27.65.11,55.3c0,5.57.12,5.68,5.85,5.69h22.72a10.2,10.2,0,0,1,5,.77c1,4.47-1.7,8.12-2.73,12.13-1.61,6.27-4.64,12.15-5.24,18.71a2.4,2.4,0,0,1-.71,1.83c-1.63-1.22-3.2-.37-4.87,0-12.21,2.57-17.42.49-21-11.46-2-6.61-4.71-12.57-11.42-16.1-6.1-3.2-8.54-5.7-4.8-13.38,1.71-3.51.54-6.53-1.78-9.46-3.54-4.46-3.12-6.56,1.09-10.44a59.22,59.22,0,0,1,11.17-7.85c4.45-2.51,6.39-5.59,6-10.92C1347.32,570.59,1346.71,565.54,1348.23,560.66Z"/><path class="cls-139" d="M1373.26,655.09v-1.74c1.69-2.4,4.23-2.32,6.58-1.81a81.83,81.83,0,0,1,10.79,2.59c9.68,3.49,19.74,4.3,29.91,3.84,5.24-.24,9.45-3.11,13-6.68,3.2-3.19,6.64-4.75,11.1-3.19a114.19,114.19,0,0,1,22.11,5.17c1.81-.27,3.64-.6,4.44,1.72a4.75,4.75,0,0,0-2.72,1c-4.32,4.22-10.12,5.6-15.53,7.49a21.53,21.53,0,0,0-11.88,10.34c-3.44,6.06-9.64,9.9-16.14,8.62-4.21-.83-7.61-3.77-11.21-6-4.78-2.9-9.3-5.5-15.17-3.55-1.42.47-3.12.19-4.69.16-5.22-.07-7.7-2.3-7.68-7.56,0-4-2-5.9-5.57-6.11A8.65,8.65,0,0,1,1373.26,655.09Z"/><path class="cls-140" d="M1320.87,703.09c-3-.81-1.68-3.29-1.69-5q-.12-54-.06-108,0-86.8,0-173.6l2,0c0,5.72-.09,11.44-.09,17.16q0,130.44,0,260.87c0,2.58,0,5.15.06,7.72C1321,702.51,1320.91,702.8,1320.87,703.09Z"/><path class="cls-141" d="M1471.24,655l-4.44-1.71c7.23-.64,12.14-5.34,17.32-9.7,3.68-3.1,5.64-2.52,6.5,1.83a50.52,50.52,0,0,1,1.19,12.29c-.08,1.75-.57,2.72-2.41,2.68C1483.27,658.83,1477.5,656.11,1471.24,655Z"/><path class="cls-142" d="M1532.13,618.86a81.52,81.52,0,0,0-3.76,16c-.36,2.34-2.69,3.8-4.85,4.92-5.45.55-10.75,2-16.36,1.62-3.42-.26-6.37-2.14-9.89-2.07-1.73,0-2.4-2.76-2.6-3.94-.92-5.31-4.43-10-3.93-15.6-2.27-2.6-2.4-5.87-2.79-9.06-.33-5.64-.09-11.29-.15-16.94,0-3.42,1.82-6.14,3.11-9.07,2-3,2.91-6.7,6.33-8.86,7.7-4.89,15.58-4,23.63-1.31,8.35,5.75,10.48,14.55,11.12,23.79C1532.47,605.13,1532.11,612,1532.13,618.86Z"/><path class="cls-143" d="M1444.69,648.1a10.48,10.48,0,0,0-9.85,3.8c-7.2,8.25-16.69,8-26.35,7.32s-18.49-4.09-27.67-6.39c-2.63-.66-5.07-.14-7.55.52a2.45,2.45,0,0,1-.54-3.11,140.79,140.79,0,0,0,4.56-14.17c1.33-4.61,3.08-9.11,4.65-13.65l13.89-.13c3.26-.67,4.58,2.58,7.06,3.49,5.87,3.39,11.06,7.85,17.17,10.86,2.17,1.94,5.34,1.66,7.58,3.44,2,2.53,4.32,4.6,7.88,4.12,1.82-.25,2.46.89,3,2.22C1440.61,647,1442.81,646.94,1444.69,648.1Z"/><path class="cls-144" d="M1489.2,611.28c.51,2.83,1,5.66,1.54,8.48l-1.59.87c-1.79.67-3.66.47-5.5.46-18.21-.12-36.43.29-54.64-.09a4,4,0,0,0-2.83.65,3.59,3.59,0,0,1-2.68,1.07c-6.34-1.42-12.84,0-19.21-1-3.35-1-7.09.26-10.26-1.77l-11.32-.24c0-4.48,3.1-7.23,5.68-10.29,1.36-1,2.8-1.75,4.59-1.27,5.77,2.75,11.54,2,17.78,1.38,11.09-1.1,22.42-1.52,33.42,1.66,6.89,4.4,14.45,5.51,22.48,4.87,5.64-.45,11-1.56,15.73-4.77C1484.68,609.75,1486.92,608.67,1489.2,611.28Z"/><path class="cls-145" d="M1424,622.51l.75-1.76c3.48-1,6.66.39,9.9,1.25,12.34,3.6,24.45,7.92,36.77,11.57,1.37.41,2.69,1,3.22,2.55-4.07,7.11-5.65,7.81-13.4,6a139,139,0,0,0-22.7-3.34c-2.11.2-4.32-.94-6.24,1.43-.91,1.13-3.24.72-5,.37-2.6-1.28-6.22-.32-7.92-3.58A22.24,22.24,0,0,1,1424,622.51Z"/><path class="cls-146" d="M1474.66,636.12l-40.29-13c.56-2.05,2.32-1.87,3.8-1.87,15.34,0,30.67-.81,46-.42,1.43,0,3.8-.72,3.33,2.31A110.59,110.59,0,0,1,1474.66,636.12Z"/><path class="cls-147" d="M1487.51,623.09c-.36-1.49-1.53-1.41-2.69-1.45-16.46-.56-32.89,1-49.34.87-.37,0-.74.37-1.11.56-3.24-.6-6.21-2.34-9.6-2.32.09-2.08,1.8-1.11,2.58-1.11q29.09,0,58.15.21c1.26,0,2.6-.27,3.65.78A2.11,2.11,0,0,1,1487.51,623.09Z"/><path class="cls-148" d="M1427.37,640.58c.83-1.07,2.06-.74,3.16-.89.7-.09,2-.08,2-.33,1.44-6.53,4-.38,6-.58,1.24,2.55-.66,5.09,0,7.64-1.06-1-2.16-1.09-3.7-1C1431.5,645.52,1428.38,644.49,1427.37,640.58Z"/><path class="cls-149" d="M1162.12,472.19a18,18,0,0,1,4.47,4.49c-4.72-1.83-4.69-1.83-4.65,3.39,0,4.72-.56,9.4-.09,14.18.29,3,1.4,5,4.69,7.77-5.41-1.79-4.43,1.09-4.44,3.15,0,9.71,0,19.43,0,29.15,0,5.27-.45,5.69-5.54,5.7q-13.08,0-26.15,0c-1.91-1.82-1.47-4.21-1.47-6.43,0-6.84.12-13.67-1.28-20.4-1.07-2.39-3.23-2-5.19-2-10.42,0-20.84,0-31.25,0-1.93,0-4.07.52-5.57-1.36l.05-9.28a5.52,5.52,0,0,0,2.29-5.13c-.56-15-.25-30-.2-45,0-6.17,2.15-7.84,8.24-7.28,10.12.92,20.23-.29,30.35-.26,9.39,0,18.77,1.11,28.2.19,4.8-.46,6.76,1.66,6.61,6.59-.12,4,.72,7.95.1,11.93a4.19,4.19,0,0,0,1.25,3.5,5.59,5.59,0,0,1,.61,2.66C1163.48,469.41,1161.66,470.54,1162.12,472.19Z"/><path class="cls-150" d="M1265.66,598.44c12,0,24,.11,36-.06,3.58-.06,4.72,1.16,4.68,4.7-.14,16.28-.06,32.57-.08,48.86,0,5.77-.07,5.4-5.67,6-10.84,1.07-21.68.34-32.52.49-12.85.17-25.72-.09-38.57.11-3.85,0-4.88-1.35-4.84-5q.22-25.29,0-50.57c0-3.57,1-4.63,4.57-4.56C1241.37,598.57,1253.52,598.44,1265.66,598.44Z"/><path class="cls-151" d="M1219.66,485.08c12.15,0,24.3.16,36.44-.1,3.91-.08,4.76,1.22,4.71,4.88q-.27,24.43,0,48.87c0,4.26-1.82,5.55-5.62,5.55q-36.21-.06-72.44,0c-3,0-4.39-.87-4.38-4.12q.14-25.93-.06-51.87c0-3.28,1.73-3.26,4.06-3.25,12.43,0,24.86,0,37.29,0Z"/><path class="cls-152" d="M1146.74,650.57a11.22,11.22,0,0,0-6.08-1.52c-16.42.06-32.85,0-49.28,0-5.19,0-5.73-.52-5.72-5.55q0-37.07.06-74.14a3.88,3.88,0,0,1,3.39-1.47c8.25-.08,16.5-.53,24.73.26,4.41,2.35,8.88,4.55,14,5,2.64.25,3.39,2.14,3.84,4.43,1.64,8.28,4.06,16.41,5.46,24.7,1.54,9.09,5.76,16.63,11,23.85,1.33,1.83,2.95,3.58,2.65,6.13A31.87,31.87,0,0,0,1146.74,650.57Z"/><path class="cls-153" d="M1146.74,650.57c-2.86-6.68-.65-12.42,3.28-17.86,1.41-3.59,2.17-7.05.25-10.89-1.2-2.42-.67-5.27.64-7.78a7,7,0,0,1,2.94-3c5.36-2.45,5.74-6.94,5.07-11.9-.32-2.41-1-4.75-1.27-7.16-.5-5.21,1.26-8.63,5.28-10.47a12.22,12.22,0,0,0,3.83-1.8c5-2.7,9.94-4.85,15.8-2.23,2.41,1.08,5.33-.91,8,.36,6.24,1.67,8,3.43,8.44,8.58a15.41,15.41,0,0,0,4.45,9.93c3.07,3.23,4.47,6.42.67,10.32-2.89,3-2,6.62.21,9.42,4,5.22,4.32,10.61,2,16.48-.92,2.36-.48,4.74,0,7.15.8,3.73.59,7.35-2,10.46-2.78,7-9.07,6-14.71,6.56l-.28.31c-10.5-.3-21-.32-31.51.08C1153.72,655.61,1149.7,654,1146.74,650.57Z"/><path class="cls-154" d="M1114.93,569.37h-29.21c-3.55-.07-7.1-.06-10.64-.25-1.3-.07-2.87.77-3.88-.81.67-4,.26-8,.28-11.95.06-13.43,0-26.86,0-40.3,0-4.94.72-5.63,5.74-5.64h48c1.65,0,3.59-.49,4,2,1.43,9.16.78,18.41,1.12,27.61v11.15c1.94,3,1.52,6.06.54,9.2-1.11,1.21-2,2.23-1.6,4.32.83,4.34-.38,5.57-4.85,5.77C1121.25,570.62,1118,570.82,1114.93,569.37Z"/><path class="cls-155" d="M1162.13,466.28c-.94-1-2.18-2-1.75-3.66,1.12-4.38-.6-8.74,0-13.11.55-4.15-2.47-6-5.36-5.43-8.9,1.8-17.63-.28-26.42-.34-9.29-.05-18.51,1.12-27.79,1a27.8,27.8,0,0,1-3.42-.09c-7.84-1.09-8.27-.73-8.27,7.2q0,20.18,0,40.34c0,1.28-.36,2.78.16,3.81,2.26,4.41-.09,4.86-3.59,4.55q0-26.19,0-52.37c0-5.33.66-6,5.88-6,21.89,0,43.78.07,65.68-.07,3.77,0,5.13,1.22,4.91,5-.24,4.28-.09,8.58,0,12.87,0,1.08-.59,2.54.66,3.13s1.91-.88,2.71-1.58c1.72-1.49,3.2-3.18,5.24-4.37,3.7-2.17,7.72-.9,11-.07,4.35,1.13,8.31,0,12.31-.26,2.28-.17,4.38-.57,6.51.32,2.62,1.09,4.88,0,7.52-.8-3.1-3-7-4-10.25-6.16-2.86-1.94-4.84,2.88-7.92,4.87,1.08-3.29.93-5.46-2.95-3.94-.58,1.44,1,2.2,1.12,3.43-.66.55-1.16.06-1.45-.35-2.11-3-4.7-4.11-8.42-3-1.67.48-3.77.11-4-2.52s1.19-3.15,3.39-3c2,.11,4,.23,5.55-1.55a2.58,2.58,0,0,1,1.41-.58c3.27,5.59,8.17.19,12.24,2.66-1.52-5.65-5.89-4.45-9.83-5.3,3.15-2.63,5.84-2,7.78.16,2.64,3,5.36,5,9.57,4.57,2.34-.23,5,1.23,4.57-3.42-.27-3,3.06-4.42,6.06-5.32L1211.9,440c-.86.93-2.09,1.78-1.5,3.27a3.68,3.68,0,0,0,3.75,2.33q8.14,0,16.31,0a21.44,21.44,0,0,1,3,.08c1.77.25,2.23,1.68,2.32,3.14.12,1.85-1.28,1.92-2.64,1.92h-12c-2.91,0-6-.68-7.46,3.17-.31.84-1.84,1.23-3.08,2a3.63,3.63,0,0,0,3.33,1.37c30.16-1.21,60.33-.17,90.5-.51,2.22,0,4.54-.16,4.43,3.09s-2.36,2.56-4.59,2.62c-27.75.67-55.49.07-83.24.26-7.69.06-15.37,0-23.2,0a11.61,11.61,0,0,1,2,6c-1.21,1.79-1.32,1.79-3.46,0,2.37-2.21,1.19-3.79-.76-5.52-2.85-2.54-5.66-1.16-7,1-2,3.21-3.57,1.6-5.32.51-5.37-3.34-7.5-3.27-12,1.28-1.79,1.81-4.3,2.82-5.51,5.23-.85,1.72-2.78-.62-3.71.94-2.81-1.17.54-2.33,0-3.49,1.68-.31,3.25-.63,4.51-2.07a54.31,54.31,0,0,1,6.38-6.3c-2.62-.65-4,1.31-5.54,2.82S1165.12,467.3,1162.13,466.28Z"/><path class="cls-156" d="M1130.2,560.55l.18-9.36c9.1,0,18.21,0,27.31,0,3.27,0,4.22,2,4.34,4.67.15,3.57.16,7.15,0,10.72a104.75,104.75,0,0,0,.88,14.92c-3.87,3.49-5,7.73-3.64,12.76a35.6,35.6,0,0,1,1,5.89c.53,5.17-.12,9.74-5.93,11.86-1.07.39-1.79,1.77-2.67,2.7-2.86,1.22-3.43-1.39-4.3-2.86-3.33-5.69-5-12-7.12-18.24-3.3-9.83-6.32-19.75-10.14-29.39C1129.67,562.93,1129.34,561.75,1130.2,560.55Z"/><path class="cls-157" d="M1196.38,468.75c1.16-.27,2.3,1.51,3.46,0l103.79,0a27.26,27.26,0,0,1,3,.09,2.28,2.28,0,0,1,2.17,2.66,2.19,2.19,0,0,1-2.08,2.3,38,38,0,0,1-3.85.11H1199.51c-4,0-8.47-1.2-11,4.62,2.09-5.7-1.44-4.68-4-4.59-3.41.13-7-.94-9.91,2.31-1.21,1.35-3.21.72-3.76-1.77,1.32-.44,3.51.59,3.66-1.69.25-3.75,2.31-3.84,5.5-3.89,3.83-.06,7.84.31,11.58-1.3C1193.38,466.88,1194.53,469.45,1196.38,468.75Z"/><path class="cls-158" d="M1241.55,572.62h-60.08a27.27,27.27,0,0,1-3,0c-2-.21-3.78-.76-3.5-3.32.26-2.4,2.46-2.46,3.93-2.39,28.72,1.37,57.45.2,86.18.55,13,.16,26,0,39.05.08,1.68,0,4.56-1.29,4.65,2s-2.78,3.08-5,3.09c-13.16,0-26.32,0-39.48,0Z"/><path class="cls-159" d="M1199,586.37c-1.2-4.44-5-6.36-8.44-8.58,26.9,1.22,53.83,1.11,80.74.66,10.8-.19,21.58,1,32.38,0,2-.19,5.14-.6,5.11,2.88,0,3.31-2.91,2.51-4.89,2.51q-49.72,0-99.43,0C1202.29,583.86,1199.58,583,1199,586.37Z"/><path class="cls-160" d="M1189.62,656.69c.67-1,1.73-.78,2.69-.86,4.72-.39,9-1.84,12-5.7-1.65,2.55-.52,4.55.75,7,4.68,9,12.85,14.2,20.55,20,1.94,1.45,4,2.71,5.88,4.28,3.62,3.08,7.5,5.5,12.3,6.41a10.31,10.31,0,0,1,7.69,6.14c.28.62.76,1.39,0,1.91a2.54,2.54,0,0,1-1.58,0c-2.14-.33-4.38-4.61-6.45.24-.21.49-1.52-.4-2.13-1-9.45-9.17-21.83-13.78-32.69-20.76-3.07-2-5.81-3.86-7.77-7-1.74-2.75-3.86-5.28-5.59-8A5.2,5.2,0,0,0,1189.62,656.69Z"/><path class="cls-161" d="M1205.26,555.47q13.07,0,26.15,0c1.92,0,3.77-.16,3.71,2.73-.06,2.66-1.8,2.46-3.54,2.46h-53.15c-1.74,0-3.75.2-3.83-2.26-.08-2.73,1.83-3,4.08-3C1187.54,555.52,1196.4,555.47,1205.26,555.47Z"/><path class="cls-162" d="M1129.26,512.43c-1.12-1.68-2.84-1.6-4.57-1.6-15.7,0-31.4,0-47.09,0-4.65,0-5.68,1.1-5.66,5.93q.11,25.25.28,50.49c0,.74-.41,1-1,1-.07-18.55-.11-37.1-.26-55.65,0-2.46,1.12-2.77,3.12-2.73,3.85.06,7.71-.06,11.56-.11,13.35.05,26.7.07,40.05.17C1127.26,510,1129.8,509.08,1129.26,512.43Z"/><path class="cls-163" d="M1130.38,404.66c0,4.54-2,6.65-6.32,6.69-4.13,0-6.64-2.47-6.56-6.55.06-3.28,3.38-6.37,6.8-6.35A5.93,5.93,0,0,1,1130.38,404.66Z"/><path class="cls-164" d="M1084,411.48a6.75,6.75,0,0,1-6.7-6.79c0-2.78,4-6.4,7-6.27a6.83,6.83,0,0,1,6.55,6.56C1090.84,408.69,1087.9,411.48,1084,411.48Z"/><path class="cls-165" d="M1104.31,411.48c-4.3,0-6.57-2.14-6.61-6.3,0-4.57,1.69-6.24,6.51-6.22a6.93,6.93,0,0,1,6.91,6.91C1111.2,408.4,1107.48,411.46,1104.31,411.48Z"/><path class="cls-166" d="M1476.74,529H1376.3c-.86,0-1.72,0-2.58,0s-2.15.07-2.06-1.45c.08-1.2,1.06-1.13,1.9-1.15,1.14,0,2.29,0,3.43,0q98.94,0,197.87,0c2.61,0,5.29.63,7.7-1.51,1.19-1.06,3.1-.46,4.1,1.08a3.19,3.19,0,0,1-.16,4c-1.14,1.26-2.94,1.82-4.22.57-1.81-1.78-3.87-1.49-6-1.49Z"/><path class="cls-167" d="M1445.15,464.24a34.45,34.45,0,0,1,68.89-.44c.31,18.33-15.72,34.72-34.07,34.78C1459.79,498.66,1445.48,482.59,1445.15,464.24Z"/><path class="cls-168" d="M1392.13,608.71c-1.47-.09-2.23,1.22-3.4,1.72-9.19-2.93-17.28-7.29-22.59-15.87-2.62-4.23-5.39-8.3-6.35-13.3-.41-2.1-1.1-4.16.65-6,3.1-2.39,6.65-2.9,10.44-2.62a18.94,18.94,0,0,0,12.52-3.34c3.39-2.35,7.3-3.48,11.06-4.93,3.31-1.27,9.76.3,11.72,3.17,5,7.34,11.63,9.88,20.28,7.71,4.52-1.14,9.17-1.77,13.76-2.62.45,1-.08,1.74-.63,2.48-1.43,1.59-2.83,3.21-4.4,4.68a14.89,14.89,0,0,1-10.82,4.38c-3.42-.08-6.86.13-10.28,0-4.58-.23-7.61,1.89-9.63,5.78a78.15,78.15,0,0,0-3.66,8.2C1399.11,602.55,1396.91,606.74,1392.13,608.71Z"/><path class="cls-169" d="M1439.38,574.36l.84-1.73c6.47-8.7,15.09-8.5,24.11-3.53a66.76,66.76,0,0,1,20.45,16.9c2.29,2.9,3.59,3.77,4.72-.57.09-.35.92-.5,1.41-.74-2.84,8.72-1.73,17.69-1.71,26.59a5.2,5.2,0,0,0-6.53,1.34c-2.86,3.28-7.32,3.89-10.78,4.22-9.35.89-19.2,2.33-27.36-4.68,2.83-2.14,5.14.29,7.58,1,4.37,1.23,5.39.61,4.57-3.78-1.09-5.74-2.16-11.51-3.59-17.16-1.65-6.52-5.16-12.05-11.22-15.57A5.27,5.27,0,0,1,1439.38,574.36Z"/><path class="cls-170" d="M1360.44,575.26c1,12.36,6.27,22,17.17,28.55,3.69,2.22,7.5,4.27,11.12,6.62a44,44,0,0,0-6,9.29c-9.54,0-19.09,0-28.63.13-3,0-4-1.16-4-4.05.11-12.11.1-24.22.13-36.33,3.74-1,6.6-3.76,10.16-5.12Z"/><path class="cls-171" d="M1394,620c3.38.3,6.86-.73,10.15.74,1.2,2.52.22,4.34-1.88,5.8l-6.48-4.21C1395.28,621.47,1394.13,621.12,1394,620Z"/><path class="cls-172" d="M1402.3,626.5c.63-1.94,1.25-3.87,1.88-5.8,5.38,0,10.76,0,16.13,0,1.47,0,3.28-.51,3.71,1.77q-2.3,7.25-4.57,14.49c-5.12-1.57-9.13-5-13.35-8.08C1404.86,628,1403.48,627.43,1402.3,626.5Z"/><path class="cls-173" d="M1439.38,574.36c9.09,2.89,13.11,10.3,15.2,18.59,1.34,5.32,2.31,10.81,3.4,16.24.39,1.93,1,4.14-.63,5.69s-3.41-.24-5.15-.5c-2.68-.41-4.76-2.76-7.67-2.22-9.81-2.17-19.77-1.76-29.71-1.71a28.42,28.42,0,0,0-7.84,1.2,16.89,16.89,0,0,1-14.85-2.94c5.89-4.77,7.71-12,10.76-18.38,2.48-5.21,5.93-7.67,11.91-7.52,5.55.13,11.3,1.4,16.7-1.57C1434.7,579.49,1436.09,575.88,1439.38,574.36Z"/><path class="cls-125" d="M1162.13,466.28c4-1.12,4.86-5.85,8.5-7.44,1.12-.49,2.21-2,3.13-.35.55,1,1.45,2.52-.81,3.81a22,22,0,0,0-6.47,6.12c-1.66,2.26-2.82,1.67-4.36.28C1162.12,467.89,1162.13,467.09,1162.13,466.28Z"/><path class="cls-174" d="M1130.2,560.55q4.65,13.38,9.28,26.77c2.12,6.14,4,12.36,6.37,18.42,1.27,3.33,2.13,7.13,5.87,8.93-1.11,3.21-1.3,6.2.73,9.34,2.28,3.51-.68,6-2.43,8.7,0-3.52-2.58-5.74-4.51-8-7.81-9.14-9-20.62-11.68-31.57-1.36-5.5-2.46-11.08-3.48-16.66-.36-2-1.58-1.91-3-2.14-4.49-.72-9-1.39-12.38-5l10.13-.16c3.5-.05,4.86-1.78,3-4.71C1126.07,561.3,1127.7,560.89,1130.2,560.55Z"/><path class="cls-90" d="M1080.39,547.32a28.45,28.45,0,0,0,0-4.71c-.68-3.9.7-5.84,4.77-5.9,2.62,0,3.87-2.15,5.19-4a116.71,116.71,0,0,1,11.55-13.76c1.18-1.24,2.44-2.64,4.41-1.38a4.49,4.49,0,0,1,2.21,4.75,33.38,33.38,0,0,1-1.37,4.51c-1.49,4.65.3,6.79,5.23,6.15,1.26-.17,2.46-.71,3.79-.37,2,.49,4.16,1.8,3.63,3.55-1.19,3.86,1.5,7.28.2,11.41a51.76,51.76,0,0,0-1.48,9.15c-.39,3.59-2.32,4.89-5.25,4.92-7.82.09-15.74.77-23.23-2.45a11.39,11.39,0,0,0-2.5-.58c-2.21-.38-5.3,0-6.43-1.26-1.69-2-.47-5.18-.66-7.86-.05-.71,0-1.43,0-2.14Z"/><path class="cls-125" d="M1204.62,451.15c2.68-1,3.18,1,4.49,3C1206.89,453.51,1205.46,452.93,1204.62,451.15Z"/><path class="cls-175" d="M1511.69,463.94c.88,18.76-16.82,32.66-32.14,32.64-16.11,0-33.26-14.35-32.49-33.2.72-17.44,14.65-31.67,32.28-31.64C1497.66,431.78,1511.73,445.78,1511.69,463.94Z"/><path class="cls-176" d="M1491,442.09c1.51,3.69.61,7.55.63,11.31.06,11-.11,22-.33,33-.07,3.61-1.25,4.22-4,2.07-6.36-5-12.57-10.18-18.84-15.29,1.49-9.5,7.6-15,17.25-15,3.34,0,4-1,4-4.08C1489.8,450.1,1488.3,445.82,1491,442.09Z"/><path class="cls-177" d="M1491,442.09c-.06,5-.09,10-.21,14.94,0,1.1.62,2.74-1.74,2.42-10-1.34-16.37,3-19.53,12.41-.16.49-.7.85-1.06,1.28-2.25-1.73-4.52-3.42-6.73-5.19-3.31-2.66-3.41-4.81-.07-7.55,8.21-6.74,16.53-13.37,24.81-20,2.06-.94,3.33.2,4.47,1.69Z"/><path class="cls-176" d="M1491,442.05l-4.47-1.69C1488.88,438.57,1491.15,437.09,1491,442.05Z"/></g></svg>