<svg xmlns="http://www.w3.org/2000/svg" xmlns:xlink="http://www.w3.org/1999/xlink" viewBox="0 0 800 800"><defs><style>.cls-1{fill:none;}.cls-2{fill:#fff;}.cls-3{fill:#e5bdac;}.cls-4{fill:#d2dcf8;}.cls-5{fill:#9f5b8a;}.cls-6{fill:#a05e88;}.cls-7{fill:#fafaf4;}.cls-8{fill:#6c6cda;}.cls-9{fill:#edf2fc;}.cls-10{fill:#4c4dc2;}.cls-11{fill:#8cc1fd;}.cls-12{fill:#ebf1fb;}.cls-13{fill:#d1dcf8;}.cls-14{fill:#d1dcfa;}.cls-15{fill:#9a99e8;}.cls-16{fill:#ee428b;}.cls-17{fill:#d0dcfa;}.cls-18{fill:#eef6fb;}.cls-19{fill:#4d4dbc;}.cls-20{fill:#9698ed;}.cls-21{fill:#d0dcfb;}.cls-22{fill:#9899e7;}.cls-23{fill:#9699ed;}.cls-24{fill:#6f71ce;}.cls-25{fill:#6e6ed8;}.cls-26{fill:#9699ee;}.cls-27{fill:#cfdcfd;}.cls-28{fill:#d4ddf9;}.cls-29{fill:#f8d960;}.cls-30{fill:#f3f2f6;}.cls-31{fill:#999ae5;}.cls-32{fill:#d9e0f4;}.cls-33{fill:#bc4275;}.cls-34{fill:#d0dbf8;}.cls-35{fill:#2cdbc0;}.cls-36{fill:#d1dbf9;}.cls-37{fill:#6d70da;}.cls-38{fill:#d1dcf9;}.cls-39{fill:#f7db64;}.cls-40{fill:#504eb9;}.cls-41{fill:#152143;}.cls-42{fill:#8fc0f9;}.cls-43{fill:#9999e9;}.cls-44{fill:#714026;}.cls-45{fill:#f8bb5c;}.cls-46{fill:#d9e1f4;}.cls-47{fill:#9899ed;}.cls-48{fill:#6e70d7;}.cls-49{fill:#564cb7;}.cls-50{fill:#334088;}.cls-51{fill:#e0daee;}.cls-52{fill:#d9daf1;}.cls-53{fill:#2ddcbd;}.cls-54{fill:#2cdebe;}.cls-55{fill:#d76b88;}.cls-56{fill:#4f52b1;}.cls-57{fill:#2f4480;}.cls-58{fill:#d7ddf4;}.cls-59{fill:#534fae;}.cls-60{fill:#f6ba69;}.cls-61{fill:#d5def3;}.cls-62{fill:#9b9ae2;}.cls-63{fill:#d6def3;}.cls-64{fill:#d6ddf3;}.cls-65{fill:#5a50b1;}.cls-66{fill:#d6def4;}.cls-67{fill:#eae089;}.cls-68{fill:#d6ddf2;}.cls-69{fill:#9797ea;}.cls-70{fill:#1e2443;}.cls-71{fill:#dfe5e6;}.cls-72{fill:#b74473;}.cls-73{fill:#615fba;}.cls-74{fill:#dae1f4;}.cls-75{fill:#d8def2;}.cls-76{fill:#4f50b5;}.cls-77{fill:#324480;}.cls-78{fill:#66a1e8;}.cls-79{fill:#7877c1;}.cls-80{fill:#dbdeed;}.cls-81{fill:#f7db6c;}.cls-82{fill:#dbe2e9;}.cls-83{fill:#e4ba94;}.cls-84{fill:#bb4571;}.cls-85{fill:#ebf3fa;}.cls-86{fill:#f2ad92;}.cls-87{fill:#f6c267;}.cls-88{fill:#d9ced2;}.cls-89{fill:#eead92;}.cls-90{fill:#f1cc78;}.cls-91{fill:#6562bc;}.cls-92{fill:#dadfe8;}.cls-93{fill:#e9d384;}.cls-94{fill:#ecab91;}.cls-95{fill:#cd6d9c;}.cls-96{fill:#edc179;}.cls-97{fill:#8db6e3;}.cls-98{fill:#dedfe3;}.cls-99{fill:#6695cd;}.cls-100{fill:#f0a884;}.cls-101{fill:#d6dff1;}.cls-102{fill:#f1c282;}.cls-103{fill:#dbdfe5;}.cls-104{fill:#ecbd7f;}.cls-105{fill:#b785c9;}.cls-106{fill:#6594d3;}.cls-107{fill:#c5619a;}.cls-108{fill:#d7dff1;}.cls-109{fill:#d06794;}.cls-110{fill:#202742;}.cls-111{fill:#6e3f2b;}.cls-112{fill:#d8afa4;}.cls-113{fill:#e9c477;}.cls-114{fill:#edbe76;}.cls-115{fill:#d5b3b2;}.cls-116{fill:#e9bf7d;}.cls-117{fill:#784f3c;}.cls-118{fill:#b985ba;}.cls-119{fill:#ca6085;}.cls-120{fill:#dbd087;}.cls-121{fill:#7577a0;}.cls-122{fill:#d45b8e;}.cls-123{fill:#6e51a6;}.cls-124{fill:#b483bf;}.cls-125{fill:#ecdf9c;}.cls-126{fill:#765893;}.cls-127{fill:#7696cf;}.cls-128{fill:#e6b594;}.cls-129{fill:#ecd7b6;}.cls-130{fill:#e2b097;}.cls-131{fill:#2aad82;}.cls-132{fill:#c27694;}.cls-133{fill:#bbcdbe;}.cls-134{fill:#c86d91;}.cls-135{fill:#c37596;}.cls-136{fill:#9592f1;}.cls-137{fill:#bb7494;}.cls-138{fill:#55506f;}.cls-139{fill:#a17ec8;}.cls-140{fill:#e9c5a9;}.cls-141{fill:#eed4a7;}.cls-142{fill:#5aa56a;}.cls-143{fill:#f6c5a0;}.cls-144{fill:#edcd7f;}.cls-145{fill:#f6f1b9;}.cls-146{fill:#415492;}.cls-147{fill:#d8c1b0;}.cls-148{fill:#4d4dbd;}.cls-149{fill:#d6ddf5;}.cls-150{fill:#d6ddf4;}.cls-151{fill:#fefefe;}.cls-152{fill:#cdd8fb;}.cls-153{fill:#6c71cf;}.cls-154{fill:#455e8b;}.cls-155{fill:#c3ae93;}.cls-156{fill:#62a0ee;}.cls-157{fill:#64a0ed;}.cls-158{fill:#b94474;}.cls-159{fill:#797dd2;}.cls-160{fill:#b7bbdb;}.cls-161{fill:#afb1d9;}.cls-162{fill:#9e9edb;}.cls-163{fill:#a0a0df;}.cls-164{fill:#a0a1d8;}.cls-165{fill:#9fa0d5;}.cls-166{fill:#9fa0da;}.cls-167{fill:#b5b8e1;}.cls-168{fill:#9e9ed9;}.cls-169{fill:#9e9ddd;}.cls-170{fill:#9d9ede;}.cls-171{fill:#a09edd;}.cls-172{fill:#9fa1d5;}.cls-173{fill:#9d9fd4;}.cls-174{fill:#a0a0dc;}.cls-175{fill:#9e9ce7;}.cls-176{fill:#9e9edf;}.cls-177{fill:#9e9edd;}.cls-178{fill:#9fa0d7;}.cls-179{fill:#9c9ed7;}.cls-180{fill:#9998a7;}.cls-181{fill:#ceb09e;}.cls-182{fill:#ea458e;}.cls-183{fill:#f8bb60;}.cls-184{fill:#e54992;}.cls-185{fill:#f8ecf9;}.cls-186{fill:#f9f5e6;}.cls-187{fill:#5d6070;}.cls-188{fill:#e9f6f7;}.cls-189{fill:#dad287;}.cls-190{fill:#813a73;}.cls-191{fill:#fbfafa;}.cls-192{fill:#4d4dbe;}.cls-193{fill:#f3a751;}.cls-194{fill:#9aa2d9;}.cls-195{fill:#989fdd;}.cls-196{fill:#f869a1;}.cls-197{fill:#6c6070;}.cls-198{fill:#f7ba63;}.cls-199{fill:#f1bc68;}.cls-200{fill:#8bb6e0;}.cls-201{fill:#90b7d7;}.cls-202{fill:#e2d296;}.cls-203{fill:#b68aac;}.cls-204{fill:#f0c5b8;}.cls-205{fill:#a7c1e7;}.cls-206{fill:#f8c05f;}.cls-207{fill:#d2dbf6;}.cls-208{fill:#f0a449;}.cls-209{fill:#f1d777;}.cls-210{fill:#f56ca6;}.cls-211{fill:#e4b99c;}.cls-212{fill:#5f5ea3;}.cls-213{fill:#5253a1;}.cls-214{fill:#4c4dc1;}.cls-215{fill:#132054;}.cls-216{fill:#a15372;}.cls-217{fill:#994571;}.cls-218{fill:#f8ecf7;}.cls-219{fill:#64546b;}.cls-220{fill:#d5dbf2;}.cls-221{fill:#f1aa8d;}.cls-222{fill:#f4f3ed;}.cls-223{fill:#dcddc5;}.cls-224{isolation:isolate;}.cls-225{clip-path:url(#clip-path);}.cls-226{fill:#5c5cc4;}</style><clipPath id="clip-path"><polygon class="cls-1" points="271.69 478.21 349.23 433.15 581.36 567.17 503.81 612.23 271.69 478.21"/></clipPath></defs><title>home</title><g id="vector"><path class="cls-2" d="M259.6,632.77l7.23-3.76,2.49-18.82s1.2-1.78,2.32-1.09,23.82,13.37,23.82,13.37.68.4.68,3.47-.68,18.42-.68,18.42l-12.81,6.1Z"/><path class="cls-3" d="M140.12,493.26c-.67-1.74-3.1-3.24.67-5.5,2.63-1.58,3.61-.19,4.44,1.25,1,1.74,2.34,3.71-.46,5.8C141.6,497.19,141.27,494.4,140.12,493.26Z"/><path class="cls-4" d="M108.44,580.88c4.47-4.94,1.69-12,4.9-17.25,8,4.55,12.71-3,18.88-5.22l1.95,4.05c3.74,2.18,6.83,5.65,12.17,6.27-.07-3.65-5-4.86-3.7-8.43-.28-1.16-.57-2.32-.86-3.47,2.34.53,4.67,1.14,7,1.59,5.12,1,9.32,3.72,10.48,8.68,1.26,5.34-4.48,5.8-7.52,7.67-12.08,7.4-24.33,14.53-36.63,21.55-6,3.41-18.61-.31-22.2-6.4-3.94-6.66,2.53-8,5.83-11a14.75,14.75,0,0,1,.75,1.55c3.64,2.6,3.7,7.88,7.34,10.79C109.63,587.7,104.9,583.76,108.44,580.88Z"/><path class="cls-5" d="M142.64,560.3c1.29,1.24,2.5,2.58,3.87,3.71,2,1.6,6.22,2.53,4.67,5.47-1.78,3.37-5.69,2.42-9,.77-3.53-1.78-7.39-3.1-8.06-7.79C137.26,562.81,140.24,562.66,142.64,560.3Z"/><path class="cls-6" d="M108.44,580.88c.62,2.27,1.23,4.54,1.85,6.81.71,2.53,2.35,5.69-1.49,6.69-3.25.84-5.66-1.15-6.59-4.54-.87-3.13-1.79-6.24-2.69-9.36Z"/><path class="cls-7" d="M330.22,272.42c.7-14-9.81-7.06-9.81-7.06s.67-16.46.62-16.44c12-5.73,9-9.63,9-9.63l-5.07-3.72a5.53,5.53,0,0,1,2.59,4.29c-.63,3.53-3.71,4.54-6.28,6.09-30,18.07-61.06,34.37-91.06,52.46-4.72,2.84-9.46,5.65-15.23,5.59a4.63,4.63,0,0,0-3.45,2.35c-1.84,5.55-1.56,11.15-.42,16.77,1.83,4.47,5.2,3.73,8.69,2.53,12-3.4,21.07-12.11,31.78-17.87,22-11.86,43.48-24.75,64.93-37.63,4.89-2.94,10.1-6.25,12.47,2.74,3.24,3.89,6.16,8.39,12.43,6.3C335.44,278.38,330.22,272.42,330.22,272.42Z"/><path class="cls-7" d="M324.33,235.12l-3.51-2.58A28.11,28.11,0,0,0,324.33,235.12Z"/><polygon class="cls-2" points="354.86 314.43 354.86 348.98 224.48 428.61 212.83 430.4 208.48 413.98 214.81 388.31 354.86 314.43"/><polygon class="cls-2" points="622.06 571.75 436.5 685.88 167.23 522.56 170.96 515.76 370.7 398.97 369.81 229.49 370.6 177.4 622.79 319.66 629.85 331.31 629.85 562.04 622.06 571.75"/><path class="cls-8" d="M275,489.3l-16.2-9c19-10.6,37-20.69,55.09-30.76,11.47-6.4,23.25-12.31,34.31-19.36,6.53-4.17,11.68-3.31,17.74.26,29.11,17.16,58.34,34.12,87.53,51.14,10.08,2.8,11.38,4.32,11.51,15.13.17,13.66.1,27.32,0,41.95,5.22-9.94,10.27-19,13.54-29,1.19-3.62,1.66-7.91,6.1-9.54q46.57,27.09,93.13,54.25c5.22,3.06,11.34,4.66,15.51,9.43,2,7.68-4.62,9.44-8.92,10-8.37,1-13.63,5.06-19.92,10.45C554.16,593,541.76,599.46,529,604.44c-6.06,2.38-11.57,4.71-16.16,9.62A18,18,0,0,1,499,619.6c-11.24-4.86-21.2-11.91-31.47-18.42-.54-1,3.66-1.39.73-2.19-7.77-2.13-11.78-10.44-20.1-11.56-4.16-.56-2.69-8.72-10.08-6.92-3.95,1-8.44-4.17-12.92-6.06-23.3-13.75-46.74-27.24-70.17-40.76-7.41-4.27-13.57-11.07-23-11.05l-47.81-27.9c-4.35-4.54.07-6.58,2.66-9.06C283.15,488,279.93,491.36,275,489.3Z"/><path class="cls-9" d="M484.58,500.12c-5.5,15.44-11.4,30.7-22.44,46.93,0-7.91,0-13.37,0-18.83,0-10.34-.56-20.73.2-31,.57-7.75-1.75-12.81-8.91-15.65,6.72-.83,11-9.55,8.71-18.27-.68-2.55-2.21-4.88-3.35-7.31.63-6.61-4.67-6.17-8.53-6.73-14.38-2.09-27.07-8.17-39.16-15.85A40.33,40.33,0,0,1,402,424.7c-2.2-1.32-1.82-3.5-1.85-5.55,5.62-1.39,8.77,3.21,12.89,5.39,3.35,1.77,6.33,4.29,10.34,4.78-15.86-11.6-32.07-22.66-47.87-34.27-3.67-2.7-7.63-5-10.26-8.9q0-14.72,0-29.42c4.57-2.71,7.28,1,10.5,3,14.55,9,27.64,20.06,42,29.33,1.75,1.13,3.31,2.71,7,2.93-7.35-6.65-15.18-10.69-22.11-15.91-10-7.52-20.32-14.6-30.47-21.91-2.92-2.09-5.05-3-7,.76-2.81-.27-3.51,2.24-5,3.76L359,358c-1.66-2.5-1.54-5.35-1.63-8.16-.24-2.73.34-5.43.47-8.15,4.41-3.14,3.76,4.06,6.7,3.39q2.18-13.42,4.35-26.8c3.4-1.43,6,.61,8.36,2.36,16,11.72,32.29,23,48.47,34.43a8.52,8.52,0,0,1,2.83,3.55,4.49,4.49,0,0,1-.55,3.82c-7.81,1.71-11.62-5.45-17.68-8.21,4.66,9.84,33.2,23,48.94,22.08-6-4.18-12.27-3.85-17.71-5.91-3.49-1.32-8.13-1.08-8.72-6.38,5-3.09,6.51-9.63,12-12.26A12.28,12.28,0,0,1,457,354.9c2.3,6.56,9.14,4.66,10.91,2.64,3.46-3.92,7.48-9.59,2-15.46-.64-4.52,4.47-4.23,6.23-7.76-9.73,1-19.13,1.75-28.39-.69-3.79-1-7.86-1.51-9.05-6.24a6.38,6.38,0,0,1,3.67-3.67c6.27.88,12.41,2.67,18.73,3.12,6.81.49,13.25-.75,18.82-5.07,2.36-1.83,1.07-2.81-.87-3.62,0-1.47-.31-2.8-1.76-3.58.69-6.19,6.43-8.36,10-12.09,2.69-2.78,5.23.75,4.9,2.63-2.16,12,5.38,21.38,8.12,32a4.51,4.51,0,0,1-1.23,2.24c-5.73-.15-7.13,2.8-6.07,8,1.21,5.89,1.88,11.87,4.86,17.29,1.72,3.14,3.34,6.48,2.13,10.31-8.44,6.87-8.38,20.56.81,30.6a30.15,30.15,0,0,1-3.13-5.46c-1.76-3.46-2.13-6.36,2.25-8.14s8.82-.06,8.54,3.7c-1,13.16,9.2,19.83,15.08,29a2.76,2.76,0,0,1-.66,2.33c-3.41,1.43-5.49-.95-7.74-2.76-1.84-1.49-3.54-3.33-6.1-1.26a3.87,3.87,0,0,1-2.41.37c-5-1.95-7.27-7.08-11.44-8.91.56,4.12,2.18,9.26-1.49,13.92-7.32,5.84-5.14,14.85-4.2,21.27,2,13.54-.43,26.19-3.2,38.94C485.45,492.45,484.45,496.16,484.58,500.12Z"/><path class="cls-10" d="M254.49,121.18c27.29,15.54,54.84,30.63,81.39,47.44,8.95,7.64,8.54,11.2-1.73,16.66-29.87,15.89-58.75,33.52-88,50.42q-13,7.47-25.9,15.05c-10.62-7.68-22.28-13.62-33.64-20.08-7.94-4.5-15.62-9.45-23.48-14.08-2.94-1.74-5.14-4.39-4.93-8.24,1.24-5.82,6.17-8.2,10.6-10.72,14.62-8.3,28.61-17.66,43.37-25.73a60.23,60.23,0,0,0,11.1-8.05c.86-1.64,2.56,1.66,3.71-.89,1.73-3.79,5-3.91,8.48-2.13,8.92,2.89,11.81,1,13.62-9a140.87,140.87,0,0,0,1.65-20.51C250.73,127.65,250,123.38,254.49,121.18Z"/><path class="cls-11" d="M196.38,632.2c13.23-10.47,25.66-7.11,38.12,4,.38-5.38.64-8.94.89-12.51,4.69.39,3.37,4.27,3.66,6.85.43,3.9.57,7.83,1.37,11.69a19.12,19.12,0,0,1,.26,4.27c-1.79,7-1.34,13.64,5.51,17.69,6.52,3.86,13.45,3.13,20-.4,2.92-1.57,5.38-4.1,9-4.06,4.21.57,7.6,2.78,10.8,5.39,8.75,5.33,17.46,10.75,26.27,16,10,5.92,15.39,14.32,14.63,26.2a3,3,0,0,1,.12,2.74c-3.17,10.87-12,16.35-21.42,19.7-24.86,8.83-49.23,8.69-73.23-4.67-28.52-15.87-56.14-33.28-84.81-48.88a28.15,28.15,0,0,1-8.57-6.78c-1.82-5,2.19-6.64,5.16-8.88,11.6-6.74,23.42-13.13,34.88-20.12A112.78,112.78,0,0,1,196.38,632.2Z"/><path class="cls-12" d="M587.39,615.68c8.8,9.25,19.83,15.4,30.69,21.72,27.84,16.18,55.54,32.6,82.7,49.91A4.1,4.1,0,0,1,702.9,691c-4.09,17.93-9.29,35.56-14.66,53.14-3,10.32-5.41,20.81-9.21,30.89-4.37,8.44-6.76,9.46-13.82,5-37.94-23.78-76.87-45.91-115-69.32-5.54-3.39-10-7.06-8.77-14.42,4.44-4.55,5.44-10.62,7.1-16.36,3.85-13.25,7.57-26.53,11.43-39.77.92-3.16,1-5.93-2-8,1.82-7.47,7.73-13.33,8.39-21.27a5,5,0,0,1,3.19-2.33C576.56,608.26,581.9,612.16,587.39,615.68Z"/><path class="cls-13" d="M440.18,647.16h8.32c4,2.39,7.6,5.3,11.8,7.35,2.76,1.89,5,4.09,5,7.77-.66,5.05,0,10.2-.93,15.23a12.31,12.31,0,0,1-6.72,9c-2.2,1.18-4.55,2.09-6.71,3.38a6,6,0,0,0-3,4.5c-.71,1.79-.76,4.21-3.69,3.82-2.5-7.36-9.51-2.87-14.23-5.33-25.69-13.42-50.23-28.79-75.3-43.24C331.4,636.2,308.44,622,285,608.77c-7.89-4.46-17.05-6.75-22.2-15.14-4.74-8.1-12.6-8-20.51-7.86-6.61-7.26-15.67-11.18-23.93-15.59-15.76-8.41-30.76-18-46.38-26.64-14.23-7.81-15.14-27-1.13-35.46,17.47-10.52,35.56-20,53.35-30q49.92-28,99.79-56.12c8.75-4.91,17.54-9.75,26.26-14.69,2-1.15,3.83-3.74,6.27-1s1,5.11-1.14,7.18c-6,5.87-13.88,8.63-21,12.64-29.64,16.74-59.41,33.23-89.14,49.81C226.12,486.55,207,497.11,188,507.84c-4.67,2.63-9.83,4.9-11.8,10.61,2.28,11,10.76,15.69,19.66,20.93,55.3,32.53,110.92,64.52,166.32,96.87,17.15,10,34.16,20.28,51.37,30.19,5.54,3.19,11.76,2.75,17.06,5.69,6.67,3.4,12.17,9.53,21.12,10-2.16-7-11.22-5.92-11.51-13l2-1.83c4.06-2.11,6.8,1.11,10,2.49,1.6.7,3.15,2.52,4.93,1.21,2-1.47,1.3-3.9,1-6-.71-4.49-4.77-5.95-7.78-8.41C446.75,653.69,440.89,653.16,440.18,647.16Z"/><path class="cls-10" d="M97.36,173.5Q156.6,139.26,215.83,105c3-1.72,5.79-3.32,9.28-1.61,3.71,1.59,4.31,4.9,4.42,8.33.38,12.2,1.21,24.39.35,36.58-.42,4.65-3.92,8-5.2,12.32a14.66,14.66,0,0,1-2.42,3.12c-13.82,11.06-30.09,18.14-44.9,27.62-8.63,5.53-18,9.94-25.33,17.36a275,275,0,0,1-32.62-17.34c-5.14-3.2-10.52-5.92-15.62-9.09C100.8,180.42,94.92,179.7,97.36,173.5Z"/><path class="cls-14" d="M360.19,358.71c.84,6.71-1.2,13.17-2.22,19.64-.87,5.56-7.19,6.84-11.35,9.27-28.88,16.88-58.24,32.93-86.92,50.12-17.15,10.28-34.47,16-54.51,10.84-12.17-3.14-21.45-11.32-32-17.28C142.3,413.81,111.68,395.82,81,378c-9.12-5.31-16.2-11.82-15.09-23.88,1.06-11.56,10.22-14.88,18.41-19.38a4.73,4.73,0,0,1,1.14,4.22c-1.4,12,4,20.92,13.88,26.71,33.13,19.43,66.07,39.2,99.74,57.69,6.88,3.78,12.75,9.56,20.81,11.13,13.74-4.71,25.52-13.14,37.92-20.3,29.37-17,58.9-33.65,88.15-50.83,4.12-2.41,8-5.79,13.42-4.88Z"/><path class="cls-15" d="M592.56,294.08c10.39,9.46,23.21,15.16,35.22,22,8.25,4.7,11.42,10.6,11.17,19.82-.19,7.09-1.9,14.47,1.38,21.39,2.2,8.37.57,16.89,1,25.33-.38,5.84,1.58,12-2.5,17.33-.14,26.23-.15,52.47-.44,78.71-.25,22.24-.84,44.48-1.18,66.73,0,2.86-.48,5.42-2.36,7.63-1.22,2.52-2.53,5.35-6,4.28-3.1-1-2-4.07-2-6.3.3-17-.87-34.07.57-51.07q.22-80.67.49-161.32c0-6.8-2.5-11.48-8.42-15Q530.31,271.4,441.22,219c-23.35-13.72-46.69-27.47-70.62-41.55,5.71-5.4,10.23-6.73,17.13-2.42,20.17,12.61,40.88,24.36,61.4,36.4,3.6,2.11,7.12,5.13,11.69,2.15,2.76-2.21,5.11-1.4,7.26.95,1.93,7.9,3.79,8.92,10.93,5.48,3.25-1.56,6.37-3.39,9.93-4.2a13.28,13.28,0,0,1,10,2.56c1.22,5-3.83,4.31-5.81,6.41s-7.21,1.05-5.8,6.22c2.67,2.44,6,3.78,9.09,5.41,5.38,3.91,11.66,6.22,17.3,9.66-2.15,2.81-1,3.35,1.94,3,1.52-.19,2.88.75,4.19,1.51a49.36,49.36,0,0,0,10,5.08c8.37,4.75,15.79,11,24.53,15.18q2.26,1.13,4.48,2.32c7.35,3.81,13.56,9.47,21.11,13C583.56,289.69,588.67,290.92,592.56,294.08Z"/><path class="cls-16" d="M638.84,399.94l.26-17.47c2.81-2.4,5.52-1.76,8.07.39,8,6.79,17.61,8.33,27.69,8.14q3.39,0,6.78.07c3.44.39,6.5-1,9.65-2.06a25.67,25.67,0,0,0,9.65-1.69c2.58-1,4.44-3.11,6.81-4.41,6.14-3.36,7.71-2.49,9.11,4.93L712,426.46c-.28,7.81-2.67,15.32-2,23.37.71,8.63-4,15.64-11.77,19.08-14.65,6.49-29.54,7.14-43.61-2-8-5.17-10.75-12.75-8.67-22.05A285.6,285.6,0,0,0,638.84,399.94Z"/><path class="cls-17" d="M326.44,709.4c.17-.7.33-1.4.5-2.09,5.09,9.18,11.17,17.38,11.19,29.21,0,16-8.28,25.46-19.81,33.76-8.82,6.35-18.71,9.82-29.54,11.3-25.25,3.44-48.52.39-70.65-14.2-21.9-14.43-45.55-26.2-68.34-39.29-13.08-7.5-26-15.32-39-23,2.54-5.13,7-6.1,10.74-8,5.19-2.6,5.71-4.91.53-8-5.47-3.33-10.81-6.85-16.23-10.28-8.49-5.37-8.59-5.53-.21-10.39,3.14-1.82,4.94-3.45,2.65-7,3.32-2.27,5.84.18,8.31,1.64,7.32,4.34,14.62,8.71,21.84,13.23,2.06,3.67,1.86,7.76,1.49,11.64-.74,7.77,2.72,12.66,9.21,16.33,30.54,17.31,60.19,36.23,91.3,52.47,20.94,10.93,43.44,9.49,64.87.8,12.22-4.95,20.54-14.17,19-29.17A41.41,41.41,0,0,1,326.44,709.4Z"/><path class="cls-18" d="M554.24,360.48a47.46,47.46,0,0,0,4.57,3c15,7.56,14.47,7.53,14,23.62-.56,19.18,1.58,38.3,3,57.42.65,8.7,2,17.53-1.31,26.07-6.7,2.42-11-4-16.8-4.85-1.65,2.8,1.72,4.44,1.24,6.81a3.53,3.53,0,0,1-1.29,2.23c-10.8-1.75-19.19-8.36-28-14-1.76-1.12-3.55-3.22-3.27-5.25,1.22-8.92-5.56-12.59-10.59-17.71-3.94-4-10.22-7.38-7.36-14.93h0c7.58.45,9.7,8.19,15.23,11.47,3.49,2.08,5.64,6.17,10.67,7.62-2.65-6.49-11.81-7.55-11.21-15.43h0c4.18-2.64,6.72,1.05,9.73,2.62,6.58,3.41,12.17,8.82,20.11,9.67-4.84-4.06-9.85-7.83-15.64-10.39a45.76,45.76,0,0,1-9.54-5.41c-4-3.1-9-5.78-4.63-12.35,1.09-1.62-1.16-4-1-6.16a3.34,3.34,0,0,1,2.44-2.73c2.77-.71,4.82,2.4,8,1.41-1.55-5.69-9.28-5.63-10.44-11.37a4.16,4.16,0,0,1,.8-2.4c3.77-1.84,6.4.78,9.11,2.53A74.12,74.12,0,0,0,550.7,401c-8.83-7.34-19.42-12-28.32-19.16-1.18-.94-2.69-1.47-3.84-2.46-2.71-2.34-7.08-4.94-4.76-8.69s5.64,1.5,8.81,1.3c1.46-1.9-.91-4.12.47-6,2.65-2.72,5.57.79,9,.11-6-8.13-15-11.3-20.78-17.27,1.88,6.64,12.37,8.33,11.39,17.65-10.87-1.78-24.33-17.9-23.46-28.08h0c3-4.78-4.19-8.19-1.75-12.9,3,1.37,6.08-3.32,9.08.07-1.64,3.28-.12,5.9,1.84,8.38,10.49,13.28,24.18,22.2,39.28,29.39C551.65,365.26,552.25,361.83,554.24,360.48Z"/><path class="cls-19" d="M492.16,275.59l-2.34-1.37c-18.6-7-34.47-18.86-51.59-28.49-13.5-7.59-27-15.24-40.05-23.57-5.13-3.28-10-5.76-16-2.37a2.55,2.55,0,0,1-3.8-1.2c0-4.28.35-8.58,0-12.82-.65-8.2,2.45-7.62,8.13-4.28,28.95,17,58.06,33.75,87,50.74,3.66,2.15,6.36,2.84,10.75,1,7.45-3.16,23,7.7,22.93,15.74-.05,4.72,3.59,4.57,5.76,5.85q48.57,28.56,97.38,56.69c4,2.29,6.31,4.48,6.3,9.75-.15,64.49,0,129,.09,193.47v5.86c-4.88-1.15-7.94-3.6-11.15-5.75,1.88-53.49.39-107,.89-160.48a208,208,0,0,0-1.25-26.54c-.5-4.56-4-6.65-7.42-8.66-31-18.33-62.3-36.18-93.37-54.4C500.06,282.15,495,280.33,492.16,275.59Z"/><path class="cls-20" d="M607.35,343.83c.59,6,1.69,12,1.71,18.05.16,53.42.1,106.84.2,160.26,0,4.68,0,9.13-3.63,12.68l-19.85,14.4c-2.2-2.7-1.11-5.89-1.11-8.83q-.12-85.3-.06-170.61C584.62,356.39,593.56,346.2,607.35,343.83Z"/><path class="cls-21" d="M216.58,397.1c-4.44,8.51-4.38,20.92.12,26,.07,1.71-1,2.46-2.44,2.9-3.28.5-5.92-1.12-8.54-2.69C172.2,403.1,138.14,383.85,104.42,364a29.41,29.41,0,0,1-13.84-17.49c-2-6.72.65-12,5.63-16.27s9.13-1.21,13.36,1.36c33.44,20.3,67.85,38.95,101.27,59.28C213.27,392.38,216.87,393,216.58,397.1Z"/><path class="cls-21" d="M607.35,343.83c-17.7,8.88-23.13,22.49-22.48,42.68,1.75,54.19.79,108.47.91,162.71-3.94-2.68-2.06-6.73-2.07-10.1-.12-55.33-.49-110.67.28-166,.15-10.73-4.57-15.88-12.61-19.46-16.54-7.35-30.91-18.24-46.25-27.51-15-9.06-24.94-23.08-32.67-38.56-1.84-3.68-3.7-7.93-.3-12q38.07,21.81,76.12,43.64c10.57,6.08,21.16,12.15,31.58,18.49C602.56,339.37,606.37,340,607.35,343.83Z"/><path class="cls-22" d="M429.47,674.06c-22.53-4-39.23-19.56-58.27-30.26-53.43-30-106.23-61.17-159.11-92.18-8.66-5.07-16.9-10.93-26.08-15-8.31-3.68-10.48-10-9.85-18.18,25.34,14.58,50.73,29.08,76,43.75q83,48.16,166,96.5c5.22,3,10.9,5.48,14.93,10.27C434,672.18,431.12,672.68,429.47,674.06Z"/><path class="cls-21" d="M378.4,218.59c10.75-7.12,18.58.31,27,5.32q42.21,25.2,84.46,50.31c-5.5-.25-9.25,4.48-14.43,5.11-17.53,2.14-33.44-1.73-49-10.47-18.32-10.31-35.89-21.74-53.83-32.61-6.64-4-5.19-5.66-1.25-9.66C373.82,224.07,377.9,222.87,378.4,218.59Z"/><path class="cls-23" d="M337.58,545.9c4.66-.15,7.3,1.5,9.93,3,12.17,7,24.35,14,36.42,21.2,7.05,4.19,7.19,6.6.25,10.75-10.19,6.11-20.62,11.82-31,17.55a13.54,13.54,0,0,1-14,0c-13.16-7.7-26.22-15.58-39.34-23.36-5.64-3.34-6-6.34.15-9.65,11-5.91,21.9-12.12,32.91-18.07A19.24,19.24,0,0,1,337.58,545.9Z"/><path class="cls-24" d="M216.58,397.1q-55.92-32.85-111.86-65.68c-2-1.15-4-3-6.55-.62-3.78,3.46-6.68,7.39-6.06,12.68.78,6.64,3.85,12.74,9.49,16,37.55,22.06,75.33,43.72,113,65.52,3,.27,5.79,1,7,4.28a8.74,8.74,0,0,1-1.54,8.34c-17-8-32.82-18.3-49.15-27.6-23.26-13.24-46.37-26.76-69.49-40.26-16.13-9.42-20.92-19.37-17.16-35.09,3.52-5.62,6.78-11.46,13-14.71,6-2.61,10.7.85,15.3,3.57,29.43,17.4,59.31,34.05,88.68,51.55,6.91,4.13,15.91,5.17,20.5,13,.79,3.68.49,6.95-3.36,8.87Z"/><path class="cls-25" d="M119.5,307.59q.82-2.85,1.67-5.7c8.93-2.77,15,4,21.18,7.69q27.79,16.69,56.41,31.8c11.48,6.05,21.94,14.16,33.42,20.41,3.87,2.11,7.54,5.52,12.62,3.6a7.91,7.91,0,0,0,6.9-2.94c24.93-15.38,50.92-28.95,75.89-44.25,3.93-2.41,7.76-4.89,10.44-8.74,2.46-3.54,3.45-7.33.44-10.95-3.36-4-6.62-1.09-9.7.68-27.75,16-55.25,32.41-83.3,47.92q-14.55.22-22.53-11.95c.38-3.56,2.92-4.58,5.93-5.05,12.67,8.73,22.93,1.27,33.3-5.05,23.95-14.58,48.68-27.82,72.48-42.68A22,22,0,0,1,351,303.12c.12,3.92-.67,7.74-1.28,11.58-9.21,11.54-22.86,16.8-34.9,24.26-21.75,13.47-44.22,25.69-66.65,38-3.43,1.88-6.68,4.53-11,2.6-4.28-6.38-11.43-9-17.67-12.37-31.8-17-62-36.71-93.82-53.71C123.21,312.18,119.57,311.59,119.5,307.59Z"/><path class="cls-26" d="M119.5,307.59q37.69,21.63,75.4,43.25c12,6.88,24.18,13.51,36,20.68,2.47,1.5,7.87,1.76,5.8,7.29-4.28,5.29-8.58,10.53-16.52,9.32-16.57-9.33-33.22-18.52-49.69-28-18.94-10.93-37.67-22.21-56.6-33.16-5.2-3-10.18-6.83-16.63-6.93Z"/><path class="cls-27" d="M196.38,632.2a370.59,370.59,0,0,1-51.56,29.43c-4.49.81-7.15-2.69-10.52-4.47-9.64-5.1-18.74-11.11-28.27-16.39-3.28-1.82-7.51-3.18-7-8.34,13.4-10.5,28.87-17.62,43.3-26.45,5.13-3.14,9.12,0,13.27,2.82C168.6,617.63,182.41,625.06,196.38,632.2Z"/><path class="cls-28" d="M541.41,696.31c3.11,12.21,14.65,15.27,23.51,20.74,21.93,13.54,44.17,26.59,66.23,39.94,12.41,7.51,25.16,14.46,37.16,22.7,5.05,3.47,6.72-1,8.62-4.41,6.11-3.68,9.58-9.93,14.27-15,3.39-3.65,6.69-6.21,11.88-4.64,2.85,1.06,5.48,1.89,5.25-2.86-.12-2.41-.17-4.9,1.85-6.76,2.57,1.62,5.44,2.92,7.65,4.93,4.8,4.36,5.95,10.58.76,14.2-11.17,7.81-23.16,14.53-35.13,21.11-11.64,6.4-22.77,2.32-32.59-4.26-16.91-11.31-35-20.5-52.25-31.3C579.9,739,560.77,727.87,542,716.19,530.91,709.29,531,704.82,541.41,696.31Z"/><path class="cls-29" d="M504.67,114.83c13.84-7,25.62-17.59,40.38-23,2.65-1,2-3.54,2.06-5.55.17-6.41.16-12.83.23-19.24,3.44-3.35,6.93-3.17,10.44-.11a6.91,6.91,0,0,1,0,.91c-2.24,14.85,1,26.15,18.3,28.49a5.13,5.13,0,0,1,2.55.85c5,4.3,9.32,9.79,15,12.74,5.32,2.78,12.4-.39,18.51,1.93-1,3.51-4.63,1.77-5.93,3.93-16.5,4.24-29.63,15.2-44.67,22.32-5.43,2.57-8.94,6-9,12.19-6.17,6.76-8.64,6-12.12-3.77a7.38,7.38,0,0,0-5.82-4.4c-10.82-5.19-23.25-7.89-29.92-19.45C504.12,120.07,502.64,117.43,504.67,114.83Z"/><path class="cls-30" d="M541.82,144c2.51,10.52,2.92,10.77,9.14,5.58,8.24-4.08,14.89-10.69,23.25-14.56,3.11-1.44,5.78-4.77,9.84-2.47,1.9,6.77-2.39,10.64-6.83,14.37-2.94,2.48-6.71,3.72-9.83,6.24,2.39.8,5-.45,7,1.34-.61,2.78-3.82,4.37-3.51,7.58-4.84,2.17-9.48-.32-14.19-.67-13-1-25.15,1.34-36.48,7.68,4.63-1.11,8.28-7.62,13.74-3.29,3.51,2.78.72,6-1.91,8.39-4.59,4.34-11.3,5.66-15.91,10.77,3.52.61,6.07-2.73,9.16-.88,1.44,2.8-.31,4.38-2.23,5.93-4.64,3.73,1.1,2.9,1.89,4.24,3,3.05,6.76,3.91,10.85,3.86,4.32,1.86,7.51-.73,10.84-2.78a9.39,9.39,0,0,1,7.33-1.48c3.82.43,7.15,5.13,11.47,1.32,9.68,5.38,9.91,5.29,20.41-7.71,1.45,7.15-4.34,13.62-16.87,18.83-3.05,2.89-7.76,1.86-10.85,4.66-5.34,2-11.52.56-16.52,4-5.07,1.57-10.36,2.74-13.89,7.3-5.14,1.74-9.82-.15-14.53-1.81-3.56-4.29.89-5.39,2.93-7.59,1.42-1.53,6.47-1.74,2.39-5.65-3.67-2.48-6.85-.87-10.12,1-5.48,3.16-10.85,6.62-17.17,8-4,.36-7.88.33-11.6-1.36-4.88-3.59-2.28-6.14,1.36-8.14,6.68-3.67,13.33-7.37,20-11.84-1.41-2.18-4.27.08-5.4-1.94,3.28-5.69,6.59-11.16,4.09-18.38-1.39-4,1.27-7.83,3.87-10.62,1.71-1.84,3.28,1.84,5.31,2.08.93,5.85-5.52,9.83-4,15.34-.29-5.81,3.23-10.49,6.68-15.19,2.49-3.45,4.89-6.94,4.39-11.53,7.26,1.42,12.73-1.5,17.13-7a16.87,16.87,0,0,1,2.43-.49C538.09,147.23,539.67,145,541.82,144Z"/><path class="cls-31" d="M568.86,610l-1.81,1.83c-1.67,4.58-6.15,5.57-9.78,7.6-19.58,11-39.46,21.41-59.15,32.17-9.61,5.24-18,10.73-18.77,22.9-.6,2.38-1.2,4.77-1.81,7.15-3.59-2.9-2.82-7-2.93-10.84-.18-6.58.25-13.21-1.87-19.61a3.4,3.4,0,0,1,1.15-2.84c10.38-.47,17.62-7.82,26-12.37,39.38-21.36,78.45-43.28,117.6-65,2.38-1.33,4.53-3.05,6.78-4.59,3.2-2.56,4.4,0,5,2.31,1.42,5.22.15,10.39-4.64,12.74C605.89,590.63,589.42,604.33,568.86,610Z"/><path class="cls-32" d="M497.47,325.52c1.06,4.23,6.37,7.89,1.75,12.9-1.51-3.6-2.63-7.43-4.6-10.75-4.48-7.56-6.52-15.46-2.65-26.63-6.55,6-10.64,9.78-14.74,13.53-5.22,2.38-3.75-2.14-3.51-3.94.5-3.77.06-5.49-4.43-5.33-9.67.36-19.47,1.1-28.63-3.63,2.73,3.44,2.74,3.4,11.75,5.67,3.31.84,7.21,1.84,6,6.37-1.13,4.14-4.94,2.9-7.71,2.06-9-2.7-17.9-5.71-26.83-8.61-4.25.66-6-2-7.15-5.42-3.85-4.83-9.12-8-14.21-11.13-4.63-2.88-7.05-6.3-6.43-11.9,4.51-.62,6.58,3.66,10.85,5.41-.62-10.8,3.89-8.69,9.87-4.43,10.91,7.77,22.55,13.88,35.9,16.84,12.82,2.86,24,1.27,33.86-8.26,6,8.05,7.83,17.9,11.88,26.72C500.06,318.58,499.26,322.14,497.47,325.52Z"/><path class="cls-33" d="M675.49,393.42c-11.6.31-22.77-.49-31.11-10.32-.84-1-3.48-.46-5.28-.63-.12-8.42-1.81-16.93,1.24-25.19,11.14-9.82,24.35-12.93,38.82-11.94,4.73,6.53,2.3,14,2.62,21.09C682.2,375.93,679,384.74,675.49,393.42Z"/><path class="cls-34" d="M223.23,335.49c7.33,3.5,13.06,10.61,22.28,9.86,4.45,1.57,4.21,5.55,4.5,9.11a64.53,64.53,0,0,0,1.72,9.89c-1.37,2.48-3.53,2.72-6,2.1-7.39.38-12.39-4.87-18.06-8.14-33-19.06-66.21-37.8-99.18-56.95-1.59-.91-3.19-1.85-3.8-3.77,2.4-3.11,1.71-6.77,1.85-10.29,7.47-.21,13.24,5.07,20.27,6.29,2.51,5.53,6.85,8.17,12.89,8.13,11,8,23.79,12.85,34.92,20.58,6.47,4.5,13.7,7.61,21,10.54C217.91,334.4,221.72,331.69,223.23,335.49Z"/><path class="cls-35" d="M227.93,151.08c-.29-13-.68-25.94-.79-38.92,0-3.17-1.14-5.9-2-8.78q.34-7.32.71-14.65c1.37-3.31,3.8-5.61,6.9-2.78,5.12,4.68,11.32,3.76,17.24,4.54A4.41,4.41,0,0,1,253.25,93c.38,9.41-1.9,18.93,1.24,28.21-3.31,11.15,0,23-3.46,34.12-2.95,2.1-6,1.92-9.05.29-5.71-5.92-1.25-13-2.41-19.44-.71,5.25,1.26,11.05-2.72,15.76C233.7,153.52,230.67,153.81,227.93,151.08Z"/><path class="cls-36" d="M568.86,610q26.13-14.43,52.23-28.87c7.8-4.35,8.83-9.47,3.19-14.78,3.38-14.93.67-30.08,1.69-45.09.48-7.12-1.75-14.44,1.5-21.36.07,16.61.12,33.22.25,49.83,0,2-1,4.67,1,5.89,2.74,1.65,3.92-2,6.11-2.62.8,1.59,1.3,3.46,2.45,4.72,10.29,11.2,9,22.52-3.68,31.2-11.48,7.88-23.85,14.18-36.09,20.72-3.47,1.86-6.78,4-10.17,6C580.17,617.2,575.88,609.14,568.86,610Z"/><path class="cls-37" d="M249.7,92.21c-6.47.41-13.1,1.38-17.94-4.57-2.68-3.28-3.88,1.12-5.93,1.09-5.79-7-.15-14.83-1.73-22.13-4.81-9.27.44-17.38,3-25.8,1-3.31,2.65-6.06,6.39-6.85,6.66.23,2.25,6.28,4.78,9,3.64,0,6.25-4.88,10.54-2.69,4,4.48,5.4,10.07,5.41,15.72,0,9.06-.14,18.13,0,27.18C254.28,87.18,253.28,90.22,249.7,92.21Z"/><path class="cls-38" d="M479.35,674.51c-2.27-10.39,1.69-16,11.43-21.3,25.46-13.7,50.62-28,76.27-41.37,1.47,8.78-4.25,14.34-9.08,20.29Q527.06,649,496.14,665.88C490.61,668.88,485,671.64,479.35,674.51Z"/><path class="cls-39" d="M686.16,606.51c-.31-15,3.6-29.5,5.9-44.18,1.29-1.24,2.45-2.66,4.39-2.93,2.47-.25,4.4,1,6.27,2.32,3,2.62,6.7,1.89,10.13,1.93,4.35.06,7.16,1.85,8.57,5.92,2.12,15.88,5.29,31.73,1.79,47.83-3.9,2.5-5.69-1.17-8.2-2.77-8.11-8.34-4.36-20.34-9.4-29-2.46,5.54-2.61,13-8.34,17.94-3.12,1.65-6.24,3.33-9.9,3.45Z"/><path class="cls-40" d="M220.2,388.13l16.52-9.32c14-3.63,25.39-12.5,37.82-19.21,19.68-10.62,38.77-22.34,58.24-33.37,5.81-3.3,9.44-9.38,15.84-11.81,3.12-4.34,6.68-7.9,12.69-7.09,1.43,6.49-.85,10.5-6.89,13.94-42.66,24.31-85.08,49-127.63,73.53-2.5,1.44-5,3.94-8.39,2.2C220.27,394.3,220.35,391.24,220.2,388.13Z"/><path class="cls-41" d="M98.77,578.93c1.59-21.47,4.13-42.87,4-64.46,0-3.52,1.25-7,1.92-10.56,6.49-4.31,15.14-2.92,21.4-8.32,1.81-1.56,4.42.83,5.94,2.85q4.89,29.2,9.77,58.39c1.38,1.37,2.62,2.78,1.21,4.85-2.71,2.79-5.8,3.09-9.2,1.44a11.58,11.58,0,0,1-3.26-4.51c-4.09-10.53-6.32-21.59-9.08-32.71-2.56,12.93-4,25.85-6.13,38.67-2,5.92-.16,13.26-6.61,17.48a10.54,10.54,0,0,1-9.12-.38A2.17,2.17,0,0,1,98.77,578.93Z"/><path class="cls-42" d="M701,562.57l-5.43-2c-3.8-6.46-6.42-13.86-2.12-20.23,3.84-5.7,5.15-11.22,5.46-17.68.15-3.17-.16-8,5.88-6.16,2,2.8,4.58,1.77,6.38.3,7.8-6.37,8.77,0,9.91,5.3,2.84,13.19,2.53,26.53,1.48,39.89C715.42,564.72,708.25,565.5,701,562.57Z"/><path class="cls-38" d="M725.2,630.2c1.44.45,2.88.93,4.34,1.32,3.65,1,7.35,2.28,7.92,6.51.64,4.78-4.28,5.39-6.93,7.53-7.22,5.85-14.6,3.47-21.64-.49q-17.82-10-35.43-20.44c-6.92-4.11-6.87-7.75.09-11.66,4.11-2.31,7.39-6.32,12.61-6.46l.48-.21c3,3.94,1.24,7-1.79,9.86-1.08,1.26-3.11,1.55-3.62,3.66,3.48.48,5.92-1.43,8.36-3.3,1.52-2.16,1.43-5.74,5.18-6,8.16,2.88,16.66,5.19,21.67,13.23,1.72,3.31,4.4,5.8,7.13,8.25.85,4.23-6.41,3.73-4.79,8.92,4-1.73,4-5.65,5.3-8.67A2.34,2.34,0,0,1,725.2,630.2Z"/><path class="cls-9" d="M558,474.3l0-1.95c7.9-2,12.87,3.24,18.29,7.37l.05,3.71c-3.93,3.31-7-2.48-11.76-.85,7.82,5.27,3.42,16.37,11.77,21.05,0,1.22,0,2.45,0,3.67-7,3.44-11.26-4.73-18.09-4.25.47,3.61,3.45,4.54,5.85,6,7.93,4.87,7.84,6.25-.64,11.12l-3.68-.07c-2.48-6.62-9.75-8.78-13.38-14.33-1-3.58,4.11-7.05-.2-10.89-5-4.43-8.19-4.21-13.78,1.9a4.38,4.38,0,0,1-4.48-2.08c-1-2.11-.39-4.26-.17-6.39-.79-6.88-6.57-10-10.91-14.06-8.67-8-14.86-17.84-21.28-27.52-.61-3.08-1.23-6.15-1.84-9.22,3.89-2.4,5.31.53,7.27,3.21-1.81-3.91-1.28-7.24,2.25-9.78,2.94-2.12,5.19-.59,7.15,1.46,2.71,2.83,6.55,6.47,3.32,10-2.6,2.85-1.26,3.85,0,5.72a52.64,52.64,0,0,0,11.81,12.44c3.2,2.46,7.34,4.64,6.86,9.83-9,2.45-12-6.05-18-9.58,6.17,6.75,11.6,14,20.17,18.32,1.24-3.92-5-5.59-1.62-9.25,6.55-.82,11.48,1.66,14.87,7.27-2.61,9.79-.7,11.58,11.28,15,.14-3.58-3.09-4-5.07-5.56-2.36-1.83-5.59-3.16-3.57-7.15C554.65,480.26,557.34,478.81,558,474.3Z"/><path class="cls-43" d="M220.33,428.62l-5.7-3.58,2.07-2,141.13-81.42c3.07,2,1.62,5.06,1.75,7.75-6.77,7.48-16.4,10.42-24.71,15.43-33.95,20.45-69,39-102.74,59.86C228.62,426.86,225,429.68,220.33,428.62Z"/><path class="cls-44" d="M242.24,585.77c11.62-5,18.26-2.5,20.51,7.86l-.35.09c-4.77,5.23-5.47,11.62-5.26,18.28.43,4.34,4.29,7,5.46,10.93.28,2.5-1.46,2.54-2.74,1.69-7.76-5.18-9.14.31-10.69,6.06-.88,3.28-.47,6.68-1.25,9.91-1.44,6-4.32,8-9.33,2.93-3.77-6.18-.86-13.43-3.2-19.82.33-8.39.51-16.79,1-25.18C236.73,593.63,238.27,589.1,242.24,585.77Z"/><path class="cls-45" d="M319.19,228.33c2.24,5,10.92,3.65,10.82,11-14.62,8.71-30.07,15.91-44.54,24.87-2.13,1.31-4.19,2.65-6.76,1.14-2.11-3.78.52-6.28,2.58-8.73a30,30,0,0,0,7.21-15.21c1.32-5,.47-10.08.8-15.11.2-3.19-.34-6.67,3-8.82,9.94-2.58,14.8,7.29,22.87,9.34A33.52,33.52,0,0,1,319.19,228.33Z"/><path class="cls-46" d="M558,474.3v7.06c-3.12,1.52-4.71-2.37-7.33-1.6a4,4,0,0,1-3.65-1.85c-4-4.19-9.11-6.3-14.72-7.33h0c-4.74-8.42-15.1-11.25-19.61-20.1-2.4-4.7-2.87-4.26.25-8.91,1.45-2.17-.74-4.15-1.94-5.57-1.54-1.83-2.72-5.51-6.1-3.82-1.52.76-3.66,2.19-3,5.05.73,3.38,3.64,6.44,1.85,10.5-5.83-1.14-2.88-10.63-10-10.21l0-9.16v-18.3l14.7,12.79c1.51,8.65,8.33,13.22,14.45,18.08,3.31,2.62,6.79,5,5.58,9.48-1.83,6.71,2.53,9.66,6.87,12.18C542.64,466.86,550.38,470.43,558,474.3Z"/><path class="cls-47" d="M99.05,632.43c8.34,8.72,19.92,12.41,29.62,19,5.25,3.59,10.76,6.8,16.15,10.18-.75,3.17-5.67,3.27-5.34,7.23.48,2.88.54,5.65-2.19,7.6-9.58-1.47-15.82-9.21-24.19-13-1.6-.71-3.2-1.4-4.81-2.1L97.1,654.14c-1-7.28-1.81-14.56.38-21.79A11.71,11.71,0,0,1,99.05,632.43Z"/><path class="cls-48" d="M710.18,746.05a67,67,0,0,1,.23,7.07c-.15,2.31,2.39,5.24.21,6.64-2.7,1.74-5.5-.43-7.81-2.33-2.57-3.25-6.86-3.11-10.06-5.12s-7.08-3.37-6.34-8.32q6.87-24.84,13.78-49.68c.39-1.41,1-2.88,2.71-3.33Q706.53,718.51,710.18,746.05Z"/><path class="cls-49" d="M675.49,393.42c2.07-16,4.94-31.86,3.67-48.08,6.41-10.93,4.41-23.58,7.18-35.27a117.82,117.82,0,0,0,1.9-13.57c.36-3.1,1.39-5.45,5.08-4.82s3.79,3.37,3.38,6.31c-1.87,13.27-3.76,26.54-5.59,39.82-.37,2.7-.5,5.43-.74,8.15.75,1,1.85,2.13,1.59,3.21-3.61,14.61-.45,30.64-9.17,44.18Z"/><path class="cls-50" d="M292.29,217.43c-2.63,8.56,1.11,17.66-2.2,26.17-4.08-4.41-2.43-9.88-2.36-14.85.09-6.52-2.51-7.41-7.72-5a381.41,381.41,0,0,0-38.69,20.14c-5,3-9.69,6.38-15.13,8.41-2.91,1.08-6.44,3.09-8.13-1.88a1.68,1.68,0,0,1,2.34-.26c8.94-10.45,22.38-14,33.22-21.62,13.14-9.21,27.61-16.47,41.67-24.06,12.16-6.56,22.93-15.49,36-20.49,11-4.2,11.28-6.16,4.59-15.38,2.17,1.07,4.42,2,6.5,3.23,6.91,4,6.95,7.35-.16,11.53q-22.75,13.38-45.72,26.4C293.28,211.6,290.81,213.28,292.29,217.43Z"/><path class="cls-46" d="M547,505.43c4.53,4.67,14.56,4.54,12.8,14.69-18.34-7.64-35.95-16-47.66-33.48-3.76-5.6,1.23-17-11-17-2.22-7.55-6.37-14.64-5.56-22.92,10.94,9.76,17.66,23.36,29.49,32.35,3.09,2.35,6.06,5.18,5.35,9.79-5.29,3.08-7.32-2-10.29-3.8,2.52,3,6.85,5,8.48,9.33l3.65,1.89A29.26,29.26,0,0,1,547,505.43Z"/><path class="cls-51" d="M470.17,762.37c2.47,1.12,5.19,1.91,7.36,3.45,3.39,2.4,4.44,5.74,2.05,9.56-4.16,6.65-15.8,8.81-22.65,4.53-5.07-3.16-10.52-5.71-15.59-8.86-4-2.52-7.22-7.76-2.87-10.41,12.18-7.41,8.68-18.82,9.5-29.28,3.41,0,3.72,2.78,3.87,5,.59,8.35,1.52,16.78-2.39,24.69a4.62,4.62,0,0,0-.75,2.55c.21,1.34,1.22,1.17,1.92.54,3.38-3,3.49-6.89,2.63-11-.66-10,4.16-19.67,2-29.88-.47-2.21,2.22-2.32,4.1-2.16a5.23,5.23,0,0,1,3.09,3.23c2.67,14.84,5.18,29.69.36,44.56-.29.47-.77,1-.78,1.54,0,2.49,1.26,1.15,1.94.51,2.42-2.28,1.83-6.4,5-8.28Z"/><path class="cls-52" d="M645.92,444.9c7,23,16.9,29.09,41.15,25.47,12.39-1.85,19.61-9.05,21.12-21.53.9-7.53,1.12-15.16,3.78-22.38,1.35,9.13-1.8,18.17,1.48,27.7,2.29,6.62-3,14-9.42,17.39-17.64,9.24-36.54,12-54.07-.83C640.24,463.61,638.46,452.27,645.92,444.9Z"/><path class="cls-53" d="M132,498.44c-3-.35-5.33-3-8.7,1.55-4.21,5.73-12.07,3.93-18.64,3.92-.59-9.24-1.64-18.49-1.63-27.73,0-6.82-1.72-9.81-9.22-9.28-8.45.6-17-.1-25.49-.34-3-.08-6.47.18-6-4.58.34-4,2.26-5.82,6.44-5.94q13.65-.37,27.26-1.43c3.57-.28,7.07-1.35,10.61-2.06,7.17,3.37,9.48,12.21,17,15.12a3.3,3.3,0,0,0,1.86-.81c1.86-4.07-.91-9.7,4.31-12.58,6.94,8,9,18.39,13.39,27.64,1.46,3.05,2.5,7.06-1.47,8.77-4.28,1.85-5.14-2.46-6.6-5.23a38,38,0,0,0-3.1-3.8Z"/><path class="cls-54" d="M460.91,723.69l-2.69-1.28c-2.94-2.78-7.39,1.72-10.11-2.1-6.21-6.5-3.7-14.51-3.82-22.07q1.08-2.62,2.14-5.27c9.28,1,18.63,1.64,27.3,5.6,1.06,5.36,2.11,10.72,3.2,16.08,1.16,5.72-.1,9.64-6.93,9.52C466.85,726.28,463.8,726.46,460.91,723.69Z"/><path class="cls-55" d="M592.56,294.08c-5.42-.08-10.14-1.43-12.61-6.9,7.21-3.07,9-8.6,8.56-16.1-.62-10.35-.19-20.77-.15-31.15,0-4.76-1.3-8.41-6.32-9.77-5.72-7.71-6.31-7.83-15.51-2.39-5.2,3.07-10.38,6.16-16.19,7.94a9.6,9.6,0,0,0-5,3.2c-8.24,5.34-15.52,12.55-26.09,13.29-1.91-.67-3.83-1.3-5.72-2-4.27-1.63.41-1.86.45-2.82,2.75-4.44,7.86-5.21,11.93-7.55,10.47-6,10.52-5.92,3.54-14.45a4.8,4.8,0,0,1,.48-2.53c4.46-1.31,8.7-4,13.67-2.3,2.09,5.59,5.42,6.47,10.23,2.92a39.27,39.27,0,0,1,10.37-5.51c3.46-1.18,6.49-3.52,10.29-3.75,13.55,2.2,18.46,7.61,18.39,20.24Q592.71,264.25,592.56,294.08Z"/><path class="cls-56" d="M124.7,297.59c14.18,5.64,26.57,14.53,39.73,22,27.19,15.47,54.21,31.22,81.31,46.85-2.45,4.71-5.61,2.23-8.45.69C224,359.93,211.73,350.78,198.41,344c-23.79-12.15-46.1-26.74-69.59-39.28-2.37-1.27-5.09-1.9-7.65-2.82C120.84,299.22,123.08,298.66,124.7,297.59Z"/><path class="cls-57" d="M473.73,698.57c-9.62.63-18.81-.78-27.3-5.6-1.22-2.94.18-3.91,2.92-3.88,3.61,1.59,5.1-.48,6-3.5,6-2.77,7.78-7.61,7.47-14-.16-3.51-.75-7.26,1.13-10.63,1.31.58,1.14,1.91,1.49,3a3.35,3.35,0,0,1,.2-2.08c2.48-4,4.62-8.23,8-11.62,5.9,6,3,13.65,3.64,20.61.33,3.57.16,7.18.21,10.77C474.59,686.91,472.93,692.46,473.73,698.57Z"/><path class="cls-58" d="M438.64,327.39c11.06,6.63,23,6.46,35.14,4.44,2.24-.38,5-4.31,6.67.06,1.3,3.39-.86,5.69-4.42,6.59-2.36.6-4.65,1.49-6.18,3.6-23.24,1.41-42.43-8.66-60.63-21.46a9.31,9.31,0,0,1-3.25-4.26c-.69-1.95-1.13-4.68.64-6,2.3-1.76,3.87.81,5.22,2.23C419.22,320.33,428.62,324.41,438.64,327.39Z"/><path class="cls-59" d="M583.3,133c-8.9,6-20.91,7.32-26.44,18.69-2.05,4.23-4-1-5.9-2-1.79-6.33.79-9.62,6.77-12.26a129.52,129.52,0,0,0,23.62-13.17c7.62-5.53,15.42-8.94,24.84-8.39,6-1,10.37,2,14.25,6,1.37,1.36,4.57,2.77-.08,4-7.56-.1-15.14.06-22.68-.38-5.67-.32-8.62,1.8-8.88,7.5C587,134,585.14,133.08,583.3,133Z"/><path class="cls-60" d="M700.83,389.75c-3,.09-6,3.75-9.08.11-2.37-2.77-1.31-5.86-.48-8.71,3.15-10.83,5.56-21.85,8.55-32.73,6.14-7.05,6.21-16.29,8.89-24.6a8.26,8.26,0,0,0,1.26-2.36c.81-3.2,1.42-7.32,5.94-5.93,4.29,1.32,2.82,5.1,1.8,8.24-1.83,10.29-6.9,20-5.85,30.79C708.51,366.4,707.68,379,700.83,389.75Z"/><path class="cls-61" d="M427.62,358.62l-58.74-40.39c-4.36-1.75-2.76-5.24-1.23-7.33s3.74.28,5.31,1.4c2.71,1.92,5.4,3.73,8.8,4.1l0,0c9.47,8.7,19.27,16.93,31.25,22.07l1.35.24A172,172,0,0,1,428.86,348C434.53,352,433.93,355.48,427.62,358.62Z"/><path class="cls-62" d="M499,619.6c5.63-3.26,12.2-4.75,16.1-11.08,1.64-2.68,6-4.55,9.37-5.16,15.11-2.69,25.76-13.85,39.08-19.84,3.38-1.52,1.51-6,4.24-7.43,3.63-1.84,6.7-4.84,11.68-3.92,6.57,1.21,11.66-1.51,13.8-8.37,4,2.28,6.81,4.24.57,7.69-28.95,16-57.77,32.15-86.65,48.25C504.42,621.26,501.63,622.65,499,619.6Z"/><path class="cls-63" d="M457,354.9l-12.84-1.79c-8.91,1.92-14.37-5.28-21.36-8.32-3.5-1.51-6.7-4.07-9.87-6.4l.06,0c-3.13-5.52-8.28-9-13.51-12-4.6-2.64-5.62-5.88-4.18-11.28,7.6,3.52,12.87,9.58,19.28,14,10.61,7.27,21.69,13.45,34.59,15.45C455.34,345.55,458.39,348.41,457,354.9Z"/><path class="cls-64" d="M416.7,301.74l7.15,5.42c1.61,4.19,11.12,5.77,6.45,10.94-4.27,4.71-8.63-2.5-12.47-5.12-14.78-10.07-29.36-20.43-44-30.72-2.74-1.93-8.2-3.31-4.65-7.82,3.31-4.2,6.26.67,8.9,2.52q16.4,11.46,32.56,23.21C412.55,301.54,414.57,301.66,416.7,301.74Z"/><path class="cls-65" d="M536,149.31l-2.19-.09c-11.07,2.35-17.88-5.12-25.36-11l-3.5-7.38c-7.74-1.73-15.6-.26-23.38-.85-2.13-.16-5.22,1.42-6.12-1.87-.64-2.31,1.38-3.82,3.1-5.09,1.92-1.4,3.26-3.63,5.84-4.1,7.33.84,15.06-1.58,22,2.74C513.55,132.22,525,136,536.1,140.48,539.91,143.46,543.82,146.44,536,149.31Z"/><path class="cls-66" d="M365.22,386.15c8.78,3.59,15.5,10.29,23.23,15.46,11.8,7.9,22.69,17.13,35.27,23.87,2.66,1.43,5,3.32,3.34,6.36-2.08,3.8-4.5.88-6.71-.47q-10.1-6.14-20.23-12.21c-9.14-7.71-18.4-15.24-29.42-20.19l.05,0C369.46,394.49,361,393.06,365.22,386.15Z"/><path class="cls-58" d="M402,424.7c6.86,4.24,13.73,8.44,20.56,12.72,10.75,6.74,23.09,8.31,35.09,11,6.44,1.45,7.5,4,1.18,7.54-20.63.73-36.9-9.6-52.79-20.85C402.39,432.56,401.39,428.92,402,424.7Z"/><path class="cls-67" d="M146.27,294.63c-7.77.79-13.65-3.52-19.72-7.33-2.5-2.32-2.45-5.89-4.74-8.61-8.33-9.88-5.33-21.58,6.66-28.22,2.29,3,5.47,4.4,9,5.75,4,1.54,9.16,2.06,10.22,7.69a3.62,3.62,0,0,1-1.43,2.11c-4.23,2-8.22.84-12.22-.87-1.66-.7-3.54-1.44-5.12-.06-2,1.77-.94,3.9-.14,5.83,2,4.85,4.32,9.3,10.34,10.33a11.57,11.57,0,0,1,9.06,6.79C148.68,290.57,148.82,293,146.27,294.63Z"/><path class="cls-68" d="M365.15,355c-.16-4.66,0-8.39,6.12-4.05q26.3,18.72,52.84,37.1c2.88,2,4.29,4.14,2.51,8.37C413.33,390.6,403,380.64,391.23,373c-8.53-5.56-16.13-12.74-26-16.22C365.22,356.14,365.18,355.55,365.15,355Z"/><path class="cls-69" d="M361.31,307.33l-12.69,7.1c-1.71-7.56,3.17-16.19-4-22.91-3.28-3.08-5.52-7.37-10.48-8.32-5-.26-9.16-1.65-10-7.49,1.19-2.61,2.16-5.65,6.06-3.29,3.35,2.88,6.88,5.45,11.17,6.77,2.6,1.5,5,3.39,7.81,4.44C360.51,287.91,364.21,295.88,361.31,307.33Z"/><path class="cls-70" d="M473.69,650.28c.15,5.73-3.43,9.45-7.34,12.72-2.28,1.92-1.48-1.37-2.35-2-1.22-2.23-2.65-4.28-5-5.42a3.48,3.48,0,0,1-1-3.55c2.66-3.78.84-8.26,1.9-12.29a5.31,5.31,0,0,0-3.15-6.71c-4.1-1.95-2.93,2.64-4.53,3.83-.79.58-1.45.85-2.25.13-2-5.06-2.72-10.33,1.58-14.3,2.77-2.56,6.76-4.83,10.81-2.87,4.6,2.24,8.09,6.26,7.18,11.57-1.14,6.6,1,11.82,4.43,17C473.83,649,473.76,649.65,473.69,650.28Z"/><path class="cls-71" d="M530.48,173.16c1-2,4.95-2.9,2.86-5.79s-4.81-1.46-7.23.11c-3.51,2.28-7,4.53-11.23,7.21,5.64-13.57,35.77-19.9,56-12.57,4.8,3.73,10.22,6.92,12.6,13.82-5.82.73-5.37-7.12-10.29-6.26-4.38-1.89-8.16-.24-12.11,1.65-9.41,4.51-9.47,4.4-14.48-5.26-4.5,2.27-4,7.07-5.58,10.68a9.81,9.81,0,0,1-3,4.37,4.35,4.35,0,0,1-3.84.06C531.88,179,531.3,176,530.48,173.16Z"/><path class="cls-72" d="M699.82,348.42c3.39,8.26-2.18,15.25-3.37,22.85-1,6.28-3.09,12.4-4.7,18.59-2.14,3.34-5.25,4.19-9,3.49,4.42-12.7,1.82-26.62,6.82-39.27,1-2.43.54-5.4.75-8.12Z"/><path class="cls-73" d="M331.9,522.64c.5-1.55,0-3.7,3.23-2.46,7.29,2.83,13.63,7.06,20.23,11.17,20.13,12.54,41,23.89,61.49,35.81,3.12,1.81,5.93,4.14,8.89,6.23-1.95,1.49-3.95,1-6,.19q-35.36-20.45-70.7-40.89C343.34,529.37,337.63,526,331.9,522.64Z"/><path class="cls-74" d="M554.24,360.48c-.2,7.7-2.44,7.34-9,4.11-14.45-7.08-27.37-15.73-37.63-28.09-2.53-3-7.89-6.63-1.05-10.92,7.23,11.29,18.16,18.44,29.12,25.39C541.52,354.68,548,357.34,554.24,360.48Z"/><path class="cls-75" d="M377.15,261.75c-.65-3.62-4.61-3.31-6.53-5.38-1.64-1.77-2.25-3.91-1.26-5.88,1.52-3,3.87-.93,5.39,0,6.16,3.88,12.18,8,18.15,12.14,2.66,1.85,4.91,4.87,2.9,7.73-2.53,3.6-4.46-1-6.69-1.76-1.91-.63-3.54-2.16-7-4.41,2.07,4.79,4.69,6.49,7.16,8.35a3.82,3.82,0,0,1,.92,5.63c-1.49,2.06-3.46.44-4.8-.45-4.05-2.67-7.76-5.86-11.87-8.43-3.13-2-6-4.27-4.09-7.93C371.62,257.1,374.22,264.35,377.15,261.75Z"/><path class="cls-76" d="M295,642.58c-9-5.39-16.05-8.94-22.33-13.51-5.71-4.16-2.33-10.62-2.06-16,.13-2.39,2.87-1.11,4.36-.22,5.49,3.26,11.25,6.19,16.32,10C297.75,627.78,292.17,634.57,295,642.58Z"/><path class="cls-77" d="M695.73,513.89c2.66,5.21.81,10.5,1.06,17.22L675.4,519c-1.39-5.3-.34-10.5.16-16.37C682.68,506.58,689.2,510.24,695.73,513.89Z"/><path class="cls-78" d="M440.18,647.16c5.25,3.5,10.56,6.9,15.71,10.53,1.86,1.31,4.74,2,4.77,5,0,4.18,1.87,9.6-1,12.18s-6.13-2.31-9.28-3.79c-2.7-1.27-5.42-2.52-8.14-3.77C435.48,662.84,434.57,653.78,440.18,647.16Z"/><path class="cls-79" d="M97.36,173.5c.75,4.26,4.55,5.6,7.62,7.11,13.65,6.67,25.69,16.19,39.78,22.06,2.72,1.13,4.92,3.51,7.35,5.32,5.42,10.66,2.49,21.83,2,32.85a5.71,5.71,0,0,1-1.92,2.5c-5.11-.73-1.37-5.13-3-7.3,4.43-19.07-4.18-30.14-21.39-37.28-9.74-4-18.53-10.36-27.76-15.64C95.93,180.78,92.64,178.25,97.36,173.5Z"/><path class="cls-80" d="M484.12,120.15l-8.45,8.2c10.08,3.21,20.05-.69,29.29,2.47-4,.11-7.92.25-11.88.33-11,.24-21.45.59-32.5,4.41-15.39,5.31-32.26,6.33-47.26-4.27a30.36,30.36,0,0,1-11.48-14.77,2.37,2.37,0,0,1,3.41-.71c2.66,8.31,9,13.49,16.69,15.66,19.81,5.59,38.94,5.62,55.61-9.54,2.52-2.3,2.09-7.64,7.18-7.16C486.13,116.74,486.11,118.56,484.12,120.15Z"/><path class="cls-81" d="M253,41l37,.25c3.4,1.25,6.81,2.49,3.57,7.08l.05.16c-4.4,3.7-10.48-.14-14.93,3.32L256.55,52C249.33,48.26,248.93,47,253,41Z"/><path class="cls-82" d="M557.78,67l-10.45.11c-6.2-2-12.35-4.18-18.62-6-9.56-2.72-15.3-9.11-18.42-18.24a2.43,2.43,0,0,1,3.55-.1c5.67,13.52,18.08,16.72,30.44,18.14,17,1.94,32.73-2.13,45-15.29,1-1,1.9-2.42,4.41-1.67-3.88,9.16-11.51,13.64-19.93,17.1C568.51,63.19,563.11,65,557.78,67Z"/><path class="cls-83" d="M126.44,470a6.62,6.62,0,0,0-1.76.35c-6.16-6.05-13.47-11.3-14.61-20.87,3.2-2.71-.48-5.27-.16-7.92,2.62-8.53,6.37-10,16.41-6.25.71,4.44,2.28,8.91-.26,13.29C126,455.76,129,462.84,126.44,470Z"/><path class="cls-84" d="M700.83,389.75c3.29-11.85,3.64-24.62,11-35.18,12,9.54,7,21.63,5,33.27-1.43-5.73-4.06-6.42-8.72-2.67C706,386.91,704.35,390,700.83,389.75Z"/><path class="cls-85" d="M563.45,520.19c-.6-3.64,4.16-3.05,4.76-5.89-2.89-3.87-8.55-3.07-11.37-7.1-1.65-2.37-3.65-4.77-1.84-7.32,2-2.84,4.33.13,6.36.91,5.08,1.95,9.43,5.6,15,6.51.61,4.5,1.52,9,1.77,13.52.49,9.06-1.12,10-9,5.84C566.3,525.21,563.45,524,563.45,520.19Z"/><path class="cls-86" d="M460.91,723.69l9.09.48c3.67,10.54.2,21-.75,31.39-.23,2.52-.58,4.69.92,6.81a3.09,3.09,0,0,1-.92.38c-3.56,2.07-.94,12.86-10,7.11,6.9-10.69,2.5-22.36,2.46-33.55C461.65,732.21,460.66,728,460.91,723.69Z"/><path class="cls-32" d="M479,318.15c2.28-.39,3.34-3.77,6.29-2.63-3.52,14.53-29.39,19.44-43,8.2-.11-4.25,1.15-6,6-4.57A47.58,47.58,0,0,0,479,318.15Z"/><path class="cls-87" d="M149.16,236c1.68,2,.73,4.54,1.21,6.79,2.89,5.53,3.06,11.46,2.19,17.4-.4,2.76-.72,6.48-5.4,4.68-2.87-4.64-7.95-6.38-12.52-7-5.34-.69-6.71-2.81-6.17-7.46C135,245.13,145.26,245.14,149.16,236Z"/><path class="cls-88" d="M238.59,643.52c5.38,2.54,7.88,1.06,7.67-5.1a43.39,43.39,0,0,1,.9-9c2-11.47,5.14-12.68,14.15-5.67a.86.86,0,0,0,.78-.1c.23-.16.34-.48.51-.73,5,3.85-1.62,7.42-.26,11.19,2.19,4.4,9.06,4.5,9.57,10.45-2,2.86-5.34,2.87-8.23,3.84-6.54,1.07-8.75-2.44-9.08-8.33-.21-3.55,1.34-7.27-1.14-11.36-3.41,7.39.84,15.53-3.61,22.11-5.2,2-8.51-.63-11.21-4.66Z"/><path class="cls-89" d="M448.11,720.31c3.54-.13,7.31-1.32,10.11,2.09,2,11-3.2,21.32-2.85,32.15-1.59,4.13.47,12.46-8.85,7.69,4.52-10.11,4.15-20.44,1.45-30.88C448,727.68,448.07,724,448.11,720.31Z"/><path class="cls-90" d="M539.62,177c.57-3,.78-6.06,1.81-8.86s1.74-6.22,5.94-5.76,3,3.93,3.19,6.39c.25,4,1.83,4.77,5.22,2.86s6.93-3.82,10.48-5.56c3.83-1.87,6.55-1.28,6.89,3.64-4.36,5.83-11.74,6.83-17.27,10.79C550.29,180.07,544.61,180.13,539.62,177Z"/><path class="cls-91" d="M419.78,573.58l6-.19a57,57,0,0,1,5.94,2.05c8.15,3.87,8.13,3.91,16.21.2,1.78,3.16-5.45,4.6-1.52,8.21,4.36,4,9.16,5.22,13.29,3.37.5,9.76,9.55,8.45,14.42,11.77-1.62,2.45-4.29,1.79-6.6,2.19Z"/><path class="cls-92" d="M620.36,125.82c3.22-1.27.13-2.67.08-4,1.42-.42,3.06-1.53,4.23-1.16,32.9,10.48,39.74,9.55,65.18-9.18-.44,5.68-1.23,7.74-7.56,11.27-14.91,8.32-30.91,10.72-47.53,6.44C630,127.94,625.33,126.25,620.36,125.82Z"/><path class="cls-93" d="M227.08,40.8q-1.49,12.9-3,25.8c-4.39,5.85-6.24,13.55-12.94,17.67C208.71,77.54,218.74,50.06,227.08,40.8Z"/><path class="cls-94" d="M245.65,41c-3.52,1.58-5.32,7.79-9.08,6.19-4.22-1.79-1-6.88-1-10.54,0-.92-1.34-1.81-2.06-2.71q-1-5.67-2-11.35c11.36-6.52,14-5.65,16,5.35a19,19,0,0,0-1.27,9.27C247,38.61,247,39.9,245.65,41Z"/><path class="cls-95" d="M661.26,100c1.66,6.65,1.74,13-3.77,18.14-4.19.06-8.55,2.38-12.48-1-4.43-6.59-1.49-12.07,2.64-17.37,1.41-2.19,3.27-3.57,6-3.26C656.3,97.5,659.71,96.68,661.26,100Z"/><path class="cls-96" d="M647.65,99.79c.46,5.61-5.68,10.46-1.86,16.44-4.79,4.46-10.62.61-15.8,2-8.93-5.31-8.76-5.08-.26-11.37C635.17,102.81,640.46,99.08,647.65,99.79Z"/><path class="cls-97" d="M495.5,193a21.82,21.82,0,0,0,3.33-1.39c2.38-1.49,5-1.61,6.46.61,2.15,3.32-1.82,4-3.38,5-6.92,4.28-14.08,8.19-21.22,12.11-1.81,1-3.22,1.78-1.43,3.92a4.21,4.21,0,0,1-3.84,1.7c-3.81-1.29-8.85.31-11.11-4.67Z"/><path class="cls-98" d="M668.12,88.37c.34-4.93-2.86-5.13-6.54-5.14-14.44-.06-28.58.8-40.37,12.83,6.8-17,39.63-22.68,58-11.13C676,87.75,673.09,91.35,668.12,88.37Z"/><path class="cls-99" d="M670.12,524.11c8.93-.12,14.5,6.63,21.44,10.55,3.18,1.8.9,3.24-.89,4.56-2.46,1.8-5.14,1.34-7.83,1-4.33-2.7-8.46-5.8-13-8C663.1,529,666.21,526.67,670.12,524.11Z"/><path class="cls-66" d="M370.7,399c1.8,5.95,7.89,7.06,12,10.37,2.6,2.09,5.49,3.84,7.3,6.69a4.14,4.14,0,0,1,.29,3.4c-.72,1.6-2.42,1.7-3.91,1-8.07-3.72-14.52-9.84-21.71-14.86-1.91-1.33-1.59-3.91-.47-5.87,1.77-3.1,4.37-.36,6.56-.69Z"/><path class="cls-100" d="M705.08,514.77c-2.93-.91-3.64-4-5.6-5.81l.15-10.9c9.48-4.29,14-3.33,17.54,3.74C714,506.92,714.25,515.24,705.08,514.77Z"/><path class="cls-101" d="M394.57,304.21c-.17,1.45.32,3.37-1.52,3.86-.91.24-2.28-.46-3.18-1.1-6.69-4.76-13.36-9.54-19.92-14.47-1.68-1.25-3.44-3-1.72-5.39a3.79,3.79,0,0,1,5.64-1.05c6.43,4.61,12.73,9.39,19.09,14.09C394.37,301.19,394.51,302.67,394.57,304.21Z"/><path class="cls-102" d="M544.28,44.57c-5.76-2.23-8.26,3.82-12.71,5.07-3,.86-6.07,2.63-7.8-1-1.53-3.23.62-5.87,3.63-7.14,7.09-3,12.92-8.95,21.21-9.17C552.23,38.18,549.24,41.72,544.28,44.57Z"/><path class="cls-103" d="M569,22.37c1.9-5.67-3.78-4.3-5.39-4.59-13-2.34-25.19.72-36.48,7.39-2,1.16-3.26,3.83-6.72,2.1,5.17-8.42,13.93-10.51,22.19-12.33,12.09-2.66,24.41-3.51,35.64,3.8C575.74,21.48,573.58,25,569,22.37Z"/><path class="cls-104" d="M436.49,121.36c-1.57-4.13-4.09-5.42-8-2.71a69.32,69.32,0,0,1-6,3.93c-2.87,1.56-6.2,2.2-8.1-1-2.26-3.8,2.25-4.49,4-5.69,6.15-4.22,12.22-8.92,20.24-9.08,4.58.5,3.52,3.65,3.08,6.51C437.11,114.18,439.82,119.71,436.49,121.36Z"/><path class="cls-105" d="M508.46,138.2c3.09-.52,4.76,1.6,6.88,3.32,5.35,4.35,12,5.91,18.48,7.71-.28.11-.75.16-.8.34-3.09,10.62-9.44,10.15-17.17,5.1C510.2,150.61,514.47,142.09,508.46,138.2Z"/><path class="cls-106" d="M429.47,674.06c-.26-2.73,2.63-3.24,3.61-5.09l7.11.13,16.41,11.47c-4.39,5.13-8.67,5.51-14,1.48C438.56,679,433.88,676.69,429.47,674.06Z"/><path class="cls-85" d="M576.35,503.63c-5.39-1.48-11.23-2.52-7.82-10.61a4,4,0,0,0-2.31-5.31c-3.65-1.59-4.55-4.33-2.49-7.15,2.48-3.4,5.19-.21,7.72.82,1.63.67,3.26,1.37,4.89,2.05Q576.34,493.53,576.35,503.63Z"/><path class="cls-107" d="M583.3,133c1.81-2.46,3.65-1.61,5.5,0,2.22,11.92-7.29,16-14.45,21.61-3.76,1.08-7.54,2.71-11.51-.78C570.1,147.39,582.34,145.52,583.3,133Z"/><path class="cls-108" d="M381.76,316.4c-1.84-5.29-6.89-7.14-10.86-10.14-2.54-1.92-5.21-4.78-3.37-7.54,2.1-3.15,4.5.4,6.57,1.62q5.83,3.44,11.57,7c3.19,2,6.55,4.54,4.71,8.64-2.15,4.83-5.74-.37-8.66.35Z"/><path class="cls-109" d="M544.28,44.57c.21-4.53,6.25-7,4.33-12.27,2.3-1.42,4.7-2.47,7.51-2,1.81.73,2.84,1.8,1.76,3.85-.92,1.13-3.29.28-3.41,2.07-.06,1,1.17,2,2.39,2.43,1.68.6,3.49.94,4.71,2.44.81,3.83.1,7.08-3.54,9.2-3.67,2.73-7.33,2.87-11,0C544.42,49.2,545,46.58,544.28,44.57Z"/><path class="cls-46" d="M576.29,479.72,558,472.35c-.75-.92-1.32-2.15-2.28-2.71-2.52-1.47-3.32-3-1.68-5.8,2-3.31,4.33-1.64,6-.33,4.38,3.37,9.47,5,14.45,7C577.54,473.14,575.91,476.63,576.29,479.72Z"/><path class="cls-110" d="M126.32,435.34c-5.32,2.47-13.52-2.63-16.41,6.25-3.57-4.73-3.73-9.66.3-13.93,3.56-3.77,8.17-3.5,12.6-1.21C126.52,428.36,128.37,431.11,126.32,435.34Z"/><path class="cls-111" d="M717.17,501.8c-4.65-6.87-11.77-2.14-17.54-3.74-3.24-7.54,1.56-10.09,7.47-11.05,6.32-1,10.78,1.61,11.22,8.58C718.45,497.63,717.58,499.73,717.17,501.8Z"/><path class="cls-112" d="M449.89,637c3.68-2.35-.25-7,3.61-10.12,1.75,4.86,10.56,7.09,9.71,8-4.87,5.56,3.62,13.75-4.16,17.92-5.38-.39-2.86-6.27-5.81-8.35C454.08,641.12,449.88,640,449.89,637Z"/><path class="cls-113" d="M668.12,88.37c4.11.21,6.73-4.35,11-3.43,1.2,1.12,3.92,2.31,1.4,4-6.15,4.15-11.19,10.33-19.31,11a15.45,15.45,0,0,1-7.57-3.45C659.22,95.09,663.14,90.78,668.12,88.37Z"/><path class="cls-114" d="M447.49,103.74c4.24-5.39,11-7,16.3-10.87A4.43,4.43,0,0,1,470.28,94c1.48,2.6-.29,4.78-2.66,5.79-5,2.13-8.62,6.83-14.32,7.58C449.73,108.78,446.91,109,447.49,103.74Z"/><path class="cls-115" d="M264.26,646.73l7.11-3.35c1.25-3,3.94-4.78,5.81-7.25,2.41-.35,3.86,1.39,5.63,2.51,9.14,5.73,9.13,6.65-.24,11.89l-.92.74a40.14,40.14,0,0,1-10.5-.34C268.94,649.39,266,649,264.26,646.73Z"/><path class="cls-116" d="M558,33.61l-1.87-3.32c4.21-2.77,7.79-6.55,12.87-7.91,3.66.27,5.11-5.1,9.24-3.64,2.43,1.54,3.86,3.53.86,5.58C573.68,28,569,33,562,34A3.19,3.19,0,0,1,558,33.61Z"/><path class="cls-117" d="M247.45,27.94c-2.42-10.44-10-5.45-16-5.35-.89-4.32.11-7.86,4.42-9.74a10.35,10.35,0,0,1,11,1.69C251.75,18.52,248.43,23.4,247.45,27.94Z"/><path class="cls-118" d="M539.62,177c5.59.38,11.64-1.39,16.26,3.5,0,3.05,0,6.1,0,9.15-5.55,1.3-10.94,1.39-15.9-2a5.06,5.06,0,0,1-1.16-2.16c.25-1.93-.59-3.65-1.2-5.42C537.82,178.76,538.12,177.48,539.62,177Z"/><path class="cls-119" d="M436.49,121.36c1.58-2.12-3-7.29,3.48-7,4.41-.26,8.82-3,13.24-.05l.4.07c2.14,3.42,5.75,2.54,8.9,3.17,2.9.58,7.05-.62,7.48,4.33l-2,1.31c-9.15-.37-18,3.13-27.2,2.13Z"/><path class="cls-120" d="M484.12,120.15c.21-1.8.41-3.59.61-5.38l19.94.06c.56,2.28,1.13,4.55,1.69,6.82C499,120.53,491.4,122.61,484.12,120.15Z"/><path class="cls-121" d="M245.65,41c.17-1.26.35-2.52.52-3.79,3,0,5.84.19,6.86,3.75-4.42,5.47-.35,8.24,3.52,11.07-1.67,10.52-.85,21.13-1.25,31.69-.12,3.16,1.26,6.76-2.05,9.26l-3.55-.77a54.08,54.08,0,0,0,.63-40.86C249.05,47.94,252.37,42,245.65,41Z"/><path class="cls-122" d="M539.65,185.76c4.73,4.14,11.33.46,16.24,3.86.19.6.38,1.19.58,1.79a3.81,3.81,0,0,1-2.46,3.73L547,197c-4.51,1.89-8.48,1.12-10.44-3.49C535.27,190.5,534.87,186.8,539.65,185.76Z"/><path class="cls-123" d="M440.79,125.33c8.81-4,17.82-5.4,27.2-2.13-5.77,2.87-11.69,5.33-18.18,5.93C446.2,129.46,442.27,130.21,440.79,125.33Z"/><path class="cls-124" d="M453.21,114.32c-4.41-.76-8.8,4.65-13.24.05.09-2.62,1.52-5.48-1.39-7.54,2.35-2.83,5.45-3.48,8.91-3.09.56,3.42,3.41,3.18,5.82,3.65Q453.25,110.86,453.21,114.32Z"/><path class="cls-125" d="M470,121.89c-3.24-3.34-7.36-1.53-11.05-1.65-4.21-.13-6.25-1.43-5.33-5.85h23.58C475.08,118.62,473.33,121,470,121.89Z"/><path class="cls-126" d="M630,118.21c4.88-3.77,10.6-.82,15.8-2,3.69,1.9,8.35-2.12,11.7,1.9-.61,4.4-4.07,3.82-7,3.86A49.83,49.83,0,0,1,630,118.21Z"/><path class="cls-115" d="M286,665.14c-4.69,1.55-7.16-3.17-11.05-3.9-.72-2.13.24-3.9,1.2-5.68,1.41-2.64,4.25-3.47,6.46-5.11l-.08.08c4.43-.46,6.08,1.52,5.18,5.83C287.14,659.28,286.61,662.21,286,665.14Z"/><path class="cls-127" d="M277.18,636.13c1.13,4.87-2.27,6.11-5.8,7.25-2.58-3.52-10.66-1.66-9-9.26C268,629.43,272.49,633.57,277.18,636.13Z"/><path class="cls-128" d="M723.69,632.29c-5.5.54-6.9-3.34-8.08-7.47-1.92-3.68-2.93-7.35.09-11l7.51,3.57c.55,4.28-.71,8.85,2,12.8-.23.76-.47,1.52-.71,2.28Z"/><path class="cls-129" d="M574.49,214.19c-2.42,2.74-5.3,4.55-9.12,4.44a47.28,47.28,0,0,0-7.61-9c2.24-6.17,7.43-2.27,11.18-3.27C569.23,210.05,572.88,211.4,574.49,214.19Z"/><path class="cls-130" d="M257.14,612c-4.4-7.86-3.64-14.24,5.26-18.28C262.52,600.35,264.17,607.43,257.14,612Z"/><path class="cls-131" d="M110.07,449.51l14.61,20.87c-9.22-2.71-13-10.92-18.09-17.83Z"/><path class="cls-132" d="M405.25,115.81l-3.41.71c-3.56-8.83-.88-15.94,5.9-22C407.18,101.73,401.43,108.17,405.25,115.81Z"/><path class="cls-133" d="M701,562.57l21.57-.53c-.38,2.51-.75,5-1.13,7.53-2.87-4.26-7.31-3.12-11.42-3.49C706.75,565.8,702.36,567.85,701,562.57Z"/><path class="cls-3" d="M57.31,457.21c2.77.37,6.6-1.09,6.59,3.84,0,3.45-2.59,3.58-5.09,3.54-3,0-6.62.09-7.14-3.81C51.08,456.35,54.94,457.65,57.31,457.21Z"/><path class="cls-134" d="M617.3,87.47c-3.49,6.64-4.51,13.63-4.12,21.52C607,102.19,608.76,93.43,617.3,87.47Z"/><path class="cls-135" d="M511.46,166.19c-2.67,7.18-6.66,14-5.14,22.3-5.95-8.32-1.51-15.36,2.45-22.45Z"/><path class="cls-136" d="M275,489.3c6.21-.59,10.37-6.78,17.7-6.93-1.57,5.76-11.45,4.77-8.58,12.37C280.64,493.62,277.25,492.39,275,489.3Z"/><path class="cls-137" d="M513.84,42.75l-3.55.1c-1.12-8.11-1.48-16,6.58-21.61A43,43,0,0,0,513.84,42.75Z"/><path class="cls-138" d="M453.24,644.5c2.13,0,5.37-1.61,4.13,3.08-.52,2-1.35,4.31,1.68,5.27l-.09,2.74c-3.43-2.88-9.7-2.24-10.46-8.43A5,5,0,0,1,453.24,644.5Z"/><path class="cls-139" d="M558,33.61l4,.35c-.15,2.38-.31,4.75-.46,7.12-2.14,0-4.29.16-6.41,0-1.89-.13-4.19.62-3.44-3.26C552.51,33.7,554.68,33.22,558,33.61Z"/><path class="cls-140" d="M293.59,48.29c.68-3.3-1.49-5.17-3.57-7.08a12.58,12.58,0,0,1,3.53-.27c3.37.73,9.29-2.13,9.42,3.16C303.07,48.49,297.53,48.46,293.59,48.29Z"/><path class="cls-141" d="M717.71,323.77c-.55-2.44,1.25-6.18-2.48-6.91s-2.42,3.32-3.66,5c-.63.88-1.89,1.3-2.86,1.92,0-.91-.09-1.81-.11-2.72a8.31,8.31,0,0,1,4.84-8.06c1.65-.83,4-.89,4.95.78C720.17,317.08,720.67,320.64,717.71,323.77Z"/><path class="cls-142" d="M126.44,470c1.77-7.17-4.19-14.2-.38-21.4l3.73,5.65C127,459.17,131.13,465.54,126.44,470Z"/><path class="cls-143" d="M547,50.29h11c.2,3.55-.81,5.71-5,5.67C549,55.91,546.49,54.87,547,50.29Z"/><path class="cls-144" d="M554,195.14c.4-1.52.81-3,2.46-3.73,3.91-.93,5.35,3.94,8.93,3.8C561.55,202.91,557.79,197.85,554,195.14Z"/><path class="cls-145" d="M278.71,51.77c3.83-6.28,9.94-2.29,14.93-3.32C290,55.45,283.72,50.81,278.71,51.77Z"/><path class="cls-146" d="M464.31,210.22c3.22,3.09,8.35-.56,11.38,3.21a6.34,6.34,0,0,1-4.12,3.07,4,4,0,0,1-3.66-.95c-2-2-4.42-2.4-7.09-2C457.57,207.78,462.66,210.81,464.31,210.22Z"/><path class="cls-147" d="M662.4,538.46c3.2-2.25,5.71-3.7,8.45-1.32.49.43.35,2.48-.22,3.11C667.69,543.41,665.49,540.87,662.4,538.46Z"/><path class="cls-148" d="M220.33,428.62q67.08-38.75,134.18-77.46a28.89,28.89,0,0,1,5.07-1.76c-.08,3-.15,6-.23,9.06q-61.55,35.43-123.12,70.82c-5.25,3-10.75,5.6-16.14,8.39Z"/><path class="cls-46" d="M523.08,404.5c2.86,4.46,2.67,4.37.1,9.77-1.37,2.89,1.73,4.27,3.37,5.29,8.24,5.13,16.75,9.82,25.07,14.82,2.37,1.43,7.13,2,5.28,6-2.34,5-6.38,1.76-9.37.13-8.24-4.49-16.31-9.31-24.45-14-2.85-3.15-5.86-6.18-8.5-9.5-4-5-10.16-9.21-6.88-17.4.9-2.25-.91-4.79-2.76-6.4-2.22-1.94-4,.84-5.64,1.53-3.35,1.42-.13,4,.3,5.92.9,3.94,5.58,6.49,4.57,11.46-8.72-6.37-14.23-21.2-12.34-31.28.87-4.61,5-3.81,7.4-5.72l1.14.6C506.84,386.19,516,394.57,523.08,404.5Z"/><path class="cls-74" d="M523.08,365.94c2.25,3.19,4.7,6.34,1.66,10.75l-9.61-6c6.43,9.11,15.68,14.5,24.72,20.1,3.87,2.39,7.95,4.44,12,6.5,3.35,1.69,3,4.75,1.9,7-1.59,3.14-3.47.23-5.13-.67q-12.78-6.93-25.54-13.88c-11.54-7.46-20.69-16.5-20.54-31.78-2.9,4.19.75,7.35,1.29,10.88.79,5.18,1,5.2-4.63,6.24l0,0c-1.81-8.85-7.36-16.35-8.46-25.61-.87-7.34-.36-11.93,8.46-11.12,4.31,12.34,12.5,21.32,23.87,27.55Z"/><path class="cls-149" d="M393.6,353.54c5.79,4.3,11,8.32,16.42,12.19,12.43,9,25.39,16.85,41.07,18.62,3.91.44,4.24,2.88,3.91,5.81-.36,3.34-2.54,2.14-4.73,2-16.5-.74-28.53-11.22-41.79-18.95-3.92-2.29-7.41-5.31-11.2-7.84C393.2,362.7,391.88,359.19,393.6,353.54Z"/><path class="cls-66" d="M448.4,430.4c-13.22-3.42-26.09-8.78-37.17-17.26-5.32-4.08-11.48-6.79-16.39-11.28-1.81-1.67-5.12-3.43-2.41-6.66,2.38-2.84,4.18,0,6.2,1.08,10.19,5.34,18.11,14,29,18.57a159.5,159.5,0,0,0,22.31,7.72c2.78.7,5.71,1,4.91,4.89C454.11,430.87,451.11,429.84,448.4,430.4Z"/><path class="cls-150" d="M449.48,417.36c-10.21-1-21.05-6.36-31.5-12.63a123.2,123.2,0,0,1-11.85-8.39c-2-1.57-5.24-3.29-2.79-6.51s5.43-.76,7.12.86c4.93,4.7,10.64,8,16.67,10.93,9,4.34,18.21,7.91,28.36,8.44,2.47.13,6.31-1.22,6.48,2.88s-3.41,4.37-6.6,4.41C454.16,417.37,452.94,417.36,449.48,417.36Z"/><path class="cls-64" d="M433.12,364.12c6.35,5.59,14.75,4.93,22.19,7.16,3.25,1,7.54.67,6.69,5.35-1,5.51-5.1,3.09-8.71,2.52-15.07-2.39-27.9-9.91-40.83-17.22a25.28,25.28,0,0,1-4.81-4.17c-1.91-1.87-3-4.48-1.39-6.59,2.12-2.79,4.77-.26,6.22,1.08a49.13,49.13,0,0,0,15.17,10C430.09,361.1,431.74,362.23,433.12,364.12Z"/><path class="cls-46" d="M523.09,426.52c2.76,4.55,6.8,7.67,11.18,10.53,2.71,1.76,4.89,4.92,2.84,7.74-2.54,3.48-5.07-.6-6.62-1.91-7.59-6.4-14.77-13.3-22.09-20,0-4.28.75-7,5.4-2.91C516.64,422.48,518.55,426.38,523.09,426.52Z"/><path class="cls-151" d="M433.12,364.12l-5.47-1.9,0-3.6c5.29-3.42,4.54-6.45-.47-9.43s-10.95-5.28-14.24-10.8c10.85,4,20,11.45,31.23,14.72C440.18,356.49,441.46,365.12,433.12,364.12Z"/><path class="cls-152" d="M152.42,242.13q-.15-17.07-.31-34.14c2.58-5.08,6.64-8.44,11.57-11.29,19.54-11.29,38.9-22.88,58.32-34.36,1.95-1,2.28.25,2.48,1.73-.45,5.4-5.49,6.25-8.87,8.31-15.11,9.2-30.5,17.94-45.71,27-3.88,2.3-8.17,4.3-10.27,8.76-2.33,3.33,1.24,6.32.56,9.56.08,1.5.09,3,.11,4.51-.15,6.28,1,12.66-1.4,18.77C157,243,155.21,245.32,152.42,242.13Z"/><path class="cls-153" d="M157.71,217.05c-.11-3.13-.77-6.39,1.92-8.92a6.83,6.83,0,0,0,4.29,6.5c9.79,4,18.43,10.31,27.16,15.87,9.85,6.27,22.6,8.7,29.32,19.67l-2.09.83c-5.9,1.44-9.66-3.09-14-5.42-13.42-7.21-26.54-15-39.79-22.51A26.13,26.13,0,0,1,157.71,217.05Z"/><path class="cls-154" d="M224.48,164.07,222,162.34l2.19-2.06c3.78-3.63,9.57-4.56,12.5-9.33,2-5.12,1.71-10.6,2.86-15.94q1.17,9.86,2.35,19.72c0,4.82-3.11,6.49-7.15,7.32C230.56,158.81,228.42,166,224.48,164.07Z"/><path class="cls-155" d="M234.75,162.05l7.15-7.32,9.13.58C247.9,165,241.48,167.68,234.75,162.05Z"/><path class="cls-156" d="M137.29,676.46c.68-2.54-.64-5.67,2.19-7.6,19.6,11.34,39,23.12,58.86,33.88C217.62,713.16,235,728.17,257.19,732c19.37,3.31,38.75,2.17,56.24-8.88,5.54-3.49,9.41-8.43,13-13.68.11,5.2.29,10.39.33,15.59.18,22.23-12.13,35.76-34.14,39.46-24.26,4.08-46.25.43-67.37-13-24.47-15.49-49.82-29.65-75.22-43.6-9.85-5.4-14.41-12.09-12.55-23.2C137.94,682,137.39,679.21,137.29,676.46Z"/><path class="cls-157" d="M282.72,712.83c-5.57.54-10.86-.07-15.77-3.13-3.19-2-6.55-3.85-6.15-8.16a10.74,10.74,0,0,1,6.58-9.18c9.26-3.69,18.82-4.47,28,.41,4,2.13,8.81,5.2,6.92,10.4s-6.88,8.19-12.29,9.56C287.69,713.31,285.14,712.83,282.72,712.83Z"/><path class="cls-158" d="M277,656.19c-.66,1.68-1.32,3.37-2,5-5.26,1.62-8.62,6.54-14.34,7.64-16.64,3.22-26.06-6.32-22-22.71,3.79,1.11,6.63,4.53,10.89,4.52,6.61,1.4,13.23-.44,19.85,0C272.23,652.07,275.61,652.74,277,656.19Z"/><path class="cls-23" d="M687.71,697.62c-5.94,20.17-12.23,41.47-18.47,62.79-1.31,4.49-3.9,3.7-6.89,1.92-10.22-6.07-20.38-12.23-30.7-18.11-4.38-2.5-5.6-5.09-4-10.31,6-19.48,11.37-39.12,16.76-58.77,1.44-5.26,3.31-7.26,8.69-3.9,10.59,6.62,21.39,12.92,32.22,19.15C688,691.92,688.42,693.84,687.71,697.62Z"/><path class="cls-159" d="M686.41,744c1.94,4.06,5.51,6.09,9.56,7.26,3.38,1,5.83,2.71,6.84,6.18-3.85-.88-6.72-.15-9.3,3.43-4,5.59-8.79,10.65-13.26,15.92-2.81,3.32-3,.84-3.32-1.5Z"/><path class="cls-160" d="M622,673.92c-1.35,2.1-.42,7.33-3.89,6.72-3-.53-8.58-2.09-7.75-7.2.41-2.48-.33-8,4.87-7C618.39,667.1,622.72,668.38,622,673.92Z"/><path class="cls-161" d="M587.78,704.2c3.35,2.16,7.69,3.39,6.71,8.61-.52,2.77-.25,7.3-4.36,6.28-2.79-.69-7.81-1.91-6.94-6.85C583.71,709.29,583.74,705.43,587.78,704.2Z"/><path class="cls-162" d="M601.5,713c2.85,1.43,7.33,1.69,7,5.86-.25,2.85.5,7.89-3.64,8.24-3.06.25-8-1.23-7.42-5.94C597.75,718.49,596.8,714.05,601.5,713Z"/><path class="cls-163" d="M594.46,655.76c-2,2.28,0,7.6-5,7.25-3-.22-7.36-1.6-6.74-5.74.38-2.59-.44-7.84,4.44-7.36C590,650.18,593.75,651.53,594.46,655.76Z"/><path class="cls-164" d="M569.13,656.51c2.86,1.92,7.11,3.15,6.38,7.52-.39,2.34.11,7.06-4.48,6.34-3.07-.49-7.26-1.84-6.61-5.94C564.86,661.72,564.52,657.44,569.13,656.51Z"/><path class="cls-165" d="M555.86,695.39c1.22-2.63.26-7.5,4.7-7.08,2.58.25,7.12,2.14,6.07,6.33-.7,2.81.27,8-3.79,8A7.43,7.43,0,0,1,555.86,695.39Z"/><path class="cls-166" d="M592.06,689c2.79,1.61,7,2.29,7.1,6,.09,2.86-.11,7.64-4.19,7.92-3,.2-6.91-2.16-7.09-5.65C587.74,694.48,588,690.55,592.06,689Z"/><path class="cls-167" d="M579,680.41c2.94,2.34,7.89,3.55,6,8.68-.81,2.23.22,7.53-4.45,6-3.39-1.12-7.25-3.88-6-8.83C575.19,683.86,575.23,680.64,579,680.41Z"/><path class="cls-168" d="M613.23,703.79c-1.27,3-.86,7.29-4.89,7-3-.23-6.75-1.67-6.27-6.2.31-2.9.35-7.13,3.77-7.16A7.88,7.88,0,0,1,613.23,703.79Z"/><path class="cls-169" d="M617.93,688.27c-1.84,2.52-.35,7.49-4.47,7.05-3-.33-7.89-1.47-7.19-6.28.36-2.46.08-7.13,4.06-6.91A7.93,7.93,0,0,1,617.93,688.27Z"/><path class="cls-170" d="M580.24,704.23c-1,1.91.72,6.85-4.23,5.65-3.1-.75-7.91-1.85-6.32-7,.74-2.36,0-7.2,4.74-6.13C577.6,697.49,582.07,698.43,580.24,704.23Z"/><path class="cls-171" d="M593.86,648.13c-3.15-1.68-7.27-2.67-6.33-7.47.51-2.61.28-6.92,4.84-5.74,3.53.92,6.69,3.14,5.87,7.75C597.79,645.22,597.82,648.32,593.86,648.13Z"/><path class="cls-172" d="M589.21,673.45c-.51,2.39-.4,6.38-4,5.63-3-.63-7.66-2.24-6.57-7,.56-2.41,0-7.17,4.45-6.53C586.84,666.1,589.62,668.78,589.21,673.45Z"/><path class="cls-173" d="M600,688c-3.41-2-7.76-2.49-7.23-7.36.3-2.74-.08-6.91,4-6.62,2.87.21,7.16,1.58,6.67,5.76C603.11,682.49,603.16,686.18,600,688Z"/><path class="cls-174" d="M606,643.34c2.5,1.62,7,2,6.2,6.34-.44,2.38-.05,7-4.76,6.22-3.61-.63-7.44-2.17-6.12-7.07C601.91,646.61,601.5,642.82,606,643.34Z"/><path class="cls-175" d="M607.56,665.66c-.5,2.22-.82,6.19-3.62,6-3.23-.25-7.44-2.07-7.08-6.72.21-2.69.2-7,4.52-6.35C604.47,659.05,607.85,660.89,607.56,665.66Z"/><path class="cls-176" d="M580.4,640.18c-2.5-2.3-7.65-2.37-6.81-7.27.37-2.21.08-6.46,4-5.95,2.94.38,7.24,1.1,6.5,5.78C583.69,635.35,584.61,639.1,580.4,640.18Z"/><path class="cls-177" d="M626,658.34c-1.27,2.28-.28,6.88-4.75,6-2.93-.56-7-2.09-5.91-6.51.57-2.32.24-6.67,3.49-6.4S625.68,653.7,626,658.34Z"/><path class="cls-178" d="M564.43,672.41c3.34,1.66,6.84,2.93,6.38,7.09-.29,2.61.3,7-4.21,6.29-2.82-.48-7.29-1.45-6.19-6.15C561,677.07,560.83,673.44,564.43,672.41Z"/><path class="cls-179" d="M579.94,649c-1.06,2.15-.15,6.76-4.43,6-2.74-.49-7.09-2.15-6-6.43.58-2.34-.21-7.16,4.31-6.47C576.82,642.53,580.21,644.28,579.94,649Z"/><path class="cls-180" d="M455.4,685.59c1.45,2.26,2.13,4.44-.74,6.14-3.1,1.84-4.37-.09-5.31-2.64Z"/><path class="cls-181" d="M236.69,151c-.18,8.45-6.87,8.19-12.5,9.33-4.13-5.25,2.65-6.06,3.74-9.19Z"/><path class="cls-182" d="M580.18,228.27c8-1.23,11.56,1.21,11,10.23a282.2,282.2,0,0,0,0,37.58c.61,9.05-2.64,12.23-11.18,11.1-8.93-1.71-15.22-7.87-22.07-13.09-3-3.54-2.3-7.84-2.39-12-.12-5.93.41-11.92-1.82-17.63C557.46,236.85,572.28,227.78,580.18,228.27Z"/><path class="cls-183" d="M530.15,224.76c10.62,8.31,10.73,8.49-1.7,16.22-4.44,2.76-9,5.7-14.47,6.37-7.51-.85-13.09-5.49-18.94-9.61,6.18-9.76,15.23-14.43,26.6-15C524.58,223,527.77,222.13,530.15,224.76Z"/><path class="cls-184" d="M554.09,272.18c-10-2.33-16.51-10.49-25.37-14.71,5.52-8.42,14.8-11.08,23.19-15.12a3.06,3.06,0,0,1,1.8,2.25A37.14,37.14,0,0,1,554.09,272.18Z"/><path class="cls-185" d="M551,243.48c-6.36,6.36-15.36,8.51-22.27,14q-4.72-2.66-9.47-5.28l26.26-14.93C549.49,237.44,551.68,239.19,551,243.48Z"/><path class="cls-186" d="M520.87,224.29c-10.3,1.25-17.68,8.07-25.83,13.45-3.48-1-6.68-2.53-8.93-5.55,4.17-6.77,12-8.45,17.86-12.89C510.21,218.9,516.45,218.51,520.87,224.29Z"/><path class="cls-187" d="M520.87,224.29c-5.47-3.82-11.81-3.3-18-3.67a3.59,3.59,0,0,1-3.57-1.37l-11.61-1.63c-5.54.57-11.22,1.95-15.93-2.61l3.9-1.58,3.57-.24,12.16,1.89a24.57,24.57,0,0,1,12.93-.39c2.89.53,5.94.79,7.52,3.87l16.4,2c1.81-.4,2.5.5,2.5,2.17-.2.67-.41,1.34-.62,2Z"/><path class="cls-188" d="M471.79,215l15.93,2.61c-3.66,2.09-7.29,4.24-11,6.25-4.36,2.37-7.71-.29-10.7-2.77-3.55-2.94,1.79-3.49,1.89-5.55Z"/><path class="cls-189" d="M499.33,219.25l3.57,1.37c-4,6.2-11,8-16.79,11.57-3.19-.59-6.63-.87-2-4.88S494.26,221.92,499.33,219.25Z"/><path class="cls-190" d="M554.09,272.18c-.5-9.58,2-19.37-2.07-28.69a1.59,1.59,0,0,1,1.65-1.19l1,.53c6.2,9.89,2.1,20.84,3.2,31.26A3.67,3.67,0,0,1,554.09,272.18Z"/><path class="cls-9" d="M499.21,375.12c6.73-2,3.65-6.71,1.52-9.24-4.07-4.83-2.66-8.06,1.83-11.83,2.2,3.2,6.15,5.3,2.61,10.46-1.65,2.41.61,5.06,2.53,7.24,5.23,5.93,10.28,12,15.39,18v1.84c-5.92,1-7.55-5.21-11.74-6.9,2.2,7.65,13.25,8.73,13.58,17.94l-1.85,1.84C512.64,396.73,504.19,387.33,499.21,375.12Z"/><path class="cls-46" d="M524.93,402.66c-3.08-5.84-9.9-7.93-13.42-13.32-1.85-2.84-5.29-5-4.34-9.71,7.09,2.26,10.28,8.77,15.92,12,2.94,2.09,5.7,4.54,8.87,6.18,3.68,1.9,5.33,5.09,3.48,8.11-2.39,3.92-5.08-.05-7.5-1.24A26.72,26.72,0,0,1,524.93,402.66Z"/><path class="cls-74" d="M523.1,366c-4.91-7.7-14.24-12.2-16.74-23.35,9.16,6.73,17.28,12.68,25.39,18.65,2.5,1.83,3.77,5.36,2.6,7.14-1.81,2.78-4.75.65-7.1-.89a20.39,20.39,0,0,0-4.17-1.57Z"/><path class="cls-191" d="M251.73,364.35c-5.28-1.06-3.43-5.63-3.86-8.68-.49-3.55-.13-7.19-2.36-10.32L333,294.17c1.87-1.1,3.73-2.18,5.71-.09,2.84,3,4.84,6.46,4.15,10.65-.95,5.78-4.53,9.88-9.52,12.74Q292.52,340.93,251.73,364.35Z"/><path class="cls-192" d="M324.57,276.32c2.3,3.56,6.82,4,9.59,6.88-4.71,8.27-13.84,10.36-21.25,14.56-22.16,12.57-43.58,26.36-66.21,38.18-9,4.72-11.54-3.92-17.48-4.53-.08-4.28,3.4-5.32,6.26-7,26.77-15.94,54.36-30.45,80.93-46.72C318.81,276.2,321.33,273.49,324.57,276.32Z"/><path class="cls-193" d="M324.57,276.32c-20,11.33-40.13,22.53-60.05,34-11.85,6.86-24.22,12.87-35.3,21-2.74.27-4.39,2.12-6,4.08-2.29-1.46-4.82,2.82-7-.3-3.54-5.48.3-8.45,3.91-11.49l92.27-53.6c2.37-1.38,4.64-2.93,7.05-4.22,8.05-4.33,10.56-2.79,10.78,6.55C327.2,272.08,326.66,275.31,324.57,276.32Z"/><path class="cls-194" d="M128.64,632c-3.17,2.7-5.37,5.69-8.95,5.21-2.85-.39-7.17-1.59-6.76-4.69.45-3.44,4.29-6.09,8.14-5.31C123.69,627.77,125.92,630.22,128.64,632Z"/><path class="cls-195" d="M138.78,617c4.25-5.34,9-6.56,14.65-2.57,1.88,1.33,2,2.61.15,4.24C148.07,623.45,143.41,621.61,138.78,617Z"/><path class="cls-196" d="M556.7,103.51a65.71,65.71,0,0,1,7.78.06c4.39.5,7.09,3.2,8,7.5s-1.52,5.52-5.08,7.84c-8.69,5.66-16.63,12-27.93,10.19-2.65-.42-5.1-.53-7.7-2-9-5.18-8.89-7.31-.62-13.88C538.67,107.2,546.1,102.09,556.7,103.51Z"/><path class="cls-197" d="M536,149.31c5.36-2.89,0-5.89.09-8.83,3-.6,4.67,1,5.72,3.56C541.71,147.81,541.11,151,536,149.31Z"/><path class="cls-198" d="M557.76,209.6c6.84-.61,8.77,2.91,7.61,9-4,2.6-7.9,5.33-12,7.78-8.42,5-9.63,4.34-10.45-5.55-1.68-2.17-4.58-3.78-3.4-7.29C544.81,208.55,551.63,210.68,557.76,209.6Z"/><path class="cls-199" d="M537.63,180.09c1.61.52,4-.21,4.69,1.71.81,2.1-1.43,2-2.65,2.6-3.49,2.17-4.86,6.37-8.23,8.68-1.83,1.53-3.24,4.4-6.34,2.12-2.89-.08-7,1.59-7.89-2.27-.65-2.83,3.18-4,5.56-5.15a4.63,4.63,0,0,0,2.57-3.48c2-3.2,4.3-5.93,8.7-4Z"/><path class="cls-200" d="M534,180.33c-3.66-.32-5.19,4-8.7,4a23.91,23.91,0,0,1-2.53.91c-3.47.87-7.33,6.81-9.86,2.8-3-4.7,3.44-6.41,6.72-8.54,3.5-2.26,7.2-4.22,10.81-6.31C535.18,173.8,534.37,177.18,534,180.33Z"/><path class="cls-201" d="M504.59,216.9l-13.17-1.82c6.1-3.44,12.21-6.85,18.29-10.34,3.78-2.17,7.35-3.32,10.2,1.35C517.58,213.63,510,213.7,504.59,216.9Z"/><path class="cls-202" d="M504.59,216.9c3.64-5.68,10.69-6.53,15.31-10.81,4.55.34,6.67,1.85,2.16,5.5-3.19,2.58-6.77,4.66-10.19,7Z"/><path class="cls-203" d="M539.54,213.58c1,2.48,4.33,3.9,3.41,7.29-4.2-.21-7.46,5.58-12.18,1.88l-2.5-2.17C529.18,213.66,535.49,215.44,539.54,213.58Z"/><path class="cls-204" d="M530.12,191.42c2.86-2.78,5.52-5.83,9.55-7,0,.45,0,.91,0,1.36-5.07,8.65.92,10.07,7.33,11.2-3.58,1.31-6.22,9.2-11.09,1.6C533.82,196.3,532,193.82,530.12,191.42Z"/><path class="cls-205" d="M530.12,191.42c5.34-.37,6.32,2.78,5.77,7.15-4.9,3.05-8.88,3.13-10.79-3.37C527.63,195.08,528.29,192.47,530.12,191.42Z"/><path class="cls-206" d="M216.32,305.79l-3.52,0c-9-.24-15.54-6-22.9-9.93-2.45-4.26-5.9-7-11-7.05-6.36-4.54-14.27-7-18.88-13.89-1-4.21-1.7-8.35,2.93-11.07,4.64-1,8.35,1.52,12,3.54,22.13,12.24,45.77,10.92,69.59,8,3.89-.48,7.68-2.25,11.64-.48,3.78,4.16-.12,5.5-2.69,7.4-8.75,6.45-18.69,10.86-28.08,16.21C221.86,300.53,219.17,303.16,216.32,305.79Z"/><path class="cls-207" d="M161.38,276.18c7,2.09,12.26,7.24,18.38,10.88,3.32,2.86,7.33,4.74,10.74,7.48q11.16,5.64,22.3,11.3l0,17.83a5.51,5.51,0,0,1-6.73,1.1c-15.33-7.32-29.7-16.34-44.26-25a6,6,0,0,1-2-3C158.72,289.77,157,282.74,161.38,276.18Z"/><path class="cls-208" d="M216.32,305.79c.07-4.09,1.24-6.11,5.7-8.49,12-6.4,25-11.46,34.82-21.4,3.71-6.75,14-12.06,21.59-11.19,12.91-7,26.33-13.19,38.48-21.3,4.51-3,8.27-4.19,13.1-4.12,1,3.35-.93,5-3.5,6.51q-52,29.7-104,59.38C220.76,306.18,218.7,309.07,216.32,305.79Z"/><path class="cls-209" d="M161.79,297.87c14.49,7.92,29.08,15.69,43.41,23.91a14.89,14.89,0,0,0,7.63,1.89c2.42,3,4.86-.41,7.29,0-1,3.93-4.85,6.89-3.91,11.49-12.39-2.54-21.64-11.18-32.54-16.63-8.6-4.31-16.93-9-24.24-15.31A4.25,4.25,0,0,1,161.79,297.87Z"/><path class="cls-210" d="M161.79,297.87q-1.18,2.69-2.36,5.37c-6.49.34-13.13.92-13.15-8.61.07-2.49.15-5,.23-7.46-3.5-7.32-2.56-14.56.41-21.77l.23-.49c6.19-3.32,2.18-9.07,3.24-13.62.65-2.8-2.93-5.62,0-8.46l2-.69c1.84.75,3.33-.07,4.79-1a4.23,4.23,0,0,1,3.95,5c-1.39,6.42,1.26,12.2,2.08,18.25-3.22,3.53-1.81,7.78-1.86,11.8Q161.59,287,161.79,297.87Z"/><path class="cls-211" d="M695.8,603.11c-.7,2.95-1.39,5.9-2.09,8.85-3.05,1.15.62,4.15-1.53,5.54-3.71,1.37-7.2,2-9.11-2.7,4-1.63,3.09-5.37,3.57-8.5C689.69,605.21,692.2,602.61,695.8,603.11Z"/><path class="cls-212" d="M723.69,632.29l.79.19c.06,1.8.48,3.68.11,5.38-.8,3.64-2,7.31-6.78,7.17-2.15-.06-3.56-1.68-3-3.66.92-3.52.56-8.47,6.67-7.78C722.13,633.67,722.93,632.75,723.69,632.29Z"/><path class="cls-213" d="M683.07,614.8l9.11,2.7c-1,2.24-3.29,2.55-5.16,3.46-3.54,1.72-8.49,4.67-10.59.7S680.72,617.15,683.07,614.8Z"/><path class="cls-46" d="M532.25,470.58c1.15,1.4,2,3.31,3.5,4.11,3.34,1.84,3.17,4.49,1.57,6.83-2.43,3.55-4.34-.17-5.84-1.31-8.61-6.58-17.24-13.24-22.56-26.1,9.84,5.42,14.11,14.66,23.36,16.48Z"/><path class="cls-85" d="M547,505.43c-5.48-2.11-10.84-4.41-14.72-9.12,2.66-2.4.23-9.19,4.78-8.51A20.84,20.84,0,0,1,550.72,496C553.29,499.75,548.19,502.21,547,505.43Z"/><path class="cls-85" d="M547,477.91c1.49.06,2.87.37,3.65,1.85.8,5.36,6.34,4.89,9.3,7.6,2.07,1.9,4.22,4.32,2.89,7-1.83,3.71-4.67.84-6.93-.07a53.69,53.69,0,0,1-7.27-3.65C542.74,487.14,541.17,483,547,477.91Z"/><path class="cls-85" d="M528.6,494.42c-5.76-3.88-10-9.23-14.1-14.76,5.77,2.51,9,9,15.91,9.23C529.81,490.74,529.2,492.58,528.6,494.42Z"/><path class="cls-214" d="M163.24,264.38c-4-5-7.84-9.8-3.66-16.79,1.28-2.14-1.34-4.38-2.37-6.51l.57-20.12c6.66-1.34,10.08,4.1,14.51,7.16,12.54,8.65,24.07,18.66,36.39,27.63,8.95,6.51,10.63,6.61,19.24-.17,15.61-12.28,33-21.79,49.32-33a1.64,1.64,0,0,1,1.7.22c2-1.27,4-2.59,6.07-3.79,3.46-2,4.91-.73,4.92,3,0,7.19.1,14.38.16,21.58.8,9.63-8.79,13.51-11.66,21.11-7.8,2.56-14.72,6.82-21.59,11.19-11.68,1.26-23,4.14-35,4.4C200.5,280.77,181.34,275,163.24,264.38Z"/><path class="cls-215" d="M278.94,222.77c-18.76,12.9-37.64,25.63-56.18,38.84-4.13,2.93-6.71,2.24-10.18-.43-16.61-12.74-33.35-25.32-50-38-1.49-1.14-2.82-2.29-4.82-2.18,0-1.3-.05-2.6-.07-3.91L218.31,251c7.22,2.53,12.19-2.69,16.86-6.1,12.52-9.11,27.79-13.18,40-22.71C276.55,221.09,277.9,221.16,278.94,222.77Z"/><path class="cls-216" d="M446.52,762.24c7.13,2.26,6.34-4.61,8.85-7.69,1.56,5.42,1,10.1-4.79,12.67-1.83.81-4.31,2.19-5.63-.11C444.38,766.11,445.93,763.9,446.52,762.24Z"/><path class="cls-217" d="M459.21,769.86c6.88,2.62,6.11-5.57,10-7.11-2.52,3.89.59,10.75-6.43,12.26-1.71.37-4,1.33-4.92-.29C457.32,773.65,458.71,771.52,459.21,769.86Z"/><path class="cls-218" d="M580.18,228.27c-9.17,3.68-17,9.75-25.5,14.56l-.48-.06c-2.23-2.56-8-3-5.1-8.64,8.68-2.68,15.84-8.26,23.68-12.52,3.86-2.1,7.27-.82,9.79,1.87C584.87,226,580.55,226.4,580.18,228.27Z"/><path class="cls-219" d="M549.1,234.13c-.44,4.14,3.58,5.66,5.11,8.65l-2.19.7-.51-.07-.52.07-5.49-6.21C544.76,234,546.62,233.71,549.1,234.13Z"/><path class="cls-220" d="M146.92,265.4c1.71,7.29-.4,14.51-.4,21.77-8-3.91-17.9-5.1-21-15.64-.9-3-1.78-6.32.31-8.67a6.43,6.43,0,0,1,9.12-.45C138.62,265.88,142.9,264.6,146.92,265.4Z"/><path class="cls-221" d="M269.92,652.22c-6.78-.68-14.07,5.24-20.39-1.54.1-6.94,0-13.91.44-20.84.12-1.84-.4-5.36,3.62-4.89,3.5.42,4.38,3,4.4,5.82a64.82,64.82,0,0,1-1,9c-.77,5.67,1.8,7.82,7.26,7,2.77.53,6.64-1.24,7.38,3.53C271.68,651.45,270.61,651.67,269.92,652.22Z"/><path class="cls-222" d="M269.92,652.22c.57-.65,1.15-1.3,1.72-2,3.72-2.53,7.35-.52,11,.2-1,2.74-3.53,4.07-5.68,5.73C274,656,272.12,653.8,269.92,652.22Z"/><path class="cls-223" d="M190.5,294.54c-5.42.15-9.11-2.2-10.74-7.48C185.34,286.67,189.32,288.59,190.5,294.54Z"/><g class="cls-224"><g class="cls-225"><path class="cls-226" d="M491.8,572a2.69,2.69,0,0,0-3,0q-4.92,2.84-9.92,5.62c-1.15.64-1.16,1.17,0,1.83q19,11.24,38,22.5l.06,0a3.76,3.76,0,0,0,2.17.5L531,595.76a2.34,2.34,0,0,0-1-1.18q-19.1-11.26-38.14-22.57l0,0"/><path class="cls-226" d="M519,569.82a2.69,2.69,0,0,0-3,0q-4.92,2.83-9.92,5.62c-1.14.64-1.16,1.16,0,1.82q13.32,7.86,26.59,15.75l.08,0a3.6,3.6,0,0,0,2.15.5q5.92-3.37,11.87-6.73a2.31,2.31,0,0,0-1-1.19q-13.4-7.87-26.72-15.81l0,0"/><path class="cls-226" d="M304.89,461.31a5.24,5.24,0,0,0-2.2-.71l-11.88,6.73c-.09.52.23.92.88,1.3q12.26,7.23,24.46,14.49l0,0a2.78,2.78,0,0,0,3.11,0c3.2-1.85,6.44-3.66,9.67-5.49,1.51-.86,1.52-1.15.07-2-8-4.77-16.08-9.51-24.09-14.29l-.06,0"/><path class="cls-226" d="M555.44,555.21a2.71,2.71,0,0,0-3.09,0c-3.23,1.87-6.53,3.7-9.78,5.56-1.35.77-1.36,1.09-.06,1.87q10.68,6.33,21.36,12.66l.06,0a3.7,3.7,0,0,0,2.17.49L578,569.13a2.56,2.56,0,0,0-1-1.18q-10.79-6.33-21.49-12.72l0,0"/><path class="cls-226" d="M320.65,452.39a5.24,5.24,0,0,0-2.22-.71l-11.87,6.72c-.13.53.24.93.88,1.3q10.15,6,20.22,12l.07,0a2.73,2.73,0,0,0,3.07,0c3.2-1.85,6.45-3.67,9.68-5.5,1.54-.87,1.55-1.12,0-2-6.61-3.91-13.24-7.83-19.83-11.76l-.05,0"/><path class="cls-226" d="M289.15,470a3.53,3.53,0,0,0-2.21-.49q-5.94,3.36-11.87,6.73a3.06,3.06,0,0,0,1.14,1.24q7.77,4.54,15.44,9.14l.08,0a2.73,2.73,0,0,0,3.06,0q4.9-2.84,9.92-5.62c1.15-.64,1.14-1.16,0-1.82q-7.83-4.58-15.55-9.2l0,0"/><path class="cls-226" d="M545.74,567.57a2.44,2.44,0,0,0-3.12,0q-4.9,2.76-9.79,5.55c-1.41.8-1.41,1,0,1.85q7.71,4.57,15.4,9.15l0,0a4.47,4.47,0,0,0,2.1.63l11.88-6.72c0-.53-.31-.92-1-1.3-5.17-3-10.29-6.08-15.44-9.13l-.1-.06"/><path class="cls-226" d="M336.08,443.43a3.83,3.83,0,0,0-2.14-.54l-11.87,6.73c.08.5.46.88,1.09,1.26,5.16,3,10.28,6.07,15.43,9.12l.12.07c1.29.74,1.71.73,3.09-.05q4.9-2.76,9.79-5.55c1.35-.77,1.35-1,0-1.86-5.13-3.05-10.28-6.09-15.4-9.14l-.08,0"/><path class="cls-226" d="M351.82,434.65a5.15,5.15,0,0,0-2.12-.68l-11.88,6.72c-.16.53.17.93.83,1.31q4.91,2.87,9.74,5.77l.08.05a2.77,2.77,0,0,0,3.07,0q4.92-2.84,9.92-5.62c1.17-.65,1.09-1.18,0-1.83q-4.8-2.77-9.5-5.62l-.12-.07"/><path class="cls-226" d="M504.59,597.57a2.75,2.75,0,0,0-3.08,0q-4.9,2.83-9.92,5.62c-1.17.65-1.11,1.18,0,1.82q4.8,2.79,9.49,5.63l.09.05a5.34,5.34,0,0,0,2.17.7l11.87-6.72c.16-.53-.16-.93-.82-1.32q-4.9-2.86-9.74-5.76l-.07,0"/><path class="cls-226" d="M348.07,504.91c-1.52-.88-2-.84-3.59.09l-9.09,5.14c-1.89,1.08-1.89,1.25,0,2.37q24.51,14.49,49,29l49.22,29.14.2.12c1.45.84,1.86.8,3.39-.07,3.08-1.73,6.14-3.47,9.21-5.21,1.94-1.1,1.93-1.23,0-2.36L401.7,536.66l-53.38-31.6-.25-.15"/><path class="cls-226" d="M483.05,584.82a2.66,2.66,0,0,0-2.95,0q-5,2.88-10,5.7c-1.1.61-1.08,1.12,0,1.74,2.64,1.53,5.24,3.09,7.85,4.64s5.18,3,7.72,4.58l.09,0a2.72,2.72,0,0,0,3,0q4.92-2.84,9.93-5.63c1.18-.65,1.1-1.18,0-1.82q-7.81-4.59-15.56-9.21l-.07,0"/><path class="cls-226" d="M326.29,492a2.68,2.68,0,0,0-3,0c-3.28,1.89-6.61,3.75-9.91,5.63-1.35.77-1.33,1.06.05,1.87,2.52,1.51,5.07,3,7.6,4.51s5.32,3.13,8,4.72l.06,0a2.57,2.57,0,0,0,2.83,0c3.34-1.91,6.68-3.81,10.06-5.69,1.08-.61,1.12-1.13.06-1.75q-7.87-4.63-15.69-9.29l-.06,0"/><path class="cls-226" d="M362.17,477a2.54,2.54,0,0,0-2.81,0q-5.06,2.89-10.16,5.76c-1,.57-1,1.09,0,1.67,1.65.95,3.25,1.92,4.87,2.88s3.42,2,5.1,3l.06,0a2.59,2.59,0,0,0,2.83,0q5.06-2.89,10.16-5.76c1-.57,1-1.08,0-1.67-3.34-1.95-6.67-3.92-10-5.89l-.07,0"/><path class="cls-226" d="M346.44,467.68a2.55,2.55,0,0,0-2.79,0q-5,2.9-10.15,5.76c-1,.57-1,1.09,0,1.67,3.33,2,6.64,3.93,10,5.9l.06,0a2.59,2.59,0,0,0,2.83,0q5-2.9,10.15-5.75c1-.58,1-1.09,0-1.67l-.38-.22c-1.51-.87-3-1.77-4.5-2.65-1.69-1-3.42-2-5.09-3l-.1-.05"/><path class="cls-226" d="M514.23,548.9a2.59,2.59,0,0,0-2.86,0c-3.37,1.94-6.76,3.85-10.16,5.77-1,.57-1.06,1.08,0,1.67l.37.22c1.53.88,3,1.77,4.52,2.66,1.69,1,3.42,2,5.1,3l.09,0a2.6,2.6,0,0,0,2.81,0c3.38-1.92,6.77-3.85,10.17-5.76,1-.57,1-1.1,0-1.69q-5-2.94-10-5.91l0,0"/><path class="cls-226" d="M529.9,558.18a2.56,2.56,0,0,0-2.82,0c-3.37,1.93-6.76,3.86-10.18,5.76-1.1.62-1,1.14,0,1.74h0l.78.45c1.42.82,2.81,1.67,4.22,2.5,1.62,1,3.26,1.91,4.87,2.89l.1.06a2.56,2.56,0,0,0,2.79,0q5.06-2.9,10.17-5.76c1-.57,1.07-1.09.06-1.68q-5-2.94-10-5.91l-.07,0"/><path class="cls-226" d="M373,465.31a2.53,2.53,0,0,0-2.72,0q-5.07,2.9-10.18,5.77c-1.09.61-1,1.14,0,1.75q5,2.89,9.87,5.84l.08.05a2.66,2.66,0,0,0,2.94-.05c1.63-1,3.3-1.88,5-2.82s3.37-1.94,5.09-2.88c1-.56,1.1-1.08.09-1.68-3.39-2-6.75-4-10.12-6l0,0"/><path class="cls-226" d="M367.22,443.77a2.56,2.56,0,0,0-2.83,0c-1.62.95-3.29,1.87-4.94,2.8s-3.35,1.94-5.09,2.87c-1.19.64-1.1,1.18,0,1.82q4.9,2.86,9.73,5.76l.08.05a2.73,2.73,0,0,0,3.06,0c3.27-1.89,6.59-3.76,9.92-5.62,1.05-.58,1.19-1.11.09-1.75-3.35-1.95-6.66-3.91-10-5.89l-.06,0"/><path class="cls-226" d="M382.9,453.06a2.59,2.59,0,0,0-2.92.07c-1.61,1-3.29,1.87-5,2.81s-3.36,1.94-5.08,2.87c-1.05.57-1.09,1.08-.08,1.67q5,2.94,10,5.9l.06,0a2.59,2.59,0,0,0,2.84,0q5.07-2.88,10.16-5.75c1-.56,1.06-1.08.05-1.68q-5-2.92-10-5.9l-.08,0"/><path class="cls-226" d="M398.63,462.36a2.64,2.64,0,0,0-2.94,0q-5,2.87-10,5.68c-1.1.61-1.08,1.13,0,1.73l0,0,.37.21c1.52.88,3,1.77,4.5,2.66,1.66,1,3.34,2,5,3l.09.06a2.67,2.67,0,0,0,2.93-.05q5-2.87,10-5.68c1.08-.61,1.05-1.14,0-1.76-3.32-1.92-6.59-3.87-9.85-5.83l-.06,0"/><path class="cls-226" d="M477,508.77a2.68,2.68,0,0,0-3,0c-3.31,1.9-6.66,3.8-10,5.68-1.07.59-1.1,1.13-.06,1.73l0,0,.54.31c1.47.85,2.89,1.72,4.33,2.57,1.66,1,3.35,1.95,5,2.95l.1.06a2.61,2.61,0,0,0,2.91,0q5-2.88,10-5.69c1.1-.61,1.09-1.11,0-1.73q-5-2.89-9.85-5.84l-.06,0"/><path class="cls-226" d="M492.54,518a2.53,2.53,0,0,0-2.72,0q-5.06,2.88-10.15,5.75c-1.09.6-1,1.14,0,1.74h0l.6.35c1.44.83,2.84,1.68,4.27,2.53,1.62,1,3.27,1.9,4.85,2.89l.14.08a2.67,2.67,0,0,0,3,0c3.31-1.91,6.67-3.8,10-5.68,1-.57,1.13-1.06.11-1.67-3.39-2-6.74-4-10.1-6l0,0"/><path class="cls-226" d="M508.26,527.28a2.58,2.58,0,0,0-2.79,0q-5,2.9-10.15,5.76c-1,.56-1.06,1.08-.06,1.67q5,2.94,10,5.9l0,0a2.59,2.59,0,0,0,2.85,0q5.05-2.89,10.16-5.75c1.12-.62,1-1.14,0-1.73l0,0-.61-.34c-1.44-.83-2.84-1.69-4.27-2.53-1.66-1-3.33-2-5-2.95l-.1-.07"/><path class="cls-226" d="M523.94,536.57a2.56,2.56,0,0,0-2.81,0q-5,2.89-10.15,5.76c-1,.58-1,1.09,0,1.67q5,2.94,10,5.9l.06,0a2.58,2.58,0,0,0,2.82,0q5.05-2.9,10.16-5.76c1-.57,1-1.09,0-1.67l-.37-.21c-1.52-.88-3-1.77-4.49-2.66-1.71-1-3.43-2-5.1-3l-.08,0"/><path class="cls-226" d="M539.61,545.85a2.51,2.51,0,0,0-2.77,0q-5.05,2.89-10.16,5.75c-1,.57-1.07,1.09-.06,1.68,3.32,2,6.65,3.92,10,5.9l0,0a2.61,2.61,0,0,0,2.85,0q5.06-2.9,10.16-5.76c1.1-.61,1-1.14,0-1.73h0l-.62-.36c-1.48-.85-2.92-1.72-4.38-2.59-1.62-1-3.26-1.91-4.85-2.88l-.11-.06"/><path class="cls-226" d="M404.57,484a2.73,2.73,0,0,0-3.05,0c-3.27,1.89-6.61,3.74-9.9,5.62-1.32.75-1.3,1.09,0,1.88,1.61,1,3.24,1.93,4.86,2.88s3.27,1.91,4.86,2.89l.1.06a2.63,2.63,0,0,0,2.91,0c3.32-1.91,6.65-3.81,10-5.69,1.18-.64,1.1-1.17,0-1.81q-4.9-2.85-9.73-5.76l-.09,0"/><path class="cls-226" d="M420.22,493.23a2.66,2.66,0,0,0-3,0q-5,2.85-10,5.68c-1.06.59-1.18,1.12-.1,1.75q5,2.94,10,5.9l.06,0a2.62,2.62,0,0,0,2.95-.06c1.61-1,3.3-1.88,4.95-2.81s3.27-1.9,5-2.8c1.14-.62,1.26-1.15.11-1.81q-5-2.89-9.85-5.84l-.07,0"/><path class="cls-226" d="M467.18,521a2.53,2.53,0,0,0-2.78,0q-5.11,2.93-10.28,5.83c-1,.54-1,1-.05,1.59,3.37,2,6.74,4,10.09,6l.06,0a2.61,2.61,0,0,0,2.84,0c3.37-1.93,6.74-3.85,10.15-5.75,1-.58,1-1.11,0-1.68-1.68-1-3.32-2-5-3s-3.34-2-5-2.95l-.1-.06"/><path class="cls-226" d="M482.85,530.32a2.57,2.57,0,0,0-2.83,0q-5.06,2.91-10.18,5.77c-1,.58-1,1.09,0,1.68q5,2.94,10,5.91l.06,0a2.63,2.63,0,0,0,2.85,0c1.64-1,3.3-1.88,5-2.82s3.37-1.93,5.09-2.88c1.09-.58,1.19-1.12.11-1.75q-5-2.94-10-5.92l-.06,0"/><path class="cls-226" d="M393.55,495.56a2.59,2.59,0,0,0-2.94.06c-1.61.95-3.3,1.87-4.95,2.81s-3.36,1.93-5.09,2.87c-1,.56-1.08,1.08-.08,1.67q5,2.94,10,5.9l.06,0a2.63,2.63,0,0,0,2.84,0q5.06-2.9,10.16-5.76c1-.57,1.07-1.08.05-1.67-3.34-2-6.67-3.92-10-5.91l-.06,0"/><path class="cls-226" d="M503.25,560.51a2.64,2.64,0,0,0-2.89,0q-5.06,2.88-10.15,5.75c-.94.53-1,1.05-.07,1.61,3.36,2,6.73,4,10.07,6l0,0a2.63,2.63,0,0,0,2.86,0q5-2.9,10.15-5.75c1-.59,1-1.09,0-1.65l0,0-.32-.18c-1.54-.89-3-1.8-4.55-2.7s-3.35-1.95-5-2.95a.57.57,0,0,1-.13-.08"/><path class="cls-226" d="M335,479.12a2.55,2.55,0,0,0-2.78,0Q327.13,482,322,484.89c-1,.57-1.08,1.08-.08,1.67q5,2.94,10,5.9l.07,0a2.58,2.58,0,0,0,2.82,0q5.06-2.89,10.16-5.76c1.1-.61,1-1.14,0-1.73l0,0-.62-.35c-1.48-.85-2.92-1.73-4.38-2.59-1.62-1-3.26-1.91-4.86-2.88l-.1-.07"/><path class="cls-226" d="M350.72,488.45a2.61,2.61,0,0,0-2.91,0q-5,2.87-10,5.69c-1.16.64-1.08,1.17,0,1.78l.05,0,.74.42c1.36.79,2.67,1.59,4,2.39,1.67,1,3.35,1.95,5,3l.11.06a2.65,2.65,0,0,0,2.91,0q5-2.86,10-5.68c1.06-.6,1.14-1.12.06-1.75-3.3-1.93-6.59-3.87-9.84-5.83l-.1-.06"/><path class="cls-226" d="M366.33,497.69a2.59,2.59,0,0,0-2.87.06q-5,2.87-10,5.68c-1.1.61-1.11,1.12,0,1.74q5,2.9,9.85,5.83l.08.05a2.68,2.68,0,0,0,2.94,0q5-2.87,10-5.69c1.06-.6,1.11-1.13,0-1.74h0l-.61-.35c-1.48-.86-2.92-1.73-4.38-2.6-1.62-1-3.27-1.9-4.86-2.89l-.12-.07"/><path class="cls-226" d="M460.39,553.38a2.65,2.65,0,0,0-2.9,0q-5,2.87-10,5.68c-1.07.6-1.11,1.13,0,1.76,3.3,1.92,6.59,3.87,9.84,5.83l.07,0a2.64,2.64,0,0,0,2.94,0q5-2.88,10-5.69c1.09-.6,1.14-1.11.09-1.72h0l-.55-.32c-1.5-.87-2.95-1.75-4.44-2.63s-3.27-1.9-4.85-2.88l-.12-.08"/><path class="cls-226" d="M476,562.63a2.55,2.55,0,0,0-2.72,0L463,568.46c-1,.54-1,1,0,1.6l10.09,6,.06,0a2.51,2.51,0,0,0,2.7,0q5.12-2.92,10.28-5.83c1-.54,1-1,0-1.59l-5-2.95c-1.7-1-3.41-2-5.09-3l-.06,0"/><path class="cls-226" d="M377.84,486.26a2.61,2.61,0,0,0-2.93.07c-1.61.95-3.29,1.87-4.94,2.81s-3.36,1.93-5.09,2.87c-1,.57-1.07,1.09-.06,1.68q5,2.94,10,5.9l.07,0a2.59,2.59,0,0,0,2.83,0q5.06-2.89,10.15-5.76c1-.56,1.07-1.08.05-1.67-3.34-2-6.67-3.92-10-5.91l-.08,0"/><path class="cls-226" d="M498.49,539.58a2.59,2.59,0,0,0-2.83,0q-5,2.88-10.06,5.7c-1.15.64-1.1,1.16,0,1.78l.07,0,.74.42c1.36.79,2.68,1.59,4,2.39,1.67,1,3.36,1.95,5,3l.11.06a2.66,2.66,0,0,0,2.93,0q5.07-2.9,10.17-5.77c.94-.53,1-1.05.07-1.61-3.38-2-6.76-4-10.11-6l-.06,0"/><path class="cls-226" d="M451.45,511.73a2.47,2.47,0,0,0-2.71,0q-5.1,2.93-10.27,5.82c-1,.55-1,1-.07,1.59l10.08,6,0,0a2.57,2.57,0,0,0,2.85,0c1.66-1,3.37-1.92,5.07-2.88l5.2-2.95c.91-.5.93-1,.05-1.52l-10.2-6,0,0"/><path class="cls-226" d="M409.2,504.83a2.57,2.57,0,0,0-2.86,0q-5,2.91-10.15,5.76c-1.06.59-1,1.1,0,1.67q5,2.94,10,5.9l.05,0a2.63,2.63,0,0,0,2.85,0c3.33-1.9,6.66-3.8,10-5.68,1.13-.63,1.08-1.17,0-1.78l-.07,0-.93-.53c-1.29-.75-2.55-1.52-3.83-2.28-1.66-1-3.35-1.95-5-2.95l-.14-.08"/><path class="cls-226" d="M424.92,514.13a2.65,2.65,0,0,0-3,.08c-1.56.94-3.2,1.83-4.82,2.75s-3.35,1.93-5.09,2.87c-1.1.59-1.17,1.11-.1,1.74,3.35,1.95,6.66,3.92,10,5.9l0,0a2.56,2.56,0,0,0,2.74,0c3.42-1.94,6.85-3.89,10.28-5.82,1-.58.94-1.1-.06-1.68-3.31-1.93-6.6-3.86-9.84-5.83l-.1-.06"/><path class="cls-226" d="M382,507a2.59,2.59,0,0,0-2.87,0q-5,2.88-10,5.69c-1.07.6-1.16,1.11-.08,1.74,3.32,1.93,6.59,3.87,9.85,5.83l.07,0a2.66,2.66,0,0,0,3,0q5-2.87,10-5.69c1.13-.63,1.06-1.17,0-1.78l-.07,0-.86-.48c-1.32-.77-2.6-1.55-3.9-2.32-1.66-1-3.35-1.95-5-2.95L382,507"/><path class="cls-226" d="M435.76,502.44a2.5,2.5,0,0,0-2.73,0q-5.11,2.93-10.27,5.83c-.9.5-1,1-.14,1.52l10.32,6.11,0,0a2.4,2.4,0,0,0,2.59,0c1.71-1,3.45-2,5.19-2.95s3.36-1.94,5.08-2.87c1.06-.58,1-1.09,0-1.67-3.38-2-6.73-4-10.08-6l0,0"/><path class="cls-226" d="M444.75,544.12a2.69,2.69,0,0,0-3,0q-5,2.85-10,5.68c-1.08.61-1,1.14,0,1.73l0,0,.76.43c1.39.8,2.74,1.63,4.12,2.44,1.66,1,3.34,2,5,3l.08.05a2.55,2.55,0,0,0,2.79,0q5-2.88,10.16-5.75c1.11-.61,1-1.12,0-1.73q-5-2.9-9.84-5.83l-.06,0"/><path class="cls-226" d="M388.79,474.63a2.63,2.63,0,0,0-2.86,0q-5,2.85-10.05,5.69c-1.13.63-1.09,1.18,0,1.79l.07,0,.85.49c1.33.76,2.6,1.55,3.91,2.32,1.67,1,3.36,2,5,3l.13.08a2.6,2.6,0,0,0,2.88,0q5.06-2.89,10.18-5.76c1.05-.59.94-1.1,0-1.67q-5-3-10-5.92l-.06,0"/><path class="cls-226" d="M451.54,566.17a2.47,2.47,0,0,0-2.72,0q-5.1,2.92-10.27,5.82c-1,.54-1,1,0,1.58h0c1.68,1,3.32,2,5,2.95s3.35,2,5,3l.1.07a2.58,2.58,0,0,0,2.79,0l10.27-5.82c1-.54.93-1.06,0-1.61-3.37-2-6.74-4-10.09-6l0,0"/><path class="cls-226" d="M487.5,551.19a2.54,2.54,0,0,0-2.73,0q-5.13,2.92-10.27,5.82c-.95.54-.92,1.06,0,1.61,3.33,2,6.66,3.93,10,5.91l.06,0a2.62,2.62,0,0,0,2.95,0c1.6-1,3.29-1.89,4.95-2.82s3.36-1.93,5.08-2.87c1-.55,1.15-1.06.11-1.66q-5.07-3-10.09-6l0,0"/><path class="cls-226" d="M414.29,471.64a2.59,2.59,0,0,0-2.93,0q-5,2.86-10,5.68c-1.09.61-1.07,1.13,0,1.75,3.31,1.92,6.59,3.87,9.84,5.82l.06,0a2.69,2.69,0,0,0,3,0c1.62-.95,3.29-1.88,4.95-2.82s3.36-1.93,5.08-2.87c1.09-.6,1.05-1.13,0-1.74-3.32-1.93-6.59-3.87-9.84-5.84l-.07,0"/><path class="cls-226" d="M471.82,541.91a2.52,2.52,0,0,0-2.73,0l-10.27,5.82c-1,.54-.93,1.06,0,1.61q5,2.92,10,5.9l.08,0a2.65,2.65,0,0,0,2.93-.06c1.6-1,3.28-1.88,4.94-2.82s3.36-1.93,5.08-2.87c1-.55,1.15-1,.11-1.66-3.38-2-6.73-4-10.08-6l0,0"/><path class="cls-226" d="M445.52,490.14a2.44,2.44,0,0,0-2.6,0L432.53,496c-1,.54-.92,1.05,0,1.6,3.33,2,6.66,3.92,10,5.9l.07,0a2.59,2.59,0,0,0,2.93-.07c1.66-1,3.37-1.91,5.07-2.87s3.28-1.89,5-2.81c1-.55,1.13-1.05.09-1.66-3.38-2-6.73-4-10.08-6l0,0"/><path class="cls-226" d="M461.25,499.45a2.57,2.57,0,0,0-2.83,0q-5.06,2.88-10.16,5.75c-1,.58-1,1.09,0,1.68,3.31,1.93,6.6,3.87,9.84,5.83l.09,0a2.7,2.7,0,0,0,3-.07c1.56-.94,3.21-1.83,4.82-2.75s3.36-1.93,5.08-2.86c1.08-.59,1.21-1.1.1-1.74-3.35-1.95-6.66-3.92-10-5.9l-.06,0"/><path class="cls-226" d="M467.24,575.47a2.47,2.47,0,0,0-2.69,0q-5.12,2.92-10.27,5.82c-1,.58-1,1.08,0,1.65l0,0,.6.34c1.44.83,2.85,1.69,4.28,2.53,1.7,1,3.41,2,5.09,3l.08,0a2.51,2.51,0,0,0,2.69,0q5.13-2.91,10.28-5.83c.93-.52,1-1,.07-1.6q-5.06-3-10.08-6l-.07,0"/><path class="cls-226" d="M429,534.8a2.58,2.58,0,0,0-2.8,0q-5,2.88-10.15,5.75c-1,.56-1.08,1.08-.06,1.68q5,2.93,10,5.9l.05,0a2.56,2.56,0,0,0,2.83,0q5.06-2.89,10.16-5.75c1.11-.62,1-1.13,0-1.73h0l-.83-.48c-1.37-.79-2.7-1.59-4-2.39-1.67-1-3.35-2-5-3l-.1-.06"/><path class="cls-226" d="M357.46,456.08a2.56,2.56,0,0,0-2.83,0q-5,2.89-10.17,5.76c-1,.58-1,1.08,0,1.67,3.34,2,6.66,3.93,10,5.91l.06,0a2.57,2.57,0,0,0,2.83,0c1.66-1,3.38-1.93,5.08-2.89s3.37-1.94,5.09-2.88c1.05-.57,1-1.09,0-1.67-3.34-2-6.68-3.94-10-5.92l-.06,0"/><path class="cls-226" d="M397.67,516.25a2.54,2.54,0,0,0-2.82,0q-5,2.87-10.06,5.69c-1.08.6-1.16,1.12-.07,1.75q5,2.89,9.86,5.84l.08,0a2.64,2.64,0,0,0,2.94,0c1.59-.93,3.22-1.84,4.84-2.75s3.46-2,5.21-3c1-.56,1.09-1.07.07-1.67-3.36-2-6.68-3.93-10-5.92l-.06,0"/><path class="cls-226" d="M456.28,532.7a2.61,2.61,0,0,0-2.91,0c-3.32,1.92-6.68,3.81-10.06,5.7-1.06.59-1.13,1.12-.08,1.72l0,0,.6.35c1.45.83,2.85,1.69,4.28,2.54,1.63,1,3.29,1.9,4.86,2.89l.15.09a2.71,2.71,0,0,0,3,0q4.9-2.85,9.93-5.63c1.14-.63,1.19-1.15,0-1.81-3.29-1.9-6.53-3.83-9.75-5.77l-.1-.06"/><path class="cls-226" d="M413.36,525.54a2.51,2.51,0,0,0-2.76,0q-5.13,2.93-10.3,5.83c-1,.55-.9,1,0,1.6,3.34,2,6.68,3.93,10,5.91l.06,0a2.56,2.56,0,0,0,2.83,0q5.07-2.89,10.18-5.76c1-.58,1-1.09,0-1.65l-.05,0-.32-.18c-1.54-.89-3-1.8-4.56-2.7s-3.35-2-5-3l-.12-.07"/><path class="cls-226" d="M430.09,481c-1.34-.78-1.77-.75-3.23.07-3.24,1.83-6.47,3.65-9.69,5.49-1.38.79-1.39,1.08-.06,1.87,3.2,1.9,6.4,3.81,9.62,5.7l.09.05c1.26.73,1.79.71,3.16-.05,1.63-.91,3.23-1.83,4.85-2.75s3.28-1.89,5-2.8c1.15-.62,1.19-1.16,0-1.83-3.24-1.87-6.43-3.79-9.64-5.69l-.11-.06"/><path class="cls-226" d="M310.54,482.68a2.5,2.5,0,0,0-2.72,0q-5.15,2.93-10.3,5.83c-1,.58-.95,1.09,0,1.65l0,0,.6.35c1.44.83,2.85,1.69,4.27,2.54,1.67,1,3.36,1.95,5,3l.11.06a2.51,2.51,0,0,0,2.77,0q5.07-2.9,10.18-5.77c1-.56,1.08-1.08.06-1.67-3.35-2-6.67-3.94-10-5.92l0,0"/><path class="cls-226" d="M440.6,523.42a2.6,2.6,0,0,0-2.9,0q-5,2.88-10.06,5.7c-1.16.64-1.07,1.17,0,1.77l.08,0,.74.42c1.36.78,2.68,1.59,4,2.38,1.63,1,3.28,1.91,4.86,2.9l.15.09a2.71,2.71,0,0,0,3,0c3.29-1.89,6.59-3.77,9.93-5.62,1.14-.64,1.19-1.16,0-1.83-3.28-1.9-6.53-3.83-9.75-5.76l-.09-.06"/></g></g><path class="cls-9" d="M462.17,499.86l0,47.19s8.8-8.85,22.06-44.84c-.25-4.5-6.85-9.3-6.85-9.3Z"/></g></svg>