<svg id="Layer_1" data-name="Layer 1" xmlns="http://www.w3.org/2000/svg" xmlns:xlink="http://www.w3.org/1999/xlink" viewBox="0 0 1920 1080"><defs><style>.cls-1{fill:#f9e7f7;}.cls-2{fill:#f2e0f0;}.cls-12,.cls-2,.cls-5,.cls-8{opacity:0.7;}.cls-3,.cls-7{opacity:0.5;}.cls-3{fill:url(#linear-gradient);}.cls-11,.cls-4,.cls-6{opacity:0.8;}.cls-4{fill:url(#linear-gradient-2);}.cls-5{fill:url(#linear-gradient-3);}.cls-6{fill:url(#linear-gradient-4);}.cls-7{fill:url(#linear-gradient-5);}.cls-8{fill:url(#linear-gradient-6);}.cls-9{opacity:0.4;fill:url(#linear-gradient-7);}.cls-10{fill:url(#radial-gradient);}.cls-11{fill:url(#linear-gradient-8);}.cls-12{fill:url(#linear-gradient-9);}.cls-13{fill:url(#linear-gradient-10);}.cls-14{fill:url(#linear-gradient-11);}.cls-15{fill:url(#linear-gradient-12);}.cls-16{fill:#c4769d;}.cls-17{fill:url(#radial-gradient-2);}.cls-18{fill:url(#radial-gradient-3);}.cls-19{fill:url(#radial-gradient-4);}.cls-20{fill:url(#radial-gradient-5);}.cls-21{fill:url(#radial-gradient-6);}.cls-22{fill:url(#radial-gradient-7);}.cls-23{fill:url(#linear-gradient-13);}.cls-24{fill:url(#linear-gradient-14);}.cls-25{fill:url(#linear-gradient-15);}.cls-26{fill:url(#radial-gradient-8);}.cls-27{fill:url(#linear-gradient-16);}</style><linearGradient id="linear-gradient" x1="170.72" y1="-1553.09" x2="135.14" y2="-171.36" gradientUnits="userSpaceOnUse"><stop offset="0.11" stop-color="#7f81e6"/><stop offset="0.48" stop-color="#00c9b9"/><stop offset="0.51" stop-color="#1eceac"/><stop offset="0.61" stop-color="#5dd992"/><stop offset="0.69" stop-color="#91e27b"/><stop offset="0.78" stop-color="#bae96a"/><stop offset="0.85" stop-color="#d8ee5d"/><stop offset="0.91" stop-color="#eaf156"/><stop offset="0.96" stop-color="#f0f253"/></linearGradient><linearGradient id="linear-gradient-2" x1="1408.91" y1="1514.34" x2="1610.67" y2="1308.52" gradientTransform="translate(64.35 1125.96) rotate(-73.09)" gradientUnits="userSpaceOnUse"><stop offset="0.07" stop-color="#e6bcc8"/><stop offset="0.35" stop-color="#edc4c8"/><stop offset="0.77" stop-color="#fed9c7"/></linearGradient><linearGradient id="linear-gradient-3" x1="1377.87" y1="1290.68" x2="1532.56" y2="1443.1" gradientTransform="translate(64.35 1125.96) rotate(-73.09)" gradientUnits="userSpaceOnUse"><stop offset="0.07" stop-color="#ffdcd6"/><stop offset="0.08" stop-color="#ffddd7"/><stop offset="0.29" stop-color="#fdeaee"/><stop offset="0.42" stop-color="#fceff6"/></linearGradient><linearGradient id="linear-gradient-4" x1="375.82" y1="1828.57" x2="577.58" y2="1622.75" xlink:href="#linear-gradient-2"/><linearGradient id="linear-gradient-5" x1="170.79" y1="-473.09" x2="135.21" y2="908.64" xlink:href="#linear-gradient"/><linearGradient id="linear-gradient-6" x1="344.79" y1="1604.9" x2="499.47" y2="1757.33" xlink:href="#linear-gradient-3"/><linearGradient id="linear-gradient-7" x1="461.42" y1="814.74" x2="-36.74" y2="555.46" gradientUnits="userSpaceOnUse"><stop offset="0" stop-color="#f0f253"/><stop offset="0.29" stop-color="#a5e37a"/><stop offset="0.48" stop-color="#78da91"/><stop offset="0.5" stop-color="#88d9a1" stop-opacity="0.95"/><stop offset="0.54" stop-color="#a5d7c0" stop-opacity="0.86"/><stop offset="0.58" stop-color="#bdd5d8" stop-opacity="0.79"/><stop offset="0.64" stop-color="#cdd4e9" stop-opacity="0.74"/><stop offset="0.72" stop-color="#d6d3f2" stop-opacity="0.71"/><stop offset="0.94" stop-color="#d9d3f5" stop-opacity="0.7"/></linearGradient><radialGradient id="radial-gradient" cx="942.42" cy="248.76" r="119.92" gradientTransform="matrix(0, 0.79, -0.79, 0, 592.87, -141.15)" gradientUnits="userSpaceOnUse"><stop offset="0.29" stop-color="#aee848"/><stop offset="0.37" stop-color="#aae74a"/><stop offset="0.46" stop-color="#9ee64f"/><stop offset="0.56" stop-color="#89e357"/><stop offset="0.65" stop-color="#6cdf63"/><stop offset="0.74" stop-color="#47da71"/><stop offset="0.83" stop-color="#1ad484"/><stop offset="0.88" stop-color="#00d08e"/></radialGradient><linearGradient id="linear-gradient-8" x1="1680.06" y1="967.12" x2="1920.59" y2="721.76" gradientTransform="matrix(1, 0, 0, 1, 0, 0)" xlink:href="#linear-gradient-2"/><linearGradient id="linear-gradient-9" x1="1697.4" y1="747.61" x2="1864.74" y2="912.51" gradientTransform="matrix(1, 0, 0, 1, 0, 0)" xlink:href="#linear-gradient-3"/><linearGradient id="linear-gradient-10" x1="1982.7" y1="656.53" x2="1575.87" y2="1042.02" gradientUnits="userSpaceOnUse"><stop offset="0" stop-color="#fece82"/><stop offset="0.12" stop-color="#fdbb88"/><stop offset="0.21" stop-color="#fcb38a"/><stop offset="0.29" stop-color="#fbb08c"/><stop offset="0.34" stop-color="#f8a894"/><stop offset="0.36" stop-color="#f5a19b"/><stop offset="0.55" stop-color="#f5a09b"/><stop offset="0.62" stop-color="#ec8ea6"/><stop offset="0.74" stop-color="#df75b5"/><stop offset="0.96" stop-color="#de74b5"/></linearGradient><linearGradient id="linear-gradient-11" x1="2141.98" y1="824.62" x2="1735.14" y2="1210.11" xlink:href="#linear-gradient-10"/><linearGradient id="linear-gradient-12" x1="1686" y1="905.48" x2="1864.32" y2="799" gradientUnits="userSpaceOnUse"><stop offset="0.12" stop-color="#df75b5"/><stop offset="0.5" stop-color="#eb8ea4"/><stop offset="0.97" stop-color="#fcb28b"/></linearGradient><radialGradient id="radial-gradient-2" cx="1646.83" cy="876.97" r="100.47" gradientUnits="userSpaceOnUse"><stop offset="0.29" stop-color="#feb767"/><stop offset="0.45" stop-color="#fdb36a"/><stop offset="0.62" stop-color="#f9a773"/><stop offset="0.79" stop-color="#f29281"/><stop offset="0.88" stop-color="#ed848b"/></radialGradient><radialGradient id="radial-gradient-3" cx="1700.45" cy="750.02" fx="1835.2403638436715" fy="575.1010648649788" r="220.83" gradientTransform="translate(25.39 -103.64) scale(1.08 1.14)" gradientUnits="userSpaceOnUse"><stop offset="0.34" stop-color="#f08f7e"/><stop offset="0.41" stop-color="#eb7f8b"/><stop offset="0.48" stop-color="#e77493"/><stop offset="0.54" stop-color="#e97d8a"/><stop offset="0.63" stop-color="#e98087"/></radialGradient><radialGradient id="radial-gradient-4" cx="180.57" cy="305.55" r="106.12" gradientUnits="userSpaceOnUse"><stop offset="0.16" stop-color="#2c90e5"/><stop offset="0.23" stop-color="#308ce4"/><stop offset="0.31" stop-color="#3c82e2"/><stop offset="0.38" stop-color="#5170dd"/><stop offset="0.42" stop-color="#5c67db"/><stop offset="0.51" stop-color="#605ed9"/><stop offset="0.66" stop-color="#6b46d3"/><stop offset="0.72" stop-color="#7139d0"/></radialGradient><radialGradient id="radial-gradient-5" cx="1392.93" cy="453.66" r="116.95" xlink:href="#radial-gradient-2"/><radialGradient id="radial-gradient-6" cx="1571.31" cy="560.33" r="58.22" xlink:href="#radial-gradient-2"/><radialGradient id="radial-gradient-7" cx="1570.91" cy="687.18" r="217.51" gradientTransform="matrix(0, 0.48, -0.49, 0, 1068, 120.15)" xlink:href="#radial-gradient"/><linearGradient id="linear-gradient-13" x1="236.21" y1="415.13" x2="219.21" y2="1074.93" xlink:href="#linear-gradient"/><linearGradient id="linear-gradient-14" x1="81.44" y1="411.17" x2="64.45" y2="1070.97" xlink:href="#linear-gradient"/><linearGradient id="linear-gradient-15" x1="81.13" y1="-667.83" x2="64.13" y2="-8.03" xlink:href="#linear-gradient"/><radialGradient id="radial-gradient-8" cx="255.55" cy="900.76" r="119.92" gradientTransform="matrix(1, 0, 0, 1, 0, 0)" xlink:href="#radial-gradient"/><linearGradient id="linear-gradient-16" x1="2145.15" y1="-255.84" x2="1738.31" y2="129.66" xlink:href="#linear-gradient-10"/></defs><title>background-learn</title><rect class="cls-1" x="-1" y="1079.5" width="1920" height="1080"/><path class="cls-2" d="M1097.19,1079.69c-242,361.92-258.46,525.36-201,600,86.23,112,330,12.62,440,168,58.34,82.42,72.62,232.67,18,249-35.43,10.6-60.88,11.87-81.33,9.17-55.65-7.37-72.49-27.33-103.67-21.17-20.06,4-46.69,19.82-72,75l-960,2s4-167.82,161-157.91,241-123.61,250-192.09c8.57-65.4-6.26-126-140-143-37.62-4.77-84.51-18.9-127.89-51-12.08-9-29.11-22.73-52.11-51-96.61-118.63-116-249-116-249-15.94-107.23,8.57-193.33,24-236Z"/><rect class="cls-1" x="1" y="-0.5" width="1920" height="1080"/><path class="cls-2" d="M1097-.5c-242,361.92-258.46,525.36-201,600,86.23,112,330,12.62,440,168,58.33,82.42,72.62,232.67,18,249-35.43,10.6-60.89,11.87-81.34,9.17-55.64-7.37-72.49-27.33-103.66-21.17-20.07,4-46.69,19.82-72,75l-960,2s4-167.82,161-157.91S539,800,548,731.5c8.56-65.4-6.26-126-140-143-37.62-4.77-84.51-18.9-127.9-51-12.07-9-29.11-22.73-52.1-51-96.62-118.63-116-249-116-249A499.86,499.86,0,0,1,136-.5Z"/><path class="cls-3" d="M-.76,153a513.15,513.15,0,0,0,90-48.14c69-46.32,116.4-146.64,181.18-258.35H-1.07Q-.92-.26-.76,153Z"/><path class="cls-4" d="M1974.76,354.68c-69.55,8.46-111.86-7.8-137-23-75.58-45.69-54.53-117.21-134.39-157.81-33.46-17-68.31-27.24-114.61-63.68-3.79-3-13.77-13.67-24.91-29-10.82-15-51.23-70.74-36.08-124.55.44-1.55.83-2.8,1.06-3.48l38.27-39.82,571.15,174Q2056.5,221,1974.76,354.68Z"/><path class="cls-5" d="M1949.41,380.11c-128.23-32.42-165.25-73-172-107C1771,241,1787.48,194,1761.59,162.84a85,85,0,0,0-30.28-22.57c-39.35-13.49-82.88,6.82-122.8-2.26s-95-41.07-104.2-66-5.12-23.92-5.12-23.92L1538-61.8,1997.53,77.5Z"/><path class="cls-6" d="M1975,1434.5c-69.54,8.46-111.86-7.8-137-23-75.58-45.69-54.52-117.21-134.39-157.82-33.45-17-68.31-27.23-114.61-63.67-3.79-3-13.77-13.67-24.9-29-10.83-14.94-51.23-70.73-36.09-124.54.44-1.56.84-2.8,1.06-3.49l38.28-39.81,571.14,174Z"/><path class="cls-7" d="M-.69,1233a513.15,513.15,0,0,0,90-48.14c69-46.32,116.4-146.64,181.19-258.35H-1Q-.85,1079.74-.69,1233Z"/><path class="cls-8" d="M1949.65,1459.93c-128.23-32.42-165.25-73-172-107-6.37-32.08,10.08-79.09-15.81-110.27a85.14,85.14,0,0,0-30.29-22.58c-39.35-13.48-82.87,6.83-122.8-2.25s-95-41.07-104.2-66-5.11-23.93-5.11-23.93L1538.21,1018l459.56,139.3Z"/><path class="cls-9" d="M6.77,237.86s121,5.42,232.9,246.31c31,78,171.92,107.21,230.89,123.07s65.16,38.23,82.06,80.53S518.77,910.43,437.19,898.71,6.84,927,6.84,927V244.86"/><ellipse class="cls-10" cx="346.23" cy="581.93" rx="60.63" ry="61.04" transform="translate(-264.99 873.36) rotate(-84.74)"/><path class="cls-11" d="M1463.69,996.31c.64-52.71,11.17-116.48,52.74-169.25,59.39-75.4,128-59.64,174.37-135.71,34-55.89,12.8-94.93,29.85-138.67,1.89-4.86,9.82-18.56,22.22-34.91,12.07-15.91,57.1-75.28,117.56-76.54,1.75,0,3.16,0,4,0l53.25,27.1-.39,645.92Z"/><path class="cls-12" d="M1463.69,996.31c2.25-7.35,50.25-159,138.74-192.92,37.42-14.36,62.33-15.78,62.33-15.78,46.34-2.66,72.31,15.71,90.31-.21,11.69-10.34,13.51-29,13.84-38.45,1.58-45-33.14-83.64-36.3-127.82s12.63-111.25,35.51-128.61,23.15-12.82,23.15-12.82l126,5.55.39,519.52Z"/><path class="cls-13" d="M1917.63,453.23s-128.92-65.83-155,108.34c-16.46,94.63,67.2,145.37,72.68,159.08s57.6,98.75-42.51,111.09-94.63,46.63-116.57,80.91S1541.86,925,1541.86,925c-7.25,2.31-61.92,20.65-78.17,71.31-9.3,29-2.1,56.27,1.16,68.64a149.39,149.39,0,0,0,5.14,15h447Z"/><path class="cls-14" d="M1745.89,1196.29c40,46.28-3.49,103.25,41.32,162.55,33.19,43.92,90.13,56.46,129.5,60.62q.16-169.76.32-339.5H1470c4.47,11.28,12,27.12,23.33,41C1551.18,1192.08,1688.47,1129.83,1745.89,1196.29Z"/><path class="cls-15" d="M1677.13,905.51c27.11-66.38,95-71,95-71,82.95-3.35,81.19-56.9,81.19-56.9l15.59-10.09s22.15,41.87-5.11,62.81-56.22,24.28-101.37,29.31-80.07,71.18-80.07,71.18Z"/><path class="cls-16" d="M1587.67,946.76s3.35-19.26-45-21.61S1474,971.4,1474,971.4s-11.89,25.23-12.76,33c-8.41,7.72,73.66-96.12,123.07-35.82"/><circle class="cls-17" cx="1621.17" cy="930.85" r="64.48"/><path class="cls-18" d="M1864,730a108.86,108.86,0,0,0,53.21,93.52v-187A108.85,108.85,0,0,0,1864,730Z"/><ellipse class="cls-19" cx="163.94" cy="337.84" rx="61.32" ry="57.49"/><circle class="cls-20" cx="1363.06" cy="516.38" r="75.06"/><circle class="cls-21" cx="1556.44" cy="591.55" r="37.36"/><ellipse class="cls-22" cx="677.38" cy="854.85" rx="67.84" ry="67.68" transform="matrix(0.09, -1, 1, 0.09, -235.97, 1451.01)"/><path class="cls-23" d="M444.52,888.84c74.12-73.18-55.18-142.85-169.09-78.23C36.93,929.65,28,698.37,51.17,603.13,127.7,297-.45,237.5-.45,237.5q.42,421,.85,842H130.05c17.82-30.73,38.4-63.27,65.29-93.72C272.14,898.78,370.4,962,444.52,888.84Z"/><path class="cls-24" d="M-.45,1225.86a245.55,245.55,0,0,0,43-23c32.94-22.12,55.58-70,86.52-123.37H-.6Z"/><path class="cls-25" d="M-.76,146.86a245.55,245.55,0,0,0,43-23C75.16,101.75,97.8,53.84,128.74.5H-.91Z"/><circle class="cls-26" cx="224.93" cy="965.07" r="76.97"/><path class="cls-27" d="M1749.05,115.83c40,46.29-3.48,103.25,41.33,162.56,33.19,43.92,90.12,56.46,129.5,60.61q.16-169.74.32-339.5h-447c4.47,11.28,12,27.12,23.33,41C1554.35,111.62,1691.64,49.37,1749.05,115.83Z"/></svg>