<svg id="design02" xmlns="http://www.w3.org/2000/svg" xmlns:xlink="http://www.w3.org/1999/xlink" viewBox="0 0 131.43 157.2"><defs><style>.cls-1{fill:#ffa507;}.cls-2{fill:#ffb32e;}.cls-3{fill:url(#linear-gradient);}.cls-4{fill:#4c4dc2;}.cls-5{fill:url(#linear-gradient-2);}</style><linearGradient id="linear-gradient" x1="15.67" y1="15.67" x2="137.15" y2="114.25" gradientUnits="userSpaceOnUse"><stop offset="0" stop-color="#ee428b"/><stop offset="0.19" stop-color="#ee4588"/><stop offset="0.36" stop-color="#f0507f"/><stop offset="0.51" stop-color="#f1616f"/><stop offset="0.65" stop-color="#f47959"/><stop offset="0.79" stop-color="#f8993c"/><stop offset="0.92" stop-color="#fcbf19"/><stop offset="1" stop-color="#ffda00"/></linearGradient><linearGradient id="linear-gradient-2" x1="37.16" y1="164.76" x2="59.11" y2="-1.57" gradientUnits="userSpaceOnUse"><stop offset="0" stop-color="#4789ea"/><stop offset="1" stop-color="#9233c3"/></linearGradient></defs><title>logo</title><path class="cls-1" d="M27.05,149.17h.05l-.06,0Z" transform="translate(-17.13 -2.01)"/><path class="cls-1" d="M44.43,158Z" transform="translate(-17.13 -2.01)"/><path class="cls-1" d="M44.42,158Z" transform="translate(-17.13 -2.01)"/><polygon class="cls-2" points="63 14.57 63 14.57 63 14.58 63 14.57"/><polygon class="cls-2" points="3.61 16.89 3.62 16.89 3.62 16.89 3.61 16.89"/><path class="cls-2" d="M64.48,6.23h0a1.19,1.19,0,0,0,.15.09Z" transform="translate(-17.13 -2.01)"/><path class="cls-2" d="M147,65.7a21.87,21.87,0,0,0-6.79-8.64l-.05,0A31.19,31.19,0,0,1,147,65.7Z" transform="translate(-17.13 -2.01)"/><path class="cls-2" d="M80,144.76l-1.11.74Z" transform="translate(-17.13 -2.01)"/><path class="cls-2" d="M102.4,129.78l-10.47,7Z" transform="translate(-17.13 -2.01)"/><path class="cls-2" d="M112.54,123l-7.27,4.85Z" transform="translate(-17.13 -2.01)"/><path class="cls-2" d="M116.51,120.36l-1.79,1.2Z" transform="translate(-17.13 -2.01)"/><path class="cls-2" d="M66.34,7.39c-.57-.38-1.14-.73-1.72-1.07L80.13,16.59Z" transform="translate(-17.13 -2.01)"/><path class="cls-2" d="M136.63,54.29l-56.5-37.7,60,40.44A32.2,32.2,0,0,0,136.63,54.29Z" transform="translate(-17.13 -2.01)"/><path class="cls-3" d="M147,65.7A31.19,31.19,0,0,0,140.16,57l-60-40.44h0L64.62,6.32a1.19,1.19,0,0,1-.15-.09C48.33-3.07,28.71,3.84,20.74,18.9h0c.07,0,36.1-16.53,55.12,12.42,5,10.5,10.71,25.26,11.36,39.17.76,16.48-5.65,31.77-29.1,37.4-2.59.65.43,3,6.49,3.89a125.46,125.46,0,0,0,33.76,0c17.45-2.49,37.19-9.82,48-29C149.54,75.71,148.83,70,147,65.7Z" transform="translate(-17.13 -2.01)"/><path class="cls-2" d="M87.47,139.74l-5.57,3.72Z" transform="translate(-17.13 -2.01)"/><path class="cls-2" d="M114.59,121.64l-2,1.31Z" transform="translate(-17.13 -2.01)"/><path class="cls-2" d="M81.9,143.46l-2,1.3Z" transform="translate(-17.13 -2.01)"/><path class="cls-2" d="M118.17,119.26l-1.66,1.1Z" transform="translate(-17.13 -2.01)"/><path class="cls-2" d="M91.86,136.81l-4.39,2.93Z" transform="translate(-17.13 -2.01)"/><path class="cls-2" d="M78.39,145.8l-.55.37Z" transform="translate(-17.13 -2.01)"/><path class="cls-2" d="M77.84,146.17l-.28.18Z" transform="translate(-17.13 -2.01)"/><path class="cls-4" d="M57.87,72l-.25.15a1.64,1.64,0,0,1-.22.14l-.3.2-.25.17-.34.23-.27.19-.42.29-.27.2-.5.36-.27.2-.67.51-.17.13s-40.46,44.73-10.07,84l0,0a31.18,31.18,0,0,0,22.44-5l11.22-7.5.28-.18.55-.37.45-.3,1.11-.74,2-1.3,5.57-3.72,4.39-2.93.07,0,10.47-7,2.87-1.92,7.27-4.85.09-.06,2-1.31.13-.08,1.79-1.2,1.66-1.1.34-.23.72-.48c2.39-1.6,2.48-3.9-1.2-2.44-2.51,1.23-4.9,2.35-7.18,3.39h0s-22.39,12.18-36.91,10.83l-.06,0c-6.63-.31-9.22-3.12-11.92-4.56a34.57,34.57,0,0,1-2.84-2.63,46,46,0,0,1-8.77-10.17,29.36,29.36,0,0,1-2.6-4.25,29,29,0,0,1,10.64-36.9v-.06l0,0C58.22,71.82,58.05,71.92,57.87,72Z" transform="translate(-17.13 -2.01)"/><path class="cls-2" d="M59.1,71.33Z" transform="translate(-17.13 -2.01)"/><path class="cls-1" d="M26.43,150l.05,0-.06-.06Z" transform="translate(-17.13 -2.01)"/><path class="cls-1" d="M43.9,158.82s0,0,0,0h0Z" transform="translate(-17.13 -2.01)"/><path class="cls-1" d="M43.89,158.81h0l0,0Z" transform="translate(-17.13 -2.01)"/><path class="cls-5" d="M75.86,31.32c-19-28.95-55-12.45-55.12-12.42a31.58,31.58,0,0,0-3.61,14.81v93.81a31.13,31.13,0,0,0,9.29,22.42l.06.06a32.18,32.18,0,0,0,17.41,8.81l0,0c-30.39-39.25,10.07-84,10.07-84l.17-.13.67-.51.27-.2.5-.36.27-.2.42-.29.27-.19.34-.23.25-.17.3-.2a1.64,1.64,0,0,0,.22-.14l.25-.15c.18-.12.35-.22.5-.3l0,0c.41-.24.64-.35.71-.39h0a29,29,0,0,1,28.12-.85C86.57,56.58,80.81,41.82,75.86,31.32Z" transform="translate(-17.13 -2.01)"/></svg>