<svg id="design02" xmlns="http://www.w3.org/2000/svg" viewBox="0 0 160.49 160.49"><defs><style>.cls-1{fill:#ffb32e;}.cls-2{fill:#cfa1ff;}.cls-3{fill:#9a5ddb;}.cls-4{fill:#ffa507;}.cls-5{fill:#bd8bf2;}</style></defs><title>logo</title><polygon class="cls-1" points="80.47 16.46 80.47 16.46 80.48 16.47 80.47 16.46"/><polygon class="cls-1" points="21.39 18.77 21.39 18.76 21.39 18.76 21.39 18.77"/><path class="cls-1" d="M64.91,6.16h0l.15.09Z"/><path class="cls-1" d="M147,65.33a21.72,21.72,0,0,0-6.76-8.6l-.05,0A31,31,0,0,1,147,65.33Z"/><path class="cls-1" d="M80.3,144l-1.11.74Z"/><path class="cls-1" d="M102.64,129.07l-10.42,7Z"/><path class="cls-1" d="M112.72,122.35l-7.23,4.82Z"/><path class="cls-1" d="M116.67,119.71l-1.78,1.19Z"/><path class="cls-1" d="M66.75,7.31c-.56-.38-1.13-.72-1.7-1.06L80.47,16.46Z"/><path class="cls-1" d="M136.69,54,80.48,16.47,140.2,56.69A33,33,0,0,0,136.69,54Z"/><path class="cls-2" d="M147,65.33a31,31,0,0,0-6.81-8.64L80.48,16.47h0L65.05,6.25l-.15-.09C48.83-3.1,29.31,3.78,21.39,18.76h0c.07,0,35.92-16.45,54.84,12.36,4.92,10.45,10.66,25.13,11.3,39,.76,16.39-5.62,31.61-28.95,37.21-2.58.64.43,3,6.46,3.87a124.57,124.57,0,0,0,33.58,0c17.36-2.48,37-9.77,47.76-28.83C149.53,75.29,148.83,69.56,147,65.33Z"/><path class="cls-1" d="M87.78,139l-5.54,3.69Z"/><path class="cls-1" d="M114.77,121l-2,1.31Z"/><path class="cls-1" d="M82.24,142.68,80.3,144Z"/><path class="cls-1" d="M118.32,118.61l-1.65,1.1Z"/><path class="cls-1" d="M92.15,136.08,87.78,139Z"/><path class="cls-1" d="M78.74,145l-.54.36Z"/><path class="cls-1" d="M78.2,145.38l-.28.19Z"/><path class="cls-3" d="M58.33,71.63l-.25.15-.21.14-.3.2-.25.16-.34.23-.28.19-.41.29-.27.2-.5.36-.27.21-.66.5-.17.13s-40.26,44.5-10,83.55l0,0A30.9,30.9,0,0,0,66.75,153l11.17-7.45.28-.19.54-.36.45-.3L80.3,144l1.94-1.3L87.78,139l4.37-2.91.07-.05,10.42-7,2.85-1.9,7.23-4.82.09-.06,2-1.31.12-.08,1.78-1.19,1.65-1.1.34-.23.72-.48c2.38-1.59,2.47-3.88-1.19-2.42-2.51,1.22-4.88,2.34-7.15,3.37h0S88.76,131,74.32,129.62l-.06,0c-6.6-.31-9.17-3.11-11.86-4.54a36.24,36.24,0,0,1-2.83-2.62,45.51,45.51,0,0,1-8.72-10.12,29.11,29.11,0,0,1-2.59-4.23A28.83,28.83,0,0,1,58.85,71.37v-.05h0Z"/><path class="cls-1" d="M59.55,70.93Z"/><path class="cls-4" d="M27.05,149.17l.05,0-.06-.05Z"/><path class="cls-4" d="M44.43,158s0,0,0,0h0Z"/><path class="cls-4" d="M44.42,158h0l0,0Z"/><path class="cls-5" d="M76.23,31.12C57.31,2.31,21.46,18.73,21.39,18.76A31.39,31.39,0,0,0,17.8,33.49v93.34A31,31,0,0,0,27,149.14l.06.05A32,32,0,0,0,44.42,158l0,0c-30.24-39,10-83.55,10-83.55l.17-.13.66-.5.27-.21.5-.36.27-.2.41-.29.28-.19.34-.23.25-.16.3-.2.21-.14.25-.15.49-.3h0c.41-.24.64-.36.7-.39h0a28.88,28.88,0,0,1,28-.84C86.89,56.25,81.15,41.57,76.23,31.12Z"/></svg>