<svg xmlns="http://www.w3.org/2000/svg" xmlns:xlink="http://www.w3.org/1999/xlink" viewBox="0 0 1920 1080"><defs><style>.cls-1,.cls-3{opacity:0.5;}.cls-1{fill:url(#New_Gradient_Swatch_1);}.cls-2{fill:url(#New_Gradient_Swatch_1-2);}.cls-3{fill:url(#New_Gradient_Swatch_1-3);}.cls-4{fill:url(#New_Gradient_Swatch_1-4);}</style><linearGradient id="New_Gradient_Swatch_1" x1="619.19" y1="156.24" x2="1826.69" y2="156.24" gradientUnits="userSpaceOnUse"><stop offset="0" stop-color="#6d70da"/><stop offset="1" stop-color="#9233c3"/></linearGradient><linearGradient id="New_Gradient_Swatch_1-2" x1="697.64" y1="193.54" x2="2051.29" y2="193.54" xlink:href="#New_Gradient_Swatch_1"/><linearGradient id="New_Gradient_Swatch_1-3" x1="63.19" y1="916.87" x2="1549.19" y2="916.87" xlink:href="#New_Gradient_Swatch_1"/><linearGradient id="New_Gradient_Swatch_1-4" x1="1312.08" y1="898.14" x2="-0.81" y2="898.14" xlink:href="#New_Gradient_Swatch_1"/></defs><title>protoype</title><g id="Layer_8" data-name="Layer 8"><path class="cls-1" d="M619.19-.46s33.2,156,281.48,140.79c193.64-19.49,285.67-66.25,392.08-23,73.32,29.79,256.83,185.11,333.59,193.39,98.74,10.65,200.35-20.11,200.35-20.11l-116-291Z"/><path class="cls-2" d="M697.64-.46s37.22,193.19,315.55,174.31c217.08-24.13,320.24-82,439.53-28.51,82.2,36.88,287.91,229.18,374,239.43,31.83,3.79,63.92,3.34,93.5.78V-.46Z"/><path class="cls-3" d="M63.19,1130.6V731S360.86,607.38,530.64,837.87s424.44,140.6,424.44,140.6,137-30,250.14,78.37,344,73.76,344,73.76Z"/><path class="cls-4" d="M-.81,1083.6V736.86s263-107.26,413,92.74,375,122,375,122,121-26,221,68,303.89,64,303.89,64Z"/></g></svg>