<svg xmlns="http://www.w3.org/2000/svg" xmlns:xlink="http://www.w3.org/1999/xlink" viewBox="0 0 1920 1080"><defs><style>.cls-1{fill:#bc8af1;opacity:0.4;}.cls-2{fill:url(#New_Gradient_Swatch_3);}.cls-3{fill:url(#New_Gradient_Swatch_3-2);}.cls-4{fill:url(#New_Gradient_Swatch_3-3);}.cls-5{fill:url(#New_Gradient_Swatch_3-4);}</style><linearGradient id="New_Gradient_Swatch_3" x1="697.64" y1="193.54" x2="2051.29" y2="193.54" gradientUnits="userSpaceOnUse"><stop offset="0" stop-color="#d4b7f9"/><stop offset="1" stop-color="#bc8af1"/></linearGradient><linearGradient id="New_Gradient_Swatch_3-2" x1="1308.08" y1="971.96" x2="-4.81" y2="971.96" xlink:href="#New_Gradient_Swatch_3"/><linearGradient id="New_Gradient_Swatch_3-3" x1="1308.08" y1="894.81" x2="-4.81" y2="894.81" xlink:href="#New_Gradient_Swatch_3"/><linearGradient id="New_Gradient_Swatch_3-4" x1="1308.08" y1="894.98" x2="-4.81" y2="894.98" xlink:href="#New_Gradient_Swatch_3"/></defs><title>protoype</title><g id="Layer_8" data-name="Layer 8"><path class="cls-1" d="M619.19-.46s33.2,156,281.48,140.79c193.64-19.49,285.67-66.25,392.08-23,73.32,29.79,256.83,185.11,333.59,193.39,98.74,10.65,200.35-20.11,200.35-20.11l-116-291Z"/><path class="cls-2" d="M697.64-.46s37.22,193.19,315.55,174.31c217.08-24.13,320.24-82,439.53-28.51,82.2,36.88,287.91,229.18,374,239.43,31.83,3.79,63.92,3.34,93.5.78V-.46Z"/><path class="cls-1" d="M408.19,829.54C494.7,944.89,606.15,967.76,685,966.47c-54.44-23.12-109.86-62.81-158.36-128.65C411.59,681.62,237.81,688,137.73,708.41,223.59,705,330.89,726.48,408.19,829.54Z"/><path class="cls-1" d="M1147,1081.54h85.64a214.32,214.32,0,0,1-31.39-24.76C1088,948.45,951.08,978.42,951.08,978.42s-.92.32-2.68.88a262.37,262.37,0,0,1,55.79,40.24C1042.35,1055.42,1095.65,1073.23,1147,1081.54Z"/><path class="cls-3" d="M948.4,979.3c-84.22-45.14-165.21-27.76-165.21-27.76s-40.32,14-98.19,14.93C809.7,1019.43,929.21,985.39,948.4,979.3Z"/><path class="cls-1" d="M59.19,1081.54H1147c-51.32-8.31-104.62-26.12-142.78-62A262.37,262.37,0,0,0,948.4,979.3c-19.19,6.09-138.7,40.13-263.4-12.83-78.85,1.29-190.3-21.58-276.81-136.93C330.89,726.48,223.59,705,137.73,708.41c-47.61,9.69-78.54,22.53-78.54,22.53Z"/><path class="cls-4" d="M59.19,1081.54H1147c-51.32-8.31-104.62-26.12-142.78-62A262.37,262.37,0,0,0,948.4,979.3c-19.19,6.09-138.7,40.13-263.4-12.83-78.85,1.29-190.3-21.58-276.81-136.93C330.89,726.48,223.59,705,137.73,708.41c-47.61,9.69-78.54,22.53-78.54,22.53Z"/><path class="cls-5" d="M-.81,1081.54h60V730.94s30.93-12.84,78.54-22.53C69,711.13,14.07,729.77-.81,735.28Z"/></g></svg>

