<svg id="Layer_1" data-name="Layer 1" xmlns="http://www.w3.org/2000/svg" viewBox="0 0 500 500"><defs><style>.cls-1{fill:#181919;}.cls-2{fill:#e7c49d;}.cls-3{fill:#dcb48e;}.cls-4{fill:#dfdad2;}.cls-5{fill:#e9e9e0;}.cls-6{fill:#e2e2dc;}.cls-7{fill:#2f3233;}.cls-8{fill:#fff;}.cls-9{fill:#c1272d;stroke:#c1272d;}.cls-10,.cls-9{stroke-miterlimit:10;}.cls-10{stroke:#000;}</style></defs><title>Profile</title><path class="cls-1" d="M122.54,307.75c-14-64.48-12.44-116.18-8.86-149.88,3.82-35.89,10.38-54.68,23.37-70.63,14.73-18.09,36.41-30.43,65.12-37.36C237,41.46,272.24,41.72,306.45,54c23.42,8.4,41.65,22.09,43.17,49.77.21,4,.81,7.2,5.19,8.59a30.53,30.53,0,0,1,13,7.7c8.17,8.42,10.25,32.56,10.25,32.56.56,81.16-.31,98.77-5.7,123.79A273.63,273.63,0,0,1,364.08,305c-7.64,22.11-13.12,29.45-15.78,32.34l-.82.84c-6.08,6.17-17.47,14.28-39.64,18.44l-2.91-10.69c-6.88-10.5-4.48-19.9,3.64-28.45C319.47,306,326,292.08,331,277.39c5.14-15.15,9.84-30.12,20.71-42.83,7.56-8.84,9.16-21,2.48-31.3-9.83-15.12-13.32-31.59-14.44-49-.36-5.66-.78-12.69-9.43-8.16-26.44,13.87-53.23,4.11-79.83,1.53-28.83-2.8-56.64-2.19-80.41,17.52-11,10-18.16,23.09-27.93,34.15-8.75,9.91-5.13,31,6.54,44.34a62.66,62.66,0,0,1,13.87,25.53,121.74,121.74,0,0,0,26.88,49.94c4.6,5.13,7,10,7,15,0,4.5-2.19,5.54-5.4,12.81-5.53,12.52-3,18.19-6.71,19.91-3.94,1.81-8.42-3.73-23.05-13.83C148,343.75,147.38,343.71,141,340S126.57,328,122.54,307.75Z"/><path class="cls-2" d="M262.66,498.26c-14.53,17.49-14.53,17.49-29.06,0-18.48-41.59-38.09-82.77-46.24-128.09-1.51-8.43-4.29-16.91,1-25.05,5.79-9.41,5.87-17.51-3.85-25-8.53-6.53-12.53-16.76-17.28-26-9.24-17.95-13.23-37.67-26.63-54.65-14.52-18.38-9.33-31.38,6.86-51.59C153.87,180,156,168.75,166,163.32c24.26-18.67,52.55-19.53,81.24-18.07,20.92,1.07,41.16,8,62.36,7.34,10.77-.33,15.94,7.3,16.72,16.48,5.44,64.14-.31,125.08-50.56,173.2-10.45,10-21.68,15.41-34.79,13.61-3.81-.07-.72,3-1.54.65-.19-.52.36-.57,1.49-.83,23.86-5.56,42.28,8.13,62,17.44,5.64,6.88,1.95,14.13.28,21-7.27,29.9-18.94,58.14-32.82,85.55C267.3,485.61,263.78,491.47,262.66,498.26Z"/><path class="cls-3" d="M303.62,375.31c-26.78-4.95-49.48-23.53-79.13-23.16,24.47,8.14,40-3.12,54-19.9,13.46-16.16,26-32.68,33.22-52.77,12.62-35.05,11.39-71.41,10.58-107.72-.17-7.6-2.36-15.57-12.18-15.48-27.75.24-54.27-9.16-82.38-8.42-22.38.59-41.88,7.46-61.72,15.46,23.39-23.8,53-23.26,82.9-20.82,13.53,1.11,26.93,3.79,40.43,5.46,18.48,2.29,35.76-.38,50.56-14.48,8.74,14.2,2.81,29.91,7.55,43.75,1.71,5,1.47,9.86,6,14.57a36.32,36.32,0,0,1,0,50.11c-7.59,8-11.48,16.54-14.27,27-5.25,19.75-13,39.12-28.32,53.27-8.43,7.77-6.29,14.33-2.86,22.3C313.13,355.68,313.83,366.26,303.62,375.31Z"/><path class="cls-4" d="M311.16,354c8,21.33,26.72,28.45,47.88,32.35,14.8,2.72,29.71,5,44.37,8.27,49.46,11,71.28,35.72,75.78,85.17.48,5.18-1.5,10.95,3.81,15v21.65l-49.51,7c-8.52-16.49-8.41-34.85-11.78-52.32-5.12-26.6-21.2-42.83-46.51-52.55-19.58-7.52-40.63-9.6-60.94-14.41-10.12-2.4-16.48,4.49-23.86,9-10.42,6.31-19.2,6.91-23-6.89-.33-8.82.71-17.68-.71-26.49a13.84,13.84,0,0,1,5.13-9.28C284.85,364.86,295.79,354.71,311.16,354Z"/><path class="cls-5" d="M218.42,522.55c-14.46.94-110.64,7.13-170.36,6.45-9.21-.1-27-.63-34.76-12-4.08-6-2.38-15.8.92-35,8.94-51.91,30.09-71.69,86-81,14.27-2.38,28.39-5.57,42.52-8.65,18.58-4.06,31.59-14.55,39.15-31.11,14.95.39,25.7,10.18,38.43,15.53,6.28,2.65,4.86,8.77,4.75,14,0,.46,0,.91,0,1.36,0,0,0,2,.09,4,.15,4.24,40.77,106.32,22.75,125.51C244.81,524.93,237.69,528.21,218.42,522.55Z"/><path class="cls-6" d="M271.58,395.33c6.16,3.22,10.75,3.31,13.82,2.77,3.94-.69,4.94-2.32,11.07-4.61a66.17,66.17,0,0,1,13-3.16c8-1.05,14.42-.39,18.23.66,23,6.34,47.24,8.14,68.89,19.24,20.32,10.41,33.2,25.35,36.73,47.25,3,18.86,9.58,37.28,7.73,56.73a1305.7,1305.7,0,0,0-141.86-2.72q-10.68.38-21.2.92c-23.73,6.8-31.36,3.73-34.11,0-11.21-15.17,26.45-84.31,23.6-98.17a.13.13,0,0,0,0-.05C265.56,402.6,268.05,397.52,271.58,395.33Z"/><circle class="cls-7" cx="246.99" cy="490.04" r="8.76"/><ellipse cx="193.1" cy="219.86" rx="9.03" ry="20.89"/><ellipse cx="280.94" cy="219.86" rx="9.85" ry="19.97"/><ellipse class="cls-8" cx="197.21" cy="217.39" rx="4.93" ry="11.49"/><ellipse class="cls-8" cx="276.02" cy="217.39" rx="4.93" ry="11.49"/><path class="cls-9" d="M215.7,264h44c3.95,0,6.74,3.54,5.33,6.85-4.81,11.3-17.38,18.63-30.26,17.49-11-1-20.54-7.93-24.46-17.57C209,267.44,211.79,264,215.7,264Z"/><path class="cls-10" d="M187.52,185.61c-5.69,1.2-6.84,1.19-6.9,1-.19-.66,9.58-6.27,17.5-3.25a19.18,19.18,0,0,1,7.13,5.22c2.44,3.17,3.19,4.53,2.92,4.8-.53.52-4.67-5.86-11.79-7.75A18.05,18.05,0,0,0,187.52,185.61Z"/><path class="cls-10" d="M285.94,185.41c5.69,1.21,6.84,1.2,6.9,1,.19-.67-9.58-6.28-17.5-3.25a19.18,19.18,0,0,0-7.13,5.22c-2.44,3.17-3.19,4.53-2.92,4.79.54.53,4.68-5.85,11.79-7.75A18.05,18.05,0,0,1,285.94,185.41Z"/></svg>