<svg id="Layer_1" data-name="Layer 1" xmlns="http://www.w3.org/2000/svg" viewBox="0 0 500 500"><defs><style>.cls-1{fill:#d05852;}.cls-2{fill:#e7c49d;}.cls-3{fill:#f9ec7a;}.cls-4{fill:#c65044;}.cls-5{fill:#dcb48e;}.cls-6{fill:#dfb794;}.cls-7{fill:#e8c6a3;}.cls-8{fill:#dd5f5b;}.cls-9{fill:#fff;}.cls-10{fill:#c1272d;stroke:#c1272d;}.cls-10,.cls-11{stroke-miterlimit:10;}.cls-11{stroke:#000;}</style></defs><title>Profile</title><path class="cls-1" d="M190.17,524,92.51,512.12c-20.17-11.84-44.14-12-65.16-21.2,2.52-69.62,12.77-105.09,81.52-118.29,15.9-3.05,31.55-7.36,47.31-11.08,11.18,2.58,7.4,11.15,6.51,17.78a160.24,160.24,0,0,0,3.8,61.45c9.39,36.91,38.55,59.32,76.87,59.16,40.1-.17,66.95-20.63,76.69-58.67A136.46,136.46,0,0,0,324.72,406c-.06-7.42-.78-15.16,4.42-21.59,26.57-5,65,15.78,76.26,43.19,8.85,21.52,14.33,44.17,11.23,68-1.8,8.46-9.32,9.87-15.69,12.72-26,9.29-53.57,8.15-80.38,12-5.8.85-12.53-2.32-17.23,3.68Z"/><path class="cls-2" d="M330.18,384.26c-.58,23.07.66,46.28-8.22,68.46-15,37.54-47.19,56.46-89.58,52.11-38-3.9-65.35-29.71-72.39-67.95-3.88-21.07-6.06-42.09-1.16-63.31,1-4.27,1.63-8.77-2.65-12,.66-4.9,13.5-.25,7.89-10.06,18.07-14.79,17.93-14.7,4.62-34.65-8.35-12.51-16.14-25.37-20.2-40.07-2.87-10.37-7.35-19.76-14.59-28S123.39,230.29,122,219.59c-3-22.69,6.67-35.11,29.4-35.89,27.78-.95,53-8.73,75.3-25.19,10.47-7.72,20.62-8.55,30.82-.24,18.35,14.95,42.1,18.3,62.29,29.29,14.67,51.08-14.89,134.38-58.24,163.67-8.07,5.45-17.12,7.46-26.12,5.57,33.76-3.66,61.38,18.35,93.14,25.09C329.12,382.67,329.65,383.46,330.18,384.26Z"/><path class="cls-3" d="M318.34,188.89C293,183.41,268.83,175,249.12,157.32c-6-5.41-9.8-2.12-14.49,1.54-25.55,19.95-54.35,30.71-87,29.35-13.71-.57-19.26,7.06-21,18.92-1.7,11.53-.85,24.3,7,32.11,14.06,14,17.76,31.84,24.49,48.9a110.45,110.45,0,0,0,19.24,32.06c4.45,5.11,13.61,8.51,9.15,18.34s-11.87,14-22.42,12.95c-13.53-2.6-27-5.44-40.61-7.72-8.66-1.45-10.63-4.59-5.45-12.32,16.07-24,14.91-49.68,6.76-75.87-11-35.47-20.87-70.81-14.43-108.89,10-59.36,41.63-92.45,101.12-102.86a184.79,184.79,0,0,1,94.6,8.05c47.16,16.6,68.65,51.91,72.19,100.06a225.47,225.47,0,0,1-12.15,90.84c-9.58,27.77-11.47,55.33,0,82.65,4.56,10.9.36,14.84-9.06,16.92-14.06,3.1-28.17,6-42.25,9-16.87-2.25-24.2-15-13.94-27.83,15.64-19.52,26.39-40.8,32.14-64.93,1.5-6.29,6-10.83,10.25-15.46a40,40,0,0,0,10.9-27.28c.08-11.92-4.74-20.66-17.91-22.25C330,192.81,323.56,193.2,318.34,188.89Z"/><path class="cls-4" d="M412.81,498.2c.93-14.49-2-28.58-3.84-42.85-4.82-37.57-29.15-56.34-62.48-66.92-5.34-1.7-10.87-2.8-16.31-4.17l-.95.4c-3.85-7.83-13.82-15.83.62-23.16,20,4.44,40.28,7.88,59.94,13.5,57.15,16.34,59.9,41.69,68.08,88.48.85,4.88.54,10,.78,15,2.58,7.52,1.18,14-7,16.08C439,497.75,426.55,505.7,412.81,498.2Z"/><path class="cls-5" d="M329.85,361.5c-8.15,7.5,2.37,15.51-.62,23.16-38.24-4.42-70.59-28.86-110.33-32,25,9.28,40.8-2.82,55.17-19.94,13.7-16.33,26.43-33.08,33.44-53.54,10.07-29.36,12.37-59.61,10.83-90.33,6.24-.2,12.52,0,18.7-.67,14.84-1.61,20.08,7.46,22.14,19.71,1.72,10.19,1,22-5.56,28.68C337,253.49,334.79,276.42,325,296c-4.77,9.5-10.19,18.5-17.32,26.53-12.16,13.69-10.85,18.37,7.1,28.78C317.08,358.69,325.77,356.68,329.85,361.5Z"/><path class="cls-6" d="M412.81,498.2c12.56-2.63,25-5.82,37.69-7.69,8.12-1.2,7.16-6.91,8.15-12.06,5.55,19.79,3.43,24.28-15.18,26.3-14.11,1.53-28,6.68-42.53,3.53Z"/><path class="cls-7" d="M27.35,490.92c24.15-.41,46.41,5,65.16,21.2-15.77-2.44-31.66-4.29-47.24-7.58C37.79,503,26.54,504.26,27.35,490.92Z"/><path class="cls-8" d="M141.6,154.56c26.92-42,63.21-58.11,107.44-56.17,38.62,1.7,70.47,17.36,94.18,55.37C274.58,118,210.07,117.87,141.6,154.56Z"/><ellipse cx="192.31" cy="239.87" rx="10.69" ry="18.87"/><ellipse cx="281.47" cy="239.87" rx="9.53" ry="20.87"/><ellipse class="cls-9" cx="196.47" cy="237.37" rx="5" ry="11.67"/><ellipse class="cls-9" cx="276.47" cy="237.37" rx="5" ry="11.67"/><path class="cls-10" d="M221.39,286.5H253.8a4.13,4.13,0,0,1,3.93,5.55c-3.54,9.17-12.8,15.11-22.28,14.19a21.77,21.77,0,0,1-18-14.25A4.13,4.13,0,0,1,221.39,286.5Z"/><path class="cls-11" d="M186.64,205.1c-5.77,1.23-6.94,1.22-7,1-.19-.67,9.72-6.37,17.76-3.29a19.46,19.46,0,0,1,7.24,5.29c2.48,3.22,3.24,4.6,3,4.87-.54.53-4.74-5.94-12-7.87A18.5,18.5,0,0,0,186.64,205.1Z"/><path class="cls-11" d="M286.55,204.91c5.77,1.22,6.94,1.21,7,1,.19-.68-9.72-6.37-17.76-3.3a19.45,19.45,0,0,0-7.24,5.3c-2.47,3.21-3.23,4.59-3,4.86.54.54,4.74-5.94,12-7.86A18.26,18.26,0,0,1,286.55,204.91Z"/></svg>