<svg id="Layer_1" data-name="Layer 1" xmlns="http://www.w3.org/2000/svg" viewBox="0 0 500 500"><defs><style>.cls-1{fill:#1d1e1e;}.cls-2{fill:#515151;}.cls-3{fill:#393c3d;}.cls-4{fill:#e7c49d;}.cls-5{fill:#dcb48e;}.cls-6{fill:#e9e4db;}.cls-7{fill:#e8e3da;}.cls-8{fill:#fff;}.cls-9{stroke:#000;}.cls-10,.cls-9{stroke-miterlimit:10;}.cls-10{fill:#c1272d;stroke:#c1272d;}</style></defs><title>Profile</title><path class="cls-1" d="M107.07,372.38c-2.79-72.94-2.33-145.91.34-218.8C109.63,93,139.66,57,198.07,42.93c35.7-8.62,71.8-8.36,106.85,4.22,24,8.61,42.67,22.63,44.22,51,.22,4.11.83,7.38,5.32,8.81,20.43,6.49,22.5,23.93,23.83,41.25,5.66,73.53,1.26,147.08-.05,220.63-16.68,9.27-31.73-3.75-47.77-3.44-10.85-3.8-19.39-10.9-27.11-19.14-7.05-10.76-4.6-20.39,3.73-29.14,11.17-11.74,17.87-26,23-41.07,5.26-15.53,10.07-30.86,21.21-43.89,7.75-9.06,9.39-21.53,2.54-32.06-10.07-15.5-13.64-32.37-14.79-50.25-.37-5.8-.8-13-9.66-8.36-27.09,14.2-54.54,4.21-81.8,1.56-29.53-2.86-58-2.23-82.39,18-11.23,10.24-18.59,23.67-28.61,35-9,10.15-5.25,31.74,6.7,45.42a64.15,64.15,0,0,1,14.21,26.16A124.76,124.76,0,0,0,185,318.74c8.65,9.66,9.77,18.45,1.62,28.46a63.57,63.57,0,0,1-26.44,18.4C142.57,368.47,126,379.38,107.07,372.38Z"/><path class="cls-2" d="M107.07,372.38l54.4-11.1c1.67,10.89-7.41,15.49-13.34,21.35C128,402.52,113.44,426,99.74,452.74c16.93-4.28,32.36-7.41,47.33-12,14.41-4.43,25.51-1.52,35.88,9.55,15.6,16.64,32.16,32.38,48.3,48.51,9.39,13.12,18.7,12.59,27.95-.15,16.53-16.43,33.15-32.77,49.37-49.51,9.3-9.6,19.3-12.78,32.36-9,15.56,4.49,31.37,8.22,49.25,12.37-7.26-15.77-15.78-28.12-23.5-40.92-3.36-5.57-9.65-11.2-1.88-18.11,23.21-.56,35.63,15.18,43.57,32.93,11.63,26,16.57,53.89,12,82.7-82.87,12.68-166,19.59-249.89,12.43-44.18-3.77-88-9.74-131.69-17.45-8.87-1.57-12.51-4.38-12-14.62a312.23,312.23,0,0,1,9.55-61.79C42.22,404.4,58.32,389.73,80,381,88.77,377.49,98,375.22,107.07,372.38Z"/><path class="cls-3" d="M420.39,509.08c-6.37-22.32-4.61-45.9-11.22-68.3-7.27-24.62-25.25-42.54-47.31-44.57-15.47-7.41-28.83-16.8-32.65-35.06,17-1.86,32.17,8.41,49,7.68,7.62,6.17,17.46,6.35,26.23,9.09,42.93,13.39,53.25,48.35,57.53,86.64,4,35.8,3.21,35.91-32.45,43.47C426.56,508.67,423.45,508.74,420.39,509.08Z"/><path class="cls-4" d="M260.05,502.34c-14.89,17.92-14.89,17.92-29.78,0-18.93-42.61-39-84.8-47.37-131.24-1.56-8.64-4.4-17.33,1.07-25.67,5.93-9.64,6-17.93-3.95-25.57-8.74-6.69-12.83-17.18-17.7-26.64-9.47-18.39-13.55-38.6-27.29-56-14.87-18.84-9.55-32.16,7-52.87,6.52-8.13,8.74-19.62,18.93-25.19,24.86-19.12,53.84-20,83.23-18.51,21.44,1.09,42.18,8.19,63.9,7.52,11-.34,16.33,7.48,17.13,16.89,5.58,65.71-.32,128.15-51.8,177.45-10.71,10.27-22.22,15.8-35.64,13.95-3.91-.07-.74,3.06-1.59.67-.19-.54.38-.58,1.53-.85,24.45-5.7,43.32,8.32,63.47,17.86,5.78,7.05,2,14.48.3,21.48-7.45,30.63-19.42,59.57-33.63,87.65C264.8,489.38,261.19,495.38,260.05,502.34Z"/><path class="cls-5" d="M302,376.37c-27.44-5.08-50.7-24.11-81.08-23.73,25.07,8.34,41-3.2,55.29-20.4,13.8-16.56,26.64-33.48,34-54.06,12.93-35.91,11.67-73.17,10.84-110.37-.17-7.79-2.42-16-12.48-15.87-28.43.26-55.61-9.38-84.41-8.62-22.92.6-42.9,7.65-63.23,15.84,24-24.38,54.32-23.83,84.93-21.33,13.87,1.13,27.6,3.88,41.43,5.6,18.93,2.34,36.64-.4,51.81-14.84,8.95,14.55,2.88,30.64,7.73,44.82,1.76,5.14,1.51,10.11,6.13,14.93a37.22,37.22,0,0,1,0,51.35c-7.77,8.19-11.76,16.94-14.61,27.66-5.39,20.24-13.3,40.08-29,54.58-8.64,8-6.45,14.68-2.93,22.85C311.76,356.26,312.48,367.09,302,376.37Z"/><path class="cls-6" d="M184,345.42c5.91,48.21,21.67,93.27,43.12,136.61,3,6.06,10.9,12.22,3.18,20.3-17.12-16.81-34.65-33.23-51.2-50.59-7.76-8.14-14.5-11.4-26.2-7.64-19,6.1-38.79,9.68-60.61,14.88,15.42-40.09,42.08-69.06,69.21-97.7Z"/><path class="cls-7" d="M302,376.37c1.13-10.58,5.65-20.68,4.4-31.59l22.79,16.37q16.34,17.52,32.65,35.06c12.49,19.46,26.9,37.8,36.59,62.89-20.12-5-38.28-8.36-55.69-14-14.38-4.69-24.25-2.06-34.46,9.37-15.07,16.86-32.07,32-48.25,47.89-5.4-4.33-2.78-9-.39-13.46C278.74,453.23,292.09,415.44,302,376.37Z"/><ellipse cx="186.44" cy="213.98" rx="9.17" ry="27.5"/><ellipse cx="275.6" cy="213.98" rx="10" ry="27.5"/><ellipse class="cls-8" cx="190.6" cy="211.48" rx="5" ry="11.67"/><ellipse class="cls-8" cx="270.6" cy="211.48" rx="5" ry="11.67"/><path class="cls-9" d="M180.77,179.21c-5.78,1.23-6.94,1.21-7,1-.19-.68,9.72-6.37,17.76-3.3a19.45,19.45,0,0,1,7.24,5.3c2.47,3.22,3.23,4.6,3,4.87-.54.53-4.74-5.94-12-7.87A18.37,18.37,0,0,0,180.77,179.21Z"/><path class="cls-9" d="M280.68,179c5.77,1.23,6.94,1.22,7,1,.19-.67-9.72-6.37-17.76-3.29a19.46,19.46,0,0,0-7.24,5.29c-2.48,3.22-3.24,4.6-3,4.87.54.53,4.74-5.94,12-7.87A18.5,18.5,0,0,1,280.68,179Z"/><path class="cls-10" d="M253.31,270.5H213.2c-3.59,0-6.13,1.23-4.85,2.38,4.38,3.93,15.83,6.48,27.57,6.08,10-.34,18.7-2.76,22.28-6.11C259.42,271.71,256.88,270.5,253.31,270.5Z"/></svg>