<svg id="Layer_1" data-name="Layer 1" xmlns="http://www.w3.org/2000/svg" viewBox="0 0 500 500"><defs><style>.cls-1{fill:#494949;}.cls-2{fill:#606060;}.cls-3{fill:#515151;}.cls-4{fill:#e7c49d;}.cls-5{fill:#dcb48e;}.cls-6{fill:#6c6c6c;}.cls-7{fill:#6d6d6d;}.cls-8{fill:#e8e3da;}.cls-9{fill:#fff;}.cls-10{fill:#c1272d;stroke:#c1272d;}.cls-10,.cls-11{stroke-miterlimit:10;}.cls-11{stroke:#000;}</style></defs><title>Profile</title><path class="cls-1" d="M115,364.57c-27.58-28.72-28.21-67.41,0-94.56,8.17-7.87,8.94-13.45,5.28-23.58C107.35,210.9,100,174.34,103.3,136.14,107.45,88.53,130.37,53.5,175,36.3c43.59-16.81,88.89-17.77,133.5-2.38,25,8.63,44.29,23.52,45.87,53,.23,4.29.93,7.66,5.57,9.11,20.38,6.34,22.77,23.59,24.33,41a281.27,281.27,0,0,1-12,111.17c-3,9.53-2,14.61,5.33,21.86,28.17,27.65,27.57,66.17-.13,94.48-8.58,10.45-18.91,4.08-28.49,2.62-6.93-1.06-13.47-4.11-20.12-6.48-9.45-4.31-17.42-10.39-23-19.3-5.89-9.34-3.54-17.77,3.48-25.14,12.13-12.73,19.62-28.07,25.18-44.39s10.65-32.1,22.3-45.66c8.07-9.39,10.11-22.78,2.44-33.34-9.91-13.64-16-28.56-21.38-44.16-3.43-10-9.25-14.48-21.1-11.1-24.17,6.91-48.22-3.19-72.66-2.21-38.36,1.55-67.11,16.41-84.22,51.5-3.23,7.2-6,14.59-8.72,22-1.61,4.41-4.05,9.09-9.45,8.65-5.93-.5-5.79-6.24-6.76-10.58s0-9.23-1.54-13.68c-6.48,14.34-5.27,28.76,6.31,41.71,8.27,9.24,13.08,19.41,16.36,30.94a127.36,127.36,0,0,0,27.3,49.83c8.79,9.93,11,19.06,2.25,29.71-5,6.64-11.79,10.91-19,14.75-10.52,5.18-21.69,8.37-33.13,10.64C126.23,372.24,119.28,372.25,115,364.57Z"/><path class="cls-2" d="M115,364.57c19,7.37,34.69-5.68,52.05-8.44-.81,17.6-16.52,24.08-26.65,34.3-7.44,7.51-9.89,13.08-2.84,21.64,30.24,36.76,61.72,72.18,102,98.51,4.58,3.43,9.15,3.35,13.73-.08,41.46-27.61,74.27-64,104.84-102.69,4-5,6.27-11.73,13.47-13.61,25.78,2.37,39.43,19.2,47.85,41.3A149,149,0,0,1,429,481.77c.52,12,4.18,21.61,12.62,29.73-37.27,8-75.23,11.23-113,14.79-97.73,9.19-194.57.36-291-16.12-13.79-2.35-19.68-6.69-18.15-22.62a371.58,371.58,0,0,1,9.8-58.24c9-34.48,36.83-47.29,67.78-56.06C103.34,371.46,112.52,374.62,115,364.57Z"/><path class="cls-3" d="M441.63,511.5c-13.65,0-18.08-7.2-17.33-20.16,1.08-18.54-4.39-36.35-9.38-53.81-6.48-22.7-23.68-35.35-45.9-41.6-23.26-5.71-39-21.11-39.94-39.1,16.19,2.18,31.18,11.94,48.4,7.64,2.06,6.18,7.79,6.39,12.71,7.49,69.44,15.54,73.79,46.65,81.73,99.43.3,1.94,0,4,.12,5.93C473.71,509.15,473.72,509.15,441.63,511.5Z"/><path class="cls-4" d="M182.17,344.16c7.37-9.91,6.87-18.4-3.34-26.54-9.44-7.52-14-18.87-19.31-29.3-9.38-18.53-12.83-39.09-27.55-56.22-12.06-14-14-34.74,2.22-53.69,6.5,12.3,3.82,24.27,7.15,36.74,9.21-8.28,6.42-21.37,13.88-29.1,29.65-52.42,77.1-57.78,129.8-48.87a110.41,110.41,0,0,0,15.67,1.38c24.06.58,29.41,5.07,29.82,28.51.51,28.25,1.38,56.45-4.84,84.55-8,36.12-26.32,65.58-52.26,91.12-10.07,9.91-21.53,14.39-32.41,12.74,24.5-6.05,45.63,5.84,64.11,24.77,0,23.27-2.79,45.57-21.21,62.62-25,4-50.1,4.42-75.13-.19-13.52-9.54-16.16-24.86-19.62-39.23C184.49,384.06,176.17,364.88,182.17,344.16Z"/><path class="cls-5" d="M302.25,380.92C282.81,373,268.49,352.33,242.86,359c-5.9,1.54-15.44-2.05-22.13-9.81,13.79.61,27.35,8.79,38.66-.72,22.92-19.27,42-42.16,53.05-70.18,15.35-38.82,14.11-79.85,12.63-120.64-.26-7.35-3.06-14.64-12.51-15-29.38-1.07-58.52-7.91-88.09-4-23.35,3-42.21,14.24-56,33.3-3.88,5.37-7,11.16-13.26,14.13,14.29-35.53,42.46-51.93,78.84-55.92,15.66-1.72,31.45-.15,47.14,2.26,9.68,1.49,19.7,2.59,29.39,1.77,25.3-2.13,30.23.28,36.87,24.58,2.59,9.51,5.07,17.38,13.48,24.49,12.32,10.42,10.66,36.66-2.2,50.42a61.58,61.58,0,0,0-15.43,28.5C337.64,284.48,328,305.59,311.08,322c-6.76,6.55-6.74,11.91-1.38,18.52C315.16,355.44,318.11,369.92,302.25,380.92Z"/><path class="cls-6" d="M302.25,380.92c5.91-12.84,7.45-26.48,7.45-40.41l19.38,16.32c7.24,19.24,24.92,27.81,39.94,39.1-3,15.73-15,26.08-24.88,36.6-27.88,29.82-53,63.1-91,81.77,3.28-28,17.43-51.4,32.06-74.56C293,420.76,299.88,401.49,302.25,380.92Z"/><path class="cls-7" d="M182.17,344.16c5.72,32.59,12,65,25.25,95.62,15.33,22.83,28.06,46.77,32,74.49-12.3-2.33-21.14-11.25-29.33-18.93-28.59-26.83-57.48-53.53-80.23-86-5.65-8.05-6.43-12.12,2.79-18.55A137,137,0,0,0,167,356.13Z"/><path class="cls-8" d="M239.42,514.27c-9.81-25.2-24.72-48.21-32-74.49l77.77,0C278,466.09,262.86,489,253.13,514.3,248.54,522,244,522.18,239.42,514.27Z"/><ellipse cx="193.5" cy="224.76" rx="9.17" ry="20.24"/><ellipse cx="282.67" cy="225.26" rx="10" ry="20.74"/><ellipse class="cls-9" cx="197.67" cy="229.52" rx="5" ry="11.67"/><ellipse class="cls-9" cx="277.67" cy="229.52" rx="5" ry="11.67"/><path class="cls-10" d="M216.51,290h44.56c4,0,6.81,3.17,5.39,6.13-4.87,10.11-17.59,16.67-30.63,15.65-11.1-.87-20.78-7.1-24.75-15.73C209.73,293.11,212.55,290,216.51,290Z"/><path class="cls-11" d="M187.83,197.25c-5.77,1.23-6.94,1.21-7,1-.19-.67,9.73-6.37,17.76-3.3a19.56,19.56,0,0,1,7.24,5.3c2.48,3.22,3.24,4.6,3,4.87-.54.53-4.74-5.94-12-7.87A18.37,18.37,0,0,0,187.83,197.25Z"/><path class="cls-11" d="M287.74,197.06c5.78,1.22,6.94,1.21,7,1,.2-.68-9.72-6.37-17.76-3.3a19.45,19.45,0,0,0-7.24,5.3c-2.47,3.21-3.23,4.59-3,4.86.54.53,4.74-5.94,12-7.86A18.26,18.26,0,0,1,287.74,197.06Z"/></svg>