<svg id="Layer_1" data-name="Layer 1" xmlns="http://www.w3.org/2000/svg" viewBox="0 0 500 500"><defs><style>.cls-1{fill:#44919b;}.cls-2{fill:#6d3016;}.cls-3{fill:#dab390;}.cls-4{fill:#cca483;}.cls-5{fill:#e6e2d9;}.cls-6{fill:#d5ae8c;}.cls-7{fill:#d6b08e;}.cls-8{fill:#d9b390;}.cls-9{fill:#454240;}.cls-10{fill:#fff;}.cls-11{fill:#c1272d;stroke:#c1272d;stroke-miterlimit:10;}</style></defs><title>Profile</title><path class="cls-1" d="M161.62,533c-12.33-8.71-28.06-1.1-40.68-8.43a47,47,0,0,0-15-5.79c-8.06-1.53-11.47-7.11-10.15-14.79s7-11.13,14.63-11.39c2.71-.09,5.38.44,8.08.57,26.12,1.23,51.63,7.51,78.58,3,15.58-2.61,32,8.9,49.39,7.15,10.75-1.09,21.63-.28,31.4-6.18,3.49-2.1,7.65-4.32,11.52-3.07,30.34,9.81,60.29-.21,90.4-1.4,5.55-.22,11,0,15.05,4.32,4.42,4.74,6.26,10.37,3.78,16.8-2.24,5.83-6,8.74-12.55,6.74s-11.85,1-17.18,4.06c-14,7.58-30.91-.15-44.74,8.41Z"/><path class="cls-1" d="M368.85,524.59c3.91-5.15,7.27-14,15.09-9.52,8.89,5.11,11.74.73,11.81-5.81.08-8.33-5.14-15.26-14.3-11.92-16.92,6.17-34.75,1.13-51.94,6.34-10.36,3.14-22.76,3-33.57-2.95-3.42-1.87-7.15-4.7-11.3-2.15-27.06,16.56-54.21,13.85-81.81,1.26-8.18-3.73-14.59,5.72-23,4.8-20.65-2.26-41.43-3.39-62-6.17-7.72-1.05-15.35-4.31-18.3,5.64-3.11,10.48,5.64,8.73,11.77,10.67,3.87,1.22,6.48,6.39,9.66,9.79C83.82,525.9,48.22,514,11.46,511.88,5.07,511.52-1,507.39.13,498.25c3-25.42,5.15-51,13.63-75.4,6.89-19.82,22-32.09,40.66-39.83,34.25-14.2,71.15-18.41,106.81-27.36,5.2-.46,8.73,2.79,12.53,5.55,43.1,31.32,94.67,33.43,139.88,5.77,7.42-4.53,14.12-10.39,22.87-12.5,22.15,5.33,44.16,11.32,66.47,15.86,58.63,12,80.6,35.58,87.86,95.87,5.07,42.14,5.28,44-35.93,48.74C426.26,518.23,398.11,526.84,368.85,524.59Z"/><path class="cls-2" d="M119.46,171.94c-2.57-19.55-2-39.09-.64-58.73,3.41-49,34.9-74.66,76.7-89.51C238.67,8.36,281.88,5,318.91,40c11,10.38,20.15,21.68,33.76,30.24,20.68,13,19.83,38.61,22,60.54,1.58,16.07,0,32.45-.17,48.69-7.22,21.13-6.11,46.84-31.77,57.85a8.42,8.42,0,0,1-2.81-5.24,14.16,14.16,0,0,1,.24-4c8.94-35.88,8.94-35.88-22.91-52.27a6.21,6.21,0,0,1,1.08-5.59c7.88-5.38,16.83-3.94,25.52-3.76,6.52.12,12.81-.06,12.91-8.71s.78-18-5.27-25.08c-2.29-2.71-6.29.13-9.19,1.77-56.34,31.92-117,33.3-178.93,25.1-10.15-1.34-10.17-1.25-22,4.81,13.39,4.4,26.23-1,37.07,4.8a6.23,6.23,0,0,1,2.71,4.86,5.28,5.28,0,0,1-2.28,3.18c-34.44,16.09-35.35,18.85-18,55.51-.35,3.52-2.46,5.26-5.79,5.79a16.77,16.77,0,0,1-15-11.52C133.91,208.29,119.67,192.71,119.46,171.94Z"/><path class="cls-3" d="M117.46,171.94c12,21.57,17.5,46.77,35.81,64.87,17.2.2,34.44,6,51.57-.45,14.92-5.78,19.07-19.91,25.69-32.38,8.19-15.42,25.78-17.39,31-2.21,10.83,31.26,33,40,62.5,39.45,9.21,4.53,6.76,12.15,4.74,19.29-9.69,34.36-30.49,61.3-57.46,83.72-10.83,9-23.55,12.81-37.61,7.22,7.71,3.32,15.45,3.06,23.57,1.15,9.79-2.31,15.8,1.21,15.24,12.32-27.92,16.72-79.48,4.25-94.66-22.87,6-9.42,7.2-17.34-3.19-25.64-12.34-9.87-19.33-24.16-25.55-38.49-7.65-17.64-12.34-35.93-26.3-51.34C109.41,211.75,116,190.62,117.46,171.94Z"/><path class="cls-4" d="M271.33,362.82c-3.29-7.46-8.57-9.91-16.26-6.59-13.09,5.66-22.37-3.86-33.2-7.21,42.54,3.81,79.42-24.57,97.67-77.27,3-8.54,11.29-17.22,3.89-27.56,2.16-10,10-8.09,16.89-8,20.44-10.37,13.95-36.09,28.4-49.94,1.79-1.71,2.54-4.5,3.76-6.8,9.75,16.18,9,34.54-1.79,47.26-12.41,14.67-17.37,31.21-23.83,47.95-6.62,17.15-16.1,33-30.25,44.89-8.18,6.91-5.93,12.13-.55,18.43C310.19,359.23,292.71,368.94,271.33,362.82Z"/><path class="cls-5" d="M271.33,362.82c19.16-.64,34.42-8.29,44.73-24.85q10.23,8.25,20.45,16.51c-48.36,49.31-133.21,49.88-175.28,1.18,2.27-8.55,10.34-10,16.66-13.61Q219.13,377.06,271.33,362.82Z"/><path class="cls-6" d="M177.82,172.18c-9.43,0-18.88.41-28.28-.16-5.32-.32-12.29,7.27-15.56-1-2-5-1.55-12.84,1.13-17.48,3.55-6.15,11.14-2.36,16.73-1.34a342.86,342.86,0,0,0,124.6.2c28.41-5.17,53.77-16.06,78-33.5,4.45,15.71,5,30.17,5.55,44.72.35,9.29-2.27,11-11.7,9.24-10.4-2-21.45-.59-32.21-.66Q246.93,195.4,177.82,172.18Z"/><path class="cls-7" d="M316,175.62c31.58-.8,45.71,10.41,24.3,56.57-30.46,20.39-71.59,12-78.41-30.86-1.56-9.84,1.25-17.08,9.32-19.7C285.54,177,300.13,170.47,316,175.62Z"/><path class="cls-8" d="M156.85,233.12C141.9,221.49,140.52,205,145,189.24s20.71-11.67,32.89-13.57c15.91-5.23,30.42,1.58,44.93,6,6.5,2,11.46,8.25,9.79,15.93-4.09,18.83-9.29,37.24-31.77,42.51C186,239.18,170,245.17,156.85,233.12Z"/><path class="cls-9" d="M202.61,236.91l3.87,3.85c-18.33,6.74-36.17,6.82-53.21-3.95l3.58-3.69C171.75,238.63,187.32,236.16,202.61,236.91Z"/><path d="M204.05,213.11c0,22-4.8,20.89-11.05,20.89s-11.6,1.14-11.6-20.89S185.75,183,192,183,204.05,191.08,204.05,213.11Z"/><path d="M315.23,213.11c0,22-5.41,20.89-12.23,20.89s-12.47,1.14-12.47-20.89S296.18,182,303,182,315.23,191.08,315.23,213.11Z"/><ellipse class="cls-10" cx="197.88" cy="209.49" rx="6.18" ry="16.92"/><ellipse class="cls-10" cx="296.7" cy="209.49" rx="6.18" ry="16.92"/><path class="cls-9" d="M202.61,236.91c20.25-5.39,23.29-22.76,26.22-39.34,1.53-8.62-5.17-13.62-13.15-15.26-12.53-2.57-25.19-4.46-37.79-6.64,0-1.17-.06-2.33-.07-3.49,8.08.11,16.58-1.36,24.18.63a173.85,173.85,0,0,0,89.86,0c7.6-2,16.1-.52,24.19-.64,0,1.14,0,2.28-.07,3.43-8,1.19-16.05,2.2-24,3.62-11.11,2-24.23,1.66-27.13,16.34-2.7,13.63,11.78,35.95,24.43,40.89,17.88,7,34.44,2,51-4.28.05,1.33.07,2.66,0,4a36.31,36.31,0,0,1-16.88,8c-31.79,3.31-42.32-4.8-49-10.4-7.26-6.09-12.75-15.16-15.84-28.3-1.29-5.51-5.08-9.4-11.5-9.39-7.36,0-10.13,4.8-12.51,10.9-5.58,14.3-10.11,29.71-28.11,33.76C202.26,242.43,201.62,240.49,202.61,236.91Z"/><path class="cls-11" d="M227,261.5h44.56a5.73,5.73,0,0,1,5.39,7.73C272.08,282,259.36,290.29,246.32,289c-11.1-1.1-20.77-9-24.74-19.86A5.73,5.73,0,0,1,227,261.5Z"/><path class="cls-9" d="M178,172a181.15,181.15,0,0,1-22,0c-3.87-.25-5.8-.52-9,0-6.34,1-8.22,3.64-13,3-2.57-.35-4.36-1.42-7-3a32.41,32.41,0,0,1-8.34-7.18q.51,5.66,1,11.31S139,228,153,237l4-4a29.27,29.27,0,0,1-7-6c-7.88-9.33-7.27-20.89-7-26,.35-6.56.75-14.11,6.32-19.13,3.53-3.18,7.69-4.42,11.91-5C175,175,178,176,178,176Z"/><path class="cls-9" d="M315,176c23.78,4.34,28.82,4.16,32.29,8.76C350.45,189,349.91,194,349,203a77.19,77.19,0,0,1-9,29v5a35.79,35.79,0,0,0,10-9c7.41-9.9,8.74-23.13,14-36,1.22-3,2.75-6.2,6-8,1.77-1,2.89-.9,4-2,2.25-2.23,1.69-6.53.65-10.24-10.67,4-18.94,4.05-24.65,3.24s-5.77-2-13.49-3.24c-6.21-1-12.06-1.07-23.51-.76-13.5.36-15,.6-15,1S299.7,173.21,315,176Z"/></svg>