<svg id="Layer_1" data-name="Layer 1" xmlns="http://www.w3.org/2000/svg" viewBox="0 0 500 500"><defs><style>.cls-1{fill:#ea5f24;}.cls-2{fill:#f16d49;}.cls-3{fill:#dab390;}.cls-4{fill:#42210b;}.cls-5{fill:#cba483;}.cls-6{fill:#dfd9d1;}.cls-7{fill:#d3cec6;}.cls-8{fill:#fff;}.cls-9{stroke:#000;}.cls-10,.cls-9{stroke-miterlimit:10;}.cls-10{fill:#c1272d;stroke:#c1272d;}</style></defs><title>Profile</title><path class="cls-1" d="M160.78,529c-14.87-7.45-31.34-5.56-47.07-7.92-8.39-1.25-17.14-.23-25-4.52-8.24-10.83-8.44-22.88-1.65-33.6,6.55-10.34,18.13-6.15,27.68-4.86A973.7,973.7,0,0,0,379.59,478c33.45-4.63,40.61,3.92,32.39,37.67-5.86,9.11-15.14,9.21-24.47,9.25-20.89.11-41.73,1-62.43,4.05Z"/><path class="cls-1" d="M329.17,349.05c21.61,10.85,45.57,13.23,68.63,18.57,67.8,15.71,82.28,31,92.39,100.07.47,3.15,2.1,6.13,3.19,9.2v28.05c-9.82,9.8-22.41,9.45-34.88,9.56-16.06.55-22.72-8-22.83-23.28-.05-6.65-2.4-13.1-3-19.68-4.47-50.25-34.73-74.93-81.74-83.76-16.27-3.06-32.77-5.64-48.12-12.45C300.83,355.79,315.55,353,329.17,349.05Z"/><path class="cls-2" d="M458.49,509.56c-16.05,5.22-32.89,4.73-49.37,6.85.23-34.07.07-35.28-31.45-31.27A1041.25,1041.25,0,0,1,209,492.61c-33-1.17-66.32-2.92-98.61-9-20.36-3.85-23.56,2.06-21.76,19,.49,4.61.11,9.31.13,14-25.29-1.09-49.84-7.2-74.76-10.79-8.12-1.17-9.41-5.35-8.69-12.3,2.54-24.45,5-49,13-72.35,8.22-24,27.64-36.39,50.35-44.59C100,365.22,134,364.4,164.81,351.38c12.21-3.61,20,5,28.5,10.81,20.06,13.67,19.9,13.9,29.43-8.64a6.34,6.34,0,0,1,5-2.1,8.89,8.89,0,0,1,4,3.86c2.12,5.07,2.32,10.47,1.68,15.74-1.4,11.47,4.26,15.94,14.87,16,9.63.05,17.34-1.72,16.38-14.3-.4-5.22.31-10.9,6.81-13,5.8,12.57,16.38,14.39,28.53,12.69,32.48,5.57,65.12,10.25,95.21,25.17,39.21,19.44,40.54,57.6,45.36,93.14C442.39,503.72,444.63,510.66,458.49,509.56Z"/><path class="cls-3" d="M229.37,354a19.08,19.08,0,0,1-2.71.32C213,345,195.06,341.5,186.15,325.44c-20.48-20.82-35.41-44.77-41.52-73.69C143,244,136.4,240,132,234.25c-12.41-16.24-18.41-33.68-6.19-53,5.24.88,8.92,1,9.75-6.45.81-7.24.45-15.81,8.56-20.39,16-2.14,31.7,1.48,47.56,1.92,30.6.84,56.07-8.24,76.76-31a87.29,87.29,0,0,1,30.7-21.87c21.95-9.23,34.33-2.18,36.77,21.45,5,48.37,9.55,96.74-7,144.18-9.27,26.51-26,47.83-45.16,67.45C269,351.72,251,359,229.37,354Z"/><path class="cls-4" d="M140.92,156.34c-1.37,12.73-2.74,25.45-4.14,38.34-9.15-1.29-6.45-11.1-12-14.43-1.26-13.91-3.77-27.83-3.55-41.71C122.43,69,161.66,25.77,231,17.21c29.17-3.6,57.43.71,83.48,14.33,54.15,28.32,65.24,64.38,61.16,128.93-.42,6.62-1.75,13.18-2.65,19.78,0,4,.4,8.1-1.61,11.76-2.68,4.85-6.29,9.42-12.37,8.25-5.48-1.06-6-6.69-6.54-11.21-1.31-10-.76-20-.71-30,.07-14.3-2.65-28-9.44-40.54-10.61-19.65-27.61-24.58-46.86-13.25-8.56,5-17.07,10.45-23.72,18.18-28.9,33.63-66.91,37.64-107.58,33C156.42,155.58,148.68,151.46,140.92,156.34Z"/><path class="cls-5" d="M140.92,156.34c5.81-9.28,14.63-4.2,21.43-3.27C205,158.93,243.24,152.29,273,118a42.5,42.5,0,0,1,4.52-3.92c15.06-13,31.15-24.7,52.09-15.52,21.16,9.28,25.24,29.9,27.35,49.88,1.66,15.73.33,31.78.33,48.39,12.69-.38,9.64-12.5,15.71-16.55,9.24,16,8.71,34.07-1.95,46.61-12.25,14.42-17.31,30.62-23.43,47.21-7.26,19.69-20.39,35.53-34.79,50.41-9.1,19.07-31.18,19.46-45.21,31.49-13.58,6.32-26.77,7.54-39-3.12l-.22.15c13-9,29.84-2.19,43.61-14.91,35.37-32.68,58.13-70.84,60.73-118.95,1.82-33.78,1.25-67.74-3.25-101.56-1.39-10.47-4.89-13.36-14.72-13.58-15.62-.35-28,7.84-36.58,18C243.28,163.26,199,166,150.9,156.7,147.68,156.07,144.26,156.44,140.92,156.34Z"/><path class="cls-6" d="M185.15,324.44c12.56,10.95,32,12.29,40.51,28.88-2.19,9.69-4.38,19.38-6.84,30.24-20.4-7.06-33.15-26.71-54-32.17C172,342.68,181.3,335.63,185.15,324.44Z"/><path class="cls-7" d="M268.72,352.58c11.58-14.25,31.23-15.84,44.08-28.1.65,11.4,12.84,15.1,16.37,24.57q-14.55,11.7-29.11,23.39l-21,11A44.65,44.65,0,0,1,272.85,361C269.82,359,266.66,357.07,268.72,352.58Z"/><path class="cls-3" d="M268.72,352.58q2.05,4.19,4.13,8.38c-4.45,2.26-3,6.61-4,10.25-1.58,6.05,6.76,14-4.33,18.4-11.86,4.68-23,4-34.22-1.27-6.18-2.9-2.52-7.66-2.3-11.91.41-7.85.39-15.72.55-23.58C242,355.76,255.37,357,268.72,352.58Z"/><ellipse cx="194.18" cy="220.29" rx="9.2" ry="27.59"/><ellipse cx="283.64" cy="220.29" rx="10.03" ry="27.59"/><ellipse class="cls-8" cx="198.36" cy="217.78" rx="5.02" ry="11.7"/><ellipse class="cls-8" cx="278.62" cy="217.78" rx="5.02" ry="11.7"/><path class="cls-9" d="M188.49,185.41c-5.79,1.23-7,1.21-7,1-.19-.68,9.76-6.39,17.82-3.31a19.58,19.58,0,0,1,7.26,5.32c2.49,3.23,3.25,4.61,3,4.88-.54.53-4.75-6-12-7.89A18.38,18.38,0,0,0,188.49,185.41Z"/><path class="cls-9" d="M288.73,185.21c5.79,1.23,7,1.22,7,1,.2-.67-9.75-6.39-17.81-3.3a19.54,19.54,0,0,0-7.27,5.31c-2.48,3.23-3.24,4.61-3,4.88.54.54,4.76-6,12-7.89A18.5,18.5,0,0,1,288.73,185.21Z"/><path class="cls-10" d="M218,281a93.78,93.78,0,0,0,12.5,1.52A97.83,97.83,0,0,0,273,275a37.61,37.61,0,0,1-6.1,4.46A53.49,53.49,0,0,1,234.66,286,48.71,48.71,0,0,1,218,281Z"/></svg>