<svg id="Layer_1" data-name="Layer 1" xmlns="http://www.w3.org/2000/svg" viewBox="0 0 500 500"><defs><style>.cls-1{fill:#9d6f4c;}.cls-2{fill:#e7c49d;}.cls-3{fill:#42210b;}.cls-4{fill:#8e633f;}.cls-5{fill:#dcb58e;}.cls-6{fill:#e8e8df;}.cls-7{fill:#e2dfd6;}.cls-8{fill:#4d4d4d;}.cls-9{fill:#fff;}.cls-10{stroke:#000;stroke-miterlimit:10;}.cls-11{fill:#c1272d;}</style></defs><title>Profile</title><path class="cls-1" d="M461.34,528.47c-40.66,8.36-82,11.46-123.19,15.32-104.9,9.84-208.81-.19-312.45-16.27-17.63-2.74-24.18-9.17-19.77-27,3.21-12.94,4.6-26.36,6.33-39.62,5-38.17,28.9-58.79,63.81-69.22,29.5-8.81,60.74-10.73,89.48-22.53,7-.8,12,3.33,14.76,8.39,13.31,24.68,37.23,39,55.83,58.47,8.8,9.37,18.2,11.19,28.48,2.3,17.12-16.57,30.55-37.19,52.89-48,33.63-.08,64.65,9.24,92.78,27.31,24.19,15.54,29.85,41.29,35.3,67.17C448.79,500,446.34,517.45,461.34,528.47Z"/><path class="cls-2" d="M186.1,341.94c-20.55-20.65-34.65-44.92-41.69-73.33-1.07-4.32-3.29-9.3-6.6-11.95-20.24-16.19-19.22-37.76-16.27-60,13.88-16.71,21.3-40,46.29-45.45,44.85-14.33,87.49-8.77,128.25,14.11a91.85,91.85,0,0,0,16.73,6.93c27.64,9,26.36,9.13,28,37.22,3.74,62.63-22.07,112-65.8,154a28.14,28.14,0,0,1-12.92,10,39.92,39.92,0,0,1-22.28.55C221,364.86,198.15,362.48,186.1,341.94Z"/><path class="cls-3" d="M164.15,156c-11.93,4.18-19.56,13.51-24.68,24-4.13,8.43-11.43,11.76-17.93,16.72-4.29-19-11.22-38.47-7.05-57.46,6.08-27.74,21.88-52,39.23-73.95,15-18.93,38.37-26.16,62.11-29.61,11.72-1.71,45.08-10.66,76.3,1.24,1.78.67,11.14,5.49,29.87,15.13,9.65,5,15.07,7.83,20,14,2.6,3.25,3.37,5.31,7,9,5.69,5.78,10.11,7.13,14,10,7.21,5.3,9.41,13.42,12,23,4.46,16.47,6.93,48.44,4.6,89.58a20.93,20.93,0,0,1-19.06-10.75c-2.86-5.38-1.79-12.91,2.63-24-22.16,20.06-45.36,17.46-68.34,4.56C252.83,143.8,209.6,138.19,164.15,156Z"/><path class="cls-4" d="M461.34,528.47c-14,1.06-16.24-6.07-18-19.13-4.75-34.59-5.62-72.19-42.8-91.92a194.59,194.59,0,0,0-86.4-22.92c-.17-12.76,5.81-21.64,17.1-27.18,24.12,10.31,50,13.86,75.39,19.18C462,398.14,484,421,492.29,477c.59,4,.84,8,1.45,12C499.39,526,499.4,526,461.34,528.47Z"/><path class="cls-5" d="M164.15,156c37-20.38,74-17.34,111.18-.55,10.35,4.68,20.32,10.31,30.93,14.27,19.69,7.36,38,3.64,55.86-11.64,1,16.8-.1,32.92,17.48,39.55,1.67,23.08,1.83,45.24-18.9,62.11-4.73,3.85-4.92,13.41-7,20.41-7.14,24.37-21.72,44-39,62-10.75,15.4-23.64,26.26-44.2,20.81,4.6-13,16.35-20.75,24.88-30.26,36.74-40.95,42-89.65,39.57-141-.19-4-.18-9.33-5.06-9.71-30.95-2.37-54.48-24.36-84.59-30.54C216.91,145.58,191.06,153.15,164.15,156Z"/><path class="cls-6" d="M186.1,341.94c16.06,11.54,34.36,18.78,52.11,27.06-5.34,11.93-5.89,22.42,1.62,35,6.69,11.14,2.27,24.48-5.62,35.38-18.47-17.65-41.48-30.73-54-54.47-3.32-6.31-7.58-12.56-14.69-15.71C172.89,360.45,182.11,353.17,186.1,341.94Z"/><path class="cls-7" d="M270.49,362.89c17.08-2,30.47-11.75,44.2-20.81.44,11.73,13.34,15.3,16.51,25.24L314.1,394.5q-23.24,23.92-46.48,47.86c-11.11-11.13-8.14-25.58-4.49-37.1,4.11-13,2.92-24.13-.82-36.07Z"/><path class="cls-8" d="M262.31,369.19c10.83,10,17.45,18.25,5,34.13-7.3,9.3-1.71,25.84.35,39-12.13,10-23.54,12-33.41-3-1.24-16.5,11-34.18-8.77-49.33-6.52-5,7.62-14.07,12.76-21Z"/><ellipse cx="189.85" cy="223.3" rx="9.79" ry="29.37"/><ellipse cx="285.1" cy="223.3" rx="10.68" ry="29.37"/><ellipse class="cls-9" cx="194.3" cy="220.63" rx="5.34" ry="12.46"/><ellipse class="cls-9" cx="279.76" cy="220.63" rx="5.34" ry="12.46"/><path class="cls-10" d="M183.8,186.16c-6.17,1.31-7.41,1.3-7.48,1.07-.2-.72,10.39-6.81,19-3.52a20.94,20.94,0,0,1,7.74,5.65c2.64,3.44,3.45,4.92,3.16,5.2-.58.57-5.07-6.34-12.78-8.4A19.75,19.75,0,0,0,183.8,186.16Z"/><path class="cls-10" d="M290.52,186c6.17,1.31,7.41,1.3,7.48,1.07.2-.72-10.39-6.8-19-3.52a20.82,20.82,0,0,0-7.74,5.66c-2.64,3.43-3.45,4.91-3.16,5.19.58.57,5.07-6.34,12.78-8.4A19.75,19.75,0,0,1,290.52,186Z"/><path class="cls-11" d="M224.48,290H255c2.75,0,4.68,1.55,3.7,3-3.34,4.95-12.06,8.17-21,7.67-7.61-.43-14.25-3.48-17-7.7C219.83,291.52,221.76,290,224.48,290Z"/><path class="cls-3" d="M211.77,292h60c5.38,0,9.18-3.46,7.26-6.69-6.55-11.06-23.68-18.22-41.22-17.11-14.94.95-28,7.76-33.31,17.19C202.64,288.6,206.44,292,211.77,292Z"/></svg>