<svg id="Layer_1" data-name="Layer 1" xmlns="http://www.w3.org/2000/svg" viewBox="0 0 500 500"><defs><style>.cls-1{fill:#e7c49d;}.cls-2{fill:#76c3ba;}.cls-3{fill:#42210b;}.cls-4{fill:#dcb58e;}.cls-5{fill:#56bdb6;}.cls-6{fill:#dabb97;}.cls-7{fill:#e4c7a3;}.cls-8{fill:#f1e8df;}.cls-9{fill:#fff;}.cls-10{fill:#c1272d;stroke:#c1272d;}.cls-10,.cls-11{stroke-miterlimit:10;}.cls-11{stroke:#000;}</style></defs><title>Profile</title><path class="cls-1" d="M154.71,363.18c4.63-2.83,9.45-5.39,13.85-8.52,6.76-4.8,11.78-9.13,12.05-14.19.39-7.24-9.55-13.15-11.61-14.47-11.76-7.57-28.24-34-50-113.37,6.42-20.73,8.46-22.82,31-22.49,31.33.47,62.07-2.16,91.66-13.21a107.24,107.24,0,0,0,34.42-20.26C292.29,142.26,297,143.3,307.57,162c2.41,4.26,4.69,8.56,5.51,13.45.65,28.5,2.13,56.92-3.66,85.32-7,34.12-24,61.89-48.33,86.05-9.3,9.24-19.8,13.49-31.2,12.13,29.85-6.57,53.28,18.14,82.31,21.24A9.41,9.41,0,0,1,315,388c-16.08,39.07-38.8,74.2-64.72,107.28-10.56,13.47-18.39,13-29.14-.76a545.61,545.61,0,0,1-64.36-105.62C153,380.82,147.92,372.32,154.71,363.18Z"/><path class="cls-2" d="M154.71,363.18c2.61,28.36,19.91,50.41,32.92,74,10.18,18.49,23.41,35.36,35.88,52.52,11.43,15.73,14,15.48,26.08-.46,21.67-28.59,40.21-59.13,56.73-90.94,1.92-3.7,4.53-7,6.81-10.57,8.49.49,14.3,17,25,4.13,21.27-3.2,45.1,10.9,55,34.91,8.77,21.25,14.39,43.59,11,67.12-2,8.22-9.69,9.05-15.64,12.19-22.61,8.36-46.63,8.38-70.07,10.71-76.73,7.63-153.28,4.56-229.47-7.39-13.1-7.87-28.09-10.08-42.43-14.25-6.81-2-14.49-1.67-19.95-7.32-1.8-21,2.49-41.21,8-61.14,7-25.27,25.52-39.94,49.3-47C107.08,372.78,131.07,368.57,154.71,363.18Z"/><path class="cls-3" d="M309.4,175.65l-15.89-27.86C253.08,190.34,201.12,197.16,147,194.5c-15.73-.77-20.84,8.75-27.92,18.13-4.16-26-6.1-52.07-.69-78.19,8.13-39.3,30.71-65.33,69.88-76.17a167.86,167.86,0,0,1,90.23-.19c43,11.64,70.64,45,74.5,89a294.31,294.31,0,0,1-.87,62C333.72,203.22,318.06,193.9,309.4,175.65Z"/><path class="cls-4" d="M309.4,175.65l42.69,33.42c-3,17.7-4.59,36-21.31,47.65-5,3.49-1.07,7.5,0,11.27a131.06,131.06,0,0,1-34,65.87c-4.65,13,7,14.44,13.8,19.39,6.79,9.19,9.71,18.58,1.6,28.58-20.15-1.39-39.92-4.11-56.05-17.91-4.69-4-9.77-5.08-15.23-2.8-11.14,4.67-18.89-2.59-28.28-7.67,24.8,11.05,39.28-2.81,54-18.88,27.2-29.61,39.65-64.87,42.06-104.11C309.85,212.25,309.23,193.93,309.4,175.65Z"/><path class="cls-5" d="M400.56,495.91c1.69-20.14-3.09-39.52-8-58.64-6.65-25.82-34.06-45.72-54.42-40.94-11.19-9.95-10.76-18,1.64-30.95,11.12,5.23,23.32,6.57,35,9.83,55.19,15.43,61.74,37.15,69.63,87.76.93,6,1.05,12.12,1.55,18.18C440,495.12,420,501.62,400.56,495.91Z"/><path class="cls-3" d="M339.76,365.38c-3.16,10.18-9,20.22-1.64,30.95.9,9.43-4.88,7.23-10.18,5.83-7.62-2-10.87-8.54-14.8-14.37-.32-2-.64-4-.95-6,1.13-10.57,2.67-21.23-6.59-29.47-6.62-4.25-14.07-7.91-12.53-17.88C309.84,314.71,317.85,290,330.75,268,351.8,298.78,350.88,331.61,339.76,365.38Z"/><path class="cls-6" d="M400.56,495.91c15.17-4.76,32.91-1.62,45.35-14.77,6.12,13.29-.82,19.48-12.75,20.81-14.82,1.66-29.41,6.44-44.61,4.17Z"/><path class="cls-7" d="M26.62,487.87c22.7,1.66,44.8,5.09,62.38,21.57C73.6,507,58.07,505.21,42.83,502,35.49,500.48,24.41,501.19,26.62,487.87Z"/><path class="cls-8" d="M293.07,334.48l12.53,17.88C292.33,348.61,289.91,345.17,293.07,334.48Z"/><ellipse cx="184.86" cy="239.66" rx="9.17" ry="20.66"/><ellipse cx="274.03" cy="239.66" rx="10" ry="20.66"/><ellipse class="cls-9" cx="189.03" cy="237.16" rx="5" ry="11.67"/><ellipse class="cls-9" cx="272.03" cy="237.16" rx="5" ry="11.67"/><path class="cls-10" d="M226.37,301.87c10.61,0,17.72-4.17,17.89-3.81s-8.73,6.5-20,5.89c-9.44-.51-16.43-5.46-16.2-5.92S215.62,301.87,226.37,301.87Z"/><path class="cls-11" d="M177.19,216.89c-5.77,1.23-6.93,1.21-7,1-.19-.68,9.73-6.37,17.76-3.3a19.47,19.47,0,0,1,7.24,5.3c2.48,3.22,3.24,4.6,3,4.87-.55.53-4.75-5.94-12-7.87A18.37,18.37,0,0,0,177.19,216.89Z"/><path class="cls-11" d="M278.1,216.69c5.78,1.23,6.94,1.22,7,1,.2-.67-9.72-6.37-17.76-3.29a19.67,19.67,0,0,0-7.24,5.29c-2.47,3.22-3.23,4.6-3,4.87.54.53,4.74-5.94,12-7.87A18.5,18.5,0,0,1,278.1,216.69Z"/></svg>