<svg id="Layer_1" data-name="Layer 1" xmlns="http://www.w3.org/2000/svg" viewBox="0 0 500 500"><defs><style>.cls-1{fill:#dfdad2;}.cls-2{fill:#110f0d;}.cls-2,.cls-9{stroke:#000;}.cls-2,.cls-8,.cls-9{stroke-miterlimit:10;}.cls-3{fill:#e9e9e0;}.cls-4{fill:#dab390;}.cls-5{fill:#dbac89;}.cls-6{fill:#4d4d4c;}.cls-7{fill:#fff;}.cls-8{fill:#c1272d;stroke:#c1272d;}</style></defs><title>Profile</title><path class="cls-1" d="M317.43,326c8.67,23.14,29,30.86,51.95,35.08,16.05,3,32.22,5.45,48.13,9,53.64,11.91,77.31,38.74,82.2,92.38.51,5.63-1.64,11.88,4.12,16.32v23.49l-53.7,7.63c-9.24-17.88-9.13-37.8-12.78-56.76-5.55-28.85-23-46.46-50.45-57-21.24-8.15-44.07-10.41-66.11-15.63-11-2.6-17.87,4.88-25.88,9.73-11.3,6.84-20.82,7.49-25-7.48-.36-9.56.78-19.18-.77-28.74a15.06,15.06,0,0,1,5.57-10.06C288.89,337.79,300.77,326.78,317.43,326Z"/><path class="cls-2" d="M119.49,181.58c-.4-17.92-5.48-31.67-22.54-44-26.55-19.22-29.58-50-31.77-79.66-.5-6.76,2.49-9.47,9.62-8.92,44.3,3.44,85.62-10.74,127.83-19.6C243.84,20.75,283.31,24.65,321,43a75.6,75.6,0,0,1,24.15,18c7.24,8.24,13.27,16.62,24.91,21.66,11.85,5.13,13.15,18.88,13.95,30.87,1.6,24-.3,47.8-3.6,71.55,2.28,4.66,0,8.87-1.63,13.06-1.55,3.94-5,7-9.17,6.66-4.56-.38-6-4.87-6.82-8.73-2.62-12.82-.6-25.87-1.94-38.76-2.06-19.78-2.87-19.83-21.08-11.37-47.39,22-98.08,26.66-150,24.22-4.72-.62-9.33-1.77-14-2.43-30.3-4.23-30.26-4.24-35.32,24.39-.86,4.89-.65,11.56-7.35,12.23-7.76.78-9.33-5.94-11.24-11.52C120.61,189.15,121.68,185.06,119.49,181.58Z"/><path class="cls-3" d="M227.64,525.06c-62.82-3-125.72-5.69-187.59-17.22-44.09-8.22-43.93-9-36.71-50.91C13,400.62,36,379.17,96.64,369c15.47-2.59,30.79-6,46.12-9.39,20.15-4.4,34.27-15.79,42.46-33.74,16.22.42,27.88,11,41.68,16.84,6.82,2.87,5.28,9.51,5.16,15.17,0,1.95-.73,4.22.09,5.79C255,407.17,234.53,451.27,234,495,233.81,504.9,234.52,516,227.64,525.06Z"/><path class="cls-4" d="M227.73,354.11c1.31-5.29-.88-7.28-6.39-9.62-12.47-5.29-24.13-12.29-36.12-18.59-21-20.35-36.33-43.73-42.74-71.87-.57-2.49-1.47-5.69-3.39-7-25.12-16.94-21.84-41.31-19.6-65.45,5.4,6,3.77,16.43,12.74,20.28,1.35-.82,2.23-1.06,2.31-1.44,2.67-13.82-6.25-34.54,5.06-40.18,13.24-6.62,32.93,1.34,49.53,5,43.47,6.15,85.94,1.18,127.65-10.76,21.22-6.07,25.85-3.44,27.19,17.25,3.55,54.79-2.82,106.89-42.86,150.77-7.74,8.48-17.46,14.68-25,23.12l-4.4,7.62C257.23,362.19,242.55,361.54,227.73,354.11Z"/><path class="cls-3" d="M271.92,380.86c6.48,14.52,15.72,11.46,24.11,2.42,9-9.73,18.19-10.64,31.14-7.07,24.92,6.87,51.25,8.82,74.73,20.86,22,11.3,36,27.5,39.84,51.26,3.3,20.46,10.39,40.43,8.39,61.53-53.29,8.67-107.36,10.09-161,15.53-4.73.48-9.6-.29-14.4-.47-3.26-3.65-4.3-8.11-4.89-12.65-4.79-36.82-8.07-73.75-8-110.85C261.87,393.75,259.55,383.72,271.92,380.86Z"/><path class="cls-5" d="M276.09,345.64c-3.67-2.61-3.19-5,.09-7.69,45.57-37.46,64.52-85,62.37-141.66-1.59-42-.17-41.45-42.42-32.59-35.38,7.42-71.19,10.25-107,1.56,46,.22,91.59-1.42,135.21-17.9,12.85-4.85,23.05-13.6,36.51-19.62,8.31,24.55,4.72,49.6,7.06,76,8.81-5.25,9.86-12.45,12.52-18.66,7.72,21.1,6.84,40.67-12.16,56.47a23,23,0,0,0-8,13.16c-6,28.29-21.8,51.16-42.85,71.27C304.6,334.32,291.75,342.62,276.09,345.64Z"/><path class="cls-6" d="M271.92,380.86c-8.59,6.58-5.05,15.62-4.62,23.55,2.14,40.18,4.89,80.34,7.43,120.51l-47.09.14c-.22-40.2,6.26-79.92,9.71-119.86.9-10.49,2.6-20.26-8.26-27.8-9.7-6.73-2-15.42-1.37-23.28l44-.86C275.61,362.43,279.49,371.61,271.92,380.86Z"/><ellipse cx="189.17" cy="227.27" rx="9.17" ry="27.5"/><ellipse cx="278.33" cy="227.27" rx="10" ry="27.5"/><ellipse class="cls-7" cx="193.33" cy="224.77" rx="5" ry="11.67"/><ellipse class="cls-7" cx="273.33" cy="224.77" rx="5" ry="11.67"/><path class="cls-8" d="M212.18,279.5h44.55a5.74,5.74,0,0,1,5.4,7.73C257.26,300,244.54,308.29,231.5,307c-11.1-1.1-20.78-9-24.75-19.86A5.74,5.74,0,0,1,212.18,279.5Z"/><path class="cls-9" d="M183.5,192.5c-5.77,1.23-6.94,1.21-7,1-.19-.67,9.72-6.37,17.76-3.3a19.56,19.56,0,0,1,7.24,5.3c2.48,3.22,3.24,4.6,3,4.87-.54.53-4.74-5.94-12-7.87A18.37,18.37,0,0,0,183.5,192.5Z"/><path class="cls-9" d="M283.41,192.3c5.77,1.23,6.94,1.22,7,1,.19-.67-9.72-6.37-17.76-3.29a19.58,19.58,0,0,0-7.24,5.29c-2.48,3.22-3.24,4.6-3,4.87.54.53,4.74-5.94,12-7.87A18.5,18.5,0,0,1,283.41,192.3Z"/></svg>