<svg id="Layer_1" data-name="Layer 1" xmlns="http://www.w3.org/2000/svg" viewBox="0 0 500 500"><defs><style>.cls-1{fill:#dab390;}.cls-2{fill:#252626;}.cls-3{fill:#636358;}.cls-4{fill:#717169;}.cls-5{fill:#72726a;}.cls-6{fill:#515147;}.cls-7{fill:#cba383;}.cls-8{fill:#4c4c4c;}.cls-9{fill:#e8e8de;}.cls-10{fill:#e4e2da;}.cls-11{fill:#c8a282;}.cls-12{fill:#fff;}.cls-13{fill:#c1272d;stroke:#c1272d;}.cls-13,.cls-14{stroke-miterlimit:10;}.cls-14{stroke:#000;}</style></defs><title>Profile</title><path class="cls-1" d="M180.08,326.28c-21-21.39-36.28-45.95-42.62-75.61-.56-2.63-1.3-6-3.18-7.46-24.86-19.32-23.67-45.58-19.79-72.63a4,4,0,0,1,3.8.32c2.95,2.08,4,5.37,5.73,9.6,3-11.12-2.57-24.1,7.16-31.66,10.55-8.2,22.15-1.56,33.23,1,30.11,4.91,59.93,3.89,89.38-4.18,10.7-2.94,20.66-6.43,30.11,4.1,5.16,5.76,12.86,1.63,19.35-.29,5.31-1.33,10.51-3,15.75-4.43,10.91-3.05,17.87.79,18,12.35.31,30.55,3.33,61.14-4.21,91.52-8.69,34.94-27.73,63.33-52.25,88.69-3.76,3.89-8.51,6.89-10.2,12.47-1.16,3.17-2.67,6.1-5.7,7.91-13,4.6-26.08,3.81-39.24,1.15-6.45-8.94-17.46-10.27-26.1-15.59C191.87,339,183.38,335.48,180.08,326.28Z"/><path class="cls-2" d="M165.46,154.27c-32.65-6.57-32.66-6.57-33.45,27.21-.11,4.52,0,9.05,0,14.5-13.55-4.8-8.85-18.4-15.5-25.41-1.42-16.31-2.69-32.55-1.29-49,4.65-55.23,29.35-86.17,83.38-103.32C250.91,1.59,305.13,8.74,332.11,53.3c.7,1.17,1.28,2.87,2.33,3.3C381.77,76,372.6,118.37,375,156c.3,4.74-.39,9.54-.62,14.32-2.6,8.21,3.93,23.59-9,23.08-11.21-.45-7.3-15.36-7.69-24.19-.61-13.54-.36-27.11-2.91-42.47-13.58,14-30.36,20-47.72,24.85-5.57,2.12-12.31,7.65-16.92,2.11-6.83-8.19,3.77-16.38,2.86-26.51C253.75,153.21,210.64,158.89,165.46,154.27Z"/><path class="cls-3" d="M186.85,533c-60.43-.22-119.74-10.38-179.18-19.68-10.7-1.67-13.61-5.78-12-16.05,2.9-18.89,5-37.84,8.73-56.67,6.3-31.77,25.89-51.16,55.14-60.08,28.62-8.73,58.22-14.2,87.39-21.1,4.85,5.77,1.69,11.68.1,17.42-3.2,11.55-10.41,23.17,2.78,33.53,2.89,2.28,2.95,7.13.1,9.19-15.31,11.08-5.36,21.13.74,31.46,13.17,22.31,26.6,44.49,38.29,67.62C191.05,522.89,199.34,530,186.85,533Z"/><path class="cls-3" d="M460.89,516.48c-52,8.66-104.14,15.73-157,16.23-13.64-4.46-4.75-12.4-1.79-17.66,12.05-21.42,24-42.89,37-63.8,6.17-10,13.52-19.5,2.48-31.08-4.06-4.26-1.86-9.26,2.1-12.6,5.71-4.79,5.65-12.25,9.2-18,6.18-6.42,13.63-5.62,21-3.21,32.95,10.81,58.54,29.08,66.3,65.58,2.7,12.68,6.65,25.21,7.55,38.11C448.48,501.12,453.05,509.39,460.89,516.48Z"/><path class="cls-4" d="M352.79,392.23c9.95,13.43-3.65,16.3-12.51,22.92,20.74,9.26,14.34,21.29,6.29,34.31-14.94,24.17-29.1,48.81-43.86,73.08-2.58,4.24-3.18,7.24,1.21,10.17-13.53,7.28-27.91,2.63-41.93,3-5.15-12.46-1.24-24.5,1.64-36.6,15.9-38.47,23.06-79.45,34.18-119.29,2.92-10.46,4.4-21.36,8.1-31.59,2.18-6.05,4-14.17,13.91-9.58l24.7,20.48C350.92,369.26,361,378.47,352.79,392.23Z"/><path class="cls-5" d="M186.85,533C184.67,508.76,166,492.45,157,471.39c-4.2-9.87-12-18.13-17-27.75-4.33-8.42-15.94-19.35,4.48-23.85,3.55-.78,6.14-6.08,2.49-7.55-22.7-9.12-7.24-23.05-4.94-35.16,1.14-6,3.21-11.77,4.86-17.65l24.69-20.67c11.79,1.57,11.32,12,13.56,19.79q17.16,59.7,32.13,120c2.17,8.69,4.56,17,10.91,23.6,3.23,11.53,5.13,22.94-2.89,33.48C212.42,535.72,199.29,539.49,186.85,533Z"/><path class="cls-6" d="M352.79,392.23q-4.12-16.55-8.27-33.08c19.71,4.19,39.37,8.58,59.13,12.54,59,11.83,81.27,35.4,89.05,94.71q.68,5.09,1.17,10.17c3.42,34.94,13.44,36.92-33,39.91-14.11,1-16.54-6-18.35-19.3-4.13-30.31-3.9-63.72-31.45-84.95C394.43,399.4,376.94,385,352.79,392.23Z"/><path class="cls-7" d="M303.34,150.5a125.35,125.35,0,0,0,51.48-32.85c8.46,25.08,3.78,49.6,7.1,74,9.82-4.89,5.41-15.37,10.44-21.36,8.9,25.17,11.14,49-11.84,68.94-3.22,2.79-4.92,8.05-6,12.48-7,29.21-22.07,53.63-43.09,74.68-10.83,15.44-23.86,26.27-44.47,21.16,3.2-13.93,16.19-20.63,24.42-30.36,28.87-34.14,41.54-72.69,40.73-116.58-.12-6.83,0-13.66,0-20.48,0-31.43,0-31.43-28.73-26.35q-1.77-1.08-1.2-2.19C302.56,150.87,302.94,150.5,303.34,150.5Z"/><path class="cls-8" d="M225.3,535.61q-.36-18.47-.71-36.92c-7.11-9.77-6.25-21.08-4.43-31.71,3.25-19,2.06-38.35,5.61-57.23,1.93-10.24-1.66-18.64-7.08-27-6.24-9.61-7.42-19.15,3.49-26.82,14.57-2.91,29.25-1.18,43.89-1,11,5.76,10.22,15.5,7.25,24.83-7.48,23.46-5.73,47.11-2.69,70.84,2.09,16.33,3.06,32.46-3.85,48-1.42,12.4,1,25.29-4.79,37.13Z"/><path class="cls-9" d="M222.18,355.93c-2.77,10.53-6.55,20.92,5.58,29,8.47,5.63,4.79,14.69,4.19,22.51-2.33,30.43-4.88,60.84-7.36,91.26-13.73,6.94-8.92-7.53-9.74-10.42-12.28-43-23.37-86.32-35-129.49-1.87-6.94-1.75-14.9-8.24-20l8.49-12.48c12.58,6.83,24.84,14.38,37.88,20.15C223.74,349,222.12,352.21,222.18,355.93Z"/><path class="cls-10" d="M266.78,498.6c-1.65-27.25-3.5-54.49-4.88-81.75-.67-13.29-3.87-26.61,7-38.74,5.79-6.49-.19-15.55-2.8-23.19q.45-3.69.91-7.35c17.19-2.09,30.66-12,44.47-21.16-.59,6.4,5.67,8.11,8.37,12.26-10.19.65-8.17,9.45-9.73,15.33-11.82,44.42-23.29,88.94-34.95,133.4C273.89,492.16,275.38,499.22,266.78,498.6Z"/><path class="cls-11" d="M303.34,150.5c0,1.1,0,2.2,0,3.3-15.57,5.64-15.38,5.44-27.17-6-5-4.9-10.22.21-15.12,1.57-32.2,9-64.62,12.58-97.63,4.9C201,154.13,238,150.84,272,132.65a108.81,108.81,0,0,0,25.73-19.24c4.09,16.09-4.67,27.1-9.42,38.48C294.76,155,298.73,150.72,303.34,150.5Z"/><ellipse cx="180.8" cy="217.42" rx="9.71" ry="29.12"/><ellipse cx="275.23" cy="217.42" rx="10.59" ry="29.12"/><ellipse class="cls-12" cx="185.21" cy="214.77" rx="5.3" ry="12.36"/><ellipse class="cls-12" cx="269.94" cy="214.77" rx="5.3" ry="12.36"/><path class="cls-13" d="M213.22,286h40.53c3.64,0,6.2-1.24,4.91-2.4-4.43-4-16-6.55-27.86-6.15-10.1.34-18.9,2.79-22.52,6.17C207.05,284.78,209.62,286,213.22,286Z"/><path class="cls-14" d="M170.38,184.67c-8.67-1.16-13.83.39-13.88,0-.08-.71,16.51-4.83,31-1.07A36.86,36.86,0,0,1,200,189.76c1.87,1.41,5.45,4.41,4.95,5.26s-4-.68-10-2.88C182.88,187.73,176.72,185.51,170.38,184.67Z"/><path class="cls-14" d="M285.29,182.51c10.54-2.69,17.71-1.89,17.71-2.21s-12.49-2.69-26.56,1.1c0,0-8.84,2.39-15.36,7.08-1.1.78-5,3.61-4.71,4.19l.07.06c1.07.58,15.81-5.67,18.73-6.87A78.53,78.53,0,0,1,285.29,182.51Z"/></svg>