<svg id="Layer_1" data-name="Layer 1" xmlns="http://www.w3.org/2000/svg" viewBox="0 0 14.3 14.3"><defs><style>.cls-1{fill:#ef1b71;}.cls-2{fill:#ff5097;}.cls-3{fill:#f2a9d1;}.cls-4{fill:#f9328d;}.cls-5{fill:#e50561;}</style></defs><title>r</title><polygon class="cls-1" points="7.15 2.04 2.19 5.64 4.08 11.47 10.21 11.47 12.11 5.64 7.15 2.04"/><polygon class="cls-2" points="7.15 3.8 3.86 6.19 5.12 10.05 9.18 10.05 10.44 6.19 7.15 3.8"/><polygon class="cls-3" points="7.15 3.8 7.15 2.04 2.19 5.64 3.86 6.19 7.15 3.8"/><polygon class="cls-4" points="7.15 3.8 7.15 2.04 12.11 5.64 10.44 6.19 7.15 3.8"/><polygon class="cls-1" points="3.86 6.19 2.19 5.64 4.08 11.47 5.12 10.05 3.86 6.19"/><polygon class="cls-5" points="4.08 11.47 5.12 10.05 9.18 10.05 10.21 11.47 4.08 11.47"/></svg>