<svg xmlns="http://www.w3.org/2000/svg" xmlns:xlink="http://www.w3.org/1999/xlink" viewBox="0 0 1927.8 942.24"><defs><style>.cls-1{fill:#c9b0ea;opacity:0.4;}.cls-2{fill:#ba5ae2;}.cls-3{opacity:0.5;fill:url(#New_Gradient_Swatch_1);}.cls-4{fill:url(#New_Gradient_Swatch_1-2);}.cls-5{fill:#ee428b;}.cls-6{fill:#128595;}.cls-7{fill:#84d5af;}.cls-8{fill:#74c8ac;}.cls-9{fill:#b9d3ec;}.cls-10{fill:#4aadaa;}.cls-11{fill:#6bc1ad;}.cls-12{fill:#78bbe4;}.cls-13{fill:#f5cdba;}.cls-14{fill:#071a4a;}.cls-15{fill:#f7ccb9;}.cls-16{fill:#f6ccb8;}.cls-17{fill:#f69992;}.cls-18{fill:#f09192;}.cls-19{fill:#f09792;}.cls-20{fill:#021848;}.cls-21{fill:#62a0ee;}.cls-22{fill:#8cc1fd;}.cls-23{fill:#041f4f;}.cls-24{fill:#031f4c;}.cls-25{fill:#b3d9f5;}.cls-26{fill:#0a1a46;}.cls-27{fill:#46a7dd;}.cls-28{fill:#0e2652;}.cls-29{fill:#389ba9;}.cls-30{fill:#17264c;}.cls-31{fill:#14254e;}.cls-32{fill:#77cfb2;}.cls-33{fill:#9cc9ec;}.cls-34{fill:#7dd0b1;}.cls-35{fill:#59b2e3;}.cls-36{fill:#7bbee7;}.cls-37{fill:#74bbe7;}.cls-38{fill:#35a8e0;}.cls-39{fill:#97d3f3;}.cls-40{fill:#b8d4ed;}.cls-41{fill:#58b2e4;}.cls-42{fill:#efedec;}.cls-43{fill:#a0c8e9;}.cls-44{fill:#edeef2;}.cls-45{fill:#13366e;}.cls-46{fill:#193b6e;}.cls-47{fill:#15566c;}.cls-48{fill:#9bd9fa;}.cls-49{fill:#39a0a2;}.cls-50{fill:#9bcae7;}.cls-51{fill:#318f83;}.cls-52{fill:#54b3a9;}.cls-53{fill:#389477;}.cls-54{fill:#54b3a8;}.cls-55{fill:#52b2a8;}.cls-56{fill:#3ca1a4;}.cls-57{fill:#1a8d9a;}.cls-58{fill:#268b8e;}.cls-59{fill:#91c6ea;}.cls-60{fill:#54b2af;}.cls-61{fill:#bb9485;}.cls-62{fill:#5fbcae;}.cls-63{fill:#f2bfac;}.cls-64{fill:#9ac7eb;}.cls-65{fill:#121e43;}.cls-66{fill:#d4dff2;}.cls-67{fill:#d2ddf1;}.cls-68{fill:#051d4f;}.cls-69{fill:#1ba2dd;}.cls-70{fill:#4eafd0;}.cls-71{fill:#63beaf;}.cls-72{fill:#e3bcaf;}.cls-73{fill:#e9c1b1;}.cls-74{fill:#42a7aa;}.cls-75{fill:#6bc0b3;}.cls-76{fill:#74c9b2;}.cls-77{fill:#378b8b;}.cls-78{fill:#118597;}.cls-79{fill:#5dbaab;}.cls-80{fill:#2d8d89;}.cls-81{fill:#66c2b9;}.cls-82{fill:#61bdb4;}.cls-83{fill:#8fc4e7;}.cls-84{fill:#f25fa5;}.cls-85{fill:#1b1c46;}.cls-86{fill:#99a7c0;}.cls-87{fill:#df7884;}.cls-88{fill:#bfd8f0;}.cls-89{fill:#2b8d85;}.cls-90{fill:#76bde6;}.cls-91{fill:#4e9289;}.cls-92{fill:#add2ee;}.cls-93{fill:#39aadb;}.cls-94{fill:#24818f;}.cls-95{fill:#1d828f;}.cls-96{fill:#308996;}.cls-97{fill:#22828c;}.cls-98{fill:#217d8d;}.cls-99{fill:#27838d;}.cls-100{fill:#288191;}.cls-101{fill:#c9eaf5;}.cls-102{fill:#67c3af;}.cls-103{fill:#6acab8;}.cls-104{fill:#131d3f;}.cls-105{fill:#03204c;}.cls-106{fill:#041c47;}.cls-107{fill:#5eb3ae;}.cls-108{fill:#356d9a;}.cls-109{fill:#5499bc;}.cls-110{fill:#67c3bc;}.cls-111{fill:#6aa6ab;}.cls-112{fill:#291f3a;}.cls-113{fill:#20263f;}.cls-114{fill:#258890;}.cls-115{fill:#d9e6f3;}</style><linearGradient id="New_Gradient_Swatch_1" x1="56.13" y1="440.42" x2="1181.36" y2="440.42" gradientUnits="userSpaceOnUse"><stop offset="0" stop-color="#6d70da"/><stop offset="1" stop-color="#9233c3"/></linearGradient><linearGradient id="New_Gradient_Swatch_1-2" x1="614.12" y1="336.18" x2="235.22" y2="992.46" xlink:href="#New_Gradient_Swatch_1"/></defs><title>login</title><g id="yellow"><path class="cls-1" d="M156.56,859.38S-.35,874.21,26,903.89s221-23.74,255.5-9.89,25.35,7.91,18.25,18.79S468.07,897,478.21,898,607,902.9,648.54,915.76,760.07,889.05,777.3,894,902,930.6,927.36,918.73s1-24.73,1-24.73,6.09-32.65,81.11,20.77c42.59,13.85,75-11.87,75-11.87s31.21-9.46-40.16-33.42C981.71,846.3,156.56,859.38,156.56,859.38Z"/><rect class="cls-2" x="-0.77" y="850.47" width="1317.61" height="17.81" rx="8.9"/><path class="cls-3" d="M56.13,22.46s122-27.18,137.13,120C221.32,272.91,357.06,223,357.06,223s133.5-27.8,185.37,102.53C591.5,416.74,812.94,715,973.65,683.26,1065.48,653.74,1177,805.7,1181.36,856L59.7,860.37Z"/><path class="cls-4" d="M-4,12.64S118-14.73,133.13,133.5c28.06,131.34,163.8,81.09,163.8,81.09s133.5-28,185.37,103.25C531.37,409.68,752.81,710,913.52,678.06c91.83-29.72,203.34,123.3,207.72,173.94L-.43,856.41Z"/><path class="cls-5" d="M566,301.39c11.48-19.88,22.89-39.8,34.47-59.62,7.15-12.23,19-17.4,32-20.8,2.48,1.47,3.62,4.09,5.38,6.2,11.71,14.12,21,12.36,34.73-6.5,18.84,1.81,32.88,10.4,42,27.57,10,18.9,21.1,37.26,31.71,55.85C740,317.41,727,317.82,715,320a8.15,8.15,0,0,1-4.32-3.13c-3.06-13.48-11.44-18.45-25.21-17.93-22.07.84-44.21,0-66.32.38-10.6.19-19.66,3-24.37,13.66-8.49,3.26-16.57.09-24.51-2.16C566.29,309.72,562,307,566,301.39Z"/><path class="cls-6" d="M573.27,407.4c-6.41-4-15-3.4-20-10.48-5.74-8.07-6.36-16.5-2-24.86,4.5-8.64,12.21-12.4,22.07-10.84,6.35,1,12.38,4.86,19.14,2.12,7.58,1,10.85,10.51,19.36,9.69,20.46.33,40.89-.07,61.32.19,6.52.08,13.4-.94,18.87,4.08-.3,8.52-7.54,6.31-12,6.89a228.54,228.54,0,0,1-51.75.51c19.21,12.77,40.68,1.93,62.29-2.15,2.78-1.67,3.44-5.32,6.35-6.87,6.42-2.55,10.65-7.45,14-13.28.59-.44,1.2-.86,1.81-1.28,6-.14,12.28.71,18-.61,12.21-2.8,22.4-.6,27.9,11,5.71,12.05,1.84,22.4-9.11,30-12.15,11.26-28.41,10.92-43,15.28-15,1.67-30,3.58-44.7,7.43-5.88,1.17-11.74,1.62-17.45-.8-5.78-12.55-14.18-16.12-27.36-9.81-6.31,3-14.07,2.76-21.34,2.72C587.91,414.09,579.3,414,573.27,407.4Z"/><path class="cls-7" d="M932.35,421.59c2.13,3.16,4.07,6.55,10,7.8-3.79-30.79,22-42.9,38.53-60.79,6.88-7.45,14.37-5.79,19.73,4.25,10.69,20,2.3,40.14.73,60-1.07,13.59-5.73,26.86-8.12,40.4-.7,4-5.18,10,3,12.18a3.33,3.33,0,0,1-1.11,4.06c-8.48,4-18.94,3.16-23.86,15.17-2.66,6.5-14.23,3.82-21.41,6.68-7.89,1-15.79,2.12-23.27-1.88-3-2.52-3.48-5.82-3-9.43,2.48-7.74,8.51-11,15.89-12.93a142.41,142.41,0,0,0,32.31-12.89c-7.49,3.69-15,7.3-23,9.75-3,.91-6.87,2.49-9.43-.27-3.51-3.78.16-7.2,1.82-10.47,6.24-12.3,17.75-19.46,27.71-28.12,5.56-6.63,11.23-13.15,17.33-19.29a223.62,223.62,0,0,0-17.29,19.24c-2.57,2.13-5.38,4.74-8.78,2.64-3.88-2.38-1.81-6-.36-8.82,4.74-9.28,7.94-19.5,16.64-27.26-14.51,6.23-14.1,20.74-18.2,31.66-4.25,11.28-11,20.33-17.39,29.91-1.89,2.83-3.84,6.06-7.74,4.27-2.58-1.18-3.26-4.31-3.52-7.16-.53-5.69,1.31-10.93,3-16.23,2.76-8.63-5.07,1.25-5-2.82a12.17,12.17,0,0,1-4.61-6.35c-1.64-6.41-2-12.88.27-19.1C924.62,421.8,926.7,417.37,932.35,421.59Z"/><path class="cls-8" d="M996.19,487.94c0-.82,0-1.65,0-2.46,20-4.23,37.66-2.74,46.89,19.38,3.16,7.58,8.58,6.44,15.18,4.18,12.85-4.39,18.53.81,18.37,14.49-.24,19.55-13.47,35-16,53.7-.27,1.93-2.76,3.59-3,5.5-3.56,34-13.3,44.21-46,46.41,11.6,9,8.61,16.27-1.8,22.44-3.06,3.19-5.25,7.68-10.76,7.23-13.46-5.12-12.15-16.18-5.69-23.71,7.82-9.1,5.69-15.2-.13-22.8-9.39-12.29-8.88-19.82,2.25-35.32,4.23.89,6.92,3.76,9.23,7.13,3.89,7.95,1.69,17.52,6.77,25.21,1.75,2.63,2.42,6.69,6.64,5.93a5.75,5.75,0,0,0,4.35-6.31c-2.76-11.14,11.07-19,5.68-30.65-1.07-2.32,1.82-4.82,4.84-5.64.44-.12,3,1.15,1.55-1-5.55-8.41-5.65-8.34,8.16-12.7-8.11-4.52-17.35-6.56-21.13-15.46-4.45-7.58-12.84-8-19.84-11-3.77-1.61-9.86-1.51-8.89-7.71.79-5,5.55-6.57,10.18-6.94a32.57,32.57,0,0,1,11.53,1c1.64-.84,1.45-.68-.54-.73-2.78-.07-6.56-.81-7.1-3.39-1.67-8,5.55-8,10.27-10.06a4.32,4.32,0,0,0,2.55-2c-3-4.37-9.23-3.58-12.58-7.46C1004,492.16,999,491.65,996.19,487.94Z"/><path class="cls-9" d="M932.35,421.59c-12.41,6.29-3.49,17.64-6.22,26.22-2.16,6.3-6.23,11.51-10.07,16.76s-8.2,7.59-12.81.59a16.47,16.47,0,0,1-1.66-6.41c.41-30.34-.61-29.22-33.35-29.12-46,.14-92-.47-138,.4-11-.67-16.84-8.88-23.19-16.3l42.42-12.17c5.08,5.14,11.55,2.83,17.38,2.86,41.55.2,83.14.88,124.66-.28C908.75,403.66,922.83,406.16,932.35,421.59Z"/><path class="cls-10" d="M1049.24,675c3,6.18-3.17,14,3.4,19.54,6.27-1.32,9.82,3.24,14,6.44.83,6.61-4.53,9.43-8.79,10.16-15,2.59-28.75,18.34-45.46,4.71-2.56-2.08-2.32,1.61-3.23,2.52a32,32,0,0,1-10.76,7.51c-5.28,2.1-11.49,3.93-15.23-1.28-5.1-7.11,3-8.81,6.66-12.14a83.67,83.67,0,0,0,6.41-6.09c-7.74,6-15.3,14.71-25.88,19.58a9.54,9.54,0,0,1-5.94-4.16,17.51,17.51,0,0,1-1.85-4.66c-.61-8.18-4.89-16-2.29-24.52,3.39-8.11,11.75-11.21,17.26-17.21,4.39-4,7.68-9.79,14.94-9C1012.16,664.24,1030,674,1049.24,675Z"/><path class="cls-11" d="M1066.13,701.31c-6.35,1.41-9.67-3.19-13.49-6.81,7.53-13.58,18.91-19,34.4-17.4,9.3.94,18.77.18,28.15.42,21.6.54,23.15,2.69,17.37,23.37L1116,718c-7.6,16.14-24.91,21.19-36.91,32.34-6.77,2.57-12.68,9.78-21,4-5.6-11.4.79-20.28,6.17-29.36,6.88-6.66,16.72-1.08,23.13-4.76-12.09.87-25.24,4.3-40.66-2.89,12.55-9.09,24.92-11.27,37.17-14.8C1077.83,698.48,1071.68,704.85,1066.13,701.31Z"/><path class="cls-12" d="M713.5,350.8q-.4,5.16-.8,10.32l.29.95c-39.53-10.08-79.84.57-119.57-4.45l-1.46.06a10.9,10.9,0,0,1-1.89-9.14,27.94,27.94,0,0,1,1.46-4.57c2.47-5,3.15-10.61,5.65-15.52,2.9-5.74,7.33-10.22,14.3-9.09,7.15,1.16,14.18.93,21.34,1,9.61.06,11.95,8.26,14.33,15.78,1,3.19,2.28,6.71,6,7.28,4.13.63,5.57-2.75,6.43-6.07,3.91-15.15,16.18-18.17,29.13-20,14.35-2,20.61,7.82,26.33,18.35C717.22,341,715.6,345.92,713.5,350.8Z"/><path class="cls-13" d="M638.8,217.15c-.38-10-8.42-15.12-14.24-21.4-5-5.42-10-10.12-5.49-18.12,6.25,3.32,10.22,2.38,10.42-5.61,1.27-4.32,4.3-6.76,8.46-8a45.14,45.14,0,0,1,27.12,1.65c2.88,1.67,4.73,4.32,6.56,7,4.08,7.09,6.29,15.15,11.06,21.92-1.32,9.54-19.37,9.36-13.44,23.11C659,220.77,648.89,220.84,638.8,217.15Z"/><path class="cls-14" d="M639.13,167.6c-4.36.1-6.58,2.4-6.9,6.68-2.27,4.74-3.72,12.31-9.69,2.31-2.92-4.89.39-11-3.5-15.53.24-19.35,27.43-33.24,48.15-24.26,4.87,2.11,10.62,3.88,12.58,10,4,5.82,2.14,12.66,3.32,19,.78,4.2,2.9,9.17-1,12.21-5,3.84-8.81-1.91-13.22-3.25-2.88-1.4-3-4.14-3.3-6.8C656.79,163.25,648,160.53,639.13,167.6Z"/><path class="cls-15" d="M713.5,350.8q-.53-8.15-1-16.28c-3.53-5.82-5-11.54.74-16.95l2.58.45c5.5,4.4,10.22-.13,15.21-1.35,7.3-1.78,14.64-4.94,21.56,1,9.56,12.23,7.71,19.16-6.38,23.44C735.31,344.43,724.39,347.58,713.5,350.8Z"/><path class="cls-16" d="M559.46,341.25c-.9-6.18-8.85-9.47-6.88-16.82l6.33-13.49c12.35,4,26.66,3.31,35.9,14.88,2,7.59.62,14.86-2.06,22l-.56-.25C579.28,355.82,570.11,344.69,559.46,341.25Z"/><path class="cls-17" d="M638.8,217.15a52.39,52.39,0,0,1,30.45.51q1.68,1.51,3.38,3c.9,14.74-8.65,19.66-20.72,20-12.53.37-19-7.2-19.39-19.73Z"/><path class="cls-14" d="M668.84,174.72c8.06,1.32,17.2,4.65,11.35-10.34-2-5.13-.39-11.68-.42-17.59,11.58,15.27,7.16,31.52,2.92,47.76C669.53,193.91,675.28,180.06,668.84,174.72Z"/><path class="cls-18" d="M592.21,324.8c-10.39-6.33-25.26-1.88-33.29-13.86q3.55-4.77,7.12-9.55c.45,8.26,7.91,5.26,12.1,7.55,4.37,2.4,11-.91,13.81,5.39C595.48,317.73,595.4,321.23,592.21,324.8Z"/><path class="cls-19" d="M752.55,317.69A44.56,44.56,0,0,0,729,321.86c-6,2.8-10.2,2.21-13.24-3.84l30.55-13.93C751.36,307.28,753.19,311.92,752.55,317.69Z"/><path class="cls-14" d="M619,161.06c5.27,2.78,3.14,8.48,4.78,12.68,2.83,7.21,5.45,3.39,8.41.54-.15,4.58,2.36,10.95-3.75,12.53s-6.79-5.47-9.41-9.18Z"/><path class="cls-20" d="M478.25,875.8c-1.31,5.92,5.77,15.94-2.07,17.17-10.87,1.72-5.62-10.4-8-16.17-1.83-4.5-2.14-9.62-3.12-14.47-9.2-16.42-9.26-35-12.45-52.79-3.5-10.48-4.55-21.49-6.75-32.26-1.53-7.51-5.48-12.22-13.66-10.85-9.34,1.57-6.71,8.75-5.53,14.34,2.85,13.47,3.43,27.31,7,40.67a91.32,91.32,0,0,1,2.12,40.69c1.17,8.21,2.38,16.42,3.47,24.64.35,2.67,1,6-2.55,6.83-4,1-6.21-1.57-6.91-5.26-1.64-8.71-3.12-17.45-4.67-26.18-10.65-16.57-9.21-36.08-13.2-54.26-16.68-45.35-17.68-93.47-24.91-140.49-.68-4.36-1.2-8.81,1.13-13,4-3.44,8.43-3.58,13.12-1.73,7.72,7,6.14,17.13,8.72,25.86,1.39,4.72,1.74,9.73,3.57,14.35,2.45,6.2,7.47,8,13.36,6.55,6.19-1.53,4-6.8,3.77-11-.54-11.74-7.55-23.23-1.31-35.24a12.46,12.46,0,0,1,13,.06c6.5,7.48,6.28,17.09,8.26,26,1.72,7.8,1.13,16.6,9,21.88,6.92,3.32,14.27,2,21.41,2q196.64.12,393.27.06c5.56,0,11.11-.05,16.67.11,3.33.1,7-.28,9.82,1.39,16.94,10,9,26.68,10.06,40.7.74,10.1-2.76,18.76-14.93,20.35-7.75,1-15.52.86-23.29.87q-187.46,0-374.92,0c-5.55,0-11.11.19-16.66.09-11.24-.2-14.69,5.57-12.92,15.89,2,11.5,3.29,23.09,5,34.6,1.71,14.1,4,28.15,4.73,42.38C478.36,865.07,476.35,870.47,478.25,875.8Z"/><path class="cls-21" d="M469.6,821.41c-2.68-15.27-4.38-30.8-8.35-45.73-3.41-12.83,1.15-14.85,12.62-14.77,60.51.41,121,.18,181.53.19,77.71,0,155.43-.31,233.14.38,14,.13,17.76-3.91,17.48-17.67-.78-36.81-.14-36.87-36.27-36.88q-200.67-.06-401.35-.11c-4.93,0-9.85-.67-14.78-1,7.72-9.07,18.39-6.27,28-6.29q193.74-.32,387.48-.14c5.55,0,11.09-.1,16.63-.18,8.06-.11,13.89-3.16,16.17-11.36,11.39-19.56,13.59-20.53,26.56-11.72,4.82,14,1.87,28.41,2.49,42.65,1.15,12.66-1.41,24.87-4.56,37-2.53,21.84-7.83,43.38-7,65.57-4.13,7.78-11.34,8.39-18.73,7.44-32.64-4.21-65.44-1.14-98.14-2.24-36.79.18-73.57.48-110.33-.13-2-.06-3.95-.13-5.91-.14-16,.32-32.06.27-48.1,0-12.36-.21-19.22,4-17.19,17.49-2.13,19.67-4.52,22.39-23,22.86-21.64.55-43.29.3-64.93.06-5.56-.07-11.14-.37-16-3.65-1.31-11.66,8-9,13.72-9.24,19.81-.78,39.66-.09,59.49-.42,5.7-.09,12.54,1.93,15.67-5.65,1.4-18.73-.08-20.84-17.88-21-32.14-.38-64.29,0-96.43-.19C484,826.44,476,827.38,469.6,821.41Z"/><path class="cls-22" d="M515.84,861.28c26.32.1,52.69-.79,78.93.66,16.24.9,24-3.46,21.35-20.48,1.82-3.5,4.25-7.11,8.12-7.65,21.32-2.95,42.66-4.43,63.72,2.1,5.53,20.58,5.53,20.41,27.07,20.64,67.47.7,135-1.67,202.43.62a16.69,16.69,0,0,1,8.46,4.08c-4.74,5.84-11.34,3.43-17.12,3.47-30.56.24-61.12,0-91.68.19-6.51,0-15-3-12.32,10.4,1.71,8.55-7.5,6.06-12.29,6.09-43.34.24-86.68.15-130,.15H500.68c-6.72-5.25,8-14.37-4.79-16.41-8.13-1.29-17.44-2.22-17.64,10.66-3.31-4.29-2.48-9.37-2.76-14.24l2.2-2.12C490.6,855.94,503.46,853.69,515.84,861.28Z"/><path class="cls-23" d="M126.38,867q8-51.51,15.94-103c.68-4.36,1.74-8.66,2.63-13-3.37-18.82-5.27-37.41,8.35-53.58,3.44-14,5.92-28.16,5.74-42.66,4-4,8.42-3.8,13.09-1.47,6.72,8,2.21,16.37.55,24.5-1.18,5.79-2.33,11.55-3,17.39a30.91,30.91,0,0,1-1,5c-2.8,6.81-2.16,14.17-3.2,21.27a36.77,36.77,0,0,1-1.06,4.62c-1.57,4.57-1.48,9.38-2.05,14.1-1.23,6.64-2.6,13.25-3.5,20-4.28,30.59-8.63,61.17-15.51,91.31a15.51,15.51,0,0,1-4.84,9.86c-4.81,8.26-3.53,17.89-6,26.71-1,3.53-2.27,6.38-6.23,5.88-4.8-.6-3.67-4.42-3.18-7.55C124.2,879.9,125.31,873.47,126.38,867Z"/><path class="cls-24" d="M193.06,774.42l-13.71,77.24c2.38,3.5,2.29,6.79-.89,9.79-4.69,8-3.28,17.3-5.72,25.79-1,3.33-1.62,7.07-5.81,6.73-6-.49-4.47-5.26-3.89-8.92,1-6,2.26-12,3.42-18-3.91-33.88,7.69-66.1,10.52-99.26,2.2-9.58,4.05-19.22,5.4-29,2.12-5.9,2-12.13,2.5-18.26,2.45-13.24,4.19-26.62,7.43-39.72,2.91-8.81.13-18.89,6-27,4.43-2.95,9-3,13.65-.6,6.57,7.27,4.34,15.46,2.47,23.6-3.62,12.42-5.67,25.16-7.49,38-.39,3.08-.75,6.17-1.26,9.24a31.36,31.36,0,0,1-1.06,4.48c-1.2,3.63-2.34,7.27-3.31,11-1.81,5.3-1.35,10.83-1.65,16.29C199.1,762.54,197.74,769.07,193.06,774.42Z"/><path class="cls-25" d="M306.09,872c-10.45-5.91-20.86-6.18-31.2.28-4.36,4.2-6.15,12.35-14.53,10.51-7.52-1.66-7-8.44-7.84-14.16-2.81-7-11.53,3-14-4.86.53-3,2.65-4.63,5.15-5.93,2.49-1,5.22-1.67,6.85-4.15,16.3-24.79,31.91-29.81,61.86-19.91,3.18,4.6,1.52,8.41-1.92,11.93-6.21,4.19-13.39,2.79-20.24,3.58-4.85.56-11.13-2.46-13.82,4.57,10.72,6.1,21.65,3.5,32.55,1.1,3.65-2.77,3.3-10.93,9.35-9.39,5.21,1.32,4.79,7.73,5,12.49.26,5.36.46,10.75-1,16C315.35,885.49,311.34,873.84,306.09,872Z"/><path class="cls-26" d="M306.09,872c9.67-9.64,5.79,9.85,12.8,5.95,2.92-7.58,9.12-11.52,16.12-14.6,5-6.79,5.55-15.14,8.25-22.73,1.67-4.67.39-11.28,7.4-13l2.61,7.14a20.86,20.86,0,0,1,4.09,10.51c-.1,6.48-3.46,11.54-7.16,16.46-.17,5.46,0,11-.59,16.39-.76,7.42-21.72,17.54-33,15.35-9.69-1.9-13.6-8.41-11.23-18.27C305.68,874.12,305.87,873,306.09,872Z"/><path class="cls-27" d="M355.07,845.39c-3.22-3.11-2-7-1.8-10.65,14.85-2.34,26.9.72,32.27,16.7,3.07,3.51,2.84,7.11.3,10.77l.48,5.47c2.58,6.42,2.52,12.79-5.06,14.8-9.42,2.51-10.28-5.54-11.92-11.91q1.35-4.38,2.68-8.76C370.41,852.16,361.77,849.77,355.07,845.39Z"/><path class="cls-28" d="M241.93,860.45l-3.44,3.29c-4.69,1.37-9.26,2-13-2.2-.07-18.93,5.78-35.14,21.44-46.88,2.51,5.21-.09,9.67-2.63,13.72-7,11.17.26,12.38,8.7,13C256,851.62,248.4,855.71,241.93,860.45Z"/><path class="cls-29" d="M945.55,688.05l1.05,6.8c-3.15,21.5-8.77,42.17-20.25,60.9q0-18.88,0-37.77C936,710.07,934.88,695.29,945.55,688.05Z"/><path class="cls-30" d="M252.52,868.6c3.57.24,4.17,2.68,4.52,5.65.39,3.27,1,7,5.34,7s5.33-3.32,5.49-6.82c.34-7.49,3.69-4.69,7-2.17,1.91,8.58,1.72,16.34-7.91,20.48-5.79,2.49-10.65.62-14.74-3.52C245.45,882.34,248.27,875.42,252.52,868.6Z"/><path class="cls-31" d="M369.34,870.57c6,.82,3.05,11.27,10.33,10.07s3.69-9,6.64-13c8.69,5.4,10.06,12.89,4.32,20.71-4.25,5.78-10.92,7.51-17.46,3.27C364.7,886.17,363.92,878.82,369.34,870.57Z"/><path class="cls-21" d="M212.39,655l-13.13,0c-9.1,5.95-18.13,6.18-27.1-.28l-13.12.13c-8.26-.13-16.52-.37-24.78-.36-6.27,0-8.93-2.94-8.7-9.16.21-5.88,3.75-7.36,8.72-7.4q10.75-.07,21.49-.18l2.84-.53c34.3-.86,68.61-.54,102.91-.19,2.45,0,5.5,1.88,7-1.91,6.95-7,15.88-4.28,24.09-5.06,9.57,0,19.13.11,28.68-.09,8.92-.39,17.84.29,26.72.3,4.11-.08,9.24,3.27,11.48-3.4,15.48,1.81,20.29-11.53,28.54-20a9.23,9.23,0,0,1,4.68,2.4c7.61,25.31,27.37,25.52,48.41,24,9.28-.66,18.75-.89,28,1.06,6.3,1.33,11.78,4.38,11.42,11.87-.32,6.89-4.79,11.06-11.44,12.21-9.28,1.6-18.64,2.68-27-3.5l-12.51.14c-9.16,5.89-18.31,6.17-27.44,0l-12.58-.09a21.26,21.26,0,0,1-12.12,4.43c-49.85,1.53-99.71.55-149.56.52C222.32,659.81,216.82,659,212.39,655Z"/><path class="cls-32" d="M179.85,374.65c7.89-5.57,15.42-5.2,22.58,1.37s17.19,10.17,23.14,18.55c6,8.59-1.54,13.24-5.44,18.95-5.13,10.74,4.9,15.83,8.76,23.14,2.28,4.31,7.63,9,3.43,13.19-4.81,4.81-8.37-2.74-12.56-4.46-5.62-2.29-8.89-7.91-13-11.37,8.62,9.42,19.51,16.45,31.33,22.66,9.52,5,23.47,12.3,19.62,23.25-3.43,9.77-16.44-.78-25.29-.53a7.29,7.29,0,0,1-2.29-.38c7.94,1.11,17.45,5.34,27.8,5.5a18.77,18.77,0,0,1,12.17,4.56c3.86,3.27,7.79,6.91,7,12.45s-5.87,6-10.2,6.86c-3.37.66-6.13,2.48-9,4.06a7.58,7.58,0,0,1-6.65-.74c-4.77-6.45-13.74-5.24-19.18-10.47-29.72-2.79-32.66-27.75-40.2-48.75C182.73,427.34,174.74,402,179.85,374.65Z"/><path class="cls-33" d="M232,501.24c7.06,2.67,20.11-7.07,20.32,9.8,5,6.06,6.4,13.48,8,20.86a5.32,5.32,0,0,1-2.19,4.33C240.53,541,224,550,205,548.82c-3.47-.29-6.78-1-9.47-3.42-1.56-6.74,3.34-4.85,5.18-5.51-24.09-2.83-49.62,1.36-75.19,1.33-10.67-34.63-10.7-35.19,25.07-37.46C177.68,502.05,204.85,502,232,501.24Z"/><path class="cls-34" d="M153.3,697.47Q149.13,724.26,145,751c-18.53-5.29-34.57-14.78-47-29.55-8.09-9.63-6.38-17.93,6.64-20.59C120.6,697.63,136.42,689,153.3,697.47Z"/><path class="cls-35" d="M195.71,544.5l9.82.28c3.44,2.56,7.43,1.14,11.17,1.54s8.42-1.43,9.79,3.68c1.61,6-3,8.74-7.29,11.41-9.21,5.73-20.88,1.77-30,7.77C179.06,575,174,584.81,169.46,595c-11.55-6.38-26.93.88-37.09-10.42-2.17-7.6-4.46-15.18-3.55-23.25,4.42-4.37,10.3-3.18,15.62-4.07,4.4-.74,8.33-1.92,11.46-5.7C169.3,535.34,174.88,534.46,195.71,544.5Z"/><path class="cls-36" d="M195.71,544.5c-5.41-.44-11-.17-16.19-1.48-9.42-2.38-17.27-4.36-17.88,9.88-.4,9.2-8.93,7.21-15,8.88s-11.87-1.13-17.79-.49c-4.34-6.16-3.4-13.18-3.27-20.07,11-12.24,25.67-3.07,38.5-6a68,68,0,0,1,41.3,3.83Z"/><path class="cls-37" d="M174.94,627.53l.16-12.7c-3-5.88-4.87-11.85-1.76-18.3.31-.42.85-1.26.94-1.21,14.91,7.37,29.4.64,44-1.19.88-.11,1.76,1,2.48,1.87,3,5.19,2.69,10.9,2.73,16.58,0,6.27-.07,12.48-5.25,17.15C203.59,633.8,189,636.51,174.94,627.53Z"/><path class="cls-38" d="M175.4,594.75q-.15,10.05-.3,20.08c-4.69-3.74-10.23-3.48-15.8-3.56-25.56-.37-25.55-.43-26.94-26.73,11.54,6.58,27.46-4,37.22,9.52A4.23,4.23,0,0,1,175.4,594.75Z"/><path class="cls-39" d="M174.94,627.53l44.14.29a14.86,14.86,0,0,1,12.37-3.7c5.9.74,11.59,3.17,11.74,9.67.17,7.75-6.84,5.87-11.3,5.69-25.37-1-50.86,2.67-76.14-1.88l0,.11C156.45,623.56,167.9,629.69,174.94,627.53Z"/><path class="cls-40" d="M479.11,404.44l63.2,0a68.89,68.89,0,0,0,31,3c7.84,1.07,16.05.95,22.35,7-1.72,7.81-7.18,11.76-14.36,14-44.91,3-89.88.72-134.82,1.36-47.58.69-41.65-5.47-42.13,41.4-.16,16.1.09,32.2-.09,48.3-.08,7.16.55,14.54-3.93,20.91-11.41,1.77-8.63-7.82-9.08-12.87-1.42-15.92-.37-32-.64-48-.11-6,1-13.21-3.48-17.44-14-13.12-9.88-29-8.33-44.65,1.33-10,8.29-12.58,16.95-12.94,21.16-1.19,42.13-4.75,63.33-5.16C466,399.19,473.46,398.68,479.11,404.44Z"/><path class="cls-41" d="M593.42,357.62c13.13-3.49,26.08-6.17,40.06-3.89,10.2,1.67,21.48,2.51,31.24-.14,18-4.88,33.4-1.28,48.27,8.48-1.13,8.3-4.46,14.65-13.84,15.65a572.82,572.82,0,0,0-93.08-.13c-8.14-1.31-10.17-8.47-13.65-14.24Q592.93,360.47,593.42,357.62Z"/><path class="cls-42" d="M559.46,341.25c12-3.76,20.95,8.72,32.73,6.34-.07,3.36-.15,6.72-.22,10.09C577.09,360.2,565.27,356.65,559.46,341.25Z"/><path class="cls-43" d="M592.21,324.8c-.09-3.49-.17-7-.26-10.47-1.68-14.86,7.69-19.1,19.74-19.32,28.64-.54,57.3-.45,85.95-.6,16.81-.09,15.12,12.25,15.55,23.16q-.36,8.48-.73,16.95c-11.14-14.68-24.53-17.7-40.59-8.09-4.82,2.88-9.84,4.6-7.44,12.37,2.09,6.74-3.42,10.63-8.88,11.53-7.13,1.17-11.93-4-12.51-10.46-1.15-12.78-3.92-21.24-19.15-13.34-1.46.76-4.35-.33-6.17-1.32-12.65-6.83-16.94-.13-18.83,11.18a18.3,18.3,0,0,1-6.14,11.44Z"/><path class="cls-44" d="M398.89,541.28c0-33.73.59-67.47-.17-101.18-.29-12.61,3.91-15.94,16.12-15.81,57,.57,113.91.26,170.86.27,6.44,11,13.19,12.24,23.42,3.26,9.18-8.07,20.49-13.47,33.42-6.78l19.93.52c16.09-1.37,31.54-2.08,44.13,11.74,7.65,8.42,13.58.22,19-5,4.12-5.36,10-3.63,15.34-3.64,49.11-.11,98.24.57,147.33-.45,15.34-.31,19.44,5,17.87,19-.92,8.17,0,16.54,0,24.81,8.83,18.42,4.81,37.54,3.08,56.52-3.88,8.42-13,8.46-19.73,12.4-7.7,2.25-14.21,5.4-11.68,15.44a12.78,12.78,0,0,1-1.19,4.46c-12.79,16.41-12.85,16.5-30.15,4.06-4.92-3.53-15.91-1.12-14.43-10.23s11.58-5.69,18.08-7.28a10,10,0,0,0,3.14-.89c1.64-1.06,2-2.27-.16-3.1a8.3,8.3,0,0,0-3.32-.22c-9.61.75-19.38-1.51-28.68,2.15-4.45,2.75-3.73,7.48-4.56,11.63s-1.47,9.33-7,9.49-6.39-4.87-7.46-9.09c-.91-3.61,0-7.69-2.8-10.72-6.84-2.5-8.59,3.22-11.18,7.09C774,570.76,774.08,570.78,760,548.45c-2.5-4-4.11-9.86-11-6.15-3.92,7.31-.9,15.27-2.42,22.74-.75,3.69-.84,8.71-5.31,9.16-5.07.49-5.15-4.78-6-8.34-1-4.76-.19-10-3.84-14-14.59-18.36-30-11.22-45.45-1.43-5.26.64-8.84-2.69-12.73-5.31-19.43-9.9-25.73-7.78-41.41,14-2.91,6.69-7.7,11.83-13,16.69-10.62,9.7-19.45,7.18-23.23-6.82-2.43-9,1.49-18.71-3.25-27.35-2.3-2.16-5.16-2.61-8.16-2.67l-9.45.06c-12.28.36-24.72-1.38-36.63,3.14-4.26,1.29-7.66-1.3-11.36-2.52a49.14,49.14,0,0,0-9.06-.79,130.77,130.77,0,0,0-13.72.48c-5.33.14-7,4.65-9.65,8-5.54,7.09-9.83,3.73-14.39-2.81,1.25,8.09,4.05,14.83,2.37,22-1.16,4.87-2.29,10.63-8,11.22-5.08.53-6.71-4.88-8.41-8.83-3-7.06-4.74-14.67-8.46-21.42-1.55-2.82-2.71-8.45-7.83-3.13-6.26,13.09-15.33,15-30,4.23,11.31,11.81,10.06,19.84-.06,26.75-14.82-2.37-21.49-12.78-25.49-25.84C394.36,546,396.26,543.41,398.89,541.28Z"/><path class="cls-45" d="M642.54,421c-12,2.13-25.23.62-33.92,12.64-3.37,4.66-8.26,9.33-15.24,7.12-8.12-2.57-7.29-9.79-7.68-16.24,2.78-3.91,5.11-8.26,9.92-10.18,10.72-4.33,22.39-4.57,33.38-8.72C642.67,400.51,645,409.7,642.54,421Z"/><path class="cls-46" d="M725.65,428.26c-1,11.57-8.08,21-17.26,11.16C695,425.09,678.67,425,662.47,421.55c14-7.71,29.38-7.31,44.63-7.82C716.73,414.17,722.31,419.79,725.65,428.26Z"/><path class="cls-47" d="M692.83,380.67c-25.05,18.3-50.52,20.15-79,.09h79Z"/><path class="cls-48" d="M606.07,377.59c22.34-7,45.25-1.84,67.88-2.91,8.3-.39,17.49-3.31,25.21,3l-6.33,2.95,0,.09c-21.67-4.79-43.63-1-65.42-2.2C620.31,378.18,613.19,377.91,606.07,377.59Z"/><path class="cls-49" d="M1002.52,585.05q-3.24-3.46-6.47-6.92c-10.38-1.85-21.11,8.68-31.27-.89-3.2-13-7.45-24.8-21.83-30.21-6.48-2.44-10.45-9.44-8.4-16.18,3-9.88-3.56-13.67-9-18.67a4.4,4.4,0,0,1,.83-4.33l26.13-.27c12.64-2.67,24.93-3.47,33.79,8.46,4.29-5.36,1.37-9,1.48-12.69.07-2.33,2-5.81,2.53-5.37,10.37,8.47,12.64-5.17,19.16-6.79,5.09,7.41,16.79,5.58,21,15.57-6.89,2.79-15.9-1.86-21.16,6,4.46,5.07,13.23,2.9,18.77,10.33-11.43,1.25-22.68-6.29-33.38,1.95,10.67,6.45,24.59,4.66,31.42,16.17-9.82,5.49-17.86-3.26-27.12-2.82.33,3,5.95,4.66,3.57,8.81-2.52,4.4-2.73,4.23.73,7.38a57.94,57.94,0,0,1,8.87,9.92c3.62,5.28,13,9.32,9.9,15.8S1009.68,585.61,1002.52,585.05Z"/><path class="cls-50" d="M926.36,507.85l-.06,3.46c5,15.89,3.84,17.75-12.54,20.48-3.25-.46-6.15-1.57-8.06-4.46q.27-29.69.53-59.37c10.76-2.63,7.72-18.91,19.9-20.15l3.5,3.34c2.18,15.76,3.9,31.49-3.2,46.61C926.41,501.12,926.38,504.48,926.36,507.85Z"/><path class="cls-51" d="M926.43,497.76q1.61-23.29,3.2-46.61c2.19.75,4.24-10.2,6.1-.47,1.53,8-4.5,15.93-1.61,25.71,10.43-10.05,16.11-22.21,20.89-34.6,5.44-14.11,4.85-31.62,24.31-37.4-2.76,15.41-14.07,27.26-19.26,42.59l8.68-3.26,1.5,1.48c-3.36,10.47-14.3,13.4-20.76,20.81-4,4.62-7.61,9.36-9.59,16.68,13.88-1.66,25.23-8.2,37.57-12.37C963.8,485.55,942.15,486.33,926.43,497.76Z"/><path class="cls-52" d="M1009.45,491.19c-.82,1.31-2.64,3-2.3,3.86,2.51,6.06,1.61,11.44-4.57,13.69-6.91,2.53-5.13-7.62-11.54-8.36-1.86,4.82,3,8.1,3.9,12.19s-1.49,6.18-3.88,8.44c-3.42,3.24-6.59,1.3-8.16-1.63-6.86-12.78-18.88-11.5-30.41-11.8,4.59-6.06,16.66,1,18.72-13,.95-6.46,15.51-7.53,25-6.67C1000.75,488.45,1006,486.37,1009.45,491.19Z"/><path class="cls-53" d="M968.74,443.72l20.69-27.39,3.37,2.46c-5.53,10.21-12.69,19.27-22.56,26.41A20.92,20.92,0,0,1,968.74,443.72Z"/><path class="cls-54" d="M1002.52,585.05c4.73-5.24,11.2-5.18,20-3.95-13.91-12.86-21.53-27.73-36.84-34.74,4.73-4.68,9.91,1.66,16.94-.56l-17.06-11c16.36-3.31,28,4,40.47,6.42-.87,9.61,8.65,10.3,13.18,11.51,6.49,1.73,9,4.91,11.25,10-5.4,5.71-13.28-4-18.26,3.43,2.79,5.33,11.47,4.24,13,12.07-5,2.51-9.38-7.88-14.47-.77-.82,6.12,7.1,7.77,8,14.17-6.27-1-13.66-1.85-11.35,7.82,1.14,4.8,0,8.56-1.08,12.81-1.33,5.21-3.93,10.13-9.09,10.82-5.48.74-5.94-5.6-8-9.2C1004,605,1002.6,595.16,1002.52,585.05Z"/><path class="cls-55" d="M965.73,574.5c3.93,4.93,8.7,3.41,13.57,1.87,5.8-1.84,11.71-4,16.75,1.76-4.37,13.89-11,27.62,6.27,38.85,2.47,1.61,3.36,15.39-1.73,18.57-13.21,8.3-7.84,14.94-.67,22.66l-.57-.22c-14.59,3.62-24.81-6.13-21-22,1.78-7.42-1.67-11.72-3-17.61-3-13-9-23.6-17-33.63C958.36,579.6,958.9,574.79,965.73,574.5Z"/><path class="cls-56" d="M959.37,584.51c8.16,2.81,9.57,13.2,18.34,15.85,4.34,1.31,2,3.55-1.22,4.64-2.76.94-2.47,4.82-1.65,5.38,14.51,10,6,25,8.45,37.62,1.67,8.79,8,11,16.06,10-1.54,4.85-5.53,7.44-9.39,10.15L979.48,678c-6.32-3.61-8.69-9.52-9.77-16.32-1.19-7.51-1.46-15.28-9.45-19.93-3.89-2.26-2.59-6.79-1.53-10.58,1.13-4.1,3.84-8.42-1.72-11.52-1.91,1.88-6-9.27-6.23,1-.14,4.92-3.46,8-5.41,11.84-1.42,2.66-1.1,5.06.27,7.8,8.07,16.17,7.42,17.39-11.29,23.22-17.08,6.48-22.41,4.1-23.86-12.84-.64-7.55-4.82-13-6.93-19.55-1.2-9.67-5.28-16.87-13.58-23.11-18.12-13.65-20.45-32.65-14.42-53.39l.65-3.33c-.25-7.83,5-12.19,10.38-16.45,5.06-5.85,11.8-7.43,19.11-7.54l6.95.91c8.79,5.53,16.86,10.43,14.49,24-1.62,9.21,13.44,11.07,13.81,20.92C941.45,586.27,953.68,580,959.37,584.51Z"/><path class="cls-57" d="M933,661.55c8.9-4.76,26.66-6.43,6.5-20.74-5.93-4.22-.29-7,3.17-9.43,8.1-1.07,12.85-6.32,16.35-13.12,11.72-2.66,6.22,4.9,5.48,9.4-.85,5.09-11.19,14,5.2,11.74,2.2-.3,1.4,3.16,1.62,5.25,1.23,11.46,2.88,22.89,8.17,33.38-3.55,6.77-11.15,8.48-16.38,13.14-2.81-.95-1.14-4.85-3.85-5.87-4.78-.13-10-2.54-13.7,2.75-5.31,10.68-3.35,26-19.19,29.93q-.17-21.66-.32-43.32C923.75,667.85,930.72,665.94,933,661.55Z"/><path class="cls-58" d="M973,734.58c-2-3-4.07-5.9-3.29-9.79l38-31.55L979.24,721.6c22.36,6.66,28.5-11.18,44.1-18.25l-10.68,15.74c20.78-4,38.71-5.77,53.47-17.78,9.65-7.3,19.19-6,29.92.36-14,8.55-30.32,7.28-45.86,16.21h43.3c-8.28,9.22-18.3,6-27.27,7-4.58,4.26-10.26,4.4-15.7,3.16-11.44-2.62-22.91-2.25-36.36-1.13,11.59,2.15,20.39,6.9,29.71,10.3,3.68,1.35,7.79,3.66,6.6,8.28-1.5,5.84-6.73,4.59-11.1,4-8.41-1.16-15.54-5.8-23.3-8.72-6-2.27-11.29-7.22-19.39-5.56.08,7.45,6.62,11.21,9.25,16.92,1.2,2.6,2.45,5.53.52,7.84-2.83,3.38-6.28,1.23-8.8-.69A137.11,137.11,0,0,1,973,734.58Z"/><path class="cls-59" d="M959.25,685.3c3.69.38,3.15,3.53,3.85,5.87q1.23,13.43,2.47,26.84C958.37,708.09,959.55,696.56,959.25,685.3Z"/><path class="cls-60" d="M1059.49,754.67l-6.73,6.78c-8,4.2-15.47,12.88-24.94,2.32,2.9,18.43-1.18,21.43-28.34,21.07-11.21,5.49-15.24-1.27-16.41-10.51s-2-18.21-7-26.27c-2.49-4.16-4-8.54-3-13.48,14,3.52,18.79,19.11,32,25.18-.36-8-7.74-10-10-15.24-2-4.63-10.14-8.2-5.46-13.81s11.16-1.83,16.79.75c11.94,5.47,23.37,12.25,36.45,14.92,1.44.3,3,0,7.81,0-13.37-9.54-27.78-10.45-38.34-19.74,17.8-11.71,36.12-.23,53.89-1.83C1066.4,735.34,1056,743.44,1059.49,754.67Z"/><path class="cls-61" d="M657.83,181.39c1.93,8.15,8.16,14.77-2.14,19.7-4.18,2-9,4.55-11-1.16-2.67-7.54,3.58-3.21,6.38-3.92C657.62,194.33,654.5,187.69,657.83,181.39Z"/><path class="cls-14" d="M639.13,167.6c9.22-9.49,18.92-9.37,26.41.32C656.72,168.53,648,165.06,639.13,167.6Z"/><path class="cls-62" d="M215.83,411.62c4-5.25,11.79-8.34,9.74-17.05,15.59,5.65,17.36,19.76,19.66,37.07,9.47-16.59,18.19-13.42,28.78-5.26,7.64,5.88,15,13.14,25.26,15,4.71,5.73,1.29,11.26-.35,16.84-3.91,7.86-.82,16.08-1.18,24.13-1.56,8.2.38,16.92-3.68,24.73-7.19,5.33-11.55.83-10.71-5.4,1.38-10.29-2.07-19.72-2.7-31.32.06,7.51,2,13,2.72,18.61.42,3.16,1.85,7.17-2.11,8.76-3.65,1.46-5.84-2.18-8.24-4.28-5.23-4.58-8.95-10-8.13-17.35.77-6.87-3.22-12.69-4-18.69-1,3,1.86,5.42,2.48,8.46.56,2.69,1.54,5.81-.89,7.8-3.61,2.94-6-.5-8.4-2.51C235,455.36,226.58,432.75,215.83,411.62Z"/><path class="cls-63" d="M295.12,479.76c-4.4-7.65-6.27-15.14,1.36-22.05,12.43,0,20.61-13.37,35.15-9.8,6.16,1.51,9.6,2,11.41,8,2.52,8.37,5,16.91,17.13,10.76,1.67-.85,3.43,2.07,3.14,4.6-.11,2.31-.21,4.61-.32,6.92.31,7.84-5.81,11.1-10.9,14.87-7.84,5.83-12.65,13.13-12.74,23.14a77,77,0,0,1-7.05,21.74c-5.08,9.68-11.29,9.81-16.14-.2C313,531.24,308.43,526,304.73,520,312.33,504,298.36,493.16,295.12,479.76Z"/><path class="cls-14" d="M363.31,471.27c-1.2-1.08-2.62-3.29-3.56-3.1-16,3.26-18.13,1.65-22.27-17.81-5.08-1.91-9,13.58-15.73.95-1.56-2.92-6.25,3.91-9.46,6.24-5.37,3.9-10.44,8.84-15.82.16q1.41-8.18,2.8-16.34C312.58,425,325.75,420.78,342,427.65,356.69,433.84,365.26,451.42,363.31,471.27Z"/><path class="cls-64" d="M398.89,541.28l-2.52,7.13c-13.05-1.83-18.47-11-21.55-22.42-3.07-20.4,5.7-40.41,1.92-60.83q-.44-22-.88-44l2.9-3.7c.17,7.7.31,15.41.52,23.12.1,3.8-.79,8.71,3.51,10.25,15.48,5.55,12.29,18.34,13.06,30.23C397.14,501.1,391.92,521.51,398.89,541.28Z"/><path class="cls-65" d="M335.8,514.14c-3.68-12,4.57-18.34,12.58-23.61,5.48-3.61,10.95-6.77,14.61-12.34l2,5.88c-1.49,5-1.34,9.06,2.8,13.54,11.31,12.24,11,12.51-4.29,18-1.54.55-2.94,1.54-4.52,2.17C350.82,519.24,342.67,520.76,335.8,514.14Z"/><path class="cls-66" d="M875.56,554.65c1.27,2.78,6.73,2.11,4.16,8.49-6.51,16.18-1.82,33.92,13.45,42.16,12,6.47,14.1,14.71,13.46,26,3.81,17.79,7.76,35.59-.24,53.33,2.68,16.93-4.8,20.7-21.17,20.62-137.8-.69-275.61-.38-413.41-.32-6.08,0-12.16.55-18.21.85-10.1-15.57-7.13-34.09-11.48-50.95,8.24-.27,16.48-.72,24.72-.75,6.54,0,11.07-2.68,10.9-9.38-.16-6.46-5.67-7.35-10.84-7.38-17.61-.12-35.24-.6-52.83.07-11.64.44-19.39-1.33-18.78-15.58.18-4.27-3.31-8.7-5.12-13.05,12-8.91,25.9-16.24,28.59-33.2C430,563,421.46,554,411,545c12.69-5.51,27.59,23.22,35.16-4.35,8.59,1.14,8.78,9,11.46,14.68,3.77,8,6.39,16.56,10.13,24.62,3.49,7.53,7.43,7.93,11.18.34,5.65-11.43,11.38-13.42,17.77-.66,4.65,9.28,8.63,6.62,12.21-.72,7-14.44,10.45-30.47,19.59-44l7.07,6.28c7.72,8.48,4.18,18.92,4.62,28.53.84,18.75,1.74,19.9,22.3,19.7-8.07-2.3-15.67-4.3-16.14-13.86-.37-7.74,4.89-10.48,14.41-12.24-8.78-2.57-15.2-5-14.18-13.22,1.1-8.84,8.4-9.09,15-10,4.84-.69,10.14,0,13.36-5l11.86,0c6.71,11.24,3.17,23.61,3.69,35.47.79,18.1.8,18.48,19.62,19.25-19.82-6.44-25.31-26.32-15.1-54.71,8.56,6.82,2.87,16.22,4.31,24.33.91,5.19-1.43,11.09,3.64,15.3,3.42,2.83,5.55,8.74,10.49.09,4.15-7.28,13.11-11.46,16.29-20.08,4.42,4.29,3.08,10.34,4.69,15.49,5.32,16.9,17.86,22.18,34,13.41-9.29,4-18.28,5-25.39-3.28-5.78-6.7-7.62-14.65-4.61-23.18,3.75-10.62,11-16.52,22.66-14.48,4.85.84,9.5,3.39,13.87-1,4.49.84,6.05,7,11.37,6.32,4.07,5.64.36,11.72,1,17.57,1.24,12.45,12.62,24.14,23.4,23.66,9.57-.42,20.1-12.62,21.08-23.91.51-5.85-2.47-12,1.49-17.55,12,4.4,2.8,15.71,7.71,23,5.78-11.46-3.93-25.33,6-35.7,7.45,14.51.95,30.49,4.83,47.6a60.11,60.11,0,0,1,0-8.78c.72-5.77-1.39-13.75,5.86-15.7,6.33-1.7,8.77,5.43,11.64,10,3.25,5.16,6.15,7.78,11,1.34,3.32-4.39,4.57-13.64,12.19-10.55,6.05,2.47,4.11,10.68,4.6,16.63.14,1.65,0,3.32.37,5.42,3.47-15.41-3-31.35,4.39-45.92,9.83,5.62-.25,17.59,7.58,24.4,7.81-6.84-2.26-18.77,7.55-24.43,6.6,11.36,3,23.8,3.54,35.74.75,18.63.37,18.65,19.84,18.82-7.6-1.52-16.38-1.36-17.54-12-1-9.34,5.52-12.22,13.36-14.76-6.92-2.33-13.66-4.19-12.62-12.83.95-7.84,7.25-8.83,13.4-9.84,5.3-.87,11.34.36,15-5.19,4.09.23,10.64-2.64,11.43,2.4.85,5.47-4.78,9.42-10.48,10.3s-11.83.81-18.92,1.22C860.57,568.19,860.57,568.19,875.56,554.65Z"/><path class="cls-21" d="M378.32,655l11.27-.12c3.24,22.79,9.14,45.11,9.3,68.48.1,14.58-4.05,29.18,8.77,43.73,8,9.12,5.88,27.24,8.3,41.33-1.07,5.33,1.84,13.21-8.09,12.91-11.13-.32-23.81,3.35-29.57-11.22-3.38-8.52-2.81-17.09-.82-25.82,1.18-5.15,3.79-11.26-5-12.6q1.76-19.35,2.89-38.73c7.35-12.94,5.92-25.28-2.59-37.15C372.94,682,372.32,668,378.32,655Z"/><path class="cls-21" d="M456.05,808.16c.24,22.65-17.2,9.9-26.58,13.29-2.87-15.8-5.82-31.58-8.58-47.4-.88-5-4.52-12.58,4.69-12.37,8.11.18,20.05-6.89,23.48,7.25C452.19,781.81,453.78,795.07,456.05,808.16Z"/><path class="cls-67" d="M402.17,655l27.44,0c2,11.37,5,22.69,5.5,34.12.21,5.16,9.06,15.3-4.07,16.33-9.47.74-22.77,5.81-23.18-13.07C407.59,679.86,404.17,667.42,402.17,655Z"/><path class="cls-68" d="M670.24,788.43c-.66,13.32-7.57,19.62-19.1,19.31-11.82-.33-18.16-8.14-17.83-19.52.32-11,7.61-17,18.42-17.14C663.78,770.89,669.55,777.93,670.24,788.43Z"/><path class="cls-22" d="M685.67,821.51q-.09,6.71-.2,13.4c-22.53,8.46-47.25-6.32-69.36,6.55-3.49-16.47,3.55-21.47,19.59-20.2C652.26,822.56,669,821.52,685.67,821.51Z"/><path class="cls-69" d="M476.52,861.33c-2.08-12.49,7.15-9.82,13.71-9.84,40.68-.16,81.36-.08,122-.08-1.3,9.62-8.89,6.53-14.3,6.6-22.15.3-44.31,0-66.47.2-5.32,0-11.21-1.81-15.66,3.07Z"/><path class="cls-70" d="M906.39,684.65l.24-53.33c4.12,6.07,8.55,10.89,7.61,20.13-1.4,13.77,8.51,13.93,18.75,10.1.11,5.66-4.94,8.58-7,13.11C914.41,668,913.06,681.56,906.39,684.65Z"/><path class="cls-71" d="M193.06,774.42c-1.12-6.86,1.71-13.08,3.16-19.53,8.41-9.83,20.55-14.9,29.95-23.49,2.91-2.65,6.92-3.45,10.86-3.65,5-.25,10.75-1,14.06,3.15,4.31,5.47-2.55,8.53-4.36,12.68-1.48,3.41-5.3,5.42-5.74,7.74,7-6.09,9.33-18.81,22.49-20.5,5-.4,9.94-.4,14.53,2.06,6.13,6.17,1.05,11.06-2.1,15.88-4.27,6.5-8.27,13-7.6,21.2-3.78,9.31-.69,21.68-12.22,27.55-.77-2.55-1.43-7.29-2.34-7.33-15.81-.83-15-9.44-8.21-20.65-12,2.78-13.95,24-29.21,13.49-10.52-7.25,5.65-12.24,2.79-21.08C210.58,766.23,205,778.19,193.06,774.42Z"/><path class="cls-72" d="M256.09,797.51q4.92-14.52,9.85-29c9.26-5.21,15.86,1.64,23.22,5.11,4.43,7.19-.29,12.62-3.5,18.35-12,14.86-19,33.33-33.35,46.56-4.17,3.34-6.69,11.89-14,6.1-6.17-4.86-2.23-10.62.79-15.83,2.69-4.65,5.24-9.39,7.85-14.09C253.89,811,252.42,802.9,256.09,797.51Z"/><path class="cls-73" d="M350.66,827.6c-5.38,13.8-2.94,30.35-14.76,41.88-9-2.16-7.19-9.69-8-15.93-.12-2.73-.06-5.46.08-8.18a58.52,58.52,0,0,1,1.28-10.47c3.31-15-4.65-28.15-7-42.24-.77-5.85-1-11.56,3.69-16.16,8.93-3.75,17.71-5,26,1.61Z"/><path class="cls-74" d="M352,778.11l-26.49,0c-3.3.15-4.32-1.2-2.8-4.23a10.44,10.44,0,0,1,4.28-2.21c22.62-4.46,26.24-9.72,24-34.74-.14-1.62,1.08-3,2.38-4.06,8.34-2.79,16.65-5.89,25.41-1.6-1.75,13.53,5.48,28.47-6.32,40.44C366.31,776,358.9,776.29,352,778.11Z"/><path class="cls-75" d="M165.73,698.29l14.2,6.69c-10.54-20.72,4.53-20.21,15.22-23.31q-3.1,19.88-6.2,39.74c-19.56,6.77-26.17,1.16-23.88-20.25A8.4,8.4,0,0,1,165.73,698.29Z"/><path class="cls-76" d="M181.56,768.6c-9.54-1.32-17.49-6.63-26.06-10.39q1.89-10,3.77-19.91c9.07-4.43,18.17-12.93,27.17.12Q184,753.51,181.56,768.6Z"/><path class="cls-77" d="M186.44,738.42c-9-7.66-18.13,2.79-27.17-.12-.05-4.8-2-9.95,2.7-13.82,1.86,1.79,3.55,3.85,6.33,3.81,2.17,1,2.36-.63,1.32-.44-2.8.53-5.68-.9-7.64-3.38,1.06-7.76-2.13-16.1,3.09-23.31-2.42,19,10.46,19.94,23.88,20.25C188.59,727.15,190,733.15,186.44,738.42Z"/><path class="cls-78" d="M378.32,655H265.75c-4.42,10.82-4.85,36.51-4.89,41a18.52,18.52,0,0,1,1.78,3.2c5.95,4.92,16-.4,19.87,5.46,4.48,6.86-3.52,14.17-4.19,21.72-.25,2.74-.87,5.43.6,8,.08,7-7,9.9-8.87,15.45-2,6-11.48,10.62-4.11,18.67l22.52,7c15.73,3.27,14.69-12.44,21.62-19.22,6-2.32,4.25,2.89,4.83,5.27,1.26,5.22.89,11.22,7.72,13.11,9.65-1.67,25.1,5.5,27.75-4.71,2.75-10.54,14.51-23.36,2.05-35.61,2.55-15.61,5-31.26,23.45-36.74C376.69,683.34,381.56,669.39,378.32,655Z"/><path class="cls-79" d="M209.65,677.87c20.57-6.39,38-1.67,54,12.94,5.67,5.19-1.66,4.17-1.36,6.3-4.65,8-9.46,16-11,25.39-10.15,11.61-21.13,2.06-31.78,1.29-6.61-.93-12.38-3.42-16.39-9.06Z"/><path class="cls-80" d="M218.74,721.36c4-5.84,7.66-.66,11.17.67,6.63,2.51,13.09,6,19.25-.8,7.73.78,11.42,5.91,13.61,12.66-14.23,4.85-16.89,20.85-29.2,30.44,1.11-14.06,12.2-21,16.52-31.71-11.38-3.14-20.25-.94-28.61,7.35a57.06,57.06,0,0,1-25.26,14.92c-.16-5.79-2.05-11.82,2.43-16.95,6,6.65,9.12-.54,13.86-2.14-2.54-4.72-8.4-3.63-10.31-7.84a7.58,7.58,0,0,1,.24-3.28C206.86,718.56,213.67,724.27,218.74,721.36Z"/><path class="cls-81" d="M202.2,728c6.32.54,12.52,1.43,18.07,5.25-18.05,15.69-18.05,15.69-21.62,4.73C199,734.34,199,730.58,202.2,728Z"/><path class="cls-82" d="M218.74,721.36c-4.09,7.72-11.13.92-16.3,3.32.21-3.32.42-6.63.64-9.95Z"/><path class="cls-83" d="M312.22,834.35l.09-42.62c-8.43-12.83-4.1-26.76-3.47-40.36,3.83-6.61,6.51-6.22,8.91,1.09s.25,15.43,4.88,22.13l2.85,3.48q.07,7.78.16,15.55c1.62,14,3.49,27.9,7.05,41.53q-.35,4.82-.68,9.62c-1.29,2.07-4.7,2.93-4.16,5.84.22,1.15,2.88.07,4.25.89,1.31,6-2.26,13,3.81,18-7.07,0-11.8,4.72-17,8.44V848c-5.91,3.2-.64,11.17-6.91,13.27a13.86,13.86,0,0,1-3.38-8.14c-.53-3,0-5.9.27-8.84Q310.55,839.31,312.22,834.35Z"/><path class="cls-5" d="M418.76,575.58c1.28,22.28-1,25-28.61,33.2l-4.73,1c-6.87,5.13-14.79,7.44-23.1,8.71a43.09,43.09,0,0,1-12.26-.71c-14.54-4.24-23.26,6.59-33.69,13-9.6.6-19.19,1.23-28.73-.39a7.22,7.22,0,0,1-4.31-6.29c-.23-3,3.23-9-4.87-4.28-5.32,3.08-11.59,1.93-16.17-3.26-2-3-.87-5.89.42-8.74,3-8.08-2.44-15.66-1.44-23.65-2-16.7,7-31.45,8.22-47.58,1.69-4.12,5-7,7.89-10.15,4.41-3.89,8.63-8.2,15.16-8.22,6.85.29,9.15,5.26,11,10.72,3.4,9.77,7.84,20,19.58,19.84,10.1-.13,13.92-10,17.21-18.25,5.16-13,13.39-16.67,25.82-9.66,6-1.11,6.11,8,12.07,6.85,3.5,9.11,11,14.7,18.1,20.69C400.05,560.58,410.82,566.91,418.76,575.58Z"/><path class="cls-84" d="M318.84,627.57c6.47-12.84,16.28-17.84,30.31-12.94,2.66,2,5.57,5,2.49,7.55-6,5,1.47,8,1,12a96.07,96.07,0,0,1-30.32.25C320.06,632.69,316.52,631.62,318.84,627.57Z"/><path class="cls-85" d="M363,614.84l22.45-5.07c0,17.42-10.69,20.88-25.2,19.46C348.08,621.93,354.82,618.25,363,614.84Z"/><path class="cls-86" d="M318.84,627.57q1.74,3.42,3.47,6.85l-29.31.36c-8.59-3.36-17.3-1.85-26-.79-6,.72-12.21,2-17.31-2.94,4.84-5,11.28-1.86,16.81-3.32,5.83-4.89,12-4.65,18.38-1.22C296.11,629.05,307.5,627.69,318.84,627.57Z"/><path class="cls-87" d="M363,614.84c-6.56,3.71-9.53,8.11-2.75,14.39,1.07,7.17-3.85,5.15-7.59,4.94l-11.29-4.44c-.66-6.85,12.68-6.16,7.81-15.1Z"/><path class="cls-88" d="M249.65,631.05C264,633,279,627.72,293,634.78c-8.13,1.92-17-1.68-24.74,3.18C262.42,634.64,252.17,643.24,249.65,631.05Z"/><path class="cls-89" d="M215.83,411.62c9.8,1.72,10.15,10.85,12.7,17.49,6.72,17.47,18.16,31.11,33.42,42.94-2-9.24-4.05-18.47-6.53-29.75,9.09,4.83,6.25,12.42,8.13,17.82a107,107,0,0,1,5.17,20.81c1,7.65,6.36,11,13.26,17.5-2.06-14.78-3.7-26.62-5.35-38.47,6.85,10.78,8.53,22.26,9.25,34.05.3,4.91-2.66,11.8,5.74,13.47,2.39,1.68,2.63,3.95,1.81,6.52-11.1,5.13-21.41-4.78-32.41-1.68l-2.13-1.2c-1.64-13.88,11.4-2.59,15.32-11.65-12.34-20.66-41.23-9.58-59.46-27.09l44.63,10.21c-18.08-26.59-49.64-32.84-65.45-62.2,14.85,10.72,23.09,22.93,39.62,30.28-6.74-9.38-11.17-16.59-16.66-22.88C212.06,422.25,211.34,417.33,215.83,411.62Z"/><path class="cls-90" d="M258.84,531.26c-6.52-5.33-6.84-12.67-6.56-20.22l6.61.08.18.11c5,5.61,4.5,11.74,1.75,18.1C260.17,530,259.5,530.62,258.84,531.26Z"/><path class="cls-90" d="M272.39,534.92c.87,18.41-7.89,35.63-6.66,54.08-10-10.45-23.4-8.7-35.94-10.06-13-10.7-29.9-6.68-44.46-11.49,2.1-8.72,9.26-5.51,14.74-6.23,3.76-.49,7.87-.09,11.21-1.52,4.57-2,13.07-.82,12.28-8.05-.7-6.31-8.17-2.52-12.4-4a44,44,0,0,1-5.63-2.89c19,2.19,34.63-12.67,53.61-10.34C263.68,531.13,268.13,530.52,272.39,534.92Z"/><path class="cls-91" d="M272.39,534.92l-13.25-.48q-.11-1.59-.3-3.18l.51.18c5-8.91,11.79-8.82,19.51-3.73C278.9,532.08,276.82,534.55,272.39,534.92Z"/><path class="cls-92" d="M185.33,567.45c18-5.19,39.15-.48,47,10.47,4.5,5.45,4.94,11.27.22,16.5-3.93,4.35-8.85,3.76-13.44.41-13.64,10.19-33.28,10.16-43.7-.08l-5.82-.69C166.23,580.1,176.19,574,185.33,567.45Z"/><path class="cls-93" d="M219.1,594.83c13.56,1.53,14.5-6.82,13.22-16.91,13.85-4.53,26.17-4.41,33.41,11.07,1.25,4,0,8.5,3.38,12.17,4.52,4.93.37,6.19-3.7,7.12-15.2,4.86-30.89,2.33-46.35,3.08Q219.08,603.1,219.1,594.83Z"/><path class="cls-94" d="M528.48,535c-1.94,19.55-12.79,35.91-19.58,53.7-2.7,7.07-8.19,6.36-12.48.28-3.44-4.86-3.1-11.77-8.3-15.77-7.22,5.2-4.14,20.27-14.62,19.48-10.94-.83-9.34-14.52-13.7-22.25-5.34-9.49-7-20.78-13.66-29.74,6.31-9.19,10.71-6.56,14.13,2.27,4.18,10.77,8.37,21.53,13,33.41,7.82-9.1,6.84-17.25,3.33-26.51-1.52-4-8.82-10.71-.31-13.65,7.33-2.54,7.31,6.25,9.69,10.79a17.88,17.88,0,0,0,2,2.51c5.61-3.92,3.77-15,13.69-14.51,9.88,9.18-2.8,18.42.29,28.32,9.69-7.33,4.77-23.83,18.07-28.2Z"/><path class="cls-95" d="M801.75,535.11c3.08,16.54.79,33.25,1.4,49.87.15,3.89,0,8.38-5.66,8.12s-4.9-5-5-8.72c-.12-7.52,0-15,0-23.31-10,5.5-8.06,21.29-17.86,21.18s-8-15.73-18.1-21.91c0,8.57.15,16-.07,23.41-.11,3.55,1.34,8.71-4.42,9-6.44.34-6.39-4.91-6.31-9.41.3-16.09.73-32.18,1.11-48.26,8.55-1.19,13.16,3.21,16.39,10.63,2.84,6.52,6.63,12.61,10,18.94C786,557,782.06,534.8,801.75,535.11Z"/><path class="cls-96" d="M574.88,535.12c3,10.66-3.93,10.12-11.11,10.5-5.35.28-13.82-3.75-14.86,5.54-1.1,9.86,7.51,7.11,13,7.73,3.8.43,9.17-.17,9.34,4.66.24,7-6.23,4.25-10,4.8-5.56.8-13.57-2.12-12.76,8,.75,9.35,8.59,6.19,14.12,7.22,4.76.88,13.39-3,12.8,5.58-.53,7.61-8.86,4.62-13.83,4.62-28,0-25.19,3.48-25.39-24.29-.07-9.41-.41-18.82-.63-28.23,4.66-10.79,14.13-4.86,21.45-5.9C562.86,534.5,568.92,535.14,574.88,535.12Z"/><path class="cls-97" d="M733.18,547.84c5.41,15,6.23,29.33-8.06,40.24-9.91,7.57-20.7,7.68-30.56.22-14.19-10.75-13.75-25.12-8.3-40.23C705.31,530.41,714,530.37,733.18,547.84Z"/><path class="cls-98" d="M851.89,535c4.56,11.56-3.95,9.41-10.35,10.35-5.59.81-15.11-4.33-15,7.13.11,10.05,8.79,5.53,14,6.62,3.57.75,9-.7,8.84,4.85s-5.62,3.77-9.14,4.21c-6,.76-14.72-2.76-13.92,8.55s9.93,5.36,15.41,6.89c4.33,1.2,12-2.58,12.28,4.33.28,8.44-8,5.21-12.89,5.66s-10-.3-15,.09c-7.88.63-11.16-2.52-10.75-10.5.84-16-1.47-32.16,1.47-48.14Z"/><path class="cls-99" d="M674.89,541.75c3.14,10,0,13-9,7.2-7.83-5.08-14.83-5-20.43,2.31-6.33,8.22-7.05,17.58-.4,26,6.17,7.8,14.23,8.49,21.55,1.72,4-3.69,7.39-2.89,9.88,0,3.86,4.5-1,6.76-3.86,8.92-16.2,12.49-39,2.79-42.72-18.31-.85-4.81-.2-9.89-.25-14.85C643.47,533.27,653.84,530.29,674.89,541.75Z"/><path class="cls-100" d="M595,535.11c3,10.37,1.68,21,1.14,31.43-.65,12.48,2.38,19,16.42,17.19,4.49-.59,13-3.37,12.47,5.57-.44,7-7.9,4.13-12.38,4.27-27.28.86-27.39.75-27.12-27,.1-10.51.82-21,1.26-31.5Z"/><path class="cls-101" d="M520.07,535.08,503.25,575.3c-8.15-7.48-8.07-14.66-4.6-23,2.25-5.4,6.26-10.83,3.06-17.33Z"/><path class="cls-66" d="M886.59,534.87l-10.38,16.45C867.65,538.25,877.17,536.59,886.59,534.87Z"/><path class="cls-102" d="M959.37,584.51c-11.8,3.31-24.1,7.75-22.34-12.86.47-5.52-6.33-4.55-8.89-8.29-3.95-5.77-9.84-8.87-5.21-18.28,3.46-7-11.23-8.26-10.28-16.84,13.53,1.59,14.2-7.17,13.64-16.94,11.2,1.87,16.8,6.73,12,19.15-2.71,7,1.22,12,8.16,14.25,14.63,4.69,21.58,14.23,19.32,29.8Z"/><path class="cls-103" d="M959,618.26c.79,12.15-1.27,20.75-16.35,13.12-2.11-4.14,11-9.32-.87-12.8,1.34-2.16,2.17-5.34,4.11-6.31C952.27,609.1,955.56,614.16,959,618.26Z"/><path class="cls-104" d="M291.35,514.54l.27-7.06c2-9.14-3.14-19.17,3.5-27.72,5.65,7.17,12,13.92,16.74,21.65,4.29,6.95,3.28,13.64-6,16.53-3.93,4-8.47,1.41-12.79,1.2A3.85,3.85,0,0,1,291.35,514.54Z"/><path class="cls-84" d="M291.91,516.6l14,1.34c6.57,3.75,12.86,7.64,13.17,16.49.11,3.21.45,7.51,4.27,7.81,5,.38,5-4.69,6.11-8.09,2.19-6.65,4.25-13.34,6.36-20h26.9l3.49,6.74c-12.57-2.81-20.39,2.44-23.49,14.54-2.77,10.79-9.86,18.28-20.2,18.52-11.56.26-17.46-9.37-21.87-19.34-2.2-5,.06-13-8.82-13.78A4,4,0,0,1,291.91,516.6Z"/><path class="cls-105" d="M352.43,734.27c-1.64-28.06,2.57-34.65,23.45-36.74,14.16,10.09,13,21.51,2.9,33.7C370.26,734.55,361.44,735.25,352.43,734.27Z"/><path class="cls-106" d="M262.77,733.89c-6-2.63-9.8-7.66-13.61-12.66-1.68-11.33,1.68-19.92,13.12-24.12,30.22,1.16,30.23,1.16,19.83,29.69-.93,2.56-2.12,5-3.19,7.55Z"/><path class="cls-107" d="M308.84,751.37c6.67,13,2.12,26.92,3.47,40.35l-29.94-.49c2.94-4.92,6.57-9.57,6.09-15.8C302,773.11,300.72,758.26,308.84,751.37Z"/><path class="cls-108" d="M332.69,835.15c-3.12-.69-7.38-1-7.18-5,.6-12.18-4.39-24.37.13-36.51C329.25,807.25,338.85,819.87,332.69,835.15Z"/><path class="cls-109" d="M332.1,851.5c-3.5,1.89-1.62,8.2-6.16,8.51-3.29.23-3.3-3.45-3.49-6.14-.47-6.89,2.48-10.15,9.56-9.1Z"/><path class="cls-110" d="M162,724.47c5.76,1.23,12.26-1.24,17.48,3.42-13.76,5.93-13.76,5.93-17.49-3.41Z"/><path class="cls-111" d="M359.43,572.55c-.74-5.34-1.63-10.69,1.86-15.56,26.57,16.69,29.42,24.33,14.18,37.62-8-.88-16.56,3.6-23.9-2.77-2.27-3.65-1.45-7.15.53-10.59.6-4,2.48-6.79,6.86-7.2a23.33,23.33,0,0,1,4.61,4.7C363,576.13,360.65,574.72,359.43,572.55Z"/><path class="cls-32" d="M291.91,516.6c0,1.4-.06,2.81-.1,4.21-6.18-1.2-7,7.66-13,6.9-6.77-.18-13.58-.53-19.51,3.73q-.12-10.11-.27-20.21c11.48-5.81,22-2.78,32.29,3.32A2.38,2.38,0,0,1,291.91,516.6Z"/><path class="cls-84" d="M293,608.7c.54-21.7-17.25-42.54-3-64.89-.41,11.17-2.82,22.29,2.45,33.3C297.33,587.27,296.07,598,293,608.7Z"/><path class="cls-112" d="M284.84,626.51c-5.95,3.18-12.23,1.28-18.38,1.22-.76-4.4-12.12-5.53-3.91-12.7,8.42,3.7,16.66,2.47,26.19-3.26C287,618.4,285.91,622.46,284.84,626.51Z"/><path class="cls-113" d="M353.13,592.67c7.62-1.39,15.34-3.87,22.34,1.94l-9.7,7.08c-4,4.75-8.94,6.88-13.86,2.17C348.3,600.41,349,596,353.13,592.67Z"/><path class="cls-84" d="M353.13,592.67c-1.86,11.51,2.8,13.9,12.64,9-3.6,10.32-13.82,8.36-17.06,4.15-5.67-7.4-6.24-17.56,3.39-24.59Q352.61,587,353.13,592.67Z"/><path class="cls-114" d="M359.43,572.55c5.78,3.41,13.22,4.84,16.4,14.27-9.12-1.5-15.08-4.23-16.87-12.77Z"/><path class="cls-115" d="M726,563.69c-.63,11-5.25,19.16-16.51,19.3-10.93.14-15.26-8.92-15.37-18.08s3.95-18.33,14.58-19.1C720.49,544.94,724.16,554.08,726,563.69Z"/></g></svg>